<svg xmlns="http://www.w3.org/2000/svg" xmlns:xlink="http://www.w3.org/1999/xlink" width="1328" height="1231" viewBox="0 0 1328 1231">
  <defs>
    <clipPath id="clip-path">
      <rect id="Rectángulo_338493" data-name="Rectángulo 338493" width="1328" height="671" transform="translate(136 349)" fill="#fed947"/>
    </clipPath>
  </defs>
  <g id="Grupo_983869" data-name="Grupo 983869" transform="translate(-136 -349)">
    <g id="Grupo_983370" data-name="Grupo 983370">
      <g id="Grupo_983214" data-name="Grupo 983214">
        <rect id="Rectángulo_338493-2" data-name="Rectángulo 338493" width="1328" height="671" transform="translate(136 349)" fill="#ffbfc1"/>
      </g>
      <g id="Enmascarar_grupo_547" data-name="Enmascarar grupo 547" clip-path="url(#clip-path)">
        <g id="Grupo_983369" data-name="Grupo 983369" opacity="0.517">
          <path id="Trazado_208820" data-name="Trazado 208820" d="M126.412-20.5l.211.633q-3.377,25.536-20.576,38.989T61.306,32.58q-26.591,0-41.416-17.938T9.18-31.153l4.643-30.495Q18.149-90.772,37.2-108.129t46.27-17.358q27.013,0,41.258,13.876t10.13,38.462l-.317.633H104.569q2.321-15.3-3.693-22.265t-21-6.964q-13.3,0-23,11.291t-12.346,28.6L39.886-31.153q-2.743,18.36,3.746,29.229T64.789,8.944q13.3,0,21.473-7.334T96.655-20.5ZM274.982-32.631q-4.537,29.44-24.85,47.325T200.908,32.58q-27.329,0-42.841-18.624T146.777-32.631l4.115-27.646q4.326-29.229,24.533-47.22t49.014-17.991q27.54,0,43.157,18.73t11.5,46.481ZM248.392-60.488q2.743-18.571-4.485-29.756t-23.161-11.185q-15.089,0-25.8,11.607T181.6-60.488l-4.115,27.857Q174.634-13.743,181.6-2.558T204.5,8.627q15.195,0,26.063-11.607t13.717-29.651ZM414.056,30.364H383.245L336.711-73.255l-.633.106L320.672,30.364H289.86l23-153.636h30.812L390.1-19.757l.633-.106,15.511-103.409h30.812ZM500.9-11.316l.633,8.547.633.106L505.225-11l50.227-112.272h32.5L512.716,30.364H481.061L451.938-123.271h32.5Zm176.85-25.852h-56.98l-6.648,43.9h67.849l-3.588,23.636H579.827l23-153.636h98.344L697.691-99.53H630.054l-5.8,38.62h57.086ZM740-31.048l-9.18,61.412H700.013l23-153.636H776.2q25.219,0,38.778,12.082T825.369-77.9a39.707,39.707,0,0,1-9.391,20.893q-7.492,8.442-20.576,13.612,12.662,4.221,17.463,13.612t2.8,22.792L813.973,4.3a56.264,56.264,0,0,0-.264,13.559q.686,6.911,4.379,10.288l-.317,2.216H786.011q-3.588-3.377-3.693-11.027a100.593,100.593,0,0,1,.95-15.247l1.688-10.868q1.794-11.924-3.482-18.1t-16.989-6.173Zm3.588-23.742h21.842q12.451,0,19.838-5.54t9.075-16.2q1.583-10.868-3.8-16.936T772.715-99.53h-22.37ZM926.14-6.884q1.477-10.13-4.537-15.67T898.81-34.108q-26.38-8.336-39.095-20.26t-9.76-31.339q2.743-18.571,18.993-29.176t39.464-10.6q25.747,0,40.308,12.557t10.763,34.5l-.211.633H929.411q1.477-10.657-5.329-17.305t-19.257-6.648a28.651,28.651,0,0,0-16.092,4.537q-6.911,4.537-7.861,11.291Q879.395-76,885.62-70.934t26.063,11.818q24.9,8.125,36.562,20T956.951-7.1Q954,12.32,937.852,22.45t-40.1,10.13q-25.113,0-42.419-11.449T842.252-14.481l.211-.633h29.862q-2,13.19,6.911,18.624t22,5.434A30.943,30.943,0,0,0,917.8,4.459Q925.085-.025,926.14-6.884Zm129.577,4.115h-49.91l-15.3,33.133H958.323l74.813-153.636h31.55l28.6,153.636H1061.1ZM1017.1-26.933h34.61l-8.758-54.237-.633-.106Zm208.189-72.6h-44L1161.869,30.364h-30.812L1150.473-99.53h-43.157l3.482-23.742h117.97ZM1255.57,30.364h-30.812l23-153.636h30.812Zm164.293-62.995q-4.537,29.44-24.85,47.325T1345.789,32.58q-27.329,0-42.841-18.624t-11.291-46.587l4.115-27.646q4.326-29.229,24.533-47.22t49.014-17.991q27.54,0,43.157,18.73t11.5,46.481Zm-26.591-27.857q2.743-18.571-4.485-29.756t-23.161-11.185q-15.089,0-25.8,11.607t-13.348,29.334l-4.115,27.857q-2.849,18.888,4.115,30.073t22.9,11.185q15.195,0,26.063-11.607t13.718-29.651Zm165.665,90.852h-30.812l-46.534-103.62-.633.106L1465.553,30.364h-30.812l23-153.636h30.812l46.428,103.514.633-.106,15.511-103.409h30.812Z" transform="translate(83.704 715.884)" fill="none" stroke="#fc5f65" stroke-width="2" opacity="0.465"/>
          <path id="Trazado_208821" data-name="Trazado 208821" d="M167.575-66.369l.275.826Q163.444-32.221,141-14.665T82.617,2.892q-34.7,0-54.045-23.408T14.6-80.276l6.059-39.794q5.646-38,30.5-60.655t60.379-22.651q35.25,0,53.839,18.107t13.219,50.19l-.413.826H139.072q3.029-19.966-4.819-29.054t-27.4-9.088q-17.35,0-30.018,14.733t-16.11,37.315L54.665-80.276q-3.58,23.959,4.888,38.142T87.161-27.952q17.35,0,28.021-9.57t13.563-28.847ZM361.45-82.2q-5.921,38.417-32.427,61.756T264.788,2.892q-35.663,0-55.9-24.3T194.15-82.2l5.37-36.076q5.646-38.142,32.014-61.619t63.959-23.477q35.938,0,56.317,24.441T366.82-118.28Zm-34.7-36.352q3.58-24.234-5.852-38.83t-30.224-14.6q-19.69,0-33.667,15.146T239.59-118.556L234.22-82.2q-3.718,24.647,5.37,39.243t29.88,14.6q19.828,0,34.011-15.146t17.9-38.692ZM542.933,0H502.726L442-135.217l-.826.138L421.072,0H380.865l30.018-200.484H451.09L511.676-65.405l.826-.138,20.241-134.941H572.95ZM656.256-54.39l.826,11.153.826.138L661.9-53.977l65.543-146.508h42.41L671.678,0H630.369l-38-200.484h42.41ZM887.033-88.125H812.678L804-30.844h88.538L887.859,0H759.252L789.27-200.484H917.6L913.058-169.5H824.795l-7.573,50.4h74.493Zm81.24,7.986L956.294,0H916.087L946.1-200.484h69.4q32.909,0,50.6,15.766t13.563,43.443q-2.479,16.248-12.255,27.264t-26.851,17.763q16.523,5.508,22.789,17.763T1067-48.744l-2.2,14.733a73.418,73.418,0,0,0-.344,17.694q.9,9.019,5.714,13.425L1069.755,0h-41.446q-4.682-4.406-4.819-14.389a131.266,131.266,0,0,1,1.239-19.9l2.2-14.183q2.341-15.56-4.544-23.615t-22.169-8.055Zm4.682-30.981h28.5q16.248,0,25.887-7.229t11.842-21.136q2.065-14.183-4.957-22.1t-23.271-7.917H981.768Zm238.213,62.514q1.928-13.219-5.921-20.448T1175.5-84.132q-34.424-10.878-51.016-26.437t-12.737-40.9q3.58-24.234,24.785-38.073t51.5-13.838q33.6,0,52.6,16.386t14.045,45.026l-.275.826h-38.968q1.928-13.907-6.954-22.582t-25.129-8.675a37.388,37.388,0,0,0-21,5.921q-9.019,5.921-10.258,14.733-1.928,12.943,6.2,19.553t34.011,15.422q32.5,10.6,47.711,26.093t11.36,41.791q-3.855,25.336-24.923,38.555T1174.128,2.892q-32.771,0-55.354-14.94T1101.7-58.521l.275-.826h38.968q-2.616,17.212,9.019,24.3t28.709,7.091A40.378,40.378,0,0,0,1200.29-33.8Q1209.791-39.656,1211.168-48.606Zm169.09,5.37h-65.13L1295.162,0h-42l97.626-200.484h41.171L1429.277,0h-42Zm-50.4-31.532h45.164L1363.6-145.544l-.826-.138ZM1601.534-169.5h-57.419L1518.779,0h-40.207l25.336-169.5h-56.317l4.544-30.981h153.943ZM1641.053,0h-40.207l30.018-200.484h40.207Zm214.392-82.2q-5.921,38.417-32.427,61.756T1758.782,2.892q-35.663,0-55.9-24.3T1688.145-82.2l5.37-36.076q5.646-38.142,32.014-61.619t63.959-23.477q35.938,0,56.317,24.441t15.009,60.655Zm-34.7-36.352q3.58-24.234-5.852-38.83t-30.224-14.6q-19.69,0-33.667,15.146t-17.418,38.279l-5.37,36.352q-3.718,24.647,5.37,39.243t29.88,14.6q19.828,0,34.011-15.146t17.9-38.692ZM2036.927,0H1996.72L1936-135.217l-.826.138L1915.066,0h-40.207l30.018-200.484h40.207L2005.67-65.405l.826-.138,20.241-134.941h40.207Z" transform="translate(-159 567.5)" fill="none" stroke="#fc5f65" stroke-width="2" opacity="0.465"/>
          <path id="Trazado_208822" data-name="Trazado 208822" d="M167.575-66.369l.275.826Q163.444-32.221,141-14.665T82.617,2.892q-34.7,0-54.045-23.408T14.6-80.276l6.059-39.794q5.646-38,30.5-60.655t60.379-22.651q35.25,0,53.839,18.107t13.219,50.19l-.413.826H139.072q3.029-19.966-4.819-29.054t-27.4-9.088q-17.35,0-30.018,14.733t-16.11,37.315L54.665-80.276q-3.58,23.959,4.888,38.142T87.161-27.952q17.35,0,28.021-9.57t13.563-28.847ZM361.45-82.2q-5.921,38.417-32.427,61.756T264.788,2.892q-35.663,0-55.9-24.3T194.15-82.2l5.37-36.076q5.646-38.142,32.014-61.619t63.959-23.477q35.938,0,56.317,24.441T366.82-118.28Zm-34.7-36.352q3.58-24.234-5.852-38.83t-30.224-14.6q-19.69,0-33.667,15.146T239.59-118.556L234.22-82.2q-3.718,24.647,5.37,39.243t29.88,14.6q19.828,0,34.011-15.146t17.9-38.692ZM542.933,0H502.726L442-135.217l-.826.138L421.072,0H380.865l30.018-200.484H451.09L511.676-65.405l.826-.138,20.241-134.941H572.95ZM656.256-54.39l.826,11.153.826.138L661.9-53.977l65.543-146.508h42.41L671.678,0H630.369l-38-200.484h42.41ZM887.033-88.125H812.678L804-30.844h88.538L887.859,0H759.252L789.27-200.484H917.6L913.058-169.5H824.795l-7.573,50.4h74.493Zm81.24,7.986L956.294,0H916.087L946.1-200.484h69.4q32.909,0,50.6,15.766t13.563,43.443q-2.479,16.248-12.255,27.264t-26.851,17.763q16.523,5.508,22.789,17.763T1067-48.744l-2.2,14.733a73.418,73.418,0,0,0-.344,17.694q.9,9.019,5.714,13.425L1069.755,0h-41.446q-4.682-4.406-4.819-14.389a131.266,131.266,0,0,1,1.239-19.9l2.2-14.183q2.341-15.56-4.544-23.615t-22.169-8.055Zm4.682-30.981h28.5q16.248,0,25.887-7.229t11.842-21.136q2.065-14.183-4.957-22.1t-23.271-7.917H981.768Zm238.213,62.514q1.928-13.219-5.921-20.448T1175.5-84.132q-34.424-10.878-51.016-26.437t-12.737-40.9q3.58-24.234,24.785-38.073t51.5-13.838q33.6,0,52.6,16.386t14.045,45.026l-.275.826h-38.968q1.928-13.907-6.954-22.582t-25.129-8.675a37.388,37.388,0,0,0-21,5.921q-9.019,5.921-10.258,14.733-1.928,12.943,6.2,19.553t34.011,15.422q32.5,10.6,47.711,26.093t11.36,41.791q-3.855,25.336-24.923,38.555T1174.128,2.892q-32.771,0-55.354-14.94T1101.7-58.521l.275-.826h38.968q-2.616,17.212,9.019,24.3t28.709,7.091A40.378,40.378,0,0,0,1200.29-33.8Q1209.791-39.656,1211.168-48.606Zm169.09,5.37h-65.13L1295.162,0h-42l97.626-200.484h41.171L1429.277,0h-42Zm-50.4-31.532h45.164L1363.6-145.544l-.826-.138ZM1601.534-169.5h-57.419L1518.779,0h-40.207l25.336-169.5h-56.317l4.544-30.981h153.943ZM1641.053,0h-40.207l30.018-200.484h40.207Zm214.392-82.2q-5.921,38.417-32.427,61.756T1758.782,2.892q-35.663,0-55.9-24.3T1688.145-82.2l5.37-36.076q5.646-38.142,32.014-61.619t63.959-23.477q35.938,0,56.317,24.441t15.009,60.655Zm-34.7-36.352q3.58-24.234-5.852-38.83t-30.224-14.6q-19.69,0-33.667,15.146t-17.418,38.279l-5.37,36.352q-3.718,24.647,5.37,39.243t29.88,14.6q19.828,0,34.011-15.146t17.9-38.692ZM2036.927,0H1996.72L1936-135.217l-.826.138L1915.066,0h-40.207l30.018-200.484h40.207L2005.67-65.405l.826-.138,20.241-134.941h40.207Z" transform="translate(-159 976.5)" fill="none" stroke="#fc5f65" stroke-width="2" opacity="0.465"/>
        </g>
      </g>
    </g>
    <g id="Grupo_983367" data-name="Grupo 983367">
      <path id="Rectángulo_338744" data-name="Rectángulo 338744" d="M0,0H1328a0,0,0,0,1,0,0V0a282,282,0,0,1-282,282H282A282,282,0,0,1,0,0V0A0,0,0,0,1,0,0Z" transform="translate(136 1298)" fill="#e1e8ff"/>
      <rect id="Rectángulo_338624" data-name="Rectángulo 338624" width="1328" height="286" transform="translate(136 1020)" fill="#e1e8ff"/>
    </g>
  </g>
</svg>
