<svg xmlns="http://www.w3.org/2000/svg" xmlns:xlink="http://www.w3.org/1999/xlink" width="293.255" height="323.072" viewBox="0 0 293.255 323.072">
  <defs>
    <clipPath id="clip-path">
      <path id="Trazado_180078" data-name="Trazado 180078" d="M101.267-65.145c-4.5,0-27.358,4.549-39.123,15.453-11,10.2-2.366,23.108-2.366,23.108S52.787-14.9,51.952-5.023c-.557,6.6,5.925,11.878,2.405,13.419A130.249,130.249,0,1,0,218.98,193.688c1.34-2.27,3.111-.805,5.558,0,3.656,1.194,8.484,3.39,11.451,0,8.163-9.328,21.4-25.213,21.827-41.655.018-.663,1.729-23.467,1.729-24.336,0-20.215-3.011-105.488-3.011-105.488S239.989,19.542,227.983,8.4c-2.458-2.282-38.049,19.163-40.991,16.838-2.7-2.136-5.77-4.358-8.935-6.449-3.109-2.055-6.5-4.086-10-5.965-8.025-4.319,8.759-16.66,0-28.08-4.418-5.761-6.824-24.232-16.528-34.431C138.4-63.5,108.519-65.145,101.267-65.145Z" transform="translate(23.568 65.145)" fill="#6b8dfc"/>
    </clipPath>
    <clipPath id="clip-path-2">
      <rect id="Rectángulo_45338" data-name="Rectángulo 45338" width="272.393" height="536.825" fill="none"/>
    </clipPath>
    <clipPath id="clip-path-3">
      <rect id="Rectángulo_45337" data-name="Rectángulo 45337" width="272.392" height="536.826" fill="none"/>
    </clipPath>
    <clipPath id="clip-path-4">
      <rect id="Rectángulo_45334" data-name="Rectángulo 45334" width="7.579" height="8.031" fill="none"/>
    </clipPath>
    <clipPath id="clip-path-5">
      <rect id="Rectángulo_45335" data-name="Rectángulo 45335" width="3.589" height="9.887" fill="none"/>
    </clipPath>
    <clipPath id="clip-path-6">
      <rect id="Rectángulo_45336" data-name="Rectángulo 45336" width="3.795" height="9.07" fill="none"/>
    </clipPath>
  </defs>
  <g id="Grupo_174381" data-name="Grupo 174381" transform="translate(0)">
    <ellipse id="Elipse_4864" data-name="Elipse 4864" cx="130.23" cy="130.231" rx="130.23" ry="130.231" transform="translate(10.142 62.611)" fill="#6b8dfc"/>
    <g id="Grupo_174380" data-name="Grupo 174380" transform="translate(0 65.926)">
      <g id="Grupo_174380-2" data-name="Grupo 174380" transform="translate(40.718)">
        <path id="Trazado_180079" data-name="Trazado 180079" d="M791.528,517c.027,0,.055.006.083.008a.978.978,0,0,0,1.033-.92c.52-9.082-2.389-18.71-9.154-30.3-1.779-3.047-3.705-6.07-5.568-8.994-3.687-5.788-7.5-11.772-10.272-18.125-9.733-22.307-6.6-47.967-1.773-72.374a.978.978,0,1,0-1.919-.379c-4.892,24.718-8.049,50.735,1.9,73.535,2.833,6.493,6.688,12.543,10.416,18.394,1.853,2.908,3.769,5.915,5.528,8.929,6.563,11.243,9.388,20.523,8.891,29.2a.978.978,0,0,0,.837,1.024" transform="translate(-738.772 -361.214)" fill="#3c3fa7"/>
        <path id="Trazado_180080" data-name="Trazado 180080" d="M823.31,307.264c1.017-1.7,2.56-3.415,4.537-3.372a4.145,4.145,0,0,1,3.409,2.37,8.6,8.6,0,0,1,.737,4.248c-.123,3.431-6.575,22.644-10.779,19.87-2.532-1.671-1.671-9.2-1.436-11.736a26.869,26.869,0,0,1,3.532-11.38" transform="translate(-795.77 -303.891)" fill="#3c3fa7"/>
        <path id="Trazado_180081" data-name="Trazado 180081" d="M812.85,393.869a7.783,7.783,0,0,1,3.982-.586,3.675,3.675,0,0,1,2.99,2.436,3.734,3.734,0,0,1-1.081,3.463,8.857,8.857,0,0,1-3.241,1.92c-1.583.614-3.215,1.093-4.844,1.57l-7.1,2.08a1.183,1.183,0,0,1-.352.065.82.82,0,0,1-.686-.912c.153-2.1,2.6-4.652,4.032-6.034a18.381,18.381,0,0,1,6.3-4" transform="translate(-778.704 -366.918)" fill="#3c3fa7"/>
        <path id="Trazado_180082" data-name="Trazado 180082" d="M870,384.808c-1.06-1.306-2.388-2.589-4.061-2.767a2.751,2.751,0,0,0-1.315.156,2.627,2.627,0,0,0-1.221,1.074,4.382,4.382,0,0,0,.185,4.357,12.907,12.907,0,0,0,3.112,3.32l5.571,4.686c.616.518,1.783,1.982,2.411,1.415a5.5,5.5,0,0,0,.307-2.129c-.059-3.473-2.887-7.523-4.99-10.112" transform="translate(-851.547 -359.023)" fill="#3c3fa7"/>
        <path id="Trazado_180083" data-name="Trazado 180083" d="M807.149,447.691a20.518,20.518,0,0,1,7.232-3.768,4.617,4.617,0,0,1,3.523.306c1.637,1.044,1.739,3.543.736,5.2a11.383,11.383,0,0,1-4.46,3.636L798.489,461.9c-.192-6.213,3.946-10.76,8.66-14.21" transform="translate(-776.881 -402.56)" fill="#3c3fa7"/>
        <path id="Trazado_180084" data-name="Trazado 180084" d="M879.946,436.661a14.643,14.643,0,0,0-5.41-4.642,6.387,6.387,0,0,0-3.72-.592,3.757,3.757,0,0,0-2.88,2.25c-.674,1.839.519,3.81,1.793,5.3A67.6,67.6,0,0,0,884.4,451.583a1.381,1.381,0,0,0,.621.267.91.91,0,0,0,.835-.545,2.034,2.034,0,0,0,.14-1.037,14.293,14.293,0,0,0-1.06-3.19c-.357-1.179-.461-2.394-.936-3.573a29.735,29.735,0,0,0-4.054-6.843" transform="translate(-863.988 -393.831)" fill="#3c3fa7"/>
        <path id="Trazado_180085" data-name="Trazado 180085" d="M829.708,512.529a3.471,3.471,0,0,1,2.706-.822,2.614,2.614,0,0,1,1.714,2.668,7.343,7.343,0,0,1-1.128,3.2c-2.5,4.587-6.276,13.372-10.82,16.035-4.3-6.392,2.144-17.329,7.528-21.084" transform="translate(-798.285 -450.491)" fill="#3c3fa7"/>
        <path id="Trazado_180086" data-name="Trazado 180086" d="M880.616,510.106c-3.22-1.546-6.936-2.726-10.322-1.589a3.737,3.737,0,0,0-1.879,1.217,3.206,3.206,0,0,0,.236,3.672,7.871,7.871,0,0,0,3.158,2.278,43.829,43.829,0,0,0,9.143,2.951c1.27.28,7.853,2.224,8.666,1.29,1.178-1.354-1.681-4.614-2.43-5.383a22.825,22.825,0,0,0-6.572-4.435" transform="translate(-867.938 -447.962)" fill="#3c3fa7"/>
        <path id="Trazado_180087" data-name="Trazado 180087" d="M796.569,613.9a14.328,14.328,0,0,1,4.056-7,4.681,4.681,0,0,1,3.493-1.447,3.852,3.852,0,0,1,3.046,3.152,9.1,9.1,0,0,1-.528,4.6,30.927,30.927,0,0,1-7.122,11.9c-.57.592-1.47,1.193-2.132.707-2.946-2.165-1.548-9.177-.814-11.912" transform="translate(-764.027 -516.668)" fill="#3c3fa7"/>
        <path id="Trazado_180088" data-name="Trazado 180088" d="M857.433,605.112a19.378,19.378,0,0,0-8.5-1.052,3.857,3.857,0,0,0-3.144,1.977,3.07,3.07,0,0,0,.834,3.159,7.984,7.984,0,0,0,2.977,1.7,201.536,201.536,0,0,0,19.761,5.813c.037-7.018-5.963-9.827-11.924-11.6" transform="translate(-840.828 -515.598)" fill="#3c3fa7"/>
      </g>
      <path id="Trazado_180089" data-name="Trazado 180089" d="M279.9,383.211c-1.393-.459-3.055-.68-4.217.216a3.322,3.322,0,0,0-1.142,2.907,6.249,6.249,0,0,0,1.216,2.982c3.066,4.388,8.7,6.627,12.619,10.169,2.747,2.482,2.568-1.827,2.162-3.817a16.983,16.983,0,0,0-3.362-7.311,15.758,15.758,0,0,0-7.275-5.145" transform="translate(-73.418 -335.524)" fill="#3c3fa7"/>
      <path id="Trazado_180111" data-name="Trazado 180111" d="M10.869.4c1.393-.459,3.055-.68,4.217.216a3.322,3.322,0,0,1,1.142,2.907A6.249,6.249,0,0,1,15.012,6.5c-3.066,4.389-8.7,6.627-12.619,10.169C-.353,19.155-.174,14.846.232,12.856A16.984,16.984,0,0,1,3.594,5.545,15.758,15.758,0,0,1,10.869.4" transform="matrix(0.875, -0.485, 0.485, 0.875, 27.059, 130.648)" fill="#3c3fa7"/>
      <path id="Trazado_180090" data-name="Trazado 180090" d="M258.675,432.425a.831.831,0,0,0,.756-1.257c-8.761-14.625-8.08-31.977-5.966-43.957,2.056-11.652,6.129-23.039,10.067-34.052,1.13-3.161,2.3-6.429,3.4-9.656,4.6-13.439,9.14-29.323,7.95-45.239a.831.831,0,0,0-1.658.124c1.168,15.617-3.321,31.3-7.865,44.577-1.1,3.216-2.267,6.479-3.4,9.634-3.962,11.078-8.059,22.532-10.14,34.323-2.163,12.26-2.848,30.036,6.177,45.1a.83.83,0,0,0,.67.4" transform="translate(-51.708 -271.552)" fill="#3c3fa7"/>
      <path id="Trazado_180112" data-name="Trazado 180112" d="M16.4,134.93a.831.831,0,0,1-.756-1.257c8.761-14.625,8.08-31.977,5.966-43.957-2.056-11.652-6.129-23.039-10.067-34.052-1.13-3.161-2.3-6.429-3.4-9.656C3.543,32.57-1,16.685.192.769A.831.831,0,0,1,1.85.893C.683,16.51,5.171,32.19,9.715,45.47c1.1,3.216,2.267,6.478,3.4,9.634,3.962,11.078,8.059,22.532,10.139,34.323,2.163,12.26,2.848,30.036-6.177,45.1a.83.83,0,0,1-.67.4" transform="matrix(0.875, -0.485, 0.485, 0.875, 11.443, 114.898)" fill="#3c3fa7"/>
      <path id="Trazado_180091" data-name="Trazado 180091" d="M244.269,234.282a7.91,7.91,0,0,0-2.088-3.527,3.548,3.548,0,0,0-3.843-.675,4.65,4.65,0,0,0-2,2.982c-1.188,4.1-.581,8.524.612,12.625.82,2.819,1.649,6.306,3.083,8.872,1.743,3.119,3.125-1.39,3.746-3.22,1.856-5.465,2.363-11.524.487-17.056" transform="translate(-18.388 -220.77)" fill="#3c3fa7"/>
      <path id="Trazado_180113" data-name="Trazado 180113" d="M1.18,4.514A7.91,7.91,0,0,1,3.268.987,3.548,3.548,0,0,1,7.111.312a4.65,4.65,0,0,1,2,2.982c1.188,4.1.581,8.524-.612,12.625-.82,2.819-1.649,6.306-3.083,8.872-1.743,3.119-3.125-1.39-3.746-3.22C-.188,16.106-.7,10.047,1.18,4.514" transform="matrix(0.875, -0.485, 0.485, 0.875, 0, 101.869)" fill="#3c3fa7"/>
      <path id="Trazado_180092" data-name="Trazado 180092" d="M263.447,328.9c-1.332-.6-2.994-.982-4.171-.118a3.166,3.166,0,0,0-.7,3.819,7.408,7.408,0,0,0,2.941,2.925c3.492,2.206,7.67,3.634,10.158,6.931.319.423.99.88,1.264.427a.788.788,0,0,0,.079-.391c.148-5.2-4.487-12.032-9.568-13.591" transform="translate(-51.596 -294.635)" fill="#3c3fa7"/>
      <path id="Trazado_180114" data-name="Trazado 180114" d="M9.571.623C10.9.025,12.565-.359,13.742.5a3.166,3.166,0,0,1,.7,3.819A7.408,7.408,0,0,1,11.5,7.248c-3.492,2.206-7.67,3.634-10.158,6.931-.319.423-.99.88-1.264.427A.788.788,0,0,1,0,14.214C-.145,9.018,4.49,2.182,9.571.623" transform="matrix(0.875, -0.485, 0.485, 0.875, 16.881, 120.691)" fill="#3c3fa7"/>
      <path id="Trazado_180093" data-name="Trazado 180093" d="M196.749,338.185a8.906,8.906,0,0,1,3.758-.54,4.313,4.313,0,0,1,3.2,1.849,3.518,3.518,0,0,1-1.6,4.9,7.08,7.08,0,0,1-2.841.295c-4.329-.114-8.825.179-12.663,2.185-.676-1.621,2.9-4.433,3.973-5.3a19.551,19.551,0,0,1,6.171-3.39" transform="translate(35.201 -301.63)" fill="#3c3fa7"/>
      <path id="Trazado_180115" data-name="Trazado 180115" d="M7.415.578A8.906,8.906,0,0,0,3.657.038a4.313,4.313,0,0,0-3.2,1.849,3.518,3.518,0,0,0,1.6,4.9A7.079,7.079,0,0,0,4.9,7.084c4.329-.114,8.824.179,12.663,2.185.676-1.621-2.9-4.433-3.973-5.3A19.552,19.552,0,0,0,7.415.578" transform="matrix(0.875, -0.485, 0.485, 0.875, 2.319, 131.43)" fill="#3c3fa7"/>
      <path id="Trazado_180094" data-name="Trazado 180094" d="M208.087,404.53c2.081-.118,4.452.252,5.652,1.956a2.144,2.144,0,0,1,.447,1.465c-.119.941-1.06,1.528-1.922,1.926-5.455,2.518-11.8,3.047-16.789,6.4a1.463,1.463,0,0,1-.866.349c-3.018-.2,2.2-7.257,2.994-7.942a17.674,17.674,0,0,1,10.483-4.152" transform="translate(23.376 -351.795)" fill="#3c3fa7"/>
      <path id="Trazado_180116" data-name="Trazado 180116" d="M6.111.02C4.03-.1,1.659.272.459,1.976A2.145,2.145,0,0,0,.012,3.441c.119.941,1.06,1.528,1.922,1.926,5.455,2.518,11.8,3.047,16.789,6.4a1.463,1.463,0,0,0,.866.349c3.018-.2-2.2-7.257-2.994-7.942A17.675,17.675,0,0,0,6.111.02" transform="matrix(0.875, -0.485, 0.485, 0.875, 12, 145.201)" fill="#3c3fa7"/>
      <path id="Trazado_180095" data-name="Trazado 180095" d="M307.57,441.553a9.47,9.47,0,0,0-3.656-1.53,4.268,4.268,0,0,0-3.682,1.1c-1.136,1.2-1.211,3.057-.9,4.676.71,3.644,2.994,6.785,5.524,9.5a49.506,49.506,0,0,0,9.539,7.96c.741.475,1.717.931,2.447.439a2.218,2.218,0,0,0,.743-1.219c2.683-8.253-3.152-16.589-10.02-20.932" transform="translate(-107.076 -378.385)" fill="#3c3fa7"/>
      <path id="Trazado_180117" data-name="Trazado 180117" d="M10.687,1.58A9.471,9.471,0,0,1,14.343.05a4.268,4.268,0,0,1,3.682,1.1c1.136,1.2,1.211,3.057.9,4.676-.71,3.644-2.994,6.786-5.524,9.5a49.506,49.506,0,0,1-9.539,7.96c-.741.475-1.717.931-2.447.439a2.218,2.218,0,0,1-.743-1.219C-2.017,14.259,3.818,5.924,10.687,1.58" transform="matrix(0.875, -0.485, 0.485, 0.875, 39.387, 140.165)" fill="#3c3fa7"/>
      <path id="Trazado_180096" data-name="Trazado 180096" d="M203.091,484.382a21.558,21.558,0,0,1,12.916-2.444c2.059.287,4.406,1.262,4.812,3.3a3.831,3.831,0,0,1-.6,2.712,7.792,7.792,0,0,1-5.392,3.208,46.8,46.8,0,0,1-6.451.306,30.451,30.451,0,0,0-14.872,4.543.588.588,0,0,1-.525.126.534.534,0,0,1-.244-.392c-.994-4.252,7.226-9.709,10.352-11.36" transform="translate(16.954 -409.715)" fill="#3c3fa7"/>
      <path id="Trazado_180118" data-name="Trazado 180118" d="M17.785,2.626A21.558,21.558,0,0,0,4.869.182C2.81.469.464,1.444.057,3.483A3.831,3.831,0,0,0,.654,6.2,7.792,7.792,0,0,0,6.046,9.4a46.8,46.8,0,0,0,6.451.306,30.451,30.451,0,0,1,14.872,4.543.588.588,0,0,0,.525.126.534.534,0,0,0,.244-.392c.994-4.252-7.226-9.709-10.352-11.36" transform="matrix(0.875, -0.485, 0.485, 0.875, 21.146, 162.228)" fill="#3c3fa7"/>
      <path id="Trazado_180097" data-name="Trazado 180097" d="M340.336,545.963a16.4,16.4,0,0,0-6.309-6.97,4.311,4.311,0,0,0-3.855-.559,3.229,3.229,0,0,0-1.676,2.746,6.312,6.312,0,0,0,.838,3.227,24.734,24.734,0,0,0,3.236,4.458l7.879,9.308a2.077,2.077,0,0,0,.8.669c.844.316,1.693-.579,1.867-1.463.715-3.633-1.165-8.245-2.777-11.416" transform="translate(-139.422 -452.017)" fill="#3c3fa7"/>
      <path id="Trazado_180119" data-name="Trazado 180119" d="M2.933,7.79A16.4,16.4,0,0,1,9.241.82,4.311,4.311,0,0,1,13.1.262a3.229,3.229,0,0,1,1.676,2.746,6.312,6.312,0,0,1-.838,3.227A24.73,24.73,0,0,1,10.7,10.692L2.819,20a2.077,2.077,0,0,1-.8.669C1.18,20.985.33,20.091.156,19.206-.559,15.573,1.321,10.961,2.933,7.79" transform="matrix(0.875, -0.485, 0.485, 0.875, 57.711, 158.097)" fill="#3c3fa7"/>
      <path id="Trazado_180098" data-name="Trazado 180098" d="M235.225,570a10.27,10.27,0,0,1,5.867.372,6.262,6.262,0,0,1,2.4,8.938c-1.905,2.667-5.561,3.312-8.836,3.443-7.228.289-15.035-.719-21.2,3.072.447-.275,1.044-2.919,1.343-3.539a11.667,11.667,0,0,1,1.168-2.078,23.519,23.519,0,0,1,5.425-4.649A34.314,34.314,0,0,1,235.225,570" transform="translate(-11.873 -475.699)" fill="#3c3fa7"/>
      <g id="Grupo_174382" data-name="Grupo 174382" transform="translate(185.128 71.651)">
        <path id="Trazado_180100" data-name="Trazado 180100" d="M10.869,17.023c1.393.459,3.055.68,4.217-.216A3.322,3.322,0,0,0,16.228,13.9a6.249,6.249,0,0,0-1.216-2.982C11.946,6.53,6.314,4.292,2.394.75-.353-1.732-.174,2.577.232,4.567a16.983,16.983,0,0,0,3.362,7.311,15.758,15.758,0,0,0,7.275,5.145" transform="matrix(-0.875, -0.485, 0.485, -0.875, 62.894, 48.745)" fill="#3c3fa7"/>
        <path id="Trazado_180101" data-name="Trazado 180101" d="M16.4,0a.831.831,0,0,0-.756,1.257c8.761,14.625,8.08,31.977,5.966,43.957-2.056,11.652-6.129,23.039-10.067,34.052-1.13,3.161-2.3,6.429-3.4,9.656C3.543,102.362-1,118.246.192,134.163a.831.831,0,0,0,1.658-.124c-1.168-15.617,3.321-31.3,7.865-44.577,1.1-3.216,2.267-6.479,3.4-9.634C17.073,68.75,21.17,57.3,23.251,45.505,25.414,33.245,26.1,15.469,17.074.4A.83.83,0,0,0,16.4,0" transform="matrix(-0.875, -0.485, 0.485, -0.875, 21.541, 135.771)" fill="#3c3fa7"/>
        <path id="Trazado_180102" data-name="Trazado 180102" d="M1.18,21.347a7.91,7.91,0,0,0,2.088,3.527,3.548,3.548,0,0,0,3.843.675,4.65,4.65,0,0,0,2-2.982c1.188-4.1.581-8.524-.612-12.625-.82-2.819-1.649-6.306-3.083-8.872C3.671-2.049,2.289,2.46,1.667,4.291-.188,9.756-.7,15.815,1.18,21.347" transform="matrix(-0.875, -0.485, 0.485, -0.875, 85.862, 27.347)" fill="#3c3fa7"/>
        <path id="Trazado_180103" data-name="Trazado 180103" d="M9.572,14.17c1.332.6,2.994.982,4.171.118a3.166,3.166,0,0,0,.7-3.819A7.408,7.408,0,0,0,11.5,7.545C8.013,5.339,3.835,3.911,1.347.614,1.028.191.357-.265.083.188A.788.788,0,0,0,0,.579C-.145,5.776,4.49,12.611,9.572,14.17" transform="matrix(-0.875, -0.485, 0.485, -0.875, 74.347, 36.489)" fill="#3c3fa7"/>
        <path id="Trazado_180104" data-name="Trazado 180104" d="M7.415,8.692a8.906,8.906,0,0,1-3.759.54,4.313,4.313,0,0,1-3.2-1.849,3.518,3.518,0,0,1,1.6-4.9A7.08,7.08,0,0,1,4.9,2.185C9.227,2.3,13.722,2.006,17.56,0c.676,1.621-2.9,4.433-3.973,5.3a19.551,19.551,0,0,1-6.171,3.39" transform="matrix(-0.875, -0.485, 0.485, -0.875, 91.587, 42.396)" fill="#3c3fa7"/>
        <path id="Trazado_180105" data-name="Trazado 180105" d="M6.111,12.1c-2.081.118-4.452-.252-5.652-1.956A2.144,2.144,0,0,1,.012,8.675c.119-.941,1.06-1.528,1.922-1.926C7.389,4.231,13.736,3.7,18.722.35A1.463,1.463,0,0,1,19.589,0c3.018.2-2.2,7.257-2.994,7.942A17.674,17.674,0,0,1,6.111,12.1" transform="matrix(-0.875, -0.485, 0.485, -0.875, 80.526, 58.657)" fill="#3c3fa7"/>
        <path id="Trazado_180106" data-name="Trazado 180106" d="M10.687,22.363a9.471,9.471,0,0,0,3.656,1.53,4.268,4.268,0,0,0,3.682-1.1c1.136-1.2,1.211-3.057.9-4.676-.71-3.644-2.994-6.785-5.524-9.5A49.507,49.507,0,0,0,3.857.651C3.116.176,2.14-.28,1.41.212A2.218,2.218,0,0,0,.667,1.431C-2.017,9.684,3.818,18.02,10.687,22.363" transform="matrix(-0.875, -0.485, 0.485, -0.875, 47.405, 63.966)" fill="#3c3fa7"/>
        <path id="Trazado_180107" data-name="Trazado 180107" d="M17.785,11.779A21.558,21.558,0,0,1,4.869,14.223C2.81,13.935.464,12.961.057,10.922a3.831,3.831,0,0,1,.6-2.712A7.792,7.792,0,0,1,6.046,5,46.8,46.8,0,0,1,12.5,4.7,30.451,30.451,0,0,0,27.368.153a.588.588,0,0,1,.525-.126.534.534,0,0,1,.244.392c.994,4.252-7.226,9.709-10.352,11.36" transform="matrix(-0.875, -0.485, 0.485, -0.875, 70.27, 77.686)" fill="#3c3fa7"/>
        <path id="Trazado_180108" data-name="Trazado 180108" d="M2.933,12.944a16.4,16.4,0,0,0,6.309,6.97,4.311,4.311,0,0,0,3.855.559,3.229,3.229,0,0,0,1.676-2.746,6.312,6.312,0,0,0-.838-3.227A24.734,24.734,0,0,0,10.7,10.042L2.819.734a2.077,2.077,0,0,0-.8-.669C1.18-.251.33.644.156,1.528-.559,5.161,1.321,9.773,2.933,12.944" transform="matrix(-0.875, -0.485, 0.485, -0.875, 30.636, 79.092)" fill="#3c3fa7"/>
        <path id="Trazado_180109" data-name="Trazado 180109" d="M9.272,15.825a10.27,10.27,0,0,1-5.867-.372A6.262,6.262,0,0,1,1,6.515C2.907,3.848,6.563,3.2,9.838,3.072c7.228-.289,15.035.719,21.2-3.072-.447.275-1.044,2.919-1.343,3.539a11.667,11.667,0,0,1-1.168,2.078A23.519,23.519,0,0,1,23.1,10.266,34.314,34.314,0,0,1,9.272,15.825" transform="matrix(-0.875, -0.485, 0.485, -0.875, 54.236, 95.875)" fill="#3c3fa7"/>
      </g>
      <path id="Trazado_180120" data-name="Trazado 180120" d="M9.272.246A10.27,10.27,0,0,0,3.406.618,6.262,6.262,0,0,0,1,9.556C2.907,12.222,6.563,12.868,9.838,13c7.228.289,15.035-.719,21.2,3.072-.447-.275-1.044-2.919-1.343-3.539a11.668,11.668,0,0,0-1.168-2.078A23.519,23.519,0,0,0,23.1,5.8,34.314,34.314,0,0,0,9.272.246" transform="matrix(0.875, -0.485, 0.485, 0.875, 36.373, 178.96)" fill="#3c3fa7"/>
      <path id="Trazado_180099" data-name="Trazado 180099" d="M351.394,627.2a15.23,15.23,0,0,0-3.789-5.484,11.043,11.043,0,0,0-3-2.029,1.821,1.821,0,0,0-1.223-.192,1.6,1.6,0,0,0-.757.581,5.14,5.14,0,0,0-.572,4.792,13.9,13.9,0,0,0,2.663,4.237q3.128,3.792,6.587,7.293a.862.862,0,0,0,.473.3c.391.047.631-.412.733-.793.827-3.093.052-5.814-1.114-8.706" transform="translate(-152.318 -512.959)" fill="#3c3fa7"/>
      <path id="Trazado_180110" data-name="Trazado 180110" d="M1.459,9.5a15.23,15.23,0,0,0,3.789,5.484,11.044,11.044,0,0,0,3,2.029,1.821,1.821,0,0,0,1.223.192,1.6,1.6,0,0,0,.757-.581,5.14,5.14,0,0,0,.572-4.792A13.9,13.9,0,0,0,8.137,7.6Q5.009,3.806,1.55.305A.862.862,0,0,0,1.077,0C.686-.044.447.415.345.8-.482,3.889.293,6.61,1.459,9.5" transform="matrix(-0.875, -0.485, 0.485, -0.875, 214.676, 162.021)" fill="#3c3fa7"/>
      <path id="Trazado_180121" data-name="Trazado 180121" d="M1.459,7.75A15.23,15.23,0,0,1,5.248,2.266a11.046,11.046,0,0,1,3-2.029A1.821,1.821,0,0,1,9.472.045a1.6,1.6,0,0,1,.757.58A5.14,5.14,0,0,1,10.8,5.417,13.9,13.9,0,0,1,8.137,9.654Q5.009,13.446,1.55,16.948a.862.862,0,0,1-.473.3c-.391.047-.631-.412-.733-.793C-.482,13.363.293,10.642,1.459,7.75" transform="matrix(0.875, -0.485, 0.485, 0.875, 70.464, 174.278)" fill="#3c3fa7"/>
    </g>
    <g id="Enmascarar_grupo_283" data-name="Enmascarar grupo 283" transform="translate(10.142)" clip-path="url(#clip-path)">
      <g id="Grupo_175149" data-name="Grupo 175149" transform="translate(9.698 3.974)">
        <g id="Grupo_175148" data-name="Grupo 175148" clip-path="url(#clip-path-2)">
          <rect id="Rectángulo_45333" data-name="Rectángulo 45333" width="26.363" height="26.363" transform="translate(103.518 82.926)" fill="#ea8271"/>
          <g id="Grupo_175147" data-name="Grupo 175147" transform="translate(0.001 -0.001)">
            <g id="Grupo_175146" data-name="Grupo 175146" clip-path="url(#clip-path-3)">
              <path id="Trazado_184227" data-name="Trazado 184227" d="M633.937,364.15a31.915,31.915,0,0,1-26.363-1.384V353.54h26.363Z" transform="translate(-504.056 -270.613)"/>
              <path id="Trazado_184228" data-name="Trazado 184228" d="M791.181,2235.323l30.409,5.159-.289,6.612-30.063-.654Z" transform="translate(-734.776 -1711.008)"/>
              <path id="Trazado_184229" data-name="Trazado 184229" d="M549.536,2246.693l-32.388,1.57c.159-6.562.168-11.29.168-11.29l1.176-1.089,32.487,1.894Z" transform="translate(-399.889 -1711.437)"/>
              <path id="Trazado_184230" data-name="Trazado 184230" d="M497.259,966.395s14.993,51.448,16.1,84.165-28.7,221.127-28.7,221.127l-45.991-2.575-.736-211.133-21.708,213.341-41.208-1.84s-23.906-177.933-15.821-215.608,25.893-88.856,25.893-88.856Z" transform="translate(-324.854 -738.661)" fill="#5774cd"/>
              <path id="Trazado_184231" data-name="Trazado 184231" d="M482.51,26.118c-4.207-2.893-6.551-6.8-5.751-10.489,1.267-5.837,9.924-8.913,19.337-6.87a25.136,25.136,0,0,1,9.6,4.211C507.922,5.5,515.431,0,524.356,0S540.812,5.512,543.025,13c8.065.422,14.454,6.118,14.454,13.086,0,7.242-6.9,13.114-15.412,13.114a16.526,16.526,0,0,1-11.961-4.846,21.113,21.113,0,0,1-5.75.79A19.865,19.865,0,0,1,508.2,27.219a11.458,11.458,0,0,1-2.128,1.405,5.272,5.272,0,0,1,1.995,3.862c0,4.405-7.142,7.976-15.953,7.976s-15.953-3.571-15.953-7.976c0-2.6,2.493-4.913,6.35-6.369" transform="translate(-396.774 0.004)" fill="#9fa8c1"/>
              <path id="Trazado_184232" data-name="Trazado 184232" d="M55.1,486.586l2-13.533a17.779,17.779,0,0,0,3.581-5.545c1.318-3.321,5.483-17.127,5.483-17.127L37.519,443.8s-3.02,19.874-2.047,24.569-.85,13.189-.85,13.189Z" transform="translate(198.105 -339.699)" fill="#ea8271"/>
              <path id="Trazado_184233" data-name="Trazado 184233" d="M157.357,456.437s-12.262-9.5-14.6-16.226c-2-5.736-2.568-10.262-3.56-13.153-.272-.792.27-1.552,1.3-1.8h0a5.2,5.2,0,0,1,5.177,1.6,25.317,25.317,0,0,1,3.936,7.241c.717,2.518,8.665,6.275,8.665,6.275Z" transform="translate(81.487 -325.395)" fill="#ea8271"/>
              <path id="Trazado_184234" data-name="Trazado 184234" d="M118.642,366.862l1.967-22.673c.109-1.533,1.87-2.589,3.884-2.33,1.9.245,3.337,1.582,3.252,3.033l-1.354,23.028Z" transform="translate(116.816 -261.642)" fill="#ea8271"/>
              <path id="Trazado_184235" data-name="Trazado 184235" d="M72.309,369.309l5.14-23.674c.351-1.618,2.289-2.615,4.273-2.2,1.876.394,3.106,1.912,2.792,3.444l-4.99,24.327Z" transform="translate(170.868 -262.807)" fill="#ea8271"/>
              <path id="Trazado_184236" data-name="Trazado 184236" d="M39.9,385.824l5.275-20.637c.361-1.41,2.294-2.217,4.265-1.78,1.863.414,3.076,1.793,2.753,3.13l-5.13,21.216Z" transform="translate(210.786 -278.075)" fill="#ea8271"/>
              <path id="Trazado_184237" data-name="Trazado 184237" d="M0,420.6l9.115-14.059c.623-.961,2.32-1.211,3.744-.553,1.346.623,1.952,1.833,1.376,2.747l-9.144,14.5Z" transform="translate(257.94 -310.478)" fill="#ea8271"/>
              <path id="Trazado_184238" data-name="Trazado 184238" d="M107.695,503.268a.625.625,0,0,0,.6-.463c.947-3.528.2-7.313-2.15-10.946a20.881,20.881,0,0,0-3.85-4.439.625.625,0,0,0-.792.967c.077.063,7.652,6.389,5.584,14.094a.626.626,0,0,0,.6.787" transform="translate(139.939 -372.981)"/>
              <path id="Trazado_184239" data-name="Trazado 184239" d="M1023.054,1361.077s-1.529,18.053,6.5,33.384c6.059,11.567,14.328,13.693,18.023,14.04a2.15,2.15,0,0,0,2.321-1.489,3.3,3.3,0,0,0-1.621-3.671,30.015,30.015,0,0,1-6.266-5.138c-4.673-4.927,1.512-16.731,1.512-26.185,0-15.077-10.678-8.792-10.678-8.792Z" transform="translate(-1017.549 -1041.824)" fill="#ea8271"/>
              <path id="Trazado_184240" data-name="Trazado 184240" d="M1022.488,1381.672s-1.529,18.054,6.5,33.384c5.651,10.788,13.224,13.364,17.216,13.943a2.918,2.918,0,0,0,3.287-1.994,2.464,2.464,0,0,0-1.267-2.772,29.257,29.257,0,0,1-6.778-5.435c-4.673-4.927-6.98-16.1-6.98-16.1l-2.186-18.881Z" transform="translate(-1016.983 -1057.588)" fill="#ea8271"/>
              <path id="Trazado_184241" data-name="Trazado 184241" d="M1031.706,1371.285s-7.11,19.258-1.2,37.434c4.619,14.21,15.17,17.9,19.554,18.84a2.677,2.677,0,0,0,2.846-1.15,3.3,3.3,0,0,0-.931-4.392,32.987,32.987,0,0,1-6.583-6.81c-4.578-6.25-4.345-18.8-4.345-18.8l2.589-20.88Z" transform="translate(-1022.148 -1049.637)" fill="#ea8271"/>
              <path id="Trazado_184242" data-name="Trazado 184242" d="M1050.364,1367.33s-7.11,19.258-1.2,37.435c4.634,14.257,15.239,17.928,19.6,18.849a2.621,2.621,0,0,0,2.782-1.124,3.348,3.348,0,0,0-.944-4.452,33.023,33.023,0,0,1-6.549-6.784c-4.578-6.25-4.345-18.8-4.345-18.8l2.589-20.88Z" transform="translate(-1045.168 -1046.61)" fill="#ea8271"/>
              <path id="Trazado_184243" data-name="Trazado 184243" d="M1075.336,1367.523s-2.311,16.676-2.311,25.455-2.645,9.374-5.732,9.234c-4.9-.222-5.162-8.615-5.162-13.872s-2.6-5.844-2.6-5.844l7.951-20.131Z" transform="translate(-1051.464 -1042.809)" fill="#ea8271"/>
              <path id="Trazado_184244" data-name="Trazado 184244" d="M1066.009,1417.733a4.837,4.837,0,0,0,3.541-1.179c1.464-1.4,2.146-4.15,2.146-8.657,0-8.639,2.282-25.209,2.306-25.375a.586.586,0,1,0-1.162-.161c-.023.167-2.317,16.818-2.317,25.536,0,4.108-.584,6.662-1.784,7.809a4.245,4.245,0,0,1-3.336.839c-4.08-.185-4.891-6.443-5.542-11.471-.047-.364-.093-.72-.14-1.066-.693-5.16-1.559-6.8-1.6-6.872a.586.586,0,1,0-1.031.559c.006.012.809,1.588,1.464,6.469.046.344.092.7.139,1.061.67,5.175,1.588,12.263,6.652,12.492.219.01.438.016.658.016" transform="translate(-1049.549 -1057.728)"/>
              <path id="Trazado_184245" data-name="Trazado 184245" d="M1052.737,1548.165a3.172,3.172,0,0,0,2.718-1.467,3.941,3.941,0,0,0-1.091-5.222,32.557,32.557,0,0,1-6.432-6.664,17.713,17.713,0,0,1-2.46-5.2.586.586,0,1,0-1.12.348,18.858,18.858,0,0,0,2.634,5.54,33.749,33.749,0,0,0,6.667,6.9,2.752,2.752,0,0,1,.8,3.683,2.033,2.033,0,0,1-2.158.853.586.586,0,0,0-.243,1.147,3.328,3.328,0,0,0,.687.072" transform="translate(-1028.581 -1170.516)"/>
              <path id="Trazado_184246" data-name="Trazado 184246" d="M1040.564,1540.608a.586.586,0,0,0,.355-1.053c-.285-.216-.6-.448-.95-.7a26.123,26.123,0,0,1-6.124-5.707,24.275,24.275,0,0,1-3.639-6.892.586.586,0,0,0-1.134.3,24.9,24.9,0,0,0,3.826,7.286,27.147,27.147,0,0,0,6.381,5.963c.338.245.65.472.93.684a.583.583,0,0,0,.354.119" transform="translate(-1010.131 -1167.924)"/>
              <path id="Trazado_184247" data-name="Trazado 184247" d="M1032.277,1523.357a.587.587,0,0,0,.245-1.12,33.458,33.458,0,0,1-6.626-4.158c-2.781-2.359-4.3-7.265-4.311-7.315a.586.586,0,0,0-1.122.341c.065.215,1.633,5.289,4.674,7.868a34.011,34.011,0,0,0,6.9,4.33.58.58,0,0,0,.244.054" transform="translate(-999.824 -1156.082)"/>
              <g id="Grupo_175139" data-name="Grupo 175139" transform="translate(12.516 350.78)" style="mix-blend-mode: overlay;isolation: isolate">
                <g id="Grupo_175138" data-name="Grupo 175138">
                  <g id="Grupo_175137" data-name="Grupo 175137" clip-path="url(#clip-path-4)">
                    <path id="Trazado_184248" data-name="Trazado 184248" d="M1079.418,1503.513a4.022,4.022,0,1,0-3.789-4.016,3.912,3.912,0,0,0,3.789,4.016m0-6.858a2.853,2.853,0,1,1-2.616,2.843,2.74,2.74,0,0,1,2.616-2.843" transform="translate(-1075.628 -1495.482)"/>
                  </g>
                </g>
              </g>
              <path id="Trazado_184249" data-name="Trazado 184249" d="M94.515,574.936l-1.258,8.5L70.118,579a51.938,51.938,0,0,0,.716-8.528Z" transform="translate(161.431 -436.664)"/>
              <path id="Trazado_184250" data-name="Trazado 184250" d="M1051.8,1384.061s17.2,11.183,21.854,10.713l.879-5.349-22.05-12.87Z" transform="translate(-1048.853 -1053.671)"/>
              <path id="Trazado_184251" data-name="Trazado 184251" d="M579.536,112.238c0-20.608-15.374-37.314-34.339-37.314s-34.339,16.706-34.339,37.314,15.374,37.314,34.339,37.314,34.339-16.706,34.339-37.314" transform="translate(-426.97 -57.349)" fill="#ea8271"/>
              <path id="Trazado_184252" data-name="Trazado 184252" d="M580.222,165.447c.319-1.305-1.949-2.982-5.068-3.746s-5.906-.324-6.225.982,1.949,2.982,5.068,3.746,5.906.324,6.225-.982" transform="translate(-441.3 -123.484)" fill="#70798c"/>
              <path id="Trazado_184253" data-name="Trazado 184253" d="M692.865,147.178c-.054-1.343-2.7-2.327-5.907-2.2s-5.765,1.322-5.711,2.666,2.7,2.327,5.907,2.2,5.765-1.322,5.711-2.666" transform="translate(-580.266 -110.964)" fill="#70798c"/>
              <path id="Trazado_184254" data-name="Trazado 184254" d="M635.36,288.569a22.5,22.5,0,0,0,7.186-1.2.676.676,0,1,0-.429-1.282A21.414,21.414,0,0,1,621.89,282.4a.676.676,0,0,0-.911,1,23.133,23.133,0,0,0,14.38,5.167" transform="translate(-516.22 -216.027)"/>
              <path id="Trazado_184255" data-name="Trazado 184255" d="M462.79,233.171s7.448-4.439,11.564,2.313-2.61,14.163-9.4,12.207c-3.4-.979-5.474-6.377-5.474-6.377Z" transform="translate(-310.998 -177.381)" fill="#ea8271"/>
              <path id="Trazado_184256" data-name="Trazado 184256" d="M541.063,1066.535l53.047,3.973-.41-94.231-46.467.241Z" transform="translate(-448.629 -747.281)" fill="#5774cd"/>
              <path id="Trazado_184257" data-name="Trazado 184257" d="M475.226,253.176a.675.675,0,0,0,.516-.238c.051-.06,4-4.614,7.775-3.009a.676.676,0,1,0,.528-1.244c-1.972-.837-4.225-.5-6.517.966a13.848,13.848,0,0,0-2.817,2.412.676.676,0,0,0,.515,1.113" transform="translate(-323.374 -190.007)"/>
              <path id="Trazado_184258" data-name="Trazado 184258" d="M494.5,264.2a.676.676,0,0,0,.585-1.014l-2.951-5.1a.676.676,0,0,0-1.171.677l2.951,5.1a.676.676,0,0,0,.586.338" transform="translate(-337.92 -197.287)"/>
              <path id="Trazado_184259" data-name="Trazado 184259" d="M646.1,236.708a.676.676,0,0,0,.609-.969l-2.486-5.165a.676.676,0,0,0-1.016-.247l-4.776,3.606a.676.676,0,1,0,.815,1.079l4.117-3.109,2.127,4.422a.676.676,0,0,0,.61.383" transform="translate(-524.073 -176.196)"/>
              <g id="Grupo_175142" data-name="Grupo 175142" transform="translate(130.368 69.177)" style="mix-blend-mode: overlay;isolation: isolate">
                <g id="Grupo_175141" data-name="Grupo 175141" transform="translate(0)">
                  <g id="Grupo_175140" data-name="Grupo 175140" clip-path="url(#clip-path-5)">
                    <path id="Trazado_184260" data-name="Trazado 184260" d="M590.871,304.8a.673.673,0,0,0,.433-.158c3.741-3.133,2.156-8.987,2.087-9.235a.676.676,0,0,0-1.3.364c.016.057,1.414,5.267-1.653,7.835a.676.676,0,0,0,.434,1.194" transform="translate(-590.194 -294.917)"/>
                  </g>
                </g>
              </g>
              <path id="Trazado_184261" data-name="Trazado 184261" d="M807.3,2196.845a.586.586,0,0,0,.038-1.172l-45.9-3.012a.592.592,0,0,0-.623.546.586.586,0,0,0,.547.624l45.9,3.012.039,0" transform="translate(-713.944 -1678.352)" fill="#fff"/>
              <path id="Trazado_184262" data-name="Trazado 184262" d="M517.393,2197.8a.586.586,0,0,0,.034-1.172l-47.846-2.835a.586.586,0,0,0-.069,1.171l47.846,2.835h.035" transform="translate(-355.585 -1679.217)" fill="#fff"/>
              <path id="Trazado_184263" data-name="Trazado 184263" d="M643.641,1364.3a.586.586,0,0,0,.054-1.17l-22.325-2.084a.586.586,0,0,0-.109,1.168l22.325,2.084.055,0" transform="translate(-517.432 -1041.796)" fill="#fff"/>
              <path id="Trazado_184264" data-name="Trazado 184264" d="M464.838,1053.79h76.494a.586.586,0,1,0,0-1.173H464.838a.586.586,0,1,0,0,1.173" transform="translate(-378.42 -805.715)" fill="#fff"/>
              <path id="Trazado_184265" data-name="Trazado 184265" d="M632.667,1014.421a.586.586,0,0,0,.586-.586V946.878a.586.586,0,0,0-.586-.586H615.381a.586.586,0,0,0-.586.586V989.2a.586.586,0,1,0,1.173,0V947.464h16.113v66.37a.586.586,0,0,0,.586.586" transform="translate(-505.066 -724.329)" fill="#fff"/>
              <path id="Trazado_184266" data-name="Trazado 184266" d="M637.228,999.856a5.183,5.183,0,1,0-5.183-5.183,5.189,5.189,0,0,0,5.183,5.183m0-9.193a4.01,4.01,0,1,1-4.01,4.01,4.015,4.015,0,0,1,4.01-4.01" transform="translate(-518.27 -757.395)" fill="#fff"/>
              <g id="Grupo_175145" data-name="Grupo 175145" transform="translate(98.096 63.423)" style="mix-blend-mode: overlay;isolation: isolate">
                <g id="Grupo_175144" data-name="Grupo 175144" transform="translate(0)">
                  <g id="Grupo_175143" data-name="Grupo 175143" clip-path="url(#clip-path-6)">
                    <path id="Trazado_184267" data-name="Trazado 184267" d="M727.628,279.459l.051,0a.676.676,0,0,0,.623-.725c-.419-5.574,2.03-7.065,2.055-7.08a.68.68,0,0,0,.253-.918.671.671,0,0,0-.908-.264c-.132.072-3.239,1.842-2.748,8.364a.676.676,0,0,0,.673.625" transform="translate(-726.902 -270.389)"/>
                  </g>
                </g>
              </g>
              <path id="Trazado_184268" data-name="Trazado 184268" d="M528.557,208.9s4.711-7.717,12.109-7.717c5.722,0,9.337,7.316,9.337,7.316s-4.662,5.732-10.61,5.732-10.836-5.331-10.836-5.331" transform="translate(-401.588 -153.993)" fill="#fff"/>
              <path id="Trazado_184269" data-name="Trazado 184269" d="M27.2,650.863C32.064,573.3,50.15,501.994,60.042,467.71A37.552,37.552,0,0,1,87.8,441.5l43.346-9.844.387-5.953,23.038.232-.422,5.809c8.242.55,33.225,6.276,49.1,10.066a39.055,39.055,0,0,1,24.133,17.44c5.268,8.509,11.543,19.757,17.707,31.252l3.468-23.541a5.837,5.837,0,0,1,6.625-4.923l31.614,4.658a5.836,5.836,0,0,1,4.923,6.624l-13,88.223a20.743,20.743,0,0,1-23.545,17.5l-2.119-.312c-15.569-4.435-50.339-42.964-50.339-42.964s1.194,24.563,7.245,43.957,16.182,118.345,16.182,118.345c-28.452,11.9-52.41,11.11-52.41,11.11l-2.9-154.331-52.651.241-15.66,156.144-51.265-15.4A170.829,170.829,0,0,1,52.677,664.3c-9.675-1.363-19.39-6.978-23.539-9.626a4.213,4.213,0,0,1-1.941-3.814" transform="translate(-25.767 -325.846)" fill="#fea419"/>
              <path id="Trazado_184270" data-name="Trazado 184270" d="M511.208,106.076c2.7-17.675,16.837-31.152,33.87-31.152,17.141,0,31.348,13.648,33.922,31.488l.335,3.226s-8.719-16.8-13.617-21.242-8.77-.21-18.19.367c-16.019.981-14.371-6.463-21.9-.691-5.752,4.407-12.268,8.176-14.416,18" transform="translate(-426.851 -57.349)" fill="#9199b0"/>
              <path id="Trazado_184271" data-name="Trazado 184271" d="M706.349,195.343s-2.669-8.639-9.84-10.457c-5.547-1.407-10.849,4.8-10.849,4.8s3.11,6.7,8.876,8.165,11.814-2.5,11.814-2.5" transform="translate(-594.783 -141.359)" fill="#fff"/>
              <path id="Trazado_184272" data-name="Trazado 184272" d="M541.073,206.9a7.814,7.814,0,0,1,.192-1.717,13.371,13.371,0,0,1,8.981-4,8.578,8.578,0,0,1,5.726,2.547,7.783,7.783,0,0,1-2.547,9.479,10.868,10.868,0,0,1-4.452,1.022,11.971,11.971,0,0,1-4.691-1.032,7.775,7.775,0,0,1-3.209-6.3" transform="translate(-411.168 -153.993)"/>
              <path id="Trazado_184273" data-name="Trazado 184273" d="M698.918,185.819a8.434,8.434,0,0,1,5.935-.934,12.905,12.905,0,0,1,7.188,5.3,7.787,7.787,0,0,1-3.231,7.6,12.621,12.621,0,0,1-5.931.068,12.19,12.19,0,0,1-5.834-3.742,7.79,7.79,0,0,1,1.872-8.285" transform="translate(-603.129 -141.358)"/>
              <path id="Trazado_184274" data-name="Trazado 184274" d="M802.88,202.322s-5.576-6.639-11.683-1.614-2.186,14.234,4.865,14.615c3.528.19,7.265-4.225,7.265-4.225Z" transform="translate(-715.809 -152.19)" fill="#ea8271"/>
              <path id="Trazado_184275" data-name="Trazado 184275" d="M804.53,220.054a.676.676,0,0,0,.63-.92,13.82,13.82,0,0,0-1.868-3.2c-1.682-2.14-3.7-3.194-5.838-3.053a.676.676,0,0,0,.09,1.349c4.112-.277,6.333,5.339,6.355,5.4a.676.676,0,0,0,.63.432" transform="translate(-719.715 -162.935)"/>
              <path id="Trazado_184276" data-name="Trazado 184276" d="M802.745,235a.674.674,0,0,0,.441-.164l4.464-3.852a.676.676,0,1,0-.883-1.023l-4.464,3.852a.676.676,0,0,0,.442,1.188" transform="translate(-723.624 -175.891)"/>
              <path id="Trazado_184277" data-name="Trazado 184277" d="M582.346,126.137a3.738,3.738,0,0,0,1.894-.468,3.87,3.87,0,0,0,1.753-3.11,3.593,3.593,0,0,0-1.07-3.393c-1.945-1.625-5.7-.5-5.858-.456a.676.676,0,0,0,.394,1.293c.89-.27,3.451-.76,4.6.2a2.32,2.32,0,0,1,.594,2.2,2.615,2.615,0,0,1-1.091,2.1,3.876,3.876,0,0,1-2.9-.042.676.676,0,1,0-.525,1.246,6.264,6.264,0,0,0,2.206.433" transform="translate(-449.358 -90.542)" fill="#9199b0"/>
              <path id="Trazado_184278" data-name="Trazado 184278" d="M464.048,59.637a4.565,4.565,0,0,0,1.638-.281,4,4,0,0,0,2.389-2.792c.5-1.682.362-2.986-.425-3.874-1.337-1.511-3.991-1.077-4.1-1.058a.676.676,0,0,0,.228,1.333c.56-.094,2.17-.164,2.864.623.454.515.5,1.386.14,2.588a2.689,2.689,0,0,1-1.578,1.918c-1.776.68-4.546-.622-5.464-1.181a.676.676,0,0,0-.7,1.154,11.223,11.223,0,0,0,5.013,1.57" transform="translate(-303.572 -39.464)" fill="#9fa8c1"/>
              <path id="Trazado_184279" data-name="Trazado 184279" d="M553.424,425.656l24.481.247a2.045,2.045,0,0,1,2.024,2.03l.028,4.087s2.55.208,9.507,1.619c1.089,2.6,3.543,33.119,4,42,.475,9.315,1.06,67.218.24,79.166l-52.638.242C541.075,516.662,544.8,434.6,544.8,434.6l.238-.941,6.634-1.507-.3-4.306a2.044,2.044,0,0,1,2.06-2.189" transform="translate(-448.629 -325.813)" fill="#fff"/>
              <path id="Trazado_184280" data-name="Trazado 184280" d="M560.51,434.418a.582.582,0,0,0,.145-.018l6.279-1.6a.586.586,0,0,0,.44-.61l-.3-4.306a1.443,1.443,0,0,1,.393-1.1,1.409,1.409,0,0,1,1.076-.459l24.481.247a1.464,1.464,0,0,1,1.443,1.448l.028,4.087a.587.587,0,0,0,.526.58c.022,0,2.26.244,9.087,1.629a.587.587,0,0,0,.233-1.15c-5.148-1.044-7.682-1.441-8.676-1.579l-.025-3.575a2.643,2.643,0,0,0-2.6-2.612l-24.481-.247a2.6,2.6,0,0,0-1.942.828,2.637,2.637,0,0,0-.709,1.989l.27,3.817-5.8,1.475a.586.586,0,0,0,.144,1.155" transform="translate(-463.75 -325.429)"/>
              <path id="Trazado_184281" data-name="Trazado 184281" d="M922.179,609.027a.586.586,0,0,0,.557-.77c-3.629-11.008-17.982-41.558-18.126-41.865a.586.586,0,0,0-1.061.5c.144.307,14.467,30.792,18.074,41.733a.587.587,0,0,0,.557.4" transform="translate(-862.296 -433.281)" fill="#fff"/>
              <path id="Trazado_184282" data-name="Trazado 184282" d="M894.372,887.6a.586.586,0,0,0,.583-.526c.017-.165,1.777-16.8,6.748-39.889,4.586-21.3,12.918-52.586,26.577-80.725,3.485-7.179,2.537-49.029,2.5-50.807a.587.587,0,0,0-1.173.028c.011.432.984,43.341-2.378,50.267-13.712,28.249-22.073,59.643-26.672,81.006-4.983,23.143-6.748,39.833-6.765,40a.586.586,0,0,0,.522.644.535.535,0,0,0,.061,0" transform="translate(-868.177 -547.349)" fill="#fff"/>
              <path id="Trazado_184283" data-name="Trazado 184283" d="M394.873,746.365h.023a.586.586,0,0,0,.564-.608c-.625-16.526,2.031-45.854,2.058-46.148a.586.586,0,0,0-1.168-.107c-.027.3-2.69,29.7-2.062,46.3a.587.587,0,0,0,.586.564" transform="translate(-217.589 -535.018)" fill="#fff"/>
              <path id="Trazado_184284" data-name="Trazado 184284" d="M224.345,738.785a.587.587,0,0,0,.578-.49l8.13-48.546a.586.586,0,1,0-1.157-.194l-8.13,48.546a.586.586,0,0,0,.482.675.572.572,0,0,0,.1.008" transform="translate(-13.152 -527.439)" fill="#fff"/>
              <path id="Trazado_184285" data-name="Trazado 184285" d="M248.725,848.875a.584.584,0,0,0,.391-.149l11.153-9.964a.586.586,0,1,0-.781-.874l-11.153,9.964a.586.586,0,0,0,.391,1.024" transform="translate(-46.275 -641.238)" fill="#fff"/>
              <path id="Trazado_184286" data-name="Trazado 184286" d="M75.629,662.982a.586.586,0,0,0,.089-1.166L32.6,655.163a.586.586,0,1,0-.179,1.159l43.119,6.652a.588.588,0,0,0,.09.007" transform="translate(188.689 -501.483)" fill="#fff"/>
              <path id="Trazado_184287" data-name="Trazado 184287" d="M780.814,733.811h.009a.586.586,0,0,0,.578-.595c-.516-35.484,7.588-85.728,12.951-118.975,3-18.571,5.16-31.99,4.929-36.637-2-40.31,5.092-119.283,5.164-120.076a.586.586,0,1,0-1.168-.106c-.072.794-7.173,79.848-5.168,120.24.225,4.524-2.044,18.587-4.916,36.392-5.37,33.287-13.484,83.592-12.966,119.179a.586.586,0,0,0,.586.578" transform="translate(-715.06 -349.721)" fill="#fff"/>
              <path id="Trazado_184288" data-name="Trazado 184288" d="M494.243,733.127h.008a.586.586,0,0,0,.578-.594c-.82-61.59-2.661-100.261-4.062-121.856-1.446-22.3-2.734-31.5-2.865-32.4,2.1-21.855,3.97-55.04,1.022-89.155-1.767-20.443-4.473-31.675-4.5-31.786a.586.586,0,0,0-1.139.278c.027.11,2.716,11.281,4.474,31.646,1.622,18.8,2.761,49.489-1.031,88.977a.578.578,0,0,0,0,.144c.013.088,1.352,9.033,2.867,32.418,1.4,21.579,3.237,60.217,4.056,121.751a.587.587,0,0,0,.586.579" transform="translate(-335.792 -349.72)" fill="#fff"/>
              <path id="Trazado_184289" data-name="Trazado 184289" d="M1066.876,1342a.586.586,0,0,0,.086-1.166c-17.7-2.666-27.137-13.07-27.231-13.175a.586.586,0,1,0-.876.78c.1.108,9.816,10.827,27.932,13.555a.584.584,0,0,0,.088.007" transform="translate(-1038.708 -1016.096)" fill="#fff"/>
              <path id="Trazado_184290" data-name="Trazado 184290" d="M74.1,641.155a.586.586,0,0,0,.1-1.165L31.175,632.7a.586.586,0,1,0-.2,1.156L74,641.146a.588.588,0,0,0,.1.008" transform="translate(190.551 -484.291)" fill="#fff"/>
            </g>
          </g>
        </g>
      </g>
    </g>
  </g>
</svg>
