<svg xmlns="http://www.w3.org/2000/svg" xmlns:xlink="http://www.w3.org/1999/xlink" width="610" height="342" viewBox="0 0 610 342">
  <defs>
    <clipPath id="clip-path">
      <rect id="Rectángulo_338924" data-name="Rectángulo 338924" width="253" height="318.197" fill="none"/>
    </clipPath>
    <clipPath id="clip-path-3">
      <rect id="Rectángulo_338925" data-name="Rectángulo 338925" width="332.605" height="124.995" transform="translate(0 0)" fill="#3c3fa7"/>
    </clipPath>
    <clipPath id="clip-path-4">
      <rect id="Rectángulo_338916" data-name="Rectángulo 338916" width="412.882" height="342" fill="none"/>
    </clipPath>
    <clipPath id="clip-path-5">
      <path id="Trazado_209349" data-name="Trazado 209349" d="M186.824,32.278c9.091,3.233,10.649-5.251,10.649-5.251-1.533-1.655-2.916-2.3-4.14-2.3-4.2,0-6.509,7.546-6.509,7.546" transform="translate(-186.824 -24.732)" fill="none"/>
    </clipPath>
    <clipPath id="clip-path-6">
      <path id="Trazado_209351" data-name="Trazado 209351" d="M165.16,29.6s3.783,8.944,12.987,3.173c0,0-2.449-6.044-7.125-6.044-1.672,0-3.629.772-5.861,2.871" transform="translate(-165.16 -26.731)" fill="none"/>
    </clipPath>
    <clipPath id="clip-path-8">
      <path id="Trazado_209407" data-name="Trazado 209407" d="M290.772,26.333c7.584,7.584,13.159-4.765,13.159-4.765a7.42,7.42,0,0,0-4.271-1.447c-5.193,0-8.888,6.212-8.888,6.212" transform="translate(-290.772 -20.121)" fill="none"/>
    </clipPath>
  </defs>
  <g id="Grupo_983659" data-name="Grupo 983659" transform="translate(-285 -5737)">
    <rect id="Rectángulo_338820" data-name="Rectángulo 338820" width="582" height="299" rx="13" transform="translate(313 5779)" fill="#6b8dfc"/>
    <g id="Grupo_983654" data-name="Grupo 983654" transform="translate(600 5746.463)">
      <g id="Grupo_983653" data-name="Grupo 983653" clip-path="url(#clip-path)">
        <path id="Trazado_209468" data-name="Trazado 209468" d="M265.863,317.962s42.446-277.65-9.651-239.276c0,0-17.2-78.687-45.364-78.687s-35.324,42.586-35.324,42.586-7.19-12.946-33.661-11.3c-40.2,2.495-47.586,114.562-47.586,114.562s9.6,58.069-.027,66.591C71.313,232.743,93.581,318.2,93.581,318.2Z" transform="translate(-29.162)" fill="#abbf94"/>
        <path id="Trazado_209469" data-name="Trazado 209469" d="M1.161,346.531S-11.4,192.435,46.133,215.746c0,0,.29-80.459,31.4-80.459s33.389,98.973,33.389,98.973-2.047-62.868,27.189-61.87c44.4,1.515,35.854,132.137,35.854,132.137s6.1-27.273,16.732-22.1c25.332,12.335.738,64.243.738,64.243Z" transform="translate(0 -28.477)" fill="#82a860"/>
      </g>
    </g>
    <g id="Grupo_983658" data-name="Grupo 983658" transform="translate(285 5752.303)">
      <g id="Grupo_983653-2" data-name="Grupo 983653" transform="translate(0)" clip-path="url(#clip-path)">
        <path id="Trazado_209468-2" data-name="Trazado 209468" d="M100.18,317.963S57.734,40.312,109.83,78.687c0,0,17.2-78.687,45.364-78.687s35.324,42.586,35.324,42.586,7.19-12.946,33.661-11.3c40.2,2.495,47.586,114.562,47.586,114.562s-9.6,58.069.027,66.591c22.937,20.306.669,105.759.669,105.759Z" transform="translate(-83.88)" fill="#abbf94"/>
        <path id="Trazado_209469-2" data-name="Trazado 209469" d="M200.99,346.531s12.565-154.1-44.972-130.786c0,0-.29-80.459-31.4-80.459S91.228,234.26,91.228,234.26s2.047-62.868-27.189-61.87c-44.4,1.515-35.854,132.137-35.854,132.137s-6.1-27.273-16.732-22.1c-25.332,12.335-.738,64.243-.738,64.243Z" transform="translate(50.849 -28.477)" fill="#82a860"/>
      </g>
    </g>
    <g id="Grupo_983657" data-name="Grupo 983657" transform="translate(-309 -32.197)">
      <g id="Grupo_983656" data-name="Grupo 983656" transform="translate(615 5793)">
        <g id="Grupo_983655" data-name="Grupo 983655" clip-path="url(#clip-path-3)">
          <path id="Trazado_209470" data-name="Trazado 209470" d="M9.035,125c-10.28,0-12.932-7.68-1.916-9.293,4.624-.677,12.612,3.671,12.612,3.671S9.285,101.96,28.592,101.762c12.714-.131,22.763,10.374,22.763,10.374s-3.16-12.859,10.369-12.859S76.2,115.985,76.2,115.985c25.021-3.049,20.894,8.47,11.945,8.55-21.027.188-79.112.46-79.112.46" fill="#3c3fa7"/>
          <path id="Trazado_209471" data-name="Trazado 209471" d="M313.458,50.575h0c-1.2-.005-120.375-.528-163.277-.885-6.328-.053-12.139-2.763-14.133-6.59a5.3,5.3,0,0,1,.293-5.666c1.831-2.664,9.2-8.484,38.045-5.281C174.809,27.95,178.627,0,204.716,0c8.811,0,15.163,2.445,18.881,7.267,4.495,5.83,3.858,13.408,3.318,16.618,4.7-4.133,23.252-19.1,45.7-19.1.162,0,.32,0,.483,0,11.939.114,19.638,3.217,22.88,9.222,4.57,8.463-1.044,20.006-3.317,24.047,4.322-2.038,16.837-7.478,24.815-6.393,11.521,1.576,15.362,6.021,15.114,9.656-.312,4.6-6.986,9.252-19.135,9.252m-154.275-18.3c-9.081,0-18.878,1.154-22.02,5.727a4.282,4.282,0,0,0-.23,4.638c1.83,3.513,7.28,6,13.254,6.052,42.9.357,162.06.88,163.273.885,11.411,0,17.861-4.287,18.136-8.32.216-3.184-3.414-7.114-14.252-8.6-9.28-1.273-25.572,6.943-25.734,7.026l-1.643.835.995-1.551c.1-.147,9.367-14.8,4.138-24.482-3.057-5.659-10.462-8.585-22.009-8.7-.157,0-.317,0-.474,0-25.505,0-45.946,19.658-46.15,19.857l-1.29,1.259.457-1.743c.027-.1,2.6-10.247-2.833-17.288C219.282,3.312,213.2,1,204.716,1c-27.122,0-29.36,31.42-29.38,31.737l-.032.526-.523-.059a144.337,144.337,0,0,0-15.6-.931" fill="#3c3fa7"/>
        </g>
      </g>
    </g>
    <rect id="Rectángulo_338926" data-name="Rectángulo 338926" width="530" height="15" transform="translate(323 6063)" fill="#a6bbff"/>
    <g id="Grupo_983652" data-name="Grupo 983652" transform="translate(375.746 5737)">
      <path id="Trazado_209313" data-name="Trazado 209313" d="M305.37,295.993l-7.183,36.5-18.618-5.571,5.424-33.719Z" transform="translate(-14.597 -15.309)" fill="#efa189"/>
      <path id="Trazado_209314" data-name="Trazado 209314" d="M368.613,293.208,367.3,330.388l-19.266-2.552.017-34.152Z" transform="translate(-18.171 -15.309)" fill="#efa189"/>
      <path id="Trazado_209315" data-name="Trazado 209315" d="M304.893,299.519l-20.243-2.876-1.6,9.947,19.327,5.71Z" transform="translate(-14.778 -15.488)"/>
      <g id="Grupo_983641" data-name="Grupo 983641">
        <g id="Grupo_983640" data-name="Grupo 983640" clip-path="url(#clip-path-4)">
          <path id="Trazado_209316" data-name="Trazado 209316" d="M368.038,309.528l.536-15.18c-5.488-.23-12.362-.486-18.18-.695l-2.342.054L348.042,313Z" transform="translate(-18.172 -15.332)"/>
          <path id="Trazado_209317" data-name="Trazado 209317" d="M365.685,318.926l10.662,26.654-44.512-.266c-.975-17.691,15.351-22.292,15.351-22.292l8.9,3.634Z" transform="translate(-17.323 -16.651)" fill="#fd521b"/>
          <path id="Trazado_209318" data-name="Trazado 209318" d="M299.579,321.594l4.521,24.125-44.511-.267c-.975-17.69,17.822-20.589,17.822-20.589l6.433,1.932Z" transform="translate(-13.552 -16.791)" fill="#fd521b"/>
          <path id="Trazado_209319" data-name="Trazado 209319" d="M303.551,344.454H259.567a.4.4,0,1,1,0-.809h43.984a.4.4,0,1,1,0,.809" transform="translate(-13.531 -17.942)"/>
          <path id="Trazado_209320" data-name="Trazado 209320" d="M374.481,344.454H332.071a.4.4,0,0,1,0-.809h42.411a.4.4,0,0,1,0,.809" transform="translate(-17.317 -17.942)"/>
          <path id="Trazado_209321" data-name="Trazado 209321" d="M220.268,291.875l13.6,32.647,15.172.732,6.906-8.685-14.021-37.983Z" transform="translate(-11.5 -14.545)" fill="#ed8c6b"/>
          <path id="Trazado_209322" data-name="Trazado 209322" d="M249.3,298.612l-22.1,10.072,7.034,16.883,15.172.733,6.906-8.685Z" transform="translate(-11.862 -15.591)" fill="#ffb6c8"/>
          <path id="Trazado_209323" data-name="Trazado 209323" d="M245.614,288.573l-3.687-9.987-21.659,13.289,4.01,9.625Z" transform="translate(-11.5 -14.545)"/>
          <path id="Trazado_209324" data-name="Trazado 209324" d="M231.38,321.062,225.947,345.9l62.283.142.116-7.865c.079-5.378-4-10.065-9.759-11.211l-24.047-4.792-14.368,3.694Z" transform="translate(-11.797 -16.763)" fill="#5774cd"/>
          <path id="Trazado_209325" data-name="Trazado 209325" d="M249.946,323.43l-1.343-7.237c-.409-2.206,1.877-4.031,4.22-3.367l6.5,1.844a2.915,2.915,0,0,1,1.763,4.528l-5.579,7.658Z" transform="translate(-12.977 -16.326)" fill="#5774cd"/>
          <path id="Trazado_209326" data-name="Trazado 209326" d="M288.388,341.406H227.694a.421.421,0,1,1,0-.842h60.695a.421.421,0,1,1,0,.842" transform="translate(-11.866 -17.781)"/>
          <path id="Trazado_209327" data-name="Trazado 209327" d="M266.005,328.543a.421.421,0,0,1-.306-.708l2.678-2.854-13.155.316a.4.4,0,0,1-.429-.38.422.422,0,0,1,.35-.455l11.419-1.919a.42.42,0,1,1,.139.829l-5.606.943,8.267-.2a.388.388,0,0,1,.393.249.416.416,0,0,1-.077.459l-3.366,3.586a.417.417,0,0,1-.306.133" transform="translate(-13.303 -16.84)"/>
          <path id="Trazado_209328" data-name="Trazado 209328" d="M138.546,290.674l1.861,34.667L154.2,331l9.241-5.765-.5-39.741Z" transform="translate(-7.234 -14.906)" fill="#ed8c6b"/>
          <path id="Trazado_209329" data-name="Trazado 209329" d="M163.232,305.832l-23.82,1.194,1.04,19.378,13.794,5.66,9.241-5.765Z" transform="translate(-7.279 -15.968)" fill="#ffb6c8"/>
          <path id="Trazado_209330" data-name="Trazado 209330" d="M162.946,285.5l-24.4,5.179.492,9.16,24.1.9Z" transform="translate(-7.234 -14.906)"/>
          <path id="Trazado_209331" data-name="Trazado 209331" d="M163,317.19l7.276,28.3H121.089l-.537-6.117c-.681-7.754,5.315-13.577,13.495-14.793l8.138.015,10.472,2.163Z" transform="translate(-6.291 -16.561)" fill="#5774cd"/>
          <path id="Trazado_209332" data-name="Trazado 209332" d="M142.147,325.971l-4.288-5.835a2.87,2.87,0,0,1,2.123-4.52l6.332-.809a2.993,2.993,0,0,1,3.466,3.307l-1.413,8.783Z" transform="translate(-7.169 -16.435)" fill="#5774cd"/>
          <path id="Trazado_209333" data-name="Trazado 209333" d="M167.9,341.59H120.531a.413.413,0,1,1,0-.826H167.9a.413.413,0,0,1,0,.826" transform="translate(-6.271 -17.792)"/>
          <path id="Trazado_209334" data-name="Trazado 209334" d="M140.517,328.256a.406.406,0,0,1-.111-.015l-11.964-3.347a.413.413,0,0,1,.223-.8l8.628,2.413-8.941-5a.413.413,0,0,1,.328-.754l17.593,5.669a.413.413,0,0,1-.253.786l-13.643-4.4,8.342,4.668a.413.413,0,0,1-.2.773" transform="translate(-6.69 -16.746)"/>
          <path id="Trazado_209335" data-name="Trazado 209335" d="M138.036,48.7c3.186.037,13.254-12.728,12.508-15.826-2.591-10.759,1.928-22.879,9.971-29.585a24.884,24.884,0,0,1,36.579,15.68c2.2,9.048,4.273,19.592,13.34,22.787.788.278-34.634,15.129-72.4,6.944" transform="translate(-7.207 -0.001)" fill="#ffc849"/>
          <path id="Trazado_209336" data-name="Trazado 209336" d="M193.258,27.5c1.268-3.029,4.438-4.564,7.081-3.427s3.757,4.512,2.489,7.542-4.438,4.563-7.081,3.427-3.757-4.512-2.489-7.542" transform="translate(-10.063 -1.237)" fill="#ed8c6b"/>
          <path id="Trazado_209337" data-name="Trazado 209337" d="M196.318,31.707a.716.716,0,0,1-.485-1.243l4.075-3.754a.716.716,0,1,1,.971,1.053L196.8,31.518a.713.713,0,0,1-.485.19" transform="translate(-10.213 -1.385)"/>
          <path id="Trazado_209338" data-name="Trazado 209338" d="M199.776,32.778a.719.719,0,0,1-.5-.2l-1.889-1.814a.716.716,0,0,1,.992-1.033l1.89,1.813a.716.716,0,0,1,.019,1.013.708.708,0,0,1-.516.22" transform="translate(-10.295 -1.542)"/>
          <path id="Trazado_209339" data-name="Trazado 209339" d="M162.324,40.951l-6.067,15.893L154.5,61.459,173.982,64.1l7.658-18.72Z" transform="translate(-8.066 -2.138)" fill="#ed8c6b"/>
          <path id="Trazado_209340" data-name="Trazado 209340" d="M161.035,45.224c3.758,2.7,10.719,7.1,17.635,8.25l3.313-8.1-19.316-4.424Z" transform="translate(-8.408 -2.138)"/>
          <path id="Trazado_209341" data-name="Trazado 209341" d="M154.98,25.2c0-12.227,9.156-22.14,20.45-22.14S195.88,9.842,195.88,25.2c0,12.227-6.373,22.478-17.668,22.478S154.98,37.426,154.98,25.2" transform="translate(-8.092 -0.16)" fill="#ed8c6b"/>
          <path id="Trazado_209342" data-name="Trazado 209342" d="M175.378,2.209c-11.485,0-20.817,10.864-21.4,23.14,4.7-2.614,14.582-9.079,14.99-17.4a48.111,48.111,0,0,0,26.982,10.619C193.259,8.056,185.058,2.209,175.378,2.209" transform="translate(-8.039 -0.115)" fill="#ffc849"/>
          <path id="Trazado_209343" data-name="Trazado 209343" d="M188.081,122.343l62.928,155.069-40.781,17.053L147.181,141.34Z" transform="translate(-7.684 -6.388)" fill="#fd521b"/>
          <path id="Trazado_209344" data-name="Trazado 209344" d="M122.333,127.465l2.817,164.219,43.685-1.8-4.5-129.738,13.286-5.4,6.3-32.2Z" transform="translate(-6.387 -6.398)" fill="#fd521b"/>
          <path id="Trazado_209345" data-name="Trazado 209345" d="M168.62,56.07c22.021,2.267,30.7-.862,47.613,21.05,8,10.361,27.454,31.549,25.256,55.415s-28.314,20.277-37.917,15.019S187.3,129,187.3,129L124.7,129s-5.138,29.724-27.8,28.039-18.042-33.978-12.877-45.729S110.9,73.265,118.81,66.537s36.506-10.194,36.506-10.194,9.994-.613,13.3-.272" transform="translate(-4.166 -2.922)"/>
          <path id="Trazado_209346" data-name="Trazado 209346" d="M186.823,32.278s3.857-12.585,10.65-5.251c0,0-1.558,8.484-10.65,5.251" transform="translate(-9.754 -1.291)" fill="#fff"/>
          <path id="Trazado_209347" data-name="Trazado 209347" d="M178.148,32.774S173.634,21.635,165.16,29.6c0,0,3.783,8.945,12.988,3.173" transform="translate(-8.623 -1.396)" fill="#fff"/>
        </g>
      </g>
      <g id="Grupo_983643" data-name="Grupo 983643" transform="translate(177.07 23.441)">
        <g id="Grupo_983642" data-name="Grupo 983642" clip-path="url(#clip-path-5)">
          <path id="Trazado_209348" data-name="Trazado 209348" d="M199.39,28.914a5.338,5.338,0,1,1-5.338-5.338,5.338,5.338,0,0,1,5.338,5.338" transform="translate(-186.923 -24.672)"/>
        </g>
      </g>
      <g id="Grupo_983645" data-name="Grupo 983645" transform="translate(156.537 25.335)">
        <g id="Grupo_983644" data-name="Grupo 983644" clip-path="url(#clip-path-6)">
          <path id="Trazado_209350" data-name="Trazado 209350" d="M178.849,31.073a5.338,5.338,0,1,1-5.338-5.338,5.338,5.338,0,0,1,5.338,5.338" transform="translate(-165.317 -26.679)"/>
        </g>
      </g>
      <g id="Grupo_983647" data-name="Grupo 983647">
        <g id="Grupo_983646" data-name="Grupo 983646" clip-path="url(#clip-path-4)">
          <path id="Trazado_209352" data-name="Trazado 209352" d="M182.1,34.34a.715.715,0,0,1-.618-1.077L183.5,29.8a.718.718,0,0,1,.608-.355.7.7,0,0,1,.618.336l1.8,2.883a.716.716,0,0,1-1.214.76l-1.174-1.879-1.423,2.437a.713.713,0,0,1-.618.355" transform="translate(-9.47 -1.537)"/>
          <path id="Trazado_209353" data-name="Trazado 209353" d="M121.4,126.629a.475.475,0,0,1-.4-.217c-6.75-10.506-23.626-9.417-23.8-9.406a.462.462,0,0,1-.507-.439.473.473,0,0,1,.438-.506,39.069,39.069,0,0,1,9.624.742c6.911,1.4,12.111,4.54,15.039,9.1a.473.473,0,0,1-.142.654.466.466,0,0,1-.257.076" transform="translate(-5.049 -6.057)" fill="#fff"/>
          <path id="Trazado_209354" data-name="Trazado 209354" d="M210.733,118.811a.472.472,0,0,1-.431-.279l-8.391-18.538a.474.474,0,1,1,.863-.39l8.39,18.538a.473.473,0,0,1-.431.669" transform="translate(-10.54 -5.186)"/>
          <path id="Trazado_209355" data-name="Trazado 209355" d="M183.257,42.629a6.91,6.91,0,0,1-4.992-2.326.716.716,0,0,1,1.115-.9,5.249,5.249,0,0,0,6.993.837.716.716,0,1,1,.733,1.23,7.47,7.47,0,0,1-3.848,1.157" transform="translate(-9.299 -2.044)"/>
          <path id="Trazado_209356" data-name="Trazado 209356" d="M166.653,23.673a.716.716,0,0,1-.423-1.294c4.967-3.629,9.23-2.011,9.409-1.941a.716.716,0,0,1-.523,1.333c-.156-.061-3.74-1.374-8.04,1.765a.717.717,0,0,1-.423.137" transform="translate(-8.664 -1.045)"/>
          <path id="Trazado_209357" data-name="Trazado 209357" d="M196.774,22.5a.717.717,0,0,1-.423-.137c-4.3-3.144-7.888-1.822-8.039-1.765a.716.716,0,0,1-.522-1.334c.178-.071,4.443-1.685,9.407,1.942a.716.716,0,0,1-.423,1.294" transform="translate(-9.781 -0.984)"/>
          <path id="Trazado_209358" data-name="Trazado 209358" d="M164.772,68.938c-10.717,0-14.909-10.718-14.949-10.826a.474.474,0,1,1,.886-.336c.039.1,4.009,10.214,14.063,10.214a.474.474,0,0,1,0,.948" transform="translate(-7.821 -3.001)" fill="#fff"/>
          <path id="Trazado_209359" data-name="Trazado 209359" d="M172.019,55.508l-12.416.538s-2.717.548-6.162,1.1c1.669,3.457,5.042,9.134,16.6,7.973,5.352-.537,8.084-5.55,9.2-8.6-4.137-.413-7.227-1-7.227-1" transform="translate(-8.011 -2.898)" fill="#ed8c6b"/>
          <path id="Trazado_209360" data-name="Trazado 209360" d="M167.837,191.307a.475.475,0,0,1-.474-.454l-.99-22.7a10.805,10.805,0,0,1,8.146-10.81l5.282-1.316a.474.474,0,1,1,.229.92l-5.282,1.316a9.85,9.85,0,0,0-7.428,9.852l.99,22.7a.475.475,0,0,1-.454.494Z" transform="translate(-8.686 -8.146)"/>
          <path id="Trazado_209361" data-name="Trazado 209361" d="M210.365,295.4a.474.474,0,0,1-.187-.91l40.715-17.356a.474.474,0,1,1,.372.872l-40.714,17.356a.486.486,0,0,1-.186.038" transform="translate(-10.959 -14.467)"/>
          <path id="Trazado_209362" data-name="Trazado 209362" d="M125.154,293.463a.474.474,0,0,1-.022-.947l43.537-2.012a.466.466,0,0,1,.5.451.474.474,0,0,1-.451.495l-43.538,2.012h-.022" transform="translate(-6.51 -15.167)"/>
          <path id="Trazado_209363" data-name="Trazado 209363" d="M159.473,30.258c-1.268-3.029-4.438-4.564-7.081-3.427s-3.757,4.512-2.489,7.542,4.438,4.563,7.081,3.427,3.757-4.512,2.489-7.542" transform="translate(-7.799 -1.381)" fill="#ed8c6b"/>
          <path id="Trazado_209364" data-name="Trazado 209364" d="M156.693,34.465a.713.713,0,0,1-.485-.19l-4.074-3.754a.716.716,0,0,1,.971-1.053l4.074,3.754a.716.716,0,0,1-.485,1.243" transform="translate(-7.931 -1.529)"/>
          <path id="Trazado_209365" data-name="Trazado 209365" d="M153.357,35.536a.717.717,0,0,1-.5-1.232l1.888-1.812a.716.716,0,1,1,.993,1.03l-1.888,1.814a.711.711,0,0,1-.5.2" transform="translate(-7.97 -1.686)"/>
          <path id="Trazado_209366" data-name="Trazado 209366" d="M120.77,122.974a.465.465,0,0,1-.272-.086.472.472,0,0,1-.116-.66L134.1,102.683a.474.474,0,0,1,.776.545l-13.723,19.544a.473.473,0,0,1-.388.2" transform="translate(-6.281 -5.351)" fill="#fff"/>
          <path id="Trazado_209367" data-name="Trazado 209367" d="M116.886,119.893a.469.469,0,0,1-.346-.151l-8.587-9.184a.474.474,0,0,1,.693-.646l8.586,9.184a.473.473,0,0,1-.346.8" transform="translate(-5.63 -5.731)" fill="#fff"/>
          <path id="Trazado_209368" data-name="Trazado 209368" d="M113.661,142.087l20.6-51.447,39.183,15.016-20.6,51.447Z" transform="translate(-5.934 -4.732)" fill="#fff"/>
          <path id="Trazado_209369" data-name="Trazado 209369" d="M152.824,157.439a.349.349,0,0,1-.126-.024L113.514,142.4a.355.355,0,0,1-.2-.464l20.6-51.446a.354.354,0,0,1,.456-.2L173.548,105.3a.358.358,0,0,1,.2.19.352.352,0,0,1,0,.274l-20.6,51.447a.354.354,0,0,1-.33.224M114.1,141.865l38.52,14.761,20.333-50.786-38.52-14.761Z" transform="translate(-5.915 -4.713)" fill="#d7e5ff"/>
          <path id="Trazado_209370" data-name="Trazado 209370" d="M150.465,149.3a.35.35,0,0,1-.127-.024l-26.2-10.039a.355.355,0,1,1,.253-.663l26.2,10.038a.356.356,0,0,1-.127.688" transform="translate(-6.47 -7.234)" fill="#d7e5ff"/>
          <path id="Trazado_209371" data-name="Trazado 209371" d="M153.212,142.646a.372.372,0,0,1-.127-.024l-26.2-10.039a.355.355,0,1,1,.253-.663l26.2,10.038a.356.356,0,0,1-.127.688" transform="translate(-6.613 -6.886)" fill="#d7e5ff"/>
          <path id="Trazado_209372" data-name="Trazado 209372" d="M155.959,135.99a.351.351,0,0,1-.127-.024l-26.2-10.039a.355.355,0,1,1,.254-.663l26.2,10.039a.355.355,0,0,1-.127.687" transform="translate(-6.757 -6.539)" fill="#d7e5ff"/>
          <path id="Trazado_209373" data-name="Trazado 209373" d="M158.706,129.333a.35.35,0,0,1-.127-.024l-26.2-10.039a.355.355,0,0,1,.254-.663l26.2,10.039a.355.355,0,0,1-.127.687" transform="translate(-6.9 -6.191)" fill="#d7e5ff"/>
          <path id="Trazado_209374" data-name="Trazado 209374" d="M161.453,122.677a.351.351,0,0,1-.127-.024l-26.195-10.039a.355.355,0,1,1,.253-.663l26.2,10.039a.355.355,0,0,1-.127.687" transform="translate(-7.043 -5.844)" fill="#d7e5ff"/>
          <path id="Trazado_209375" data-name="Trazado 209375" d="M164.2,116.02a.35.35,0,0,1-.127-.024l-26.195-10.039a.355.355,0,1,1,.253-.663l26.2,10.039a.355.355,0,0,1-.127.687" transform="translate(-7.187 -5.496)" fill="#d7e5ff"/>
          <path id="Trazado_209376" data-name="Trazado 209376" d="M166.948,109.364a.351.351,0,0,1-.127-.024L140.625,99.3a.355.355,0,1,1,.253-.663l26.2,10.039a.355.355,0,0,1-.127.687" transform="translate(-7.33 -5.149)" fill="#d7e5ff"/>
          <path id="Trazado_209377" data-name="Trazado 209377" d="M113.193,145.238l20.6-51.447,39.183,15.016-20.6,51.447Z" transform="translate(-5.91 -4.897)" fill="#fff"/>
          <path id="Trazado_209378" data-name="Trazado 209378" d="M152.357,160.59a.358.358,0,0,1-.128-.023l-39.183-15.016a.356.356,0,0,1-.2-.19.361.361,0,0,1,0-.276l20.6-51.446a.355.355,0,0,1,.456-.2l39.183,15.017a.353.353,0,0,1,.2.463l-20.6,51.447a.355.355,0,0,1-.329.224m-38.72-15.574,38.52,14.761L172.49,108.99,133.969,94.228Z" transform="translate(-5.89 -4.877)" fill="#d7e5ff"/>
          <path id="Trazado_209379" data-name="Trazado 209379" d="M112.787,147.642l20.6-51.447,39.183,15.016-20.6,51.447Z" transform="translate(-5.889 -5.022)" fill="#fff"/>
          <path id="Trazado_209380" data-name="Trazado 209380" d="M151.95,162.994a.349.349,0,0,1-.126-.024L112.64,147.954a.355.355,0,0,1-.2-.464l20.6-51.446a.355.355,0,0,1,.456-.2l39.184,15.016a.358.358,0,0,1,.2.19.352.352,0,0,1,0,.274l-20.6,51.447a.354.354,0,0,1-.33.224M113.231,147.42l38.52,14.761,20.333-50.786-38.52-14.761Z" transform="translate(-5.869 -5.003)" fill="#d7e5ff"/>
          <path id="Trazado_209381" data-name="Trazado 209381" d="M203.772,87.59l-.05,0a.475.475,0,0,1-.422-.521l2.16-20.791a.479.479,0,0,1,.52-.423.474.474,0,0,1,.422.52l-2.16,20.792a.473.473,0,0,1-.47.425" transform="translate(-10.614 -3.438)" fill="#fff"/>
          <path id="Trazado_209382" data-name="Trazado 209382" d="M128.537,113.409l-8.437-1.972a2.533,2.533,0,0,0-3.049,2.072,2.719,2.719,0,0,0,2.174,3.2l8.541,1.347a2.247,2.247,0,0,0,2.555-2.028,2.4,2.4,0,0,0-1.784-2.623" transform="translate(-6.109 -5.815)" fill="#ed8c6b"/>
          <path id="Trazado_209383" data-name="Trazado 209383" d="M127.482,123.332l-10.2-1.756a2.506,2.506,0,0,1-2.016-2.359l-.013-.243a2.384,2.384,0,0,1,2.762-2.587l10.21,2a2.533,2.533,0,0,1,1.958,2.751,2.361,2.361,0,0,1-2.7,2.193" transform="translate(-6.017 -6.074)" fill="#ed8c6b"/>
          <path id="Trazado_209384" data-name="Trazado 209384" d="M127.11,125.483h0a2.182,2.182,0,0,0-1.727-2.273l-6.743-1.426a2.183,2.183,0,0,0-2.528,1.461l-.173.53a2.183,2.183,0,0,0,1.8,2.841l6.915.9a2.182,2.182,0,0,0,2.46-2.028" transform="translate(-6.048 -6.356)" fill="#ed8c6b"/>
          <path id="Trazado_209385" data-name="Trazado 209385" d="M125.009,129.336h0a1.892,1.892,0,0,0-1.455-1.707l-5.585-1.066a1.629,1.629,0,0,0-1.885,1.482l-.085.628a1.909,1.909,0,0,0,1.619,2.2l5.671.438a1.7,1.7,0,0,0,1.721-1.976" transform="translate(-6.055 -6.607)" fill="#ed8c6b"/>
          <path id="Trazado_209386" data-name="Trazado 209386" d="M117.573,116.249l.007-.009a.211.211,0,0,1,.295-.036,3.767,3.767,0,0,0,1.387.552l9.027,1.53a3.59,3.59,0,0,1,2.121,1.418,2.358,2.358,0,0,1,.185,1.916c-.761,2.662-4.574,1.791-4.811,1.734l-5.394-.827c-.407-.063-2.6-.505-3.149-.658a.21.21,0,1,1,.112-.4c.544.15,2.7.586,3.1.648l5.4.828.021,0c.036.009,3.645.9,4.314-1.441a1.953,1.953,0,0,0-.142-1.587,3.206,3.206,0,0,0-1.841-1.221l-9.013-1.527a4.146,4.146,0,0,1-1.578-.635.21.21,0,0,1-.043-.285" transform="translate(-6.113 -6.065)"/>
          <path id="Trazado_209387" data-name="Trazado 209387" d="M116.778,126.451a.211.211,0,0,1,.228-.082c.537.149,3.851.633,4.408.691.521.054,2.216.3,2.288.307.03,0,3.189.419,3.485-1.621a1.607,1.607,0,0,0-.945-1.706,4.09,4.09,0,0,0-1.209-.43.21.21,0,1,1,.065-.414c.974.152,2.752.894,2.5,2.61-.285,1.963-2.714,2.151-3.96,1.977-.018,0-1.759-.252-2.272-.306s-3.891-.541-4.476-.7a.21.21,0,0,1-.147-.258.212.212,0,0,1,.03-.064" transform="translate(-6.095 -6.432)"/>
          <path id="Trazado_209388" data-name="Trazado 209388" d="M119.833,111.131a.207.207,0,0,1,.215-.085c.053.011,5.449,1.14,7.638,1.621,2.309.506,3.488,1.8,3.234,3.552a2.686,2.686,0,0,1-2.516,2.215.21.21,0,1,1-.02-.419,2.231,2.231,0,0,0,2.12-1.856c.222-1.529-.809-2.623-2.908-3.083-2.188-.48-7.58-1.608-7.635-1.62a.211.211,0,0,1-.162-.248.188.188,0,0,1,.034-.077" transform="translate(-6.255 -5.798)"/>
          <path id="Trazado_209389" data-name="Trazado 209389" d="M308.823,45.133l5.652,15.34,16.955-4.729-6.575-19.492Z" transform="translate(-16.124 -1.893)" fill="#efa189"/>
          <path id="Trazado_209390" data-name="Trazado 209390" d="M324.855,36.252h0l-16.032,8.881,2.384,6.471,14.348-13.279Z" transform="translate(-16.124 -1.893)"/>
          <path id="Trazado_209391" data-name="Trazado 209391" d="M308,11.816s-31.731,1.255-37.187-.872l29.455-6.718Z" transform="translate(-14.14 -0.221)"/>
          <path id="Trazado_209392" data-name="Trazado 209392" d="M288.743,25.776c0-12.047,4.674-21.814,19.006-21.814,10.5,0,19.007,9.767,19.007,21.814s-9.83,20.173-20.3,20.9c-13.846.962-17.71-8.852-17.71-20.9" transform="translate(-15.076 -0.207)" fill="#efa189"/>
          <path id="Trazado_209393" data-name="Trazado 209393" d="M290.772,26.333s5.843-9.822,13.16-4.765c0,0-5.576,12.35-13.16,4.765" transform="translate(-15.182 -1.051)" fill="#fff"/>
          <path id="Trazado_209394" data-name="Trazado 209394" d="M294.251,40.234a.793.793,0,0,1-.132-1.574c2.135-.362,4.225-3.233,4.851-4.309a.793.793,0,0,1,1.371.8c-.107.184-2.649,4.516-5.956,5.077a.92.92,0,0,1-.135.01" transform="translate(-15.322 -1.773)"/>
          <path id="Trazado_209395" data-name="Trazado 209395" d="M289.636,27.142l-6.967,1.137,6.9,4.977Z" transform="translate(-14.758 -1.417)" fill="#efa189"/>
          <path id="Trazado_209396" data-name="Trazado 209396" d="M327.872,23.318s-6.993,1.719-12.655-.44-5.9-11.144-5.9-11.144-11.1,1.738-13.3-3.715l12.513-5.332,10.522,3.982,6.471,10.025Z" transform="translate(-15.456 -0.14)"/>
          <path id="Trazado_209397" data-name="Trazado 209397" d="M332.624,30.905s-2.514,9.445,2.915,13.509c0,0-12.514,1.559-12.514-14.646l6.256-10.889Z" transform="translate(-16.866 -0.986)"/>
          <path id="Trazado_209398" data-name="Trazado 209398" d="M294.3,16.9c0-.835,1.45-1.512,3.24-1.512s3.24.677,3.24,1.512-1.45,1.512-3.24,1.512-3.24-.677-3.24-1.512" transform="translate(-15.366 -0.803)"/>
          <path id="Trazado_209399" data-name="Trazado 209399" d="M330.817,33.687s-1.6-13.466-16.423-21.258S292.5,7.654,292.5,7.654s11.181-12.171,26.941-5.818,15.312,24.98,11.375,31.851" transform="translate(-15.272 0)" fill="#ffb6c8"/>
          <path id="Trazado_209400" data-name="Trazado 209400" d="M307.432,9.721S279.692,7.745,270.817,11l23.817-5.688Z" transform="translate(-14.14 -0.277)" fill="#ffb6c8"/>
          <path id="Trazado_209401" data-name="Trazado 209401" d="M326.2,26.113a.806.806,0,0,1-.354-.083.793.793,0,0,1-.354-1.063c4.346-8.692-.144-23.366-.19-23.513a.793.793,0,0,1,1.514-.472c.2.626,4.727,15.427.095,24.694a.793.793,0,0,1-.709.438" transform="translate(-16.982 -0.022)"/>
          <path id="Trazado_209402" data-name="Trazado 209402" d="M299.352,10.827a.793.793,0,0,1-.621-1.285C305.723.722,322.384.433,323.09.425a.793.793,0,0,1,.019,1.586c-.166,0-16.613.289-23.136,8.516a.79.79,0,0,1-.621.3" transform="translate(-15.588 -0.022)"/>
          <path id="Trazado_209403" data-name="Trazado 209403" d="M318.707,24.492c1.845-2.749,5.336-3.639,7.8-1.987s2.962,5.22,1.117,7.969-5.336,3.639-7.8,1.987-2.962-5.22-1.117-7.969" transform="translate(-16.582 -1.132)" fill="#efa189"/>
          <path id="Trazado_209404" data-name="Trazado 209404" d="M321.174,29.344a.793.793,0,0,1-.41-1.472l4.818-2.91a.793.793,0,0,1,.821,1.358l-4.818,2.91a.788.788,0,0,1-.41.114" transform="translate(-16.728 -1.297)"/>
          <path id="Trazado_209405" data-name="Trazado 209405" d="M324.514,31.051a.793.793,0,0,1-.643-.328L322.3,28.55a.793.793,0,0,1,1.285-.931l1.574,2.174a.793.793,0,0,1-.178,1.107.785.785,0,0,1-.464.151" transform="translate(-16.82 -1.425)"/>
        </g>
      </g>
      <g id="Grupo_983649" data-name="Grupo 983649" transform="translate(275.59 19.07)">
        <g id="Grupo_983648" data-name="Grupo 983648" clip-path="url(#clip-path-8)">
          <path id="Trazado_209406" data-name="Trazado 209406" d="M288.925,25.417a4.756,4.756,0,1,0,4.756-4.756,4.756,4.756,0,0,0-4.756,4.756" transform="translate(-290.676 -20.149)"/>
        </g>
      </g>
      <g id="Grupo_983651" data-name="Grupo 983651">
        <g id="Grupo_983650" data-name="Grupo 983650" clip-path="url(#clip-path-4)">
          <path id="Trazado_209408" data-name="Trazado 209408" d="M197.6,92.257s-19.747-.035-23.142,4.8c-2.207,3.145.507,18.423-3.933,21.684-5.25,3.854,2.423,12.974,2.423,12.974s-13.981,14.72-.408,11.337c3.5-.873,21.255-.009,21.255-.009l-9.5-21.014Z" transform="translate(-8.699 -4.817)" fill="#d7e5ff"/>
          <path id="Trazado_209409" data-name="Trazado 209409" d="M334.483,50.539l2.8,9.89-26.9,5.14-1.4-9.189Z" transform="translate(-16.132 -2.639)" fill="#5774cd"/>
          <path id="Trazado_209410" data-name="Trazado 209410" d="M208.571,115.077s-5.433-10.41-24.3-7.489c-9.3,1.442-12.771,6.449-13.8,8.784a1.432,1.432,0,0,0,.408,1.691,2.274,2.274,0,0,0,2.873-.009,20.09,20.09,0,0,1,4.915-2.879c4.375-1.836,12.171-.24,12.171-.24l12.736,3.891Z" transform="translate(-8.894 -5.59)" fill="#efa189"/>
          <path id="Trazado_209411" data-name="Trazado 209411" d="M203.668,122.91s-10.147-3.243-15.617-4.27-5.562-2.577-5.15-4.292c.652-2.718,5.909-1.887,9.185-1.273S196,112.3,196,112.3l11.707,6.81Z" transform="translate(-9.542 -5.863)" fill="#ed8c6b"/>
          <path id="Trazado_209412" data-name="Trazado 209412" d="M206.377,115.12s-11.251-6.235-23.2-5.047c-9.339.93-12.749,6.413-13.793,8.761a1.464,1.464,0,0,0,.418,1.73,2.241,2.241,0,0,0,2.834-.009,20.051,20.051,0,0,1,4.934-2.895c4.376-1.837,12.171-.24,12.171-.24l12.737,3.89Z" transform="translate(-8.837 -5.739)" fill="#efa189"/>
          <path id="Trazado_209413" data-name="Trazado 209413" d="M205.5,112.632s-11.087-2.967-21.483-.256c-7.315,1.908-9.717,5.853-10.5,8.023a1.661,1.661,0,0,0,.9,2.076,1.629,1.629,0,0,0,1.861-.387,17.06,17.06,0,0,1,4.1-3.165c3.561-2.044,10.762-2.033,10.762-2.033l11.993.98Z" transform="translate(-9.055 -5.808)" fill="#efa189"/>
          <path id="Trazado_209414" data-name="Trazado 209414" d="M208.674,113.228s-11.087-2.967-21.483-.256c-7.844,2.045-10.038,6.433-10.642,8.464a1.231,1.231,0,0,0,.683,1.476,2.189,2.189,0,0,0,2.458-.481,9.139,9.139,0,0,1,3.859-2.912c7.753-2.6,10.265,2.8,16.156,3.906,9.394,1.762,6.6-4.959,6.6-4.959Z" transform="translate(-9.215 -5.839)" fill="#efa189"/>
          <path id="Trazado_209415" data-name="Trazado 209415" d="M176.807,123.376a.327.327,0,0,1-.129-.027c-.893-.4-.574-1.47-.454-1.874.579-1.944,2.836-6.533,11.272-7.16a.314.314,0,1,1,.045.626c-8.044.6-10.173,4.893-10.714,6.713-.248.831-.094,1.029.107,1.119a.314.314,0,0,1-.127.6" transform="translate(-9.193 -5.969)"/>
          <path id="Trazado_209416" data-name="Trazado 209416" d="M173.081,121.159a.326.326,0,0,1-.107-.018.316.316,0,0,1-.19-.4c.8-2.224,3.489-7.519,11.157-8.632A23.465,23.465,0,0,1,187.19,112c.45,0,.922.007,1.421.006h0a.314.314,0,0,1,0,.628c-.5,0-.975,0-1.428-.006a23.42,23.42,0,0,0-3.154.1c-7.331,1.065-9.894,6.106-10.654,8.224a.317.317,0,0,1-.3.208" transform="translate(-9.02 -5.847)"/>
          <path id="Trazado_209417" data-name="Trazado 209417" d="M169.133,118.839a.323.323,0,0,1-.128-.027.315.315,0,0,1-.159-.415c.789-1.775,4.15-7.646,14.281-8.653a32.715,32.715,0,0,1,5.365-.08.314.314,0,0,1,.293.334.308.308,0,0,1-.335.293,32.521,32.521,0,0,0-5.262.078c-9.793.975-13.014,6.587-13.769,8.284a.314.314,0,0,1-.287.187" transform="translate(-8.814 -5.722)"/>
          <path id="Trazado_209418" data-name="Trazado 209418" d="M295.813,176.11,273.229,298.52l37.967,3.273,21.929-121.429L332.8,302.12l34.04.328-2.946-147.94-64.478-10.146Z" transform="translate(-14.266 -7.537)" fill="#ffc849"/>
          <path id="Trazado_209419" data-name="Trazado 209419" d="M287,136.753l-11.761,69.784,93.5-.981S364.9,121.762,355.087,74.492a21.067,21.067,0,0,0-23.749-16.515l-27.323,4.068a23.7,23.7,0,0,0-15.2,8.871l-37.386,43.636s-27.648-21.861-46.172-12.1l-8.037,18.817s19.574,22.357,44.454,32.32,42.7-14.639,45.323-16.834" transform="translate(-10.297 -3.015)" fill="#5774cd"/>
          <path id="Trazado_209420" data-name="Trazado 209420" d="M355.711,62.705s23.233,20.268,41.081,53.92,12.932,43.932,12.932,43.932L393.24,168.6s-16.871-5.473-26.887-24.788-10.642-81.109-10.642-81.109" transform="translate(-18.572 -3.274)" fill="#5774cd"/>
          <path id="Trazado_209421" data-name="Trazado 209421" d="M312.478,93.09a.474.474,0,0,1-.47-.419c-2.173-18.616-12.463-25.838-12.568-25.908a.474.474,0,0,1,.534-.784c.438.3,10.749,7.506,12.976,26.582a.476.476,0,0,1-.416.526l-.056,0" transform="translate(-15.623 -3.441)"/>
          <path id="Trazado_209422" data-name="Trazado 209422" d="M291.793,140.884a.474.474,0,0,1-.359-.783l19.12-22.249a.474.474,0,1,1,.718.617l-19.12,22.25a.472.472,0,0,1-.359.165" transform="translate(-15.21 -6.145)"/>
          <path id="Trazado_209423" data-name="Trazado 209423" d="M373.891,156.254a.475.475,0,0,1-.466-.394L361.8,88.023a.474.474,0,0,1,.935-.16l11.62,67.838a.475.475,0,0,1-.388.547.461.461,0,0,1-.081.007" transform="translate(-18.89 -4.567)"/>
          <path id="Trazado_209424" data-name="Trazado 209424" d="M360.907,79.915a.474.474,0,0,1-.466-.4l-2.349-14.085a.474.474,0,0,1,.935-.155l2.348,14.085a.473.473,0,0,1-.39.545.441.441,0,0,1-.079.007" transform="translate(-18.696 -3.388)"/>
          <path id="Trazado_209425" data-name="Trazado 209425" d="M369.9,301.558H369.9l-33.823-.684a.475.475,0,0,1-.465-.483.512.512,0,0,1,.483-.464l33.824.684a.474.474,0,0,1-.009.948" transform="translate(-17.522 -15.659)"/>
          <path id="Trazado_209426" data-name="Trazado 209426" d="M313.318,298.857a.4.4,0,0,1-.059,0l-37.664-4.68a.474.474,0,0,1,.117-.941l37.664,4.681a.474.474,0,0,1-.058.944" transform="translate(-14.367 -15.31)"/>
          <path id="Trazado_209427" data-name="Trazado 209427" d="M361.415,172.408l43.456-34.389L431.4,170.534,387.94,204.923Z" transform="translate(-18.87 -7.206)" fill="#fff"/>
          <path id="Trazado_209428" data-name="Trazado 209428" d="M387.92,205.258a.356.356,0,0,1-.276-.131L361.12,172.614a.357.357,0,0,1,.055-.5l43.456-34.387a.354.354,0,0,1,.5.053l26.526,32.515a.355.355,0,0,1-.056.5L388.14,205.182a.347.347,0,0,1-.22.077M361.9,172.443l26.076,31.964,42.9-33.947L404.8,138.5Z" transform="translate(-18.85 -7.187)" fill="#d7e5ff"/>
          <path id="Trazado_209429" data-name="Trazado 209429" d="M359.868,174.291,403.324,139.9l26.525,32.515-43.456,34.389Z" transform="translate(-18.789 -7.304)" fill="#fff"/>
          <path id="Trazado_209430" data-name="Trazado 209430" d="M386.372,207.141a.356.356,0,0,1-.276-.131L359.572,174.5a.357.357,0,0,1,.055-.5L403.084,139.6a.355.355,0,0,1,.5.054l26.526,32.515a.355.355,0,0,1-.056.5l-43.457,34.388a.347.347,0,0,1-.22.077m-26.022-32.815,26.076,31.964,42.9-33.947L403.25,140.379Z" transform="translate(-18.769 -7.285)" fill="#d7e5ff"/>
          <path id="Trazado_209431" data-name="Trazado 209431" d="M355.226,173.633l43.456-34.389,26.525,32.515-43.456,34.389Z" transform="translate(-18.547 -7.27)" fill="#fff"/>
          <path id="Trazado_209432" data-name="Trazado 209432" d="M381.731,206.483a.356.356,0,0,1-.276-.131l-26.525-32.515a.357.357,0,0,1,.055-.5l43.457-34.388a.356.356,0,0,1,.5.054l26.525,32.515a.36.36,0,0,1,.078.263.356.356,0,0,1-.134.24l-43.456,34.389a.347.347,0,0,1-.22.077M355.71,173.667l26.076,31.965,42.9-33.948-26.074-31.963Z" transform="translate(-18.527 -7.251)" fill="#d7e5ff"/>
          <path id="Trazado_209433" data-name="Trazado 209433" d="M385.141,197.686a.356.356,0,0,1-.276-.131l-17.733-21.738a.356.356,0,1,1,.552-.45l17.733,21.738a.356.356,0,0,1-.051.5.352.352,0,0,1-.225.08" transform="translate(-19.164 -9.149)" fill="#d7e5ff"/>
          <path id="Trazado_209434" data-name="Trazado 209434" d="M390.834,193.278a.356.356,0,0,1-.276-.131L372.825,171.41a.356.356,0,1,1,.552-.45L391.109,192.7a.356.356,0,0,1-.051.5.352.352,0,0,1-.225.08" transform="translate(-19.461 -8.919)" fill="#d7e5ff"/>
          <path id="Trazado_209435" data-name="Trazado 209435" d="M396.528,188.87a.356.356,0,0,1-.276-.131L378.519,167a.356.356,0,1,1,.552-.45L396.8,188.29a.355.355,0,0,1-.276.58" transform="translate(-19.759 -8.689)" fill="#d7e5ff"/>
          <path id="Trazado_209436" data-name="Trazado 209436" d="M402.222,184.46a.356.356,0,0,1-.276-.131l-17.733-21.737a.356.356,0,1,1,.552-.45L402.5,183.88a.356.356,0,0,1-.051.5.352.352,0,0,1-.225.08" transform="translate(-20.056 -8.459)" fill="#d7e5ff"/>
          <path id="Trazado_209437" data-name="Trazado 209437" d="M407.916,180.052a.356.356,0,0,1-.276-.131l-17.733-21.738a.356.356,0,1,1,.552-.45l17.733,21.738a.355.355,0,0,1-.276.58" transform="translate(-20.353 -8.229)" fill="#d7e5ff"/>
          <path id="Trazado_209438" data-name="Trazado 209438" d="M413.609,175.644a.356.356,0,0,1-.276-.131L395.6,153.776a.356.356,0,1,1,.552-.45l17.734,21.738a.356.356,0,0,1-.051.5.352.352,0,0,1-.225.08" transform="translate(-20.651 -7.998)" fill="#d7e5ff"/>
          <path id="Trazado_209439" data-name="Trazado 209439" d="M419.3,171.236a.356.356,0,0,1-.276-.131l-17.733-21.738a.356.356,0,1,1,.552-.45l17.733,21.738a.356.356,0,0,1-.051.5.352.352,0,0,1-.225.08" transform="translate(-20.948 -7.768)" fill="#d7e5ff"/>
          <path id="Trazado_209440" data-name="Trazado 209440" d="M405.573,186.076l5.222,8.5a2.915,2.915,0,0,0,4.164.814,3.129,3.129,0,0,0,.859-4.373L410,182.94a2.586,2.586,0,0,0-3.728-.447,2.762,2.762,0,0,0-.7,3.584" transform="translate(-21.155 -9.497)" fill="#efa189"/>
          <path id="Trazado_209441" data-name="Trazado 209441" d="M414.471,178.816l6.823,9.757a2.884,2.884,0,0,1-.3,3.559l-.188.209a2.744,2.744,0,0,1-4.351-.164l-6.635-9.966a2.914,2.914,0,0,1,.663-3.829,2.716,2.716,0,0,1,3.984.434" transform="translate(-21.374 -9.278)" fill="#efa189"/>
          <path id="Trazado_209442" data-name="Trazado 209442" d="M416.661,177.593h0a2.513,2.513,0,0,0-.459,3.254l4.3,6.667a2.513,2.513,0,0,0,3.241.884l.573-.289a2.513,2.513,0,0,0,.868-3.769l-4.869-6.379a2.513,2.513,0,0,0-3.651-.368" transform="translate(-21.709 -9.24)" fill="#efa189"/>
          <path id="Trazado_209443" data-name="Trazado 209443" d="M421.588,176.322h0a2.177,2.177,0,0,0-.217,2.572l3.653,5.43a1.877,1.877,0,0,0,2.74.34l.582-.44a2.2,2.2,0,0,0,.487-3.106l-4.235-4.99a1.956,1.956,0,0,0-3.01.193" transform="translate(-21.983 -9.164)" fill="#efa189"/>
          <path id="Trazado_209444" data-name="Trazado 209444" d="M416.78,192.706l-.013,0a.243.243,0,0,1-.268-.212,4.352,4.352,0,0,0-.673-1.581l-6.061-8.618a4.131,4.131,0,0,1-.559-2.882,2.718,2.718,0,0,1,1.417-1.7c2.793-1.534,5.17,2.288,5.316,2.529l3.693,5.079c.278.383,1.689,2.531,2.012,3.107a.241.241,0,0,1-.421.237c-.318-.567-1.709-2.682-1.982-3.059l-3.7-5.09a.1.1,0,0,1-.013-.019c-.022-.037-2.215-3.712-4.673-2.361a2.242,2.242,0,0,0-1.182,1.4,3.682,3.682,0,0,0,.493,2.493l6.053,8.606a4.766,4.766,0,0,1,.758,1.8.242.242,0,0,1-.2.266" transform="translate(-21.36 -9.26)"/>
          <path id="Trazado_209445" data-name="Trazado 209445" d="M425.786,185.333a.243.243,0,0,1-.252-.119c-.314-.56-2.6-3.661-3.006-4.164-.377-.47-1.552-2.052-1.6-2.119-.022-.029-2.242-2.947-4.148-1.536a1.849,1.849,0,0,0-.629,2.154,4.713,4.713,0,0,0,.627,1.337.241.241,0,1,1-.391.282c-.665-.92-1.5-2.975.106-4.162,1.835-1.357,3.957.476,4.823,1.636.012.016,1.219,1.643,1.59,2.105s2.709,3.62,3.052,4.229a.241.241,0,0,1-.093.329.233.233,0,0,1-.077.027" transform="translate(-21.697 -9.217)"/>
          <path id="Trazado_209446" data-name="Trazado 209446" d="M410.87,195.112a.242.242,0,0,1-.245-.107c-.034-.053-3.481-5.378-4.863-7.558-1.457-2.3-1.353-4.31.285-5.521a3.09,3.09,0,0,1,3.85.263.241.241,0,1,1-.328.354,2.568,2.568,0,0,0-3.235-.23c-1.429,1.057-1.487,2.788-.165,4.874,1.381,2.178,4.827,7.5,4.861,7.555a.241.241,0,0,1-.071.334.251.251,0,0,1-.09.035" transform="translate(-21.132 -9.468)"/>
          <path id="Trazado_209447" data-name="Trazado 209447" d="M87.357,345.357H192.74a6.057,6.057,0,0,0,6.044-5.662l12.1-185.492a6.057,6.057,0,0,0-6.044-6.452H75.256a6.056,6.056,0,0,0-6.043,6.452L81.313,339.7a6.057,6.057,0,0,0,6.044,5.662" transform="translate(-3.613 -7.714)" fill="#ffb6c8"/>
          <path id="Trazado_209448" data-name="Trazado 209448" d="M209.878,170.152H70.231l-.913-13.991H210.791Z" transform="translate(-3.619 -8.153)"/>
          <path id="Trazado_209449" data-name="Trazado 209449" d="M110.593,284.27h62.238a9.528,9.528,0,0,0,9.528-9.527V212.5a9.529,9.529,0,0,0-9.528-9.529H110.593a9.529,9.529,0,0,0-9.528,9.529v62.238a9.528,9.528,0,0,0,9.528,9.527" transform="translate(-5.277 -10.598)" fill="#fff"/>
          <path id="Trazado_209450" data-name="Trazado 209450" d="M160.513,266.991H124.66a6.836,6.836,0,0,1-5.921-10.254l17.926-31.05a6.768,6.768,0,0,1,5.921-3.418h0a6.766,6.766,0,0,1,5.92,3.418l17.927,31.05a6.837,6.837,0,0,1-5.922,10.254M139.95,227.582l-17.926,31.051a3.044,3.044,0,0,0,2.637,4.567h35.853a3.045,3.045,0,0,0,2.638-4.567l-17.927-31.051a3.011,3.011,0,0,0-2.636-1.522h0a3.014,3.014,0,0,0-2.637,1.522" transform="translate(-6.151 -11.605)" fill="#5774cd"/>
          <rect id="Rectángulo_338918" data-name="Rectángulo 338918" width="11.268" height="5.088" transform="translate(140.852 226.097) rotate(-32.65)" fill="#fff"/>
          <rect id="Rectángulo_338919" data-name="Rectángulo 338919" width="5.088" height="11.268" transform="translate(112.973 236.911) rotate(-57.35)" fill="#fff"/>
          <rect id="Rectángulo_338920" data-name="Rectángulo 338920" width="5.088" height="11.268" transform="translate(142.364 247.857)" fill="#fff"/>
          <path id="Trazado_209451" data-name="Trazado 209451" d="M155.63,251.659h-.02a1.422,1.422,0,0,1-1.4-1.442l.155-10.763a1.422,1.422,0,0,1,2.115-1.221l9.365,5.23a1.422,1.422,0,0,1-1.387,2.482l-7.284-4.068-.121,8.379a1.422,1.422,0,0,1-1.422,1.4" transform="translate(-8.051 -12.429)" fill="#5774cd"/>
          <path id="Trazado_209452" data-name="Trazado 209452" d="M126.345,249.711a1.422,1.422,0,0,1-1.422-1.4l-.154-10.762a1.421,1.421,0,0,1,1.4-1.442,1.436,1.436,0,0,1,1.443,1.4l.12,8.38,7.283-4.068A1.422,1.422,0,0,1,136.4,244.3l-9.365,5.23a1.428,1.428,0,0,1-.693.18" transform="translate(-6.514 -12.327)" fill="#5774cd"/>
          <path id="Trazado_209453" data-name="Trazado 209453" d="M140.477,274a1.422,1.422,0,0,1-.731-2.642l7.165-4.275-7.2-4.294a1.421,1.421,0,1,1,1.456-2.441l9.244,5.515a1.421,1.421,0,0,1,0,2.441l-9.211,5.5a1.416,1.416,0,0,1-.727.2" transform="translate(-7.258 -13.583)" fill="#5774cd"/>
          <path id="Trazado_209454" data-name="Trazado 209454" d="M124.549,189.191a3.8,3.8,0,0,1-1.571,1.485,5.316,5.316,0,0,1-2.515.55h-1.511v3.863h-3.812V182.934h5.323a4.786,4.786,0,0,1,3.425,1.133,3.994,3.994,0,0,1,1.193,3.039,4.145,4.145,0,0,1-.532,2.086m-3.331-2.086q0-1.115-1.185-1.116h-1.081v2.232h1.081q1.186,0,1.185-1.116" transform="translate(-6.012 -9.551)" fill="#fff"/>
          <path id="Trazado_209455" data-name="Trazado 209455" d="M134.643,193.252h-4.053l-.6,1.838h-4l4.446-12.155h4.4l4.43,12.155h-4.019Zm-.928-2.867-1.1-3.382-1.1,3.382Z" transform="translate(-6.578 -9.551)" fill="#fff"/>
          <path id="Trazado_209456" data-name="Trazado 209456" d="M150.308,189.191a3.8,3.8,0,0,1-1.571,1.485,5.316,5.316,0,0,1-2.515.55H144.71v3.863H140.9V182.934h5.323a4.786,4.786,0,0,1,3.425,1.133,3.994,3.994,0,0,1,1.193,3.039,4.145,4.145,0,0,1-.532,2.086m-3.331-2.086q0-1.115-1.185-1.116H144.71v2.232h1.081q1.186,0,1.185-1.116" transform="translate(-7.356 -9.551)" fill="#fff"/>
          <path id="Trazado_209457" data-name="Trazado 209457" d="M156.468,185.972v1.494h3.777v2.868h-3.777v1.716h4.292v3.039h-8.1V182.934h8.1v3.039Z" transform="translate(-7.97 -9.551)" fill="#fff"/>
          <path id="Trazado_209458" data-name="Trazado 209458" d="M168.84,195.089l-2.283-4.361h-.017v4.361h-3.812V182.934h5.666a5.6,5.6,0,0,1,2.524.523,3.642,3.642,0,0,1,1.57,1.425,3.965,3.965,0,0,1,.524,2.034,3.608,3.608,0,0,1-.679,2.164,3.726,3.726,0,0,1-1.948,1.356l2.643,4.653Zm-2.3-6.9h1.511a1.192,1.192,0,0,0,.824-.249,1.2,1.2,0,0,0-.009-1.536,1.125,1.125,0,0,0-.815-.275H166.54Z" transform="translate(-8.496 -9.551)" fill="#fff"/>
          <path id="Trazado_209459" data-name="Trazado 209459" d="M48.523,252.406s-23.1.6-27.967,7.051.295,22.164.295,22.164l20.238,9.149L74.54,261.02Z" transform="translate(-0.964 -13.178)" fill="#fd521b"/>
          <path id="Trazado_209460" data-name="Trazado 209460" d="M81.69,242.012a4.048,4.048,0,0,1,5.188,3.933c-.023,4.183,1.029,9.783,6.26,12.335,8.9,4.342,15.383,16.812,14.061,25.627s-50.623,1.676-50.623,1.676l1.1-28.871s9.989-10.614,24.012-14.7" transform="translate(-2.954 -12.627)" fill="#5774cd"/>
          <path id="Trazado_209461" data-name="Trazado 209461" d="M131.135,301.118l-85.289-.142L30.04,278.145l85.289.142Z" transform="translate(-1.568 -14.522)" fill="#fff"/>
          <path id="Trazado_209462" data-name="Trazado 209462" d="M131.109,301.565h0l-85.289-.142a.471.471,0,0,1-.389-.2L29.623,278.387a.473.473,0,0,1,.39-.742h0l85.29.143a.476.476,0,0,1,.389.2L131.5,300.822a.473.473,0,0,1-.39.743m-85.039-1.09,84.133.141-15.149-21.881-84.134-.142Z" transform="translate(-1.542 -14.496)" fill="#d7e5ff"/>
          <rect id="Rectángulo_338921" data-name="Rectángulo 338921" width="77.801" height="96.622" transform="translate(16.227 341.384) rotate(-89.904)" fill="#d7e5ff"/>
          <path id="Trazado_209463" data-name="Trazado 209463" d="M.5,300.9l85.289.142,15.882-22.778-85.289-.142Z" transform="translate(-0.026 -14.521)" fill="#fff"/>
          <path id="Trazado_209464" data-name="Trazado 209464" d="M85.763,301.491h0L.473,301.349a.474.474,0,0,1-.388-.745l15.883-22.778a.474.474,0,0,1,.389-.2h0l85.289.142a.474.474,0,0,1,.388.745L86.152,301.289a.478.478,0,0,1-.39.2M1.381,300.4l84.135.14,15.222-21.832-84.134-.14Z" transform="translate(0 -14.495)" fill="#d7e5ff"/>
          <rect id="Rectángulo_338922" data-name="Rectángulo 338922" width="27.375" height="41.016" transform="translate(60.528 324.598) rotate(-89.905)" fill="#5774cd"/>
          <path id="Trazado_209465" data-name="Trazado 209465" d="M107.082,356.5h0a.474.474,0,0,1-.473-.475l.13-77.8a.474.474,0,0,1,.474-.473h0a.474.474,0,0,1,.473.475l-.13,77.8a.474.474,0,0,1-.474.473" transform="translate(-5.566 -14.502)"/>
          <path id="Trazado_209466" data-name="Trazado 209466" d="M61.419,344.417a.474.474,0,0,1-.355-.788L73.548,329.5a.474.474,0,0,1,.711.627L61.774,344.256a.475.475,0,0,1-.355.16" transform="translate(-3.182 -17.195)" fill="#fff"/>
          <path id="Trazado_209467" data-name="Trazado 209467" d="M74.371,344.826a.471.471,0,0,1-.353-.157L60.544,329.674a.474.474,0,0,1,.705-.633l13.474,14.994a.474.474,0,0,1-.353.79" transform="translate(-3.155 -17.171)" fill="#fff"/>
        </g>
      </g>
    </g>
  </g>
</svg>
