<svg xmlns="http://www.w3.org/2000/svg" xmlns:xlink="http://www.w3.org/1999/xlink" width="400" height="276.842" viewBox="0 0 400 276.842">
  <defs>
    <clipPath id="clip-path">
      <rect id="Rectángulo_338936" data-name="Rectángulo 338936" width="387.343" height="272.342" fill="none"/>
    </clipPath>
    <clipPath id="clip-path-2">
      <rect id="Rectángulo_338933" data-name="Rectángulo 338933" width="329.924" height="35.386" fill="#c4d1ff"/>
    </clipPath>
    <clipPath id="clip-path-3">
      <rect id="Rectángulo_338937" data-name="Rectángulo 338937" width="189.673" height="166.628" fill="none"/>
    </clipPath>
  </defs>
  <g id="Grupo_983679" data-name="Grupo 983679" transform="translate(-390 -7707.158)">
    <rect id="Rectángulo_338830" data-name="Rectángulo 338830" width="400" height="221" rx="13" transform="translate(390 7763)" fill="#a6bbff"/>
    <g id="Grupo_983678" data-name="Grupo 983678" transform="translate(370 7693.096)">
      <g id="Grupo_983680" data-name="Grupo 983680" transform="translate(26 14.062)">
        <g id="Grupo_983672" data-name="Grupo 983672">
          <g id="Grupo_983671" data-name="Grupo 983671" clip-path="url(#clip-path)">
            <g id="Grupo_983670" data-name="Grupo 983670" transform="translate(43.773 4.891)" opacity="0.8">
              <g id="Grupo_983669" data-name="Grupo 983669">
                <g id="Grupo_983668" data-name="Grupo 983668" clip-path="url(#clip-path-2)">
                  <path id="Trazado_209657" data-name="Trazado 209657" d="M70.756,52.035a3.413,3.413,0,0,1,3.817,2.137c.969,2.629-1.57,5.573-4.988,4.252-2.948-2.183-1.665-5.868,1.171-6.389" transform="translate(-67.908 -23.364)" fill="#c4d1ff"/>
                  <path id="Trazado_209658" data-name="Trazado 209658" d="M572.178,26.626a6.856,6.856,0,1,1-6.856-6.856,6.856,6.856,0,0,1,6.856,6.856" transform="translate(-242.254 -11.917)" fill="#c4d1ff"/>
                  <path id="Trazado_209659" data-name="Trazado 209659" d="M97.071,40.89a6.926,6.926,0,1,1-8.539-4.8,6.927,6.927,0,0,1,8.539,4.8" transform="translate(-73.44 -17.625)" fill="#c4d1ff"/>
                  <path id="Trazado_209660" data-name="Trazado 209660" d="M550.956,11.8a4.218,4.218,0,1,1-4.218-4.218,4.217,4.217,0,0,1,4.218,4.218" transform="translate(-236.587 -7.587)" fill="#c4d1ff"/>
                </g>
              </g>
            </g>
            <path id="Trazado_209661" data-name="Trazado 209661" d="M377.517,81.647C377.512,43.969,346.14,2.682,307.1.188q-1.029-.066-2.078-.115c-55.975-2.609-60.239,65.662-110.884,73.362s-89.319-31.171-149.917-5.81C-10.209,90.4-24.95,218.391,134.961,223.523,262.9,227.63,377.534,194.062,377.517,81.647" transform="translate(-2.34 0)" fill="#c4d1ff"/>
            <path id="Trazado_209662" data-name="Trazado 209662" d="M391.735,382.3c0,7.04-84.926,12.746-189.687,12.746S12.36,389.341,12.36,382.3s84.926-12.746,189.688-12.746,189.687,5.707,189.687,12.746" transform="translate(-4.393 -131.341)" fill="#f0f4ff"/>
            <path id="Trazado_209663" data-name="Trazado 209663" d="M375.836,78.77V244.883a11.56,11.56,0,0,1-11.56,11.56H82.21a11.56,11.56,0,0,1-11.56-11.56V78.77A11.56,11.56,0,0,1,82.21,67.21H364.276a11.56,11.56,0,0,1,11.56,11.56" transform="translate(-25.109 -23.887)" fill="#1b3431"/>
            <path id="Trazado_209664" data-name="Trazado 209664" d="M369.754,94.418V232.969a7.643,7.643,0,0,1-7.879,7.383H99.564A8.1,8.1,0,0,1,93.7,237.9a7.086,7.086,0,0,1-2.02-4.933V94.418a7.646,7.646,0,0,1,7.882-7.382H361.875a8.218,8.218,0,0,1,3.987,1.015,7.3,7.3,0,0,1,3.892,6.367" transform="translate(-32.584 -30.933)" fill="#efe3df"/>
            <path id="Trazado_209665" data-name="Trazado 209665" d="M388.626,350.57v1.053a23.948,23.948,0,0,1-23.951,23.951H50.375a23.949,23.949,0,0,1-23.951-23.951V350.57Z" transform="translate(-9.391 -124.594)" fill="#414f50"/>
            <path id="Trazado_209666" data-name="Trazado 209666" d="M307.709,368.056a3.462,3.462,0,1,1-3.462-3.462,3.462,3.462,0,0,1,3.462,3.462" transform="translate(-106.9 -129.578)" fill="#1b3431"/>
            <path id="Trazado_209667" data-name="Trazado 209667" d="M288.736,368.056a3.462,3.462,0,1,1-3.462-3.462,3.462,3.462,0,0,1,3.462,3.462" transform="translate(-100.157 -129.578)" fill="#1b3431"/>
            <path id="Trazado_209668" data-name="Trazado 209668" d="M326.679,368.056a3.462,3.462,0,1,1-3.462-3.462,3.462,3.462,0,0,1,3.462,3.462" transform="translate(-113.642 -129.578)" fill="#1b3431"/>
            <path id="Trazado_209669" data-name="Trazado 209669" d="M515.045,368.056a3.462,3.462,0,1,1-3.462-3.462,3.462,3.462,0,0,1,3.462,3.462" transform="translate(-180.588 -129.578)" fill="#d76751"/>
            <path id="Trazado_209670" data-name="Trazado 209670" d="M534.016,368.056a3.462,3.462,0,1,1-3.462-3.462,3.462,3.462,0,0,1,3.462,3.462" transform="translate(-187.33 -129.578)" fill="#f5bf69"/>
            <path id="Trazado_209671" data-name="Trazado 209671" d="M244.4,350.57v.24a3.177,3.177,0,0,0,2.836,3.434h73.942a3.178,3.178,0,0,0,2.836-3.434v-.24Z" transform="translate(-86.861 -124.594)" fill="#647a7a"/>
            <path id="Trazado_209672" data-name="Trazado 209672" d="M369.754,94.916v8.727H91.682V94.916a7.889,7.889,0,0,1,7.882-7.881H361.875a7.889,7.889,0,0,1,7.879,7.881" transform="translate(-32.584 -30.933)" fill="#fff"/>
            <path id="Trazado_209673" data-name="Trazado 209673" d="M486.049,99.428a2.085,2.085,0,1,1-2.085-2.085,2.085,2.085,0,0,1,2.085,2.085" transform="translate(-171.261 -34.596)" fill="#468280"/>
            <path id="Trazado_209674" data-name="Trazado 209674" d="M496.533,99.428a2.085,2.085,0,1,1-2.085-2.085,2.085,2.085,0,0,1,2.085,2.085" transform="translate(-174.987 -34.596)" fill="#78b1de"/>
            <path id="Trazado_209675" data-name="Trazado 209675" d="M506.509,99.428a2.085,2.085,0,1,1-2.085-2.085,2.085,2.085,0,0,1,2.085,2.085" transform="translate(-178.533 -34.596)" fill="#e2534d"/>
            <path id="Trazado_209676" data-name="Trazado 209676" d="M347.619,101.567H135.813a2.116,2.116,0,0,1-2.11-2.11v-.191a2.116,2.116,0,0,1,2.11-2.11H347.619a2.116,2.116,0,0,1,2.11,2.11v.192a2.116,2.116,0,0,1-2.11,2.11" transform="translate(-47.519 -34.529)" fill="#e9cec2"/>
            <path id="Trazado_209677" data-name="Trazado 209677" d="M109.765,99.245v2.042a.375.375,0,0,1-.562.324l-1.768-1.021-1.768-1.021a.374.374,0,0,1,0-.648l1.768-1.021,1.768-1.021a.375.375,0,0,1,.562.324Z" transform="translate(-37.488 -34.413)" fill="#1b3431"/>
            <path id="Trazado_209678" data-name="Trazado 209678" d="M116.948,99.245v2.042a.374.374,0,0,0,.561.324l1.769-1.021,1.768-1.021a.374.374,0,0,0,0-.648L119.278,97.9l-1.769-1.021a.374.374,0,0,0-.561.324Z" transform="translate(-41.564 -34.413)" fill="#1b3431"/>
            <path id="Trazado_209679" data-name="Trazado 209679" d="M356.174,236.911H163.669a4.733,4.733,0,0,1-4.733-4.733V128.273a4.732,4.732,0,0,1,4.733-4.732H356.174a4.732,4.732,0,0,1,4.733,4.732V232.178a4.733,4.733,0,0,1-4.733,4.733" transform="translate(-56.486 -43.907)" fill="#fff"/>
            <path id="Trazado_209680" data-name="Trazado 209680" d="M411.416,244.819a3.876,3.876,0,0,0,.536,2.074c.173.294.352.584.518.882l2.829,5.1,1.855-3.343c.492-.888,1.027-1.751,1.545-2.624a3.915,3.915,0,1,0-7.283-2.092m2.263-.373a1.653,1.653,0,1,1,1.653,1.653,1.652,1.652,0,0,1-1.653-1.653" transform="translate(-146.218 -85.652)" fill="#e9cec2"/>
            <path id="Trazado_209681" data-name="Trazado 209681" d="M387.027,247.148a5.875,5.875,0,1,0,5.875-5.875,5.882,5.882,0,0,0-5.875,5.875m3.3,2.169a7.777,7.777,0,0,1-.314-2.058h2.656v2.058Zm1.385,3.1a5.383,5.383,0,0,1-3.518-2.628h1.789A6.536,6.536,0,0,0,391,251.662a5.981,5.981,0,0,0,.707.755m.957-2.628v2.755a4.9,4.9,0,0,1-1.3-1.189,6.037,6.037,0,0,1-.877-1.566Zm-2.052-5.533a7.33,7.33,0,0,1,1.842-2.492c.07-.006.141-.01.21-.013v2.5Zm-2.272,0a5.423,5.423,0,0,1,3.29-2.359,7.955,7.955,0,0,0-.743.915,7.688,7.688,0,0,0-.792,1.444Zm1.671,2.531a6.745,6.745,0,0,1,.408-2.059h2.245v2.059Zm-2.5,0a5.343,5.343,0,0,1,.561-2.059h1.847a7.241,7.241,0,0,0-.38,2.059Zm2.025.473a8.312,8.312,0,0,0,.295,2.058h-1.877a5.336,5.336,0,0,1-.453-2.058Zm6.674,0H398.3a5.338,5.338,0,0,1-.453,2.058h-1.932a8.312,8.312,0,0,0,.294-2.058m-3.073-3v-2.5c.05,0,.1,0,.15.008a6.964,6.964,0,0,1,1.193,1.334,7.223,7.223,0,0,1,.657,1.163Zm2.191.472a6.792,6.792,0,0,1,.407,2.059h-2.6v-2.059Zm.323-.472a7.765,7.765,0,0,0-.792-1.444,7.958,7.958,0,0,0-.759-.931,5.416,5.416,0,0,1,3.36,2.375Zm.087,3a7.714,7.714,0,0,1-.313,2.058h-2.288v-2.058Zm.47-.473a7.262,7.262,0,0,0-.379-2.059h1.9a5.339,5.339,0,0,1,.561,2.059Zm1.4,3a5.451,5.451,0,0,1-3.59,2.643,5.933,5.933,0,0,0,.725-.77,6.552,6.552,0,0,0,1.021-1.873Zm-2.349,0a5.552,5.552,0,0,1-2.126,2.721v-2.721Z" transform="translate(-137.551 -85.749)" fill="#e9cec2"/>
            <path id="Trazado_209682" data-name="Trazado 209682" d="M435.5,245.118c0-.509-.492-.771-1.1-.771a1.934,1.934,0,0,0-1.707,1.116L429.776,244c.837-1.575,2.495-2.659,5.121-2.659,2.576,0,4.5,1.084,4.5,3.135,0,2.511-2.625,2.955-2.625,4.218h-3.381c0-1.986,2.117-2.576,2.117-3.578m-2.593,6.171a2.18,2.18,0,0,1,4.333,0,2.176,2.176,0,0,1-4.333,0" transform="translate(-152.744 -85.774)" fill="#e9cec2"/>
            <path id="Trazado_209683" data-name="Trazado 209683" d="M483.3,199.326h-10.39a1.493,1.493,0,0,1-1.493-1.492V159.242a1.493,1.493,0,0,1,1.493-1.492H483.3a1.492,1.492,0,0,1,1.492,1.492v38.592a1.492,1.492,0,0,1-1.492,1.492" transform="translate(-167.543 -56.065)" fill="#fff"/>
            <path id="Trazado_209684" data-name="Trazado 209684" d="M481.185,189.751h-5.2a1.071,1.071,0,0,1-1.071-1.072v-3.525a1.071,1.071,0,0,1,1.071-1.072h5.2a1.072,1.072,0,0,1,1.072,1.072v3.525a1.072,1.072,0,0,1-1.072,1.072" transform="translate(-168.784 -65.423)" fill="#1b3431"/>
            <path id="Trazado_209685" data-name="Trazado 209685" d="M488.346,184.083v5.669l-2.29-1.927V186.01Z" transform="translate(-172.746 -65.424)" fill="#1b3431"/>
            <path id="Trazado_209686" data-name="Trazado 209686" d="M474.936,205.878a4.72,4.72,0,1,0,4.72-4.72,4.72,4.72,0,0,0-4.72,4.72" transform="translate(-168.794 -71.492)" fill="#d76751"/>
            <path id="Trazado_209687" data-name="Trazado 209687" d="M478.533,209.7a.493.493,0,0,0,.35-.145l4.452-4.452a.5.5,0,1,0-.7-.7l-4.452,4.451a.5.5,0,0,0,.351.846" transform="translate(-169.896 -72.594)" fill="#fff"/>
            <path id="Trazado_209688" data-name="Trazado 209688" d="M482.983,209.7a.5.5,0,0,0,.351-.846l-4.452-4.451a.5.5,0,1,0-.7.7l4.452,4.452a.493.493,0,0,0,.35.145" transform="translate(-169.896 -72.594)" fill="#fff"/>
            <path id="Trazado_209689" data-name="Trazado 209689" d="M481.418,168.959h.249a1.178,1.178,0,0,0,1.174-1.174v-4.422a1.178,1.178,0,0,0-1.174-1.174h-.249a1.177,1.177,0,0,0-1.174,1.174v4.422a1.177,1.177,0,0,0,1.174,1.174" transform="translate(-170.68 -57.643)" fill="#1b3431"/>
            <path id="Trazado_209690" data-name="Trazado 209690" d="M482.087,173.43h.051a.24.24,0,0,0,.24-.24v-2.7a.241.241,0,0,0-.24-.24h-.051a.241.241,0,0,0-.24.24v2.7a.241.241,0,0,0,.24.24" transform="translate(-171.25 -60.509)" fill="#1b3431"/>
            <path id="Trazado_209691" data-name="Trazado 209691" d="M478.717,174.944h4.207a.506.506,0,0,0,.5-.5v-.107a.506.506,0,0,0-.5-.5h-4.207a.506.506,0,0,0-.5.5v.107a.506.506,0,0,0,.5.5" transform="translate(-169.958 -61.779)" fill="#1b3431"/>
            <path id="Trazado_209692" data-name="Trazado 209692" d="M218.369,237.2H171.615a2.221,2.221,0,0,1-2.221-2.221v-24.3a2.221,2.221,0,0,1,2.221-2.221h46.753a2.221,2.221,0,0,1,2.221,2.221v24.3a2.221,2.221,0,0,1-2.221,2.221" transform="translate(-60.203 -74.088)" fill="#efe3df"/>
            <path id="Trazado_209693" data-name="Trazado 209693" d="M422.369,167.2H375.615a2.221,2.221,0,0,1-2.221-2.221v-24.3a2.221,2.221,0,0,1,2.221-2.221h46.753a2.221,2.221,0,0,1,2.221,2.221v24.3a2.221,2.221,0,0,1-2.221,2.221" transform="translate(-132.706 -49.21)" fill="#efe3df"/>
            <path id="Trazado_209694" data-name="Trazado 209694" d="M423.371,212.09H374.452a1.176,1.176,0,0,1-1.176-1.176v-.108a1.176,1.176,0,0,1,1.176-1.176h48.919a1.176,1.176,0,0,1,1.176,1.176v.108a1.176,1.176,0,0,1-1.176,1.176" transform="translate(-132.664 -74.503)" fill="#efe3df"/>
            <path id="Trazado_209695" data-name="Trazado 209695" d="M423.371,195.944H374.452a1.176,1.176,0,0,1-1.176-1.176v-.108a1.176,1.176,0,0,1,1.176-1.176h48.919a1.176,1.176,0,0,1,1.176,1.176v.108a1.176,1.176,0,0,1-1.176,1.176" transform="translate(-132.664 -68.765)" fill="#efe3df"/>
            <path id="Trazado_209696" data-name="Trazado 209696" d="M423.371,228.237H374.452a1.176,1.176,0,0,1-1.176-1.176v-.108a1.176,1.176,0,0,1,1.176-1.176h48.919a1.176,1.176,0,0,1,1.176,1.176v.108a1.176,1.176,0,0,1-1.176,1.176" transform="translate(-132.664 -80.242)" fill="#efe3df"/>
            <path id="Trazado_209697" data-name="Trazado 209697" d="M219.371,174.34H170.452a1.176,1.176,0,0,1-1.176-1.176v-.108a1.176,1.176,0,0,1,1.176-1.176h48.919a1.176,1.176,0,0,1,1.176,1.176v.108a1.176,1.176,0,0,1-1.176,1.176" transform="translate(-60.161 -61.087)" fill="#efe3df"/>
            <path id="Trazado_209698" data-name="Trazado 209698" d="M219.371,158.193H170.452a1.176,1.176,0,0,1-1.176-1.176v-.108a1.176,1.176,0,0,1,1.176-1.176h48.919a1.176,1.176,0,0,1,1.176,1.176v.108a1.176,1.176,0,0,1-1.176,1.176" transform="translate(-60.161 -55.348)" fill="#efe3df"/>
            <path id="Trazado_209699" data-name="Trazado 209699" d="M219.371,190.487H170.452a1.176,1.176,0,0,1-1.176-1.176V189.2a1.176,1.176,0,0,1,1.176-1.176h48.919a1.176,1.176,0,0,1,1.176,1.176v.108a1.176,1.176,0,0,1-1.176,1.176" transform="translate(-60.161 -66.825)" fill="#efe3df"/>
            <path id="Trazado_209700" data-name="Trazado 209700" d="M158.936,272.1h201.97v16.558a1.048,1.048,0,0,1-1.049,1.047H159.985a1.048,1.048,0,0,1-1.049-1.047Z" transform="translate(-56.486 -96.707)" fill="#1b3431"/>
            <path id="Trazado_209701" data-name="Trazado 209701" d="M449.068,280.674v-1.493h1.867v-1.328H448.4a.664.664,0,0,0-.664.664v2.157Z" transform="translate(-159.128 -98.75)" fill="#fff"/>
            <path id="Trazado_209702" data-name="Trazado 209702" d="M449.068,286.35H447.74v2.27a.664.664,0,0,0,.664.664h2.531v-1.328h-1.867Z" transform="translate(-159.128 -101.77)" fill="#fff"/>
            <path id="Trazado_209703" data-name="Trazado 209703" d="M457.752,280.674h1.328v-2.157a.664.664,0,0,0-.665-.664h-2.435v1.328h1.771Z" transform="translate(-162.057 -98.75)" fill="#fff"/>
            <path id="Trazado_209704" data-name="Trazado 209704" d="M457.752,286.35v1.606h-1.771v1.328h2.435a.664.664,0,0,0,.665-.664v-2.27Z" transform="translate(-162.057 -101.77)" fill="#fff"/>
            <rect id="Rectángulo_338934" data-name="Rectángulo 338934" width="201.97" height="3.311" transform="translate(102.45 172.088)" fill="#efe3df"/>
            <path id="Trazado_209705" data-name="Trazado 209705" d="M181.7,133.153h2.279v4.992h3.051v1.767H181.7Z" transform="translate(-64.576 -47.323)" fill="#1b3431"/>
            <rect id="Rectángulo_338935" data-name="Rectángulo 338935" width="2.279" height="6.759" transform="translate(123.079 85.83)" fill="#1b3431"/>
            <path id="Trazado_209706" data-name="Trazado 209706" d="M203,133.153l-2.858,6.759H197.9l-2.858-6.759h2.452l1.613,3.949,1.651-3.949Z" transform="translate(-69.319 -47.323)" fill="#1b3431"/>
            <path id="Trazado_209707" data-name="Trazado 209707" d="M213.347,138.193v1.719h-5.619v-6.759h5.493v1.718h-3.253v.792h2.857V137.3h-2.857v.888Z" transform="translate(-73.827 -47.323)" fill="#1b3431"/>
            <path id="Trazado_209708" data-name="Trazado 209708" d="M172.815,136.778a2.779,2.779,0,1,1-2.78-2.778,2.779,2.779,0,0,1,2.78,2.778" transform="translate(-59.444 -47.624)" fill="#d76751"/>
          </g>
        </g>
        <g id="Grupo_983674" data-name="Grupo 983674" transform="translate(103.243 5.479)">
          <g id="Grupo_983673" data-name="Grupo 983673" clip-path="url(#clip-path-3)">
            <path id="Trazado_209709" data-name="Trazado 209709" d="M400.525,90.125s2.4,5.446,6.851,5.384c3.594-.052,5.944-4.123,6.716-5.687.184-.375.278-.6.278-.6a5.973,5.973,0,0,0,.633-.142c.879-.239,2.4-.824,2.734-2.067.476-1.771-2.981-2-2.981-2s1.256-1.879.574-2.834c-.672-.938-2.917-.59-2.917-.59s1.963-2.139.829-3.271c-1.7-1.7-3.574,1.137-3.737,1.309.108-.216,2.347-4.165.529-4.3-1.587-.12-3.563,2.141-4.721,4.175-.184.322-.286.508-.286.508s-.113-.047-.308-.115c-.926-.324-3.712-1.113-4.922.575-1.464,2.038.728,9.665.728,9.665" transform="translate(-245.153 -32.245)" fill="#f49d8b"/>
            <path id="Trazado_209710" data-name="Trazado 209710" d="M408.535,97.517a.344.344,0,0,0,.3-.594,3.086,3.086,0,0,1-1.149-2.359c0-2.272,2.471-4.481,2.5-4.5a.343.343,0,0,0-.455-.514c-.111.1-2.725,2.439-2.727,5.017a3.748,3.748,0,0,0,1.379,2.873.348.348,0,0,0,.16.08" transform="translate(-247.891 -37.274)" fill="#d37363"/>
            <path id="Trazado_209711" data-name="Trazado 209711" d="M410.579,87.129a1.067,1.067,0,0,0,.7.784,1.237,1.237,0,0,0,.244.054,2.513,2.513,0,0,0,.634-.02,2.5,2.5,0,0,0-.336.458,1.189,1.189,0,0,0-.156.456.9.9,0,0,0,.364.8,4.376,4.376,0,0,0,3.056.4,3.63,3.63,0,0,0-1.143,1.975,1.075,1.075,0,0,0,.39.98,2.028,2.028,0,0,0,.857.343,11.245,11.245,0,0,0,2.89.05c.186-.375.278-.605.278-.605a5.919,5.919,0,0,0,.636-.141.33.33,0,0,0-.191-.025c-1.268.174-3.487.286-4.043-.158a.4.4,0,0,1-.134-.384,4.118,4.118,0,0,1,2.01-2.365.342.342,0,0,0-.253-.632c-.818.227-3.115.67-3.925.023-.117-.093-.112-.163-.106-.2a1.144,1.144,0,0,1,.384-.59,8.512,8.512,0,0,1,1.778-1.247.325.325,0,0,0,.144-.149.331.331,0,0,0,0-.315.343.343,0,0,0-.465-.142c-.108.057-.331.178-.6.347a7.707,7.707,0,0,1-1.489.443,1.374,1.374,0,0,1-.6-.008.394.394,0,0,1-.258-.312,2.195,2.195,0,0,1,.1-1.1.336.336,0,0,0-.123-.364.028.028,0,0,1-.009-.007.336.336,0,0,0-.527.173,2.875,2.875,0,0,0-.1,1.477" transform="translate(-249.144 -35.834)" fill="#d37363"/>
            <path id="Trazado_209712" data-name="Trazado 209712" d="M410.4,62.943a9.344,9.344,0,0,0-1.262,1.546c-.357.572-.6.877-.844,1.258-.032-.032.032.03,0,0l-.608-28.762a.34.34,0,0,1,.678-.034L410.4,62.943h0" transform="translate(-248.137 -18.5)" fill="#414f50"/>
            <path id="Trazado_209713" data-name="Trazado 209713" d="M409.2,97.91c2.584.857,2.932-.361,2.932-.361l-.521-6.657a1.406,1.406,0,0,1-.121-.086.9.9,0,0,1-.364-.8,1.2,1.2,0,0,1,.157-.457,1.968,1.968,0,0,1,.2-.294l-.012-.145a2.35,2.35,0,0,1-.485,0,1.175,1.175,0,0,1-.244-.054,1.007,1.007,0,0,1-.55-.431,1.7,1.7,0,0,1-.881.7,2.366,2.366,0,0,1-.319.093Z" transform="translate(-248.599 -36.977)" fill="#414f50"/>
            <path id="Trazado_209714" data-name="Trazado 209714" d="M402.239,86.037a11.321,11.321,0,0,0,2.56.9,3.854,3.854,0,0,0,2.043-.037,1.713,1.713,0,0,0,1.027-.99c.688-1.688-.69-3.3-1.575-4.116-.184.322-.287.508-.287.508s-.113-.047-.308-.115c.752.664,2.093,2.1,1.534,3.463a1.032,1.032,0,0,1-.63.606c-1.141.426-3.313-.456-4.053-.832a.343.343,0,1,0-.311.611" transform="translate(-246.133 -34.55)" fill="#d37363"/>
            <path id="Trazado_209715" data-name="Trazado 209715" d="M339.012,91.863l0-.012s0-.014,0,0l.017.034.038.076.09.185.2.409q.1.209.213.426c.072.143.146.287.223.433.3.581.619,1.173.95,1.758.67,1.169,1.362,2.341,2.11,3.476s1.511,2.259,2.328,3.338c.412.536.821,1.075,1.247,1.6s.853,1.04,1.283,1.555c.882,1.008,1.785,1.991,2.728,2.921.228.242.473.462.71.693s.471.464.719.68c.491.437.972.886,1.477,1.3.988.861,2.033,1.633,3.075,2.4,1.064.733,2.136,1.451,3.25,2.087.278.159.552.326.832.481l.85.445.425.224.106.056-.054-.028-.073-.035a2.39,2.39,0,0,0-.3-.115,4.176,4.176,0,0,0-1.387-.255c-.113,0-.209-.006-.314,0-.052,0-.1.008-.153.015l-.13.011a2.03,2.03,0,0,0-.251.045,1.281,1.281,0,0,0-.2.043c-.03.008-.068.024-.09.028s-.046.012-.068.019c-.043.012-.093.035-.126.049a.426.426,0,0,0-.078.031l-.035.02-.016.006c-.089.055.1-.024.352-.224a10.249,10.249,0,0,0,.958-.865c.36-.363.742-.786,1.126-1.244.775-.913,1.561-1.972,2.335-3.081s1.536-2.289,2.283-3.5,1.491-2.448,2.208-3.712,1.439-2.542,2.134-3.834q.529-.966,1.04-1.939l1-1.878,12.8,5.277-.218.633-.21.589-.423,1.159q-.435,1.148-.889,2.283c-.616,1.51-1.256,3.012-1.941,4.505s-1.41,2.979-2.185,4.464c-.391.741-.789,1.482-1.207,2.223s-.854,1.48-1.309,2.222a51.382,51.382,0,0,1-3.059,4.468c-.581.75-1.2,1.506-1.9,2.27a24.668,24.668,0,0,1-2.414,2.319,17.621,17.621,0,0,1-3.52,2.315l-.275.135c-.1.044-.2.088-.3.131q-.306.131-.615.253c-.214.081-.45.159-.676.233l-.344.108c-.113.035-.248.068-.371.1q-.379.095-.761.175c-.268.05-.549.091-.825.128-.139.017-.275.035-.418.048s-.3.02-.444.026c-.3.012-.587.026-.893.016a11.973,11.973,0,0,1-3.659-.679c-.283-.106-.561-.22-.837-.342l-.206-.092-.187-.087-.151-.077-.605-.311-1.208-.626c-.4-.217-.789-.445-1.183-.668-1.581-.886-3.083-1.891-4.561-2.923-1.452-1.06-2.874-2.161-4.21-3.342-1.356-1.163-2.625-2.41-3.857-3.68l-.905-.969c-.3-.324-.585-.659-.878-.989s-.581-.661-.859-1l-.84-1.015a64.738,64.738,0,0,1-5.865-8.645c-.85-1.514-1.659-3.05-2.386-4.642-.364-.8-.721-1.6-1.054-2.428q-.126-.308-.248-.627t-.244-.64c-.081-.213-.162-.439-.242-.664l-.274-.8Z" transform="translate(-218.814 -38.12)" fill="#78b1de"/>
            <path id="Trazado_209716" data-name="Trazado 209716" d="M405.158,106.291a.955.955,0,1,1-1.1-.783.955.955,0,0,1,1.1.783" transform="translate(-246.563 -42.972)" fill="#4e88af"/>
            <path id="Trazado_209717" data-name="Trazado 209717" d="M381.147,135.018a.408.408,0,0,1-.461-.2,30.738,30.738,0,0,1-2.412-6.683.408.408,0,1,1,.8-.182,30.586,30.586,0,0,0,2.333,6.476.406.406,0,0,1-.164.553.417.417,0,0,1-.092.037" transform="translate(-237.679 -50.841)" fill="#4e88af"/>
            <path id="Trazado_209718" data-name="Trazado 209718" d="M377.387,133.1a.408.408,0,0,1-.5-.48,33.148,33.148,0,0,1,1.051-3.923.408.408,0,1,1,.746.331,33.843,33.843,0,0,0-1,3.763.407.407,0,0,1-.3.31" transform="translate(-237.186 -51.132)" fill="#4e88af"/>
            <path id="Trazado_209719" data-name="Trazado 209719" d="M406.127,113.7a.407.407,0,0,1-.315-.047c-4.19-2.558-13.049-6.021-13.138-6.055a.408.408,0,0,1,.3-.761c.09.035,9.016,3.525,13.267,6.12a.408.408,0,0,1-.111.743" transform="translate(-242.709 -43.44)" fill="#4e88af"/>
            <path id="Trazado_209720" data-name="Trazado 209720" d="M407.279,110.6a.408.408,0,0,1-.471-.57l2.756-5.823a.408.408,0,0,1,.737.349l-2.756,5.823a.4.4,0,0,1-.267.22" transform="translate(-247.81 -42.432)" fill="#4e88af"/>
            <path id="Trazado_209721" data-name="Trazado 209721" d="M278.669,223.829c.089.355.185.7.29,1.041,0,.013.007.027.011.039q.215.689.473,1.322c1.533,3.735,13.333,4.26,24.946,2.939,9.007-1.025,17.9-3.163,21.8-5.78,3.664-2.456-4.193-25.042-4.193-25.042l-44.049,9.333s-.973,9.4.717,16.148" transform="translate(-201.929 -75.973)" fill="#1b3431"/>
            <path id="Trazado_209722" data-name="Trazado 209722" d="M324.361,273.9h21.86c-.792-12.093-2.014-25.667-3.509-39.924-.041-.38-.079-.761-.121-1.143q-.2-1.9-.407-3.818c-.037-.34-.073-.681-.11-1.023l-4.238,1.962-1.039.482-16.646,7.706.172,1.465Z" transform="translate(-217.025 -86.509)" fill="#1b3431"/>
            <path id="Trazado_209723" data-name="Trazado 209723" d="M328.272,280.408h1.091L324.89,246.77a.541.541,0,1,0-1.072.142Z" transform="translate(-218.328 -93.015)" fill="#414f50"/>
            <path id="Trazado_209724" data-name="Trazado 209724" d="M338.673,216.372a22.077,22.077,0,0,0,4.7,9.706,12.539,12.539,0,0,0,2.484,2.113,10.487,10.487,0,0,0,2.3,1.111,9.361,9.361,0,0,0,1.131.316c-.041-.38-.079-.76-.121-1.142-.182-.046-.362-.1-.541-.157a9.531,9.531,0,0,1-2.188-1.038,11.106,11.106,0,0,1-2.027-1.685c-3.567-3.713-4.666-9.358-4.678-9.425a.541.541,0,1,0-1.063.2" transform="translate(-223.605 -82.15)" fill="#414f50"/>
            <path id="Trazado_209725" data-name="Trazado 209725" d="M323.413,229.514a.444.444,0,0,1-.425.457h0a.442.442,0,0,1-.472-.411c-.083-1.63-.182-3.3-.29-4.964-.019-.294-.037-.587-.059-.881-.365-5.446-.824-10.792-1.171-14.566-.029-.3-.055-.6-.083-.886-.077-.828-.147-1.563-.207-2.185.3-.047.6-.1.892-.146.06.622.13,1.363.208,2.2.027.284.054.58.083.885.343,3.742.8,9.041,1.165,14.454.021.3.04.6.061.9.112,1.727.215,3.458.3,5.145" transform="translate(-217.222 -78.668)" fill="#414f50"/>
            <path id="Trazado_209726" data-name="Trazado 209726" d="M322.668,224.064a11.751,11.751,0,0,1-1.573.606c-.28.086-.581.164-.89.226a6.4,6.4,0,0,1-.853.112,3.106,3.106,0,0,1-1.512-.234,1.842,1.842,0,0,1-1.028-1.374c-.331-1.679-1.031-8.616-1.5-13.522-.03-.3-.059-.6-.086-.882-.075-.785-.142-1.5-.2-2.105.3-.037.6-.073.9-.113.057.61.124,1.332.2,2.128q.041.426.084.882c.473,4.894,1.172,11.821,1.493,13.448a.967.967,0,0,0,.544.759,3.189,3.189,0,0,0,1.9.021c.3-.067.6-.152.886-.244a10.746,10.746,0,0,0,1.236-.487.457.457,0,0,1,.6.195.429.429,0,0,1-.2.583" transform="translate(-215.204 -78.969)" fill="#414f50"/>
            <path id="Trazado_209727" data-name="Trazado 209727" d="M279.156,233.775a.026.026,0,0,1,0,.012.144.144,0,0,0,.005.039c.034.351.067.708.1,1.071.977,10.31,2.488,25.808,3.788,37.385h21.6l-.079-41.355a131.01,131.01,0,0,0-12.482-5.045c-.349-.119-.7-.234-1.053-.349-.667-.215-1.336-.422-2-.616q-.531-.155-1.057-.3c-3.982-1.082-7.678-1.615-9.749-.75,0,0,.319,3.505.827,8.877.032.335.065.677.1,1.029" transform="translate(-202.128 -84.89)" fill="#1b3431"/>
            <path id="Trazado_209728" data-name="Trazado 209728" d="M288.376,279.223c-1.242-14.113-2.772-35.481-2.792-35.754a.541.541,0,0,0-1.078.077c.019.274,1.543,21.544,2.785,35.678Z" transform="translate(-204.357 -91.83)" fill="#414f50"/>
            <path id="Trazado_209729" data-name="Trazado 209729" d="M279.665,233.131a.026.026,0,0,1,0,.012.144.144,0,0,0,.005.039c.034.351.067.708.1,1.071a8.7,8.7,0,0,0,4.488-.411,14.419,14.419,0,0,0,6.507-5.536,26.807,26.807,0,0,0,1.834-3.069,26.182,26.182,0,0,0,1.283-2.89.541.541,0,1,0-1.02-.36,25.471,25.471,0,0,1-1.316,2.9,25.947,25.947,0,0,1-1.71,2.828,13.306,13.306,0,0,1-5.952,5.11,7.684,7.684,0,0,1-4.222.3" transform="translate(-202.637 -84.246)" fill="#414f50"/>
            <path id="Trazado_209730" data-name="Trazado 209730" d="M267.736,132.432q.116,1.725.293,3.449c.595,5.767,2.807,25.061,4.8,30.464a49.006,49.006,0,0,0,23.394,4.508c1.493-.065,2.972-.19,4.428-.369q1.934-.239,3.809-.6c8.146-1.575,15.274-4.855,19.695-9-2.09-8.1-4.532-22.776-5.446-29.074-.171-1.174-.323-2.316-.46-3.433q-.2-1.631-.358-3.184c-.119-1.18-.223-2.33-.307-3.444q-.136-1.8-.219-3.473-.087-1.794-.122-3.461c-.322-15.159,2.448-22.642,1.715-26.274-1.1-5.468-6.158-5.392-10.763-7.107-.269-.1-.537-.2-.8-.319-.18-.078-.356-.158-.531-.239a10.3,10.3,0,0,1-4.216-3.511l-13.524.026a18.972,18.972,0,0,1-3.059,1.9c-.182.1-.373.189-.574.284-.484.229-1.017.46-1.6.683A25.546,25.546,0,0,1,278.8,81.6c-6.062.977-9.54,7.426-10.179,17.884-.321,5.281-.665,10.257-.891,15.055-.015.319-.03.636-.043.953a150.792,150.792,0,0,0,.052,16.937" transform="translate(-198.304 -32.974)" fill="#fff"/>
            <path id="Trazado_209731" data-name="Trazado 209731" d="M318,147.736l-2.315,5.619h0l-1.039,2.524-2.937,7.133-1.429-2.749-.507-.975-1.147-2.2-.506-.975-1.149-2.2-.505-.975-1.147-2.2h0l-.507-.973-1.078-2.071.023-.225.163-1.647.374-3.73.164-1.648.373-3.73.164-1.646.373-3.73.164-1.646.372-3.732.164-1.646.373-3.73.164-1.646.373-3.73.164-1.648.373-3.728.164-1.648.373-3.73.164-1.646.18-1.8.2-2.059,2.85-.118.084.641.175,1.307.053.4.343,2.558.175,1.3.4,2.959.174,1.307.4,2.959.174,1.305.4,2.959.175,1.305.4,2.961.175,1.3.4,2.959.175,1.3.4,2.959.176,1.308.4,2.959.175,1.3.4,2.959.175,1.307.4,2.959.175,1.305.4,2.959.175,1.307Z" transform="translate(-211.191 -40.601)" fill="#e2534d"/>
            <path id="Trazado_209732" data-name="Trazado 209732" d="M314.333,101.17l-1.688,3L310.966,101l.2-2.059,2.85-.118.084.641.175,1.307Z" transform="translate(-213.762 -40.601)" fill="#ba4131"/>
            <path id="Trazado_209733" data-name="Trazado 209733" d="M267.736,134.027q.116,1.725.293,3.449c.595,5.767,2.807,25.061,4.8,30.464a49.006,49.006,0,0,0,23.394,4.508l4.116-6.509,4.121,5.536c8.146-1.575,15.274-4.855,19.695-9-.757-2.934-1.561-6.732-2.321-10.682-.182-.948-.363-1.906-.539-2.863-1.115-6.051-2.082-12.062-2.585-15.529-.171-1.174-.323-2.316-.46-3.433q-.2-1.631-.358-3.184c-.119-1.18-.223-2.33-.307-3.444q-.136-1.8-.219-3.473-.087-1.794-.122-3.461c-.322-15.159,2.448-22.642,1.715-26.274-1.1-5.468-6.158-5.392-10.763-7.107l-.23.114-10.047,44.467-13.778-45.7s-.089-.023-.253-.059A25.547,25.547,0,0,1,278.8,83.2c-6.062.977-9.54,7.426-10.179,17.884-.321,5.281-.665,10.257-.891,15.055-.015.319-.03.636-.043.953a150.792,150.792,0,0,0,.052,16.937" transform="translate(-198.304 -34.568)" fill="#78b1de"/>
            <path id="Trazado_209734" data-name="Trazado 209734" d="M277.294,189.907a.484.484,0,0,1-.452-.313c-6.616-17.606-6.51-51.131-6.508-51.468a.484.484,0,0,1,.483-.481h0a.483.483,0,0,1,.481.486c0,.335-.107,33.683,6.446,51.122a.483.483,0,0,1-.282.623.492.492,0,0,1-.17.031" transform="translate(-199.321 -54.399)" fill="#4e88af"/>
            <path id="Trazado_209735" data-name="Trazado 209735" d="M333.254,183.511a86.761,86.761,0,0,0,11.953,3.583c-.181-.948-.362-1.906-.539-2.863-5-1.226-10.793-3.061-10.793-3.061Z" transform="translate(-221.683 -69.868)" fill="#4e88af"/>
            <path id="Trazado_209736" data-name="Trazado 209736" d="M293.721,184.089s-9.842,5.912-14.348,7.6l1.371,2.4a102.4,102.4,0,0,0,14.126-7.867Z" transform="translate(-202.533 -70.905)" fill="#4e88af"/>
            <path id="Trazado_209737" data-name="Trazado 209737" d="M324.746,83.592a4.8,4.8,0,0,1,6.086,1.695l-2.254,14.57-5.095,3.028,3.455,2.062-3.864,16.938-8.374,6.175Z" transform="translate(-215.089 -35.02)" fill="#4e88af"/>
            <path id="Trazado_209738" data-name="Trazado 209738" d="M292.928,81.416s-3.715-2.361-6.284,1.167l3.176,16.448,5.106,3.008-3.447,2.076,3.929,16.923,9.32,6.14Z" transform="translate(-205.117 -34.14)" fill="#4e88af"/>
            <path id="Trazado_209739" data-name="Trazado 209739" d="M318,204.7a1.02,1.02,0,1,1-.931-1.1,1.02,1.02,0,0,1,.931,1.1" transform="translate(-215.537 -77.836)" fill="#4e88af"/>
            <path id="Trazado_209740" data-name="Trazado 209740" d="M317.328,192.971a1.02,1.02,0,1,1-.931-1.1,1.02,1.02,0,0,1,.931,1.1" transform="translate(-215.299 -73.669)" fill="#4e88af"/>
            <path id="Trazado_209741" data-name="Trazado 209741" d="M316.657,181.245a1.02,1.02,0,1,1-.931-1.1,1.02,1.02,0,0,1,.931,1.1" transform="translate(-215.06 -69.501)" fill="#4e88af"/>
            <path id="Trazado_209742" data-name="Trazado 209742" d="M315.987,169.52a1.02,1.02,0,1,1-.932-1.1,1.02,1.02,0,0,1,.932,1.1" transform="translate(-214.822 -65.334)" fill="#4e88af"/>
            <path id="Trazado_209743" data-name="Trazado 209743" d="M315.316,157.794a1.02,1.02,0,1,1-.931-1.1,1.02,1.02,0,0,1,.931,1.1" transform="translate(-214.584 -61.167)" fill="#4e88af"/>
            <path id="Trazado_209744" data-name="Trazado 209744" d="M344.011,129.762a.429.429,0,0,0,.718-.317c0-3.331.123-6.907.369-10.674.011-.171.02-.309.026-.409a.436.436,0,0,0-.87-.053c-.006.1-.015.235-.026.405-.247,3.78-.369,7.372-.37,10.72a.431.431,0,0,0,.143.319l.009.008" transform="translate(-225.452 -47.381)" fill="#4e88af"/>
            <path id="Trazado_209745" data-name="Trazado 209745" d="M296.684,41.14a10.548,10.548,0,0,1-3.825-5.687c-.645-3.062,1.934-3.062,1.934-3.062s-2.109-3.325-.846-5.811a4.526,4.526,0,0,1,4.742-2.514s-.85-4.946,7.022-4.544,12.555.7,13.832,4.1a3.163,3.163,0,0,1-1.937,4.4s3.18,1.933,1.626,3.942a3.345,3.345,0,0,1-3.5,1.417Z" transform="translate(-207.289 -12.409)" fill="#1b3431"/>
            <path id="Trazado_209746" data-name="Trazado 209746" d="M323.505,49.261s.976-3.673,3.961-2.987,3.558,10.483-2.063,10.441Z" transform="translate(-218.218 -21.895)" fill="#d37363"/>
            <path id="Trazado_209747" data-name="Trazado 209747" d="M301.487,71.462s-.7,1.238,4.777,2.752a11.752,11.752,0,0,0,8.132-.986,10.822,10.822,0,0,0,1.112-.735,15,15,0,0,1,.035-7.5c.032-.1.052-.148.052-.148l-14.271-7.1Z" transform="translate(-210.334 -26.004)" fill="#f49d8b"/>
            <path id="Trazado_209748" data-name="Trazado 209748" d="M304.465,66.437s3.432,9.427,11.047,9.877a10.886,10.886,0,0,0,1.113-.735,15,15,0,0,1,.035-7.5Z" transform="translate(-211.451 -29.091)" fill="#1b3431"/>
            <path id="Trazado_209749" data-name="Trazado 209749" d="M308.278,58.2c5.884,1.085,10.539-1.486,11.051-6.527.124-1.216.172-2.974.176-4.805,0-.019,0-.037,0-.056,0-.389,0-.783,0-1.175q0-.427-.008-.851c-.035-3.267-.16-6.227-.16-6.227-.928-8.1-8.991-11.045-15.394-7.9s-3.826,13-3.757,17.818a9.628,9.628,0,0,0,8.092,9.722" transform="translate(-209.728 -15.938)" fill="#f49d8b"/>
            <path id="Trazado_209750" data-name="Trazado 209750" d="M314.858,59.143s.832,2.689,3.031,3.126c2.5.5,3.066-2.636,3.066-2.636Z" transform="translate(-215.145 -26.499)" fill="#fff"/>
            <path id="Trazado_209751" data-name="Trazado 209751" d="M311.551,45.017c-1.663.353-2.136-1.426-.634-2.354a4.413,4.413,0,0,1,2.208-.792c2.194-.015,2.261,1.532,1.163,2.159a11.834,11.834,0,0,1-2.736.987" transform="translate(-213.422 -20.36)" fill="#1b3431"/>
            <path id="Trazado_209752" data-name="Trazado 209752" d="M325.045,43.751c1.694.148,1.946-1.676.344-2.414a4.411,4.411,0,0,0-2.288-.516c-2.179.251-2.058,1.795-.891,2.284a11.847,11.847,0,0,0,2.836.647" transform="translate(-217.464 -19.981)" fill="#1b3431"/>
            <path id="Trazado_209753" data-name="Trazado 209753" d="M327.919,55.423a6.413,6.413,0,0,0,.665-.085c0-.019,0-.037,0-.056,0-.389,0-.783,0-1.175q0-.427-.008-.851a6.649,6.649,0,0,0-.821.013c-1.477.112-2.636.685-2.592,1.28s1.279.987,2.756.875" transform="translate(-218.806 -24.404)" fill="#d37363"/>
            <path id="Trazado_209754" data-name="Trazado 209754" d="M326.179,51.922a3.657,3.657,0,1,1,2.883-4.293,3.66,3.66,0,0,1-2.883,4.293m-1.306-6.65a3.121,3.121,0,1,0,3.663,2.46,3.124,3.124,0,0,0-3.663-2.46" transform="translate(-217.618 -21.357)" fill="#fff"/>
            <path id="Trazado_209755" data-name="Trazado 209755" d="M321.045,53.218a.254.254,0,0,0,.129-.046c1.327-.913,1.58-1.395,1.617-1.482a.264.264,0,0,0-.023-.249l-1.921-2.89-.019-.025a4.968,4.968,0,0,1-.542-2.653.263.263,0,1,0-.526.024,5.281,5.281,0,0,0,.656,2.957l1.816,2.732a6.324,6.324,0,0,1-1.358,1.151.263.263,0,0,0,.17.48" transform="translate(-216.887 -21.693)" fill="#1b3431"/>
            <path id="Trazado_209756" data-name="Trazado 209756" d="M305.508,54.2c.044.595,1.278.986,2.756.874s2.638-.685,2.593-1.28-1.279-.986-2.756-.874-2.637.685-2.592,1.28" transform="translate(-211.821 -24.28)" fill="#d37363"/>
            <path id="Trazado_209757" data-name="Trazado 209757" d="M312.669,52.293A3.657,3.657,0,1,1,315.553,48a3.661,3.661,0,0,1-2.884,4.293m-1.306-6.65a3.121,3.121,0,1,0,3.663,2.461,3.124,3.124,0,0,0-3.663-2.461" transform="translate(-212.816 -21.489)" fill="#fff"/>
            <path id="Trazado_209758" data-name="Trazado 209758" d="M321.05,49.994h-.006a.268.268,0,0,1-.31-.219c-.005-.027-.132-.691-.635-.666-.56.027-.77.649-.773.656a.268.268,0,1,1-.509-.167,1.493,1.493,0,0,1,1.256-1.025,1.237,1.237,0,0,1,1.19,1.111.269.269,0,0,1-.213.309" transform="translate(-216.547 -22.742)" fill="#fff"/>
            <path id="Trazado_209759" data-name="Trazado 209759" d="M306.2,48.773a.268.268,0,0,1-.286-.133,3.177,3.177,0,0,0-4.262-1.269.268.268,0,0,1-.237-.482c.032-.015,3.269-1.567,4.968,1.49a.268.268,0,0,1-.1.364.258.258,0,0,1-.079.029" transform="translate(-210.313 -21.999)" fill="#fff"/>
            <path id="Trazado_209760" data-name="Trazado 209760" d="M319.12,38.228h0a9.788,9.788,0,0,0-2.388-7.936c-4.06-4.669-12.345-4.409-15.649.34S299.4,39.51,299.4,39.51s1.333.483,1.981,3.089l1.762-.073a12.87,12.87,0,0,0-.032-5.734c-.7-3.553,5.574-7.107,9.832-6.3a7.69,7.69,0,0,1,5.612,4.675,13.2,13.2,0,0,1,.563,3.064" transform="translate(-209.51 -15.049)" fill="#1b3431"/>
            <path id="Trazado_209761" data-name="Trazado 209761" d="M308.9,33.934s2.964-1.161,4.4-.6,3.508,1.3,5.07.176,3.357,2.21,3.357,2.21-1.987-5.942-6.892-4.706-4.885.772-5.932,2.916" transform="translate(-213.029 -16.443)" fill="#1b3431"/>
            <path id="Trazado_209762" data-name="Trazado 209762" d="M319.558,65.246a1.513,1.513,0,0,0,.191-.063.263.263,0,0,0-.2-.487,1.689,1.689,0,0,1-1.655-.264.263.263,0,1,0-.342.4,2.174,2.174,0,0,0,2.006.414" transform="translate(-216.069 -28.356)" fill="#d37363"/>
            <path id="Trazado_209763" data-name="Trazado 209763" d="M299.052,47.743s-1.7-2.7-4.457-1.354S293.5,57.4,298.962,56.1Z" transform="translate(-207.478 -21.833)" fill="#f49d8b"/>
            <path id="Trazado_209764" data-name="Trazado 209764" d="M298.406,54.336a.245.245,0,0,0,.056-.01.264.264,0,0,0,.177-.328c-.036-.119-.9-2.911-3.46-3.3a.263.263,0,0,0-.079.521c2.232.34,3.027,2.906,3.035,2.932a.264.264,0,0,0,.272.187" transform="translate(-208.043 -23.496)" fill="#1b3431"/>
            <path id="Trazado_209765" data-name="Trazado 209765" d="M296.517,54.1a.263.263,0,0,0,.177-.088c.005-.005.5-.563,1.089-1.12a.263.263,0,1,0-.361-.384c-.609.574-1.1,1.131-1.123,1.154a.263.263,0,0,0,.217.437" transform="translate(-208.526 -24.115)" fill="#1b3431"/>
            <path id="Trazado_209766" data-name="Trazado 209766" d="M313.466,50.044c.006.585.283,1.057.618,1.053s.6-.482.594-1.067-.283-1.056-.618-1.053-.6.482-.594,1.067" transform="translate(-214.65 -22.886)" fill="#1b3431"/>
            <path id="Trazado_209767" data-name="Trazado 209767" d="M324.051,50.074c.006.585.283,1.057.618,1.053s.6-.482.594-1.067-.283-1.056-.618-1.053-.6.482-.594,1.067" transform="translate(-218.412 -22.896)" fill="#1b3431"/>
            <path id="Trazado_209768" data-name="Trazado 209768" d="M299.525,73.749s-2.038.618-3.133,5.217c1.419,4.181,5.411,7.692,11.013,8.718l-.015-8.224a14.489,14.489,0,0,1-7.865-5.712" transform="translate(-208.582 -31.69)" fill="#fff"/>
            <path id="Trazado_209769" data-name="Trazado 209769" d="M319.532,75.551s3.367.763,4.771,5.351c-3.608,4.408-5.537,6.068-10.834,7.423l-.015-8.224s3.176-.053,6.079-4.55" transform="translate(-214.645 -32.33)" fill="#fff"/>
            <path id="Trazado_209770" data-name="Trazado 209770" d="M307.576,90.91l3.813,5.644,3.632-5.658-3.652-4.713Z" transform="translate(-212.557 -36.109)" fill="#e2534d"/>
            <path id="Trazado_209771" data-name="Trazado 209771" d="M316.718,96.438a.428.428,0,0,0,.263-.09.435.435,0,0,0,.082-.61l-7.682-10.06a.437.437,0,0,0-.333-.171.441.441,0,0,0-.342.15l-7.59,8.718a.436.436,0,1,0,.657.572l7.239-8.315,7.358,9.635a.435.435,0,0,0,.347.171" transform="translate(-210.223 -35.868)" fill="#e9cec2"/>
            <path id="Trazado_209772" data-name="Trazado 209772" d="M313.211,85.322h0a.436.436,0,0,0,.432-.44l-.017-1.917a.435.435,0,0,0-.436-.432h0a.436.436,0,0,0-.432.44l.017,1.917a.435.435,0,0,0,.436.432" transform="translate(-214.398 -34.812)" fill="#e9cec2"/>
            <path id="Trazado_209773" data-name="Trazado 209773" d="M275.827,211.978c.955-.262,2.354.737,3.617,1.071a15.371,15.371,0,0,1,5.19,2.629c.7.615,4.207,4.613,5.787,6.355a.994.994,0,0,1-.039,1.4c-.519.467-1.606.459-3.705-1.478-.1-.08-.743-.639-.809-.693a4.586,4.586,0,0,0-1.864-.92s1.169,1.051,3.167,2.952c-2.181,3.793-5.729,7.405-10.454,6.461a30.317,30.317,0,0,1-1.862-3.5c-.895-1.622-3.665-5.8-4.46-8.086-.54-1.555,2.407-5.355,5.431-6.187" transform="translate(-199.32 -80.801)" fill="#f49d8b"/>
            <path id="Trazado_209774" data-name="Trazado 209774" d="M260.9,89.292l-.432.347-.34.282-.639.541c-.415.357-.815.712-1.208,1.067-.783.714-1.537,1.434-2.276,2.164-1.479,1.458-2.89,2.957-4.256,4.5a88.552,88.552,0,0,0-7.5,9.829,80,80,0,0,0-6.043,10.948c-.858,1.921-1.646,3.881-2.339,5.886-.352,1-.673,2.013-.979,3.032-.148.511-.3,1.021-.436,1.537l-.1.385L234.3,130l-.1.4a13.074,13.074,0,0,0-.317,1.882,14.836,14.836,0,0,0-.068,1.578c0,.489.03.933.067,1.359a21.2,21.2,0,0,0,.336,2.288,30.618,30.618,0,0,0,1.01,3.69c.376,1.116.78,2.152,1.2,3.151s.854,1.956,1.3,2.891c.9,1.867,1.832,3.643,2.794,5.376s1.955,3.417,2.966,5.075c2.021,3.316,4.129,6.519,6.293,9.668q1.632,2.355,3.3,4.673.837,1.159,1.688,2.313l.863,1.15.893,1.176,11.645-8.208-.7-1.115-.71-1.152-1.421-2.315q-1.413-2.324-2.779-4.673c-1.83-3.121-3.6-6.263-5.264-9.4-.83-1.57-1.628-3.144-2.389-4.7s-1.471-3.119-2.1-4.642a41.348,41.348,0,0,1-1.557-4.337,13.252,13.252,0,0,1-.38-1.707,3.11,3.11,0,0,1-.034-.473c0-.038.008-.059.014-.034a.824.824,0,0,1,0,.187,3.176,3.176,0,0,1-.077.509l-.022.088-.006.022c0,.005,0-.008,0-.012l.012-.035.045-.141.092-.284c.117-.378.25-.753.377-1.129.265-.75.539-1.5.84-2.238.59-1.484,1.263-2.945,1.985-4.389a66.242,66.242,0,0,1,5.039-8.378c.944-1.348,1.945-2.664,2.984-3.955s2.121-2.549,3.242-3.773,2.268-2.421,3.451-3.558c.59-.569,1.189-1.124,1.784-1.656.3-.268.592-.529.881-.779l.424-.36.307-.253Z" transform="translate(-186.341 -37.214)" fill="#78b1de"/>
            <path id="Trazado_209775" data-name="Trazado 209775" d="M255.7,158.711a.436.436,0,0,0,.095-.861,44.8,44.8,0,0,0-6.773-.968.436.436,0,1,0-.036.871,44.986,44.986,0,0,1,6.617.946.422.422,0,0,0,.1.011" transform="translate(-191.584 -61.236)" fill="#4e88af"/>
            <path id="Trazado_209776" data-name="Trazado 209776" d="M257.029,157.837a.436.436,0,0,0,.264-.783c-1.465-1.116-3.52-2.363-3.607-2.416a.436.436,0,0,0-.451.746c.021.013,2.1,1.276,3.53,2.364a.435.435,0,0,0,.264.089" transform="translate(-193.169 -60.416)" fill="#4e88af"/>
            <path id="Trazado_209777" data-name="Trazado 209777" d="M267.639,134.424a.434.434,0,0,0,.366-.2c.078-.121,7.838-12.156,12.857-16.489a.436.436,0,1,0-.57-.659c-5.115,4.416-12.7,16.179-13.02,16.678a.436.436,0,0,0,.367.672" transform="translate(-198.208 -47.05)" fill="#4e88af"/>
            <path id="Trazado_209778" data-name="Trazado 209778" d="M283.578,121.652a.46.46,0,0,0,.066-.005l3.735-.57a.436.436,0,0,0-.131-.862l-3.736.572a.436.436,0,0,0,.066.866" transform="translate(-203.873 -48.202)" fill="#4e88af"/>
            <path id="Trazado_209779" data-name="Trazado 209779" d="M262.766,211.447a.431.431,0,0,0,.246-.077l11.54-7.952a.436.436,0,0,0-.494-.718l-11.54,7.952a.436.436,0,0,0,.249.795" transform="translate(-196.476 -77.492)" fill="#4e88af"/>
            <path id="Trazado_209780" data-name="Trazado 209780" d="M271.593,217.958a.436.436,0,0,0,.362-.677l-3.563-5.364a.436.436,0,1,0-.726.482l3.563,5.364a.436.436,0,0,0,.364.195" transform="translate(-198.347 -80.726)" fill="#4e88af"/>
            <path id="Trazado_209781" data-name="Trazado 209781" d="M275.71,213.634a1.02,1.02,0,1,1-.44-1.374,1.021,1.021,0,0,1,.44,1.374" transform="translate(-200.547 -80.877)" fill="#4e88af"/>
          </g>
        </g>
        <g id="Grupo_983676" data-name="Grupo 983676">
          <g id="Grupo_983675" data-name="Grupo 983675" clip-path="url(#clip-path)">
            <path id="Trazado_209782" data-name="Trazado 209782" d="M134.167,250.31c-12.766-.617-24.2-4.681-31.592-3.278s-7.272-17.7.144-23.388c5.518-4.232-2.62-12.669-2.554-19.483a13.154,13.154,0,0,1,3.425-12.907c5.636-5.52,11.418-5.742,17.235-2.882,3.821,1.368,7.531,5.078,8.67,14.454,1.963,16.146,8.476,13.679,18.335,27.011,5.762,7.792-.9,21.089-13.664,20.472" transform="translate(-34.507 -66.305)" fill="#1b3431"/>
            <path id="Trazado_209783" data-name="Trazado 209783" d="M89.556,250.232l-1.822,2.553-1.794,2.547q-1.786,2.553-3.545,5.128c-2.345,3.438-4.657,6.9-6.906,10.475-1.124,1.789-2.232,3.6-3.313,5.5-.54.953-1.073,1.92-1.6,2.959-.263.517-.523,1.06-.783,1.637A20.8,20.8,0,0,0,69.021,283l-.024.07-.024.079-.049.16-.095.319-.1.376c-.03.124-.064.263-.08.346-.04.191-.079.4-.116.622s-.072.472-.1.77a8.652,8.652,0,0,0-.035,1.128l.01.2.007.1.01.115c.007.079.014.149.025.234s.025.181.04.27a6.391,6.391,0,0,0,.456,1.531,6.012,6.012,0,0,0,.273.543q.085.149.177.293c.028.045.066.1.105.157l.117.164c.081.11.16.21.252.319s.2.229.311.338c.054.054.108.108.164.16s.123.112.186.166c.128.109.26.213.4.312a5.983,5.983,0,0,0,.9.533c.157.075.316.144.478.2s.311.109.471.155c.079.023.157.043.237.063s.159.037.228.05q.217.043.436.07c.07.008.153.018.212.023l.192.013q.192.011.385.01c.116,0,.22-.006.331-.013l.164-.012.154-.016c.092-.011.183-.023.274-.038s.19-.033.258-.048.151-.033.227-.051.155-.039.212-.056c.122-.035.257-.077.366-.115a6.768,6.768,0,0,0,.991-.436c.131-.07.231-.129.339-.193l.141-.088.132-.085.123-.083.11-.077c.076-.053.137-.1.2-.149.255-.192.451-.359.631-.517.354-.313.628-.586.881-.847.5-.52.906-.991,1.294-1.456.769-.925,1.445-1.813,2.1-2.7.327-.445.647-.89.963-1.336l.471-.673.482-.7a5.612,5.612,0,0,0-9.234-6.379l-.063.09-.393.565-.418.587c-.28.391-.563.779-.848,1.16-.567.76-1.145,1.5-1.7,2.154-.273.322-.543.625-.759.845-.105.108-.2.195-.231.22-.014.012-.014.01.035-.028l.048-.036.074-.051.051-.034.06-.037c.052-.032.1-.057.171-.1a4.414,4.414,0,0,1,.641-.279c.079-.027.182-.061.274-.086l.166-.044q.09-.022.18-.041c.054-.01.139-.027.211-.039s.151-.023.227-.031l.13-.014.139-.011c.095-.006.183-.009.284-.01s.224,0,.336.007l.168.012.189.02c.13.015.26.037.388.063l.2.044c.072.017.142.036.213.056.145.041.275.085.425.141s.293.117.434.186a5.347,5.347,0,0,1,.815.485c.123.088.242.182.358.281.056.049.115.1.167.15s.1.094.148.143c.1.1.189.2.277.3s.151.184.223.28c.035.048.069.1.1.144l.092.137q.079.124.152.251c.1.186.163.307.229.458a4.807,4.807,0,0,1,.351,1.16c.01.058.019.116.026.175l.015.139.01.119.005.1a2.928,2.928,0,0,1-.005.358c0,.042,0,.034,0,.006s.014-.075.027-.135c.008-.043.009-.029.009-.029l0,0c.006-.017.012-.033.016-.05l.007-.025,0-.013.008-.021c.068-.2.2-.539.364-.9s.347-.744.551-1.144c.4-.795.864-1.628,1.339-2.462.957-1.673,2-3.369,3.066-5.059,2.141-3.382,4.4-6.754,6.695-10.1q1.724-2.513,3.481-5.01l1.762-2.491,1.766-2.464.038-.053a5.7,5.7,0,0,0-9.259-6.638Z" transform="translate(-24.309 -88.085)" fill="#f49d8b"/>
            <path id="Trazado_209784" data-name="Trazado 209784" d="M99.382,300.11a4.693,4.693,0,0,0,.2,3.133c.608.911,5.518,1.863,11.716,2.464.387.037.78.075,1.175.11,1.307.113,2.66.212,4.033.291.32.019.641.036.962.052,10.464.532,21.745-.081,22.415-3.309,1.292-6.225-2.409-15.633-1.556-25.334.344-3.915,3.615-11.626,3.915-16.476.457-7.384.586-14.3-.454-16.052-.73-1.225-3.886-2.3-7.29-3.135-1.052-.258-2.129-.494-3.164-.7-3.532-.717-6.586-1.129-6.586-1.129a96.874,96.874,0,0,0-15.258,2.048,21.623,21.623,0,0,0-3.019.977c-.13.055-.253.111-.375.167-.424.2-.819.385-1.189.563-5.88,2.841-5.075,3.378-4.624,6.867.663,5.134,1.2,4.824-.153,9.288-.11.362-.232.754-.368,1.184-.335,1.059-.752,2.343-1.265,3.931a14.493,14.493,0,0,0-.726,3.416q-.019.276-.021.532c-.033,5.326,5.376,4.89,5.376,11.607a48.817,48.817,0,0,1-1.892,11.986c-.046.176-.092.35-.137.523-.552,2.1-1.1,4.016-1.452,5.631-.106.484-.2.942-.265,1.368" transform="translate(-34.742 -85.304)" fill="#5a918e"/>
            <path id="Trazado_209785" data-name="Trazado 209785" d="M146.17,259.528c.088,1.992,2.137,2.838,3.729,3.2q-.135-.3-.255-.62c-1.358-.362-2.874-1.1-2.941-2.6a2.981,2.981,0,0,1,1.98-2.839c0-.191.007-.382.016-.574a3.6,3.6,0,0,0-2.529,3.438" transform="translate(-51.948 -91.015)" fill="#285b5c"/>
            <path id="Trazado_209786" data-name="Trazado 209786" d="M140.609,248.077a5.2,5.2,0,0,0,3.14-1.052,2.4,2.4,0,0,0,1.018-1.738c.2-2-1.822-4.287-1.908-4.383a.266.266,0,1,0-.4.355c.019.022,1.956,2.212,1.775,3.974a1.862,1.862,0,0,1-.8,1.363,4.837,4.837,0,0,1-4.876.51.267.267,0,0,0-.24.476,5.468,5.468,0,0,0,2.293.5" transform="translate(-49.106 -85.586)" fill="#285b5c"/>
            <path id="Trazado_209787" data-name="Trazado 209787" d="M116.175,251.22a14.92,14.92,0,0,0,1.844-.113.266.266,0,0,0-.073-.528c-.037.005-3.767.5-5.217-.682a1.368,1.368,0,0,1-.537-1.01c-.182-2.539,3.186-4.454,3.219-4.473a.266.266,0,1,0-.26-.465c-.151.084-3.7,2.1-3.492,4.976a1.905,1.905,0,0,0,.733,1.387,6.428,6.428,0,0,0,3.782.909" transform="translate(-39.681 -86.688)" fill="#285b5c"/>
            <path id="Trazado_209788" data-name="Trazado 209788" d="M157.421,307.722l.03,0a.266.266,0,0,0,.235-.294c-.013-.116-1.285-11.655-1.4-18.2-.113-6.519,2.89-18.283,2.92-18.4a.267.267,0,1,0-.516-.133c-.03.119-3.052,11.953-2.936,18.543.114,6.567,1.39,18.131,1.4,18.247a.266.266,0,0,0,.264.237" transform="translate(-55.354 -96.135)" fill="#285b5c"/>
            <path id="Trazado_209789" data-name="Trazado 209789" d="M114.485,316.274a26.511,26.511,0,0,0,13.328-4.027,38.684,38.684,0,0,0,8.113-6.47.267.267,0,0,0-.4-.356,38.1,38.1,0,0,1-8,6.377c-4.447,2.649-11.291,5.34-18.644,3.122a.267.267,0,0,0-.154.511,19.847,19.847,0,0,0,5.755.845" transform="translate(-38.576 -108.516)" fill="#285b5c"/>
            <path id="Trazado_209790" data-name="Trazado 209790" d="M118.559,327.323a19.938,19.938,0,0,0,6.071-1.031,26.011,26.011,0,0,0,5.525-2.54.266.266,0,1,0-.291-.447c-.089.058-8.978,5.743-16.42,2.467a.266.266,0,1,0-.215.487,13.139,13.139,0,0,0,5.329,1.064" transform="translate(-40.186 -114.889)" fill="#285b5c"/>
            <path id="Trazado_209791" data-name="Trazado 209791" d="M118.416,263.6a15.613,15.613,0,0,0,7.547-2.092,22.344,22.344,0,0,0,5.866-4.755.267.267,0,0,0-.412-.339,22.2,22.2,0,0,1-5.729,4.637c-4.644,2.583-9.21,2.713-13.573.385a.266.266,0,0,0-.251.47,13.752,13.752,0,0,0,6.55,1.7" transform="translate(-39.707 -91.096)" fill="#285b5c"/>
            <path id="Trazado_209792" data-name="Trazado 209792" d="M160.838,262.051c.457-7.384.586-14.3-.454-16.052-.73-1.225-3.886-2.3-7.289-3.135-7.426,10.227.227,24.261,7.744,19.188" transform="translate(-53.334 -86.314)" fill="#f49d8b"/>
            <path id="Trazado_209793" data-name="Trazado 209793" d="M101.36,262c4-4.486,4.706-12.143,4.778-16.155-5.879,2.841-5.075,3.378-4.624,6.867.663,5.134,1.2,4.824-.153,9.288" transform="translate(-35.967 -87.375)" fill="#f49d8b"/>
            <path id="Trazado_209794" data-name="Trazado 209794" d="M115.968,241.567c.681,3.646,1.276,10.494,7.016,10.494,5.589,0,12.929-9.073,14.828-11.413a47.307,47.307,0,0,1-6.9-2.038s-8.772,1.383-14.947,2.957" transform="translate(-41.215 -84.803)" fill="#f49d8b"/>
            <path id="Trazado_209795" data-name="Trazado 209795" d="M103.231,261.983a4.13,4.13,0,0,1,1.636,2.272,2.844,2.844,0,0,1-.944,2.5c-.783.828-1.488,1.49-2.055,2.021-1.88,1.763-2.738,2.567-1.46,4.886a1.316,1.316,0,0,1,.046,1.4,2.907,2.907,0,0,1-2.544,1.029l-.136-.007c-.014.184-.02.362-.021.532.046,0,.093.006.14.006s.109,0,.162,0a3.314,3.314,0,0,0,2.854-1.285,1.823,1.823,0,0,0-.033-1.933c-1.078-1.954-.514-2.484,1.356-4.238.573-.536,1.284-1.2,2.077-2.045a3.341,3.341,0,0,0,1.082-2.963,4.794,4.794,0,0,0-1.981-2.707Z" transform="translate(-34.742 -92.918)" fill="#285b5c"/>
            <path id="Trazado_209796" data-name="Trazado 209796" d="M142.673,277.839a7.111,7.111,0,0,1-3.806-1.13,5.032,5.032,0,0,0-4.049-.74c-.08.015-.159.028-.238.039a3.989,3.989,0,0,1-4.637-3.343,3.812,3.812,0,0,1,3.094-4.572,4.314,4.314,0,0,1,3.828,1.151c2.92,2.546,4.118,2.361,5.634,2.128a9.233,9.233,0,0,1,1.818-.149c1.193.039,2,1.191,1.958,2.8a3.638,3.638,0,0,1-3.532,3.818h-.068m-.093-5.941c-1.588.244-2.958.455-6.066-2.253a3.8,3.8,0,0,0-3.369-1.03,3.262,3.262,0,0,0-2.677,3.956,3.434,3.434,0,0,0,4.033,2.91c.073-.011.147-.023.221-.037a5.537,5.537,0,0,1,4.409.8,6.568,6.568,0,0,0,3.552,1.06h.057a3.125,3.125,0,0,0,3-3.3c.028-1.1-.408-2.217-1.443-2.252-.07,0-.14,0-.208,0a9.528,9.528,0,0,0-1.51.146" transform="translate(-46.158 -95.25)" fill="#285b5c"/>
            <path id="Trazado_209797" data-name="Trazado 209797" d="M103.592,287.606a5.151,5.151,0,0,1-1.793-4.483.267.267,0,0,1,.175-.211c.025-.008,2.523-.92,2.965-4.577a5.169,5.169,0,0,1,4.027-4.255,4.074,4.074,0,0,1,4.534,1.608c2.055,3.1,2.78,3.547,8.621,5.288,2.565.765,4.073,2.712,3.933,5.082-.142,2.422-2.157,5.192-6.34,5.919a16.584,16.584,0,0,1-2.83.23c-4.9,0-10.488-1.849-13.293-4.6m5.5-13.007a4.633,4.633,0,0,0-3.62,3.8c-.421,3.486-2.558,4.682-3.162,4.953a4.646,4.646,0,0,0,1.659,3.873c3.2,3.146,10.522,5.121,15.659,4.227,3.894-.677,5.768-3.213,5.9-5.426a4.479,4.479,0,0,0-3.554-4.539c-5.738-1.711-6.708-2.176-8.913-5.5a3.381,3.381,0,0,0-2.908-1.512,4.609,4.609,0,0,0-1.059.128" transform="translate(-36.162 -97.358)" fill="#285b5c"/>
            <path id="Trazado_209798" data-name="Trazado 209798" d="M111.652,306.395a.268.268,0,0,1,.168-.26c.337-.134,8.283-3.279,10.841-2.385a.268.268,0,0,1,.178.232c.014.188.317,4.635-1.849,7.045a4.461,4.461,0,0,1-3.3,1.485c-.083,0-.164,0-.245,0-5.454,0-5.789-6.059-5.792-6.121m.548.164a8.051,8.051,0,0,0,.777,2.7,4.707,4.707,0,0,0,4.694,2.719,3.946,3.946,0,0,0,2.922-1.307c1.778-1.978,1.755-5.616,1.723-6.469-2.338-.582-8.931,1.9-10.116,2.356" transform="translate(-39.681 -107.897)" fill="#285b5c"/>
            <path id="Trazado_209799" data-name="Trazado 209799" d="M141.684,327.1c-1.634-.115-2.675-.827-2.856-1.954-.22-1.374.92-2.863,2.774-3.621,1.752-.716,1.76-2.045,1.769-3.451a3.747,3.747,0,0,1,.748-2.8,3.369,3.369,0,0,1,3.9-.463,2.4,2.4,0,0,1,.989,2.948c-.811,2.757,1.029,3.733,1.108,3.773a.267.267,0,0,1,.083.411c-.184.216-4.44,5.166-8.219,5.166-.1,0-.2,0-.293-.01m6.81-9.49a1.875,1.875,0,0,0-.75-2.34,2.808,2.808,0,0,0-3.247.383,3.321,3.321,0,0,0-.592,2.424c-.009,1.448-.02,3.09-2.1,3.941-1.81.74-2.6,2.091-2.449,3.043.139.862,1,1.412,2.367,1.507,3.15.222,6.961-3.745,7.869-4.744a3.62,3.62,0,0,1-1.1-4.214" transform="translate(-49.33 -111.736)" fill="#285b5c"/>
            <path id="Trazado_209800" data-name="Trazado 209800" d="M100.281,329.092a5.47,5.47,0,0,0,.792,1.677,2.392,2.392,0,0,0,1.871,1.122,1.75,1.75,0,0,0,.271-.021c1.043-.167,1.945-1.274,2.542-3.115.748-2.313.653-4.133-.281-5.407a4.908,4.908,0,0,0-3.339-1.778c-.046.176-.092.35-.137.523a4.459,4.459,0,0,1,3.049,1.572c.826,1.129.893,2.786.2,4.925-.532,1.642-1.285,2.62-2.119,2.754a1.744,1.744,0,0,1-1.626-.888,5.785,5.785,0,0,1-.957-2.732c-.106.484-.2.942-.265,1.368" transform="translate(-35.64 -114.287)" fill="#285b5c"/>
            <path id="Trazado_209801" data-name="Trazado 209801" d="M116.322,337.382a.1.1,0,0,0,.014.016,8.676,8.676,0,0,0,1.338,1.2c.386.037.779.075,1.175.109a8.612,8.612,0,0,1-2.1-1.648,2.558,2.558,0,0,1-.409-2.2c.354-.844,1.455-1.4,3.271-1.662,4.824-.688,5.969,2.261,6.144,2.83A7.052,7.052,0,0,1,122.881,339q.48.028.962.052a8.624,8.624,0,0,0,2.424-2.852.265.265,0,0,0,.029-.189c-.009-.041-.974-4.161-6.766-3.338-2.016.287-3.256.955-3.688,1.987a3.068,3.068,0,0,0,.48,2.725" transform="translate(-41.112 -118.194)" fill="#285b5c"/>
            <path id="Trazado_209802" data-name="Trazado 209802" d="M93.8,336.464a174.372,174.372,0,0,0-2.079-17.913,96.609,96.609,0,0,1,11.453,5.435h0c2.157,1.3,4.1,2.452,5.518,3.25a12.33,12.33,0,0,0,7.649.963,37.3,37.3,0,0,0,10.358-3.336s17.024-7.716,20.216-7.459c2.482.2-10.873,14.144-21.92,19.853a20.058,20.058,0,0,1-5.467,2.45c-10.81,3.44-20.965.336-25.694-1.61q-.009-.817-.038-1.634" transform="translate(-32.599 -112.804)" fill="#d76751"/>
            <path id="Trazado_209803" data-name="Trazado 209803" d="M41.373,386.765l-1.443,9.129-8.545.6.891-11.219Z" transform="translate(-11.154 -136.926)" fill="#f49d8b"/>
            <path id="Trazado_209804" data-name="Trazado 209804" d="M.3,414.215l30.56-.027a4.284,4.284,0,0,0,.4-1.7c.188-2.585-.639-6.71-1.046-9.311-.049-.3-.092-.588-.124-.844A8.886,8.886,0,0,1,30,401.274a1.559,1.559,0,0,0-1.881-1.758c-3.09,3.035-6.6-1.51-8.639-.016,0,0-.88.632-3.3,2.818s-6.549,3.629-10.061,5.1c-4.533,1.9-5.817,3.795-6.068,5.1a2.387,2.387,0,0,0,.253,1.7" transform="translate(0 -141.873)" fill="#f5bf69"/>
            <path id="Trazado_209805" data-name="Trazado 209805" d="M.3,421.549l30.56-.027a4.283,4.283,0,0,0,.4-1.7l-31.214.028a2.387,2.387,0,0,0,.253,1.7" transform="translate(0 -149.207)" fill="#ed9033"/>
            <path id="Trazado_209806" data-name="Trazado 209806" d="M27.946,401.138s-.547-1.334-1.759-.908-1.089,2.427-1.089,2.427.729,1.818,2.848-1.519" transform="translate(-8.918 -142.213)" fill="#fff"/>
            <path id="Trazado_209807" data-name="Trazado 209807" d="M28.834,408.046a.5.5,0,0,0,.5-.5,6.429,6.429,0,0,0-1.983-4.745.5.5,0,0,0-.652.768,5.414,5.414,0,0,1,1.628,3.978.5.5,0,0,0,.5.5" transform="translate(-9.427 -143.113)" fill="#fff"/>
            <path id="Trazado_209808" data-name="Trazado 209808" d="M19.971,403.9a.5.5,0,0,0,.334-.127c.639-.568,2.517-.676,3.55-.61a.5.5,0,0,0,.064-1.006c-.316-.02-3.124-.166-4.283.862a.5.5,0,0,0,.335.88" transform="translate(-6.919 -142.923)" fill="#fff"/>
            <path id="Trazado_209809" data-name="Trazado 209809" d="M26.971,400.581l.258.259-.028,0-.007.031-.208,1.038c.007,0,.044.01.115.02a7.325,7.325,0,0,0,.969.052h.2a19.136,19.136,0,0,0,2.234-.188,4.922,4.922,0,0,0,2.406-.935,2.249,2.249,0,0,0,.737-.99c.012-.031.021-.064.03-.1a1.557,1.557,0,0,0-.4-1.537,2.14,2.14,0,0,0-1.58-.671.278.278,0,0,0-.04,0,4.379,4.379,0,0,0-1.823.483,11,11,0,0,0-2.054,1.33c-.054.043-.106.084-.157.126-.257.211-.473.4-.632.55-.142.131-.24.226-.284.271Zm1.095.3c-.139,0-.26,0-.364-.007.213-.2.492-.438.807-.686v0a12,12,0,0,1,1.278-.884,5.629,5.629,0,0,1,1.162-.534,2.406,2.406,0,0,1,.712-.123h.025a1.059,1.059,0,0,1,.8.334.479.479,0,0,1,.153.422.637.637,0,0,1-.025.1c-.163.468-.927,1.022-2.261,1.205-.224.03-.434.056-.63.077a15.77,15.77,0,0,1-1.661.1" transform="translate(-9.492 -141.293)" fill="#fff"/>
            <path id="Trazado_209810" data-name="Trazado 209810" d="M24.445,400.72l.466-.987A3.371,3.371,0,0,1,23,397.251c.015-.183.093-.411.566-.547a.6.6,0,0,1,.6.067c.527.407.693,1.785.674,2.558l1.091.028c.007-.26.034-2.573-1.1-3.449a1.888,1.888,0,0,0-2.919,1.255c-.108,1.341,1.245,2.951,2.528,3.556" transform="translate(-7.787 -140.587)" fill="#fff"/>
            <path id="Trazado_209811" data-name="Trazado 209811" d="M42.229,415.925h.908a6.707,6.707,0,0,1-1.647-4.892,8.621,8.621,0,0,1,3.213-6.119c-.05-.3-.092-.587-.124-.844A9.365,9.365,0,0,0,40.761,411a7.415,7.415,0,0,0,1.467,4.929" transform="translate(-14.483 -143.608)" fill="#ed9033"/>
            <path id="Trazado_209812" data-name="Trazado 209812" d="M24.573,406.022a.5.5,0,0,0,.12-.993l-1.909-.472a.5.5,0,1,0-.242.977l1.909.473a.527.527,0,0,0,.122.015" transform="translate(-7.875 -143.776)" fill="#fff"/>
            <path id="Trazado_209813" data-name="Trazado 209813" d="M21.613,407.746a.5.5,0,0,0,.12-.993l-1.909-.472a.5.5,0,1,0-.242.978l1.909.473a.529.529,0,0,0,.122.015" transform="translate(-6.823 -144.388)" fill="#fff"/>
            <path id="Trazado_209814" data-name="Trazado 209814" d="M18.653,409.4a.5.5,0,0,0,.12-.993l-1.909-.473a.5.5,0,1,0-.242.978l1.909.472a.5.5,0,0,0,.122.015" transform="translate(-5.771 -144.978)" fill="#fff"/>
            <path id="Trazado_209815" data-name="Trazado 209815" d="M15.425,410.937a.5.5,0,0,0,.12-.993l-1.909-.472a.5.5,0,1,0-.242.977l1.909.472a.5.5,0,0,0,.122.015" transform="translate(-4.624 -145.523)" fill="#fff"/>
            <path id="Trazado_209816" data-name="Trazado 209816" d="M11.924,412.245a.5.5,0,0,0,.12-.993l-1.909-.472a.5.5,0,1,0-.242.977l1.909.473a.533.533,0,0,0,.122.015" transform="translate(-3.38 -145.987)" fill="#fff"/>
            <path id="Trazado_209817" data-name="Trazado 209817" d="M84.667,320.574c-10.328-5.464-28.472-16.368-36.115-17.916-13.328-2.7-17.665,56.788-17.665,56.788L41.58,360.49s10-25.641,10.8-35.528c0,0,13.914,13.372,42.1,13.932Z" transform="translate(-10.977 -107.534)" fill="#d76751"/>
            <path id="Trazado_209818" data-name="Trazado 209818" d="M42.579,387.469a5.574,5.574,0,0,1-1.546,3.249l-11.089-1.1s-.248-2.525.313-3.548Z" transform="translate(-10.623 -137.211)" fill="#ba4131"/>
            <path id="Trazado_209819" data-name="Trazado 209819" d="M45.677,366.5a.311.311,0,0,0,.3-.221c.027-.088,2.7-8.861,5.212-16.587,2.219-6.819,4.558-19.428,5.106-22.46a39.423,39.423,0,0,0,10.393,8.509,66.237,66.237,0,0,0,12.274,5.483A82.744,82.744,0,0,0,93.2,344.69a.312.312,0,0,0,.079-.618,82.192,82.192,0,0,1-14.131-3.44c-7.092-2.395-16.805-6.821-22.8-14.314a.312.312,0,0,0-.55.141c-.026.152-2.7,15.335-5.2,23.042-2.515,7.731-5.189,16.511-5.216,16.6a.312.312,0,0,0,.208.389.316.316,0,0,0,.091.014" transform="translate(-16.123 -115.933)" fill="#ba4131"/>
            <path id="Trazado_209820" data-name="Trazado 209820" d="M121.3,237.291c5.893,7.934,12.986-1.551,12.889-3.667a36.555,36.555,0,0,1-3.13-10.99l-11.334,6.335c.088.347.177.7.266,1.046a47.915,47.915,0,0,1,1.083,5.044,18.128,18.128,0,0,1,.226,2.232" transform="translate(-42.551 -79.125)" fill="#f49d8b"/>
            <path id="Trazado_209821" data-name="Trazado 209821" d="M121.222,236.57c6.093-2.469,9.114-9.682,9.114-9.682l-10.2,4.639a47.869,47.869,0,0,1,1.083,5.043" transform="translate(-42.698 -80.637)" fill="#1b3431"/>
            <path id="Trazado_209822" data-name="Trazado 209822" d="M110.621,218.17s-1.419-2.815-3.725-1.748-1.1,9.117,3.458,8.123Z" transform="translate(-37.586 -76.831)" fill="#d37363"/>
            <path id="Trazado_209823" data-name="Trazado 209823" d="M110.515,233.784a4.066,4.066,0,1,1,3.931-4.2,4.071,4.071,0,0,1-3.931,4.2m-.247-7.522a3.459,3.459,0,1,0,3.571,3.344,3.463,3.463,0,0,0-3.571-3.344" transform="translate(-37.785 -80.198)" fill="#fff"/>
            <path id="Trazado_209824" data-name="Trazado 209824" d="M126.672,213.728c-.764,3.406-8.553,8.418-12.227,7.343-2.229-.653-4.365-2.317-6.033-6.454-.01-.022-.017-.044-.026-.066-.1-.244-.191-.485-.279-.725-.161-.432-.306-.856-.434-1.263-.03-.1-.06-.191-.087-.286-.075-.253-.143-.5-.2-.739q-.111-.441-.183-.838c-.768-4.285-1.722-9.086,1.809-12.358s9.546-4.907,13.638-1.572c0,0,3.109,2.975,3.916,9.213s.661,5.284.108,7.745" transform="translate(-37.842 -69.282)" fill="#f49d8b"/>
            <path id="Trazado_209825" data-name="Trazado 209825" d="M126.27,196.649s2.977,6.441,5.122,7.512,3.344-2.444,3.344-2.444-5.406-9.747-8.466-5.068" transform="translate(-44.877 -69.438)" fill="#1b3431"/>
            <path id="Trazado_209826" data-name="Trazado 209826" d="M113.316,197.8s4.57,5.023,9.228,3.062.858-5.54.858-5.54-9.494-2.455-10.086,2.477" transform="translate(-40.273 -69.2)" fill="#1b3431"/>
            <path id="Trazado_209827" data-name="Trazado 209827" d="M110.687,197.509s-1.421,7.519-6.318,6.929.8-8.6,4-8.74,2.321,1.811,2.321,1.811" transform="translate(-36.414 -69.549)" fill="#1b3431"/>
            <path id="Trazado_209828" data-name="Trazado 209828" d="M121.821,227.673a1.764,1.764,0,0,1-.186.019.245.245,0,0,1-.014-.489,1.567,1.567,0,0,0,1.3-.849.245.245,0,0,1,.442.21,2.021,2.021,0,0,1-1.546,1.109" transform="translate(-43.14 -80.397)" fill="#d37363"/>
            <path id="Trazado_209829" data-name="Trazado 209829" d="M118.434,224.632a3.6,3.6,0,0,1-.537.047.244.244,0,0,1,.009-.489,3.059,3.059,0,0,0,3.154-2.954.245.245,0,0,1,.488.032,3.443,3.443,0,0,1-3.114,3.363" transform="translate(-41.816 -78.547)" fill="#232323"/>
            <path id="Trazado_209830" data-name="Trazado 209830" d="M117.367,219.215a2.313,2.313,0,0,0,.464-.081.292.292,0,0,0-.159-.563,1.745,1.745,0,0,1-1.378-.2c.689-1.383.65-4.529.648-4.671a.292.292,0,1,0-.585.009c.015.978-.081,3.707-.689,4.577a.291.291,0,0,0,.044.385,2.4,2.4,0,0,0,1.654.544" transform="translate(-41.09 -75.847)" fill="#1b3431"/>
            <path id="Trazado_209831" data-name="Trazado 209831" d="M109,224.019c-.1-.244-.191-.485-.279-.725-.161-.432-.306-.855-.434-1.264-.03-.1-.059-.19-.087-.285.072-.015.142-.03.215-.043,1.608-.3,3.013-.021,3.133.626.119.627-1.011,1.372-2.548,1.691" transform="translate(-38.454 -78.751)" fill="#d37363"/>
            <path id="Trazado_209832" data-name="Trazado 209832" d="M129.557,218.278c.122.648-1.083,1.419-2.692,1.721s-3.011.023-3.133-.625,1.084-1.419,2.692-1.722,3.012-.023,3.133.625" transform="translate(-43.972 -77.311)" fill="#d37363"/>
            <path id="Trazado_209833" data-name="Trazado 209833" d="M117.812,213.759a3.963,3.963,0,1,1,4.225,3.682,3.966,3.966,0,0,1-4.225-3.682m.583-.04a3.378,3.378,0,1,0,3.138-3.6,3.381,3.381,0,0,0-3.138,3.6" transform="translate(-41.867 -74.466)" fill="#fff"/>
            <path id="Trazado_209834" data-name="Trazado 209834" d="M103.9,216.53a3.963,3.963,0,1,1,4.225,3.682,3.966,3.966,0,0,1-4.225-3.682m.583-.04a3.378,3.378,0,1,0,3.138-3.6,3.381,3.381,0,0,0-3.138,3.6" transform="translate(-36.924 -75.451)" fill="#fff"/>
            <path id="Trazado_209835" data-name="Trazado 209835" d="M115.787,217.312a.979.979,0,0,1,1.327-.316l.278-.514a1.545,1.545,0,0,0-2.1.518Z" transform="translate(-40.976 -76.864)" fill="#fff"/>
            <path id="Trazado_209836" data-name="Trazado 209836" d="M129.139,212.165a.39.39,0,0,0,.3-.169c.036-.041.613-.656,3.358-1.3a.392.392,0,0,0-.179-.763c-3.158.737-3.751,1.491-3.837,1.635a.392.392,0,0,0,.362.594" transform="translate(-45.748 -74.608)" fill="#fff"/>
            <path id="Trazado_209837" data-name="Trazado 209837" d="M104.219,218.628a.284.284,0,0,0,.166-.067,3.638,3.638,0,0,1,1.517-.543.293.293,0,0,0-.077-.58,4.277,4.277,0,0,0-1.813.674.292.292,0,0,0,.207.516" transform="translate(-36.929 -77.277)" fill="#fff"/>
            <path id="Trazado_209838" data-name="Trazado 209838" d="M119.082,206.975a3.347,3.347,0,0,1,2.829-1.336c1.008.077,1.037,1.066-.095,1.251a3.652,3.652,0,0,0-1.894.755.541.541,0,0,1-.84-.67" transform="translate(-42.29 -73.082)" fill="#1b3431"/>
            <path id="Trazado_209839" data-name="Trazado 209839" d="M110.247,209.035a3.345,3.345,0,0,0-3.126-.133c-.9.462-.543,1.384.572,1.116a3.658,3.658,0,0,1,2.039-.039.541.541,0,0,0,.514-.944" transform="translate(-37.891 -74.125)" fill="#1b3431"/>
            <path id="Trazado_209840" data-name="Trazado 209840" d="M135.027,210.065a3.21,3.21,0,0,1,3.734-2.05c2.716.683,3.057,9.65-2.081,9.507Z" transform="translate(-47.989 -73.89)" fill="#f49d8b"/>
            <path id="Trazado_209841" data-name="Trazado 209841" d="M140.258,219.428c-.117.188-.174.373-.293.56a3.462,3.462,0,1,1-2.157.479c.705-.334.769-.655.744-.969a4.066,4.066,0,1,0,5.108,3.8,4.127,4.127,0,0,0-3.4-3.866" transform="translate(-48.167 -77.985)" fill="#fff"/>
            <path id="Trazado_209842" data-name="Trazado 209842" d="M137.726,215.348a.241.241,0,0,0,.22.26.283.283,0,0,0,.052,0,.243.243,0,0,0,.208-.219,4.934,4.934,0,0,1,.553-1.737c.561.354,1.018.692,1.024.7a.235.235,0,0,0,.175.046.247.247,0,0,0,.162-.095.242.242,0,0,0-.051-.337c-.021-.015-.477-.354-1.053-.718a2.939,2.939,0,0,1,1.354-1.049.241.241,0,0,0-.17-.451c-2.215.831-2.465,3.492-2.475,3.6" transform="translate(-48.948 -75.249)" fill="#1b3431"/>
            <path id="Trazado_209843" data-name="Trazado 209843" d="M122.411,214.879c.115.578-.06,1.1-.39,1.167s-.692-.35-.807-.929.059-1.1.39-1.166.692.35.807.928" transform="translate(-43.067 -76.037)" fill="#1b3431"/>
            <path id="Trazado_209844" data-name="Trazado 209844" d="M112.407,217.1c.115.578-.06,1.1-.39,1.167s-.692-.35-.807-.929.059-1.1.39-1.166.692.35.807.928" transform="translate(-39.512 -76.826)" fill="#1b3431"/>
            <path id="Trazado_209845" data-name="Trazado 209845" d="M86.561,330.62l47.291,5.091a.192.192,0,0,0,.212-.17,2.674,2.674,0,0,0-2.373-2.944L86.868,327.77a.192.192,0,0,0-.212.17l-.266,2.468a.192.192,0,0,0,.171.211" transform="translate(-30.703 -116.49)" fill="#414f50"/>
            <path id="Trazado_209846" data-name="Trazado 209846" d="M66.517,288.1l3.215,25.6a1.483,1.483,0,0,0,1.313,1.289l36.362,3.915a1.482,1.482,0,0,0,1.63-1.659l-3.215-25.6a1.484,1.484,0,0,0-1.313-1.29l-36.362-3.915a1.483,1.483,0,0,0-1.63,1.659" transform="translate(-23.636 -101.798)" fill="#1b3431"/>
            <path id="Trazado_209847" data-name="Trazado 209847" d="M98.319,310.628c-.288,2.235-4.387,4.633-4.387,4.633s-4.107-3.28-4.4-5.579c-.32-2.491,2.535-2.938,4.392-.886,1.852-1.653,4.709-.592,4.4,1.832" transform="translate(-31.811 -109.286)" fill="#414f50"/>
            <path id="Trazado_209848" data-name="Trazado 209848" d="M123.229,292.275l3.28,28.59,1.058.113a1.483,1.483,0,0,0,1.63-1.659l-3.215-25.6a1.483,1.483,0,0,0-1.313-1.289Z" transform="translate(-43.796 -103.876)" fill="#414f50"/>
            <path id="Trazado_209849" data-name="Trazado 209849" d="M98.823,363.723s3.885-.621,5.09-1.9l2.529,8.081-9.289,1.909s.113-6.817,1.67-8.094" transform="translate(-34.529 -128.595)" fill="#f49d8b"/>
            <path id="Trazado_209850" data-name="Trazado 209850" d="M64.592,380.691,76.6,354.039a4.083,4.083,0,0,1,1.638.316c2.33.849,5.6,3.189,7.714,4.563.246.162.476.31.687.439a8.531,8.531,0,0,0,.891.5c1.851.834.9,1.436.9,1.436-3.859,1.505-1.37,7.241-3.474,8.438,0,0-.9.52-3.753,1.778s-5.735,4.29-8.4,6.776c-3.435,3.211-5.592,3.588-6.828,3.295a2.28,2.28,0,0,1-1.381-.886" transform="translate(-22.956 -125.824)" fill="#f5bf69"/>
            <path id="Trazado_209851" data-name="Trazado 209851" d="M95.989,376.051s1.066.73.465,1.712-2.331.5-2.331.5-1.456-.981,1.866-2.21" transform="translate(-33.339 -133.65)" fill="#fff"/>
            <path id="Trazado_209852" data-name="Trazado 209852" d="M89.132,373.585a.451.451,0,0,1,.536-.346,5.76,5.76,0,0,1,3.784,2.631.451.451,0,0,1-.8.426,4.851,4.851,0,0,0-3.179-2.174.452.452,0,0,1-.346-.536" transform="translate(-31.674 -132.647)" fill="#fff"/>
            <path id="Trazado_209853" data-name="Trazado 209853" d="M92.648,381.559a.454.454,0,0,1,.174-.269c.618-.453,1.066-2.078,1.2-3a.452.452,0,0,1,.893.133c-.042.281-.442,2.769-1.562,3.59a.451.451,0,0,1-.708-.459" transform="translate(-32.924 -134.311)" fill="#fff"/>
            <path id="Trazado_209854" data-name="Trazado 209854" d="M95.791,375.172c.046-.03.149-.1.29-.2.159-.112.367-.265.6-.451.046-.035.093-.074.141-.113a9.886,9.886,0,0,0,1.552-1.549,3.928,3.928,0,0,0,.766-1.507.3.3,0,0,0,.006-.035,1.916,1.916,0,0,0-.291-1.51,1.394,1.394,0,0,0-1.272-.638.863.863,0,0,0-.09.008,2.013,2.013,0,0,0-1,.46,4.413,4.413,0,0,0-1.272,1.932,17.2,17.2,0,0,0-.585,1.921c-.014.061-.027.121-.039.177a6.423,6.423,0,0,0-.137.858c-.005.064,0,.1,0,.105l.949.013h.029v-.025l.179.274Zm.159-2.732c.056-.168.118-.347.186-.538.412-1.134,1.041-1.7,1.481-1.754a.593.593,0,0,1,.088,0,.43.43,0,0,1,.341.214.945.945,0,0,1,.141.767l0,.023a2.165,2.165,0,0,1-.242.6,5.01,5.01,0,0,1-.687.917,10.567,10.567,0,0,1-1.015.953h0c-.277.23-.54.429-.753.578.015-.092.036-.2.063-.32a14,14,0,0,1,.4-1.436" transform="translate(-33.568 -131.203)" fill="#fff"/>
            <path id="Trazado_209855" data-name="Trazado 209855" d="M94.86,378.341l.953-.222a3.021,3.021,0,0,0,1.815,2.137c.163.021.377,0,.586-.393a.543.543,0,0,0,.053-.536c-.257-.538-1.433-.943-2.114-1.072l.181-.961c.23.043,2.261.454,2.815,1.61a1.692,1.692,0,0,1-1.648,2.321c-1.2-.157-2.351-1.646-2.64-2.884" transform="translate(-33.714 -134.092)" fill="#fff"/>
            <path id="Trazado_209856" data-name="Trazado 209856" d="M64.592,380.691,76.6,354.039a4.083,4.083,0,0,1,1.638.316L65.973,381.576a2.28,2.28,0,0,1-1.381-.886" transform="translate(-22.956 -125.824)" fill="#ed9033"/>
            <path id="Trazado_209857" data-name="Trazado 209857" d="M81.319,357.825l.356-.792a6.418,6.418,0,0,0,3.623,3.355,8.244,8.244,0,0,0,6.6-.4c.246.162.476.31.687.44a8.955,8.955,0,0,1-7.54.612,7.089,7.089,0,0,1-3.724-3.212" transform="translate(-28.901 -126.891)" fill="#ed9033"/>
            <path id="Trazado_209858" data-name="Trazado 209858" d="M88.021,379.184a.482.482,0,0,1,.913.285l-.337,1.851a.482.482,0,0,1-.948-.172l.336-1.851a.455.455,0,0,1,.035-.112" transform="translate(-31.148 -134.663)" fill="#fff"/>
            <path id="Trazado_209859" data-name="Trazado 209859" d="M91.328,377.586a.482.482,0,0,1,.913.284l-.336,1.851a.482.482,0,0,1-.948-.173l.336-1.851a.494.494,0,0,1,.035-.112" transform="translate(-32.324 -134.094)" fill="#fff"/>
            <path id="Trazado_209860" data-name="Trazado 209860" d="M85.356,381.091a.482.482,0,0,1,.913.284l-.336,1.851a.482.482,0,1,1-.948-.172l.336-1.851a.463.463,0,0,1,.035-.112" transform="translate(-30.201 -135.34)" fill="#fff"/>
            <path id="Trazado_209861" data-name="Trazado 209861" d="M82.749,383.023a.482.482,0,0,1,.913.284l-.337,1.851a.482.482,0,1,1-.948-.172l.336-1.851a.473.473,0,0,1,.035-.112" transform="translate(-29.274 -136.027)" fill="#fff"/>
            <path id="Trazado_209862" data-name="Trazado 209862" d="M80.146,385.238a.482.482,0,0,1,.913.284l-.336,1.851a.482.482,0,1,1-.948-.173l.336-1.851a.462.462,0,0,1,.035-.112" transform="translate(-28.349 -136.814)" fill="#fff"/>
            <path id="Trazado_209863" data-name="Trazado 209863" d="M77.631,387.779a.482.482,0,0,1,.913.284l-.336,1.851a.482.482,0,0,1-.948-.172l.336-1.851a.464.464,0,0,1,.035-.112" transform="translate(-27.456 -137.717)" fill="#fff"/>
            <path id="Trazado_209864" data-name="Trazado 209864" d="M152.046,315.74s10.774-5.815,17.015-1.32c11.413,8.219-7.952,24.031-30.1,31.752s-29.345,6.668-29.345,6.668-4.813-1.325-3.106-9.125c0,0,12.769-4.854,19.413-9.94s11.173-11.317,26.126-18.035" transform="translate(-37.723 -111.14)" fill="#d76751"/>
            <path id="Trazado_209865" data-name="Trazado 209865" d="M115.473,347.17a.309.309,0,0,0,.152-.04c.111-.062,11.11-6.251,15.646-9.974,3.65-3,11.652-8.615,11.732-8.671a.312.312,0,1,0-.358-.511c-.081.057-8.1,5.689-11.77,8.7-4.494,3.688-15.445,9.851-15.555,9.913a.312.312,0,0,0,.153.583" transform="translate(-40.929 -116.543)" fill="#ba4131"/>
            <path id="Trazado_209866" data-name="Trazado 209866" d="M107.959,348.923c4.646-1.116,14.113-5.458,25.326-11.616,8.386-4.606,18.057-10.49,19.476-12.532.767-1.1.96-2,.574-2.68-.577-1.012-2.238-1.116-3-1.109a.337.337,0,0,0,0,.674c.745-.006,2.04.122,2.408.769.306.537-.126,1.363-.543,1.962-1.144,1.646-9.239,6.829-19.247,12.325-8.618,4.733-19.753,10.252-25.159,11.552Z" transform="translate(-38.313 -114.08)" fill="#ba4131"/>
            <path id="Trazado_209867" data-name="Trazado 209867" d="M107.665,359.1c.523,4.1,1.586,7.827,3.9,10.685,0,0-1.983,1.428-3.794.4-1.383-.783-4.051-7.186-3.035-10.6a3.29,3.29,0,0,1,2.927-.483" transform="translate(-37.144 -127.562)" fill="#ba4131"/>
            <line id="Línea_1573" data-name="Línea 1573" y1="4.308" transform="translate(76.071 204.723)" fill="#f49d8b"/>
            <path id="Trazado_209868" data-name="Trazado 209868" d="M166.3,284.116c-.066-.959-.177-1.856-.3-2.727-.254-1.738-.586-3.362-.959-4.951s-.781-3.13-1.22-4.65-.908-3.013-1.388-4.495c-.978-2.957-2.031-5.856-3.16-8.715-.572-1.426-1.14-2.852-1.749-4.263-.3-.705-.607-1.411-.92-2.115l-.478-1.056-.243-.531-.259-.551a6.711,6.711,0,0,0-12.367,5.185l.031.084,1.5,4.055c.5,1.37,1.013,2.734,1.5,4.106.988,2.738,1.958,5.473,2.861,8.2s1.753,5.438,2.458,8.076c.177.659.333,1.311.486,1.952s.287,1.272.4,1.879c.057.3.108.6.153.888-.438.126-.892.248-1.356.366-1.309.336-2.684.643-4.079.935s-2.815.569-4.243.841c-2.859.539-5.758,1.043-8.667,1.548l-4.372.755-.318.055c.405,3.4.978,6.779,1.257,10.189,1.506-.008,3.011-.04,4.519-.076,3.046-.089,6.1-.247,9.169-.494,1.538-.121,3.081-.271,4.64-.449s3.131-.4,4.752-.674c.811-.143,1.634-.3,2.49-.494s1.741-.415,2.734-.743a17.5,17.5,0,0,0,1.646-.634c.306-.136.642-.3,1.021-.512a9.937,9.937,0,0,0,1.33-.89c.135-.11.26-.211.416-.353l.219-.2c.078-.076.162-.162.241-.245l.119-.127.059-.064.066-.077c.088-.1.175-.208.258-.314s.18-.237.269-.365l.133-.2c.043-.066.084-.13.134-.214q.142-.237.269-.483l.063-.125.067-.143q.066-.144.126-.291c.04-.1.079-.2.115-.295s.075-.219.11-.329.067-.226.1-.34l.043-.171.024-.1.112-.551c.017-.09.037-.189.049-.272l.037-.252c.024-.167.048-.34.068-.5l.045-.467.021-.234.013-.219a24.29,24.29,0,0,0-.032-3.153" transform="translate(-46.063 -87.504)" fill="#f49d8b"/>
            <path id="Trazado_209869" data-name="Trazado 209869" d="M172.671,308.107a.321.321,0,0,1-.22-.087c-2.491-2.335-6.609-2.367-6.65-2.367a.322.322,0,0,1,0-.645c.179,0,4.412.029,7.091,2.541a.322.322,0,0,1-.22.558" transform="translate(-58.811 -108.401)" fill="#d37363"/>
            <path id="Trazado_209870" data-name="Trazado 209870" d="M167.712,305.5a.322.322,0,0,1-.16-.6c1.637-.931,4.733-.481,4.864-.461a.322.322,0,1,1-.1.637c-.03,0-3.006-.436-4.45.384a.323.323,0,0,1-.159.042" transform="translate(-59.491 -108.153)" fill="#d37363"/>
            <path id="Trazado_209871" data-name="Trazado 209871" d="M14.7,258v11.483a2.75,2.75,0,0,0,2.749,2.749H38.295l6.294,2.258a.8.8,0,0,0,1.017-1.042L43.225,267.3V258a2.75,2.75,0,0,0-2.75-2.749H17.445A2.75,2.75,0,0,0,14.7,258" transform="translate(-5.223 -90.717)" fill="#78b1de"/>
            <path id="Trazado_209872" data-name="Trazado 209872" d="M42.8,267.833a1.989,1.989,0,1,0,1.989-1.989,1.989,1.989,0,0,0-1.989,1.989" transform="translate(-15.21 -94.482)" fill="#4e88af"/>
            <path id="Trazado_209873" data-name="Trazado 209873" d="M33.029,267.833a1.989,1.989,0,1,0,1.989-1.989,1.989,1.989,0,0,0-1.989,1.989" transform="translate(-11.739 -94.482)" fill="#4e88af"/>
            <path id="Trazado_209874" data-name="Trazado 209874" d="M23.262,267.833a1.989,1.989,0,1,0,1.989-1.989,1.99,1.99,0,0,0-1.989,1.989" transform="translate(-8.267 -94.482)" fill="#4e88af"/>
            <path id="Trazado_209875" data-name="Trazado 209875" d="M244.925,337.962h.987v-1.474l-37.353.048a4.485,4.485,0,1,0,.012,8.97l37.353-.048,0-1.277h-.988Z" transform="translate(-72.53 -119.589)" fill="#f5bf69"/>
            <path id="Trazado_209876" data-name="Trazado 209876" d="M247.278,338.775l.008,6.216-34.275.044a3.068,3.068,0,0,1-3.032-3.1,3.147,3.147,0,0,1,.884-2.2,2.985,2.985,0,0,1,2.14-.913Z" transform="translate(-74.627 -120.402)" fill="#fff"/>
            <path id="Trazado_209877" data-name="Trazado 209877" d="M249.176,341.217v.951l-33.389.043a.476.476,0,0,1-.475-.473v0a.476.476,0,0,1,.474-.475Z" transform="translate(-76.523 -121.27)" fill="#e9cec2"/>
            <path id="Trazado_209878" data-name="Trazado 209878" d="M249.181,344.848v.951l-33.389.043a.476.476,0,0,1-.474-.473v0a.476.476,0,0,1,.474-.474Z" transform="translate(-76.525 -122.56)" fill="#e9cec2"/>
            <path id="Trazado_209879" data-name="Trazado 209879" d="M239.746,324.053h.988l0-1.474-37.353.048a4.485,4.485,0,1,0,.012,8.97l37.353-.048,0-1.277h-.988Z" transform="translate(-70.689 -114.645)" fill="#5a918e"/>
            <path id="Trazado_209880" data-name="Trazado 209880" d="M242.1,324.867l.008,6.217-34.276.044a3.069,3.069,0,0,1-3.032-3.1,3.152,3.152,0,0,1,.884-2.2,2.986,2.986,0,0,1,2.14-.913Z" transform="translate(-72.786 -115.459)" fill="#fff"/>
            <path id="Trazado_209881" data-name="Trazado 209881" d="M244,327.308v.951l-33.389.043a.476.476,0,0,1-.475-.473v0a.476.476,0,0,1,.474-.474Z" transform="translate(-74.683 -116.326)" fill="#e9cec2"/>
            <path id="Trazado_209882" data-name="Trazado 209882" d="M244,330.939v.951l-33.389.043a.476.476,0,0,1-.474-.473v0a.476.476,0,0,1,.474-.474Z" transform="translate(-74.684 -117.617)" fill="#e9cec2"/>
            <path id="Trazado_209883" data-name="Trazado 209883" d="M249.849,310.125h.988l0-1.474-37.353.048a4.485,4.485,0,1,0,.012,8.97l37.353-.048,0-1.277h-.987Z" transform="translate(-74.28 -109.695)" fill="#d76751"/>
            <path id="Trazado_209884" data-name="Trazado 209884" d="M252.2,310.938l.008,6.217-34.276.045a3.069,3.069,0,0,1-3.032-3.1,3.155,3.155,0,0,1,.884-2.2,2.992,2.992,0,0,1,2.141-.913Z" transform="translate(-76.377 -110.508)" fill="#fff"/>
            <path id="Trazado_209885" data-name="Trazado 209885" d="M254.1,313.38v.951l-33.389.043a.476.476,0,0,1-.475-.473v0a.476.476,0,0,1,.473-.474Z" transform="translate(-78.273 -111.376)" fill="#e9cec2"/>
            <path id="Trazado_209886" data-name="Trazado 209886" d="M254.1,317.011v.951l-33.389.043a.476.476,0,0,1-.475-.473v0a.476.476,0,0,1,.474-.474Z" transform="translate(-78.275 -112.667)" fill="#e9cec2"/>
            <rect id="Rectángulo_338938" data-name="Rectángulo 338938" width="2.69" height="20.277" transform="translate(137.669 176.152) rotate(-8.711)" fill="#d76751"/>
            <path id="Trazado_209887" data-name="Trazado 209887" d="M216.233,271.169l-2.659.407.585-2.03.3-1.051.6.911Z" transform="translate(-75.905 -95.424)" fill="#f49d8b"/>
            <rect id="Rectángulo_338939" data-name="Rectángulo 338939" width="2.69" height="1.473" transform="translate(140.517 194.739) rotate(-8.711)" fill="#1b3431"/>
            <path id="Trazado_209888" data-name="Trazado 209888" d="M221,304.925l-2.305.353a.179.179,0,0,1-.2-.15l-.151-.984,2.659-.407.15.984a.178.178,0,0,1-.15.2" transform="translate(-77.598 -107.949)" fill="#df615c"/>
            <path id="Trazado_209889" data-name="Trazado 209889" d="M215.39,269.406l-.908.139.3-1.051Z" transform="translate(-76.228 -95.424)" fill="#1b3431"/>
            <rect id="Rectángulo_338940" data-name="Rectángulo 338940" width="2.69" height="1.056" transform="translate(140.357 193.694) rotate(-8.713)" fill="#ba4131"/>
            <path id="Trazado_209890" data-name="Trazado 209890" d="M214.834,274.519l2.273,14.843a.206.206,0,0,0,.407-.062l-2.274-14.843a.205.205,0,0,0-.406.063" transform="translate(-76.352 -97.481)" fill="#ba4131"/>
            <path id="Trazado_209891" data-name="Trazado 209891" d="M216.447,274.271l2.273,14.843a.205.205,0,1,0,.406-.063l-2.273-14.842a.205.205,0,1,0-.406.062" transform="translate(-76.925 -97.393)" fill="#ba4131"/>
            <rect id="Rectángulo_338941" data-name="Rectángulo 338941" width="2.69" height="20.277" transform="translate(142.445 175.846) rotate(-0.192)" fill="#5a918e"/>
            <path id="Trazado_209892" data-name="Trazado 209892" d="M223.673,271.184l-2.69.009.88-1.922.456-.994.462.991Z" transform="translate(-78.538 -95.347)" fill="#f49d8b"/>
            <rect id="Rectángulo_338942" data-name="Rectángulo 338942" width="2.69" height="1.474" transform="translate(142.507 194.649) rotate(-0.192)" fill="#1b3431"/>
            <path id="Trazado_209893" data-name="Trazado 209893" d="M223.6,305.417l-2.332.008a.18.18,0,0,1-.18-.179l0-1,2.69-.009,0,1a.18.18,0,0,1-.179.18" transform="translate(-78.575 -108.129)" fill="#df615c"/>
            <path id="Trazado_209894" data-name="Trazado 209894" d="M223.266,269.268l-.918,0,.456-.995Z" transform="translate(-79.023 -95.346)" fill="#1b3431"/>
            <rect id="Rectángulo_338943" data-name="Rectángulo 338943" width="2.69" height="1.057" transform="translate(142.503 193.593) rotate(-0.192)" fill="#285b5c"/>
            <path id="Trazado_209895" data-name="Trazado 209895" d="M222.026,274.232l.049,15.016a.206.206,0,0,0,.411,0l-.05-15.016a.205.205,0,1,0-.411,0" transform="translate(-78.909 -97.39)" fill="#285b5c"/>
            <path id="Trazado_209896" data-name="Trazado 209896" d="M223.658,274.225l.049,15.016a.206.206,0,1,0,.411,0l-.05-15.016a.205.205,0,1,0-.411,0" transform="translate(-79.489 -97.387)" fill="#285b5c"/>
            <rect id="Rectángulo_338944" data-name="Rectángulo 338944" width="20.277" height="2.69" transform="translate(144.26 195.82) rotate(-81.913)" fill="#ed9033"/>
            <path id="Trazado_209897" data-name="Trazado 209897" d="M230.887,271.536l-2.663-.378,1.147-1.775.594-.919.315,1.047Z" transform="translate(-81.112 -95.413)" fill="#f49d8b"/>
            <rect id="Rectángulo_338945" data-name="Rectángulo 338945" width="1.473" height="2.69" transform="translate(144.261 195.82) rotate(-81.913)" fill="#1b3431"/>
            <path id="Trazado_209898" data-name="Trazado 209898" d="M226.042,305.3l-2.308-.328a.179.179,0,0,1-.152-.2l.14-.985,2.663.378-.14.985a.179.179,0,0,1-.2.152" transform="translate(-79.461 -107.967)" fill="#df615c"/>
            <path id="Trazado_209899" data-name="Trazado 209899" d="M230.912,269.512l-.909-.129.594-.919Z" transform="translate(-81.744 -95.413)" fill="#1b3431"/>
            <rect id="Rectángulo_338946" data-name="Rectángulo 338946" width="1.057" height="2.69" transform="translate(144.468 194.361) rotate(-81.913)" fill="#c67022"/>
            <path id="Trazado_209900" data-name="Trazado 209900" d="M227.868,274.225l-2.112,14.867a.205.205,0,1,0,.407.057l2.112-14.866a.205.205,0,1,0-.407-.059" transform="translate(-80.234 -97.398)" fill="#c67022"/>
            <path id="Trazado_209901" data-name="Trazado 209901" d="M229.484,274.454l-2.112,14.867a.205.205,0,1,0,.407.057l2.112-14.866a.205.205,0,1,0-.407-.058" transform="translate(-80.808 -97.479)" fill="#c67022"/>
            <path id="Trazado_209902" data-name="Trazado 209902" d="M226.257,285.562l-.217,1.958-.088.784L224.6,300.468H213.185l-1.2-10.808-.238-2.141-.217-1.958Z" transform="translate(-75.178 -101.49)" fill="#f5bf69"/>
            <path id="Trazado_209903" data-name="Trazado 209903" d="M226.16,288.6l-.087.784L212.1,290.74l-.238-2.141Z" transform="translate(-75.298 -102.569)" fill="#ed9033"/>
            <path id="Trazado_209904" data-name="Trazado 209904" d="M226.321,287.021H210.662l-.3-2.861h16.261Z" transform="translate(-74.763 -100.992)" fill="#f5bf69"/>
          </g>
        </g>
      </g>
    </g>
  </g>
</svg>
