<svg xmlns="http://www.w3.org/2000/svg" xmlns:xlink="http://www.w3.org/1999/xlink" width="136" height="130" viewBox="0 0 136 130">
  <defs>
    <clipPath id="clip-path">
      <rect id="Rectángulo_338896" data-name="Rectángulo 338896" width="136" height="130" rx="13" transform="translate(302 1382)" fill="#fed947"/>
    </clipPath>
    <clipPath id="clip-path-2">
      <rect id="Rectángulo_338895" data-name="Rectángulo 338895" width="245.829" height="201.774" fill="none"/>
    </clipPath>
    <clipPath id="clip-path-5">
      <rect id="Rectángulo_338892" data-name="Rectángulo 338892" width="99.168" height="99.168" transform="translate(0 0.001)" fill="#12263f"/>
    </clipPath>
  </defs>
  <g id="Grupo_983618" data-name="Grupo 983618" transform="translate(-302 -1382)">
    <rect id="Rectángulo_338805" data-name="Rectángulo 338805" width="136" height="130" rx="13" transform="translate(302 1382)" fill="#fed947"/>
    <g id="Enmascarar_grupo_562" data-name="Enmascarar grupo 562" clip-path="url(#clip-path)">
      <g id="Grupo_983625" data-name="Grupo 983625" transform="translate(261.14 1374.112)">
        <g id="Grupo_983624" data-name="Grupo 983624" clip-path="url(#clip-path-2)">
          <g id="Grupo_983623" data-name="Grupo 983623" transform="translate(0 0)">
            <g id="Grupo_983622" data-name="Grupo 983622" clip-path="url(#clip-path-2)">
              <g id="Grupo_983621" data-name="Grupo 983621" opacity="0.4" style="mix-blend-mode: multiply;isolation: isolate">
                <g id="Grupo_983620" data-name="Grupo 983620">
                  <g id="Grupo_983619" data-name="Grupo 983619" clip-path="url(#clip-path-2)">
                    <path id="Trazado_209148" data-name="Trazado 209148" d="M15.09,169.83c-13.849-12.7-18.87-34.136-12.1-51.664s24.9-30.026,43.686-30.118c13-.065,25.757,5.238,38.693,3.948a39.121,39.121,0,0,0,31.144-22.389c3.818-8.467,4.439-18,7.114-26.89A60.081,60.081,0,0,1,200.956,3.292c23.137,8.073,39.69,30.555,43.756,54.72s-3.284,49.388-16.94,69.736-33.2,36.18-54.318,48.619c-24.172,14.241-51.28,24.509-79.322,25.361s-55.4-10.222-79.042-31.9" transform="translate(0 0)" fill="#eddeff"/>
                  </g>
                </g>
              </g>
            </g>
          </g>
        </g>
      </g>
    </g>
    <g id="Grupo_983617" data-name="Grupo 983617" transform="translate(320 1396.999)">
      <g id="Grupo_983616" data-name="Grupo 983616" clip-path="url(#clip-path-5)">
        <path id="Trazado_209147" data-name="Trazado 209147" d="M99.168,49.584A49.632,49.632,0,0,0,50.71.028L50.678.022a1.142,1.142,0,0,0-.131,0H50.5a1.4,1.4,0,0,0-.215-.006c-.235,0-.468-.017-.7-.017a49.584,49.584,0,0,0,0,99.168h0c.248,0,.491-.015.738-.019.036,0,.069.019.106.019h0a1.361,1.361,0,0,0,.245-.022l.033-.007A49.631,49.631,0,0,0,99.168,49.584m-7.556-1.793A50.876,50.876,0,0,0,86.692,27.6q2.425.679,4.912,1.457a46.449,46.449,0,0,1,4.71,18.734Zm-2.808,0h-15c-.01-.34,0-.679-.017-1.019a62.5,62.5,0,0,0-5.833-23.293c4.785.751,9.819,1.776,15.082,3.126A48.021,48.021,0,0,1,88.8,47.791M50.989,3.9a77.024,77.024,0,0,1,11.963,16.09c-4.167-.5-8.159-.8-11.963-.932ZM48.181,18.985c-3.762-.057-7.331.045-10.7.268A77.6,77.6,0,0,1,48.181,4.78Zm0,2.758V47.791H29.026c.008-.287,0-.574.014-.861a60.361,60.361,0,0,1,6.9-24.84c3.724-.291,7.822-.424,12.237-.347m0,28.856V79.554c-3.513-.135-7.216-.41-11.108-.866A59.744,59.744,0,0,1,29.008,50.6Zm0,31.742V94.129a93.014,93.014,0,0,1-9.339-12.441c3.221.326,6.344.547,9.339.653m2.808.049c.655.01,1.33.035,1.973.035,2.742,0,5.368-.089,7.891-.241a94.76,94.76,0,0,1-9.864,12.878Zm0-2.76V50.6h20.02c-.214,9.707-3.044,19.312-8.44,28.728-3.55.258-7.418.377-11.58.3m0-31.839V21.815c4.236.163,8.762.541,13.547,1.181A60.018,60.018,0,0,1,70.978,46.93c.013.287.005.574.013.861Zm15.48-27.342A78.129,78.129,0,0,0,54.879,3.883,46.623,46.623,0,0,1,81.016,23.231c-5.05-1.206-9.9-2.118-14.547-2.782m-32.434-.915a117.2,117.2,0,0,0-13.977,2.148,46.58,46.58,0,0,1,25.08-17.8,78.318,78.318,0,0,0-11.1,15.651M26.714,23.18c1.821-.293,3.777-.558,5.86-.781a62.873,62.873,0,0,0-6.339,24.373c-.015.34-.007.679-.017,1.019H11.212a47.958,47.958,0,0,1,6.7-22.812c2.658-.662,5.585-1.283,8.805-1.8M8.4,47.791H2.854a46.445,46.445,0,0,1,5.262-19.81c1.72-.64,3.728-1.315,6-1.978A50.824,50.824,0,0,0,8.4,47.791M8.386,50.6a50.831,50.831,0,0,0,6.4,23.8q-2.863-.759-5.814-1.65A46.453,46.453,0,0,1,2.834,50.6Zm2.809,0h15a61.769,61.769,0,0,0,7.449,27.639c-4.757-.669-9.767-1.6-15.02-2.865A47.973,47.973,0,0,1,11.195,50.6m24.14,30.68A93.119,93.119,0,0,0,45.567,95.413,46.54,46.54,0,0,1,21.043,78.825c4.974,1.1,9.728,1.882,14.292,2.454m28.964.656a118.445,118.445,0,0,0,13.815-2.024,46.49,46.49,0,0,1-23.664,15.5A93.866,93.866,0,0,0,64.3,81.935M72.45,78.2c-2,.321-4.18.6-6.5.839A62.041,62.041,0,0,0,73.818,50.6h15a47.947,47.947,0,0,1-8.216,25.96c-2.484.6-5.2,1.163-8.155,1.637M91.629,50.6h4.705a46.471,46.471,0,0,1-6.842,23.355c-1.463.511-3.1,1.034-4.9,1.549a50.8,50.8,0,0,0,7.034-24.9M89.7,25.553c-1.607-.473-3.2-.922-4.77-1.336A49.864,49.864,0,0,0,67.622,6.43,47.056,47.056,0,0,1,89.7,25.553M34.039,5.474a49.765,49.765,0,0,0-18,17.16c-2.122.549-4.051,1.119-5.791,1.684A47.008,47.008,0,0,1,34.039,5.474M11.246,76.334q2.859.809,5.642,1.5a49.706,49.706,0,0,0,17.15,15.859A46.984,46.984,0,0,1,11.246,76.334m56.376,16.4a49.727,49.727,0,0,0,14.754-13.8c1.643-.413,3.166-.84,4.591-1.27A47.037,47.037,0,0,1,67.622,92.738" fill="#12263f"/>
      </g>
    </g>
  </g>
</svg>
