<svg xmlns="http://www.w3.org/2000/svg" xmlns:xlink="http://www.w3.org/1999/xlink" width="400" height="297" viewBox="0 0 400 297">
  <defs>
    <clipPath id="clip-path">
      <rect id="Rectángulo_338986" data-name="Rectángulo 338986" width="400" height="265.954" fill="none"/>
    </clipPath>
    <clipPath id="clip-path-3">
      <rect id="Rectángulo_338970" data-name="Rectángulo 338970" width="2.99" height="3.316" fill="none"/>
    </clipPath>
    <clipPath id="clip-path-4">
      <rect id="Rectángulo_338977" data-name="Rectángulo 338977" width="2.553" height="2.968" fill="none"/>
    </clipPath>
  </defs>
  <g id="Grupo_983705" data-name="Grupo 983705" transform="translate(-180 -404)">
    <rect id="Rectángulo_338750" data-name="Rectángulo 338750" width="243" height="297" rx="9" transform="translate(181 404)" fill="#6b8dfc"/>
    <rect id="Rectángulo_338987" data-name="Rectángulo 338987" width="249" height="194" rx="9" transform="translate(331 507)" fill="#3c3fa7"/>
    <g id="Grupo_983696" data-name="Grupo 983696" transform="translate(180 429.046)">
      <g id="Grupo_983704" data-name="Grupo 983704" clip-path="url(#clip-path)">
        <rect id="Rectángulo_338968" data-name="Rectángulo 338968" width="26.156" height="18.421" transform="translate(208.444 12.95)" fill="#5774cd"/>
        <path id="Trazado_210517" data-name="Trazado 210517" d="M1784.482,534.233l-18.314,65.341,6.026,4.2,24.581-63.058Z" transform="translate(-1595.899 -482.73)" fill="#ea8271"/>
        <rect id="Rectángulo_338969" data-name="Rectángulo 338969" width="10.219" height="18.028" transform="translate(216.81 21.066)" fill="#ea8271"/>
        <path id="Trazado_210518" data-name="Trazado 210518" d="M1869.406,726.775l11.936,7.231,1.118-2.868-11.778-8.918Z" transform="translate(-1689.186 -652.593)"/>
        <g id="Grupo_983703" data-name="Grupo 983703" transform="translate(0 0)">
          <g id="Grupo_983702" data-name="Grupo 983702" clip-path="url(#clip-path)">
            <path id="Trazado_210519" data-name="Trazado 210519" d="M2578.188,490.266l24.091,29.09a6.008,6.008,0,0,1-.11,7.786,5.923,5.923,0,0,1-8.215.68l-25.15-20.6Z" transform="translate(-2321.157 -443.002)" fill="#ea8271"/>
            <path id="Trazado_210520" data-name="Trazado 210520" d="M2659.984,607.349l3.065,2.506,9.116-14.576-.857-2.215-1.63-1.964Z" transform="translate(-2403.548 -534.116)"/>
            <path id="Trazado_210521" data-name="Trazado 210521" d="M2016.6,2368.048l-1.876,26.233-13.61-8.585,2.039-20.531Z" transform="translate(-1808.196 -2137.151)" fill="#ea8271"/>
            <path id="Trazado_210522" data-name="Trazado 210522" d="M2607.231,2380.522l3.634,25.6,14.722-5.986-4.166-20.347Z" transform="translate(-2355.88 -2150.364)" fill="#ea8271"/>
            <path id="Trazado_210523" data-name="Trazado 210523" d="M1874.915,344.748s15.386,2.224,23.718,4.3a16.069,16.069,0,0,1,8.252,5.069l11.893,13.724-11.537,20.346-8.36-5.036s.934,11.277-2.321,14.186-42.731.227-42.731.227-5.562-2.147-6.2-13.222l-3.927,7.782-16.3-11.8,14.07-25.685a15.209,15.209,0,0,1,10.06-6.234Z" transform="translate(-1651.235 -311.513)" fill="#ffd4de"/>
            <path id="Trazado_210524" data-name="Trazado 210524" d="M1935.344,1155.435l11-123.648,47.846-7.41,26.448,133.1L1993.443,1160l-20.812-108.39-2.007.181-8.23,104.962Z" transform="translate(-1748.767 -925.622)" fill="#fff"/>
            <path id="Trazado_210525" data-name="Trazado 210525" d="M1991.184,1157.98a.24.24,0,0,1-.236-.2l-20.772-108.175-1.588.144-8.214,104.759a.24.24,0,0,1-.252.222l-27.049-1.318a.241.241,0,0,1-.228-.262l11-123.648a.24.24,0,0,1,.2-.217l47.846-7.41a.241.241,0,0,1,.273.191l26.448,133.1a.241.241,0,0,1-.214.287l-27.194,2.525h-.022m-20.813-108.872a.241.241,0,0,1,.236.2l20.772,108.175,26.71-2.479-26.351-132.608-47.431,7.345-10.961,123.21,26.564,1.294,8.213-104.729a.242.242,0,0,1,.219-.221l2.008-.182h.021" transform="translate(-1746.507 -923.363)"/>
            <path id="Trazado_210526" data-name="Trazado 210526" d="M2074.3,906.512l7.078,34.815-56.464-13.048,7.007-22.486Z" transform="translate(-1829.698 -818.469)" fill="#ffd4de"/>
            <path id="Trazado_210527" data-name="Trazado 210527" d="M2227.388,342.092s-1.475,3.2-7.674,3.8a14.679,14.679,0,0,1-10.508-3.325l9.383-2.048Z" transform="translate(-1996.227 -307.692)" fill="#ea8271"/>
            <path id="Trazado_210528" data-name="Trazado 210528" d="M2191.219,364.084a15.5,15.5,0,0,1-8.408-2.288,11.186,11.186,0,0,1-3.227-2.943.29.29,0,0,1,.485-.317,10.822,10.822,0,0,0,3.077,2.788,15.544,15.544,0,0,0,10.044,2.081,13.266,13.266,0,0,0,7.5-2.954,7.989,7.989,0,0,0,1.969-2.4.289.289,0,0,1,.526.238,8.35,8.35,0,0,1-2.091,2.573,13.823,13.823,0,0,1-7.848,3.114,20.159,20.159,0,0,1-2.028.1" transform="translate(-1969.419 -323.383)"/>
            <path id="Trazado_210529" data-name="Trazado 210529" d="M2543.034,437.337a.275.275,0,0,1-.042,0,.29.29,0,0,1-.245-.328,38.192,38.192,0,0,1,4.789-14.08,21.174,21.174,0,0,1,3.422-4.519.289.289,0,1,1,.39.427,21.1,21.1,0,0,0-3.33,4.413,37.611,37.611,0,0,0-4.7,13.842.29.29,0,0,1-.287.248" transform="translate(-2297.61 -378.002)"/>
            <path id="Trazado_210530" data-name="Trazado 210530" d="M1983.464,495.842a.289.289,0,0,1-.279-.217l-5.443-21.037a.289.289,0,1,1,.56-.145l5.443,21.037a.289.289,0,0,1-.281.362" transform="translate(-1787.069 -428.508)"/>
            <path id="Trazado_210531" data-name="Trazado 210531" d="M2259.164,242.5l-10.219-.368v6.01a16.02,16.02,0,0,0,3.569.156,19.7,19.7,0,0,0,6.65-1.574Z" transform="translate(-2032.135 -218.791)"/>
            <path id="Trazado_210532" data-name="Trazado 210532" d="M2083.661,880.407l.136,6.321,8.372.049,14.936,10.786a8.835,8.835,0,0,0,4.839.939l18.087-1.652a5.873,5.873,0,0,0,4-5.559,13.513,13.513,0,0,0-4.578-10.679Z" transform="translate(-1882.785 -795.532)" fill="#fd521b"/>
            <path id="Trazado_210533" data-name="Trazado 210533" d="M2232.025,915.087h0l-37.96-.269a.289.289,0,0,1,0-.578h0l37.958.269a.289.289,0,0,1,0,.578" transform="translate(-1982.284 -826.103)"/>
            <path id="Trazado_210534" data-name="Trazado 210534" d="M2184.634,911.914l-.79,4.881a.824.824,0,0,0,.753.952l2.712.2a.823.823,0,0,0,.829-1.112l-1.923-5.078a.823.823,0,0,0-1.582.16" transform="translate(-1973.301 -823.375)"/>
            <path id="Trazado_210535" data-name="Trazado 210535" d="M2418.709,129.438s3.185-3.132,4.73-.1c1.824,3.584-3.429,6.761-5.047,3.58s.317-3.484.317-3.484" transform="translate(-2184.663 -115.675)" fill="#ea8271"/>
            <path id="Trazado_210536" data-name="Trazado 210536" d="M2161.963,13.669a13.13,13.13,0,1,1,26.238,0,13.13,13.13,0,1,1-26.238,0" transform="translate(-1953.538 -0.003)" fill="#ea8271"/>
            <path id="Trazado_210537" data-name="Trazado 210537" d="M2188.052,11.5A13.067,13.067,0,0,0,2175.1,0c-5.734,0-13.537,4.1-13.1,12.919.263-5.443,6.935-12.4,12.989-8.109,0,0,6.562-6.113,13.064,6.682" transform="translate(-1953.554 -0.003)" fill="#5774cd"/>
            <path id="Trazado_210538" data-name="Trazado 210538" d="M2131.392,143.179s-3.187-3.132-4.732-.1c-1.824,3.584,3.429,6.761,5.047,3.58s-.315-3.484-.315-3.484" transform="translate(-1921.297 -128.092)" fill="#ea8271"/>
            <path id="Trazado_210539" data-name="Trazado 210539" d="M2286.1,150.687a.124.124,0,0,1-.08-.028.128.128,0,0,1-.02-.179l1.083-1.345a.128.128,0,0,1,.168-.027l1.813,1.158a.128.128,0,0,1-.138.215l-1.716-1.1-1.011,1.256a.129.129,0,0,1-.1.048" transform="translate(-2065.596 -134.714)"/>
            <path id="Trazado_210540" data-name="Trazado 210540" d="M2285.2,149.878a.23.23,0,0,1-.141-.049.225.225,0,0,1-.034-.315l1.084-1.345a.224.224,0,0,1,.3-.048l1.811,1.158a.221.221,0,0,1,.1.141.224.224,0,0,1-.17.267.22.22,0,0,1-.168-.03l-1.643-1.05-.958,1.188a.22.22,0,0,1-.173.083m1.083-1.6a.032.032,0,0,0-.024.012l-1.083,1.345a.031.031,0,0,0,0,.044.031.031,0,0,0,.02.007.033.033,0,0,0,.024-.011l1.011-1.256a.1.1,0,0,1,.126-.021l1.716,1.1a.03.03,0,0,0,.024,0,.03.03,0,0,0,.019-.014.031.031,0,0,0,0-.023.029.029,0,0,0-.013-.02l-1.811-1.158a.031.031,0,0,0-.017,0" transform="translate(-2064.693 -133.81)"/>
            <path id="Trazado_210541" data-name="Trazado 210541" d="M2330.854,77.326a.108.108,0,0,1-.055-.048.192.192,0,0,1,.042-.222,4.127,4.127,0,0,1,1.411-.783,5.7,5.7,0,0,1,3.857.135.166.166,0,0,1-.11.3,5.5,5.5,0,0,0-3.7-.142,3.934,3.934,0,0,0-1.321.724.122.122,0,0,1-.124.033" transform="translate(-2106.081 -68.676)"/>
            <path id="Trazado_210542" data-name="Trazado 210542" d="M2329.989,76.524a.193.193,0,0,1-.067-.012h0a.2.2,0,0,1-.1-.09.287.287,0,0,1,.058-.34,4.254,4.254,0,0,1,1.445-.8,5.8,5.8,0,0,1,3.922.136.209.209,0,0,1,.125.136.272.272,0,0,1-.006.182.241.241,0,0,1-.3.166,5.406,5.406,0,0,0-3.635-.141,3.887,3.887,0,0,0-1.287.7.225.225,0,0,1-.155.065m3.035-1.33a5.064,5.064,0,0,0-1.642.266,4.04,4.04,0,0,0-1.376.763.1.1,0,0,0-.024.1l-.029.1.032-.091a.038.038,0,0,0,.026-.013,4.016,4.016,0,0,1,1.356-.745,5.6,5.6,0,0,1,3.763.142c.007,0,.035-.012.049-.051a.093.093,0,0,0,0-.057c0-.009-.006-.013-.008-.013a6.256,6.256,0,0,0-2.151-.4" transform="translate(-2105.181 -67.771)"/>
            <path id="Trazado_210543" data-name="Trazado 210543" d="M2206.07,84.222a.107.107,0,0,0,.055-.048.189.189,0,0,0-.042-.222,4.11,4.11,0,0,0-1.41-.784,5.7,5.7,0,0,0-3.857.135.166.166,0,0,0,.11.3,5.5,5.5,0,0,1,3.7-.142,3.929,3.929,0,0,1,1.322.724.121.121,0,0,0,.124.033" transform="translate(-1988.579 -74.907)"/>
            <path id="Trazado_210544" data-name="Trazado 210544" d="M2205.132,83.42a.225.225,0,0,1-.155-.065,3.87,3.87,0,0,0-1.287-.7,5.405,5.405,0,0,0-3.635.141.242.242,0,0,1-.3-.166.283.283,0,0,1-.006-.182.209.209,0,0,1,.126-.136,5.8,5.8,0,0,1,3.921-.136,4.224,4.224,0,0,1,1.445.8.287.287,0,0,1,.059.34.2.2,0,0,1-.105.09h0a.2.2,0,0,1-.068.012m.035-.1h0Zm-3.027-1.106a5.035,5.035,0,0,1,1.613.258,4.035,4.035,0,0,1,1.357.745c.012.011.021.013.024.013s0,0,0-.005a.1.1,0,0,0-.024-.1,4.019,4.019,0,0,0-1.376-.763,5.606,5.606,0,0,0-3.793.135.029.029,0,0,0-.008.013.1.1,0,0,0,0,.057c.015.039.044.053.05.051a6.243,6.243,0,0,1,2.15-.4" transform="translate(-1987.675 -74.003)"/>
            <path id="Trazado_210545" data-name="Trazado 210545" d="M2430.917,146.7a.123.123,0,0,1-.062-.016.127.127,0,0,1-.051-.173,4.3,4.3,0,0,1,2.105-2,2.84,2.84,0,0,1,1.153-.236.128.128,0,0,1-.017.255,2.651,2.651,0,0,0-1.052.223,4.057,4.057,0,0,0-1.966,1.883.125.125,0,0,1-.111.066" transform="translate(-2196.448 -130.366)"/>
            <path id="Trazado_210546" data-name="Trazado 210546" d="M2430.013,145.9a.224.224,0,0,1-.2-.332,4.388,4.388,0,0,1,2.153-2.044,2.931,2.931,0,0,1,1.194-.243.224.224,0,1,1-.03.447,2.592,2.592,0,0,0-1.009.216,3.963,3.963,0,0,0-1.917,1.84.223.223,0,0,1-.2.116m3.092-2.428a2.91,2.91,0,0,0-1.063.23,4.2,4.2,0,0,0-2.057,1.959.031.031,0,0,0,.012.042.031.031,0,0,0,.043-.012,4.146,4.146,0,0,1,2.013-1.925,2.71,2.71,0,0,1,1.094-.23.031.031,0,0,0,.022-.007.033.033,0,0,0,.011-.022.034.034,0,0,0-.008-.023.031.031,0,0,0-.022-.011h-.047" transform="translate(-2195.545 -129.464)"/>
            <path id="Trazado_210547" data-name="Trazado 210547" d="M2437.346,161.79a.128.128,0,0,1-.106-.057l-1.268-1.916a.128.128,0,0,1,.214-.141l1.267,1.916a.128.128,0,0,1-.036.177.126.126,0,0,1-.07.021" transform="translate(-2201.112 -144.231)"/>
            <path id="Trazado_210548" data-name="Trazado 210548" d="M2436.443,160.981a.224.224,0,0,1-.188-.1l-1.266-1.915a.221.221,0,0,1-.033-.168.224.224,0,0,1,.1-.142.22.22,0,0,1,.168-.033.224.224,0,0,1,.142.1l1.267,1.915a.224.224,0,0,1-.064.31.22.22,0,0,1-.123.037m-1.268-2.171a.026.026,0,0,0-.016.005.033.033,0,0,0-.014.02.03.03,0,0,0,.005.023l1.266,1.916a.027.027,0,0,0,.043.009.031.031,0,0,0,.009-.043l-1.266-1.916a.031.031,0,0,0-.02-.013h-.007" transform="translate(-2200.209 -143.327)"/>
            <path id="Trazado_210549" data-name="Trazado 210549" d="M2144.3,160.445a.122.122,0,0,0,.06-.016.127.127,0,0,0,.051-.173,4.3,4.3,0,0,0-2.105-2,2.838,2.838,0,0,0-1.152-.236.127.127,0,0,0,.015.255,2.649,2.649,0,0,1,1.052.223,4.05,4.05,0,0,1,1.966,1.883.127.127,0,0,0,.112.066" transform="translate(-1934.632 -142.783)"/>
            <path id="Trazado_210550" data-name="Trazado 210550" d="M2143.4,159.638a.222.222,0,0,1-.2-.116,3.958,3.958,0,0,0-1.919-1.84,2.58,2.58,0,0,0-1.01-.216.22.22,0,0,1-.161-.055.228.228,0,0,1-.076-.155.225.225,0,0,1,.056-.162.221.221,0,0,1,.154-.075,2.931,2.931,0,0,1,1.194.243,4.386,4.386,0,0,1,2.154,2.044.218.218,0,0,1,.019.17.222.222,0,0,1-.107.134.227.227,0,0,1-.108.028m-3.09-2.366a2.837,2.837,0,0,1,1.049.231,4.148,4.148,0,0,1,2.014,1.926.03.03,0,0,0,.042.012.036.036,0,0,0,.015-.019.035.035,0,0,0,0-.024,4.2,4.2,0,0,0-2.057-1.959,2.778,2.778,0,0,0-1.109-.229.029.029,0,0,0-.021.011.032.032,0,0,0,0,.044.031.031,0,0,0,.022.007h.047" transform="translate(-1933.727 -141.88)"/>
            <path id="Trazado_210551" data-name="Trazado 210551" d="M2155.4,175.531a.126.126,0,0,0,.106-.057l1.268-1.915a.128.128,0,0,0-.036-.177.127.127,0,0,0-.176.036l-1.267,1.916a.127.127,0,0,0,.035.177.13.13,0,0,0,.071.021" transform="translate(-1947.496 -156.648)"/>
            <path id="Trazado_210552" data-name="Trazado 210552" d="M2154.5,174.723a.225.225,0,0,1-.187-.348l1.268-1.915a.224.224,0,0,1,.406.079.218.218,0,0,1-.033.168l-1.266,1.916a.223.223,0,0,1-.187.1m1.267-2.171h-.006a.035.035,0,0,0-.02.013l-1.267,1.916a.031.031,0,0,0,.009.043.032.032,0,0,0,.043-.009l1.266-1.915a.029.029,0,0,0,.005-.023.034.034,0,0,0-.014-.02.028.028,0,0,0-.017-.005" transform="translate(-1946.593 -155.743)"/>
            <path id="Trazado_210553" data-name="Trazado 210553" d="M2335.149,108.543s-.021-7.812,7.339-3.324c0,0-1.564,5.366-7.339,3.324" transform="translate(-2110.028 -93.819)" fill="#fff"/>
            <path id="Trazado_210554" data-name="Trazado 210554" d="M2342.165,104.209c-3.586-1.323-4.751,1.1-5.129,2.824a3.066,3.066,0,0,0,1.226,1.882,4.846,4.846,0,0,0,4.693-1.547,3.062,3.062,0,0,0-.79-3.159" transform="translate(-2111.733 -93.82)"/>
            <path id="Trazado_210555" data-name="Trazado 210555" d="M2188.537,116.69s-.884-7.762-7.675-2.451c0,0,2.177,5.149,7.675,2.451" transform="translate(-1970.615 -101.547)" fill="#fff"/>
            <path id="Trazado_210556" data-name="Trazado 210556" d="M2193.991,113c3.408-1.73,4.847.541,5.422,2.21a3.07,3.07,0,0,1-1,2.011,4.847,4.847,0,0,1-4.842-.992,3.066,3.066,0,0,1,.419-3.229" transform="translate(-1981.846 -101.548)"/>
            <path id="Trazado_210557" data-name="Trazado 210557" d="M2743.112,530,2732.225,500.6l-7.411,1.837,9,31.286Z" transform="translate(-2462.127 -452.342)" fill="#ea8271"/>
            <path id="Trazado_210558" data-name="Trazado 210558" d="M2697.781,409.351l-1.71-5.4a4.551,4.551,0,0,0,.811-2.83c-.126-1.593-1.1-8-1.1-8l-10.936,1.986s2.419,8.733,3.566,10.519a24.382,24.382,0,0,1,2.091,5.3Z" transform="translate(-2426.012 -355.221)" fill="#ea8271"/>
            <path id="Trazado_210559" data-name="Trazado 210559" d="M2627.671,422.228s-5.476-2.027-7.357-4.455c-1.6-2.071-2.553-3.861-3.357-4.907a.7.7,0,0,1,.1-.953,1.509,1.509,0,0,1,1.9-.144,11.658,11.658,0,0,1,2.471,2.392c.653.934,3.795,1.25,3.795,1.25Z" transform="translate(-2364.541 -371.826)" fill="#ea8271"/>
            <path id="Trazado_210560" data-name="Trazado 210560" d="M2655.1,312.072l-3.264-9.72a1.286,1.286,0,0,1,.924-1.6,1.3,1.3,0,0,1,1.638.722l3.536,9.766Z" transform="translate(-2396.126 -271.695)" fill="#ea8271"/>
            <path id="Trazado_210561" data-name="Trazado 210561" d="M2693.618,295.877l-2.353-10.657a1.37,1.37,0,0,1,1.079-1.614,1.3,1.3,0,0,1,1.552.968l2.518,10.9Z" transform="translate(-2431.785 -256.239)" fill="#ea8271"/>
            <path id="Trazado_210562" data-name="Trazado 210562" d="M2739.919,303.2l-.426-9.59a1.334,1.334,0,0,1,1.341-1.273,1.2,1.2,0,0,1,1.347,1.038l.542,9.825Z" transform="translate(-2475.391 -264.153)" fill="#ea8271"/>
            <path id="Trazado_210563" data-name="Trazado 210563" d="M2774.829,324.9l.676-7.326a1.066,1.066,0,0,1,1.183-.845.918.918,0,0,1,.947.912l-.608,7.516Z" transform="translate(-2507.321 -286.195)" fill="#ea8271"/>
            <path id="Trazado_210564" data-name="Trazado 210564" d="M2697.971,397.434a.215.215,0,0,1-.076-.417,25.49,25.49,0,0,1,8.49-1.261.215.215,0,0,1,0,.43h0a25.016,25.016,0,0,0-8.332,1.234.2.2,0,0,1-.074.014" transform="translate(-2437.677 -357.599)"/>
            <path id="Trazado_210565" data-name="Trazado 210565" d="M2280.031,192.7s-4.827-1.369-7.03,1.348c0,0,3.12,2.929,7.03-1.348" transform="translate(-2053.872 -173.81)"/>
            <path id="Trazado_210566" data-name="Trazado 210566" d="M2274.689,196.713a4.183,4.183,0,0,0-1.687,1.229s2.626,2.46,6.077-.433c-.021-.019-1.231-1.079-4.389-.8" transform="translate(-2053.872 -177.706)" fill="#fe3a01"/>
            <path id="Trazado_210567" data-name="Trazado 210567" d="M1738.5,1203.868s-3.621,6.953-3.356,14.286c.2,5.534,2.8,7.647,4.065,8.351a.842.842,0,0,0,1.085-.237,1.5,1.5,0,0,0,.044-1.71,12.048,12.048,0,0,1-1.37-3c-.834-2.678,3.391-6.429,5-10.193,2.567-6-2.328-5.136-2.328-5.136Z" transform="translate(-1567.854 -1087.809)" fill="#ea8271"/>
            <path id="Trazado_210568" data-name="Trazado 210568" d="M1729.967,1223.817s-3.622,6.953-3.356,14.286c.187,5.161,2.462,7.346,3.793,8.188a1.135,1.135,0,0,0,1.517-.29,1.112,1.112,0,0,0,.018-1.3,11.65,11.65,0,0,1-1.5-3.2c-.835-2.677.24-7.477.24-7.477l2.432-7.852Z" transform="translate(-1560.144 -1105.835)" fill="#ea8271"/>
            <path id="Trazado_210569" data-name="Trazado 210569" d="M1716.025,1220.2s-5.826,6.578-6.8,14.719c-.765,6.365,2.385,9.452,3.8,10.5a1,1,0,0,0,1.215-.021,1.531,1.531,0,0,0,.415-1.891,13.682,13.682,0,0,1-1.2-3.719c-.576-3.189,1.645-8.15,1.645-8.15l4.482-7.916Z" transform="translate(-1544.336 -1102.563)" fill="#ea8271"/>
            <path id="Trazado_210570" data-name="Trazado 210570" d="M1701.686,1206.643s-6.053,6.847-7.032,14.988c-.768,6.386,2.406,9.472,3.81,10.506a.98.98,0,0,0,1.188-.021,1.554,1.554,0,0,0,.42-1.917,13.7,13.7,0,0,1-1.191-3.7c-.576-3.19,1.645-8.15,1.645-8.15l4.483-7.916Z" transform="translate(-1531.174 -1090.316)" fill="#ea8271"/>
            <path id="Trazado_210571" data-name="Trazado 210571" d="M1738.53,1225.072s-3.668,6.285-5.162,9.78-2.543,3.326-3.625,2.8c-1.716-.838-.383-4.221.513-6.313s.062-2.725.062-2.725l6.276-6.8Z" transform="translate(-1562.235 -1104.026)" fill="#ea8271"/>
            <path id="Trazado_210572" data-name="Trazado 210572" d="M1727.826,1266.734a2.518,2.518,0,0,1-1.088-.311c-1.76-.86-.923-3.682-.251-5.949.045-.151.089-.3.131-.444a10.927,10.927,0,0,0,.58-2.823.207.207,0,0,1,.414-.019,10.793,10.793,0,0,1-.6,2.958c-.042.145-.086.294-.131.446-.595,2.005-1.409,4.752.036,5.458a1.583,1.583,0,0,0,1.285.2c.658-.245,1.331-1.191,2.059-2.892,1.482-3.467,5.137-9.74,5.174-9.8a.207.207,0,1,1,.358.208c-.036.063-3.678,6.314-5.151,9.757-.786,1.838-1.515,2.828-2.3,3.119a1.481,1.481,0,0,1-.523.095" transform="translate(-1559.322 -1132.613)"/>
            <path id="Trazado_210573" data-name="Trazado 210573" d="M1733.922,1392.969a1.18,1.18,0,0,1-.7-.23.207.207,0,1,1,.246-.333.772.772,0,0,0,.936-.017,1.353,1.353,0,0,0,.363-1.661,14,14,0,0,1-1.209-3.76,8.542,8.542,0,0,1,0-2.591.207.207,0,0,1,.411.055,8.137,8.137,0,0,0,0,2.463,13.6,13.6,0,0,0,1.172,3.648,1.77,1.77,0,0,1-.476,2.173,1.188,1.188,0,0,1-.737.255" transform="translate(-1566.051 -1250.752)"/>
            <path id="Trazado_210574" data-name="Trazado 210574" d="M1751.668,1393.472a.207.207,0,0,1-.185-.114c-.064-.128-.137-.266-.217-.415a10.885,10.885,0,0,1-1.4-6.807.207.207,0,1,1,.408.07,10.978,10.978,0,0,0,.129,3.322,10.718,10.718,0,0,0,1.225,3.221c.082.152.156.293.221.422a.207.207,0,0,1-.185.3" transform="translate(-1581.092 -1252.349)"/>
            <path id="Trazado_210575" data-name="Trazado 210575" d="M1764.854,1380.517a.207.207,0,0,1-.16-.074,13.092,13.092,0,0,1-1.73-2.776,8.547,8.547,0,0,1-.331-3.822.207.207,0,0,1,.41.057,8.294,8.294,0,0,0,.3,3.6,12.842,12.842,0,0,0,1.668,2.675.207.207,0,0,1-.158.34" transform="translate(-1592.631 -1241.238)"/>
            <g id="Grupo_983698" data-name="Grupo 983698" transform="translate(166.968 130.206)" style="mix-blend-mode: overlay;isolation: isolate">
              <g id="Grupo_983697" data-name="Grupo 983697">
                <g id="Grupo_983696-2" data-name="Grupo 983696" clip-path="url(#clip-path-3)">
                  <path id="Trazado_210576" data-name="Trazado 210576" d="M1733.276,1353.922a1.282,1.282,0,0,1-.505-.1,1.711,1.711,0,0,1,1.33-3.112,1.353,1.353,0,0,1,.757.878,1.9,1.9,0,0,1-.931,2.176,1.453,1.453,0,0,1-.652.161m.321-2.9a1.288,1.288,0,0,0-1.117.835,1.178,1.178,0,0,0,.454,1.584.944.944,0,0,0,.807-.047,1.485,1.485,0,0,0,.721-1.685.944.944,0,0,0-.524-.616.864.864,0,0,0-.342-.069" transform="translate(-1731.942 -1350.606)"/>
                </g>
              </g>
            </g>
            <rect id="Rectángulo_338971" data-name="Rectángulo 338971" width="32.122" height="2.984" transform="translate(207.088 58.391)" fill="#fe3a01"/>
            <rect id="Rectángulo_338972" data-name="Rectángulo 338972" width="32.122" height="2.984" transform="translate(207.088 61.296)" fill="#ff8400"/>
            <rect id="Rectángulo_338973" data-name="Rectángulo 338973" width="32.122" height="2.984" transform="translate(207.088 64.2)" fill="#ffc849"/>
            <rect id="Rectángulo_338974" data-name="Rectángulo 338974" width="32.122" height="2.984" transform="translate(207.088 67.105)" fill="#51af55"/>
            <rect id="Rectángulo_338975" data-name="Rectángulo 338975" width="32.122" height="2.984" transform="translate(207.088 70.01)" fill="#3b82ff"/>
            <rect id="Rectángulo_338976" data-name="Rectángulo 338976" width="32.122" height="2.984" transform="translate(207.088 72.914)" fill="#b034c1"/>
            <path id="Trazado_210577" data-name="Trazado 210577" d="M2623.052,590.259a.293.293,0,0,1-.14-.036.288.288,0,0,1-.112-.393l11.042-19.9a.289.289,0,1,1,.506.281l-11.043,19.9a.289.289,0,0,1-.254.149" transform="translate(-2369.914 -514.854)"/>
            <path id="Trazado_210578" data-name="Trazado 210578" d="M1858.635,690.689a.288.288,0,0,1-.167-.053l-16.282-11.566a.289.289,0,1,1,.335-.472l16.282,11.566a.289.289,0,0,1-.168.525" transform="translate(-1664.479 -613.129)"/>
            <path id="Trazado_210579" data-name="Trazado 210579" d="M2730.282,545.79a.289.289,0,0,1-.277-.207l-9.33-31.309a.289.289,0,1,1,.554-.165l9.33,31.309a.289.289,0,0,1-.194.36.308.308,0,0,1-.083.012" transform="translate(-2458.377 -464.359)"/>
            <path id="Trazado_210580" data-name="Trazado 210580" d="M2559.624,687.741a.291.291,0,0,1-.285-.239l-1.305-7.431a.289.289,0,1,1,.569-.1l1.306,7.431a.289.289,0,0,1-.235.335.268.268,0,0,1-.05,0" transform="translate(-2311.421 -614.201)"/>
            <path id="Trazado_210581" data-name="Trazado 210581" d="M1765.833,1149.406l-1.347,4.752a.517.517,0,0,0,.282.611l6.568,3.008a.517.517,0,0,0,.694-.276l1.9-4.694a.517.517,0,0,0-.275-.668l-7.122-3.066a.517.517,0,0,0-.7.334" transform="translate(-1594.362 -1038.257)" fill="#fd521b"/>
            <path id="Trazado_210582" data-name="Trazado 210582" d="M1859.739,2554.747l4.706,18.209-35.714.069s-.634-8.03,2.666-9.863a65.741,65.741,0,0,1,9.648-3.77l4.491-6.1,4.713-.055,7.373,6.1Z" transform="translate(-1652.388 -2307.093)" fill="#5774cd"/>
            <path id="Trazado_210583" data-name="Trazado 210583" d="M1944.153,2530.4s.668-5.309,3.842-5.44,4.525,1.222,3.536,3.91-7.576,7.849-7.576,7.849l-3.814-2.137Z" transform="translate(-1753.102 -2281.534)" fill="#fd521b"/>
            <path id="Trazado_210584" data-name="Trazado 210584" d="M1864.444,2633.219l-1.1-4.249h-15.9a11.832,11.832,0,0,0-1.946-5.767,7.566,7.566,0,0,0-5.324-3.272,59.067,59.067,0,0,0-8.777,3.5c-1.632.905-2.3,3.328-2.562,5.544h-.023c-.026.285-.047.589-.062.9a24.979,24.979,0,0,0-.019,3.422h18.7c0-.012,0-.024,0-.036Z" transform="translate(-1652.386 -2367.356)" fill="#5774cd"/>
            <path id="Trazado_210585" data-name="Trazado 210585" d="M1954.321,2566.532h-8.482a.219.219,0,1,1,0-.438h7.208l-7.093-2.507a.219.219,0,0,1,.072-.425h10.533l-8.365-2.14a.219.219,0,0,1,.108-.424l10.047,2.57a.219.219,0,0,1-.054.431H1947.3l7.093,2.507a.219.219,0,0,1-.073.425" transform="translate(-1758.052 -2313.738)" fill="#fff"/>
            <path id="Trazado_210586" data-name="Trazado 210586" d="M2587.387,2549.141l-4.842,18.73,36.737.071s.652-8.26-2.743-10.144a67.493,67.493,0,0,0-9.922-3.878l-4.62-6.274-4.848-.056-7.585,6.272Z" transform="translate(-2333.575 -2301.989)" fill="#5774cd"/>
            <path id="Trazado_210587" data-name="Trazado 210587" d="M2732.47,2524.1s-.686-5.463-3.951-5.6-4.655,1.257-3.637,4.022,7.792,8.073,7.792,8.073l3.924-2.2Z" transform="translate(-2461.893 -2275.698)" fill="#fd521b"/>
            <path id="Trazado_210588" data-name="Trazado 210588" d="M2619.283,2717.088l-36.737-.069,1.13-4.371H2619.2a42.39,42.39,0,0,1,.084,4.44" transform="translate(-2333.575 -2451.134)" fill="#5774cd"/>
            <path id="Trazado_210589" data-name="Trazado 210589" d="M2764.9,2619.557a7.777,7.777,0,0,1,5.476-3.366,60.681,60.681,0,0,1,9.028,3.595c3.4,1.885,2.743,10.145,2.743,10.145h-19.234c-.3-2.455-.234-7.4,1.987-10.373" transform="translate(-2496.438 -2363.976)" fill="#5774cd"/>
            <path id="Trazado_210590" data-name="Trazado 210590" d="M2719.307,2561.264h-8.724a.225.225,0,0,1-.076-.437l7.3-2.579h-11.311a.225.225,0,0,1-.056-.443l10.336-2.643a.225.225,0,0,1,.111.435l-8.606,2.2h10.835a.225.225,0,0,1,.076.437l-7.3,2.579h7.414a.225.225,0,1,1,0,.449" transform="translate(-2445.371 -2308.825)" fill="#fff"/>
            <path id="Trazado_210591" data-name="Trazado 210591" d="M26.87,1473.9a28.684,28.684,0,0,0,2.222,12.68c2.071,4.394,4.9,5.2,6.16,5.333a.737.737,0,0,0,.793-.565,1.313,1.313,0,0,0-.554-1.395A10.539,10.539,0,0,1,33.35,1488c-1.6-1.871.517-6.355.517-9.946,0-5.727-3.649-3.339-3.649-3.339Z" transform="translate(-24.244 -1331.807)" fill="#ffc5b8"/>
            <path id="Trazado_210592" data-name="Trazado 210592" d="M26.87,1492.931a28.686,28.686,0,0,0,2.222,12.68c1.931,4.1,4.519,5.076,5.884,5.3a1,1,0,0,0,1.123-.757.975.975,0,0,0-.433-1.053,10.238,10.238,0,0,1-2.316-2.064c-1.6-1.872-2.385-6.114-2.385-6.114l-.747-7.171Z" transform="translate(-24.244 -1349.004)" fill="#ffc5b8"/>
            <path id="Trazado_210593" data-name="Trazado 210593" d="M30.241,1483.333s-2.43,7.315-.411,14.219c1.579,5.4,5.184,6.8,6.683,7.156a.877.877,0,0,0,.973-.437,1.343,1.343,0,0,0-.318-1.668,12.016,12.016,0,0,1-2.25-2.587c-1.564-2.374-1.485-7.141-1.485-7.141l.885-7.931Z" transform="translate(-26.23 -1340.332)" fill="#ffc5b8"/>
            <path id="Trazado_210594" data-name="Trazado 210594" d="M14.78,1479.678s-2.43,7.314-.411,14.218c1.584,5.415,5.208,6.81,6.7,7.16a.859.859,0,0,0,.951-.427,1.363,1.363,0,0,0-.323-1.691,12.028,12.028,0,0,1-2.238-2.576c-1.564-2.374-1.485-7.141-1.485-7.141l.885-7.931Z" transform="translate(-12.259 -1337.03)" fill="#ffc5b8"/>
            <path id="Trazado_210595" data-name="Trazado 210595" d="M41.71,1477.049s-.79,6.334-.79,9.669-.9,3.561-1.959,3.508c-1.673-.085-1.764-3.272-1.764-5.27s-.89-2.219-.89-2.219l2.717-7.647Z" transform="translate(-32.807 -1332.884)" fill="#ffc5b8"/>
            <path id="Trazado_210596" data-name="Trazado 210596" d="M37.478,1507.069c-.076,0-.152,0-.227-.006-1.716-.087-2.015-2.652-2.255-4.712-.016-.137-.032-.272-.048-.4a9.569,9.569,0,0,0-.506-2.476.182.182,0,0,1,.327-.159,9.462,9.462,0,0,1,.54,2.592c.016.131.032.267.048.4.212,1.823.5,4.32,1.912,4.391a1.387,1.387,0,0,0,1.105-.283c.446-.424.663-1.419.663-3.043,0-3.308.783-9.628.791-9.691a.182.182,0,1,1,.361.045c-.008.063-.789,6.361-.789,9.646,0,1.753-.247,2.8-.776,3.307a1.571,1.571,0,0,1-1.147.388" transform="translate(-31.106 -1349.54)"/>
            <path id="Trazado_210597" data-name="Trazado 210597" d="M66.6,1636.814a1.027,1.027,0,0,1-.236-.027.182.182,0,0,1,.083-.354.678.678,0,0,0,.749-.336,1.187,1.187,0,0,0-.28-1.466,12.267,12.267,0,0,1-2.273-2.615,7.487,7.487,0,0,1-.894-2.09.182.182,0,1,1,.35-.1,7.122,7.122,0,0,0,.847,1.987,11.932,11.932,0,0,0,2.2,2.539,1.552,1.552,0,0,1,.365,1.916,1.045,1.045,0,0,1-.916.544" transform="translate(-57.594 -1472.584)"/>
            <path id="Trazado_210598" data-name="Trazado 210598" d="M78.913,1632.1a.183.183,0,0,1-.117-.042c-.1-.081-.2-.167-.318-.26A9.545,9.545,0,0,1,75,1626.79a.182.182,0,0,1,.354-.083,9.629,9.629,0,0,0,1.25,2.634,9.4,9.4,0,0,0,2.1,2.176c.118.094.227.182.324.264a.182.182,0,0,1,.022.257.18.18,0,0,1-.139.065" transform="translate(-67.768 -1469.757)"/>
            <path id="Trazado_210599" data-name="Trazado 210599" d="M85.021,1617.129a.179.179,0,0,1-.082-.02,11.481,11.481,0,0,1-2.353-1.641A7.5,7.5,0,0,1,81,1612.5a.182.182,0,0,1,.351-.1,7.273,7.273,0,0,0,1.485,2.8,11.274,11.274,0,0,0,2.269,1.582.182.182,0,0,1-.083.344" transform="translate(-73.185 -1456.839)"/>
            <g id="Grupo_983701" data-name="Grupo 983701" transform="translate(5.041 154.106)" style="mix-blend-mode: overlay;isolation: isolate">
              <g id="Grupo_983700" data-name="Grupo 983700">
                <g id="Grupo_983699" data-name="Grupo 983699" clip-path="url(#clip-path-4)">
                  <path id="Trazado_210600" data-name="Trazado 210600" d="M53.567,1601.5a1.5,1.5,0,1,1,1.276-1.485,1.394,1.394,0,0,1-1.276,1.485m0-2.606a1.145,1.145,0,1,0,.913,1.121,1.034,1.034,0,0,0-.913-1.121" transform="translate(-52.291 -1598.531)"/>
                </g>
              </g>
            </g>
            <rect id="Rectángulo_338978" data-name="Rectángulo 338978" width="11.45" height="23.728" transform="translate(67.935 231.377)" fill="#fe3a01"/>
            <path id="Trazado_210601" data-name="Trazado 210601" d="M265.742,2406.452H254.9l-3.8,23.5h10.844Z" transform="translate(-226.894 -2174.458)" fill="#fe3a01"/>
            <path id="Trazado_210602" data-name="Trazado 210602" d="M200.079,1217.711l-16.225,117.6h28.378L224.3,1234.146l4.019.195.056,100.967h25.165l1-115.766Z" transform="translate(-166.13 -1100.317)"/>
            <path id="Trazado_210603" data-name="Trazado 210603" d="M812.149,1233.907a10.172,10.172,0,0,1-7.864-3.106c-3.725-4.067-3.2-10.586-3.172-10.862l.576.051c-.005.065-.528,6.545,3.024,10.423a9.622,9.622,0,0,0,7.436,2.916Z" transform="translate(-723.846 -1102.33)" fill="#fff"/>
            <path id="Trazado_210604" data-name="Trazado 210604" d="M337.875,1212.739v-.578a9.619,9.619,0,0,0,7.438-2.918c3.554-3.882,3.028-10.356,3.023-10.421l.576-.051c.024.275.552,6.794-3.172,10.862a10.172,10.172,0,0,1-7.864,3.106" transform="translate(-305.302 -1083.204)" fill="#fff"/>
            <path id="Trazado_210605" data-name="Trazado 210605" d="M72.436,443.621s17.668,2.454,24.545,9.331c9.165,9.165,21.418,30.2,21.106,37.038S107.9,512.5,93.168,503.191l-1.379,19.363-60.4-2.719.148-25.887S22.991,537.8,15.547,541.771-3.4,539.594.957,524.43c2.749-9.571,15.888-62.793,21.611-69.177s27.6-11.184,27.6-11.184Z" transform="translate(0 -400.854)" fill="#fea419"/>
            <path id="Trazado_210606" data-name="Trazado 210606" d="M468.81,369.1c8.369-.017,12.394,5.551,12.935,8.4,1.443,7.612-24.218,5.758-24.218,5.758S443.95,385.1,446.3,377.01c2.292-7.911,13.552-7.894,22.515-7.911" transform="translate(-403.024 -333.516)" fill="#fea419"/>
            <path id="Trazado_210607" data-name="Trazado 210607" d="M591.9,338.58V324.019h7.8v12.357l-6.183,3.555Z" transform="translate(-534.838 -292.782)" fill="#ffc5b8"/>
            <path id="Trazado_210608" data-name="Trazado 210608" d="M966.578,589.552a.152.152,0,0,1-.045-.007.155.155,0,0,1-.1-.193c.042-.138,4.19-13.844,6.831-17.874a.155.155,0,0,1,.26.17c-2.617,3.993-6.751,17.656-6.793,17.794a.155.155,0,0,1-.149.11" transform="translate(-873.255 -516.321)"/>
            <path id="Trazado_210609" data-name="Trazado 210609" d="M964.77,587.936a.348.348,0,0,1-.333-.449c.042-.138,4.2-13.878,6.854-17.924a.348.348,0,1,1,.582.381c-2.608,3.98-6.728,17.606-6.769,17.743a.346.346,0,0,1-.333.248" transform="translate(-871.446 -514.512)"/>
            <path id="Trazado_210610" data-name="Trazado 210610" d="M249.8,560.439a.155.155,0,0,1-.139-.086l-5.277-10.571a.155.155,0,1,1,.278-.139l5.277,10.571a.155.155,0,0,1-.139.225" transform="translate(-220.811 -496.577)"/>
            <path id="Trazado_210611" data-name="Trazado 210611" d="M248.447,559.227a.3.3,0,0,1-.268-.166L242.9,548.489a.3.3,0,0,1,.134-.4.3.3,0,0,1,.4.134l5.277,10.571a.3.3,0,0,1-.268.434m-5.277-10.881h0a.011.011,0,0,0,0,.014l5.277,10.571c.005.011.011.006.014,0a.011.011,0,0,0,0-.014l-5.277-10.571a.012.012,0,0,0-.01-.006" transform="translate(-219.457 -495.22)"/>
            <path id="Trazado_210612" data-name="Trazado 210612" d="M460.161,462.731l-.024,0c-.115-.021-11.86-1.095-14.952-7.291l.321-.136c1.572,3.15,5.358,4.494,8.3,5.657a24.782,24.782,0,0,0,6.379,1.446,37.228,37.228,0,0,0,15.924-4.522,17.625,17.625,0,0,0,4.655-3.652l.286.191a17.556,17.556,0,0,1-4.734,3.725,37.575,37.575,0,0,1-16.127,4.584Z" transform="translate(-402.267 -410.439)"/>
            <path id="Trazado_210613" data-name="Trazado 210613" d="M458.805,461.52l-.024,0-.024,0-.047-.005a34.75,34.75,0,0,1-6.691-1.444c-4.256-1.395-7.055-3.386-8.319-5.919a.145.145,0,0,1,.073-.2l.321-.136a.145.145,0,0,1,.186.069c1.463,2.931,4.943,4.3,7.739,5.4l.48.189a23.692,23.692,0,0,0,6.074,1.405c.127.014.21.022.258.03a37.067,37.067,0,0,0,15.845-4.5,17.618,17.618,0,0,0,4.615-3.617.145.145,0,0,1,.193-.03l.286.191a.145.145,0,0,1,.033.21,17.669,17.669,0,0,1-4.774,3.76,37.723,37.723,0,0,1-16.189,4.6l-.024,0h-.011m-14.776-7.367c1.261,2.4,3.978,4.292,8.08,5.636a34.422,34.422,0,0,0,6.633,1.432l.065.008h.012a37.434,37.434,0,0,0,16.066-4.565,18.384,18.384,0,0,0,4.592-3.569l-.045-.03a18.723,18.723,0,0,1-4.609,3.585,37.367,37.367,0,0,1-15.986,4.541.146.146,0,0,1-.038,0c-.033-.006-.132-.017-.256-.03a23.963,23.963,0,0,1-6.15-1.424l-.479-.189c-2.8-1.1-6.285-2.47-7.83-5.416Z" transform="translate(-400.911 -409.084)"/>
            <rect id="Rectángulo_338979" data-name="Rectángulo 338979" width="16.101" height="0.326" transform="translate(56.181 48.59) rotate(-30.773)"/>
            <path id="Trazado_210614" data-name="Trazado 210614" d="M581.6,425.833a.143.143,0,0,1-.036,0,.145.145,0,0,1-.089-.066l-.167-.28a.145.145,0,0,1,.05-.2l13.828-8.248a.145.145,0,0,1,.2.05l.167.28a.144.144,0,0,1-.05.2l-13.828,8.248a.144.144,0,0,1-.074.02m.031-.374.019.031,13.58-8.1-.018-.031Z" transform="translate(-525.253 -376.814)"/>
            <rect id="Rectángulo_338980" data-name="Rectángulo 338980" width="0.325" height="9.618" transform="matrix(0.631, -0.776, 0.776, 0.631, 51.228, 41.287)"/>
            <path id="Trazado_210615" data-name="Trazado 210615" d="M537.49,430.757a.146.146,0,0,1-.091-.032l-7.464-6.067a.145.145,0,0,1-.021-.2l.205-.252a.145.145,0,0,1,.2-.021l7.464,6.067a.144.144,0,0,1,.021.2l-.205.253a.144.144,0,0,1-.112.053m-7.26-6.233,7.239,5.885.023-.028-7.239-5.884Z" transform="translate(-478.799 -383.259)"/>
            <path id="Trazado_210616" data-name="Trazado 210616" d="M591.9,359.764v-3.15h7.8v4.3a18.578,18.578,0,0,1-7.8-1.147" transform="translate(-534.838 -322.235)"/>
            <path id="Trazado_210617" data-name="Trazado 210617" d="M502.2,107.8c0,7.767,6.02,14.063,13.447,14.063s13.447-6.3,13.447-14.063-6.02-14.063-13.447-14.063S502.2,100.031,502.2,107.8" transform="translate(-453.788 -84.699)" fill="#ffc5b8"/>
            <path id="Trazado_210618" data-name="Trazado 210618" d="M536.867,197.943s-3.3-7.174-8.458-1.692c0,0,2.9,7.7,8.458,1.692" transform="translate(-477.467 -175.467)" fill="#fff"/>
            <path id="Trazado_210619" data-name="Trazado 210619" d="M671.764,198.833s3.38-7.136,8.477-1.595c0,0-2.987,7.67-8.477,1.595" transform="translate(-607.002 -176.319)" fill="#fff"/>
            <path id="Trazado_210620" data-name="Trazado 210620" d="M631.451,244.989a.134.134,0,0,0,.113-.206l-1.391-2.2a.135.135,0,0,0-.109-.062.124.124,0,0,0-.113.055l-1.473,2.022a.134.134,0,1,0,.217.158l1.357-1.863,1.286,2.029a.134.134,0,0,0,.113.062" transform="translate(-567.866 -219.144)"/>
            <path id="Trazado_210621" data-name="Trazado 210621" d="M631,244.585a.182.182,0,0,1-.154-.085l-1.248-1.969-1.315,1.806a.184.184,0,0,1-.255.04.182.182,0,0,1-.04-.255l1.473-2.022a.17.17,0,0,1,.157-.075.18.18,0,0,1,.145.084l1.391,2.2a.183.183,0,0,1-.056.252.18.18,0,0,1-.1.028m-1.4-2.187h0a.048.048,0,0,1,.039.022l1.286,2.029a.088.088,0,0,0,.119.027.087.087,0,0,0,.027-.119l-1.392-2.2a.086.086,0,0,0-.07-.04.082.082,0,0,0-.072.035l-1.473,2.022a.086.086,0,0,0,.019.12.087.087,0,0,0,.121-.019l1.357-1.863a.048.048,0,0,1,.039-.02" transform="translate(-567.414 -218.692)"/>
            <path id="Trazado_210622" data-name="Trazado 210622" d="M547.063,169.218a.4.4,0,0,0,.219-.741,7.1,7.1,0,0,0-6.075-.35.4.4,0,0,0,.278.756,6.3,6.3,0,0,1,5.362.272.4.4,0,0,0,.216.063" transform="translate(-488.793 -151.466)"/>
            <path id="Trazado_210623" data-name="Trazado 210623" d="M682.962,172.563a.4.4,0,0,0,.186-.76,7.03,7.03,0,0,0-5.1-.663.4.4,0,0,0,.247.767,6.349,6.349,0,0,1,4.48.611.4.4,0,0,0,.186.046" transform="translate(-612.43 -154.452)"/>
            <path id="Trazado_210624" data-name="Trazado 210624" d="M540.021,198.529A3.677,3.677,0,0,1,539.79,197a3.569,3.569,0,0,1,1.183-2.472c2.138-.941,3.813.234,4.875,1.455a3.7,3.7,0,0,1,.182,1.394,3.594,3.594,0,0,1-1.012,2.313c-2.269,1.253-3.943.126-5-1.164" transform="translate(-487.745 -175.469)"/>
            <path id="Trazado_210625" data-name="Trazado 210625" d="M685.6,198.057a3.676,3.676,0,0,1,.424-1.508,3.882,3.882,0,0,1,4.889-.769,3.561,3.561,0,0,1,.927,2.654,3.781,3.781,0,0,1-.1.673c-1,1.368-2.717,2.859-5.029,1.782a3.533,3.533,0,0,1-1.109-2.832" transform="translate(-619.496 -176.399)"/>
            <path id="Trazado_210626" data-name="Trazado 210626" d="M479.24,226.217a3.216,3.216,0,0,1-2.967,3.466,3.261,3.261,0,0,1-3.312-3.176,3.216,3.216,0,0,1,2.967-3.466,3.261,3.261,0,0,1,3.313,3.176" transform="translate(-427.36 -201.536)" fill="#ffc5b8"/>
            <path id="Trazado_210627" data-name="Trazado 210627" d="M483.2,241.444l.023,0a.134.134,0,0,0,.109-.155,3.306,3.306,0,0,0-2.042-2.292.134.134,0,0,0-.093.252,3.091,3.091,0,0,1,1.87,2.086.134.134,0,0,0,.132.111" transform="translate(-434.728 -215.946)"/>
            <path id="Trazado_210628" data-name="Trazado 210628" d="M488.532,255.211a.135.135,0,0,0,.121-.077l.86-1.81a.134.134,0,0,0-.243-.115l-.859,1.81a.134.134,0,0,0,.121.192" transform="translate(-441.314 -228.729)"/>
            <path id="Trazado_210629" data-name="Trazado 210629" d="M745.929,222.785a3.1,3.1,0,1,0,2.914-3.466,3.229,3.229,0,0,0-2.914,3.466" transform="translate(-674.013 -198.173)" fill="#ffc5b8"/>
            <path id="Trazado_210630" data-name="Trazado 210630" d="M778.94,235.353a.135.135,0,0,0,.132-.109,2.745,2.745,0,0,1,1.682-2.033.134.134,0,0,0-.084-.255,2.976,2.976,0,0,0-1.862,2.237.134.134,0,0,0,.106.158l.026,0" transform="translate(-703.725 -210.492)"/>
            <path id="Trazado_210631" data-name="Trazado 210631" d="M781.9,250.958a.133.133,0,0,0,.074-.022.134.134,0,0,0,.038-.186l-1.12-1.695a.134.134,0,0,0-.224.148l1.12,1.695a.134.134,0,0,0,.112.06" transform="translate(-705.39 -224.99)"/>
            <path id="Trazado_210632" data-name="Trazado 210632" d="M591.464,302.951s5.346-1.289,7.64,1.782c0,0-3.545,3.071-7.64-1.782" transform="translate(-534.444 -273.503)"/>
            <path id="Trazado_210633" data-name="Trazado 210633" d="M515.65,93.735c7.426,0,13.447,6.3,13.447,14.063,0,.186-.007.37-.013.554-.05-.13-2.1-5.413-4.531-7.088l-5.534-.687-1.331-2.794-.31,2.68-4.038-.125-.749-2.106-1,2.106a50.465,50.465,0,0,0-5.573.444l-.379-1.175s-3.031,4.173-3.43,8.191c0-7.767,6.02-14.063,13.447-14.063" transform="translate(-453.788 -84.699)" fill="#fd521b"/>
            <path id="Trazado_210634" data-name="Trazado 210634" d="M668.332,75.918a2.23,2.23,0,0,1,.1.634,2.792,2.792,0,0,1-2.976,2.561,3.024,3.024,0,0,1-2.635-1.317,6.846,6.846,0,0,0,1.266.065,4.861,4.861,0,0,0,4.25-1.943" transform="translate(-598.917 -68.599)" fill="#fd521b"/>
            <path id="Trazado_210635" data-name="Trazado 210635" d="M606.709,308.231a4.579,4.579,0,0,1,1.8,1.42s-2.983,2.579-6.637-.739c.024-.019,1.4-1.128,4.842-.681" transform="translate(-543.844 -278.421)" fill="#fe3a01"/>
            <path id="Trazado_210636" data-name="Trazado 210636" d="M1099.109,379.946l0-5.92a8.542,8.542,0,0,0,.964-2.6c.289-1.505,1.032-7.678,1.032-7.678l-10.329-1.012s-.032,8.7.548,10.648a22.7,22.7,0,0,1,.381,5.7Z" transform="translate(-985.621 -327.767)" fill="#ffc5b8"/>
            <path id="Trazado_210637" data-name="Trazado 210637" d="M1042.81,363.566s-4.765-3.294-5.926-6.026c-.991-2.33-1.423-4.231-1.918-5.406a.665.665,0,0,1,.36-.854,1.575,1.575,0,0,1,1.888.36,11.079,11.079,0,0,1,1.745,2.852c.379,1.033,3.344,2.14,3.344,2.14Z" transform="translate(-935.146 -317.264)" fill="#ffc5b8"/>
            <path id="Trazado_210638" data-name="Trazado 210638" d="M1086.271,264.039l-.479-9.831a1.216,1.216,0,0,1,1.235-1.242,1.229,1.229,0,0,1,1.29,1.093l.711,9.944Z" transform="translate(-981.114 -228.578)" fill="#ffc5b8"/>
            <path id="Trazado_210639" data-name="Trazado 210639" d="M1119.389,259.056l.576-10.459a1.289,1.289,0,0,1,1.378-1.211,1.241,1.241,0,0,1,1.151,1.3l-.49,10.73Z" transform="translate(-1011.474 -223.533)" fill="#ffc5b8"/>
            <path id="Trazado_210640" data-name="Trazado 210640" d="M1147.224,273.454l.779-9.168a1.238,1.238,0,0,1,1.4-1.031,1.15,1.15,0,0,1,1.121,1.166l-.7,9.407Z" transform="translate(-1036.625 -237.871)" fill="#ffc5b8"/>
            <path id="Trazado_210641" data-name="Trazado 210641" d="M1174.722,308l2.457-6.593a.983.983,0,0,1,1.277-.473.886.886,0,0,1,.621,1.089l-2.443,6.786Z" transform="translate(-1061.473 -271.854)" fill="#ffc5b8"/>
            <path id="Trazado_210642" data-name="Trazado 210642" d="M1119.757,410.833h-.021a.221.221,0,0,1-.2-.24c.33-3.478-2.658-5.725-2.688-5.747a.22.22,0,0,1,.261-.355,7.31,7.31,0,0,1,2.866,6.143.22.22,0,0,1-.219.2" transform="translate(-1009.098 -365.457)"/>
            <path id="Trazado_210643" data-name="Trazado 210643" d="M1016.93,559.963s8.9-26.384-1.535-36.192l.072-7.369-10.255-.036-.823,5.342s-4.86,2.743-5.813,11.439S996.09,563.7,996.09,563.7Z" transform="translate(-900.062 -466.586)" fill="#fea419"/>
            <path id="Trazado_210644" data-name="Trazado 210644" d="M2.7,1396.215,0,1405.8l11.409,1.525,2.613-8.493Z" transform="translate(0 -1261.613)" fill="#fea419"/>
            <path id="Trazado_210645" data-name="Trazado 210645" d="M661.056,2498.775l12.6.286,1.431,8.3,4.137,5.426s6.445,1,7.385,5.152.159,5.894.159,5.894H657.828a84.885,84.885,0,0,1,1.789-13.681c.8-4.333,1.439-11.378,1.439-11.378" transform="translate(-594.41 -2257.88)" fill="#5774cd"/>
            <path id="Trazado_210646" data-name="Trazado 210646" d="M127.792,2512.524l-13.823.271-1.571,7.863-4.54,5.14s-7.073.948-8.1,4.88-.174,5.581-.174,5.581h28.811c-.244-5.661-.665-8.576-.814-12.507-.159-4.194.217-11.227.217-11.227" transform="translate(-89.676 -2270.303)" fill="#5774cd"/>
            <path id="Trazado_210647" data-name="Trazado 210647" d="M127.3,2720.019H98.451a.2.2,0,1,1,0-.4H127.3a.2.2,0,1,1,0,.4" transform="translate(-88.779 -2457.434)"/>
            <path id="Trazado_210648" data-name="Trazado 210648" d="M687.392,2717.858H658.4a.211.211,0,1,1,0-.422h28.994a.211.211,0,1,1,0,.422" transform="translate(-594.734 -2455.462)"/>
            <path id="Trazado_210649" data-name="Trazado 210649" d="M694.285,2520.951l3.864-21.2h-2.862Z" transform="translate(-627.352 -2258.765)"/>
            <path id="Trazado_210650" data-name="Trazado 210650" d="M342.921,2513.45l-.813,20.076-2.442-20.06Z" transform="translate(-306.92 -2271.14)"/>
            <path id="Trazado_210651" data-name="Trazado 210651" d="M821.465,2640.545a.212.212,0,0,1-.069-.412,12.475,12.475,0,0,1,4.266-.408c1.369.05,2.47.2,2.481.2a.211.211,0,1,1-.057.418c-.043-.006-4.319-.58-6.551.188a.223.223,0,0,1-.069.012" transform="translate(-742.081 -2385.227)"/>
            <path id="Trazado_210652" data-name="Trazado 210652" d="M181.516,2647.885H181.5a59.473,59.473,0,0,0-8.975-.187.2.2,0,0,1-.03-.4,60.129,60.129,0,0,1,9.042.188.2.2,0,0,1-.018.4" transform="translate(-155.696 -2392.005)"/>
            <path id="Trazado_210653" data-name="Trazado 210653" d="M930.229,938.647a11.827,11.827,0,0,1-2.5-3.584,18.687,18.687,0,0,1-1.407-10.892l.573.083a18.124,18.124,0,0,0,1.342,10.53,11.536,11.536,0,0,0,2.373,3.428Z" transform="translate(-836.805 -835.076)"/>
            <rect id="Rectángulo_338981" data-name="Rectángulo 338981" width="0.578" height="9.323" transform="matrix(0.159, -0.987, 0.987, 0.159, 107.257, 55.938)"/>
            <rect id="Rectángulo_338982" data-name="Rectángulo 338982" width="0.578" height="9.358" transform="matrix(0.379, -0.926, 0.926, 0.379, 4.762, 138.899)"/>
            <rect id="Rectángulo_338983" data-name="Rectángulo 338983" width="28.219" height="0.578" transform="translate(18.896 226.209)" fill="#fff"/>
            <rect id="Rectángulo_338984" data-name="Rectángulo 338984" width="25.453" height="0.578" transform="translate(62.238 224.749)" fill="#fff"/>
            <path id="Trazado_210654" data-name="Trazado 210654" d="M2950.418,440.521l.106-5.413a4.345,4.345,0,0,1-1.509-2.374c-.315-1.494-1.157-7.628-1.157-7.628l10.558-1.139s.147,8.657-.42,10.6a15.517,15.517,0,0,0,.033,5.381Z" transform="translate(-2663.669 -383.095)" fill="#a9543d"/>
            <path id="Trazado_210655" data-name="Trazado 210655" d="M3046.061,419.018s4.469-3.339,5.535-6.073c.91-2.332,1.3-4.229,1.75-5.405a.673.673,0,0,0-.353-.845,1.44,1.44,0,0,0-1.781.383,11.128,11.128,0,0,0-1.616,2.86c-.346,1.033-3.139,2.172-3.139,2.172Z" transform="translate(-2752.405 -367.346)" fill="#a9543d"/>
            <path id="Trazado_210656" data-name="Trazado 210656" d="M3031,325.837l.361-9.79a1.229,1.229,0,0,0-1.281-1.221,1.245,1.245,0,0,0-1.3,1.1l-.6,9.906Z" transform="translate(-2736.244 -284.476)" fill="#a9543d"/>
            <path id="Trazado_210657" data-name="Trazado 210657" d="M2997.1,321.374l-.729-10.4a1.306,1.306,0,0,0-1.424-1.187,1.247,1.247,0,0,0-1.161,1.307l.644,10.672Z" transform="translate(-2705.163 -279.915)" fill="#a9543d"/>
            <path id="Trazado_210658" data-name="Trazado 210658" d="M2956.323,340.631l-2.207-8.9a1.272,1.272,0,0,0-1.57-.8,1.148,1.148,0,0,0-.955,1.316l2.161,9.15Z" transform="translate(-2667.018 -298.985)" fill="#a9543d"/>
            <path id="Trazado_210659" data-name="Trazado 210659" d="M2928.67,370.964l-2.6-6.53a1.017,1.017,0,0,0-1.313-.454h0a.879.879,0,0,0-.622,1.092l2.592,6.722Z" transform="translate(-2642.19 -328.822)" fill="#a9543d"/>
            <path id="Trazado_210660" data-name="Trazado 210660" d="M2957.4,424.792a.206.206,0,0,1-.062-.4,24.342,24.342,0,0,1,8.12-1.141.205.205,0,0,1-.03.41,23.92,23.92,0,0,0-7.966,1.123.211.211,0,0,1-.063.01" transform="translate(-2672.104 -382.43)"/>
            <path id="Trazado_210661" data-name="Trazado 210661" d="M3342.309,395.072l7.659-1.672v-10.41h9.93v9.92l8.847,2.5-13.812,15.449Z" transform="translate(-3020.094 -346.069)" fill="#a9543d"/>
            <path id="Trazado_210662" data-name="Trazado 210662" d="M3431.687,387.2V382.99h-9.93v6.3c3.27,2.544,7.6-.193,9.93-2.1" transform="translate(-3091.882 -346.068)"/>
            <path id="Trazado_210663" data-name="Trazado 210663" d="M3623.217,1917.645s-.836,16.745-.423,25.031-.432,32.541-1.682,40.374l-9.285-.346s-3.631-53.634-6.119-65.573Z" transform="translate(-3258.098 -1732.309)" fill="#a9543d"/>
            <path id="Trazado_210664" data-name="Trazado 210664" d="M3165.245,1879.879s-1.994,16.361-1.375,25.1-5.248,33.393-6.486,41.455l-10.433-1.36s1.692-56.953,2.614-65.817Z" transform="translate(-2843.568 -1698.089)" fill="#a9543d"/>
            <path id="Trazado_210665" data-name="Trazado 210665" d="M3114.831,2517.822s3.417-6.666-.227-9.827c-2.469-2.143,3.749-.938,3.431,1.976-.322,2.946-3.2,7.851-3.2,7.851" transform="translate(-2813.815 -2265.227)"/>
            <path id="Trazado_210666" data-name="Trazado 210666" d="M3112.992,2516.183a.194.194,0,0,1-.173-.283,15.592,15.592,0,0,0,1.237-3.684c.513-2.659.035-4.646-1.417-5.907-.563-.489-.758-.867-.595-1.155.277-.493,1.337-.2,1.655-.1a4.939,4.939,0,0,1,1.869,1.088,2.41,2.41,0,0,1,.823,2.014c-.323,2.955-3.112,7.727-3.23,7.929a.2.2,0,0,1-.168.1m-.278-10.916c-.2,0-.311.038-.332.077s.016.24.511.671c1.545,1.341,2.078,3.513,1.542,6.282-.064.332-.14.653-.222.957a18.209,18.209,0,0,0,1.79-5.137c.138-1.269-1.159-2.283-2.424-2.69a2.931,2.931,0,0,0-.865-.159" transform="translate(-2811.976 -2263.393)" fill="#fff"/>
            <path id="Trazado_210667" data-name="Trazado 210667" d="M3660.4,2545.511s-1.153,17.729-.12,19.669c0,0,9.408.612,14.815.676,0,0,.932-6.693-1.5-7.994-2.6-1.395-3.548-1.471-3.548-3.511s.57-8.591.57-8.591Z" transform="translate(-3307.025 -2300.111)"/>
            <path id="Trazado_210668" data-name="Trazado 210668" d="M3673.281,2564.216h0c-5.349-.063-14.73-.67-14.824-.676a.2.2,0,0,1-.16-.1c-1.047-1.966.05-19.047.1-19.773a.2.2,0,0,1,.2-.183l10.218.248a.2.2,0,0,1,.142.064.2.2,0,0,1,.049.149c-.007.065-.572,6.564-.572,8.573,0,1.585.577,1.876,2.29,2.741.341.173.727.367,1.158.6,2.521,1.35,1.638,7.915,1.6,8.193a.2.2,0,0,1-.193.169m-14.686-1.059c1.087.07,9.477.6,14.512.666a22.692,22.692,0,0,0,.139-3.309c-.063-1.622-.385-3.688-1.556-4.316-.426-.228-.81-.422-1.148-.593-1.771-.894-2.5-1.264-2.5-3.09s.457-7.267.554-8.4l-9.822-.238c-.388,6.049-.9,17.452-.174,19.281" transform="translate(-3305.207 -2298.276)"/>
            <path id="Trazado_210669" data-name="Trazado 210669" d="M2932.116,2523.073a40.765,40.765,0,0,0-.726,6.766c0,3.137.805,14.982.805,14.982h-34.752l-.676-3.683a3.782,3.782,0,0,1,3.249-4.434c4.868-.608,12.75-1.783,15.079-3.24,4.253-2.664,5.85-9.4,5.85-11.247Z" transform="translate(-2617.448 -2279.063)"/>
            <path id="Trazado_210670" data-name="Trazado 210670" d="M2930.366,2543.2h-34.754a.193.193,0,0,1-.19-.16l-.676-3.685a3.976,3.976,0,0,1,3.416-4.661c4.605-.575,12.678-1.758,15-3.212a12.519,12.519,0,0,0,4.445-5.838,16.23,16.23,0,0,0,1.315-5.244.188.188,0,0,1,.063-.143.192.192,0,0,1,.146-.052l11.168.856a.192.192,0,0,1,.14.077.186.186,0,0,1,.036.155,41.013,41.013,0,0,0-.721,6.728c0,3.095.8,14.851.8,14.969a.192.192,0,0,1-.051.146.2.2,0,0,1-.142.062m-34.591-.389h34.383c-.108-1.6-.791-11.909-.791-14.788a40.67,40.67,0,0,1,.687-6.59l-10.749-.823a17.5,17.5,0,0,1-1.338,5.184,12.9,12.9,0,0,1-4.6,6.018c-1.251.783-4.9,1.986-15.157,3.269a3.587,3.587,0,0,0-3.082,4.206Z" transform="translate(-2615.618 -2277.241)"/>
            <path id="Trazado_210671" data-name="Trazado 210671" d="M3058.533,2576.314h-.008a.2.2,0,0,1-.186-.2l.173-3.9a.186.186,0,0,1,.082-.15.19.19,0,0,1,.169-.026l4.286,1.355-1.448-3.344a.193.193,0,0,1,.016-.181.2.2,0,0,1,.159-.09l4.793-.092-1.7-3.353a.194.194,0,1,1,.346-.176l1.837,3.628a.192.192,0,0,1-.168.282l-4.813.093,1.5,3.469a.2.2,0,0,1-.237.263l-4.449-1.407-.162,3.645a.2.2,0,0,1-.195.186" transform="translate(-2763.5 -2318.669)" fill="#fd521b"/>
            <path id="Trazado_210672" data-name="Trazado 210672" d="M3698.555,2541.646s-1.65-.466-2.052-4.422a39.384,39.384,0,0,1,.113-7.026,2.562,2.562,0,0,1,2.653-2.323l2.575-.016a1.9,1.9,0,0,1,1.812,1.7s-.465,4.33-.465,9.889c0,.625,1.413,2.062,1.413,2.062Z" transform="translate(-3340.037 -2284.161)"/>
            <path id="Trazado_210673" data-name="Trazado 210673" d="M3696.721,2540.009a.2.2,0,0,1-.054-.007c-.072-.02-1.781-.548-2.193-4.591a39.751,39.751,0,0,1,.114-7.064,2.752,2.752,0,0,1,2.851-2.5l2.57-.016h.01a2.217,2.217,0,0,1,1.364.582,1.8,1.8,0,0,1,.636,1.316c0,.007,0,.012,0,.019,0,.043-.463,4.384-.463,9.867,0,.4.832,1.391,1.356,1.924a.194.194,0,0,1,.042.211.2.2,0,0,1-.177.122l-6.052.136h0m.607-13.772a2.363,2.363,0,0,0-2.351,2.147,39.249,39.249,0,0,0-.114,6.989c.355,3.488,1.7,4.165,1.889,4.245l5.575-.125c-.446-.492-1.165-1.362-1.165-1.876,0-5.377.44-9.661.464-9.9a1.731,1.731,0,0,0-1.619-1.5l-2.571.017h-.01l-.1,0" transform="translate(-3338.204 -2282.328)" fill="#fff"/>
            <path id="Trazado_210674" data-name="Trazado 210674" d="M3702.771,2577.98l-.023,0-7.67-.885a.195.195,0,1,1,.044-.387l5.535.638-5.811-1.773a.2.2,0,0,1,.014-.378l6.314-1.42-6.677-2.065a.2.2,0,0,1,.005-.375l7.059-1.973a.2.2,0,1,1,.105.377l-6.419,1.794,6.744,2.085a.2.2,0,0,1-.015.378l-6.31,1.419,7.162,2.185a.2.2,0,0,1-.056.383" transform="translate(-3338.203 -2321.653)" fill="#fd521b"/>
            <path id="Trazado_210675" data-name="Trazado 210675" d="M3147.475,2557.8a.2.2,0,0,1-.052-.008l-11.972-3.364a.194.194,0,1,1,.1-.374l11.973,3.363a.195.195,0,0,1-.053.382" transform="translate(-2833.047 -2307.827)" fill="#fd521b"/>
            <path id="Trazado_210676" data-name="Trazado 210676" d="M3141.5,2543.985h-.023l-12.964-1.515a.194.194,0,1,1,.045-.386l12.964,1.516a.194.194,0,0,1-.022.386" transform="translate(-2826.756 -2297.011)" fill="#fd521b"/>
            <path id="Trazado_210677" data-name="Trazado 210677" d="M3674.692,2658.476a24.061,24.061,0,0,1-2.73-1.5c-3.3-.3-7.9-.2-8.555,2.566a36.019,36.019,0,0,0-.832,4.613h-1.51a11.755,11.755,0,0,0,.349,2.326s9.356-.073,14.778-.014c0,0,.046-.323.1-1.052h0c.146-2.027.188-5.986-1.6-6.942" transform="translate(-3308.119 -2400.725)" fill="#fff"/>
            <path id="Trazado_210678" data-name="Trazado 210678" d="M3659.579,2664.812a.2.2,0,0,1-.173-.1,11.4,11.4,0,0,1-.37-2.4.193.193,0,0,1,.05-.149.2.2,0,0,1,.145-.063h1.334a37.291,37.291,0,0,1,.818-4.463c.369-1.572,2.189-3.319,8.764-2.716a.2.2,0,0,1,.1.041,9.812,9.812,0,0,0,1.548.884c.34.172.724.366,1.154.6,1.859,1,1.864,4.894,1.7,7.13-.053.727-.1,1.051-.1,1.064a.194.194,0,0,1-.194.168h0c-5.357-.058-14.68.013-14.774.013Zm-.135-2.325a14.068,14.068,0,0,0,.269,1.934c1.159-.009,9.444-.066,14.471-.015.017-.164.046-.449.077-.868.124-1.724.231-5.833-1.5-6.757-.425-.227-.808-.421-1.146-.592a10.73,10.73,0,0,1-1.567-.889c-2.852-.256-7.658-.271-8.291,2.422a35.657,35.657,0,0,0-.827,4.587.2.2,0,0,1-.195.178Z" transform="translate(-3306.285 -2398.859)"/>
            <path id="Trazado_210679" data-name="Trazado 210679" d="M2932.078,2670.068h-24.9l-1.046-6.687c-2.164.36-4.34.656-6.117.879a3.781,3.781,0,0,0-3.248,4.434l.25,1.374.425,2.31H2932.2s-.048-1.282-.118-2.31" transform="translate(-2617.447 -2406.617)" fill="#fff"/>
            <path id="Trazado_210680" data-name="Trazado 210680" d="M2930.366,2670.748h-34.754a.192.192,0,0,1-.19-.159l-.676-3.685a3.977,3.977,0,0,1,3.417-4.661c2.211-.276,4.266-.571,6.108-.877a.193.193,0,0,1,.223.161l1.021,6.522h24.734a.2.2,0,0,1,.194.181c.071,1.019.117,2.3.118,2.317a.2.2,0,0,1-.055.141.193.193,0,0,1-.14.06m-34.591-.388h34.389c-.015-.37-.05-1.189-.1-1.921H2905.35a.2.2,0,0,1-.192-.166l-1.017-6.492c-1.8.295-3.79.58-5.929.847a3.587,3.587,0,0,0-3.082,4.206Z" transform="translate(-2615.618 -2404.795)"/>
            <path id="Trazado_210681" data-name="Trazado 210681" d="M3670.8,2579.5a.2.2,0,0,1-.032,0l-10.417-1.656a.2.2,0,1,1,.062-.386l10.417,1.655a.2.2,0,0,1-.029.388" transform="translate(-3307.323 -2328.973)" fill="#fd521b"/>
            <path id="Trazado_210682" data-name="Trazado 210682" d="M3660.845,2557.6a.2.2,0,0,1-.008-.391l10.539-.428a.2.2,0,1,1,.017.391l-10.54.427h-.008" transform="translate(-3307.743 -2310.29)" fill="#fd521b"/>
            <path id="Trazado_210683" data-name="Trazado 210683" d="M3054.324,2510.165a16.418,16.418,0,0,1-3.447-.332,3.962,3.962,0,0,1-2.816-1.86,2.163,2.163,0,0,1-.1-1.825,2.118,2.118,0,0,1,1.388-1.145,4.034,4.034,0,0,1,3.3.8,19.849,19.849,0,0,1,3.91,3.946.195.195,0,0,1-.133.309,20.141,20.141,0,0,1-2.1.1m-4.219-4.876a2.41,2.41,0,0,0-.652.088,1.619,1.619,0,0,0-1.045,2.42,3.579,3.579,0,0,0,2.552,1.656,18.706,18.706,0,0,0,5.074.255,18.835,18.835,0,0,0-3.6-3.58,4.247,4.247,0,0,0-2.326-.839" transform="translate(-2753.978 -2263.416)" fill="#fd521b"/>
            <path id="Trazado_210684" data-name="Trazado 210684" d="M3047.788,2466.348a.19.19,0,0,1-.1-.027,52.879,52.879,0,0,1-6.118-4.3c-1.571-1.31-3.273-3.18-3.335-4.5a.746.746,0,0,1,.851-.862c.413.016,1.96.3,4.529,3.3a54.627,54.627,0,0,1,4.338,6.092.194.194,0,0,1-.028.237.2.2,0,0,1-.139.058m-8.752-9.3a.437.437,0,0,0-.316.1.481.481,0,0,0-.094.36c.056,1.193,1.756,3.017,3.2,4.218a51.559,51.559,0,0,0,5.366,3.834,51.434,51.434,0,0,0-3.865-5.343c-2.53-2.957-3.982-3.155-4.248-3.165h-.039" transform="translate(-2745.334 -2219.824)" fill="#fd521b"/>
            <path id="Trazado_210685" data-name="Trazado 210685" d="M3763.587,2512.4a.19.19,0,0,1-.106-.032.194.194,0,0,1-.088-.177,13.427,13.427,0,0,1,1.678-5.307,7.19,7.19,0,0,1,3.818-3.44,1.078,1.078,0,0,1,.863.121,1.29,1.29,0,0,1,.442.992,4.8,4.8,0,0,1-.426,2.133,7.436,7.436,0,0,1-1.644,2.4,22.188,22.188,0,0,1-4.444,3.292.2.2,0,0,1-.093.023m5.626-8.6a1.291,1.291,0,0,0-.245.027,6.944,6.944,0,0,0-3.562,3.257,13.162,13.162,0,0,0-1.582,4.761,21.757,21.757,0,0,0,4.026-3.039,5.953,5.953,0,0,0,1.952-4.219.947.947,0,0,0-.278-.7.53.53,0,0,0-.312-.084m-3.975,3.183h0Z" transform="translate(-3400.581 -2262.066)" fill="#fd521b"/>
            <path id="Trazado_210686" data-name="Trazado 210686" d="M3761.474,2560.582c-.439,0-.715-.019-.746-.021a.2.2,0,0,1-.146-.306,9.517,9.517,0,0,1,3.031-2.715,5.38,5.38,0,0,1,3.683-.679.884.884,0,0,1,.554.454,1.047,1.047,0,0,1-.11.881,4.531,4.531,0,0,1-2.99,2.04,15.331,15.331,0,0,1-3.275.345m-.35-.4a15.319,15.319,0,0,0,3.54-.332,4.178,4.178,0,0,0,2.727-1.836.72.72,0,0,0,.1-.549.541.541,0,0,0-.324-.239,4.9,4.9,0,0,0-3.369.655,9.135,9.135,0,0,0-2.674,2.3m2.582-2.472h0Z" transform="translate(-3398.01 -2310.256)" fill="#fd521b"/>
            <path id="Trazado_210687" data-name="Trazado 210687" d="M3986.133,1443.109c1.984,2.418,6.019,7.759,8.5,9.418a1.507,1.507,0,0,0,1.757-.063,1.112,1.112,0,0,0,.214-1.546c-1.514-2.033-5.175-7.007-5.8-8.417-.414-.934-1.951-.9-3.322-.653-1.134.2-2.08.369-1.349,1.261" transform="translate(-3601.615 -1302.713)" fill="#a9543d"/>
            <path id="Trazado_210688" data-name="Trazado 210688" d="M4006.1,1437.778s7.177,6.26,11.19,7.98a1.619,1.619,0,0,0,1.853-.423,1.036,1.036,0,0,0-.084-1.45c-1.845-1.666-7.095-6.092-7.989-7.366-1.124-1.6-4.969,1.259-4.969,1.259" transform="translate(-3619.894 -1297.592)" fill="#a9543d"/>
            <path id="Trazado_210689" data-name="Trazado 210689" d="M4013.771,1417.765s7.436,5.366,11.325,6.576a1.4,1.4,0,0,0,1.5-.456,1.017,1.017,0,0,0-.178-1.456,85.158,85.158,0,0,1-7.386-5.965c-1.167-1.374-5.258,1.3-5.258,1.3" transform="translate(-3626.822 -1279.555)" fill="#a9543d"/>
            <path id="Trazado_210690" data-name="Trazado 210690" d="M3939.346,1352.845a81.283,81.283,0,0,1-7.022-4.77c-2.173-2.132-6.236-6.131-6.236-6.131s-7.516.62-8.148.966c-.137.076.1.694.589,1.606a41.746,41.746,0,0,0,1.646,7.106c1.029,2.693,1.894,4.376,2.353,5.73s2.252,1.857,2.793.1c.345-1.123-.123-2.8-.61-4.478a7.087,7.087,0,0,0,1.1.855c.973.587,3.847-3.833,3.847-3.833s5,3.556,8.263,4.42a1.521,1.521,0,0,0,1.615-.565.7.7,0,0,0-.187-1" transform="translate(-3540.196 -1212.574)" fill="#a9543d"/>
            <path id="Trazado_210691" data-name="Trazado 210691" d="M4123.645,1446.2c-.377-.237-.9-.565-1.482-.94a.441.441,0,0,0-.236.179c-.2.316.094.854.65,1.2s1.168.374,1.365.058a.116.116,0,0,0,.015-.032.685.685,0,0,0-.312-.467" transform="translate(-3724.496 -1305.932)"/>
            <path id="Trazado_210692" data-name="Trazado 210692" d="M4127.963,1474.464a1.012,1.012,0,0,0-.364-.518l-1.1-.827a.637.637,0,0,0-.672.13c-.227.3.053.889.623,1.325s1.213.551,1.44.255a.453.453,0,0,0,.069-.365" transform="translate(-3728.007 -1331.073)"/>
            <path id="Trazado_210693" data-name="Trazado 210693" d="M4121.694,1508.347l-.862-.781c-.474-.233-.907-.264-1.076-.045-.227.3.112.934.754,1.426.578.442,1.205.615,1.491.43a1.032,1.032,0,0,0-.308-1.03" transform="translate(-3722.527 -1362.054)"/>
            <path id="Trazado_210694" data-name="Trazado 210694" d="M4081.771,1529.327l-.312-.419c-.444-.4-.953-.553-1.2-.331-.276.251-.11.881.369,1.408a1.452,1.452,0,0,0,1.193.59,1.11,1.11,0,0,0-.055-1.247" transform="translate(-3686.784 -1381.122)"/>
            <path id="Trazado_210695" data-name="Trazado 210695" d="M3964.863,1486.613a1.015,1.015,0,0,0-.629.988c.058.152.11.3.16.443a1.828,1.828,0,0,0,1.069,1.141.737.737,0,0,0,.181-.031,1.2,1.2,0,0,0,.554-1.562c-.214-.7-.811-1.141-1.334-.98" transform="translate(-3582.062 -1343.266)"/>
            <path id="Trazado_210696" data-name="Trazado 210696" d="M4039.738,1454.729a.152.152,0,0,1-.123-.062c-1.519-2.038-3.818-5.321-4.181-6.015a.153.153,0,0,1,.271-.141c.355.682,2.642,3.943,4.155,5.973a.153.153,0,0,1-.032.214.147.147,0,0,1-.09.03" transform="translate(-3646.381 -1308.794)"/>
            <path id="Trazado_210697" data-name="Trazado 210697" d="M4061.718,1440.979a.151.151,0,0,1-.092-.031,48.832,48.832,0,0,1-6.323-6.163.153.153,0,1,1,.233-.2,48.574,48.574,0,0,0,6.275,6.118.152.152,0,0,1,.029.214.155.155,0,0,1-.122.06" transform="translate(-3664.317 -1296.237)"/>
            <path id="Trazado_210698" data-name="Trazado 210698" d="M4073.25,1423.911a.152.152,0,0,1-.091-.031c-.313-.234-.668-.5-1.048-.779a47.9,47.9,0,0,1-5.338-4.293.153.153,0,0,1,.233-.2,48.123,48.123,0,0,0,5.286,4.246c.381.282.737.546,1.05.78a.153.153,0,0,1-.092.276" transform="translate(-3674.682 -1281.799)"/>
            <path id="Trazado_210699" data-name="Trazado 210699" d="M3926.088,1341.944s-7.518.62-8.149.966c-.137.076.1.694.59,1.606.066.433.188,1.186.355,2.077l9.419-2.469-2.215-2.18" transform="translate(-3540.195 -1212.574)"/>
            <path id="Trazado_210700" data-name="Trazado 210700" d="M3080.937,913.943c15.444,25.9,33.561,136.08,33.561,136.08l-40.713,2.573-5.449-88.842-2.3.552-8.749,87.08-34.2-1.665s16.306-108.429,28.731-135.666c0,0,25.132-6.805,29.123-.112" transform="translate(-2731.641 -823.172)"/>
            <path id="Trazado_210701" data-name="Trazado 210701" d="M3429.879,1047.478a.241.241,0,0,1-.241-.241v-29.4a.241.241,0,0,1,.241-.241h6.565a.241.241,0,0,1,.242.241v17.884a.241.241,0,1,1-.482,0V1018.08h-6.085v29.157a.24.24,0,0,1-.241.241" transform="translate(-3099.003 -919.497)" fill="#fff"/>
            <path id="Trazado_210702" data-name="Trazado 210702" d="M3284.785,969.062h37.108a79.118,79.118,0,0,0-3.5-7.905h-30.8c-.922,2.242-1.861,4.9-2.81,7.905" transform="translate(-2968.114 -868.497)" fill="#a9543d"/>
            <path id="Trazado_210703" data-name="Trazado 210703" d="M3331.4,151.529c0-7.614,5.785-13.786,12.919-13.786s12.918,6.172,12.918,13.786-5.785,13.786-12.918,13.786-12.919-6.172-12.919-13.786" transform="translate(-3010.234 -124.464)" fill="#a9543d"/>
            <path id="Trazado_210704" data-name="Trazado 210704" d="M3511.658,94.955s-2.375-7.387,3.344-7.387,9.188,7.158,9.188,9.445-4.848,3.586-6.7,3.427-5.833-5.485-5.833-5.485" transform="translate(-3172.674 -79.126)" fill="#fea419"/>
            <path id="Trazado_210705" data-name="Trazado 210705" d="M3298.65,282.841s-2.824-2.293-3.9,1.257c-1.024,3.388,2.981,4.87,4.009,4.4,1.906-.871,2.1-2.833-.113-5.658" transform="translate(-2976.973 -254.916)" fill="#a9543d"/>
            <path id="Trazado_210706" data-name="Trazado 210706" d="M3306.107,297.942a.29.29,0,0,1-.25-.143,3.928,3.928,0,0,0-2.72-1.806.289.289,0,0,1,.062-.575,4.447,4.447,0,0,1,3.158,2.09.289.289,0,0,1-.25.435" transform="translate(-2984.464 -266.936)"/>
            <path id="Trazado_210707" data-name="Trazado 210707" d="M3299.922,961.157c-.494,1.2-.993,2.523-1.5,3.953H3332.6c-.629-1.438-1.256-2.761-1.879-3.953Z" transform="translate(-2980.441 -868.497)"/>
            <path id="Trazado_210708" data-name="Trazado 210708" d="M3318.529,313.9a.285.285,0,0,1-.147-.041.288.288,0,0,1-.1-.4l1.014-1.691a.289.289,0,0,1,.5.3l-1.014,1.691a.292.292,0,0,1-.25.14" transform="translate(-2998.345 -281.584)"/>
            <path id="Trazado_210709" data-name="Trazado 210709" d="M3452.166,274.832a.289.289,0,0,1-.246-.441l1.071-1.731a.289.289,0,0,1,.446-.057l1.574,1.511a.289.289,0,0,1-.4.417l-1.316-1.263-.883,1.427a.289.289,0,0,1-.246.137" transform="translate(-3119.096 -246.251)"/>
            <path id="Trazado_210710" data-name="Trazado 210710" d="M3426.218,330.372a5.825,5.825,0,0,1-6.8-1.346Z" transform="translate(-3089.772 -297.306)"/>
            <path id="Trazado_210711" data-name="Trazado 210711" d="M3360.777,247.167s-2.625-7.657-7.932-1.621c0,0,2.844,5.817,7.932,1.621" transform="translate(-3029.613 -219.78)" fill="#fff"/>
            <path id="Trazado_210712" data-name="Trazado 210712" d="M2994.231,501.639s13.7,2.843,18.1,7.24,26.244,73.573,26.244,73.573l-13.394,6.878L3004.628,537l.009,10.434-46.507.26-.563-13.37s-5.19,11.274-9.774,19.3c-2.225,3.9-8.16,4.562-11.063,3.572-2.92-1-6.446-5.109-6.391-8.818l.726-39.859,14.569-1.9.31,13.2s6.226-10.427,9-12.808c2.366-2.03,17.781-5.871,17.781-5.871s-.015,6.5,10.18,6.5,11.325-5.995,11.325-5.995" transform="translate(-2647.838 -452.823)" fill="#5774cd"/>
            <path id="Trazado_210713" data-name="Trazado 210713" d="M3437.464,1073.368a.289.289,0,0,1-.288-.28l-.872-28.51a.288.288,0,0,1,.28-.3.291.291,0,0,1,.3.28l.872,28.51a.289.289,0,0,1-.28.3h-.009" transform="translate(-3105.025 -943.605)"/>
            <path id="Trazado_210714" data-name="Trazado 210714" d="M3225,1136.669a.241.241,0,0,1,0-.482,8.09,8.09,0,0,0,5.27-1.943,13.94,13.94,0,0,0,3.342-4.324,25.3,25.3,0,0,0,2.243-6.346.24.24,0,1,1,.473.086,25.742,25.742,0,0,1-2.284,6.474c-2.239,4.275-5.366,6.534-9.043,6.534" transform="translate(-2913.878 -1015.077)" fill="#fff"/>
            <path id="Trazado_210715" data-name="Trazado 210715" d="M3629.756,1133.611c-3.673,0-6.832-2.134-9.136-6.172a23.9,23.9,0,0,1-2.385-6.121.242.242,0,0,1,.473-.1,23.288,23.288,0,0,0,2.337,5.99,13.588,13.588,0,0,0,3.406,4.083,8.51,8.51,0,0,0,5.306,1.837.241.241,0,0,1,0,.482" transform="translate(-3269.414 -1012.954)" fill="#fff"/>
            <path id="Trazado_210716" data-name="Trazado 210716" d="M3254.971,1121.736a.241.241,0,0,1,0-.482l42.629-.227h0a.241.241,0,0,1,0,.482l-42.628.226Z" transform="translate(-2940.957 -1012.954)" fill="#fff"/>
            <path id="Trazado_210717" data-name="Trazado 210717" d="M3420.646,1447.358a.241.241,0,0,1-.064-.474l10.576-2.889a.241.241,0,1,1,.127.465l-10.575,2.89a.279.279,0,0,1-.065.008" transform="translate(-3090.661 -1304.779)" fill="#fff"/>
            <path id="Trazado_210718" data-name="Trazado 210718" d="M3494.624,246.658s2.568-7.677,7.92-1.681c0,0-2.8,5.838-7.92,1.681" transform="translate(-3157.724 -219.292)" fill="#fff"/>
            <path id="Trazado_210719" data-name="Trazado 210719" d="M3493.24,218.911a.289.289,0,0,1-.213-.486c.081-.087,2.03-2.117,5.986-.395a.289.289,0,0,1-.23.53c-3.585-1.56-5.315.24-5.332.258a.29.29,0,0,1-.211.092" transform="translate(-3156.211 -196.387)"/>
            <path id="Trazado_210720" data-name="Trazado 210720" d="M3377.188,218.911a.286.286,0,0,1-.21-.092c-.074-.077-1.775-1.808-5.334-.259a.289.289,0,0,1-.231-.53c3.956-1.722,5.905.307,5.988.395a.289.289,0,0,1-.017.409.285.285,0,0,1-.2.077" transform="translate(-3046.234 -196.387)"/>
            <path id="Trazado_210721" data-name="Trazado 210721" d="M3344.65,137.743c-5.318,0-12.884,4.546-12.884,12.759l4.723-6.688c.98,4.047,2.2-4.083,2.2-4.083,11.734,8.928,11.681,2.256,11.681,2.256s3.771,8.034,5.749,4.713c0,0,.832,5.006,1.447,4.83.414-9.7-7.273-13.786-12.918-13.786" transform="translate(-3010.566 -124.464)" fill="#fea419"/>
            <path id="Trazado_210722" data-name="Trazado 210722" d="M3580.3,281.794s2.825-2.293,3.9,1.257c1.025,3.388-2.981,4.87-4.008,4.4-1.907-.871-2.1-2.833.111-5.658" transform="translate(-3233.695 -253.97)" fill="#a9543d"/>
            <path id="Trazado_210723" data-name="Trazado 210723" d="M3592.968,296.9a.283.283,0,0,1-.145-.039.289.289,0,0,1-.1-.4,4.443,4.443,0,0,1,3.158-2.09.289.289,0,0,1,.063.575,3.926,3.926,0,0,0-2.721,1.806.288.288,0,0,1-.25.144" transform="translate(-3246.326 -265.991)"/>
            <path id="Trazado_210724" data-name="Trazado 210724" d="M3598.581,312.849a.289.289,0,0,1-.249-.14l-1.014-1.691a.289.289,0,1,1,.5-.3l1.014,1.691a.288.288,0,0,1-.1.4.279.279,0,0,1-.147.041" transform="translate(-3250.48 -280.638)"/>
            <path id="Trazado_210725" data-name="Trazado 210725" d="M3371.535,245.962a2.886,2.886,0,0,0-.115-.8c-.859-1.229-2.246-2.434-4.168-1.7a2.877,2.877,0,0,0-.739,4.424,3.968,3.968,0,0,0,3.344.7,2.875,2.875,0,0,0,1.678-2.615" transform="translate(-3041.303 -219.783)"/>
            <path id="Trazado_210726" data-name="Trazado 210726" d="M3509.946,245.4a2.875,2.875,0,0,0-1.488-2.5c-1.928-.715-3.306.5-4.156,1.735a2.875,2.875,0,0,0,1.588,3.407,3.964,3.964,0,0,0,3.338-.724,2.864,2.864,0,0,0,.718-1.921" transform="translate(-3166.371 -219.296)"/>
            <path id="Trazado_210727" data-name="Trazado 210727" d="M3452.634,1073.518a1.619,1.619,0,1,1-1.62-1.62,1.62,1.62,0,0,1,1.62,1.62" transform="translate(-3116.855 -968.562)"/>
            <path id="Trazado_210728" data-name="Trazado 210728" d="M3448.755,1073.119a1.86,1.86,0,1,1,1.861-1.861,1.863,1.863,0,0,1-1.861,1.861m0-3.239a1.379,1.379,0,1,0,1.379,1.378,1.38,1.38,0,0,0-1.379-1.378" transform="translate(-3114.595 -966.303)" fill="#fff"/>
            <path id="Trazado_210729" data-name="Trazado 210729" d="M3562.738,99.1c-.117,0-.236,0-.359-.01a.289.289,0,0,1,.033-.577,3.042,3.042,0,0,0,2.829-1.081c1.861-2.56-.5-8.743-.527-8.8a.289.289,0,0,1,.54-.209,22.828,22.828,0,0,1,1,3.57c.507,2.643.324,4.589-.545,5.784a3.44,3.44,0,0,1-2.971,1.329" transform="translate(-3218.701 -79.728)"/>
            <path id="Trazado_210730" data-name="Trazado 210730" d="M3531.671,88.64a.3.3,0,0,1-.051,0c-1.748-.312-3.467-2.051-5.108-5.169a31.91,31.91,0,0,1-1.926-4.53.29.29,0,0,1,.552-.177c.027.086,2.807,8.631,6.583,9.306a.289.289,0,0,1-.05.574" transform="translate(-3184.786 -70.986)"/>
            <path id="Trazado_210731" data-name="Trazado 210731" d="M3699.357,588.283h-.028a.288.288,0,0,1-.26-.316,62.54,62.54,0,0,1,1.834-9.44c1.3-4.707,3.727-11.056,7.915-14.575a.289.289,0,0,1,.373.443c-4.072,3.421-6.451,9.652-7.728,14.277a61.854,61.854,0,0,0-1.818,9.351.291.291,0,0,1-.288.261" transform="translate(-3342.458 -509.522)"/>
            <path id="Trazado_210732" data-name="Trazado 210732" d="M3182.063,600.619a.29.29,0,0,1-.284-.237l-3.026-16.487a.289.289,0,1,1,.568-.1l3.029,16.487a.29.29,0,0,1-.234.337.28.28,0,0,1-.052,0" transform="translate(-2872.299 -527.296)"/>
            <path id="Trazado_210733" data-name="Trazado 210733" d="M3090.711,686.5a.289.289,0,0,1-.288-.278l-.873-22.889a.289.289,0,1,1,.578-.022L3091,686.2a.29.29,0,0,1-.278.3h-.012" transform="translate(-2791.701 -599.11)"/>
            <path id="Trazado_210734" data-name="Trazado 210734" d="M3099.5,845.028a.289.289,0,0,1-.239-.124l-3.22-4.622a.289.289,0,1,1,.474-.331l3.22,4.622a.289.289,0,0,1-.236.455" transform="translate(-2797.523 -758.864)"/>
            <path id="Trazado_210735" data-name="Trazado 210735" d="M2090.019,1146.153a.386.386,0,0,1,0-.771l15.135-.017h0a.386.386,0,0,1,0,.771l-15.134.017Z" transform="translate(-1888.181 -1034.945)"/>
            <path id="Trazado_210736" data-name="Trazado 210736" d="M1034.179,1693.378a26.971,26.971,0,0,1-14.809-4.563,41.213,41.213,0,0,1-11.912-12.271,64.006,64.006,0,0,1-7.946-18.015,84.636,84.636,0,0,1,0-43.936,64,64,0,0,1,7.946-18.016,41.207,41.207,0,0,1,11.912-12.271,26.306,26.306,0,0,1,29.617,0,41.2,41.2,0,0,1,11.912,12.271,63.98,63.98,0,0,1,7.946,18.016,84.619,84.619,0,0,1,0,43.936,63.985,63.985,0,0,1-7.946,18.015,41.209,41.209,0,0,1-11.912,12.271,26.971,26.971,0,0,1-14.808,4.563m0-111.226c-19.386,0-35.157,24.407-35.157,54.408s15.771,54.408,35.157,54.408,35.157-24.408,35.157-54.408-15.772-54.408-35.157-54.408" transform="translate(-900.533 -1427.446)" fill="#9fa8c1"/>
            <path id="Trazado_210737" data-name="Trazado 210737" d="M1375.617,2104.837a4.11,4.11,0,0,1-3.377-2.108,9.638,9.638,0,0,1,0-9.762,3.757,3.757,0,0,1,6.752,0,9.634,9.634,0,0,1,0,9.762,4.108,4.108,0,0,1-3.375,2.108m0-13.208c-2.169,0-3.933,2.789-3.933,6.219s1.764,6.219,3.933,6.219,3.932-2.79,3.932-6.219-1.764-6.219-3.932-6.219" transform="translate(-1238.75 -1889.289)" fill="#9fa8c1"/>
            <path id="Trazado_210738" data-name="Trazado 210738" d="M1123.837,1816.769a.383.383,0,0,1-.3-.14l-27.09-32.853a.386.386,0,0,1,.595-.491l27.09,32.853a.385.385,0,0,1-.3.631" transform="translate(-990.666 -1611.24)" fill="#9fa8c1"/>
            <path id="Trazado_210739" data-name="Trazado 210739" d="M1070.429,2223.362a.386.386,0,0,1-.264-.667l29.627-27.788a.385.385,0,1,1,.527.562l-29.627,27.789a.382.382,0,0,1-.264.1" transform="translate(-966.885 -1983.212)" fill="#9fa8c1"/>
            <path id="Trazado_210740" data-name="Trazado 210740" d="M1382.68,2277.651h-.026a.385.385,0,0,1-.359-.41l3.221-49.009a.386.386,0,1,1,.77.051l-3.221,49.009a.385.385,0,0,1-.385.36" transform="translate(-1249.034 -2013.092)" fill="#9fa8c1"/>
            <path id="Trazado_210741" data-name="Trazado 210741" d="M1473.944,2230.858a.386.386,0,0,1-.28-.12l-24.236-25.456a.386.386,0,1,1,.559-.531l24.236,25.456a.386.386,0,0,1-.279.651" transform="translate(-1309.601 -1992.093)" fill="#9fa8c1"/>
            <path id="Trazado_210742" data-name="Trazado 210742" d="M1454.433,1923.6a.385.385,0,0,1-.247-.681l25.614-21.455a.385.385,0,1,1,.5.59l-25.614,21.456a.382.382,0,0,1-.247.09" transform="translate(-1313.869 -1718.07)" fill="#9fa8c1"/>
            <path id="Trazado_210743" data-name="Trazado 210743" d="M1416.092,1649.253l-.047,0a.385.385,0,0,1-.336-.429l5.828-47.2a.386.386,0,0,1,.765.094l-5.828,47.2a.385.385,0,0,1-.383.338" transform="translate(-1279.224 -1446.913)" fill="#9fa8c1"/>
            <path id="Trazado_210744" data-name="Trazado 210744" d="M1681.03,1149.365h-37.81l-12.156,72.57,33.8.3Z" transform="translate(-1473.821 -1038.56)" fill="#fff"/>
            <path id="Trazado_210745" data-name="Trazado 210745" d="M1661.705,1219.411h0l-33.8-.3a.338.338,0,0,1-.329-.393l12.156-72.57a.338.338,0,0,1,.333-.282h37.809a.338.338,0,0,1,.329.411l-16.162,72.87a.337.337,0,0,1-.329.265m-33.406-.973,33.135.3,16.012-72.194h-37.1Z" transform="translate(-1470.658 -1035.398)"/>
            <path id="Trazado_210746" data-name="Trazado 210746" d="M453.243,2505.37l25.408-18.131a1.022,1.022,0,0,1,.592-.189h47.778a1.02,1.02,0,0,1,.592,1.85l-25.407,18.131a1.022,1.022,0,0,1-.592.189H453.835a1.02,1.02,0,0,1-.592-1.849" transform="translate(-409.161 -2247.285)" fill="#fff"/>
            <path id="Trazado_210747" data-name="Trazado 210747" d="M498.443,2504.393H450.664a1.356,1.356,0,0,1-.788-2.461l25.407-18.131a1.353,1.353,0,0,1,.788-.252H523.85a1.357,1.357,0,0,1,.788,2.462l-25.407,18.131a1.351,1.351,0,0,1-.788.252m-48.174-1.911h0a.681.681,0,0,0,.4,1.236h47.778a.686.686,0,0,0,.4-.126l25.407-18.132a.682.682,0,0,0-.4-1.237H476.072a.675.675,0,0,0-.4.126Z" transform="translate(-405.989 -2244.122)"/>
            <path id="Trazado_210748" data-name="Trazado 210748" d="M580.74,1876.483a33.689,33.689,0,0,0,11.909,7.685c7.186,2.613,36.785,11.234,36.785,11.234l-16.859-16.379-28.255-6.942Z" transform="translate(-524.754 -1691.603)"/>
            <path id="Trazado_210749" data-name="Trazado 210749" d="M697.97,1008.27l-.741-5.256a4.264,4.264,0,0,1-1.83-2.063c-.538-1.4-2.308-7.2-2.308-7.2l9.975-2.766s1.559,8.377,1.312,10.35a15.217,15.217,0,0,0,.872,5.2Z" transform="translate(-626.273 -895.445)" fill="#d17a39"/>
            <path id="Trazado_210750" data-name="Trazado 210750" d="M797.258,978.832s3.807-3.928,4.414-6.741c.517-2.4.6-4.3.851-5.5a.66.66,0,0,0-.472-.764,1.413,1.413,0,0,0-1.666.648,10.94,10.94,0,0,0-1.12,3.021c-.175,1.054-2.7,2.592-2.7,2.592Z" transform="translate(-719.772 -872.652)" fill="#d17a39"/>
            <path id="Trazado_210751" data-name="Trazado 210751" d="M770.2,895.615l-.275-9.6a1.2,1.2,0,0,0-1.331-1.112,1.222,1.222,0,0,0-1.206,1.165l.052,9.73Z" transform="translate(-693.408 -799.591)" fill="#d17a39"/>
            <path id="Trazado_210752" data-name="Trazado 210752" d="M724.608,899.235l-2.324-9.956a1.282,1.282,0,0,0-1.565-.927,1.222,1.222,0,0,0-.92,1.446l2.284,10.231Z" transform="translate(-650.381 -802.674)" fill="#d17a39"/>
            <path id="Trazado_210753" data-name="Trazado 210753" d="M695.264,917.691l-2.533-8.629a1.248,1.248,0,0,0-1.573-.722,1.124,1.124,0,0,0-.879,1.329l2.5,8.873Z" transform="translate(-623.7 -820.721)" fill="#d17a39"/>
            <path id="Trazado_210754" data-name="Trazado 210754" d="M667.242,954.565l-3.1-6.157a1,1,0,0,0-1.322-.331.861.861,0,0,0-.514,1.12l3.1,6.345Z" transform="translate(-598.394 -856.575)" fill="#d17a39"/>
            <path id="Trazado_210755" data-name="Trazado 210755" d="M702.568,995.648a.2.2,0,0,1-.122-.379,23.878,23.878,0,0,1,7.684-2.369.2.2,0,1,1,.036.4,23.462,23.462,0,0,0-7.538,2.328.2.2,0,0,1-.059.019" transform="translate(-634.626 -897.179)"/>
            <path id="Trazado_210756" data-name="Trazado 210756" d="M1172.534,793.909s-1.512-2.005-2.728.362c-1.2,2.33.457,4.746,1.623,4.955,1.656.3,2.545.135,2.484-1.13a18.39,18.39,0,0,0-1.379-4.187" transform="translate(-1056.656 -716.656)" fill="#d17a39"/>
            <path id="Trazado_210757" data-name="Trazado 210757" d="M1178.494,809.751a.241.241,0,0,1-.23-.169,3.588,3.588,0,0,0-1.942-2.1.241.241,0,0,1,.174-.45,4.015,4.015,0,0,1,2.228,2.4.241.241,0,0,1-.159.3.245.245,0,0,1-.072.011" transform="translate(-1062.78 -729.22)"/>
            <path id="Trazado_210758" data-name="Trazado 210758" d="M721.635,1908.745l5.664,57.607,9.767,1.172,3.586-52.189Z" transform="translate(-652.066 -1724.732)" fill="#d17a39"/>
            <path id="Trazado_210759" data-name="Trazado 210759" d="M1185.772,825.5a.241.241,0,0,1-.2-.378l.9-1.313a.241.241,0,0,1,.4.273l-.9,1.313a.24.24,0,0,1-.2.1" transform="translate(-1071.24 -744.3)"/>
            <path id="Trazado_210760" data-name="Trazado 210760" d="M874.778,1915.631l-2.93,41.78-3.776,7.293-6.576-1.693-7.488-61.638Z" transform="translate(-771.677 -1718.07)" fill="#d17a39"/>
            <path id="Trazado_210761" data-name="Trazado 210761" d="M1287.176,868.945s1.413,12.31,9.716,10,9.395-5.54,9.395-5.54l-11.563-10.479Z" transform="translate(-1163.085 -779.733)"/>
            <path id="Trazado_210762" data-name="Trazado 210762" d="M1356.731,857.128l8.154,6.682,9.828-3.835-9.417-11.445Z" transform="translate(-1225.935 -766.728)" fill="#d17a39"/>
            <path id="Trazado_210763" data-name="Trazado 210763" d="M1360.605,860.3c1.272-1.619,3.459-5.12,4.979-11.421l-.289-.351-8.564,8.6Z" transform="translate(-1225.935 -766.729)"/>
            <path id="Trazado_210764" data-name="Trazado 210764" d="M1194.081,652.039c1.4-8.245,8.492-13.917,15.833-12.668s12.156,8.946,10.753,17.192-10.575,13.653-15.833,12.667c-7.32-1.372-12.156-8.946-10.753-17.191" transform="translate(-1078.746 -577.577)" fill="#d17a39"/>
            <path id="Trazado_210765" data-name="Trazado 210765" d="M1305.807,777.377s.351-3.11,2.455-3.986a5.631,5.631,0,0,1,5.3.684,4.959,4.959,0,0,1-3.452,3.976c-3.033.811-4.307-.674-4.307-.674" transform="translate(-1179.921 -698.472)" fill="#fff"/>
            <path id="Trazado_210766" data-name="Trazado 210766" d="M1202.266,779.306s-.118-3.07-2.4-3.591a3.987,3.987,0,0,0-3.036,1.016s.693,2.883,2.4,3.312a3.605,3.605,0,0,0,3.036-.737" transform="translate(-1081.446 -700.881)" fill="#fff"/>
            <path id="Trazado_210767" data-name="Trazado 210767" d="M1208.327,651.064s-2.187.6-5.661-2.2-3.7-7.8-3.7-7.8-1.782,2.946-1.023,4.232l-7.309.359-.117-2.9s-1.584,2.162-1.65,3.2c0,0-6.046,1.188-8.011-.5,0,0,1.354.428,4.744-3.733,3.557-4.366,8.459-4.94,12.849-4.113s11.065,4.047,13.39,13.02c4.261,16.444,9.016,15.814,9.016,15.814l-7.49,3.121Z" transform="translate(-1067.019 -575.846)"/>
            <path id="Trazado_210768" data-name="Trazado 210768" d="M1242.516,826.173a.241.241,0,0,1-.164-.065l-1.827-1.7a.241.241,0,0,1,.052-.39l1.956-1.026a.241.241,0,1,1,.224.427l-1.655.868,1.578,1.468a.241.241,0,0,1-.164.418" transform="translate(-1120.862 -743.628)"/>
            <path id="Trazado_210769" data-name="Trazado 210769" d="M1250.34,878.783h-.048a3.907,3.907,0,0,1-2.68-1.306.241.241,0,0,1,.368-.311,3.472,3.472,0,0,0,2.324,1.135h.036a3.681,3.681,0,0,0,2.676-1.446.241.241,0,1,1,.358.322,4.133,4.133,0,0,1-3.033,1.605" transform="translate(-1127.283 -792.25)"/>
            <path id="Trazado_210770" data-name="Trazado 210770" d="M664.882,1568.876l-56.352,7.132a29.619,29.619,0,0,0-22.363,15.346l-5.428,10.084,48.693,18.92.9-16.53,62.955-3.377a16.156,16.156,0,0,0,15.24-14.859l1.414-17.9Z" transform="translate(-524.753 -1416.559)" fill="#fd521b"/>
            <path id="Trazado_210771" data-name="Trazado 210771" d="M1315.46,1581.043s-7.4,1.985-8.209,14.411c-.4,6.13,2.3,9.046,3.639,10.033a.936.936,0,0,0,1.135-.02,1.484,1.484,0,0,0,.4-1.831,13.1,13.1,0,0,1-1.137-3.537c-.55-3.046,1.57-7.784,1.57-7.784l4.281-7.559Z" transform="translate(-1181.189 -1428.623)" fill="#d17a39"/>
            <path id="Trazado_210772" data-name="Trazado 210772" d="M1348.471,1599.659s-3.5,6-4.929,9.339-2.429,3.177-3.462,2.672c-1.639-.8-.365-4.031.49-6.03s.059-2.6.059-2.6l5.993-6.491Z" transform="translate(-1210.172 -1442.632)" fill="#d17a39"/>
            <path id="Trazado_210773" data-name="Trazado 210773" d="M1326.979,1595s-5.563,6.281-6.5,14.056c-.731,6.078,2.278,9.026,3.626,10.022a.954.954,0,0,0,1.16-.021h0a1.461,1.461,0,0,0,.4-1.805,13.1,13.1,0,0,1-1.144-3.552c-.55-3.046,1.57-7.783,1.57-7.783l4.281-7.559Z" transform="translate(-1193.078 -1441.236)" fill="#d17a39"/>
            <path id="Trazado_210774" data-name="Trazado 210774" d="M1340.294,1598.46s-3.458,6.64-3.2,13.642c.179,4.929,2.351,7.016,3.622,7.82a1.084,1.084,0,0,0,1.449-.278,1.062,1.062,0,0,0,.017-1.239,11.156,11.156,0,0,1-1.435-3.058c-.8-2.557.229-7.141.229-7.141l2.322-7.5Z" transform="translate(-1208.174 -1444.36)" fill="#d17a39"/>
            <path id="Trazado_210775" data-name="Trazado 210775" d="M1348.441,1579.41s-3.459,6.64-3.2,13.642c.192,5.284,2.675,7.3,3.883,7.975a.8.8,0,0,0,1.036-.226,1.429,1.429,0,0,0,.042-1.633,5.958,5.958,0,0,1-1.307-2.87c-.556-5.3,3.238-6.139,4.775-9.733,2.451-5.732-2.223-4.9-2.223-4.9Z" transform="translate(-1215.536 -1427.147)" fill="#d17a39"/>
            <path id="Trazado_210776" data-name="Trazado 210776" d="M1356.228,1727.4a1.6,1.6,0,0,1-.728-.244c-1.154-.642-3.754-2.727-2.96-8.182a.2.2,0,1,1,.392.057c-.759,5.212,1.678,7.177,2.761,7.78.5.278.649.207.737.088a.2.2,0,1,1,.318.235.617.617,0,0,1-.52.266" transform="translate(-1222.014 -1553.1)"/>
            <path id="Trazado_210777" data-name="Trazado 210777" d="M1338.882,1718.712a.2.2,0,0,1-.106-.031,8.663,8.663,0,0,1-3.914-8.319,15.2,15.2,0,0,1,.392-2.083c.067-.29.136-.589.205-.9a.2.2,0,1,1,.386.085c-.07.318-.139.618-.206.908a15.066,15.066,0,0,0-.383,2.024,8.276,8.276,0,0,0,3.731,7.955.2.2,0,0,1-.106.365" transform="translate(-1206.146 -1542.634)"/>
            <path id="Trazado_210778" data-name="Trazado 210778" d="M1321.952,1717.452a.2.2,0,0,1-.118-.038c-1.018-.753-4.277-3.722-3.486-10.312a21.631,21.631,0,0,1,.709-3.427.2.2,0,0,1,.38.111,21.133,21.133,0,0,0-.7,3.363c-.767,6.378,2.353,9.226,3.328,9.946a.2.2,0,0,1-.118.357" transform="translate(-1191.142 -1539.302)"/>
            <path id="Trazado_210779" data-name="Trazado 210779" d="M787.419,935.01l8.27-3.482A19.188,19.188,0,0,1,821.5,943.645l13.849,45.672a12.456,12.456,0,0,1-11.97,16.071l-41.519-1.106-3.664-12.207,2.654-.568s-3.363-3-7.68-6.224c-2.617-1.955-5.372-6.607-5.372-6.607l-26.235,15.31a10.184,10.184,0,0,1-14.572-4.972l-14.942-36.886,13.495-4.576L737.745,973.7l20.225-22.487a38.316,38.316,0,0,1,13.917-9.814Z" transform="translate(-643.398 -840.359)" fill="#ffc849"/>
            <path id="Trazado_210780" data-name="Trazado 210780" d="M1279.955,1034.061s-2.019,20.165-1.928,24.694-.092,10.724,6.555,16.049l3.879-9.811.782-18.411,2.709-4.592-3.331-12.9Z" transform="translate(-1154.816 -929.881)" fill="#ffc849"/>
            <path id="Trazado_210781" data-name="Trazado 210781" d="M1402.649,978.274l1.915,13.841,6.865-18.221Z" transform="translate(-1267.426 -880.005)" fill="#d17a39"/>
            <path id="Trazado_210782" data-name="Trazado 210782" d="M1362.828,800.781s6.533,43.507-8.465,56.934l10.965-5.516s9.6-21.931,2.28-49.644Z" transform="translate(-1223.796 -723.582)"/>
            <path id="Trazado_210783" data-name="Trazado 210783" d="M1417.141,1526.573a.24.24,0,0,1-.238-.213.207.207,0,0,1,0-.028.242.242,0,0,1,.213-.24l33.383-3.942a.242.242,0,0,1,.267.212.219.219,0,0,1,0,.028.241.241,0,0,1-.213.239l-33.383,3.942-.029,0" transform="translate(-1280.304 -1375.405)"/>
            <path id="Trazado_210784" data-name="Trazado 210784" d="M1642.611,1288.3a.241.241,0,0,1-.214-.13l-13.807-26.558a.241.241,0,1,1,.427-.222l13.807,26.558a.241.241,0,0,1-.214.352" transform="translate(-1471.562 -1139.666)"/>
            <path id="Trazado_210785" data-name="Trazado 210785" d="M1627.892,983.911a.235.235,0,0,1-.061-.008.241.241,0,0,1-.172-.294,24.569,24.569,0,0,1,1.75-4.433c1.12-2.2,3.066-5.143,5.968-6.689a9.824,9.824,0,0,1,8.16-.389.241.241,0,1,1-.16.455,9.361,9.361,0,0,0-7.772.359c-5.355,2.85-7.46,10.739-7.481,10.818a.241.241,0,0,1-.233.18" transform="translate(-1470.737 -877.755)"/>
            <path id="Trazado_210786" data-name="Trazado 210786" d="M1275.709,1246.842a.24.24,0,0,1-.211-.124c-1.531-2.754-2.259-7.279-2.166-13.449a78.092,78.092,0,0,1,.6-8.443.241.241,0,1,1,.477.066c-.021.151-2.049,15.186,1.511,21.591a.241.241,0,0,1-.211.358" transform="translate(-1150.57 -1106.559)"/>
            <path id="Trazado_210787" data-name="Trazado 210787" d="M1402.812,1058.085a.241.241,0,0,1-.177-.077,78.424,78.424,0,0,1-8.75-11.508c-1.659-2.878-3.117-8.769-.649-20.489a97.848,97.848,0,0,1,7.252-21.356.241.241,0,0,1,.433.212,97.313,97.313,0,0,0-7.213,21.242c-1.345,6.387-2.333,15.067.595,20.149a77.873,77.873,0,0,0,8.685,11.421.241.241,0,0,1-.176.4" transform="translate(-1257.731 -907.679)"/>
            <path id="Trazado_210788" data-name="Trazado 210788" d="M938.177,1377.434a.241.241,0,0,1-.182-.4l4.116-4.781a.241.241,0,1,1,.366.315l-4.117,4.78a.241.241,0,0,1-.183.084" transform="translate(-847.514 -1239.887)"/>
            <path id="Trazado_210789" data-name="Trazado 210789" d="M680.545,1065.594s-5.732-3.658-3.107-4.8,5.254,2.654,5.254,2.654-2.389-3.4.024-5.814c2.857-2.858,3.18,3.043,3.01,4.3a5.75,5.75,0,0,1,1.192-4.91c1.921-2.347,2.1,1.389,1.822,3.551,0,0,.044-2.815,1.112-3.76s2.951-.467,1.7,3.031c0,0,1.894-4.016,3.771-4.8s.569,4.018-1.787,6.08Z" transform="translate(-611.507 -953.256)" fill="#ffc849"/>
            <path id="Trazado_210790" data-name="Trazado 210790" d="M1322.4,1554.479a5.86,5.86,0,0,0-6.78-1.7c-4.683,1.964,1.256,3.981,5.459,5.277,0,0-3.279-1.006-3.181,1.189s2.635,3.294,5.017,2.313a9.934,9.934,0,0,0-3.192,6.115c-.585,4.067,2.956,1.14,3.85-1.175,0,0-1.437,2.46-.745,4.547s2.757-4.846,2.757-4.846Z" transform="translate(-1187.235 -1402.645)" fill="#ffc849"/>
            <path id="Trazado_210791" data-name="Trazado 210791" d="M1092.014,1854.793H1092a.24.24,0,0,1-.23-.24v-.011l.486-10.823a.241.241,0,0,1,.482.01s0,.008,0,.012l-.486,10.823a.241.241,0,0,1-.24.23" transform="translate(-986.52 -1665.767)"/>
            <path id="Trazado_210792" data-name="Trazado 210792" d="M1094.535,1833.27a.241.241,0,0,1-.2-.382l5.376-7.463a.241.241,0,1,1,.391.281l-5.376,7.463a.24.24,0,0,1-.2.1" transform="translate(-988.798 -1649.354)"/>
            <path id="Trazado_210793" data-name="Trazado 210793" d="M681.884,2418.117l4.135,8.171s-9.836,11.93-13.1,12.8-12.835-.541-12.835-.541-1.253-6.19,2.857-8.8c3.4-2.163,6.224-10,7.1-12.635a1.688,1.688,0,0,1,1.3-1.114,9.172,9.172,0,0,1,3.291-.087,1.461,1.461,0,0,1,1.19,1.725l-1.087,5.117,4.879.193Z" transform="translate(-596.284 -2182.893)" fill="#ffb6c8"/>
            <path id="Trazado_210794" data-name="Trazado 210794" d="M1051.322,2620.525a4.895,4.895,0,0,1-3.947-2.21,9.027,9.027,0,0,1,0-10.033,4.63,4.63,0,0,1,7.893,0,9.026,9.026,0,0,1,0,10.033,4.894,4.894,0,0,1-3.947,2.21m0-12.89a3.379,3.379,0,0,0-2.683,1.566,7.474,7.474,0,0,0,0,8.2,3.082,3.082,0,0,0,5.367,0,7.472,7.472,0,0,0,0-8.2,3.38,3.38,0,0,0-2.683-1.566" transform="translate(-945.028 -2354.833)"/>
            <path id="Trazado_210795" data-name="Trazado 210795" d="M1427.82,767.934s.817-2.443,2.853-2.02,3.046,3.5,1.347,5.354-4,2.326-4.841,1.283.641-4.617.641-4.617" transform="translate(-1289.359 -692.032)" fill="#d17a39"/>
            <path id="Trazado_210796" data-name="Trazado 210796" d="M1435.314,789.016a.241.241,0,0,1-.22-.34c1.459-3.245,3.584-2.786,3.674-2.765a.241.241,0,0,1-.109.469c-.078-.017-1.839-.367-3.125,2.493a.241.241,0,0,1-.22.142" transform="translate(-1296.724 -710.115)"/>
            <path id="Trazado_210797" data-name="Trazado 210797" d="M1443.881,805.09a.24.24,0,0,1-.163-.064l-1.25-1.155a.241.241,0,0,1,.327-.354l1.25,1.154a.241.241,0,0,1-.164.418" transform="translate(-1303.336 -725.997)"/>
            <path id="Trazado_210798" data-name="Trazado 210798" d="M1325.679,771.334a2.9,2.9,0,1,1-2.9-2.9,2.9,2.9,0,0,1,2.9,2.9" transform="translate(-1192.634 -694.352)"/>
            <path id="Trazado_210799" data-name="Trazado 210799" d="M1213.747,774.885a2.329,2.329,0,1,1-2.541-2.484,2.53,2.53,0,0,1,2.541,2.484" transform="translate(-1092.589 -697.929)"/>
            <path id="Trazado_210800" data-name="Trazado 210800" d="M1314.808,746.766a4.858,4.858,0,0,1,5.3,0Z" transform="translate(-1188.053 -674.089)"/>
            <path id="Trazado_210801" data-name="Trazado 210801" d="M1207.986,747.673s-2.141-1.488-3.484,0Z" transform="translate(-1088.382 -674.996)"/>
            <path id="Trazado_210802" data-name="Trazado 210802" d="M805.264,2431.967l2.916,9.693s-11.142,10.413-14.6,11.026-13.328-.345-13.328-.345-.713-6.8,3.775-9.222c3.714-2,7.363-10.182,8.51-12.94a1.755,1.755,0,0,1,1.446-1.074,9.081,9.081,0,0,1,3.4.229,1.593,1.593,0,0,1,1.067,1.977l-1.6,5.417,5.019.686Z" transform="translate(-704.999 -2194.871)" fill="#ffb6c8"/>
            <path id="Trazado_210803" data-name="Trazado 210803" d="M825.385,2512.839h-.011l-8.515-.306a.312.312,0,1,1,.022-.624l7.166.257-4.419-2.362a.312.312,0,0,1,.123-.587l6.653-.519-4.627-2.064a.313.313,0,0,1,.106-.6l7.791-.517a.312.312,0,1,1,.041.623l-6.532.434,4.6,2.052a.312.312,0,0,1-.1.6l-6.814.532,4.667,2.494a.313.313,0,0,1-.147.588" transform="translate(-737.836 -2263.973)" fill="#fe3a01"/>
            <path id="Trazado_210804" data-name="Trazado 210804" d="M690.821,2492.971a.313.313,0,0,1,0-.626l6.658-.047-4.244-2.269a.313.313,0,0,1,.116-.587l6.429-.648-4.678-2.086a.312.312,0,0,1,.106-.6l7.791-.519a.312.312,0,1,1,.041.623l-6.533.435,4.6,2.052a.312.312,0,0,1-.1.6l-6.577.663,4.423,2.364a.313.313,0,0,1-.145.589l-7.887.057Z" transform="translate(-623.94 -2245.969)" fill="#fe3a01"/>
            <path id="Trazado_210805" data-name="Trazado 210805" d="M1437.545,1693.3h54.025a1.2,1.2,0,0,0,1.2-1.2v-1.022a1.2,1.2,0,0,0-1.2-1.2h-54.025a1.2,1.2,0,0,0-1.2,1.2v1.022a1.2,1.2,0,0,0,1.2,1.2" transform="translate(-1297.872 -1526.962)" fill="#5774cd"/>
            <path id="Trazado_210806" data-name="Trazado 210806" d="M1268.993,1905.245h-74.356a.8.8,0,0,0-.8.8v1.485a.8.8,0,0,0,.8.8h74.356a.8.8,0,0,0,.8-.8v-1.485a.8.8,0,0,0-.8-.8" transform="translate(-1078.746 -1721.569)" fill="#5774cd"/>
            <path id="Trazado_210807" data-name="Trazado 210807" d="M1968.168,1145.589l-18.448,76.319h3.083l18.449-76.319Z" transform="translate(-1761.756 -1035.149)" fill="#5774cd"/>
            <path id="Trazado_210808" data-name="Trazado 210808" d="M1461.757,1614.591a64,64,0,0,0-7.946-18.016A41.2,41.2,0,0,0,1441.9,1584.3a26.306,26.306,0,0,0-29.617,0,41.2,41.2,0,0,0-11.912,12.271,64,64,0,0,0-7.946,18.016,84.636,84.636,0,0,0,0,43.936,64,64,0,0,0,7.946,18.015,41.208,41.208,0,0,0,11.912,12.271,26.309,26.309,0,0,0,29.617,0,41.21,41.21,0,0,0,11.913-12.271,64.01,64.01,0,0,0,7.946-18.015,84.619,84.619,0,0,0,0-43.936m-3.4-2.9-24.2,20.271a7.231,7.231,0,0,0-.467-.838,4.281,4.281,0,0,0-2.944-2.079l5.557-45c9.6,4.036,17.579,14.224,22.054,27.646m-28.044,30.533c-2.168,0-3.933-2.789-3.933-6.219s1.765-6.219,3.933-6.219,3.933,2.79,3.933,6.219-1.764,6.219-3.933,6.219m-3.221-60.073a23.51,23.51,0,0,1,8.47,1.6l-5.592,45.287a4.238,4.238,0,0,0-3.033,2.089,6.962,6.962,0,0,0-.419.738l-25.784-31.269c6.446-11.3,15.874-18.442,26.358-18.442m-35.157,54.408c0-13.433,3.162-25.743,8.395-35.245l25.848,31.347a10.136,10.136,0,0,0-.012,6.655l-28.577,26.8a76.908,76.908,0,0,1-5.653-29.56m5.976,30.315,28.572-26.8a7.014,7.014,0,0,0,.454.81,4.267,4.267,0,0,0,2.966,2.082l-3.155,48c-12-.178-22.578-9.7-28.838-24.089m29.611,24.088,3.154-47.99a4.194,4.194,0,0,0,2.94-1.98l23.264,24.436c-6.154,15.153-17,25.3-29.358,25.534m29.673-26.322-23.167-24.334a9.342,9.342,0,0,0,.99-4.3,9.828,9.828,0,0,0-.55-3.3l24.148-20.228a79.287,79.287,0,0,1,3.635,24.078,77.6,77.6,0,0,1-5.055,28.082" transform="translate(-1255.565 -1427.446)"/>
            <path id="Trazado_210809" data-name="Trazado 210809" d="M2216.331,1137.573H2201.99a1.252,1.252,0,0,1-1.252-1.252v-.313a1.252,1.252,0,0,1,1.252-1.252h14.341a1.253,1.253,0,0,1,1.253,1.252v.313a1.253,1.253,0,0,1-1.253,1.252" transform="translate(-1988.575 -1025.36)"/>
            <path id="Trazado_210810" data-name="Trazado 210810" d="M963.981,2495.606a.545.545,0,0,1-.056,0,.662.662,0,0,1-.607-.714,7.193,7.193,0,0,1,1.9-4.131c1.537-1.525,7.555-6.114,7.81-6.309a.664.664,0,0,1,.8,1.057c-.062.047-6.2,4.731-7.68,6.2a5.915,5.915,0,0,0-1.507,3.3.665.665,0,0,1-.661.608" transform="translate(-870.447 -2244.812)" fill="#fff"/>
            <path id="Trazado_210811" data-name="Trazado 210811" d="M925.688,2532.108a.274.274,0,0,1-.172-.486l13.247-10.687a.273.273,0,1,1,.344.426l-13.247,10.688a.279.279,0,0,1-.172.06" transform="translate(-836.2 -2277.848)" fill="#fff"/>
          </g>
        </g>
      </g>
    </g>
  </g>
</svg>
