<svg xmlns="http://www.w3.org/2000/svg" xmlns:xlink="http://www.w3.org/1999/xlink" width="92" height="92" viewBox="0 0 92 92">
  <defs>
    <clipPath id="clip-path">
      <rect id="Rectángulo_339004" data-name="Rectángulo 339004" width="74.686" height="52.378" fill="none"/>
    </clipPath>
  </defs>
  <g id="Grupo_983744" data-name="Grupo 983744" transform="translate(-754 -3988)">
    <circle id="Elipse_4873" data-name="Elipse 4873" cx="46" cy="46" r="46" transform="translate(754 3988)" fill="#6b8dfc"/>
    <g id="Grupo_983743" data-name="Grupo 983743" transform="translate(763 4008)">
      <g id="Grupo_983742" data-name="Grupo 983742" transform="translate(0 0)" clip-path="url(#clip-path)">
        <path id="Trazado_211047" data-name="Trazado 211047" d="M0,31.664a14.62,14.62,0,0,0,.471-2.237,9.42,9.42,0,0,1,1.754-3.8c.2-.236.141-.4.027-.639a10.234,10.234,0,0,1,.11-9.581.8.8,0,0,0-.067-.863,10.458,10.458,0,0,1-.38-8.809A3.43,3.43,0,0,1,5.022,3.3c6.035-.653,12.057-1.418,18.084-2.143C25.952.816,28.8.491,31.64.123a26.473,26.473,0,0,1,6.536.234q6.583.777,13.167,1.553Q58.469,2.751,65.6,3.6c2.581.306,5.16.625,7.743.907.69.075,1.191.341,1.289,1.044A1.115,1.115,0,0,1,73.7,6.837a1.105,1.105,0,0,0-.707.775,8.813,8.813,0,0,0-.006,6.671,1.225,1.225,0,0,0,.917.837,1,1,0,0,1,.78,1.022,1.015,1.015,0,0,1-.751,1.116,1.424,1.424,0,0,0-1.014,1.032,8.9,8.9,0,0,0,0,6.335,1.387,1.387,0,0,0,1.021,1.017.985.985,0,0,1,.741,1.047,1.008,1.008,0,0,1-.787,1.092,2.3,2.3,0,0,0-1.665,1.574,14.024,14.024,0,0,0-.977,7.065,11.087,11.087,0,0,0,1.11,4.27,1.965,1.965,0,0,0,1.473,1.259,1.014,1.014,0,0,1,.833,1.2,1.136,1.136,0,0,1-1.107,1.064q-3.58.435-7.16.867c-.94.113-1.88.238-2.823.314-.474.039-.586.243-.575.69.03,1.191-.008,2.382.017,3.573.015.694-.128,1.281-.86,1.5-.71.217-1.125-.231-1.5-.749-.7-.957-1.421-1.9-2.2-2.936-.749,1.244-1.454,2.415-2.16,3.586-.137.229-.275.458-.417.684a1.125,1.125,0,0,1-1.359.577,1.147,1.147,0,0,1-.844-1.217c0-1.313-.017-2.626.012-3.938.01-.448-.082-.564-.556-.5-2.674.342-5.355.62-8.027.972a15,15,0,0,1-3.691-.266c-6.153-.695-12.3-1.428-18.451-2.154-5.98-.706-11.954-1.474-17.944-2.1A4.335,4.335,0,0,1,1.349,40.45a13.242,13.242,0,0,1-1.206-4.4c-.014-.118,0-.246-.143-.3Z" transform="translate(0 0)"/>
        <path id="Trazado_211048" data-name="Trazado 211048" d="M23.5,61.592a17.287,17.287,0,0,1-.519-6.555,13.079,13.079,0,0,1,1.341-4.8.63.63,0,0,1,.784-.4c4.431.535,8.864,1.045,13.3,1.563.554.065,1.107.137,1.661.2.306.036.419.161.3.482a21.338,21.338,0,0,0-.7,11.262.856.856,0,0,1-.755.148c-4.8-.518-9.589-1.068-14.389-1.556a1.666,1.666,0,0,1-1.018-.337" transform="translate(-10.065 -21.905)" fill="#fec93a"/>
        <path id="Trazado_211049" data-name="Trazado 211049" d="M104.064,34.038a11.569,11.569,0,0,0,.75,6.549l-4.76.574L87.257,42.7c-2.892.348-5.784.693-8.675,1.056-.527.066-.681-.3-.839-.645a8.356,8.356,0,0,1-.606-4.558,4.208,4.208,0,0,1,.38-1.618,1.219,1.219,0,0,1,.909-.386c3.875-.489,7.754-.947,11.633-1.406,4.312-.512,8.622-1.04,12.935-1.543a2.23,2.23,0,0,1,.723-.039c.253.053.489.134.347.48" transform="translate(-33.885 -14.748)" fill="#e9e9e9"/>
        <path id="Trazado_211050" data-name="Trazado 211050" d="M104.064,15.292a11.771,11.771,0,0,0,.721,6.547c-1.581.2-3.093.391-4.607.573q-6.43.769-12.861,1.531-4.371.523-8.74,1.066c-.528.066-.68-.309-.837-.649a8.369,8.369,0,0,1-.6-4.555,4.232,4.232,0,0,1,.38-1.617,1.219,1.219,0,0,1,.909-.386c3.875-.489,7.754-.947,11.633-1.406,4.312-.512,8.622-1.04,12.935-1.543a2.23,2.23,0,0,1,.723-.039c.253.053.49.133.347.479" transform="translate(-33.885 -6.505)" fill="#e9e9e9"/>
        <path id="Trazado_211051" data-name="Trazado 211051" d="M26.795,12.365q5.343.627,10.686,1.254c3.515.417,7.028.844,10.542,1.262,1.42.169,2.842.321,4.263.487.356.041.709.108,1.121.171a11.575,11.575,0,0,0-.591,6.971,1.006,1.006,0,0,1-.894.17c-5.076-.618-10.157-1.2-15.235-1.8-2.623-.312-5.245-.634-7.871-.923a1.911,1.911,0,0,1-1.09-.35,11.629,11.629,0,0,1-.172-4.3c.123-1.043,0-1.359-.847-1.843a1.273,1.273,0,0,1,.086-1.1" transform="translate(-11.702 -5.437)" fill="#5e5ee9"/>
        <path id="Trazado_211052" data-name="Trazado 211052" d="M6.533,35.233a8.566,8.566,0,0,1,.381-5.62c.22-.528.54-.663,1.136-.588,4.307.541,8.622,1.029,12.934,1.537q5.854.689,11.707,1.383c.067.218.182.452-.174.531-.973-.022-1.3.227-1.519,1.146a13.259,13.259,0,0,0-.142,4.372.891.891,0,0,1-.82.179c-3.881-.466-7.764-.9-11.647-1.349Q13,36.2,7.608,35.6a1.581,1.581,0,0,1-1.075-.364" transform="translate(-2.739 -12.754)" fill="#98dfd3"/>
        <path id="Trazado_211053" data-name="Trazado 211053" d="M96,65.163c-.008-1.237.013-2.475-.037-3.711-.022-.549.138-.758.694-.812a1.114,1.114,0,0,0,1.063-1.3,1.182,1.182,0,0,0-1.374-1q-4.947.587-9.89,1.2c-.866.109-1.25.479-1.284,1.122-.035.668.277,1.043,1.152,1.224.316.066.319.208.318.438q-.016,2.074-.024,4.148c-.11.266-.345.313-.593.342-2.789.323-5.574.67-8.362,1A2.411,2.411,0,0,1,75.354,66.5a15.011,15.011,0,0,1,.038-7.031A2.2,2.2,0,0,1,77.372,58.1c4.046-.507,8.1-.975,12.147-1.461,1.76-.211,3.521-.406,5.278-.639a4.082,4.082,0,0,1,4.859,4.762A5.527,5.527,0,0,1,97,64.994c-.3.188-.612.438-1,.169" transform="translate(-32.959 -24.604)" fill="#e9e9e9"/>
        <path id="Trazado_211054" data-name="Trazado 211054" d="M27.112,6.28c1.816-.222,3.534-.437,5.254-.643,3.854-.461,7.708-.911,11.561-1.379a20.312,20.312,0,0,1,4.866.119q4.624.55,9.247,1.1,5.347.634,10.695,1.259c1.879.22,3.759.431,5.639.648a1.014,1.014,0,0,1,.571.208c-.9.118-1.806.244-2.711.354-4.816.583-9.637,1.128-14.446,1.759a24,24,0,0,1-5.641-.345c-3.112-.318-6.215-.731-9.321-1.1q-5.383-.641-10.766-1.276c-1.421-.167-2.844-.321-4.267-.482a.908.908,0,0,1-.68-.224" transform="translate(-11.922 -1.828)" fill="#7070f1"/>
        <path id="Trazado_211055" data-name="Trazado 211055" d="M96.344,62.79a4.177,4.177,0,0,0,2.827-2.409,4.809,4.809,0,0,0,.147-4.726,3.943,3.943,0,0,0-3.953-1.869c-1.4.237-2.816.371-4.226.546q-2.867.355-5.735.7c-1.77.211-3.542.41-5.313.614-.909.105-1.828.163-2.726.328A3.021,3.021,0,0,0,75.735,57.1a6.865,6.865,0,0,1,.99-2.707,1.642,1.642,0,0,1,1.344-.833Q90.536,52.089,103,50.564a3.91,3.91,0,0,1,.411,0,17.545,17.545,0,0,0-1.16,4.611,15.921,15.921,0,0,0,1.3,8.663c.27.562.164.662-.419.721-2.1.213-4.194.472-6.287.739-.417.054-.556-.034-.531-.467.04-.677.025-1.358.033-2.038" transform="translate(-33.302 -22.231)" fill="#d9d3d3"/>
        <path id="Trazado_211056" data-name="Trazado 211056" d="M6.768,40.121c2.608.292,5.216.572,7.822.879,2.725.32,5.445.68,8.17,1,2.32.269,4.645.495,6.966.755a5.876,5.876,0,0,0,1.364.131c.1.475.176.953.294,1.422.105.419-.058.509-.442.463q-4.507-.547-9.017-1.079-4.69-.552-9.382-1.094c-1.372-.16-2.74-.365-4.116-.459A1.482,1.482,0,0,1,6.98,40.958a2.08,2.08,0,0,1-.212-.837" transform="translate(-2.974 -17.642)" fill="#5bd2c6"/>
        <path id="Trazado_211057" data-name="Trazado 211057" d="M65.143,66.2a17.065,17.065,0,0,1-.523-6.777,14.039,14.039,0,0,1,1.046-4.3c.154-.381.331-.529.747-.473.962.131,1.929.224,2.894.326.276.03.407.111.257.415a16.952,16.952,0,0,0-1.079,11.16.318.318,0,0,1,0,.073c-.229.2-.495.109-.752.1-.645-.019-1.276-.174-1.922-.188a.7.7,0,0,1-.666-.34" transform="translate(-28.37 -24.028)" fill="#fec93a"/>
        <path id="Trazado_211058" data-name="Trazado 211058" d="M4.913,59.493a15.1,15.1,0,0,1,.171-10.119,6.205,6.205,0,0,1,.511-.961,1.251,1.251,0,0,1,1.522-.663,18.353,18.353,0,0,0,1.981.255A20.382,20.382,0,0,0,7.782,53.1a25.82,25.82,0,0,0,.187,6.381c.106.332-.117.473-.363.472a4.656,4.656,0,0,1-2.693-.457" transform="translate(-1.813 -20.974)" fill="#fec93a"/>
        <path id="Trazado_211059" data-name="Trazado 211059" d="M63.144,41.781a10.73,10.73,0,0,1,.492-5.722c.111-.287.211-.491.614-.439,1.68.219,3.366.4,5.149.6a11.588,11.588,0,0,0-.754,6.141.917.917,0,0,1-.817.191c-1.3-.139-2.592-.322-3.893-.447a1.244,1.244,0,0,1-.791-.323" transform="translate(-27.688 -15.659)" fill="#98dfd3"/>
        <path id="Trazado_211060" data-name="Trazado 211060" d="M23.971,70.835q2.441.269,4.882.537c1.509.164,3.018.32,4.527.485,1.6.175,3.206.36,4.81.536.647.07,1.295.126,1.942.188.161.584.289,1.179.493,1.748.161.45-.01.5-.387.456-1.446-.168-2.893-.319-4.338-.49-3.516-.417-7.03-.859-10.55-1.243-.551-.061-.838-.236-.971-.752a7.316,7.316,0,0,1-.41-1.463" transform="translate(-10.54 -31.147)" fill="#f6921e"/>
        <path id="Trazado_211061" data-name="Trazado 211061" d="M6.8,17.331A8.415,8.415,0,0,1,6.981,10.7a.679.679,0,0,1,.78-.5c1.1.157,2.21.3,3.319.408.363.037.48.162.372.5a15.477,15.477,0,0,0-.391,6.488.222.222,0,0,1-.251.275A16.267,16.267,0,0,1,6.8,17.331" transform="translate(-2.729 -4.48)" fill="#5e5ee9"/>
        <path id="Trazado_211062" data-name="Trazado 211062" d="M104.422,33.252c-.064-.392-.367-.337-.622-.305-2.983.375-5.963.773-8.947,1.137-2.222.271-4.449.487-6.671.753-2.245.268-4.485.582-6.73.848a36.043,36.043,0,0,0-3.577.462,1.537,1.537,0,0,1,1.514-1.432c4.3-.457,8.587-.988,12.879-1.5,3.809-.457,7.616-.927,11.424-1.388a3.217,3.217,0,0,1,1.132-.031l-.4,1.46" transform="translate(-34.243 -13.962)" fill="#d9d3d3"/>
        <path id="Trazado_211063" data-name="Trazado 211063" d="M104.422,14.508c-.064-.392-.368-.337-.622-.3-2.982.375-5.963.773-8.947,1.137-2.222.271-4.449.487-6.671.753-2.245.268-4.485.582-6.73.848a36.066,36.066,0,0,0-3.577.462,1.541,1.541,0,0,1,1.514-1.432c4.659-.5,9.309-1.082,13.962-1.639q5.134-.614,10.268-1.24a3.786,3.786,0,0,1,1.206-.046l-.4,1.462" transform="translate(-34.243 -5.721)" fill="#d9d3d3"/>
        <path id="Trazado_211064" data-name="Trazado 211064" d="M15.16,60.692a16.766,16.766,0,0,1,.749-11.38c.185-.406.391-.638.881-.468a3.752,3.752,0,0,0,.723.069c.239.031.476.087.78.145-.319,1.069-.735,2.09-.963,3.167a21.213,21.213,0,0,0-.184,7.67c.033.216.038.435.056.653.105.292-.075.444-.306.426a3.2,3.2,0,0,1-1.734-.283" transform="translate(-6.382 -21.453)" fill="#f6921e"/>
        <path id="Trazado_211065" data-name="Trazado 211065" d="M56.806,65.323a17.623,17.623,0,0,1,.577-11.256c.147-.371.37-.431.727-.4,1.6.133,1.606.125,1.171,1.658a22.2,22.2,0,0,0-.337,10.144,2.222,2.222,0,0,1-2.137-.146" transform="translate(-24.691 -23.595)" fill="#f6921e"/>
        <path id="Trazado_211066" data-name="Trazado 211066" d="M28.6,25.289q2.148.258,4.3.517c1.409.167,2.82.328,4.23.5,1.457.173,2.913.351,4.37.523,1.434.169,2.869.329,4.3.5,1.959.232,3.916.475,5.875.7.67.077,1.344.115,2.016.17l.323,1.045a36.306,36.306,0,0,1-3.756-.378c-2.747-.3-5.489-.636-8.233-.958q-3.972-.466-7.944-.935c-1.444-.171-2.885-.364-4.332-.514-1.043-.108-1.065-.1-1.148-1.166" transform="translate(-12.577 -11.12)" fill="#5b52d6"/>
        <path id="Trazado_211067" data-name="Trazado 211067" d="M75.667,74.764c.3.043.434.3.621.477a2.085,2.085,0,0,0,1.978.6c1.4-.244,2.822-.34,4.232-.515,1.479-.183,2.956-.386,4.433-.58.007.606-.013,1.213.032,1.815.034.44-.132.594-.551.641-2.141.24-4.279.5-6.419.752a16.676,16.676,0,0,0-1.8.227,1.218,1.218,0,0,1-1.418-.6,7.645,7.645,0,0,1-1.109-2.817" transform="translate(-33.272 -32.865)" fill="#d9d3d3"/>
        <path id="Trazado_211068" data-name="Trazado 211068" d="M23.323,12.046c.235.387-.119.729-.086,1.1-1.05.05-1.335.356-1.464,1.4a20.762,20.762,0,0,0,0,4.434,3.648,3.648,0,0,1-2.693-.294,11.988,11.988,0,0,1,.161-6.442c.137-.452.29-.678.843-.585,1.071.18,2.158.262,3.239.385" transform="translate(-8.23 -5.118)" fill="#98dfd3"/>
        <path id="Trazado_211069" data-name="Trazado 211069" d="M103.5,65.221c1.089-.323,1.164-.27,1.164.83v8.914a6.886,6.886,0,0,1-1.267-1.509,1.2,1.2,0,0,0-2.195.143,12.2,12.2,0,0,1-1.186,1.727V72.362a2.051,2.051,0,0,1,.643-.678,7.045,7.045,0,0,0,2.649-5.494c.008-.331-.069-.685.19-.969" transform="translate(-43.979 -28.603)" fill="#c0272d"/>
        <path id="Trazado_211070" data-name="Trazado 211070" d="M103.48,65.357a7.813,7.813,0,0,1-1.767,5.726A6.541,6.541,0,0,1,100,72.5c-.007-2.1-.011-4.207-.024-6.31,0-.3.038-.5.412-.531,1.033-.082,2.063-.2,3.094-.3" transform="translate(-43.96 -28.739)" fill="#ec1c24"/>
        <path id="Trazado_211071" data-name="Trazado 211071" d="M53.148,34.783c.166-.142.112-.355.173-.531,1.082.123,2.162.259,3.245.36.369.034.516.092.38.517a15.725,15.725,0,0,0-.589,5.6.2.2,0,0,1-.108.236,2.946,2.946,0,0,1-2.367-.51,9.83,9.83,0,0,1,.018-4.011,1.346,1.346,0,0,0-.751-1.662" transform="translate(-23.37 -15.061)" fill="#706ff1"/>
        <path id="Trazado_211072" data-name="Trazado 211072" d="M63.282,46.623c1.835.178,3.654.513,5.5.579.146.63.292,1.261.461,1.983-1.782-.214-3.505-.425-5.23-.624a.47.47,0,0,1-.468-.443,6.843,6.843,0,0,1-.263-1.495" transform="translate(-27.826 -20.501)" fill="#5bd2c6"/>
        <path id="Trazado_211073" data-name="Trazado 211073" d="M65.634,75.275a9.171,9.171,0,0,0,1.918.249c.453.1.947.119,1.423.177l.814,2.347c-1.065-.115-2.06-.222-3.054-.333-.234-.026-.294-.234-.369-.406a9.688,9.688,0,0,1-.733-2.035" transform="translate(-28.86 -33.1)" fill="#f5921e"/>
        <path id="Trazado_211074" data-name="Trazado 211074" d="M5.532,68.739c.808.1,1.616.2,2.426.287.253.026.556.078.63-.3.176.676.35,1.353.529,2.029.076.287,0,.363-.318.361-2.014-.011-2.618-.438-3.268-2.375" transform="translate(-2.433 -30.219)" fill="#f5921e"/>
        <path id="Trazado_211075" data-name="Trazado 211075" d="M57.319,74.475a19.61,19.61,0,0,0,2.137.146q.265.94.528,1.881c.043.152.166.316-.052.439a2.481,2.481,0,0,1-1.963-.631,8.043,8.043,0,0,1-.652-1.835" transform="translate(-25.204 -32.747)" fill="#ef5a24"/>
        <path id="Trazado_211076" data-name="Trazado 211076" d="M54.457,45.325a3.855,3.855,0,0,0,2.475.274c.09.565.183,1.13.269,1.7.035.234-.049.376-.315.338-.071-.01-.143-.024-.214-.034-1.813-.258-1.813-.258-2.215-2.274" transform="translate(-23.946 -19.93)" fill="#5857db"/>
        <path id="Trazado_211077" data-name="Trazado 211077" d="M7.27,22.934a32.282,32.282,0,0,1,3.809.373c.178.015.331.066.45-.106.342,1.183.342,1.184-.8,1.058-.746-.082-1.49-.219-2.238-.241A1.175,1.175,0,0,1,7.27,22.934" transform="translate(-3.197 -10.082)" fill="#5b52d7"/>
        <path id="Trazado_211078" data-name="Trazado 211078" d="M15.666,69.922a5.934,5.934,0,0,1,1.562.121.321.321,0,0,0,.478-.265c.169.651.325,1.3.51,1.95.107.373-.079.391-.368.4-1.3.036-1.54-.119-1.952-1.373-.09-.273-.155-.554-.231-.831" transform="translate(-6.889 -30.683)" fill="#ef5924"/>
        <path id="Trazado_211079" data-name="Trazado 211079" d="M19.365,24.219l2.693.294c.018.1.034.192.054.286.166.8.146.817-.68.7a3.425,3.425,0,0,0-.72-.1,1.093,1.093,0,0,1-1.347-1.185" transform="translate(-8.515 -10.649)" fill="#5bd1c5"/>
      </g>
    </g>
  </g>
</svg>
