<svg xmlns="http://www.w3.org/2000/svg" xmlns:xlink="http://www.w3.org/1999/xlink" width="92" height="92" viewBox="0 0 92 92">
  <defs>
    <clipPath id="clip-path">
      <rect id="Rectángulo_339005" data-name="Rectángulo 339005" width="62.867" height="65.038" fill="none"/>
    </clipPath>
  </defs>
  <g id="Grupo_983747" data-name="Grupo 983747" transform="translate(-1077 -3943)">
    <circle id="Elipse_4874" data-name="Elipse 4874" cx="46" cy="46" r="46" transform="translate(1077 3943)" fill="#6b8dfc"/>
    <g id="Grupo_983746" data-name="Grupo 983746" transform="translate(1092 3956)">
      <g id="Grupo_983745" data-name="Grupo 983745" clip-path="url(#clip-path)">
        <path id="Trazado_211080" data-name="Trazado 211080" d="M44.935,65.027c-6.388,0-12.777-.019-19.165.009-2.51.011-2.571-.072-2.526-2.564a12.292,12.292,0,0,1,.258-2.551A9.449,9.449,0,0,1,25.939,55.4c.924-.959,1.86-1.908,2.824-2.826a9.538,9.538,0,0,1,6.723-2.716c1.512-.012,3.025-.025,4.537.011.491.012.607-.138.577-.6a7.229,7.229,0,0,0-.058-1.946c-.223-.6-1.062-.629-1.6-.96a9.666,9.666,0,0,1-4.7-6.848c-.071-.408-.2-.524-.592-.5a4.583,4.583,0,0,1-1.478-.107,3.246,3.246,0,0,1-2.408-3c-.024-.722-.012-1.445-.007-2.167a3.252,3.252,0,0,1,3.356-3.384c.978-.011.978-.011.978-.987,0-1.106-.011-2.212.007-3.318a.65.65,0,0,0-.381-.685,5.268,5.268,0,0,1-2.866-4.927.923.923,0,0,0-.293-.7,6.42,6.42,0,0,1,.018-9.119.928.928,0,0,0,.274-.712,5.353,5.353,0,0,1,4.012-5.365.639.639,0,0,0,.506-.512A5.389,5.389,0,0,1,40.805,0q4.063-.008,8.126,0c1.054,0,1.409.362,1.412,1.427,0,.745.013,1.49-.006,2.235a.511.511,0,0,0,.351.56c.28.128.408,0,.571-.167.475-.483.95-.966,1.436-1.437a1.092,1.092,0,0,1,1.766-.028q2.074,2.044,4.119,4.117a1.094,1.094,0,0,1-.006,1.766c-.453.472-.922.93-1.388,1.39-.192.191-.381.337-.215.681.145.3.343.3.6.3.79-.005,1.58-.01,2.37,0a1.1,1.1,0,0,1,1.24,1.257q.012,3.081,0,6.162a1.105,1.105,0,0,1-1.252,1.246c-.813.01-1.625.011-2.438,0a.461.461,0,0,0-.515.314.446.446,0,0,0,.124.582c.507.482,1,.978,1.486,1.483a1.1,1.1,0,0,1-.011,1.767c-.8.824-1.615,1.642-2.443,2.441a1.077,1.077,0,0,0-.375.877c.026.97.029,1.942,0,2.912-.012.395.118.5.492.477a4.418,4.418,0,0,1,1.411.1,3.241,3.241,0,0,1,2.435,3.051c.021.744.016,1.49,0,2.235a3.254,3.254,0,0,1-3.26,3.275c-1.1.023-1.08.027-1.332,1.072a9.555,9.555,0,0,1-5.726,6.821c-.392.172-.555.348-.526.781.047.694-.239,1.635.112,2.025.4.444,1.355.11,2.068.138a27.5,27.5,0,0,1,4.992.229,9.713,9.713,0,0,1,4.8,2.615c.853.839,1.7,1.682,2.537,2.539A9.654,9.654,0,0,1,66.6,62.18c0,.5,0,.993,0,1.49-.007.972-.382,1.354-1.348,1.356q-4.334.006-8.668,0Z" transform="translate(-13.493 0)"/>
        <path id="Trazado_211081" data-name="Trazado 211081" d="M125.4,18.091c.677,0,1.354-.01,2.03,0a1.111,1.111,0,0,1,1.214,1.219c.032.668-.292,1.559.135,1.935.371.328,1.245.081,1.9.1a1.1,1.1,0,0,1,1.214,1.213q.019,2.03,0,4.06a1.11,1.11,0,0,1-1.2,1.23c-.668.032-1.559-.29-1.94.126-.33.359-.089,1.239-.106,1.889a1.111,1.111,0,0,1-1.268,1.231q-2,.014-3.993,0a1.106,1.106,0,0,1-1.24-1.256c-.008-.541-.019-1.084.005-1.624.013-.305-.1-.385-.385-.374-.563.021-1.128.018-1.692,0a1.08,1.08,0,0,1-1.177-1.18q-.021-2.064,0-4.129a1.079,1.079,0,0,1,1.169-1.187c.518-.015,1.039-.028,1.556,0,.4.024.577-.057.533-.5a13,13,0,0,1-.01-1.353c.005-1.051.36-1.4,1.434-1.4.609,0,1.218,0,1.827,0" transform="translate(-69.035 -10.503)"/>
        <path id="Trazado_211082" data-name="Trazado 211082" d="M0,27.155c0-.631,0-1.263,0-1.895.008-.964.382-1.33,1.364-1.336.473,0,.949-.028,1.42.008.4.03.493-.124.473-.493-.029-.54-.021-1.083,0-1.624a1.063,1.063,0,0,1,1.149-1.137q2.1-.025,4.2,0a1.077,1.077,0,0,1,1.153,1.138c.039.69-.291,1.613.135,2,.372.341,1.283.085,1.955.107A1.067,1.067,0,0,1,13,25.059q.028,2.1,0,4.2a1.082,1.082,0,0,1-1.191,1.168c-.541.013-1.084.028-1.623-.006-.376-.023-.454.122-.439.46.024.54.018,1.083,0,1.624A1.068,1.068,0,0,1,8.634,33.67q-2.132.03-4.263,0A1.054,1.054,0,0,1,3.26,32.564c-.022-.563-.025-1.129,0-1.692.016-.345-.075-.478-.443-.455-.517.032-1.037.015-1.556.007A1.11,1.11,0,0,1,0,29.185c-.01-.677,0-1.354,0-2.03" transform="translate(0 -12)"/>
        <path id="Trazado_211083" data-name="Trazado 211083" d="M21.379,73.707a1.075,1.075,0,0,1-1.093-.987,3.332,3.332,0,0,1,0-.743c.043-.367-.108-.473-.452-.439a3.462,3.462,0,0,1-.743-.007,1.057,1.057,0,0,1-.971-1.1,1.032,1.032,0,0,1,.965-1.039c.373-.052.862.1,1.1-.094.266-.208.048-.716.1-1.091a1.082,1.082,0,0,1,2.158.025c.046.372-.174.865.109,1.086.227.178.691.037,1.047.069a1.071,1.071,0,0,1,1.011,1.07,1.094,1.094,0,0,1-1,1.084c-.374.047-.865-.17-1.091.1-.181.217-.047.686-.079,1.041a1.078,1.078,0,0,1-1.056,1.026" transform="translate(-10.519 -39.029)"/>
        <path id="Trazado_211084" data-name="Trazado 211084" d="M122.821,85.957a1.1,1.1,0,0,1-1.2,1.094c-.939.034-.939.034-.964.93-.021.748-.425,1.219-1.059,1.234-.66.016-1.091-.47-1.108-1.252a2.963,2.963,0,0,1,0-.473c.05-.357-.091-.483-.445-.445a3.384,3.384,0,0,1-.743-.006,1.057,1.057,0,0,1-.975-1.1,1.031,1.031,0,0,1,.96-1.043c.373-.054.86.1,1.107-.091.27-.207.051-.715.1-1.089a1.082,1.082,0,0,1,2.158.015c.046.373-.173.865.107,1.088.224.179.69.04,1.045.072a1.073,1.073,0,0,1,1.016,1.065" transform="translate(-67.55 -48.034)"/>
        <path id="Trazado_211085" data-name="Trazado 211085" d="M54.288,64.341a5.6,5.6,0,0,0,3.5,2.045,7.643,7.643,0,0,0,1.077.073q4.028.009,8.056,0c1.071,0,1.432-.355,1.436-1.4,0-.745.01-1.49,0-2.234a.52.52,0,0,1,.33-.576c.312-.146.438.036.627.195.735.615,1.214,1.528,2.188,1.865.2.071.106.275.106.415,0,3.227.055,6.455-.021,9.681a7.521,7.521,0,0,1-7.229,7.212,15.363,15.363,0,0,1-4.375-.228,7.545,7.545,0,0,1-5.7-7.2c-.039-3.159-.01-6.319-.011-9.478,0-.08.007-.16.016-.37" transform="translate(-31.51 -36.114)" fill="#f6cba8"/>
        <path id="Trazado_211086" data-name="Trazado 211086" d="M54.359,18.155c0,4.129-.01,8.259.012,12.388,0,.5-.109.658-.625.631-.9-.047-1.805.011-2.707-.021a3.214,3.214,0,0,1-2.833-1.783c-.179-.322-.234-.5.231-.66a5.3,5.3,0,0,0,3.69-4.349,3.751,3.751,0,0,0,.057-.605A1.1,1.1,0,0,0,51.157,22.5c-.633-.03-1.075.422-1.135,1.161a3.244,3.244,0,1,1-6.45-.569,1.483,1.483,0,0,0-.6-1.577,4.28,4.28,0,0,1,0-6.709,1.47,1.47,0,0,0,.6-1.577,3.245,3.245,0,1,1,6.439-.774,1.61,1.61,0,0,0,.218.9,1.017,1.017,0,0,0,1.192.409,1.088,1.088,0,0,0,.772-1.14,5.342,5.342,0,0,0-3.565-4.947c-.647-.22-.621-.461-.327-.914a3.233,3.233,0,0,1,2.737-1.6c.9-.025,1.807.026,2.707-.019.51-.026.631.122.628.628-.022,4.129-.013,8.259-.013,12.388" transform="translate(-24.011 -2.983)" fill="#dfb898"/>
        <path id="Trazado_211087" data-name="Trazado 211087" d="M37.563,134.907c-2.841,0-5.683-.013-8.524.013-.5,0-.641-.116-.634-.628a7.619,7.619,0,0,1,2.192-5.433c.93-.951,1.864-1.9,2.831-2.813a7.56,7.56,0,0,1,4.43-1.962.644.644,0,0,1,.816.541c.5,1.59,1.035,3.165,1.561,4.745.351,1.054.555,1.2,1.65,1.2,1.466,0,2.932.015,4.4-.009.426-.007.586.089.571.55-.035,1.081-.034,2.165,0,3.247.013.449-.126.56-.564.557-2.909-.019-5.818-.01-8.727-.01" transform="translate(-16.495 -72.047)" fill="#3396e7"/>
        <path id="Trazado_211088" data-name="Trazado 211088" d="M86.708,134.908c-2.864,0-5.728-.011-8.592.011-.467,0-.618-.106-.6-.59.039-1.081.034-2.165,0-3.247-.013-.432.13-.524.535-.518,1.488.023,2.976.01,4.465.009,1.05,0,1.267-.156,1.605-1.169.534-1.6,1.081-3.2,1.584-4.808a.61.61,0,0,1,.769-.512,7.487,7.487,0,0,1,4.439,1.938c1,.942,1.973,1.918,2.926,2.909a7.591,7.591,0,0,1,2.123,5.393c.005.475-.121.6-.6.6-2.886-.023-5.773-.011-8.659-.011" transform="translate(-45.011 -72.048)" fill="#3396e7"/>
        <path id="Trazado_211089" data-name="Trazado 211089" d="M77.529,28.457c0-.7.023-1.4-.009-2.1-.02-.434.059-.6.563-.642a7.574,7.574,0,0,0-.005-15.109c-.43-.031-.569-.13-.56-.574q.043-2.166,0-4.332c-.01-.46.144-.552.571-.552,1.608,0,1.608-.013,1.608,1.6,0,.248,0,.5,0,.745,0,.89.192,1.143,1.012,1.455.483.184.959.392,1.423.619a1.136,1.136,0,0,0,1.42-.229c.434-.427.872-.852,1.29-1.295.2-.215.346-.208.55,0,.741.759,1.488,1.512,2.251,2.248.255.246.179.395-.036.6-.411.387-.8.8-1.2,1.192a1.177,1.177,0,0,0-.256,1.528A13.435,13.435,0,0,1,86.78,15.1a1.21,1.21,0,0,0,1.271.9c.676-.016,1.354.014,2.03-.011.352-.013.467.091.46.453q-.033,1.725,0,3.452c.008.373-.131.454-.47.443-.676-.022-1.354,0-2.03-.009a1.181,1.181,0,0,0-1.239.842q-.313.819-.69,1.613a1.126,1.126,0,0,0,.2,1.367c.092.1.195.189.284.29.4.452,1.192.821,1.144,1.321-.045.475-.749.891-1.171,1.325-.377.388-.78.753-1.142,1.155-.246.273-.412.245-.647-.012-.4-.432-.824-.835-1.242-1.247a1.137,1.137,0,0,0-1.42-.222c-.525.255-1.068.478-1.613.689a1.153,1.153,0,0,0-.817,1.185c.007.677-.015,1.355.008,2.031.012.357-.059.506-.469.515-1.706.037-1.705.053-1.705-1.641Z" transform="translate(-45.013 -2.99)" fill="#3396e7"/>
        <path id="Trazado_211090" data-name="Trazado 211090" d="M77.531,28.689c0-1.624.014-3.248-.009-4.871-.006-.427.078-.585.546-.537a5.436,5.436,0,0,1,0,10.815c-.465.048-.553-.106-.548-.535.024-1.623.01-3.247.01-4.871" transform="translate(-45.015 -13.514)" fill="#e8edf1"/>
        <path id="Trazado_211091" data-name="Trazado 211091" d="M71.956,113.67c.564,0,1.13.035,1.69-.012.41-.034.487.114.478.481-.022.879,0,1.759-.01,2.638a1.109,1.109,0,0,1-1.258,1.24c-.631.01-1.263.014-1.894,0a1.081,1.081,0,0,1-1.175-1.182c-.016-.924.008-1.849-.01-2.773-.007-.327.089-.421.421-.4.585.034,1.172.01,1.758.01v0" transform="translate(-40.518 -65.997)" fill="#dfb898"/>
        <path id="Trazado_211092" data-name="Trazado 211092" d="M62.87,128.379c-1.056.007-2.113.01-3.169.025a.432.432,0,0,1-.495-.336c-.419-1.3-.859-2.6-1.327-4,.975,0,1.881,0,2.786,0,.19,0,.265.11.338.267a3.715,3.715,0,0,0,1.876,1.754,2.771,2.771,0,0,1-.01,2.292" transform="translate(-33.61 -72.043)" fill="#2977b7"/>
        <path id="Trazado_211093" data-name="Trazado 211093" d="M79.78,126.084a3.649,3.649,0,0,0,1.872-1.755.43.43,0,0,1,.477-.267c.852,0,1.705,0,2.647,0-.462,1.4-.907,2.728-1.343,4.065-.081.249-.258.273-.473.27-1.056-.01-2.113-.016-3.169-.023a2.773,2.773,0,0,1-.01-2.292" transform="translate(-46.186 -72.041)" fill="#2977b7"/>
        <path id="Trazado_211094" data-name="Trazado 211094" d="M46.1,79.555c0,.586-.012,1.173.005,1.759.008.283-.069.378-.373.4-1.4.083-1.8-.271-1.8-1.659,0-.519-.017-1.038.005-1.556a1.463,1.463,0,0,1,2.041-1.118c.184.1.116.275.117.42.008.586,0,1.172,0,1.759" transform="translate(-25.51 -44.851)" fill="#dfb898"/>
        <path id="Trazado_211095" data-name="Trazado 211095" d="M100.793,79.679c0-.541.021-1.083-.007-1.623-.02-.383.046-.549.5-.547,1.36.005,1.675.289,1.675,1.651,0,.5.011.992,0,1.488a1.449,1.449,0,0,1-2.035,1.2c-.193-.1-.125-.268-.127-.411-.008-.586,0-1.172,0-1.758" transform="translate(-58.523 -45.008)" fill="#dfb898"/>
        <path id="Trazado_211096" data-name="Trazado 211096" d="M69.781,131.176q.005-1.146.01-2.292c1.078.178,1.078.178,1.078,1.224a2.029,2.029,0,0,0,0,.335c.1.613-.143.863-.757.757a3.151,3.151,0,0,0-.334-.023" transform="translate(-40.521 -74.841)" fill="#12619f"/>
        <path id="Trazado_211097" data-name="Trazado 211097" d="M78.623,128.884l.01,2.292c-1.088.057-1.088.057-1.088-1v-.067c0-1.046,0-1.046,1.078-1.224" transform="translate(-45.029 -74.841)" fill="#12619f"/>
        <path id="Trazado_211098" data-name="Trazado 211098" d="M129.471,24.525c0,.226,0,.452,0,.677.014.917.4,1.292,1.335,1.3.113,0,.226-.007.339,0,.51.035,1.287-.226,1.471.105.26.469.085,1.176.108,1.78.013.328-.211.279-.408.28-.564,0-1.129-.013-1.693.005a1.071,1.071,0,0,0-1.147,1.143c-.018.564-.022,1.129,0,1.692.013.327-.1.406-.419.42-1.755.075-1.754.085-1.755-1.65,0-1.324-.291-1.609-1.639-1.61-1.643,0-1.628,0-1.623-1.648,0-.407.086-.561.519-.529a14.177,14.177,0,0,0,1.624,0,1.066,1.066,0,0,0,1.112-1.11c.023-.586.021-1.174,0-1.76-.01-.3.094-.409.387-.379.179.018.361,0,.541,0,1.246,0,1.246,0,1.246,1.271" transform="translate(-72.029 -13.499)" fill="#fed23a"/>
        <path id="Trazado_211099" data-name="Trazado 211099" d="M8.376,33.158c0-.226.005-.452,0-.677A1.115,1.115,0,0,0,7.1,31.252c-.519-.008-1.039-.017-1.557,0-.313.013-.415-.074-.431-.408-.082-1.765-.094-1.765,1.641-1.766,1.332,0,1.619-.29,1.62-1.63,0-1.649,0-1.627,1.64-1.635.478,0,.561.169.535.58-.03.472-.013.948-.005,1.421a1.112,1.112,0,0,0,1.239,1.261c.541.01,1.084.015,1.625,0,.286-.009.432.069.386.375a.363.363,0,0,0,0,.068c.07,1.728.07,1.728-1.667,1.73-1.311,0-1.584.287-1.585,1.662,0,1.607,0,1.594-1.6,1.6-.414,0-.636-.066-.57-.541a5.887,5.887,0,0,0,.007-.812" transform="translate(-2.954 -14.992)" fill="#fed23a"/>
        <path id="Trazado_211100" data-name="Trazado 211100" d="M69.148,92.215a5.622,5.622,0,0,1-2.968-.683,3.15,3.15,0,0,1-1.531-2.2,1.15,1.15,0,0,1,.813-1.428,1.11,1.11,0,0,1,1.318.942,1,1,0,0,0,.038.2c.525.99,1.463,1.012,2.4.99,1.073-.025,1.71-.435,1.911-1.172s.7-1.1,1.3-.961a1.159,1.159,0,0,1,.821,1.481,3.411,3.411,0,0,1-2.816,2.669,4.393,4.393,0,0,1-1.291.167" transform="translate(-37.524 -51.025)"/>
        <path id="Trazado_211101" data-name="Trazado 211101" d="M65.714,77.55a1.081,1.081,0,1,1-1.084,1.059,1.088,1.088,0,0,1,1.084-1.059" transform="translate(-37.53 -45.032)" fill="#030202"/>
        <path id="Trazado_211102" data-name="Trazado 211102" d="M81.222,77.55a1.081,1.081,0,1,1-1.084,1.059,1.088,1.088,0,0,1,1.084-1.059" transform="translate(-46.535 -45.032)" fill="#030202"/>
        <path id="Trazado_211103" data-name="Trazado 211103" d="M54.971,35.351a3.283,3.283,0,0,1-3.251-2.85c-.1-.806.263-1.384.926-1.473.64-.086,1.1.327,1.224,1.13a1.068,1.068,0,0,0,1.065,1.018c.586.034.987-.368,1.1-1.05.125-.754.565-1.162,1.187-1.1a1.137,1.137,0,0,1,.972,1.372,3.277,3.277,0,0,1-3.223,2.953" transform="translate(-30.024 -18.011)"/>
      </g>
    </g>
  </g>
</svg>
