<svg xmlns="http://www.w3.org/2000/svg" xmlns:xlink="http://www.w3.org/1999/xlink" width="92" height="92" viewBox="0 0 92 92">
  <defs>
    <clipPath id="clip-path">
      <rect id="Rectángulo_339008" data-name="Rectángulo 339008" width="67.081" height="55.302" fill="none"/>
    </clipPath>
  </defs>
  <g id="Grupo_983756" data-name="Grupo 983756" transform="translate(0 7707)">
    <circle id="Elipse_4877" data-name="Elipse 4877" cx="46" cy="46" r="46" transform="translate(0 -7707)" fill="#6b8dfc"/>
    <g id="Grupo_983755" data-name="Grupo 983755" transform="translate(12 -7689)">
      <g id="Grupo_983754" data-name="Grupo 983754" clip-path="url(#clip-path)">
        <path id="Trazado_211138" data-name="Trazado 211138" d="M121.844,69.23a2.824,2.824,0,0,1,1.134,2.906c-.055.259.093.427.21.619A7.956,7.956,0,0,1,116.151,85a3.7,3.7,0,0,1-1.4-.206,4.337,4.337,0,0,0-2.992.017,10.752,10.752,0,0,1-13.2-9.238,1.073,1.073,0,0,1-.022-.2c.063-.744-.228-1.037-1.017-1.167a2.728,2.728,0,0,1,.509-5.367c.142-.011.436.154.4-.167-.039-.348-.324-.128-.483-.106-.335.044-.66.159-.994.217a.8.8,0,0,1-1.037-.628.746.746,0,0,1,.712-.961c.677-.055.744-.393.748-.973a51.973,51.973,0,0,1,.1-5.713,12.631,12.631,0,0,1,24.876-.925,15.359,15.359,0,0,1,.273,3.384c0,1.7-.006,3.4.008,5.107,0,.555-.128.993-.785,1.163" transform="translate(-57.418 -29.819)"/>
        <path id="Trazado_211139" data-name="Trazado 211139" d="M24.7,69.252a6.826,6.826,0,0,1,1.423.26,2.76,2.76,0,0,1,1.629,2.741,2.66,2.66,0,0,1-2.178,2.462c-.656.092-.784.346-.851.955a10.789,10.789,0,0,1-21.466.452c-.007-.068-.021-.135-.022-.2-.009-.687-.112-1.144-1.023-1.245A2.608,2.608,0,0,1,.167,72.18a2.654,2.654,0,0,1,1.718-2.673c.541-.184.447-.4.284-.769A24.972,24.972,0,0,1,.077,61.8,6.57,6.57,0,0,1,.4,58.456a3.057,3.057,0,0,1,1.5-1.693,3.255,3.255,0,0,0,1.109-.95,8.417,8.417,0,0,1,7.492-3.2,1.318,1.318,0,0,0,.719-.113,4.785,4.785,0,0,1,4.2-.1.873.873,0,0,0,.706.015,4.928,4.928,0,0,1,5.63,1.4A5.125,5.125,0,0,0,23.8,55.294a3.57,3.57,0,0,1,2.341,3.37c.024.386.122.524.493.628a2.745,2.745,0,0,1,1.9,3.73,12.988,12.988,0,0,1-3.826,6.23" transform="translate(0 -31.257)"/>
        <path id="Trazado_211140" data-name="Trazado 211140" d="M63.327,0q5,0,10.009,0a3.587,3.587,0,0,1,3.777,3.748q.012,5.412,0,10.825a3.554,3.554,0,0,1-3.7,3.682c-3.268.008-6.536.016-9.8-.01-.582,0-.78.107-.82.75a6.987,6.987,0,0,1-4.5,6.33c-.394.173-.815.343-1.221.022s-.293-.775-.215-1.2a9.854,9.854,0,0,0,.1-3.65,2.4,2.4,0,0,0-2.658-2.247,7.957,7.957,0,0,1-2.031-.118A3.533,3.533,0,0,1,49.6,14.762c-.017-3.744-.024-7.489,0-11.233A3.547,3.547,0,0,1,53.182.007c3.382-.013,6.763,0,10.145,0" transform="translate(-29.824 0)"/>
        <path id="Trazado_211141" data-name="Trazado 211141" d="M97.107,50.535c-1.022,0-2.043.005-3.065,0-.677,0-1.026-.29-1.026-.816s.348-.814,1.026-.815c2.043-.005,4.087,0,6.13-.006.559,0,.934.214,1,.787.057.5-.362.844-1,.849-1.022.009-2.043,0-3.065,0" transform="translate(-55.952 -29.413)"/>
        <path id="Trazado_211142" data-name="Trazado 211142" d="M86.169,50.541c-.727,0-1.1-.268-1.11-.8s.359-.83,1.079-.833,1.113.286,1.124.8-.394.831-1.093.834" transform="translate(-51.166 -29.418)" fill="#294369"/>
        <path id="Trazado_211143" data-name="Trazado 211143" d="M107.042,90.646c0-1.271.015-2.337-.009-3.4a.526.526,0,0,1,.437-.621,26.424,26.424,0,0,0,10.555-5.693c.436-.4.515-.014.675.224a14.8,14.8,0,0,0,5.477,5.276,2,2,0,0,1,1.28,2.276c-.13,1.921.129,3.857-.144,5.776a9.195,9.195,0,0,1-18,.838,21.766,21.766,0,0,1-.274-4.672" transform="translate(-64.384 -48.577)" fill="#fed7b6"/>
        <path id="Trazado_211144" data-name="Trazado 211144" d="M126.261,69.844a11.006,11.006,0,0,1-5.126-2.689,16.639,16.639,0,0,1-3.012-3.662.555.555,0,0,1,.062-.765,16.532,16.532,0,0,0,2.4-4,.926.926,0,0,0-.381-1.317c-.431-.2-.877.055-1.133.684a14.887,14.887,0,0,1-3.928,5.48,23.645,23.645,0,0,1-7.454,4.391q-1.427.548-2.894.978c-.419.122-.5,0-.5-.4.02-1.067.017-2.135,0-3.2,0-.33.1-.459.436-.544.876-.222,1.74-.494,2.6-.77.643-.206.91-.617.725-1.083-.234-.589-.668-.657-1.224-.466-.642.221-1.3.385-1.943.6-.4.135-.509,0-.434-.368a11.046,11.046,0,0,1,5.18-7.486,10.933,10.933,0,0,1,6.229-1.575c.532.02.634.145.4.632a15.2,15.2,0,0,1-6.409,6.823,3.979,3.979,0,0,0-.587.339c-.354.291-.606.637-.308,1.114a.79.79,0,0,0,1.131.261,15.8,15.8,0,0,0,2.967-1.906,15.981,15.981,0,0,0,4.906-6.489c.132-.321.3-.367.629-.253a10.657,10.657,0,0,1,7.5,8.59,37.532,37.532,0,0,1,.153,5.841c.014.4,0,.806,0,1.238" transform="translate(-62.741 -32.269)" fill="#6d7485"/>
        <path id="Trazado_211145" data-name="Trazado 211145" d="M146.941,120.149c-.279-.066-.772.18-.895-.15-.116-.311.394-.473.629-.671a10.638,10.638,0,0,0,3.618-6.192,7.4,7.4,0,0,0,.213-1.4c0-.436.176-.609.573-.657a1.128,1.128,0,0,0,.52-.135c.69-.512.944-.107,1.189.491a6.34,6.34,0,0,1-5.846,8.71" transform="translate(-87.842 -66.598)" fill="#4a5160"/>
        <path id="Trazado_211146" data-name="Trazado 211146" d="M100.926,103.169a3.763,3.763,0,0,1,0,.474c-.026.208.13.5-.131.606a.794.794,0,0,1-.751-.208,1.108,1.108,0,0,1-.309-1.452.819.819,0,0,1,.941-.493c.439.1.194.481.249.735a1.623,1.623,0,0,1,0,.338" transform="translate(-59.902 -61.399)" fill="#ecc396"/>
        <path id="Trazado_211147" data-name="Trazado 211147" d="M157.31,103.18a3.868,3.868,0,0,1,0-.471c.028-.221-.133-.521.221-.622a.735.735,0,0,1,.736.219,1.144,1.144,0,0,1-.241,1.83c-.529.281-.71.176-.719-.418,0-.179,0-.359,0-.539" transform="translate(-94.621 -61.392)" fill="#ebc296"/>
        <path id="Trazado_211148" data-name="Trazado 211148" d="M19.87,74.526a2.441,2.441,0,0,0,.557-.384c.781-.954,1.662-.928,2.782-.578a7.362,7.362,0,0,0,5.538-.666c.651-.318,1.275-.691,1.929-1,2.131-1.022,3.955.174,4.1,2.531.258,4.081.216,8.164.2,12.247A9.2,9.2,0,0,1,27.377,95.6a5.335,5.335,0,0,1-.543.036c-1.468.352-2.529-.445-3.527-1.309a9.993,9.993,0,0,1-3.625-7.937,24.1,24.1,0,0,1,.065-3.25,10.806,10.806,0,0,0,.432-.994,1.047,1.047,0,0,1,1.036-.826,1.059,1.059,0,0,1,1.02.848,1.959,1.959,0,0,0,.142.381.574.574,0,0,0,.655.367.584.584,0,0,0,.461-.593,2.261,2.261,0,0,0-2.725-2.263c-.318.064-.644.285-.963-.008a1.286,1.286,0,0,1-.153-.716q-.014-2.022,0-4.045a1.2,1.2,0,0,1,.218-.763" transform="translate(-11.818 -43.026)" fill="#fed7b6"/>
        <path id="Trazado_211149" data-name="Trazado 211149" d="M17.461,56.7a2.875,2.875,0,0,0,1.689-.353,2.928,2.928,0,0,1,2.929.1,1.453,1.453,0,0,0,1.527.016,3.3,3.3,0,0,1,3.777.617c.294.281.552.6.825.9a3.2,3.2,0,0,0,1.77,1.144,2.154,2.154,0,0,1,1.517,2.765c-.235.866.067,1.29.965,1.345a7.262,7.262,0,0,1,.747.035c.581.1,1.111.7.955,1.21A12.877,12.877,0,0,1,32.064,69a3.866,3.866,0,0,1-.284-1.5c-.092-.878-.119-1.764-.139-2.647A4.264,4.264,0,0,0,25.67,60.89a11.2,11.2,0,0,0-1.631.838,7.279,7.279,0,0,1-7.859-.082c-.236-.135-.475-.267-.712-.4a.769.769,0,0,0-1.117.284.755.755,0,0,0,.275,1.115c.669.5.689.53-.069.936a3.075,3.075,0,0,1-2.564.493,3.75,3.75,0,0,1,1.551-4.413,2.85,2.85,0,0,0,.968-.809,9.5,9.5,0,0,1,2.013-1.9.965.965,0,0,1,.936-.245" transform="translate(-7.08 -33.689)" fill="#c1684f"/>
        <path id="Trazado_211150" data-name="Trazado 211150" d="M15.234,87.626c0,1.155-.026,2.311,0,3.465a9.9,9.9,0,0,0,5.562,8.95c.442.241.939.031,1.4.121a8.018,8.018,0,0,1-5.249-.946,8.854,8.854,0,0,1-4.977-8.089c-.064-3.632-.006-7.266-.025-10.9,0-.471.092-.609.594-.573a5.584,5.584,0,0,0,2.691-.6c0,1.645-.006,3.291,0,4.936,0,.216-.074.457.137.631.04.283-.21.374-.361.518a2.642,2.642,0,0,0-.737,1.183c-.207.709-.009,1.04.723,1.2a.385.385,0,0,1,.236.108" transform="translate(-7.185 -47.554)" fill="#e4bca0"/>
        <path id="Trazado_211151" data-name="Trazado 211151" d="M12.833,57.61a3.209,3.209,0,0,0-1.63,1.032,7.051,7.051,0,0,0-1.462,1.6.682.682,0,0,1-.345.313c-1.561.574-2,1.833-2.032,3.336-.008.363,0,.726,0,1.089a3.4,3.4,0,0,1-1.746-.485,1.08,1.08,0,0,0-1.424.119,2.593,2.593,0,0,1,1.57-3.34,2.466,2.466,0,0,0,.811-.9,7.058,7.058,0,0,1,5.873-2.866,1.462,1.462,0,0,1,.384.1" transform="translate(-2.451 -34.595)" fill="#9f5847"/>
        <path id="Trazado_211152" data-name="Trazado 211152" d="M4.354,77.773c.455.23.8.424,1.168.584.28.124.237.353.238.574,0,1.041,0,2.082-.056,3.138a22.96,22.96,0,0,1-1.35-4.3" transform="translate(-2.619 -46.783)" fill="#9e5747"/>
        <path id="Trazado_211153" data-name="Trazado 211153" d="M5.852,100.829a1.612,1.612,0,0,1,0,.271c-.044.25.152.624-.14.729a.867.867,0,0,1-.938-.4,1.063,1.063,0,0,1-.111-1.262.83.83,0,0,1,.876-.5c.491.07.269.481.311.758a2.7,2.7,0,0,1,0,.406" transform="translate(-2.71 -59.946)" fill="#ebc296"/>
        <path id="Trazado_211154" data-name="Trazado 211154" d="M62.217,100.784a3.87,3.87,0,0,1,0-.476c.028-.224-.135-.529.218-.634a.726.726,0,0,1,.788.272,1.065,1.065,0,0,1,.126,1.374.9.9,0,0,1-.958.509c-.36-.094-.115-.508-.173-.774a1.287,1.287,0,0,1,0-.272" transform="translate(-37.411 -59.939)" fill="#ebc296"/>
        <path id="Trazado_211155" data-name="Trazado 211155" d="M61.156,25.614a11.1,11.1,0,0,0-.22-3.35A3.887,3.887,0,0,0,56.909,19.1c-.431,0-.863.014-1.294,0a1.9,1.9,0,0,1-1.907-1.914q-.029-5.551,0-11.1a1.913,1.913,0,0,1,2-1.964q10.115-.01,20.23,0a1.911,1.911,0,0,1,2,1.96q.034,5.551,0,11.1a1.909,1.909,0,0,1-2.1,1.921q-5.245.009-10.49,0c-1.246,0-1.687.426-1.68,1.673a5.652,5.652,0,0,1-1.921,4.542,4.141,4.141,0,0,1-.378.286c-.03.02-.083.008-.216.016" transform="translate(-32.298 -2.471)" fill="#f2cd7d"/>
        <path id="Trazado_211156" data-name="Trazado 211156" d="M124.541,118.075a4.991,4.991,0,0,1-3.262-1.288c-.406-.369-.582-.784-.2-1.239s.8-.369,1.247-.019a3.19,3.19,0,0,0,4.481-.008c.447-.35.871-.417,1.246.037a.8.8,0,0,1-.171,1.193,4.967,4.967,0,0,1-3.338,1.323" transform="translate(-72.705 -69.319)"/>
        <path id="Trazado_211157" data-name="Trazado 211157" d="M114.787,94.728a2.528,2.528,0,0,1,2.5,2.374c.016.529-.18.907-.726.963a.768.768,0,0,1-.884-.744c-.079-.57-.334-.958-.939-.947a.868.868,0,0,0-.879.864c-.067.571-.365.875-.941.818-.5-.049-.77-.535-.677-1.139a2.567,2.567,0,0,1,2.547-2.191" transform="translate(-67.505 -56.982)"/>
        <path id="Trazado_211158" data-name="Trazado 211158" d="M137.872,94.759a2.58,2.58,0,0,1,2.525,2.3c.047.517-.14.921-.678,1.009a.752.752,0,0,1-.937-.734c-.071-.535-.333-.916-.9-.932s-.851.336-.928.883c-.073.518-.361.86-.907.8-.59-.069-.745-.5-.705-1.043a2.539,2.539,0,0,1,2.525-2.28" transform="translate(-81.412 -57.001)"/>
        <path id="Trazado_211159" data-name="Trazado 211159" d="M29.514,115.672a4.981,4.981,0,0,1-3.279-1.3c-.41-.378-.543-.8-.158-1.246.366-.421.78-.336,1.2-.012a3.2,3.2,0,0,0,4.484.01c.445-.347.873-.422,1.249.035a.8.8,0,0,1-.171,1.193,4.973,4.973,0,0,1-3.326,1.319" transform="translate(-15.548 -67.878)"/>
        <path id="Trazado_211160" data-name="Trazado 211160" d="M42.821,92.332a2.565,2.565,0,0,1,2.521,2.293.856.856,0,0,1-.728,1.039.791.791,0,0,1-.9-.8.875.875,0,0,0-.921-.889.85.85,0,0,0-.881.849c-.073.539-.349.908-.941.827s-.719-.527-.681-1.06a2.519,2.519,0,0,1,2.529-2.262" transform="translate(-24.233 -55.541)"/>
        <path id="Trazado_211161" data-name="Trazado 211161" d="M18.379,95.694c-.959.14-1.359-.306-1.152-1.249a2.841,2.841,0,0,1,1.291-1.756c1.559-.522,2.806-.118,3.45,1.113a2.257,2.257,0,0,1,.261,1.18.8.8,0,0,1-1.552.212,3.922,3.922,0,0,1-.091-.4.889.889,0,0,0-1.756.023,1.278,1.278,0,0,1-.45.875" transform="translate(-10.331 -55.621)"/>
        <path id="Trazado_211162" data-name="Trazado 211162" d="M91.027,10.946c1.111,0,2.221.006,3.332,0,.567,0,1,.157,1.034.8.03.533-.328.83-1,.832q-3.433.009-6.867,0c-.672,0-1.032-.3-1-.832.038-.646.469-.807,1.035-.8,1.156.008,2.312,0,3.468,0" transform="translate(-52.046 -6.582)"/>
        <path id="Trazado_211163" data-name="Trazado 211163" d="M91,22.5c-1.156,0-2.312.005-3.468,0-.675,0-1.02-.292-1.016-.822s.349-.808,1.028-.809c2.266-.005,4.533,0,6.8,0,.564,0,1,.145,1.046.792.038.549-.336.841-1.057.844-1.111.005-2.221,0-3.332,0" transform="translate(-52.042 -12.547)"/>
        <path id="Trazado_211164" data-name="Trazado 211164" d="M90.95,30.779c1.133,0,2.266.006,3.4,0,.566,0,1,.153,1.038.8.033.549-.338.836-1.064.838q-3.366.005-6.732,0c-.734,0-1.085-.279-1.077-.829s.357-.8,1.1-.8c1.111,0,2.221,0,3.332,0" transform="translate(-52.041 -18.513)"/>
        <path id="Trazado_211165" data-name="Trazado 211165" d="M72.051,30.775c.476,0,.953-.018,1.427,0a.769.769,0,0,1,.83.8.753.753,0,0,1-.807.819q-1.426.041-2.855,0a.758.758,0,0,1-.8-.83.778.778,0,0,1,.844-.791c.453-.015.907,0,1.36,0" transform="translate(-42.015 -18.508)"/>
        <path id="Trazado_211166" data-name="Trazado 211166" d="M72.082,22.5H70.791c-.562,0-.944-.262-.936-.837.007-.536.374-.8.907-.8.883,0,1.767-.006,2.651,0,.524,0,.893.247.9.8.005.593-.384.827-.937.831-.43,0-.861,0-1.291,0" transform="translate(-42.02 -12.549)"/>
        <path id="Trazado_211167" data-name="Trazado 211167" d="M72.052,12.576c-.43,0-.861,0-1.291,0-.533,0-.9-.261-.909-.8a.776.776,0,0,1,.868-.833c.906-.012,1.813-.014,2.719,0,.527.008.88.273.871.826s-.374.792-.9.8c-.453.009-.907,0-1.36,0" transform="translate(-42.018 -6.578)"/>
        <path id="Trazado_211168" data-name="Trazado 211168" d="M60.523,10.949c.625.006,1.022.337,1.007.839s-.414.8-1.05.8-1-.305-.991-.84.375-.8,1.034-.8" transform="translate(-35.785 -6.586)" fill="#2a4368"/>
        <path id="Trazado_211169" data-name="Trazado 211169" d="M60.515,30.781c.627,0,1.025.329,1.016.831s-.4.808-1.042.8-1.007-.3-1-.831.367-.809,1.025-.8" transform="translate(-35.785 -18.516)" fill="#2a4368"/>
        <path id="Trazado_211170" data-name="Trazado 211170" d="M60.469,22.5c-.646-.008-1-.314-.98-.85.018-.521.382-.795,1.044-.786.62.009,1.018.348,1,.85s-.424.794-1.06.786" transform="translate(-35.784 -12.551)" fill="#2a4368"/>
      </g>
    </g>
  </g>
</svg>
