<svg xmlns="http://www.w3.org/2000/svg" xmlns:xlink="http://www.w3.org/1999/xlink" width="236.605" height="339.084" viewBox="0 0 236.605 339.084">
  <defs>
    <clipPath id="clip-path">
      <rect id="Rect치ngulo_339001" data-name="Rect치ngulo 339001" width="142.341" height="152.542" fill="#3c3fa7"/>
    </clipPath>
    <clipPath id="clip-path-2">
      <rect id="Rect치ngulo_339001-2" data-name="Rect치ngulo 339001" width="142.341" height="152.542" fill="#ff9fa3"/>
    </clipPath>
  </defs>
  <g id="Grupo_983867" data-name="Grupo 983867" transform="translate(2734.605 9721)">
    <path id="Trazado_211034" data-name="Trazado 211034" d="M18,0H189.947a18,18,0,0,1,18,18V271.541a18,18,0,0,1-18,18H18a18,18,0,0,1-18-18V18A18,18,0,0,1,18,0Z" transform="translate(-2705.947 -9721)" fill="#fff0f1"/>
    <g id="Grupo_983734" data-name="Grupo 983734" transform="translate(-2734.605 -9708)" clip-path="url(#clip-path)">
      <path id="Trazado_211033" data-name="Trazado 211033" d="M0,7.523V138.7a7.526,7.526,0,0,0,7.523,7.523H122.179l17.226,6.181a2.191,2.191,0,0,0,2.784-2.854l-6.516-16.827V7.523A7.525,7.525,0,0,0,128.144,0H7.523A7.526,7.526,0,0,0,0,7.523" transform="translate(0 0)" fill="#ffbfc1"/>
    </g>
    <g id="Grupo_983734-2" data-name="Grupo 983734" transform="translate(-2662.605 -9534.458)" clip-path="url(#clip-path-2)">
      <path id="Trazado_211033-2" data-name="Trazado 211033" d="M142.34,7.523V138.7a7.526,7.526,0,0,1-7.523,7.523H20.162L2.936,152.408a2.191,2.191,0,0,1-2.784-2.854l6.516-16.827V7.523A7.525,7.525,0,0,1,14.2,0H134.817a7.526,7.526,0,0,1,7.523,7.523" transform="translate(0.001 0)" fill="#ff9fa3"/>
    </g>
    <path id="Trazado_211338" data-name="Trazado 211338" d="M31.447,17.2q.205-1.162-1.143-1.777l-1.885-.752q-3.281-1.465-3.115-4.033a3.7,3.7,0,0,1,.781-2.109,4.7,4.7,0,0,1,2-1.44,7.088,7.088,0,0,1,2.783-.5A4.822,4.822,0,0,1,34.2,7.812a4.084,4.084,0,0,1,1.25,3.179H32.6a2.035,2.035,0,0,0-.425-1.5,1.914,1.914,0,0,0-1.47-.557,2.963,2.963,0,0,0-1.7.444,1.823,1.823,0,0,0-.859,1.274q-.186,1.064,1.426,1.689l1.289.488.742.342q2.881,1.426,2.7,4a3.863,3.863,0,0,1-.806,2.173,4.542,4.542,0,0,1-1.953,1.4,6.957,6.957,0,0,1-2.72.459,6.092,6.092,0,0,1-2.7-.635,4.186,4.186,0,0,1-1.8-1.709,4.425,4.425,0,0,1-.537-2.344l2.861.01q-.137,2.314,2.275,2.354a2.989,2.989,0,0,0,1.719-.459A1.787,1.787,0,0,0,31.447,17.2Zm8.379-6.777-.234,1.25a3.8,3.8,0,0,1,3.076-1.436,2.535,2.535,0,0,1,2.207,1.094,4.407,4.407,0,0,1,.518,2.949L44.279,21H41.525l1.133-6.748a3.16,3.16,0,0,0,.02-.693,1.118,1.118,0,0,0-1.25-1.025,2.37,2.37,0,0,0-1.943,1.006L38.166,21H35.412l1.836-10.566ZM52.551,21a2.851,2.851,0,0,1-.107-.957,3.579,3.579,0,0,1-2.7,1.152,3.243,3.243,0,0,1-2.3-.9,2.733,2.733,0,0,1-.854-2.183,3.159,3.159,0,0,1,1.45-2.651,6.583,6.583,0,0,1,3.706-.923l1.289.02.137-.635a2.2,2.2,0,0,0,.029-.615,1.058,1.058,0,0,0-.347-.718,1.194,1.194,0,0,0-.786-.269,1.682,1.682,0,0,0-1.094.317,1.538,1.538,0,0,0-.576.972l-2.764.01a3.072,3.072,0,0,1,1.392-2.456,5.389,5.389,0,0,1,3.267-.923,3.9,3.9,0,0,1,2.813,1.069,3.128,3.128,0,0,1,.85,2.651l-.811,5.059-.049.625a3.015,3.015,0,0,0,.166,1.172l-.01.186Zm-2.119-1.943a2.522,2.522,0,0,0,2.08-1.035l.342-1.826-.957-.01a2.674,2.674,0,0,0-2.2.928,1.615,1.615,0,0,0-.3.791.937.937,0,0,0,.22.835A1.113,1.113,0,0,0,50.432,19.057Zm11.133-.127a1.809,1.809,0,0,0,1.27-.415,2.04,2.04,0,0,0,.664-1.157l2.588-.01a3.8,3.8,0,0,1-.7,2,4.242,4.242,0,0,1-1.68,1.387,4.808,4.808,0,0,1-2.212.469,3.9,3.9,0,0,1-3.047-1.328,4.956,4.956,0,0,1-1.084-3.457l.029-.537.01-.107a6.605,6.605,0,0,1,1.738-4.087,4.7,4.7,0,0,1,3.643-1.45,3.809,3.809,0,0,1,2.837,1.167,4.122,4.122,0,0,1,1.03,2.974H64.084a2.163,2.163,0,0,0-.371-1.338,1.41,1.41,0,0,0-1.113-.527q-1.973-.059-2.393,2.881a9.728,9.728,0,0,0-.107,1.8Q60.2,18.9,61.564,18.93Zm10.156-2.139L70.441,17.9,69.9,21H67.15l2.6-15h2.764l-1.426,8.145.537-.576,3.135-3.135h3.535l-4.619,4.541L76.613,21H73.6ZM37.736,43.869l3.428-10.088h2.92L38.8,48H35.92l-.752-9.473L31.447,48H28.566l-.84-14.219H30.52L30.8,43.82l3.828-10.039h2.432ZM48.9,37.238a4.238,4.238,0,0,1,2.407.718A4.042,4.042,0,0,1,52.79,39.88a5.952,5.952,0,0,1,.337,2.72,6.429,6.429,0,0,1-1.753,4.077A4.95,4.95,0,0,1,47.6,48.2a4.225,4.225,0,0,1-2.383-.708,4.027,4.027,0,0,1-1.484-1.909,5.821,5.821,0,0,1-.342-2.7,6.619,6.619,0,0,1,1.777-4.16A4.847,4.847,0,0,1,48.9,37.238Zm-2.783,6.644a2.438,2.438,0,0,0,.439,1.477,1.46,1.46,0,0,0,1.182.561,2.141,2.141,0,0,0,1.992-1.165,5.808,5.808,0,0,0,.674-3.164,2.652,2.652,0,0,0-.454-1.5,1.436,1.436,0,0,0-1.187-.58,2.143,2.143,0,0,0-1.968,1.155A5.748,5.748,0,0,0,46.115,43.882Zm12.373-.091L57.209,44.9,56.672,48H53.918l2.6-15h2.764l-1.426,8.145.537-.576,3.135-3.135h3.535l-4.619,4.541L63.381,48H60.363ZM69.4,48.2a4.6,4.6,0,0,1-2.456-.679,4.115,4.115,0,0,1-1.6-1.836,5.117,5.117,0,0,1-.41-2.573l.029-.391a6.831,6.831,0,0,1,.9-2.832A5.427,5.427,0,0,1,67.795,37.9a4.784,4.784,0,0,1,2.617-.659,3.655,3.655,0,0,1,3.091,1.5,5.146,5.146,0,0,1,.8,3.7l-.156,1.2H67.668a2.267,2.267,0,0,0,.5,1.641,1.9,1.9,0,0,0,1.465.635,3.379,3.379,0,0,0,2.637-1.172l1.26,1.563a3.919,3.919,0,0,1-1.719,1.4A5.621,5.621,0,0,1,69.4,48.2Zm.879-8.682a1.957,1.957,0,0,0-1.353.479,4.2,4.2,0,0,0-1.06,1.729h3.789l.059-.254a2.588,2.588,0,0,0,.01-.742,1.418,1.418,0,0,0-.479-.884A1.5,1.5,0,0,0,70.275,39.514ZM20.964,72.627l6.914.02L27.468,75H16.94l.322-1.865,8.506-9.961L19,63.154l.42-2.373H29.782l-.322,1.826ZM35,64.238a4.238,4.238,0,0,1,2.407.718,4.042,4.042,0,0,1,1.484,1.924,5.952,5.952,0,0,1,.337,2.72,6.429,6.429,0,0,1-1.753,4.077A4.95,4.95,0,0,1,33.7,75.2a4.225,4.225,0,0,1-2.383-.708,4.027,4.027,0,0,1-1.484-1.909,5.821,5.821,0,0,1-.342-2.7,6.619,6.619,0,0,1,1.777-4.16A4.847,4.847,0,0,1,35,64.238Zm-2.783,6.644a2.438,2.438,0,0,0,.439,1.477,1.46,1.46,0,0,0,1.182.561,2.141,2.141,0,0,0,1.992-1.165,5.808,5.808,0,0,0,.674-3.164,2.652,2.652,0,0,0-.454-1.5,1.436,1.436,0,0,0-1.187-.58,2.143,2.143,0,0,0-1.968,1.155A5.748,5.748,0,0,0,32.214,70.882Zm12.2-6.458-.225,1.2a3.89,3.89,0,0,1,3.1-1.387,2.973,2.973,0,0,1,1.621.449,2.1,2.1,0,0,1,.869,1.162,4.069,4.069,0,0,1,3.281-1.611,2.657,2.657,0,0,1,2.192,1,4.089,4.089,0,0,1,.62,2.793l-.02.244L54.724,75H51.96l1.123-6.756a4.884,4.884,0,0,0,.029-.675,1.046,1.046,0,0,0-1.172-1.056A2.325,2.325,0,0,0,50,67.726l-.029.225L48.737,75H45.983l1.123-6.729a4.873,4.873,0,0,0,.029-.674,1.045,1.045,0,0,0-1.162-1.064,2.334,2.334,0,0,0-1.885.986L42.771,75H40.017l1.826-10.566Zm22.656,5.322a7.577,7.577,0,0,1-1.523,4,3.791,3.791,0,0,1-3.184,1.455,2.946,2.946,0,0,1-2.539-1.348L59.421,75h-2.51l2.6-15h2.764l-1.064,5.4a3.292,3.292,0,0,1,2.578-1.162,2.981,2.981,0,0,1,2.407,1.1,4.862,4.862,0,0,1,.933,2.983A11.415,11.415,0,0,1,67.067,69.746Zm-2.734-.206a8.192,8.192,0,0,0,.059-1.293q-.107-1.7-1.406-1.734a2.292,2.292,0,0,0-2.021,1.107L60.2,71.833a1.572,1.572,0,0,0,1.582,1.1q2.031.059,2.49-2.958Zm6.5,5.46H68.063L69.9,64.434h2.773Zm-.615-13.252a1.376,1.376,0,0,1,.43-1.084,1.653,1.653,0,0,1,2.168-.049A1.37,1.37,0,0,1,73.3,61.65a1.415,1.415,0,0,1-.405,1.055,1.519,1.519,0,0,1-1.108.469,1.544,1.544,0,0,1-1.079-.371A1.363,1.363,0,0,1,70.222,61.748ZM78.19,75.2a4.6,4.6,0,0,1-2.456-.679,4.115,4.115,0,0,1-1.6-1.836,5.117,5.117,0,0,1-.41-2.573l.029-.391a6.831,6.831,0,0,1,.9-2.832A5.427,5.427,0,0,1,76.589,64.9a4.784,4.784,0,0,1,2.617-.659,3.655,3.655,0,0,1,3.091,1.5,5.146,5.146,0,0,1,.8,3.7l-.156,1.2H76.462a2.267,2.267,0,0,0,.5,1.641,1.9,1.9,0,0,0,1.465.635,3.379,3.379,0,0,0,2.637-1.172l1.26,1.563a3.919,3.919,0,0,1-1.719,1.4A5.621,5.621,0,0,1,78.19,75.2Zm.879-8.682a1.957,1.957,0,0,0-1.353.479,4.2,4.2,0,0,0-1.06,1.729h3.789l.059-.254a2.588,2.588,0,0,0,.01-.742,1.418,1.418,0,0,0-.479-.884A1.5,1.5,0,0,0,79.069,66.514ZM28.654,96.99,27.775,102H24.914l2.471-14.219,4.98.01a4.982,4.982,0,0,1,3.623,1.279,3.967,3.967,0,0,1,1.152,3.34A4.49,4.49,0,0,1,35.4,95.75,6.343,6.343,0,0,1,31.35,97Zm.4-2.373,2.383.02a3.013,3.013,0,0,0,1.914-.6,2.4,2.4,0,0,0,.908-1.611,2.058,2.058,0,0,0-.327-1.621,1.772,1.772,0,0,0-1.4-.645l-2.7-.01Zm15.527-.537a5.686,5.686,0,0,0-.928-.1,2.67,2.67,0,0,0-2.334,1.1L40.1,102H37.346l1.836-10.566,2.588-.01-.254,1.289a2.906,2.906,0,0,1,2.461-1.494,4.017,4.017,0,0,1,.957.137Zm5.635-2.842a4.238,4.238,0,0,1,2.407.718,4.042,4.042,0,0,1,1.484,1.924,5.952,5.952,0,0,1,.337,2.72,6.429,6.429,0,0,1-1.753,4.077,4.95,4.95,0,0,1-3.774,1.519,4.225,4.225,0,0,1-2.383-.708,4.027,4.027,0,0,1-1.484-1.909,5.821,5.821,0,0,1-.342-2.7,6.619,6.619,0,0,1,1.777-4.16A4.847,4.847,0,0,1,50.217,91.238Zm-2.783,6.644a2.438,2.438,0,0,0,.439,1.477,1.46,1.46,0,0,0,1.182.561,2.141,2.141,0,0,0,1.992-1.165,5.808,5.808,0,0,0,.674-3.164,2.652,2.652,0,0,0-.454-1.5,1.436,1.436,0,0,0-1.187-.58,2.143,2.143,0,0,0-1.968,1.155A5.748,5.748,0,0,0,47.434,97.882Zm17.949-1.136a8.727,8.727,0,0,1-.869,2.949,4.782,4.782,0,0,1-1.65,1.914,3.823,3.823,0,0,1-2.187.6,3.05,3.05,0,0,1-2.422-1.143l-.967,5H54.533l2.529-14.629,2.539-.01-.186,1.064a3.374,3.374,0,0,1,2.7-1.25,3,3,0,0,1,2.412,1.128,4.9,4.9,0,0,1,.918,2.954A11.415,11.415,0,0,1,65.383,96.746Zm-2.734-.2.059-.939A2.612,2.612,0,0,0,62.36,94.1a1.244,1.244,0,0,0-1.069-.577,2.273,2.273,0,0,0-1.982,1.017L58.518,98.9A1.541,1.541,0,0,0,60.07,99.93a1.987,1.987,0,0,0,1.66-.773A5.292,5.292,0,0,0,62.648,96.546Zm9.727,2.476q.156-.781-1.084-1.133l-.889-.225q-3.154-.869-3.066-3.066a3.035,3.035,0,0,1,1.323-2.437,4.927,4.927,0,0,1,3.071-.923,4.42,4.42,0,0,1,2.891.947,3.121,3.121,0,0,1,1.123,2.471l-2.734-.01a1.2,1.2,0,0,0-1.348-1.377,1.939,1.939,0,0,0-1.118.322,1.327,1.327,0,0,0-.581.869q-.146.781,1.182,1.1l.391.088a7.856,7.856,0,0,1,2.061.737,3.11,3.11,0,0,1,1.1,1.03,2.55,2.55,0,0,1,.356,1.475,2.814,2.814,0,0,1-.649,1.758,3.975,3.975,0,0,1-1.7,1.162,5.92,5.92,0,0,1-2.271.381,4.461,4.461,0,0,1-2.93-1.011,3.259,3.259,0,0,1-1.191-2.563l2.6.02a1.428,1.428,0,0,0,1.621,1.533,2.306,2.306,0,0,0,1.255-.312A1.234,1.234,0,0,0,72.375,99.021Z" transform="translate(-2714.605 -9684)" fill="#12263f"/>
    <path id="Trazado_211339" data-name="Trazado 211339" d="M29.078,15.189H23.629L22.613,21H19.752L22.223,6.781h9l-.42,2.373H24.674l-.645,3.672H29.5ZM33.209,21H30.436L33.043,6h2.764Zm7.354.2a4.6,4.6,0,0,1-2.456-.679,4.115,4.115,0,0,1-1.6-1.836,5.117,5.117,0,0,1-.41-2.573l.029-.391a6.831,6.831,0,0,1,.9-2.832A5.427,5.427,0,0,1,38.961,10.9a4.784,4.784,0,0,1,2.617-.659,3.655,3.655,0,0,1,3.091,1.5,5.146,5.146,0,0,1,.8,3.7l-.156,1.2H38.834a2.267,2.267,0,0,0,.5,1.641,1.9,1.9,0,0,0,1.465.635,3.379,3.379,0,0,0,2.637-1.172l1.26,1.563a3.919,3.919,0,0,1-1.719,1.4A5.621,5.621,0,0,1,40.563,21.2Zm.879-8.682a1.957,1.957,0,0,0-1.353.479,4.2,4.2,0,0,0-1.06,1.729h3.789l.059-.254a2.588,2.588,0,0,0,.01-.742,1.418,1.418,0,0,0-.479-.884A1.5,1.5,0,0,0,41.441,12.514Zm9.775,1.055,2.217-3.135h3.1L52.7,15.746,54.84,21H52.047l-1.3-3.3L48.414,21H45.3l3.984-5.527-2.041-5.039h2.793ZM59.01,21H56.236l1.836-10.566h2.773ZM58.395,7.748a1.376,1.376,0,0,1,.43-1.084,1.653,1.653,0,0,1,2.168-.049,1.37,1.37,0,0,1,.479,1.035,1.415,1.415,0,0,1-.405,1.055,1.519,1.519,0,0,1-1.108.469A1.544,1.544,0,0,1,58.878,8.8,1.363,1.363,0,0,1,58.395,7.748Zm7.3,2.676-.234,1.25a3.8,3.8,0,0,1,3.076-1.436,2.535,2.535,0,0,1,2.207,1.094,4.407,4.407,0,0,1,.518,2.949L70.152,21H67.4l1.133-6.748a3.16,3.16,0,0,0,.02-.693,1.118,1.118,0,0,0-1.25-1.025,2.37,2.37,0,0,0-1.943,1.006L64.039,21H61.285l1.836-10.566Zm7.139,5.283a7.311,7.311,0,0,1,1.6-3.979,4.052,4.052,0,0,1,3.286-1.5,2.963,2.963,0,0,1,2.52,1.221l.361-1.025,2.529.01L81.4,20.639a4.979,4.979,0,0,1-1.8,3.34,5.589,5.589,0,0,1-3.75,1.191,5.21,5.21,0,0,1-2.09-.474,4.469,4.469,0,0,1-1.641-1.245l1.367-1.68a2.936,2.936,0,0,0,2.3,1.2,2.707,2.707,0,0,0,1.836-.562,3,3,0,0,0,1.035-1.694l.156-.635A3.436,3.436,0,0,1,76.236,21.2a3.035,3.035,0,0,1-2.451-1.147,4.934,4.934,0,0,1-1-2.935A9.862,9.862,0,0,1,72.838,15.707Zm2.705,1.159a2.525,2.525,0,0,0,.386,1.472,1.35,1.35,0,0,0,1.118.582,2.466,2.466,0,0,0,1.992-.959l.82-4.479a1.62,1.62,0,0,0-1.553-.959,2.16,2.16,0,0,0-1.787.851,4.451,4.451,0,0,0-.918,2.338A10.269,10.269,0,0,0,75.543,16.866ZM19.376,39.795H17.052L16.144,45H13.282l2.471-14.219,4.707.01A5.361,5.361,0,0,1,24.1,31.9,3.521,3.521,0,0,1,25.226,35,4.467,4.467,0,0,1,22.1,39.072l2,5.771V45H21.056Zm-1.914-2.373,2.129.02a2.982,2.982,0,0,0,1.87-.61,2.416,2.416,0,0,0,.884-1.606,1.841,1.841,0,0,0-.3-1.484,1.8,1.8,0,0,0-1.4-.576l-2.441-.01ZM30.606,45.2a4.6,4.6,0,0,1-2.456-.679,4.115,4.115,0,0,1-1.6-1.836,5.117,5.117,0,0,1-.41-2.573l.029-.391a6.831,6.831,0,0,1,.9-2.832A5.427,5.427,0,0,1,29,34.9a4.784,4.784,0,0,1,2.617-.659,3.655,3.655,0,0,1,3.091,1.5,5.146,5.146,0,0,1,.8,3.7l-.156,1.2H28.878a2.267,2.267,0,0,0,.5,1.641,1.9,1.9,0,0,0,1.465.635,3.379,3.379,0,0,0,2.637-1.172l1.26,1.563a3.919,3.919,0,0,1-1.719,1.4A5.621,5.621,0,0,1,30.606,45.2Zm.879-8.682a1.957,1.957,0,0,0-1.353.479,4.2,4.2,0,0,0-1.06,1.729h3.789l.059-.254a2.588,2.588,0,0,0,.01-.742,1.418,1.418,0,0,0-.479-.884A1.5,1.5,0,0,0,31.485,36.514ZM40.8,42.93a1.809,1.809,0,0,0,1.27-.415,2.04,2.04,0,0,0,.664-1.157l2.588-.01a3.8,3.8,0,0,1-.7,2,4.242,4.242,0,0,1-1.68,1.387,4.808,4.808,0,0,1-2.212.469,3.9,3.9,0,0,1-3.047-1.328A4.956,4.956,0,0,1,36.6,40.42l.029-.537.01-.107a6.605,6.605,0,0,1,1.738-4.087,4.7,4.7,0,0,1,3.643-1.45,3.809,3.809,0,0,1,2.837,1.167,4.122,4.122,0,0,1,1.03,2.974H43.321a2.163,2.163,0,0,0-.371-1.338,1.41,1.41,0,0,0-1.113-.527q-1.973-.059-2.393,2.881a9.728,9.728,0,0,0-.107,1.8Q39.435,42.9,40.8,42.93ZM51.407,45.2a4.6,4.6,0,0,1-2.456-.679,4.115,4.115,0,0,1-1.6-1.836,5.117,5.117,0,0,1-.41-2.573l.029-.391a6.831,6.831,0,0,1,.9-2.832A5.427,5.427,0,0,1,49.806,34.9a4.784,4.784,0,0,1,2.617-.659,3.655,3.655,0,0,1,3.091,1.5,5.146,5.146,0,0,1,.8,3.7l-.156,1.2H49.679a2.267,2.267,0,0,0,.5,1.641,1.9,1.9,0,0,0,1.465.635,3.379,3.379,0,0,0,2.637-1.172l1.26,1.563a3.919,3.919,0,0,1-1.719,1.4A5.621,5.621,0,0,1,51.407,45.2Zm.879-8.682a1.957,1.957,0,0,0-1.353.479,4.2,4.2,0,0,0-1.06,1.729h3.789l.059-.254a2.588,2.588,0,0,0,.01-.742,1.418,1.418,0,0,0-.479-.884A1.5,1.5,0,0,0,52.286,36.514ZM59.884,45H57.11l1.836-10.566H61.72Zm-.615-13.252a1.376,1.376,0,0,1,.43-1.084,1.653,1.653,0,0,1,2.168-.049,1.37,1.37,0,0,1,.479,1.035,1.415,1.415,0,0,1-.405,1.055,1.519,1.519,0,0,1-1.108.469,1.544,1.544,0,0,1-1.079-.371A1.363,1.363,0,0,1,59.269,31.748Zm13.1,8A8.727,8.727,0,0,1,71.5,42.7a4.782,4.782,0,0,1-1.65,1.914,3.823,3.823,0,0,1-2.187.6,3.05,3.05,0,0,1-2.422-1.143l-.967,5H61.515l2.529-14.629,2.539-.01L66.4,35.488a3.374,3.374,0,0,1,2.7-1.25A3,3,0,0,1,71.5,35.366a4.9,4.9,0,0,1,.918,2.954A11.415,11.415,0,0,1,72.364,39.746Zm-2.734-.2.059-.939a2.612,2.612,0,0,0-.347-1.506,1.244,1.244,0,0,0-1.069-.577,2.273,2.273,0,0,0-1.982,1.017L65.5,41.9a1.541,1.541,0,0,0,1.553,1.027,1.987,1.987,0,0,0,1.66-.773A5.292,5.292,0,0,0,69.63,39.546Zm9.189-7.71-.459,2.6h1.758l-.361,2.07H78L77.1,41.8a1.346,1.346,0,0,0,.078.762q.137.264.664.283.156.01.84-.049l-.2,2.158a4.632,4.632,0,0,1-1.582.225,2.482,2.482,0,0,1-2.021-.85,3.07,3.07,0,0,1-.547-2.246l.908-5.576H73.751l.361-2.07h1.494l.449-2.6Zm7.188,10.186q.156-.781-1.084-1.133l-.889-.225q-3.154-.869-3.066-3.066a3.035,3.035,0,0,1,1.323-2.437,4.927,4.927,0,0,1,3.071-.923,4.42,4.42,0,0,1,2.891.947,3.121,3.121,0,0,1,1.123,2.471l-2.734-.01a1.2,1.2,0,0,0-1.348-1.377,1.939,1.939,0,0,0-1.118.322,1.327,1.327,0,0,0-.581.869q-.146.781,1.182,1.1l.391.088a7.856,7.856,0,0,1,2.061.737,3.11,3.11,0,0,1,1.1,1.03,2.55,2.55,0,0,1,.356,1.475,2.814,2.814,0,0,1-.649,1.758,3.975,3.975,0,0,1-1.7,1.162,5.92,5.92,0,0,1-2.271.381,4.461,4.461,0,0,1-2.93-1.011,3.259,3.259,0,0,1-1.191-2.563l2.6.02a1.428,1.428,0,0,0,1.621,1.533,2.306,2.306,0,0,0,1.255-.312A1.234,1.234,0,0,0,86.007,42.021ZM33.321,64.254a5.318,5.318,0,0,1-1.006,2.612,5.468,5.468,0,0,1-2.187,1.748,6.661,6.661,0,0,1-2.91.581,4.92,4.92,0,0,1-2.451-.649,4.3,4.3,0,0,1-1.646-1.8,6.64,6.64,0,0,1-.679-2.71,13.292,13.292,0,0,1,.249-2.988,9.473,9.473,0,0,1,1.133-3.174,7.082,7.082,0,0,1,1.938-2.2,5.849,5.849,0,0,1,3.613-1.094,4.8,4.8,0,0,1,3.5,1.362A5.481,5.481,0,0,1,34.3,59.625l-2.852-.01a2.989,2.989,0,0,0-.537-1.973,2.191,2.191,0,0,0-1.67-.664,2.9,2.9,0,0,0-2.407,1.045,6.284,6.284,0,0,0-1.265,3.193,17.694,17.694,0,0,0-.273,3.057,3.043,3.043,0,0,0,.576,1.9,1.929,1.929,0,0,0,1.475.64,2.945,2.945,0,0,0,2.095-.62,3.281,3.281,0,0,0,1.04-1.919Zm5.225-4.648a3.682,3.682,0,0,1,2.861-1.367,2.679,2.679,0,0,1,2.31,1.128,4.434,4.434,0,0,1,.552,2.974L43.155,69H40.4l1.123-6.7a3.246,3.246,0,0,0,.02-.7,1.106,1.106,0,0,0-1.23-1.085,2.379,2.379,0,0,0-1.953.958L37.032,69H34.278l2.6-15H39.64ZM48.214,69H45.44l1.836-10.566H50.05ZM47.6,55.748a1.376,1.376,0,0,1,.43-1.084,1.653,1.653,0,0,1,2.168-.049,1.37,1.37,0,0,1,.479,1.035,1.415,1.415,0,0,1-.405,1.055,1.519,1.519,0,0,1-1.108.469,1.544,1.544,0,0,1-1.079-.371A1.363,1.363,0,0,1,47.6,55.748ZM53.458,69H50.685l2.607-15h2.764ZM58.7,69H55.929l2.607-15H61.3Zm8.447,0a2.851,2.851,0,0,1-.107-.957,3.579,3.579,0,0,1-2.7,1.152,3.243,3.243,0,0,1-2.3-.9,2.733,2.733,0,0,1-.854-2.183,3.159,3.159,0,0,1,1.45-2.651,6.583,6.583,0,0,1,3.706-.923l1.289.02.137-.635A2.2,2.2,0,0,0,67.8,61.3a1.058,1.058,0,0,0-.347-.718,1.194,1.194,0,0,0-.786-.269,1.682,1.682,0,0,0-1.094.317,1.538,1.538,0,0,0-.576.972l-2.764.01a3.072,3.072,0,0,1,1.392-2.456,5.389,5.389,0,0,1,3.267-.923,3.9,3.9,0,0,1,2.813,1.069,3.128,3.128,0,0,1,.85,2.651l-.811,5.059-.049.625a3.015,3.015,0,0,0,.166,1.172l-.01.186ZM65.03,67.057a2.522,2.522,0,0,0,2.08-1.035l.342-1.826-.957-.01a2.674,2.674,0,0,0-2.2.928,1.615,1.615,0,0,0-.3.791.937.937,0,0,0,.22.835A1.113,1.113,0,0,0,65.03,67.057Zm11.592-5.488,2.217-3.135h3.1l-3.828,5.313L80.245,69H77.452l-1.3-3.3L73.819,69H70.7l3.984-5.527-2.041-5.039H75.44ZM36.715,82.424l-.225,1.2a3.89,3.89,0,0,1,3.1-1.387,2.973,2.973,0,0,1,1.621.449,2.1,2.1,0,0,1,.869,1.162,4.069,4.069,0,0,1,3.281-1.611,2.657,2.657,0,0,1,2.192,1,4.089,4.089,0,0,1,.62,2.793l-.02.244L47.027,93H44.264l1.123-6.756a4.884,4.884,0,0,0,.029-.675,1.046,1.046,0,0,0-1.172-1.056A2.325,2.325,0,0,0,42.3,85.726l-.029.225L41.041,93H38.287l1.123-6.729a4.873,4.873,0,0,0,.029-.674,1.045,1.045,0,0,0-1.162-1.064,2.334,2.334,0,0,0-1.885.986L35.074,93H32.32l1.826-10.566ZM55.328,93a2.851,2.851,0,0,1-.107-.957,3.579,3.579,0,0,1-2.7,1.152,3.243,3.243,0,0,1-2.3-.9,2.733,2.733,0,0,1-.854-2.183,3.159,3.159,0,0,1,1.45-2.651,6.583,6.583,0,0,1,3.706-.923l1.289.02.137-.635a2.2,2.2,0,0,0,.029-.615,1.057,1.057,0,0,0-.347-.718,1.194,1.194,0,0,0-.786-.269,1.682,1.682,0,0,0-1.094.317,1.538,1.538,0,0,0-.576.972l-2.764.01a3.072,3.072,0,0,1,1.392-2.456,5.389,5.389,0,0,1,3.267-.923,3.9,3.9,0,0,1,2.813,1.069,3.128,3.128,0,0,1,.85,2.651l-.811,5.059-.049.625a3.015,3.015,0,0,0,.166,1.172l-.01.186Zm-2.119-1.943a2.522,2.522,0,0,0,2.08-1.035l.342-1.826-.957-.01a2.674,2.674,0,0,0-2.2.928,1.615,1.615,0,0,0-.3.791.937.937,0,0,0,.22.835A1.113,1.113,0,0,0,53.209,91.057Zm11.748-8.828A3.007,3.007,0,0,1,67.34,83.41L68.375,78h2.764l-2.6,15H66.08l.156-1.133a3.42,3.42,0,0,1-2.754,1.338,3.042,3.042,0,0,1-1.729-.518,3.259,3.259,0,0,1-1.147-1.46,5.88,5.88,0,0,1-.444-2.124,8,8,0,0,1,.029-1.191l.059-.439a8.458,8.458,0,0,1,.9-2.852,4.708,4.708,0,0,1,1.641-1.826A3.868,3.868,0,0,1,64.957,82.229Zm-2,5.684a7.909,7.909,0,0,0-.049,1.25q.1,1.719,1.387,1.748a2.357,2.357,0,0,0,2.021-1.094l.752-4.2a1.56,1.56,0,0,0-1.523-1.094,2.007,2.007,0,0,0-1.675.776A5.22,5.22,0,0,0,62.955,87.912Z" transform="translate(-2642.605 -9506.459)" fill="#12263f"/>
  </g>
</svg>
