<svg xmlns="http://www.w3.org/2000/svg" xmlns:xlink="http://www.w3.org/1999/xlink" width="400" height="297" viewBox="0 0 400 297">
  <defs>
    <clipPath id="clip-path">
      <rect id="Rectángulo_339002" data-name="Rectángulo 339002" width="400" height="297" rx="9" transform="translate(1021 3547)" fill="#fc5f65"/>
    </clipPath>
    <clipPath id="clip-path-2">
      <path id="Trazado_183739" data-name="Trazado 183739" d="M93.044,25.192s5.209,12.316,17.882,4.368c0,0-3.372-8.32-9.81-8.322-2.3,0-5,1.065-8.072,3.954" transform="translate(-93.044 -21.238)" fill="none"/>
    </clipPath>
    <clipPath id="clip-path-3">
      <path id="Trazado_183741" data-name="Trazado 183741" d="M111.807,29.9c12.519,4.452,14.665-7.231,14.665-7.231-2.111-2.278-4.015-3.16-5.7-3.16-5.78,0-8.965,10.39-8.965,10.39" transform="translate(-111.807 -19.508)" fill="none"/>
    </clipPath>
    <clipPath id="clip-path-4">
      <rect id="Rectángulo_45301" data-name="Rectángulo 45301" width="403.322" height="549.913" fill="none"/>
    </clipPath>
    <clipPath id="clip-path-5">
      <path id="Trazado_183811" data-name="Trazado 183811" d="M174.406,37.692c9.973,8.044,16.5-3.609,16.5-3.609a14.694,14.694,0,0,0-7.647-2.542c-6.3,0-8.855,6.15-8.855,6.15" transform="translate(-174.406 -31.542)" fill="none"/>
    </clipPath>
    <clipPath id="clip-path-6">
      <path id="Trazado_183813" data-name="Trazado 183813" d="M162.749,32.606s2.144,10.787,11.008,5.487c0,0-1.856-6.633-7.023-6.634a8.406,8.406,0,0,0-3.985,1.147" transform="translate(-162.749 -31.459)" fill="none"/>
    </clipPath>
    <clipPath id="clip-path-8">
      <path id="Trazado_183816" data-name="Trazado 183816" d="M171.766,43.324c-3.945,1.752-3.3,4.061.28,4.571,2.075.3,8.423-1.948,7.259-4.193-.291-.564-1.647-1.264-3.6-1.264a9.715,9.715,0,0,0-3.94.886" transform="translate(-169.075 -42.438)" fill="none"/>
    </clipPath>
  </defs>
  <g id="Grupo_983738" data-name="Grupo 983738" transform="translate(-1021 -3547)">
    <rect id="Rectángulo_338776" data-name="Rectángulo 338776" width="268" height="249" rx="9" transform="translate(1153 3595)" fill="#c4d1ff"/>
    <g id="Enmascarar_grupo_580" data-name="Enmascarar grupo 580" clip-path="url(#clip-path)">
      <g id="Grupo_983737" data-name="Grupo 983737" transform="translate(-73 2611.332)">
        <g id="Grupo_175080" data-name="Grupo 175080" transform="translate(1086.288 935.668)">
          <g id="Grupo_175079" data-name="Grupo 175079" transform="translate(0 0)">
            <g id="Grupo_175062" data-name="Grupo 175062" transform="translate(25.57)">
              <g id="Grupo_175061" data-name="Grupo 175061">
                <path id="Trazado_183694" data-name="Trazado 183694" d="M180.33,196.629H46.794a1.491,1.491,0,0,1-1.478-1.507V177.83a1.491,1.491,0,0,1,1.478-1.507H180.33a1.491,1.491,0,0,1,1.478,1.507v17.293a1.491,1.491,0,0,1-1.478,1.507M48.272,193.616H178.852V179.335H48.272Z" transform="translate(-3.917 89.346)" fill="#12263f"/>
                <path id="Trazado_183695" data-name="Trazado 183695" d="M91.973,452.312a1.491,1.491,0,0,1-1.478-1.507v-261.5a1.478,1.478,0,1,1,2.956,0v261.5a1.491,1.491,0,0,1-1.478,1.507" transform="translate(17.672 95.162)" fill="#12263f"/>
                <path id="Trazado_183696" data-name="Trazado 183696" d="M149.261,366.494H63.041a2.261,2.261,0,0,1,0-4.52h86.22a2.261,2.261,0,0,1,0,4.52" transform="translate(3.494 183.419)" fill="#12263f"/>
                <path id="Trazado_183697" data-name="Trazado 183697" d="M108.21,345.071a1.458,1.458,0,0,1-.955-.357L57.038,301.382a1.527,1.527,0,0,1-.432-1.669,1.478,1.478,0,0,1,1.388-.988H158.427a1.475,1.475,0,0,1,1.386.988,1.527,1.527,0,0,1-.432,1.669l-50.217,43.332a1.455,1.455,0,0,1-.955.357M62.027,301.737l46.183,39.851,46.183-39.851Z" transform="translate(1.435 151.369)" fill="#12263f"/>
                <path id="Trazado_183698" data-name="Trazado 183698" d="M146.4,200.843H81.481c-19.876,0-35.987-16.426-35.987-36.69V136.372H182.387v27.781c0,20.264-16.111,36.69-35.987,36.69" transform="translate(-3.831 69.102)" fill="#171962"/>
                <path id="Trazado_183699" data-name="Trazado 183699" d="M146.21,254.727l-6.9,41.929-30.491-3.2,8.235-50.742Z" transform="translate(26.428 122.986)" fill="#e5826e"/>
                <path id="Trazado_183700" data-name="Trazado 183700" d="M111.387,260.287,144.1,273.3l3.207-19.5-32.684-13.472Z" transform="translate(27.655 121.783)"/>
                <path id="Trazado_183701" data-name="Trazado 183701" d="M152.528,141.045l.882.136c14.867,2.281,25.247,17.458,23.186,33.9L159.483,311.518l-54.722-8.4,17.113-136.436c2.062-16.441,15.786-27.923,30.653-25.641" transform="translate(24.489 71.324)" fill="#171962"/>
                <path id="Trazado_183702" data-name="Trazado 183702" d="M109.355,267.894l-4.507,38.935H171.4l.677-8.415c.857-10.669-6.7-18.68-17-20.354l-10.253.021-13.193,2.976Z" transform="translate(24.53 135.747)" fill="#ebad23"/>
                <path id="Trazado_183703" data-name="Trazado 183703" d="M133.56,281.069l7.355-7.776c2.243-2.372.269-5.637-3.643-6.025l-10.861-1.079c-3.5-.347-6.476,1.858-5.948,4.407L122.89,282.3Z" transform="translate(31.963 134.865)" fill="#ffc849"/>
                <path id="Trazado_183704" data-name="Trazado 183704" d="M170.318,289.571H109.184a.672.672,0,0,1,0-1.344h61.134a.672.672,0,0,1,0,1.344" transform="translate(26.286 146.05)"/>
                <path id="Trazado_183705" data-name="Trazado 183705" d="M130.151,281.447a.659.659,0,0,1-.581-.351.684.684,0,0,1,.186-.86l7.669-5.81-12.738,5.558a.657.657,0,0,1-.866-.356.678.678,0,0,1,.349-.881l17.877-7.8a.653.653,0,0,1,.831.283.68.68,0,0,1-.179.874l-8.447,6.4,7.827-2.964a.652.652,0,0,1,.845.4.674.674,0,0,1-.389.863l-12.155,4.6a.646.646,0,0,1-.229.042" transform="translate(33.571 137.267)"/>
                <path id="Trazado_183706" data-name="Trazado 183706" d="M160.663,250.6a.823.823,0,0,1-.134-.012l-54.5-10.139a.754.754,0,0,1,.266-1.484l54.5,10.14a.754.754,0,0,1,.594.877.744.744,0,0,1-.726.618" transform="translate(24.804 121.081)"/>
                <path id="Trazado_183707" data-name="Trazado 183707" d="M101.624,196.506h0a.747.747,0,0,1-.739-.753l.016-37.733a.739.739,0,1,1,1.478,0l-.016,37.733a.747.747,0,0,1-.739.753" transform="translate(22.637 79.69)"/>
                <path id="Trazado_183708" data-name="Trazado 183708" d="M114.013,192.752h-.068a.75.75,0,0,1-.669-.818l3.3-37.419a.739.739,0,1,1,1.472.136l-3.3,37.419a.742.742,0,0,1-.734.684" transform="translate(28.556 77.947)"/>
                <path id="Trazado_183709" data-name="Trazado 183709" d="M74.9,253.113,73.637,292.48l30.3,4.823,1.637-47.612Z" transform="translate(9.616 126.523)" fill="#e5826e"/>
                <path id="Trazado_183710" data-name="Trazado 183710" d="M75.552,254.372l34.385-3.836-.718,20.877-34.143-2.2Z" transform="translate(7.149 125.845)"/>
                <path id="Trazado_183711" data-name="Trazado 183711" d="M92.463,137.482h0c-15.254.008-27.615,12.622-27.609,28.174L64.918,315.2l55.245-.029L120.1,165.632c-.007-15.554-12.381-28.158-27.637-28.15" transform="translate(5.42 69.665)" fill="#171962"/>
                <path id="Trazado_183712" data-name="Trazado 183712" d="M75.421,267.894l-8.44,38.935h61.273l.622-8.415a18.67,18.67,0,0,0-15.652-20.354l-9.439.021-12.146,2.976Z" transform="translate(6.436 135.747)" fill="#ffc849"/>
                <path id="Trazado_183713" data-name="Trazado 183713" d="M99.754,281.069l8.4-7.776c2.56-2.372.307-5.637-4.157-6.025l-12.4-1.079c-4-.347-7.392,1.858-6.789,4.407L87.574,282.3Z" transform="translate(14.92 134.865)" fill="#ffc849"/>
                <path id="Trazado_183714" data-name="Trazado 183714" d="M126.84,289.571H71.9a.672.672,0,0,1,0-1.344h54.94a.672.672,0,0,1,0,1.344" transform="translate(8.472 146.05)"/>
                <path id="Trazado_183715" data-name="Trazado 183715" d="M95.831,281.447a.655.655,0,0,1-.594-.383.678.678,0,0,1,.235-.853l8.836-5.864-14.775,5.647a.656.656,0,0,1-.848-.393.674.674,0,0,1,.386-.865l20.406-7.8a.648.648,0,0,1,.819.325.679.679,0,0,1-.229.866l-9.689,6.429,9.127-3.027a.657.657,0,0,1,.831.431.677.677,0,0,1-.424.847l-13.875,4.6a.643.643,0,0,1-.2.033" transform="translate(16.786 137.267)"/>
                <path id="Trazado_183716" data-name="Trazado 183716" d="M120.413,248.113h-.01l-55.354-.767a.746.746,0,0,1-.729-.764.718.718,0,0,1,.749-.743l55.354.767a.754.754,0,0,1-.01,1.507" transform="translate(5.164 124.571)"/>
                <path id="Trazado_183717" data-name="Trazado 183717" d="M111.426,200.5a.747.747,0,0,1-.739-.753l-.015-33.862a27.494,27.494,0,0,0-7.884-19.378,26.443,26.443,0,0,0-19-8.017h-.016a.747.747,0,0,1-.739-.753.787.787,0,0,1,.755-.753,27.9,27.9,0,0,1,20.043,8.459,29.007,29.007,0,0,1,8.317,20.443l.015,33.862a.747.747,0,0,1-.739.753" transform="translate(14.107 69.411)"/>
                <path id="Trazado_183718" data-name="Trazado 183718" d="M64.963,187.168h-.007a.747.747,0,0,1-.732-.761c0-.209.2-21,0-24.059a.749.749,0,0,1,.69-.8.738.738,0,0,1,.785.7c.2,3.113.01,23.313,0,24.171a.747.747,0,0,1-.739.746" transform="translate(5.118 81.857)"/>
                <path id="Trazado_183719" data-name="Trazado 183719" d="M117.635,23.846c1.711-4.171,5.994-6.283,9.562-4.719s5.075,6.214,3.362,10.384S124.565,35.794,121,34.23s-5.075-6.214-3.361-10.384" transform="translate(30.302 9.43)" fill="#c95b3d"/>
                <path id="Trazado_183720" data-name="Trazado 183720" d="M120.386,28.238a.994.994,0,0,1-.734-.327,1.034,1.034,0,0,1,.059-1.437l5.5-5.17a.989.989,0,0,1,1.41.059,1.033,1.033,0,0,1-.058,1.437l-5.5,5.17a.985.985,0,0,1-.675.268" transform="translate(31.479 10.66)"/>
                <path id="Trazado_183721" data-name="Trazado 183721" d="M124.3,28.176a.973.973,0,0,1-.689-.283l-2.554-2.5a1.024,1.024,0,0,1-.028-1.434.975.975,0,0,1,1.407-.03l2.552,2.5a1.026,1.026,0,0,1,.03,1.436.981.981,0,0,1-.718.313" transform="translate(32.129 11.981)"/>
                <path id="Trazado_183722" data-name="Trazado 183722" d="M94.38,33.556,83.807,61.793l26.317,3.631,10.342-25.775Z" transform="translate(14.476 17.003)" fill="#c95b3d"/>
                <path id="Trazado_183723" data-name="Trazado 183723" d="M89.471,39.438c5.075,3.723,14.477,9.774,23.815,11.359l4.473-11.148L91.673,33.556Z" transform="translate(17.183 17.003)"/>
                <path id="Trazado_183724" data-name="Trazado 183724" d="M84.227,31.22C84.227,14.384,96.592.735,111.845.735s27.618,9.342,27.618,30.485c0,16.836-8.607,30.951-23.86,30.951S84.227,48.057,84.227,31.22" transform="translate(14.677 0.372)" fill="#c95b3d"/>
                <path id="Trazado_183725" data-name="Trazado 183725" d="M112.262,0C96.751,0,84.148,14.959,83.354,31.861c6.343-3.6,19.694-12.5,20.245-23.961a64.388,64.388,0,0,0,36.439,14.621C136.411,8.05,125.335,0,112.262,0" transform="translate(14.26)"/>
                <path id="Trazado_183726" data-name="Trazado 183726" d="M134.543,44.988s40.343-4.466,58.19,13.162C220.169,85.248,277.284,165.058,220.84,175c-16.3,2.872-41.516,0-41.516,0H65.187s-4.948,16.838-39.267,14.427S-1.4,140.821,6.419,124.01s45.712-63.183,57.7-72.81,50.278-5.822,50.278-5.822Z" transform="translate(0 22.541)" fill="#e1e8ff"/>
                <g id="Grupo_175060" data-name="Grupo 175060" transform="translate(11.062 128.388)">
                  <path id="Trazado_183727" data-name="Trazado 183727" d="M12.693,135.346a.747.747,0,0,1-.3-.063.759.759,0,0,1-.378-.993c7.534-17.461,17.833-28.069,25.147-33.892,7.948-6.333,14.038-8.49,14.292-8.581a.742.742,0,0,1,.937.47.757.757,0,0,1-.458.957c-.242.084-24.411,8.85-38.566,41.652a.737.737,0,0,1-.677.451" transform="translate(-6.658 -91.778)"/>
                  <path id="Trazado_183728" data-name="Trazado 183728" d="M9.109,115.758a.741.741,0,0,1-.718-.576.755.755,0,0,1,.547-.909L20.66,111.4a.746.746,0,0,1,.891.557.755.755,0,0,1-.547.909L9.282,115.738a.762.762,0,0,1-.173.02" transform="translate(-8.37 -81.844)"/>
                </g>
                <path id="Trazado_183729" data-name="Trazado 183729" d="M111.807,29.9s5.208-17.327,14.384-7.231c0,0-2.106,11.682-14.384,7.231" transform="translate(27.856 9.885)" fill="#fff"/>
                <path id="Trazado_183730" data-name="Trazado 183730" d="M110.583,29.561s-6.095-15.337-17.539-4.369c0,0,5.109,12.317,17.539,4.369" transform="translate(18.89 10.762)" fill="#fff"/>
                <path id="Trazado_183731" data-name="Trazado 183731" d="M108.069,30.37a.97.97,0,0,1-.5-.139,1.027,1.027,0,0,1-.358-1.391l2.725-4.764a.994.994,0,0,1,.845-.5,1.029,1.029,0,0,1,.86.478l2.434,3.97a1.025,1.025,0,0,1-.318,1.4.982.982,0,0,1-1.371-.324l-1.561-2.542-1.895,3.31a.989.989,0,0,1-.86.5" transform="translate(25.593 11.945)"/>
                <path id="Trazado_183732" data-name="Trazado 183732" d="M108.2,36.4a16.843,16.843,0,0,1-4.051-.482,1.02,1.02,0,0,1-.708-1.243,1,1,0,0,1,1.219-.723c.074.018,7.4,1.917,10.865-2.723a.979.979,0,0,1,1.4-.193,1.026,1.026,0,0,1,.189,1.424c-2.4,3.215-6.083,3.94-8.91,3.94" transform="translate(23.844 15.622)"/>
                <path id="Trazado_183733" data-name="Trazado 183733" d="M94.693,20.5a.988.988,0,0,1-.8-.417,1.029,1.029,0,0,1,.216-1.419c6.72-5,12.489-2.775,12.735-2.676a1.022,1.022,0,0,1,.56,1.318.988.988,0,0,1-1.289.574c-.2-.078-5.034-1.894-10.83,2.424a.979.979,0,0,1-.588.2" transform="translate(19.202 7.806)"/>
                <path id="Trazado_183734" data-name="Trazado 183734" d="M125.007,19.483a.988.988,0,0,1-.588-.194c-5.849-4.356-10.776-2.444-10.825-2.427a.986.986,0,0,1-1.293-.573,1.024,1.024,0,0,1,.56-1.318c.244-.1,6.015-2.326,12.735,2.676a1.03,1.03,0,0,1,.216,1.421.986.986,0,0,1-.8.416" transform="translate(28.058 7.293)"/>
                <path id="Trazado_183735" data-name="Trazado 183735" d="M28.521.313,7.754,1.23S7.589,1.153,0,1.153C2.79,7.049,5.88,18.675,25.216,16.7,34.168,15.778,38.737,5.517,40.61.313a56.658,56.658,0,0,0-12.089,0" transform="matrix(0.998, 0.07, -0.07, 0.998, 98.323, 62.716)" fill="#c95b3d"/>
                <path id="Trazado_183736" data-name="Trazado 183736" d="M50.257,146.145a.747.747,0,0,1-.739-.746l-.4-40.873a.748.748,0,0,1,.733-.761h.006a.745.745,0,0,1,.739.746l.4,40.873a.747.747,0,0,1-.732.761Z" transform="translate(12.458 52.581)"/>
                <path id="Trazado_183737" data-name="Trazado 183737" d="M140.521,147.08a.739.739,0,0,1-.693-.493l-15.76-43.656a.754.754,0,0,1,.437-.966.733.733,0,0,1,.949.446l15.76,43.654a.757.757,0,0,1-.437.967.722.722,0,0,1-.256.047" transform="translate(33.692 51.644)"/>
              </g>
            </g>
            <g id="Grupo_175064" data-name="Grupo 175064" transform="translate(137.382 32)">
              <g id="Grupo_175063" data-name="Grupo 175063" clip-path="url(#clip-path-2)">
                <path id="Trazado_183738" data-name="Trazado 183738" d="M111.015,27.391a7.351,7.351,0,0,1-14.7,0c.211-8.463,8.175-7.35,7.351-7.35a7.35,7.35,0,0,1,7.35,7.35" transform="translate(-91.388 -21.869)"/>
              </g>
            </g>
            <g id="Grupo_175066" data-name="Grupo 175066" transform="translate(165.114 29.393)">
              <g id="Grupo_175065" data-name="Grupo 175065" clip-path="url(#clip-path-3)">
                <path id="Trazado_183740" data-name="Trazado 183740" d="M128.732,25.9a7.351,7.351,0,1,1-7.35-7.35,7.35,7.35,0,0,1,7.35,7.35" transform="translate(-110.68 -19.994)"/>
              </g>
            </g>
            <g id="Grupo_175068" data-name="Grupo 175068">
              <g id="Grupo_175067" data-name="Grupo 175067" clip-path="url(#clip-path-4)">
                <path id="Trazado_183742" data-name="Trazado 183742" d="M93.007,26.236c-1.713-4.171-5.994-6.283-9.563-4.719S78.37,27.73,80.081,31.9s5.994,6.283,9.563,4.719,5.075-6.214,3.362-10.384" transform="translate(37.929 10.641)" fill="#c95b3d"/>
                <path id="Trazado_183743" data-name="Trazado 183743" d="M88.042,30.629a.98.98,0,0,1-.675-.27l-5.5-5.171a1.029,1.029,0,0,1-.056-1.436.982.982,0,0,1,1.408-.057l5.5,5.171a1.029,1.029,0,0,1,.056,1.436.972.972,0,0,1-.732.327" transform="translate(38.964 11.87)"/>
                <path id="Trazado_183744" data-name="Trazado 183744" d="M83.177,30.566a.987.987,0,0,1-.718-.312,1.03,1.03,0,0,1,.027-1.437l2.551-2.5a.983.983,0,0,1,1.41.027,1.032,1.032,0,0,1-.027,1.437l-2.551,2.5a.982.982,0,0,1-.692.283" transform="translate(39.269 13.192)"/>
                <path id="Trazado_183745" data-name="Trazado 183745" d="M105.422,174.277l-60.7-31.221a1.751,1.751,0,0,1-.941-1.559V46.365a1.714,1.714,0,0,1,2.484-1.559l60.7,31.221a1.75,1.75,0,0,1,.943,1.559v95.131a1.715,1.715,0,0,1-2.486,1.559" transform="translate(20.92 22.608)" fill="#ffc849"/>
                <path id="Trazado_183746" data-name="Trazado 183746" d="M89.845,174.277l60.7-31.221a1.751,1.751,0,0,0,.941-1.559V46.365A1.715,1.715,0,0,0,149,44.806L88.3,76.026a1.752,1.752,0,0,0-.941,1.559v95.131a1.715,1.715,0,0,0,2.486,1.559" transform="translate(41.744 22.608)" fill="#ffc849"/>
                <path id="Trazado_183747" data-name="Trazado 183747" d="M87.6,162.635a.747.747,0,0,1-.739-.753V66.75a.739.739,0,1,1,1.478,0v95.131a.746.746,0,0,1-.739.753" transform="translate(41.505 33.442)"/>
                <path id="Trazado_183748" data-name="Trazado 183748" d="M54.811,85.8l-14.951-.264a4.421,4.421,0,0,0-4.391,4.695,4.732,4.732,0,0,0,4.834,4.7l14.9-.851a3.934,3.934,0,0,0,3.573-4.434,4.177,4.177,0,0,0-3.964-3.85" transform="translate(16.947 43.341)" fill="#c95b3d"/>
                <path id="Trazado_183749" data-name="Trazado 183749" d="M57.07,99.931l-17.838.759a4.336,4.336,0,0,1-4.259-3.309l-.112-.413a4.187,4.187,0,0,1,3.72-5.472l17.951-.347a4.4,4.4,0,0,1,4.3,4.006,4.133,4.133,0,0,1-3.766,4.775" transform="translate(16.578 46.187)" fill="#c95b3d"/>
                <path id="Trazado_183750" data-name="Trazado 183750" d="M56.135,100.309h0a3.791,3.791,0,0,0-3.74-3.268L40.5,97.088a3.8,3.8,0,0,0-3.735,3.449l-.1.975a3.807,3.807,0,0,0,4.063,4.222l11.99-1.023a3.825,3.825,0,0,0,3.412-4.4" transform="translate(17.513 49.173)" fill="#c95b3d"/>
                <path id="Trazado_183751" data-name="Trazado 183751" d="M53.339,104.647h0a3.275,3.275,0,0,0-3.075-2.4l-9.81.238a2.852,2.852,0,0,0-2.641,3.25l.086,1.11a3.317,3.317,0,0,0,3.531,3.185l9.724-1.349a3,3,0,0,0,2.186-4.04" transform="translate(18.063 51.812)" fill="#c95b3d"/>
                <path id="Trazado_183752" data-name="Trazado 183752" d="M36.682,91.525l.009-.018a.358.358,0,0,1,.483-.172,6.393,6.393,0,0,0,2.54.434L55.5,91.052A6.137,6.137,0,0,1,59.592,92.7,4.2,4.2,0,0,1,60.6,95.932c-.316,4.861-7.064,4.778-7.485,4.767l-9.4.579c-.708.042-4.561.092-5.551.035a.369.369,0,0,1,.041-.737c.972.056,4.769.006,5.467-.035l9.415-.58h.035c.065,0,6.477.2,6.755-4.077a3.473,3.473,0,0,0-.817-2.676,5.46,5.46,0,0,0-3.55-1.418l-15.76.717A7.048,7.048,0,0,1,36.858,92a.373.373,0,0,1-.176-.475" transform="translate(17.515 46.138)"/>
                <path id="Trazado_183753" data-name="Trazado 183753" d="M38.215,105.708a.362.362,0,0,1,.355-.226c.961.056,6.727-.341,7.688-.448.9-.1,3.847-.31,3.971-.319.055,0,5.533-.463,5.291-4.08a2.811,2.811,0,0,0-2.214-2.584,6.863,6.863,0,0,0-2.2-.291.37.37,0,0,1-.041-.738c1.7-.1,4.97.518,5.175,3.562.233,3.482-3.8,4.707-5.962,4.868-.031,0-3.059.218-3.944.318-.9.1-6.76.511-7.807.449a.367.367,0,0,1-.341-.389.408.408,0,0,1,.028-.122" transform="translate(18.247 49.158)"/>
                <path id="Trazado_183754" data-name="Trazado 183754" d="M37.906,85.4a.36.36,0,0,1,.333-.226c.095,0,9.606-.06,13.476-.047,4.079.015,6.538,1.805,6.746,4.912.25,3.717-3.4,4.733-3.44,4.743a.362.362,0,0,1-.442-.265.368.368,0,0,1,.259-.449,3.906,3.906,0,0,0,2.9-3.979c-.182-2.711-2.322-4.21-6.027-4.223-3.868-.014-13.374.045-13.469.047a.366.366,0,0,1-.365-.368.393.393,0,0,1,.028-.145" transform="translate(18.1 43.134)"/>
                <path id="Trazado_183755" data-name="Trazado 183755" d="M129.078,82.759l14.306-.253a4.231,4.231,0,0,1,4.2,4.493,4.529,4.529,0,0,1-4.624,4.5L128.7,90.686a3.765,3.765,0,0,1-3.418-4.244,4,4,0,0,1,3.792-3.682" transform="translate(59.857 41.807)" fill="#c95b3d"/>
                <path id="Trazado_183756" data-name="Trazado 183756" d="M127.8,96.281l17.068.726a4.146,4.146,0,0,0,4.073-3.166l.108-.395a4,4,0,0,0-3.559-5.236l-17.174-.331a4.211,4.211,0,0,0-4.117,3.833,3.953,3.953,0,0,0,3.6,4.568" transform="translate(59.33 44.53)" fill="#c95b3d"/>
                <path id="Trazado_183757" data-name="Trazado 183757" d="M126.633,96.642h0a3.629,3.629,0,0,1,3.579-3.128l11.378.045a3.634,3.634,0,0,1,3.572,3.3l.095.934a3.64,3.64,0,0,1-3.887,4.038l-11.472-.978a3.661,3.661,0,0,1-3.265-4.211" transform="translate(60.491 47.385)" fill="#c95b3d"/>
                <path id="Trazado_183758" data-name="Trazado 183758" d="M128.129,100.793h0A3.13,3.13,0,0,1,131.07,98.5l9.387.228a2.729,2.729,0,0,1,2.526,3.11L142.9,102.9a3.173,3.173,0,0,1-3.377,3.047l-9.3-1.291a2.865,2.865,0,0,1-2.09-3.863" transform="translate(61.148 49.912)" fill="#c95b3d"/>
                <path id="Trazado_183759" data-name="Trazado 183759" d="M146.617,88.238l-.007-.018a.346.346,0,0,0-.464-.164,6.12,6.12,0,0,1-2.43.416l-15.1-.686a5.858,5.858,0,0,0-3.916,1.581,4.014,4.014,0,0,0-.965,3.089c.3,4.651,6.758,4.571,7.162,4.561l8.994.553c.677.041,4.364.089,5.31.035a.354.354,0,0,0,.327-.374.35.35,0,0,0-.367-.333c-.93.054-4.562.006-5.229-.033l-9.009-.554h-.034c-.062,0-6.2.193-6.464-3.9a3.333,3.333,0,0,1,.783-2.561,5.24,5.24,0,0,1,3.4-1.356l15.078.686a6.7,6.7,0,0,0,2.768-.485.354.354,0,0,0,.168-.454" transform="translate(59.119 44.483)"/>
                <path id="Trazado_183760" data-name="Trazado 183760" d="M143.326,101.807a.346.346,0,0,0-.34-.215c-.918.053-6.436-.325-7.355-.428-.86-.1-3.68-.3-3.8-.306-.052,0-5.294-.443-5.062-3.905a2.69,2.69,0,0,1,2.118-2.471,6.577,6.577,0,0,1,2.1-.279.354.354,0,0,0,.04-.707c-1.627-.095-4.756.5-4.951,3.408-.223,3.331,3.633,4.5,5.7,4.657.03,0,2.926.209,3.773.3.865.1,6.469.488,7.471.431a.353.353,0,0,0,.327-.374.379.379,0,0,0-.027-.116" transform="translate(60.242 47.372)"/>
                <path id="Trazado_183761" data-name="Trazado 183761" d="M144.406,82.377a.348.348,0,0,0-.318-.217c-.092,0-9.191-.057-12.894-.044-3.9.014-6.256,1.727-6.455,4.7-.239,3.557,3.257,4.528,3.293,4.538a.348.348,0,0,0,.423-.253.354.354,0,0,0-.248-.431,3.734,3.734,0,0,1-2.775-3.806c.174-2.593,2.221-4.029,5.767-4.041,3.7-.014,12.8.044,12.887.044a.35.35,0,0,0,.349-.351.356.356,0,0,0-.027-.139" transform="translate(59.6 41.609)"/>
                <path id="Trazado_183762" data-name="Trazado 183762" d="M192.793,120.933a.717.717,0,0,1-.395-.116l-44.86-28.766a.76.76,0,0,1-.231-1.038.732.732,0,0,1,1.018-.237l44.861,28.766a.763.763,0,0,1,.231,1.04.736.736,0,0,1-.625.351" transform="translate(70.335 45.939)"/>
                <path id="Trazado_183763" data-name="Trazado 183763" d="M114.426,114.88s-10.295-14.709-19.8-16.181c-5.679-.88-9.486-1.575-11.629-1.99a3.1,3.1,0,0,1-2.212-3.093,2.323,2.323,0,0,1,1.868-2.558,41.515,41.515,0,0,1,18.3,2.839c8.409,3.456,19.975,17.127,19.975,17.127Z" transform="translate(38.602 46.089)" fill="#ed8c6b"/>
                <path id="Trazado_183764" data-name="Trazado 183764" d="M109.3,108s-8.7-12.4-18.2-13.869c-6.115-.948-10.058-1.68-12.093-2.082a2.432,2.432,0,0,1-1.732-2.426,2.867,2.867,0,0,1,2.333-3.167,41.448,41.448,0,0,1,17.815,2.872c8.41,3.455,19.975,17.125,19.975,17.125Z" transform="translate(36.925 43.772)" fill="#ed8c6b"/>
                <path id="Trazado_183765" data-name="Trazado 183765" d="M107.707,104.442s-8.7-12.4-18.2-13.869c-6.12-.948-10.063-1.68-12.1-2.082a2.43,2.43,0,0,1-1.729-2.421A2.871,2.871,0,0,1,78.016,82.9,41.457,41.457,0,0,1,95.828,85.77c8.41,3.455,19.975,17.125,19.975,17.125Z" transform="translate(36.162 41.97)" fill="#ed8c6b"/>
                <path id="Trazado_183766" data-name="Trazado 183766" d="M120.326,121.161s-18.51-30.332-27.2-33.386c-5.6-1.968-11.062-3.071-12.912-3.807a2.55,2.55,0,0,1-1.352-2.61c.129-1.623,1.218-2.83,2.493-2.762,4.033.215,12.668,1.195,19.506,5.555,7.466,4.761,25.884,30.568,25.884,30.568Z" transform="translate(37.678 39.825)" fill="#ed8c6b"/>
                <path id="Trazado_183767" data-name="Trazado 183767" d="M96.778,90.954l-4.237-9.788a4.489,4.489,0,0,1,1.4-5.468,2.542,2.542,0,0,1,3.587,1.1c1.45,2.47,19.772,27.495,19.772,27.495l7.7,16.729L99.349,103.866Z" transform="translate(44.036 38.171)" fill="#ed8c6b"/>
                <path id="Trazado_183768" data-name="Trazado 183768" d="M99.2,94.159a.491.491,0,0,1,0,.212c-.047.2-.213.309-.369.241a38.762,38.762,0,0,0-16.905-3.336c-.163.011-.306-.157-.319-.369a.351.351,0,0,1,.272-.405A39.233,39.233,0,0,1,99,93.879a.385.385,0,0,1,.2.28" transform="translate(38.993 45.842)"/>
                <path id="Trazado_183769" data-name="Trazado 183769" d="M102.053,91.843a.5.5,0,0,1-.03.288.3.3,0,0,1-.442.16A24.011,24.011,0,0,0,97.308,89.9,43.24,43.24,0,0,0,79.25,86.871a2.428,2.428,0,0,0-1.4.779.283.283,0,0,1-.458-.047.473.473,0,0,1,.035-.568,3.015,3.015,0,0,1,1.791-.97,43.775,43.775,0,0,1,18.293,3.068,24.594,24.594,0,0,1,4.383,2.45.405.405,0,0,1,.161.261" transform="translate(36.943 43.582)"/>
                <path id="Trazado_183770" data-name="Trazado 183770" d="M99.415,88.465a.391.391,0,0,1-.043.262.29.29,0,0,1-.42.121,26.183,26.183,0,0,0-5.917-3.226,38.957,38.957,0,0,0-8.721-1.841.32.32,0,0,1-.257-.375A.329.329,0,0,1,84.4,83.1a39.439,39.439,0,0,1,8.84,1.867,26.812,26.812,0,0,1,6.046,3.292.327.327,0,0,1,.13.209" transform="translate(40.165 42.106)"/>
                <path id="Trazado_183771" data-name="Trazado 183771" d="M99.237,85.517a.481.481,0,0,1-.052.331.286.286,0,0,1-.454.089c-.925-.83-6.189-3.893-6.242-3.925a.452.452,0,0,1-.158-.536.3.3,0,0,1,.432-.194c.219.127,5.373,3.126,6.349,4a.424.424,0,0,1,.126.234" transform="translate(44.105 41.168)"/>
                <path id="Trazado_183772" data-name="Trazado 183772" d="M102.4,95.744c0,.054,0,.108-.007.163-.009.111-.161.211-.343.221s-.319-.071-.312-.181c0-.05.006-.1.007-.152.077-3.542-6.211-6.657-6.275-6.688-.132-.063-.137-.19-.013-.282a.5.5,0,0,1,.463-.05,20.639,20.639,0,0,1,3.333,2.117c1.472,1.157,3.189,2.925,3.148,4.852" transform="translate(45.572 44.966)"/>
                <path id="Trazado_183773" data-name="Trazado 183773" d="M160.927,210.329l-7.677,102.763L154.711,328l-31.477,33.821a14.188,14.188,0,0,1-17.594,2.631,13.557,13.557,0,0,1-4.637-18.7L120.859,313.1l3.27-95.7Z" transform="translate(47.319 106.578)" fill="#ed8c6b"/>
                <path id="Trazado_183774" data-name="Trazado 183774" d="M115.576,233.051l-.593,17.359,33.878,7.83,1.821-24.361Z" transform="translate(54.944 118.092)"/>
                <path id="Trazado_183775" data-name="Trazado 183775" d="M114.6,279.7l-4.611,7.583c5.761-.991,17.725-.518,27.059,16.74l5.521-4.871c-.591-1.76-8.54-21.349-27.97-19.452" transform="translate(52.556 141.664)" fill="#d7e5ff"/>
                <path id="Trazado_183776" data-name="Trazado 183776" d="M138.977,303.88a26.3,26.3,0,0,0-9-8.447c-9.041-5.239-16.524-4.635-21.548-2.92L101,304.724a13.555,13.555,0,0,0,4.639,18.7,14.185,14.185,0,0,0,17.592-2.629Z" transform="translate(47.319 147.602)" fill="#d7e5ff"/>
                <path id="Trazado_183777" data-name="Trazado 183777" d="M150.786,284.524,106.03,328.368a14.2,14.2,0,0,0,13.856-4.143L151.363,290.4Z" transform="translate(50.666 144.174)" fill="#d7e5ff"/>
                <path id="Trazado_183778" data-name="Trazado 183778" d="M182.136,303.685c-31.311-3.723-74.5-9.274-74.5-9.274s4.187-85,19.469-128.163c9.359-26.431,39.925-36.693,65.609-26.493.034,39.628-10.87,163.117-10.575,163.93" transform="translate(51.432 68.849)" fill="#ffb6c8"/>
                <path id="Trazado_183779" data-name="Trazado 183779" d="M300.885,188.922H161.254a1.492,1.492,0,0,1-1.478-1.507V169.333a1.491,1.491,0,0,1,1.478-1.507H300.885a1.491,1.491,0,0,1,1.478,1.507v18.082a1.492,1.492,0,0,1-1.478,1.507m-138.153-3.013H299.407V170.839H162.732Z" transform="translate(76.348 85.041)"/>
                <path id="Trazado_183780" data-name="Trazado 183780" d="M208.495,456.274a1.491,1.491,0,0,1-1.478-1.507V181.333a1.478,1.478,0,1,1,2.956,0V454.768a1.491,1.491,0,0,1-1.478,1.507" transform="translate(98.922 91.121)"/>
                <path id="Trazado_183781" data-name="Trazado 183781" d="M268.388,366.494H178.232a2.261,2.261,0,0,1,0-4.52h90.156a2.261,2.261,0,0,1,0,4.52" transform="translate(84.107 183.419)"/>
                <path id="Trazado_183782" data-name="Trazado 183782" d="M225.473,344.137a1.468,1.468,0,0,1-.956-.355l-52.508-45.31a1.527,1.527,0,0,1-.432-1.669,1.479,1.479,0,0,1,1.388-.988H277.982a1.479,1.479,0,0,1,1.388.988,1.529,1.529,0,0,1-.432,1.669l-52.511,45.31a1.464,1.464,0,0,1-.955.355M177,298.827l48.475,41.829,48.476-41.829Z" transform="translate(81.944 149.895)"/>
                <path id="Trazado_183783" data-name="Trazado 183783" d="M166,34.822s-7.618-16.788,15.294-18.98Z" transform="translate(78.743 8.027)" fill="#3c3fa7"/>
                <path id="Trazado_183784" data-name="Trazado 183784" d="M206.64,56.59l16.073-.289c16.556,7.591,37.026,59.5,37.026,59.5l-24.225,16.979L202.639,84.264Z" transform="translate(96.83 28.529)" fill="#6b8dfc"/>
                <path id="Trazado_183785" data-name="Trazado 183785" d="M232.865,60.222s-37.734,3.939-49.132,22.489S153.5,145.2,153.5,145.2L123.58,103.631,90.6,129.4s30.9,39.874,41.779,53.151,23.263,24.892,45.1,9.093,46.632-70.533,46.632-70.533l25.023-6.081,14.985-58.919Z" transform="translate(43.293 28.432)" fill="#6b8dfc"/>
                <path id="Trazado_183786" data-name="Trazado 183786" d="M188.35,197.295l46.358,114.672-49.336,52.91-6.825-4.957a15.232,15.232,0,0,1-3.842-20.4L194.7,307.872l-34.574-88.19Z" transform="translate(76.513 99.973)" fill="#ed8c6b"/>
                <path id="Trazado_183787" data-name="Trazado 183787" d="M205.47,231.881,168.384,233.3l12.288,31.344L213.3,251.251Z" transform="translate(80.461 117.499)"/>
                <path id="Trazado_183788" data-name="Trazado 183788" d="M245.457,307.389c-30.857,8.1-48.257,12.674-80.08,20.378l-34.621-134.83a36.971,36.971,0,0,1,8.8-34.007c8.385-8.783,58.286-15.753,70.991-18.011-6.553-12.2,1.639-28.329,13.784-34.677s79.039-3.294,79.039-3.294,20.353,52.976,11.9,75.059S286.53,206.746,263.3,207.665l-51.877,2.055s18.206,65.889,34.035,97.669" transform="translate(61.96 51.794)" fill="#ffb6c8"/>
                <path id="Trazado_183789" data-name="Trazado 183789" d="M218.883,56.493S190.735,59.46,178.619,61.8l-1.6,18.814,30.407-1.064,12.907-13.8Z" transform="translate(84.586 28.626)" fill="#ed8c6b"/>
                <path id="Trazado_183790" data-name="Trazado 183790" d="M181.918,57.685c-.87-1.347,5.537,20,5.537,20l25.157-2.9L201.775,41.958Z" transform="translate(86.889 21.261)" fill="#ed8c6b"/>
                <path id="Trazado_183791" data-name="Trazado 183791" d="M199.922,42.932l-18,14.261c-.415-.642.819,3.854,2.226,8.745l17-17.451Z" transform="translate(86.89 21.754)"/>
                <path id="Trazado_183792" data-name="Trazado 183792" d="M179.02,17.375S162,26.115,163.54,46.9s6.625,26.931,26.966,24.874,22.972-17.748,22.972-17.748l-3.924-20.292-24.97-16.655Z" transform="translate(78.099 8.657)" fill="#ed8c6b"/>
                <path id="Trazado_183793" data-name="Trazado 183793" d="M174.008,65.4c-8.891,32.342-6.659,72.411,11.551,100.117,56.3,2.126,83.469,2.057,113.512,27.794-3.91-14.559-32.413-40.448-36.324-55.007-10.9-3.631-17.384-16.024-22.2-34.358-2.971-11.3-2.623-35.349-1.735-47.313-2.577-1.614-16.636-1.112-17.031.356,0,0-6.349,20.1-26.075,21.478-17.245,1.208-10.983-16.878-10.983-16.878s-10.45,2.864-10.71,3.81" transform="translate(80.733 28.193)"/>
                <path id="Trazado_183794" data-name="Trazado 183794" d="M216.222,56.342s29.26-2.974,41.18,20.3S294.815,158.4,291.554,177.56s-30.416,23.628-41.426-2.326-12.7-65.544-12.7-65.544Z" transform="translate(103.32 28.487)" fill="#6b8dfc"/>
                <path id="Trazado_183795" data-name="Trazado 183795" d="M220.69,108.288l27.3,56.74L261.375,113.5,238.8,76.361Z" transform="translate(105.455 38.694)" fill="#6b8dfc"/>
                <path id="Trazado_183796" data-name="Trazado 183796" d="M142.937,130.163a.736.736,0,0,1-.6-.319L131.751,114.5a.764.764,0,0,1,.179-1.05.734.734,0,0,1,1.03.182l10.581,15.343a.764.764,0,0,1-.179,1.05.724.724,0,0,1-.426.137" transform="translate(62.892 57.419)"/>
                <path id="Trazado_183797" data-name="Trazado 183797" d="M174.4,37.694s4.473-10.973,16.187-3.61c0,0-6.4,11.654-16.187,3.61" transform="translate(83.338 15.983)" fill="#fff"/>
                <path id="Trazado_183798" data-name="Trazado 183798" d="M173.547,38.093s-2.725-9.937-10.8-5.487c0,0,2.1,10.787,10.8,5.487" transform="translate(77.768 15.941)" fill="#fff"/>
                <path id="Trazado_183799" data-name="Trazado 183799" d="M172.385,42.739a.98.98,0,0,1-.782-.39l-4.425-5.819a1.029,1.029,0,0,1-.1-1.062.986.986,0,0,1,.888-.565h5.707a1.009,1.009,0,0,1,0,2.017h-3.689l3.186,4.192a1.023,1.023,0,0,1-.176,1.416.977.977,0,0,1-.606.211" transform="translate(79.787 17.686)"/>
                <path id="Trazado_183800" data-name="Trazado 183800" d="M184.76,28.19a.99.99,0,0,1-.369-.072c-4.973-2.043-8.489-.934-8.526-.922a.99.99,0,0,1-1.244-.646,1.01,1.01,0,0,1,.624-1.27c.17-.057,4.193-1.371,9.885.967a1.014,1.014,0,0,1,.548,1.311.989.989,0,0,1-.918.633" transform="translate(83.417 12.597)"/>
                <path id="Trazado_183801" data-name="Trazado 183801" d="M172.309,27.472a.974.974,0,0,1-.64-.24c-.1-.083-2.316-1.95-4.762-.928a.976.976,0,0,1-1.29-.547,1.014,1.014,0,0,1,.538-1.317c3.573-1.5,6.665,1.144,6.8,1.257a1.022,1.022,0,0,1,.108,1.422.978.978,0,0,1-.751.353" transform="translate(79.103 12.151)"/>
                <path id="Trazado_183802" data-name="Trazado 183802" d="M192.467,33.3s-22.083-3.479-16.982-16.741c0,0,14.639-4.817,27.778,2.277s22.714,26.686,3.6,43.675l-1.731-11.431s-14.094.518-12.664-17.779" transform="translate(83.489 7.579)" fill="#3c3fa7"/>
                <path id="Trazado_183803" data-name="Trazado 183803" d="M204.729,288.9,207,282.507c-8.051-8.209-18.278-10.464-22.664-11.073l-4.017,6.36c9.8-1.448,24.412,11.108,24.412,11.108" transform="translate(86.163 137.541)" fill="#d7e5ff"/>
                <path id="Trazado_183804" data-name="Trazado 183804" d="M178.936,328.9l49.338-52.91-3.109-7.69-51.572,56.719Z" transform="translate(82.95 135.952)" fill="#d7e5ff"/>
                <path id="Trazado_183805" data-name="Trazado 183805" d="M200.741,300.071a9.2,9.2,0,0,0-2.2-5.846c-7.595-9.518-16.04-10.332-20.824-9.818l-6.971,11.034a15.233,15.233,0,0,0,3.844,20.4l6.67,4.846c.183-.1.368-.211.554-.318Z" transform="translate(80.469 144.055)" fill="#d7e5ff"/>
                <path id="Trazado_183806" data-name="Trazado 183806" d="M192.234,37.636c3.133-3.658,8.118-4.216,11.137-1.245s2.925,8.347-.21,12.006-8.119,4.217-11.136,1.245-2.926-8.347.208-12.006" transform="translate(90.705 17.473)" fill="#ed8c6b"/>
                <path id="Trazado_183807" data-name="Trazado 183807" d="M193.354,43.166a.99.99,0,0,1-.906-.6,1.015,1.015,0,0,1,.508-1.329l7.249-3.255a.987.987,0,0,1,1.3.518A1.016,1.016,0,0,1,201,39.827l-7.25,3.255a.978.978,0,0,1-.4.084" transform="translate(91.92 19.203)"/>
                <path id="Trazado_183808" data-name="Trazado 183808" d="M196.681,45.277a.988.988,0,0,1-.891-.57L194.1,41.16a1.019,1.019,0,0,1,.46-1.347.979.979,0,0,1,1.321.469l1.688,3.547a1.021,1.021,0,0,1-.46,1.349.987.987,0,0,1-.432.1" transform="translate(92.704 20.123)"/>
                <path id="Trazado_183809" data-name="Trazado 183809" d="M163.522,301.544a.738.738,0,0,1-.714-.562L130.281,174.307a37.716,37.716,0,0,1,8.985-34.724.731.731,0,0,1,1.045-.015.764.764,0,0,1,.015,1.065,36.166,36.166,0,0,0-8.616,33.291L164.236,300.6a.752.752,0,0,1-.526.919.678.678,0,0,1-.188.026" transform="translate(61.721 70.614)"/>
              </g>
            </g>
            <g id="Grupo_175070" data-name="Grupo 175070" transform="translate(257.534 47.525)">
              <g id="Grupo_175069" data-name="Grupo 175069" clip-path="url(#clip-path-5)">
                <path id="Trazado_183810" data-name="Trazado 183810" d="M185.294,37.025a5.946,5.946,0,1,1-5.946-5.946,5.946,5.946,0,0,1,5.946,5.946" transform="translate(-174.914 -31.777)"/>
              </g>
            </g>
            <g id="Grupo_175072" data-name="Grupo 175072" transform="translate(240.388 47.4)">
              <g id="Grupo_175071" data-name="Grupo 175071" clip-path="url(#clip-path-6)">
                <path id="Trazado_183812" data-name="Trazado 183812" d="M171.408,36.681c0,3.283-2.292,5.946-5.12,5.946s-5.12-2.662-5.12-5.946,2.292-5.946,5.12-5.946,5.12,2.662,5.12,5.946" transform="translate(-163.55 -31.826)"/>
              </g>
            </g>
            <g id="Grupo_175074" data-name="Grupo 175074">
              <g id="Grupo_175073" data-name="Grupo 175073" clip-path="url(#clip-path-4)">
                <path id="Trazado_183814" data-name="Trazado 183814" d="M179.111,43.7c-.454-.893-3.528-2.131-7.4-.378s-3.233,4.061.275,4.571c2.035.3,8.261-1.95,7.122-4.193" transform="translate(80.791 21.504)"/>
              </g>
            </g>
            <g id="Grupo_175076" data-name="Grupo 175076" transform="translate(249.74 63.942)">
              <g id="Grupo_175075" data-name="Grupo 175075" clip-path="url(#clip-path-8)">
                <path id="Trazado_183815" data-name="Trazado 183815" d="M167.389,45.87s6.036-2.911,12.146-2.54-1,6.886-1,6.886l-9.355,2.42Z" transform="translate(-169.929 -42.003)" fill="#fd521b"/>
              </g>
            </g>
            <g id="Grupo_175078" data-name="Grupo 175078" transform="translate(25.57 80.218)">
              <g id="Grupo_175077" data-name="Grupo 175077">
                <path id="Trazado_183817" data-name="Trazado 183817" d="M188.31,180.436a.753.753,0,0,1-.667-.4L178.515,162.6a.754.754,0,1,1,1.336-.7l9.126,17.434a.751.751,0,0,1-.319,1.016.738.738,0,0,1-.348.086" transform="translate(54.744 1.615)"/>
                <path id="Trazado_183818" data-name="Trazado 183818" d="M241.827,143.4a.756.756,0,0,1-.717-.521L226.529,97.838a.756.756,0,0,1,.39-.913l34.094-16.289A.753.753,0,0,1,261.665,82L228.166,98l14.379,44.411a.754.754,0,0,1-.485.949.776.776,0,0,1-.232.036" transform="translate(70.478 -39.396)"/>
                <path id="Trazado_183819" data-name="Trazado 183819" d="M250.741,106.6H222.773L221.211,53.24H252.3Z" transform="translate(67.801 -53.24)" fill="#d7e5ff"/>
                <path id="Trazado_183820" data-name="Trazado 183820" d="M233.439,68.176l17.782-1.026a5.207,5.207,0,0,1,5.445,5.269,5.587,5.587,0,0,1-5.531,5.724l-17.77-.277A4.621,4.621,0,0,1,228.9,72.86a4.934,4.934,0,0,1,4.537-4.684" transform="translate(71.694 -46.196)"/>
                <path id="Trazado_183821" data-name="Trazado 183821" d="M232.536,84.652l21.266.03a5.15,5.15,0,0,0,4.912-4.068l.115-.487a4.9,4.9,0,0,0-4.686-6.209l-21.379.458a5.2,5.2,0,0,0-4.933,4.883,4.852,4.852,0,0,0,4.706,5.393" transform="translate(71.147 -42.763)"/>
                <path id="Trazado_183822" data-name="Trazado 183822" d="M231.062,85.166h0a4.488,4.488,0,0,1,4.3-4l14.157-.515a4.487,4.487,0,0,1,4.606,3.847l.163,1.133a4.488,4.488,0,0,1-4.636,5.123l-14.318-.618a4.488,4.488,0,0,1-4.269-4.974" transform="translate(72.779 -39.35)"/>
                <path id="Trazado_183823" data-name="Trazado 183823" d="M233.1,90.039h0a3.886,3.886,0,0,1,3.547-2.944l11.688-.194a3.35,3.35,0,0,1,3.3,3.666l-.05,1.3a3.924,3.924,0,0,1-4.052,3.887l-11.638-1.109a3.493,3.493,0,0,1-2.79-4.608" transform="translate(73.747 -36.184)"/>
                <path id="Trazado_183824" data-name="Trazado 183824" d="M255.565,73.955l-.011-.021a.431.431,0,0,0-.585-.176,7.776,7.776,0,0,1-3,.628l-18.817-.078a7.374,7.374,0,0,0-4.794,2.126,4.833,4.833,0,0,0-1.049,3.815c.6,5.659,8.632,5.239,9.132,5.206l11.216.223c.844.015,5.432-.11,6.607-.224a.431.431,0,0,0-.084-.859c-1.154.112-5.674.237-6.506.221l-11.234-.225-.042,0c-.077.006-7.7.545-8.231-4.436a4.014,4.014,0,0,1,.847-3.163,6.586,6.586,0,0,1,4.157-1.825l18.792.078a8.528,8.528,0,0,0,3.419-.729.433.433,0,0,0,.187-.564" transform="translate(70.87 -42.87)"/>
                <path id="Trazado_183825" data-name="Trazado 183825" d="M252.093,90.474a.431.431,0,0,0-.432-.247c-1.141.111-8.023-.074-9.171-.152-1.074-.074-4.592-.178-4.742-.182-.063,0-6.605-.274-6.488-4.51a3.3,3.3,0,0,1,2.513-3.122,8.369,8.369,0,0,1,2.6-.446.432.432,0,0,0,.014-.863c-2.028-.033-5.89.844-5.991,4.407-.113,4.076,4.74,5.311,7.324,5.4.038,0,3.651.108,4.708.181,1.08.074,8.07.273,9.313.151a.432.432,0,0,0,.389-.472.485.485,0,0,0-.039-.14" transform="translate(72.456 -39.199)"/>
                <path id="Trazado_183826" data-name="Trazado 183826" d="M252.488,66.941a.431.431,0,0,0-.405-.249c-.115,0-11.436.392-16.042.594-4.853.212-7.7,2.421-7.8,6.057-.124,4.353,4.273,5.362,4.318,5.371a.431.431,0,0,0,.184-.842c-.154-.035-3.741-.874-3.64-4.5.089-3.173,2.564-5.028,6.973-5.221,4.6-.2,15.92-.589,16.033-.594a.432.432,0,0,0,.417-.446.448.448,0,0,0-.041-.167" transform="translate(71.364 -46.424)"/>
                <path id="Trazado_183827" data-name="Trazado 183827" d="M233.166,67.264l17.781-1.026a5.208,5.208,0,0,1,5.447,5.269,5.587,5.587,0,0,1-5.531,5.724l-17.77-.277a4.621,4.621,0,0,1-4.463-5.005,4.934,4.934,0,0,1,4.537-4.684" transform="translate(71.556 -46.659)" fill="#ed8c6b"/>
                <path id="Trazado_183828" data-name="Trazado 183828" d="M232.262,83.74l21.266.03A5.15,5.15,0,0,0,258.44,79.7l.114-.488a4.9,4.9,0,0,0-4.686-6.209l-21.379.458a5.2,5.2,0,0,0-4.933,4.883,4.852,4.852,0,0,0,4.705,5.393" transform="translate(71.008 -43.225)" fill="#ed8c6b"/>
                <path id="Trazado_183829" data-name="Trazado 183829" d="M230.788,84.253h0a4.489,4.489,0,0,1,4.3-4l14.156-.515a4.487,4.487,0,0,1,4.606,3.847l.163,1.133a4.488,4.488,0,0,1-4.636,5.123l-14.318-.618a4.489,4.489,0,0,1-4.269-4.974" transform="translate(72.641 -39.813)" fill="#ed8c6b"/>
                <path id="Trazado_183830" data-name="Trazado 183830" d="M232.825,89.126h0a3.886,3.886,0,0,1,3.547-2.944l11.688-.194a3.35,3.35,0,0,1,3.3,3.666l-.05,1.3a3.924,3.924,0,0,1-4.052,3.887l-11.638-1.109a3.493,3.493,0,0,1-2.79-4.608" transform="translate(73.608 -36.647)" fill="#ed8c6b"/>
                <path id="Trazado_183831" data-name="Trazado 183831" d="M255.291,73.043l-.011-.021a.431.431,0,0,0-.585-.176,7.774,7.774,0,0,1-3,.628L232.876,73.4a7.374,7.374,0,0,0-4.794,2.126,4.84,4.84,0,0,0-1.05,3.815c.606,5.659,8.633,5.239,9.134,5.206l11.216.223c.844.015,5.432-.11,6.607-.225a.431.431,0,1,0-.084-.859c-1.154.112-5.674.237-6.506.222l-11.234-.223a.2.2,0,0,0-.042,0c-.077.006-7.7.547-8.231-4.436a4.014,4.014,0,0,1,.847-3.163,6.586,6.586,0,0,1,4.159-1.825l18.79.078a8.528,8.528,0,0,0,3.419-.729.434.434,0,0,0,.187-.564" transform="translate(70.731 -43.332)"/>
                <path id="Trazado_183832" data-name="Trazado 183832" d="M251.819,89.561a.431.431,0,0,0-.432-.247c-1.141.111-8.023-.074-9.171-.152-1.074-.074-4.592-.178-4.742-.182-.063,0-6.605-.274-6.488-4.51a3.3,3.3,0,0,1,2.513-3.122,8.369,8.369,0,0,1,2.6-.446.432.432,0,0,0,.014-.863c-2.028-.033-5.891.844-5.991,4.407-.113,4.076,4.74,5.311,7.324,5.4.038,0,3.651.108,4.709.181,1.08.074,8.07.273,9.313.151a.432.432,0,0,0,.389-.472.483.483,0,0,0-.039-.14" transform="translate(72.317 -39.662)"/>
                <path id="Trazado_183833" data-name="Trazado 183833" d="M252.215,66.028a.431.431,0,0,0-.405-.249c-.114,0-11.436.392-16.042.594-4.855.212-7.7,2.421-7.8,6.057-.122,4.353,4.275,5.362,4.32,5.371a.431.431,0,0,0,.184-.842c-.154-.035-3.741-.874-3.64-4.505.089-3.172,2.564-5.026,6.973-5.219,4.6-.2,15.92-.589,16.033-.594a.432.432,0,0,0,.417-.446.447.447,0,0,0-.041-.167" transform="translate(71.225 -46.887)"/>
                <rect id="Rectángulo_45303" data-name="Rectángulo 45303" width="365.15" height="15.533" transform="translate(0.883 115.545)" fill="#fff7da"/>
                <path id="Trazado_183834" data-name="Trazado 183834" d="M378.925,147.474H13.661c-.456,0-.825-.674-.825-1.507V130.435c0-.833.37-1.507.825-1.507H378.925c.456,0,.824.674.824,1.507v15.533c0,.833-.368,1.507-.824,1.507M14.487,144.461H378.1V131.941H14.487Z" transform="translate(-12.836 -14.888)" fill="#12263f"/>
              </g>
            </g>
          </g>
        </g>
      </g>
    </g>
  </g>
</svg>
