<svg id="Grupo_983771" data-name="Grupo 983771" xmlns="http://www.w3.org/2000/svg" xmlns:xlink="http://www.w3.org/1999/xlink" width="98.277" height="105.018" viewBox="0 0 98.277 105.018">
  <defs>
    <clipPath id="clip-path">
      <rect id="Rectángulo_339010" data-name="Rectángulo 339010" width="98.277" height="105.018" fill="none"/>
    </clipPath>
  </defs>
  <g id="Grupo_983759" data-name="Grupo 983759" clip-path="url(#clip-path)">
    <path id="Trazado_211181" data-name="Trazado 211181" d="M99.419,43.936a47.278,47.278,0,0,1-7.03,17.081A38.738,38.738,0,0,1,68.366,77.4a44.315,44.315,0,0,1-13.27.845,6.55,6.55,0,0,0-3.206.32,21.491,21.491,0,0,0-3.316,1.588A31.514,31.514,0,0,0,42.756,84.7,66.329,66.329,0,0,0,31.506,99.7a76.908,76.908,0,0,1,4.254-12.4A100.124,100.124,0,0,1,40.91,76.768a1.414,1.414,0,0,0,.228-.434,1.45,1.45,0,0,0-.472-1.809,1.56,1.56,0,0,0-.945-.387c-.429-.031-.857-.08-1.284-.132l-.48-.061q-.328-.046-.656-.094-1.02-.154-2.034-.345a55.565,55.565,0,0,1-10.649-3.062c-8.146-3.3-15.3-9.393-16.544-18.528-1.2-8.841,2.322-18,7.282-25.166A43.4,43.4,0,0,1,40.509,9.157C46.44,7.722,52.5,7.9,58.528,8.5a79.836,79.836,0,0,1,17.636,3.686C85.1,15.207,94.42,20.621,98.193,29.731a25.016,25.016,0,0,1,1.227,14.2" transform="translate(-4.745 -4.878)" fill="#fff"/>
    <path id="Trazado_211182" data-name="Trazado 211182" d="M97.646,27.836C95.4,17.692,87,10.6,77.886,6.512A71.236,71.236,0,0,0,60.708,1.434,74.812,74.812,0,0,0,41.278.221a45.449,45.449,0,0,0-29.36,15C5.34,22.537.611,32.047.048,41.972A25.407,25.407,0,0,0,2.733,55.306a26.99,26.99,0,0,0,9.858,10.07,51.308,51.308,0,0,0,19.892,6.718c-1.647,3.063-3.106,6.24-4.452,9.437-2.907,6.9-5.447,14.354-5.494,21.92-.009,1.449,2.261,2.26,2.91.788A79.441,79.441,0,0,1,36.4,86.213c3.086-3.778,6.814-7.641,11.446-9.463A6.374,6.374,0,0,1,51,76.542q1.64.114,3.285.112a48.713,48.713,0,0,0,7.167-.561A41.781,41.781,0,0,0,87.794,61.183a50.922,50.922,0,0,0,8.817-17.03,32,32,0,0,0,1.035-16.316M94.674,39.058a47.278,47.278,0,0,1-7.03,17.081A38.738,38.738,0,0,1,63.62,72.525a44.315,44.315,0,0,1-13.27.845,6.55,6.55,0,0,0-3.206.32,21.492,21.492,0,0,0-3.316,1.588,31.514,31.514,0,0,0-5.818,4.545A66.329,66.329,0,0,0,26.76,94.827a76.908,76.908,0,0,1,4.254-12.4,100.126,100.126,0,0,1,5.151-10.538,1.414,1.414,0,0,0,.228-.434,1.45,1.45,0,0,0-.472-1.809,1.56,1.56,0,0,0-.945-.387c-.429-.031-.857-.08-1.284-.132l-.48-.061q-.328-.046-.656-.094-1.02-.154-2.034-.345a55.566,55.566,0,0,1-10.649-3.062c-8.146-3.3-15.3-9.393-16.544-18.528-1.2-8.841,2.322-18,7.282-25.166A43.4,43.4,0,0,1,35.764,4.279C41.7,2.844,47.751,3.026,53.783,3.626A79.836,79.836,0,0,1,71.419,7.312c8.934,3.018,18.256,8.431,22.029,17.542a25.016,25.016,0,0,1,1.227,14.2" transform="translate(0 0)" fill="#161615"/>
    <path id="Trazado_211183" data-name="Trazado 211183" d="M57.381,65.28a119.858,119.858,0,0,1,16.168-.948,1.562,1.562,0,0,0,0-3.123,119.921,119.921,0,0,0-16.168.948,1.612,1.612,0,0,0-1.562,1.562,1.571,1.571,0,0,0,1.562,1.562" transform="translate(-33.797 -37.057)" fill="#161615"/>
    <path id="Trazado_211184" data-name="Trazado 211184" d="M70.355,63.624,66.484,80.045c-.461,1.954,2.55,2.789,3.011.83l3.871-16.421c.461-1.954-2.55-2.788-3.011-.83" transform="translate(-40.225 -37.847)" fill="#161615"/>
    <path id="Trazado_211185" data-name="Trazado 211185" d="M96.023,80.9q2.677-4.764,5.353-9.528a38.721,38.721,0,0,1,5.474-8.046l-2.666-1.1a110.4,110.4,0,0,1-.235,17.133,1.573,1.573,0,0,0,1.561,1.562,1.594,1.594,0,0,0,1.562-1.562,110.446,110.446,0,0,0,.235-17.133,1.581,1.581,0,0,0-2.665-1.1,40.743,40.743,0,0,0-5.809,8.406q-2.757,4.9-5.507,9.8c-.986,1.754,1.711,3.33,2.7,1.576" transform="translate(-56.378 -36.724)" fill="#161615"/>
    <path id="Trazado_211186" data-name="Trazado 211186" d="M106.718,93.052h7.251a1.561,1.561,0,1,0,0-3.123h-7.251a1.561,1.561,0,1,0,0,3.123" transform="translate(-63.669 -54.45)" fill="#161615"/>
    <path id="Trazado_211187" data-name="Trazado 211187" d="M142.094,71.8a112.448,112.448,0,0,0-1.971,13.868,1.582,1.582,0,0,0,1.562,1.562l8.071.3c2.01.075,2.007-3.048,0-3.123l-8.071-.3,1.562,1.562a105.613,105.613,0,0,1,1.859-13.037,1.6,1.6,0,0,0-1.09-1.921,1.577,1.577,0,0,0-1.921,1.09" transform="translate(-84.839 -42.78)" fill="#161615"/>
    <path id="Trazado_211188" data-name="Trazado 211188" d="M176.882,71.414a98.733,98.733,0,0,1-2.535,15.395c-.481,1.951,2.53,2.784,3.011.83a104.052,104.052,0,0,0,2.646-16.225,1.574,1.574,0,0,0-1.561-1.562,1.593,1.593,0,0,0-1.562,1.562" transform="translate(-105.532 -42.294)" fill="#161615"/>
    <path id="Trazado_211189" data-name="Trazado 211189" d="M191.806,76.559a9.4,9.4,0,0,1-7.208,5.02,1.59,1.59,0,0,0-1.427.96,1.553,1.553,0,0,0,.323,1.706,9.914,9.914,0,0,1,3.366,7.9c-.086,2.009,3.037,2.005,3.123,0a12.926,12.926,0,0,0-4.28-10.109L184.6,84.7a12.6,12.6,0,0,0,9.9-6.566c.933-1.778-1.761-3.358-2.7-1.576" transform="translate(-110.832 -45.881)" fill="#161615"/>
    <path id="Trazado_211190" data-name="Trazado 211190" d="M29.708,93.581A15.213,15.213,0,0,0,33.251,109.1a1.562,1.562,0,0,0,2.208-2.209A12.1,12.1,0,0,1,32.72,94.411a1.562,1.562,0,0,0-3.011-.83" transform="translate(-17.494 -55.966)" fill="#161615"/>
    <path id="Trazado_211191" data-name="Trazado 211191" d="M52.5,145.68a1.562,1.562,0,0,0,0-3.123,1.562,1.562,0,0,0,0,3.123" transform="translate(-30.876 -86.315)" fill="#161615"/>
  </g>
</svg>
