<svg id="Grupo_983777" data-name="Grupo 983777" xmlns="http://www.w3.org/2000/svg" xmlns:xlink="http://www.w3.org/1999/xlink" width="67.428" height="45.608" viewBox="0 0 67.428 45.608">
  <defs>
    <clipPath id="clip-path">
      <rect id="Rectángulo_339009" data-name="Rectángulo 339009" width="67.427" height="45.609" fill="none"/>
    </clipPath>
  </defs>
  <g id="Grupo_983757" data-name="Grupo 983757" clip-path="url(#clip-path)">
    <path id="Trazado_211171" data-name="Trazado 211171" d="M4.05,28.017s9.443-6.492,12.984-14.164,10.623-6.492,15.934-.59A12.847,12.847,0,0,1,44.181,3.82c9.443-1.18,14.754,12.393,25.377,11.213,0,0-11.8,4.131-23.606,2.361s-16.525,0-24.2,4.721-17.7,5.9-17.7,5.9" transform="translate(-3.096 -2.865)" fill="#161615"/>
    <path id="Trazado_211172" data-name="Trazado 211172" d="M1.639,25.957A48.434,48.434,0,0,0,10.5,18.024a34.449,34.449,0,0,0,2.787-3.615c.856-1.29,1.456-2.686,2.218-4.025,1.279-2.248,3.342-3.946,6.033-3.846,3.133.116,5.871,2.305,7.887,4.519a.938.938,0,0,0,1.558-.411c.909-4.184,4.766-7.56,9.012-8.521a9.638,9.638,0,0,1,4.67-.016,13.739,13.739,0,0,1,3.927,1.858c2.713,1.766,5.064,4.023,7.71,5.883C59.363,12,62.868,13.493,66.676,13.1q-.124-.915-.248-1.831a51.792,51.792,0,0,1-9.207,2.152,51.985,51.985,0,0,1-9.209.6c-3.18-.085-6.292-.7-9.457-.957A28.521,28.521,0,0,0,25.27,14.8a44.608,44.608,0,0,0-5.946,3.081,42.815,42.815,0,0,1-7.373,3.632A54.128,54.128,0,0,1,4.42,23.647c-.829.173-1.662.329-2.5.462-.233.037-.467.071-.7.1-.053.007.187-.023-.052.006-1.176.14-1.191,2.005,0,1.864a50.426,50.426,0,0,0,9.086-2.026,42.979,42.979,0,0,0,7.681-3.188c2.125-1.156,4.129-2.508,6.307-3.573A25.636,25.636,0,0,1,36.781,14.82c3.094.126,6.126.738,9.209.965a49.735,49.735,0,0,0,9.515-.266,54.32,54.32,0,0,0,11.419-2.452c.924-.322.863-1.945-.248-1.831-7.115.734-11.8-5.432-17.212-8.925A12.55,12.55,0,0,0,40.147.195a13.868,13.868,0,0,0-8.564,5.142,12.625,12.625,0,0,0-2.4,4.814l1.558-.411a14.956,14.956,0,0,0-7.574-4.856A8,8,0,0,0,15.9,6.846a12.629,12.629,0,0,0-2.646,3.866,24.612,24.612,0,0,1-2.538,4.117A43.064,43.064,0,0,1,4.428,21.4,43.061,43.061,0,0,1,.7,24.347c-.982.676-.05,2.292.941,1.61" transform="translate(-0.214 0)" fill="#161615"/>
    <path id="Trazado_211173" data-name="Trazado 211173" d="M4.05,66.572S5.82,82.507,22.935,85.458s38.951-5.9,43.082-15.344,3.541-15.934,3.541-15.934A60.414,60.414,0,0,1,37.689,70.113C18.214,73.064,4.05,66.572,4.05,66.572" transform="translate(-3.096 -41.421)" fill="#161615"/>
    <path id="Trazado_211174" data-name="Trazado 211174" d="M.021,63.532a22.62,22.62,0,0,0,2.886,8.346,23.065,23.065,0,0,0,14.606,11c8.319,2.1,17.506,1.013,25.62-1.451A52.126,52.126,0,0,0,54.305,76.64a26.918,26.918,0,0,0,7.67-6.285A16.677,16.677,0,0,0,64.293,66.2a44.863,44.863,0,0,0,2.216-6.924,30.134,30.134,0,0,0,.9-7.768c0-.124-.009-.248-.02-.372A.944.944,0,0,0,65.8,50.48a40.051,40.051,0,0,1-4.522,3.936,62.47,62.47,0,0,1-12.994,7.7C36.263,67.4,22.405,68.178,9.664,65.28A56.641,56.641,0,0,1,3.5,63.526q-.843-.3-1.673-.628l-.248-.1c-.076-.031.217.093,0,0l-.153-.067C.34,62.232-.608,63.838.483,64.337a41.867,41.867,0,0,0,6.972,2.326,68.117,68.117,0,0,0,17.927,2.1,61.049,61.049,0,0,0,21.24-3.959,63.326,63.326,0,0,0,14.311-7.82A45.62,45.62,0,0,0,67.12,51.8l-1.591-.659a20.749,20.749,0,0,1-.287,4.874,39.992,39.992,0,0,1-1.3,5.652,29.377,29.377,0,0,1-2.318,5.921,19.276,19.276,0,0,1-6.09,6.079,44.941,44.941,0,0,1-10.062,5.025c-7.686,2.777-16.231,4.157-24.373,2.989C14.773,80.771,8.99,77.786,5.4,72.385a23.33,23.33,0,0,1-3.527-8.924c-.036-.2.034.286.01.071-.133-1.179-2-1.192-1.864,0" transform="translate(0 -38.38)" fill="#161615"/>
    <path id="Trazado_211175" data-name="Trazado 211175" d="M82.4,64.34c-.05,1.437.11,3.164,1.428,4.031a3.67,3.67,0,0,0,2.492.4c1.032-.116,2.062-.26,3.089-.418s2.021-.332,3.026-.527c.851-.166,1.729-.326,2.155-1.174a6.881,6.881,0,0,0,.308-2.977,23.583,23.583,0,0,0-.271-3.122.938.938,0,0,0-1.146-.651.956.956,0,0,0-.651,1.146,19.676,19.676,0,0,1,.2,2.318,11.7,11.7,0,0,1-.054,2.249c-.052.3-.113.225-.431.295-.367.08-.737.146-1.105.216q-1.157.217-2.321.4-1.09.171-2.186.309c-.594.074-1.5.329-2.051,0-.74-.443-.64-1.765-.615-2.492.042-1.2-1.822-1.2-1.864,0" transform="translate(-62.991 -45.772)" fill="#161615"/>
    <path id="Trazado_211176" data-name="Trazado 211176" d="M127.395,61.7a17.027,17.027,0,0,0,.251,2.747,5.519,5.519,0,0,0,.684,2.044c.977,1.533,2.769,1.4,4.362,1.2a18.351,18.351,0,0,0,5.01-1.326,2.084,2.084,0,0,0,1.369-1.936,15.607,15.607,0,0,0,.033-2.54c-.073-1.192-1.938-1.2-1.864,0a16.516,16.516,0,0,1,.008,2,5.363,5.363,0,0,1-.041.543c-.012.072-.128.27-.025.168s-.216.072-.255.088c-.147.064-.3.121-.449.178a16.711,16.711,0,0,1-3.787.964,10.593,10.593,0,0,1-1.937.118,1.008,1.008,0,0,1-.95-.639,8.864,8.864,0,0,1-.544-3.612.933.933,0,0,0-1.864,0" transform="translate(-97.395 -46.483)" fill="#161615"/>
    <path id="Trazado_211177" data-name="Trazado 211177" d="M171.981,63.154c-.146-.185-.047-.193-.074-.051a1.863,1.863,0,0,0,0,.292,3.172,3.172,0,0,0,.053.774,2.007,2.007,0,0,0,.864,1.213,4.569,4.569,0,0,0,2.758.518,9.209,9.209,0,0,0,3.023-.657,11.438,11.438,0,0,0,2.825-1.742.938.938,0,0,0,0-1.318.954.954,0,0,0-1.318,0,7.869,7.869,0,0,1-4.53,1.853,6.322,6.322,0,0,1-1.192-.028,1.993,1.993,0,0,1-.607-.225c.051.046-.02-.025-.021-.1,0-.114.012-.317.013-.464a2.07,2.07,0,0,0-.472-1.383.937.937,0,0,0-1.318,0,.955.955,0,0,0,0,1.318" transform="translate(-131.28 -47.067)" fill="#161615"/>
    <path id="Trazado_211178" data-name="Trazado 211178" d="M57.862,84.62a11.8,11.8,0,0,0,4.623-.1,2.884,2.884,0,0,0,2.377-3.278.939.939,0,0,0-1.147-.651.954.954,0,0,0-.651,1.147q.035.166.005.01a1.357,1.357,0,0,1,0,.172c.026-.261-.1.246-.009.032a1.4,1.4,0,0,1-.178.307c.1-.129-.127.118-.154.142.12-.107-.156.1-.194.12q-.084.047-.171.087.113-.045-.045.016a5.173,5.173,0,0,1-.706.182c-.033.006-.34.052-.187.032-.151.02-.3.035-.456.048q-.457.039-.915.043a11.866,11.866,0,0,1-1.693-.1.958.958,0,0,0-1.146.651.942.942,0,0,0,.651,1.146" transform="translate(-43.721 -61.584)" fill="#161615"/>
    <path id="Trazado_211179" data-name="Trazado 211179" d="M38.9,139.021a8.113,8.113,0,0,0,6.369,4.269.935.935,0,0,0,.932-.932.958.958,0,0,0-.932-.932s-.247-.031-.122-.013-.1-.017-.121-.021q-.2-.036-.4-.084a6.936,6.936,0,0,1-.79-.239c-.078-.029-.154-.059-.231-.09.085.034.07.031-.005,0-.125-.058-.249-.117-.372-.181a7.252,7.252,0,0,1-.744-.447q-.085-.058-.169-.119c-.017-.013-.193-.148-.1-.077s-.1-.086-.1-.083c-.053-.044-.105-.089-.157-.135a7.191,7.191,0,0,1-.585-.582c-.092-.1-.179-.209-.266-.316-.066-.081.068.1-.029-.041-.039-.057-.08-.112-.119-.169a6.961,6.961,0,0,1-.441-.746.939.939,0,0,0-1.275-.334.954.954,0,0,0-.334,1.275" transform="translate(-29.65 -105.212)" fill="#fff"/>
    <path id="Trazado_211180" data-name="Trazado 211180" d="M84.142,161.935h.2a.958.958,0,0,0,.932-.932l-.033-.248a.931.931,0,0,0-.24-.411l-.189-.146a.93.93,0,0,0-.471-.127h-.2a.958.958,0,0,0-.932.932q.017.124.033.248a.932.932,0,0,0,.239.411l.189.146a.928.928,0,0,0,.471.127" transform="translate(-63.615 -122.376)" fill="#fff"/>
  </g>
</svg>
