<svg xmlns="http://www.w3.org/2000/svg" xmlns:xlink="http://www.w3.org/1999/xlink" width="400" height="292" viewBox="0 0 400 292">
  <defs>
    <clipPath id="clip-path">
      <rect id="Rectángulo_338743" data-name="Rectángulo 338743" width="373.62" height="274.869" fill="none"/>
    </clipPath>
    <clipPath id="clip-path-2">
      <rect id="Rectángulo_338742" data-name="Rectángulo 338742" width="373.619" height="274.869" fill="none"/>
    </clipPath>
    <clipPath id="clip-path-3">
      <rect id="Rectángulo_338741" data-name="Rectángulo 338741" width="18.75" height="18.75" fill="none"/>
    </clipPath>
  </defs>
  <g id="Grupo_983870" data-name="Grupo 983870" transform="translate(-1020 -404)">
    <rect id="Rectángulo_338265" data-name="Rectángulo 338265" width="299" height="292" rx="14" transform="translate(1071 404)" fill="#8284d2"/>
    <path id="Trazado_208683" data-name="Trazado 208683" d="M32.335,245.282H394.29a5.709,5.709,0,0,0,5.67-6.373L373.332,11.583a5.709,5.709,0,0,0-5.67-5.045H5.709a5.709,5.709,0,0,0-5.67,6.373L26.665,240.236a5.709,5.709,0,0,0,5.67,5.045" transform="translate(1020 433.462)" fill="#ffc37a"/>
    <g id="Grupo_983353" data-name="Grupo 983353" transform="translate(396.38 -108)">
      <g id="Grupo_983359" data-name="Grupo 983359" transform="translate(650 513)">
        <g id="Grupo_983358" data-name="Grupo 983358" clip-path="url(#clip-path)">
          <line id="Línea_1549" data-name="Línea 1549" x2="15.329" y2="1.394" transform="translate(226.319 74.547)" fill="none" stroke="#1c171e" stroke-miterlimit="10" stroke-width="2"/>
          <g id="Grupo_983357" data-name="Grupo 983357">
            <g id="Grupo_983356" data-name="Grupo 983356" clip-path="url(#clip-path-2)">
              <path id="Trazado_208684" data-name="Trazado 208684" d="M357.216,152.761l-31.579-4.824S317.467,31.918,311.079,29.106s-47.867,4.453-52.189,24.1c-1.905,8.661-9.968,84.572,26.665,87.864l1.005,11.577s-22.175,8.051-33.4,9.42,16.17,42.9,53.535,35.407,50.524-44.714,50.524-44.714" transform="translate(-17.788 -2.025)" fill="#ffac9d"/>
              <path id="Trazado_208685" data-name="Trazado 208685" d="M308.619,149.767a28.315,28.315,0,0,1-19.469,8.638l-.925-10.66c16.279-2.127,25.11-12.819,29.947-25.176-.69,9.984-2.943,20.414-9.553,27.2" transform="translate(-20.457 -8.7)" fill="#f29083"/>
              <path id="Trazado_208686" data-name="Trazado 208686" d="M322.222,87.155s5.764-10.491,11.734-1.05c7.675,12.138-.128,34.732-9.967,25.937s-1.766-24.888-1.766-24.888" transform="translate(-22.649 -5.832)" fill="#ffac9d"/>
              <path id="Trazado_208687" data-name="Trazado 208687" d="M328.493,109.873a16.007,16.007,0,0,0,1.371-1.777,7,7,0,0,0,.95-1.968,2.58,2.58,0,0,0,.087-1.011,1.467,1.467,0,0,0-.382-.833,2.166,2.166,0,0,0-.807-.532,5.43,5.43,0,0,0-1-.292l-.216-.048-.081-.214a46.819,46.819,0,0,1-1.9-6.285,31.224,31.224,0,0,1-.545-3.265,14.15,14.15,0,0,1-.015-3.377,6.418,6.418,0,0,1,.451-1.722,3.259,3.259,0,0,1,1.216-1.487l.218-.125c.124-.064.142-.063.218-.1a3.173,3.173,0,0,1,.412-.156,3.385,3.385,0,0,1,.938-.18,3.478,3.478,0,0,1,1.805.39,6.448,6.448,0,0,1,2.433,2.39,12.411,12.411,0,0,1,1.352,3,15.98,15.98,0,0,0-1.8-2.674,6.466,6.466,0,0,0-2.358-1.9,2.707,2.707,0,0,0-1.355-.193,2.449,2.449,0,0,0-.647.155,2.315,2.315,0,0,0-.34.149,1.575,1.575,0,0,0-.15.075l-.131.082a3.427,3.427,0,0,0-1.119,2.445,15.234,15.234,0,0,0,.029,3.111c.1,1.052.278,2.105.485,3.153a62.829,62.829,0,0,0,1.575,6.24l-.3-.263a5.642,5.642,0,0,1,1.137.416,2.842,2.842,0,0,1,1,.778,2.1,2.1,0,0,1,.458,1.214,3.1,3.1,0,0,1-.216,1.207,7.327,7.327,0,0,1-1.2,1.976,12.163,12.163,0,0,1-1.584,1.622" transform="translate(-23.129 -6.139)" fill="#d15a5a"/>
              <path id="Trazado_208688" data-name="Trazado 208688" d="M257.408,75.093s-.051,2.041-.024,5.61.165,8.669.6,14.762c.222,3.046.544,6.341,1.036,9.8a95.015,95.015,0,0,0,2.122,10.751,52.52,52.52,0,0,0,4.243,10.852,46.4,46.4,0,0,0,6.651,9.967,20.7,20.7,0,0,0,9.7,6.46,14.743,14.743,0,0,0,5.692.379c.9-.111,1.919-.326,2.847-.509.913-.25,1.831-.432,2.717-.758a31.863,31.863,0,0,0,9.545-5.034,37.022,37.022,0,0,0,6.84-6.932,52.006,52.006,0,0,0,7.047-12.861,44.646,44.646,0,0,0,1.7-5.336s-.085.5-.307,1.435-.575,2.294-1.146,3.99a54.172,54.172,0,0,1-2.418,5.991,44.476,44.476,0,0,1-4.273,7.231,37.875,37.875,0,0,1-6.838,7.256A32.549,32.549,0,0,1,298.6,141.2a31.587,31.587,0,0,1-5.254,2.278c-.91.342-1.887.549-2.847.816-.975.2-1.874.4-2.924.543a15.968,15.968,0,0,1-6.147-.373A21.621,21.621,0,0,1,271.1,137.68a47.557,47.557,0,0,1-6.774-10.275,53.362,53.362,0,0,1-4.256-11.106,80.6,80.6,0,0,1-1.98-10.912c-.419-3.5-.671-6.813-.827-9.876-.327-6.127-.215-11.239-.127-14.81.109-3.572.275-5.608.275-5.608" transform="translate(-18.244 -5.33)" fill="#d15a5a"/>
              <path id="Trazado_208689" data-name="Trazado 208689" d="M336.028,29.279S318.593,3.95,343.594.66c18.82-2.476,19.737,27.3,5.592,33.554,0,0,15.132-6.578,11.842-25.329,0,0,7.567,23.027-10.855,28.947,0,0,11.513-2.631,13.815-16.776,0,0,.659,31.579-24.342,17.435s-3.619-9.211-3.619-9.211" transform="translate(-23.246 -0.036)" fill="#965450"/>
              <path id="Trazado_208690" data-name="Trazado 208690" d="M363.95,21.019a40,40,0,0,1-.7,7.968,24.489,24.489,0,0,1-2.656,7.572,12.59,12.59,0,0,1-2.528,3.181,9.691,9.691,0,0,1-3.514,2.09l-.486.177-.5.113c-.336.068-.671.16-1.01.207a13.2,13.2,0,0,1-2.051.1l-1.026-.039-1.011-.148a15.13,15.13,0,0,1-1.995-.422,18.245,18.245,0,0,1-1.938-.61,18.817,18.817,0,0,1-1.881-.753l-.93-.4-.9-.46c-.6-.314-1.207-.609-1.788-.938-2.336-1.3-4.639-2.663-6.88-4.144a34.464,34.464,0,0,1-3.266-2.41,9.178,9.178,0,0,1-1.471-1.527,2.124,2.124,0,0,1-.456-1.222,1.194,1.194,0,0,1,.327-.792,1.707,1.707,0,0,1,.6-.388,6.022,6.022,0,0,1,2.176-.282,20.379,20.379,0,0,1,2.048.146c1.35.16,2.669.393,4,.682l-.565.831a42.369,42.369,0,0,1-2.671-4.643,38.222,38.222,0,0,1-2.07-4.94,25.261,25.261,0,0,1-1.171-5.263,14.669,14.669,0,0,1,.374-5.439,10.5,10.5,0,0,1,2.781-4.731A14.3,14.3,0,0,1,337.4,1.622a24.349,24.349,0,0,1,2.579-.806L341.286.5,342.61.282l.661-.109.165-.027.108-.014.083-.007L343.956.1l1.318-.1,1.384.035c.463.007.907.111,1.361.163a12.045,12.045,0,0,1,5.022,2.08,13.043,13.043,0,0,1,3.6,4.035,19.929,19.929,0,0,1,2.479,10.329,23,23,0,0,1-2.53,10.268,17.632,17.632,0,0,1-3.106,4.288,13.893,13.893,0,0,1-4.342,2.978,15.34,15.34,0,0,0,7.166-7.408,23.149,23.149,0,0,0,2.208-10.129,19.255,19.255,0,0,0-2.546-9.926,12.208,12.208,0,0,0-3.437-3.724,11.139,11.139,0,0,0-4.674-1.845C347.444,1.1,347.023,1,346.6,1L345.348.971l-1.315.106L343.7,1.1l-.082.007-.021,0c-.012,0,.033,0,0,0l-.04.007-.16.027-.641.11-1.281.217-1.256.311a23.32,23.32,0,0,0-2.454.781,13.258,13.258,0,0,0-4.25,2.71,9.427,9.427,0,0,0-2.48,4.274,13.566,13.566,0,0,0-.313,5.035,24.2,24.2,0,0,0,1.149,5.022,37.436,37.436,0,0,0,1.984,4.807,41.567,41.567,0,0,0,2.567,4.522l.743,1.123-1.308-.293c-1.275-.285-2.583-.524-3.88-.684a19.433,19.433,0,0,0-1.94-.151,5.208,5.208,0,0,0-1.772.2.73.73,0,0,0-.241.141.151.151,0,0,0-.046.108,1.238,1.238,0,0,0,.267.609,8.237,8.237,0,0,0,1.3,1.349,33.517,33.517,0,0,0,3.154,2.353c2.2,1.476,4.487,2.828,6.785,4.169.573.337,1.159.631,1.738.949l.872.465.9.407a18.14,18.14,0,0,0,1.816.764,17.383,17.383,0,0,0,1.864.621,14.452,14.452,0,0,0,1.907.438l.965.157.972.053a12.512,12.512,0,0,0,1.939-.062c.32-.04.634-.122.95-.18l.475-.1.456-.158a9.085,9.085,0,0,0,3.338-1.912,12.6,12.6,0,0,0,2.506-2.99,24.132,24.132,0,0,0,2.831-7.375,39.927,39.927,0,0,0,.931-7.92" transform="translate(-23.207 0)" fill="#54201c"/>
              <g id="Grupo_983355" data-name="Grupo 983355" transform="translate(303.242 22.663)" opacity="0.7">
                <g id="Grupo_983354" data-name="Grupo 983354">
                  <g id="Grupo_983353-2" data-name="Grupo 983353" clip-path="url(#clip-path-3)">
                    <path id="Trazado_208691" data-name="Trazado 208691" d="M345.16,33.77a9.375,9.375,0,1,1-9.375-9.374,9.375,9.375,0,0,1,9.375,9.374" transform="translate(-326.41 -24.395)" fill="#ffa65b"/>
                  </g>
                </g>
              </g>
              <path id="Trazado_208692" data-name="Trazado 208692" d="M318.866,20.148c-19.116-9.239-37.431-3.228-47.369,6.25-10.584,10.094-12.172,24.013-12.172,24.013,16.119-24.671,47.48-8.662,47.48-8.662-1,4.457-2.22,16.066,5.273,20.322.738,18.284,1.555,57.074-4.725,58.078-8.224,1.316,3.29-19.737-7.566-19.408s-31.909-.987-31.909,8.224.33,22.04-7.565,1.974c0,0-10.2,27.3,6.25,33.225s56.58,9.868,53.291-42.436c-.433-6.881-.794-12.962-1.1-18.334,1.239-3.406,3.565-6.36,7.916-4.623,0,0,3.725,2.353,5.241,8.668,0,0,26.694-48.082-13.048-67.291" transform="translate(-18.254 -1.103)" fill="#965450"/>
              <path id="Trazado_208693" data-name="Trazado 208693" d="M332.076,87.4a65.247,65.247,0,0,0,2.753-6.094,83.435,83.435,0,0,0,4.787-16.9A56.992,56.992,0,0,0,340.4,52.74a40.308,40.308,0,0,0-2.593-12.684,32.329,32.329,0,0,0-7.541-11.5A43,43,0,0,0,318.51,20.5l-3.344-1.459-3.381-1.17-3.47-.9-3.511-.6a41.47,41.47,0,0,0-13.822.555,42.362,42.362,0,0,0-12.12,4.582c-.918.482-1.741,1.092-2.6,1.618-.831.565-1.6,1.187-2.39,1.762-.728.639-1.478,1.261-2.148,1.891-.658.682-1.344,1.325-1.943,2a41.7,41.7,0,0,0-5.642,8.09,46.049,46.049,0,0,0-3.031,7.023,44.376,44.376,0,0,0-1.308,4.758c-.237,1.116-.315,1.72-.315,1.72s.06-.606.267-1.729a44.525,44.525,0,0,1,1.174-4.808,46.353,46.353,0,0,1,2.848-7.153,39.131,39.131,0,0,1,5.542-8.341c.6-.7,1.267-1.343,1.918-2.038.7-.683,1.434-1.308,2.175-1.978.791-.6,1.57-1.248,2.41-1.838.864-.552,1.7-1.187,2.625-1.694a41.225,41.225,0,0,1,12.332-4.831,42.493,42.493,0,0,1,14.16-.642l3.6.6,3.561.9,3.51,1.2,3.352,1.446a44.021,44.021,0,0,1,12.054,8.346A33.346,33.346,0,0,1,338.727,39.7a39.43,39.43,0,0,1,2.5,13.008,57.55,57.55,0,0,1-.984,11.805,70.888,70.888,0,0,1-2.5,9.674c-.934,2.823-1.892,5.232-2.738,7.19a65.45,65.45,0,0,1-2.928,6.022" transform="translate(-18.418 -1.065)" fill="#54201c"/>
              <path id="Trazado_208694" data-name="Trazado 208694" d="M260.291,116.124s-.186.519-.483,1.51-.711,2.449-1.125,4.332a53.947,53.947,0,0,0-1.081,6.853,34.429,34.429,0,0,0,.272,8.924,14.671,14.671,0,0,0,4.844,8.979,14.478,14.478,0,0,0,5.03,2.547c1.882.6,3.816,1.139,5.827,1.57a56.685,56.685,0,0,0,12.544,1.3,42.074,42.074,0,0,0,6.447-.546,33.952,33.952,0,0,0,6.3-1.593,29.994,29.994,0,0,0,5.849-2.77,27.782,27.782,0,0,0,2.618-1.876c.41-.346.846-.659,1.233-1.027l1.145-1.118a30.205,30.205,0,0,0,6.618-10.546,47.8,47.8,0,0,0,2.787-11.445c.156-.929.216-1.857.286-2.77s.162-1.811.2-2.7c.015-1.774.132-3.49.059-5.138-.079-3.293-.229-6.328-.346-9.013s-.221-5.028-.307-6.957c-.169-3.857-.267-6.061-.267-6.061s.166,2.2.457,6.05c.146,1.925.322,4.262.525,6.944s.453,5.7.576,9.022c.1,1.658.015,3.39.032,5.182-.02.9-.1,1.8-.15,2.729s-.1,1.865-.241,2.809a45.679,45.679,0,0,1-2.69,11.7,31.212,31.212,0,0,1-6.779,10.933l-1.184,1.169c-.4.385-.851.715-1.275,1.076a28.7,28.7,0,0,1-2.713,1.967,30.811,30.811,0,0,1-6.053,2.909,35.081,35.081,0,0,1-6.5,1.607,43.223,43.223,0,0,1-6.609.521,57.691,57.691,0,0,1-12.764-1.4,54.833,54.833,0,0,1-5.916-1.653,15.347,15.347,0,0,1-5.257-2.791,13.354,13.354,0,0,1-3.419-4.49,18.369,18.369,0,0,1-1.525-5.013,32.432,32.432,0,0,1-.05-9.076,53.987,53.987,0,0,1,1.3-6.855c.474-1.875.934-3.322,1.262-4.3s.53-1.495.53-1.495" transform="translate(-18.234 -6.287)" fill="#54201c"/>
              <path id="Trazado_208695" data-name="Trazado 208695" d="M276.593,76.793c.025,2.34-.084,4.664-.214,6.985-.149,2.319-.346,4.632-.576,6.942-.247,2.307-.512,4.612-.831,6.91s-.67,4.593-1.074,6.881l-.574-.735c2.182.341,4.365.688,6.542,1.067s4.355.766,6.526,1.2c-2.212-.1-4.419-.245-6.623-.411s-4.406-.351-6.607-.547l-.62-.056.046-.679q.231-3.478.6-6.939c.24-2.308.532-4.609.844-6.908.329-2.3.688-4.591,1.1-6.878.428-2.285.878-4.568,1.461-6.834" transform="translate(-19.344 -5.451)" fill="#d15a5a"/>
              <path id="Trazado_208696" data-name="Trazado 208696" d="M273.752,73.258,270.9,71.276a32.25,32.25,0,0,0-2.745-1.732,13.046,13.046,0,0,0-1.495-.715,7.62,7.62,0,0,0-1.46-.425,2.537,2.537,0,0,0-.347-.048l-.086-.009-.043-.006.08.006h-.056l-.253-.011a2.365,2.365,0,0,0-.286,0c-.073,0-.19.02-.283.024a4.3,4.3,0,0,0-1.195.334,9.888,9.888,0,0,0-2.361,1.612c-.715.624-1.319,1.237-1.777,1.667l-.72.706a4.742,4.742,0,0,1-.054-1.036,7.984,7.984,0,0,1,.535-2.668,7.454,7.454,0,0,1,2.45-3.339,6.337,6.337,0,0,1,2.429-1.1c.238-.037.452-.077.714-.1.242-.015.6-.032.725-.021l.253.012.151.01.084.011.165.022a6.276,6.276,0,0,1,.656.115,8.282,8.282,0,0,1,2.347.92,10.106,10.106,0,0,1,1.83,1.356,12.378,12.378,0,0,1,2.339,3,10.344,10.344,0,0,1,1.258,3.407" transform="translate(-18.299 -4.571)" fill="#76413b"/>
              <path id="Trazado_208697" data-name="Trazado 208697" d="M283.027,71.662a8.231,8.231,0,0,1,.579-1.23,14.546,14.546,0,0,1,2.127-2.89,16.279,16.279,0,0,1,1.8-1.643,14.643,14.643,0,0,1,2.347-1.486,12.689,12.689,0,0,1,2.858-1.069,12.145,12.145,0,0,1,6.4.1,13.232,13.232,0,0,1,2.837,1.195c.414.266.825.517,1.21.783.368.289.723.57,1.059.854a15.066,15.066,0,0,1,1.692,1.762l.66.843q.286.422.524.806a11.049,11.049,0,0,1,.755,1.358c.376.775.545,1.237.545,1.237s-.44-.251-1.132-.722c-.335-.246-.774-.507-1.253-.815s-1.009-.653-1.6-1a9.223,9.223,0,0,0-.907-.523c-.321-.163-.625-.368-.967-.521l-1.024-.492c-.36-.133-.712-.291-1.073-.439-.374-.107-.738-.25-1.112-.364-.384-.077-.755-.211-1.142-.275a13,13,0,0,0-4.691-.075,16.194,16.194,0,0,0-2.3.552,26.611,26.611,0,0,0-4.113,1.727c-1.208.617-2.219,1.211-2.942,1.632l-1.138.692" transform="translate(-20.089 -4.469)" fill="#76413b"/>
              <path id="Trazado_208698" data-name="Trazado 208698" d="M272.564,118.177s12.608,17.252,30.068-3.608Z" transform="translate(-19.346 -8.132)" fill="#fff"/>
              <path id="Trazado_208699" data-name="Trazado 208699" d="M265.689,84.273c0,2.877-.819,5.209-1.821,5.207s-1.808-2.336-1.8-5.213.819-5.209,1.82-5.207,1.809,2.336,1.8,5.213" transform="translate(-18.601 -5.611)" fill="#1c171e"/>
              <path id="Trazado_208700" data-name="Trazado 208700" d="M295.433,84.411c0,2.877-.819,5.209-1.821,5.207s-1.808-2.336-1.8-5.213.819-5.209,1.82-5.207,1.809,2.336,1.8,5.213" transform="translate(-20.712 -5.621)" fill="#1c171e"/>
              <path id="Trazado_208701" data-name="Trazado 208701" d="M247.344,76.225l22.761-.232s5.2,21.8-10.684,22.3C244.557,98.754,247.344,76.225,247.344,76.225Z" transform="translate(-17.541 -5.394)" fill="none" stroke="#1c171e" stroke-miterlimit="10" stroke-width="3"/>
              <path id="Trazado_208702" data-name="Trazado 208702" d="M283.594,76.225l22.761-.232s5.2,21.8-10.684,22.3C280.807,98.754,283.594,76.225,283.594,76.225Z" transform="translate(-20.114 -5.394)" fill="none" stroke="#1c171e" stroke-miterlimit="10" stroke-width="3"/>
              <line id="Línea_1550" data-name="Línea 1550" x2="26.477" y2="2.555" transform="translate(286.938 74.779)" fill="none" stroke="#1c171e" stroke-miterlimit="10" stroke-width="2"/>
              <path id="Trazado_208703" data-name="Trazado 208703" d="M272.86,82.83s3.019-5.11,9.755.465" transform="translate(-19.367 -5.727)" fill="none" stroke="#1c171e" stroke-miterlimit="10" stroke-width="2"/>
              <path id="Trazado_208704" data-name="Trazado 208704" d="M215.578,216.4l-8.522,72.815h34.088l7.457-74.945Z" transform="translate(-14.696 -15.208)" fill="#f29083"/>
              <path id="Trazado_208705" data-name="Trazado 208705" d="M241.144,289.212l7.456-74.945-33.022,2.13-8.522,72.815" transform="translate(-14.696 -15.208)" fill="none" stroke="#d15a5a" stroke-miterlimit="10" stroke-width="1.37"/>
              <path id="Trazado_208706" data-name="Trazado 208706" d="M243.162,170.121s-29.694,3.728-37.683,64.448l44.075,8.788Z" transform="translate(-14.584 -12.075)" fill="#fc6a5a"/>
              <path id="Trazado_208707" data-name="Trazado 208707" d="M216.35,197.364c-4.588,9.269-8.6,21.906-10.871,39.138l44.075,8.789L247.9,226.364a248.585,248.585,0,0,1-31.551-29" transform="translate(-14.584 -14.008)" fill="#ef5448"/>
              <path id="Trazado_208708" data-name="Trazado 208708" d="M365.791,189.044l-3.607-28.856-21.571-2.441c-7.008,12.762-20.941,32.4-40.46,32.7-23,.348-29.385-18.4-31.04-26.125l-24.107,4.925c-8.616,18.206-12.206,80.01-13.549,115.958H367.282c-.386-37.972-1.491-96.156-1.491-96.156" transform="translate(-16.428 -11.196)" fill="#fc6a5a"/>
              <path id="Trazado_208709" data-name="Trazado 208709" d="M300.293,234.934q-34.107,6.283-68.013,13.433c-.338,5.713-.608,35.592-.822,41.3H367.283c-.168-16.512-.473-56.407-.762-68.961-21.809,5.814-44.033,10.137-66.228,14.226" transform="translate(-16.428 -15.665)" fill="#ef5448"/>
              <path id="Trazado_208710" data-name="Trazado 208710" d="M234.478,221.228s-.259,4.277-.648,10.694c-.085,1.6-.251,3.339-.292,5.18-.064,1.839-.132,3.779-.2,5.786l-.437,12.572c-.506,17.131-1.014,34.262-1.014,34.262l-.928-.035s.15-4.281.373-10.7c.247-6.423.578-14.986.909-23.55.223-4.281.447-8.562.656-12.576.106-2.006.207-3.945.3-5.784.072-1.84.268-3.571.381-5.174.539-6.4.9-10.674.9-10.674" transform="translate(-16.393 -15.702)" fill="#a50000"/>
              <path id="Trazado_208711" data-name="Trazado 208711" d="M346.372,208.211V287.95h44.741l-.574-91.457Z" transform="translate(-24.585 -13.947)" fill="#ffac9d"/>
              <path id="Trazado_208712" data-name="Trazado 208712" d="M390.945,244.065l-.405-47.572-44.168,11.718v35.961c14.847.009,29.709.011,44.573-.106" transform="translate(-24.585 -13.947)" fill="#f29083"/>
              <path id="Trazado_208713" data-name="Trazado 208713" d="M391.113,287.95l-.573-91.457-44.168,11.718V287.95" transform="translate(-24.585 -13.947)" fill="none" stroke="#d15a5a" stroke-miterlimit="10" stroke-width="1.37"/>
              <path id="Trazado_208714" data-name="Trazado 208714" d="M336.626,233.853s-.532-75.633,32.091-73.769c37.68,2.153,27.03,68.975,27.03,68.975Z" transform="translate(-23.893 -11.36)" fill="#fc6a5a"/>
              <path id="Trazado_208715" data-name="Trazado 208715" d="M334.023,206.551l-.726,6.761-.362,3.381c-.061.563-.077,1.13-.118,1.695l-.1,1.7-.209,3.391-.1,1.7c-.045.565-.04,1.132-.061,1.7l-.092,3.4c-.043,1.132-.035,2.263-.039,3.395l-.183-.168L346.8,232.22l14.778-1.23,29.555-2.461-.307.284c.613-4.255.966-8.565,1.182-12.868.088-2.153.157-4.308.153-6.463,0-1.077,0-2.154-.034-3.231q-.025-1.615-.115-3.228c-.041-1.077-.114-2.151-.2-3.224-.069-1.074-.179-2.144-.3-3.214-.1-1.072-.25-2.137-.4-3.2-.135-1.067-.327-2.125-.521-3.182-.172-1.062-.413-2.108-.651-3.155-.215-1.053-.511-2.085-.8-3.118-.262-1.042-.622-2.051-.963-3.068-.313-1.027-.753-2-1.149-3a39.214,39.214,0,0,0-2.95-5.675c-.561-.9-1.228-1.737-1.836-2.611-.7-.8-1.386-1.612-2.127-2.371a24.086,24.086,0,0,0-5.07-3.805l-1.4-.747a11.865,11.865,0,0,0-1.471-.6l-1.488-.563c-.5-.165-1.03-.258-1.544-.392l-1.551-.373c-.522-.095-1.055-.132-1.583-.2l-3.214-.362-6.446-.693-12.89-1.386.369-.206c-.932,1.865-1.958,3.652-3.039,5.416s-2.227,3.483-3.429,5.164a76.8,76.8,0,0,1-7.982,9.478c-1.462,1.464-3.01,2.841-4.611,4.154a48.427,48.427,0,0,1-5.085,3.566,36.372,36.372,0,0,1-5.557,2.778,30.9,30.9,0,0,1-5.964,1.747l-1.537.255c-.513.079-1.033.1-1.55.15a28.719,28.719,0,0,1-3.11.095,35.584,35.584,0,0,1-6.169-.7,28.724,28.724,0,0,1-5.919-1.868,28.362,28.362,0,0,1-5.379-3.085,30.439,30.439,0,0,1-8.169-9.215,38.134,38.134,0,0,1-2.654-5.579,33.8,33.8,0,0,1-1.676-5.939,33.729,33.729,0,0,0,1.748,5.91,38.108,38.108,0,0,0,2.716,5.529,30.2,30.2,0,0,0,8.217,9.043,28.073,28.073,0,0,0,5.349,2.979,28.433,28.433,0,0,0,5.858,1.769,34.988,34.988,0,0,0,6.089.668,28.209,28.209,0,0,0,3.057-.106c.506-.053,1.018-.073,1.522-.153l1.509-.256a30.425,30.425,0,0,0,5.858-1.745,35.9,35.9,0,0,0,5.464-2.761,47.781,47.781,0,0,0,5-3.542c1.577-1.3,3.1-2.674,4.545-4.13a75.988,75.988,0,0,0,7.872-9.431q1.78-2.508,3.38-5.138c1.063-1.749,2.081-3.541,2.98-5.364l.115-.232.255.026,12.9,1.33,6.448.665,3.229.35c.543.069,1.092.106,1.631.2l1.6.376c.531.136,1.075.231,1.6.4l1.545.575a12.539,12.539,0,0,1,1.527.62l1.46.769a24.921,24.921,0,0,1,5.278,3.927c.77.78,1.485,1.618,2.21,2.441.631.9,1.324,1.753,1.9,2.682a40.1,40.1,0,0,1,3,5.824c.4,1.015.844,2.014,1.158,3.058.342,1.034.7,2.062.965,3.12.287,1.05.582,2.1.8,3.163.237,1.061.476,2.122.645,3.195.192,1.069.382,2.139.513,3.216.151,1.075.3,2.151.394,3.231.115,1.079.222,2.158.287,3.241.084,1.08.153,2.163.19,3.246q.085,1.625.1,3.25c.03,1.083.027,2.167.02,3.251-.006,2.166-.084,4.332-.182,6.5-.236,4.327-.607,8.64-1.245,12.938l-.039.263-.268.021-29.566,2.333L346.838,232.7l-14.786,1.126-.187.014,0-.183c.019-1.135.024-2.271.082-3.4l.135-3.4c.028-.566.031-1.133.083-1.7l.125-1.7.252-3.393.125-1.7c.047-.565.071-1.132.138-1.695l.405-3.376Z" transform="translate(-19.305 -11.167)" fill="#a50000"/>
              <path id="Trazado_208716" data-name="Trazado 208716" d="M75.4,140.255s4.821,39.757-1.28,38.713S42.375,163.4,36.976,189.483,68.5,267.713,68.5,267.713l82.428-.98s13.833-78.991-8.063-86.816-35.651,13.873-34.879-19.954c.784-34.345-32.584-19.707-32.584-19.707" transform="translate(-2.586 -9.735)" fill="#965450"/>
              <path id="Trazado_208717" data-name="Trazado 208717" d="M111.944,173.86a97.513,97.513,0,0,1-.981-13.9c-.722-34.347-32.584-19.708-32.584-19.708s1.22,10.067,1.655,19.937c8.079,5.85,22.629,11.106,31.91,13.668" transform="translate(-5.563 -9.735)" fill="#76413b"/>
              <path id="Trazado_208718" data-name="Trazado 208718" d="M99.363,53.266s10.92-10.92,35.134.475,23.265,50.8,4.748,60.3S99.363,53.266,99.363,53.266" transform="translate(-7.053 -3.446)" fill="#1c171e"/>
              <path id="Trazado_208719" data-name="Trazado 208719" d="M104.945,66.864s33.147-3.048,37,33.765c4.905,46.84-23.331,75.1-50.447,54.326S60.745,65.765,104.945,66.864" transform="translate(-5.064 -4.741)" fill="#965450"/>
              <path id="Trazado_208720" data-name="Trazado 208720" d="M76.458,126.887s-2.051-20.478-11.066-16.466-3.28,31.365,11.936,23.555" transform="translate(-4.336 -7.8)" fill="#965450"/>
              <path id="Trazado_208721" data-name="Trazado 208721" d="M105.253,66.861s.711-.079,2.05-.1a38.613,38.613,0,0,1,5.792.38,38.221,38.221,0,0,1,8.734,2.314,31.016,31.016,0,0,1,9.918,6.274,32.924,32.924,0,0,1,7.809,11.506,48.828,48.828,0,0,1,3.466,15.143,94.9,94.9,0,0,1,.1,16.585,73.413,73.413,0,0,1-3.331,16.827c-.487,1.359-.945,2.729-1.538,4.048-.53,1.342-1.185,2.631-1.826,3.921a44.747,44.747,0,0,1-4.658,7.228,35.545,35.545,0,0,1-6.021,5.983,28.473,28.473,0,0,1-7.271,4.015,22.82,22.82,0,0,1-7.91,1.441,13.3,13.3,0,0,1-1.964-.056c-.648-.067-1.3-.095-1.931-.194a27.443,27.443,0,0,1-3.7-.847,34.509,34.509,0,0,1-12.187-6.722l-1.2-1.038-.592-.51-.547-.56c-.715-.753-1.445-1.464-2.094-2.2l-1.8-2.236c-.588-.721-1.054-1.5-1.563-2.208-1.036-1.412-1.777-2.877-2.566-4.164-.717-1.328-1.311-2.583-1.881-3.7l-1.308-3.073c-.387-.89-.619-1.686-.857-2.311l-.687-1.934s.265.663.759,1.906c.261.616.521,1.4.942,2.273s.876,1.888,1.4,3.018c.6,1.093,1.224,2.323,1.974,3.621.819,1.256,1.593,2.687,2.658,4.054.523.688,1.005,1.444,1.605,2.139l1.836,2.153c.66.7,1.374,1.383,2.08,2.1l.541.537.6.5L91.3,154a33.614,33.614,0,0,0,11.955,6.335,26.644,26.644,0,0,0,3.569.753c.609.085,1.229.1,1.849.152a12.333,12.333,0,0,0,1.872.02,22.467,22.467,0,0,0,7.5-1.433,27.229,27.229,0,0,0,6.915-3.87,34.321,34.321,0,0,0,5.759-5.792,43.338,43.338,0,0,0,4.475-7.035c.617-1.26,1.247-2.516,1.757-3.829.572-1.287,1.007-2.63,1.482-3.958a72.038,72.038,0,0,0,3.359-16.492,93.54,93.54,0,0,0-.006-16.365A50.172,50.172,0,0,0,138.6,87.63a32,32,0,0,0-7.4-11.319,29.641,29.641,0,0,0-4.736-3.774,31.168,31.168,0,0,0-4.831-2.59,37.843,37.843,0,0,0-8.573-2.53,42.105,42.105,0,0,0-5.751-.577c-1.336-.032-2.049.021-2.049.021" transform="translate(-5.372 -4.739)" fill="#54201c"/>
              <path id="Trazado_208722" data-name="Trazado 208722" d="M122.755,74.88s1.424,16.617-17.092,16.143l3.8-9.021s-9.021,20.415-32.285,17.567c0,0,3.8,10.92.949,21.366,0,0-6.01-18.793-13.687-15.094s-2.455,16.993-2.455,16.993-22.79-17.092-10.92-50.327,66.47-39.883,71.693,2.374" transform="translate(-3.381 -3.22)" fill="#1c171e"/>
              <path id="Trazado_208723" data-name="Trazado 208723" d="M122.745,113.795c.632,1.605,1.188,3.231,1.712,4.864s1.014,3.276,1.477,4.924c.243.822.45,1.653.674,2.48s.441,1.655.64,2.487l.6,2.5.564,2.507.009.042a.572.572,0,0,1-.432.683l-.038.007c-2.613.407-5.235.779-7.892.971,2.526-.844,5.089-1.51,7.659-2.14l-.46.733-.711-2.47-.668-2.48c-.226-.826-.432-1.656-.634-2.489s-.419-1.66-.6-2.5q-.578-2.5-1.069-5.029c-.325-1.684-.618-3.377-.835-5.089" transform="translate(-8.522 -8.077)" fill="#54201c"/>
              <path id="Trazado_208724" data-name="Trazado 208724" d="M70.99,132.187a6.2,6.2,0,0,1-1.519-1.263,3.114,3.114,0,0,1-.556-.877,1.6,1.6,0,0,1-.154-.533,1.43,1.43,0,0,1,0-.583,1.477,1.477,0,0,1,.193-.563,1.633,1.633,0,0,1,.339-.469l.193-.215.219-.161c.147-.1.294-.219.447-.315l.47-.231a3.71,3.71,0,0,1,.478-.208l.972-.321-.428.52a35.261,35.261,0,0,0-.578-5.684,14.26,14.26,0,0,0-.784-2.655,4.235,4.235,0,0,0-1.47-1.976,2.181,2.181,0,0,0-1.061-.334l-.24-.009-.362.054a2.11,2.11,0,0,0-.649.145,2.877,2.877,0,0,0-1.742,1.6,7.575,7.575,0,0,0-.636,2.69,17.1,17.1,0,0,0,.05,2.906,11.671,11.671,0,0,1-.6-2.905,7.46,7.46,0,0,1,.325-3.05,3.865,3.865,0,0,1,2.274-2.4,3,3,0,0,1,.764-.213l.36-.072a3.473,3.473,0,0,1,.491-.03,3.514,3.514,0,0,1,1.726.449,4.253,4.253,0,0,1,1.267,1.171,6.788,6.788,0,0,1,.8,1.4,12.9,12.9,0,0,1,.857,2.958,21.342,21.342,0,0,1,.33,2.989,24.989,24.989,0,0,1-.014,3v.018a.559.559,0,0,1-.427.5l-.9.213a3.014,3.014,0,0,0-.425.145l-.423.149c-.129.063-.247.137-.374.2l-.19.1-.145.132c-.093.09-.22.168-.265.281a.886.886,0,0,0-.166.33.819.819,0,0,0-.059.376,1.076,1.076,0,0,0,.054.411,3.083,3.083,0,0,0,.356.827,5.878,5.878,0,0,0,.546.775,7.544,7.544,0,0,0,.654.716" transform="translate(-4.51 -8.165)" fill="#54201c"/>
              <path id="Trazado_208725" data-name="Trazado 208725" d="M112.981,108.736l-.951-.817c-.608-.5-1.449-1.206-2.492-1.918a16.944,16.944,0,0,0-3.565-1.961,11.315,11.315,0,0,0-2.02-.538,9.512,9.512,0,0,0-2.076-.051,10.174,10.174,0,0,0-2.092.45,13.641,13.641,0,0,0-2.045.836,10.863,10.863,0,0,0-.977.514c-.323.172-.638.346-.937.543l-.894.547-.827.557c-.548.343-1.028.7-1.477,1l-1.158.806c-.648.454-1.059.694-1.059.694s.15-.439.484-1.175a9.936,9.936,0,0,1,.664-1.3,14.238,14.238,0,0,1,1.021-1.6l.661-.87.8-.873a10,10,0,0,1,.914-.87,13.419,13.419,0,0,1,2.234-1.6l.639-.355c.22-.108.458-.2.688-.294a10.789,10.789,0,0,1,3.007-.773,9.811,9.811,0,0,1,5.939,1.356,11.886,11.886,0,0,1,3.635,3.426,12.809,12.809,0,0,1,1.551,3.019,7.257,7.257,0,0,1,.335,1.237" transform="translate(-6.417 -7.074)" fill="#1c171e"/>
              <path id="Trazado_208726" data-name="Trazado 208726" d="M125.741,107.643a6.532,6.532,0,0,1,.1-1.109,12.065,12.065,0,0,1,.824-2.808,11.661,11.661,0,0,1,2.366-3.546,9.408,9.408,0,0,1,2.02-1.582,8.828,8.828,0,0,1,2.593-1,8.546,8.546,0,0,1,2.811-.07,8.852,8.852,0,0,1,2.5.764,11.327,11.327,0,0,1,1.976,1.224,12.465,12.465,0,0,1,1.448,1.381,9.8,9.8,0,0,1,1.014,1.312,7.217,7.217,0,0,1,.658,1.083,11.023,11.023,0,0,1,.476,1s-.389-.154-1-.463c-.3-.162-.676-.334-1.089-.538s-.875-.431-1.375-.649c-.486-.247-1.029-.443-1.572-.678-.556-.2-1.125-.393-1.7-.536-.29-.075-.579-.111-.867-.178-.289-.023-.576-.066-.859-.084a7.231,7.231,0,0,0-1.674.128,7.587,7.587,0,0,0-1.629.533,11.181,11.181,0,0,0-1.566.891,22.567,22.567,0,0,0-2.74,2.242c-.8.745-1.471,1.424-1.949,1.909l-.768.777" transform="translate(-8.925 -6.916)" fill="#1c171e"/>
              <path id="Trazado_208727" data-name="Trazado 208727" d="M103.963,146.574s11.394-17.567,19.466.949Z" transform="translate(-7.379 -9.869)" fill="#fc6a5a"/>
              <path id="Trazado_208728" data-name="Trazado 208728" d="M118.948,147.292l4.775.233c-5.124-11.754-11.586-8.968-15.623-5.366,4.161.009,7.736,2.118,10.848,5.133" transform="translate(-7.673 -9.869)" fill="#7c130e"/>
              <path id="Trazado_208729" data-name="Trazado 208729" d="M140.263,117.414a12.456,12.456,0,0,1-.169,3.466,9.449,9.449,0,0,1-1.255,3.462,4.3,4.3,0,0,1-1.676,1.59,3.648,3.648,0,0,1-1.259.357,5.192,5.192,0,0,1-1.158-.035,4.848,4.848,0,0,1-2.194-.884,5.868,5.868,0,0,1-1.472-1.659,9.148,9.148,0,0,1-1.127-3.5,13.3,13.3,0,0,1-.069-2.521c.042-.6.1-.945.1-.945l.19.925c.124.583.3,1.414.6,2.363a10.271,10.271,0,0,0,1.406,2.959,4.011,4.011,0,0,0,2.767,1.761,4.934,4.934,0,0,0,.878.012,2.206,2.206,0,0,0,.682-.177,3.573,3.573,0,0,0,1.194-1.04,12.306,12.306,0,0,0,1.5-2.912c.353-.935.609-1.745.789-2.316s.275-.9.275-.9" transform="translate(-9.217 -8.286)" fill="#1c171e"/>
              <path id="Trazado_208730" data-name="Trazado 208730" d="M110.794,116.541a10.793,10.793,0,0,1,.058,1.173,17.107,17.107,0,0,1-.266,3.1,13.59,13.59,0,0,1-.513,2.049,9.159,9.159,0,0,1-1.033,2.215,5.289,5.289,0,0,1-2.064,1.957,4.45,4.45,0,0,1-1.551.438,6.378,6.378,0,0,1-1.424-.043,5.97,5.97,0,0,1-2.7-1.089,7.2,7.2,0,0,1-1.812-2.042,11.256,11.256,0,0,1-1.388-4.313,16.324,16.324,0,0,1-.085-3.106c.051-.743.119-1.163.119-1.163s.085.414.233,1.139.373,1.742.74,2.912a17.646,17.646,0,0,0,.689,1.826,9.586,9.586,0,0,0,1.041,1.817,4.939,4.939,0,0,0,3.407,2.17,6.155,6.155,0,0,0,1.082.015,2.743,2.743,0,0,0,.839-.218,4.407,4.407,0,0,0,1.471-1.282,15.131,15.131,0,0,0,1.849-3.586c.435-1.15.749-2.149.972-2.851s.338-1.115.338-1.115" transform="translate(-6.954 -8.213)" fill="#1c171e"/>
              <path id="Trazado_208731" data-name="Trazado 208731" d="M184.468,225.294l16.723,64.528-34.649-.467s-25.281-59.787-30.028-69.758,47.953,5.7,47.953,5.7" transform="translate(-9.668 -15.351)" fill="#76413b"/>
              <path id="Trazado_208732" data-name="Trazado 208732" d="M138.036,180.235s17.762-7.466,33.464,12.871,15.961,32.178,15.961,32.178a38.546,38.546,0,0,1-34.237,8.752c-20.851-4.633-15.188-53.8-15.188-53.8" transform="translate(-9.748 -12.698)" fill="#5d8584"/>
              <path id="Trazado_208733" data-name="Trazado 208733" d="M174.461,197.92A50.042,50.042,0,0,1,158.4,216.349a161.915,161.915,0,0,1-15.8,9.04c2.4,5.076,5.9,8.865,11,10a38.545,38.545,0,0,0,34.236-8.751s-.233-10.505-13.374-28.713" transform="translate(-10.122 -14.048)" fill="#4e7b7c"/>
              <path id="Trazado_208734" data-name="Trazado 208734" d="M138.09,180.217a21.071,21.071,0,0,1,4.508-1.241,27.451,27.451,0,0,1,4.688-.312,25.6,25.6,0,0,1,4.688.511c.766.186,1.537.355,2.3.557l2.236.779a21.691,21.691,0,0,1,2.165.96l1.072.506c.36.166.681.4,1.023.6l2.024,1.236c.648.45,1.263.948,1.892,1.427a33.994,33.994,0,0,1,3.527,3.155l.85.823.768.9,1.538,1.795c.258.31.508.576.772.922l.687.944,1.372,1.888,2.745,3.776c.9,1.273,1.669,2.657,2.5,3.988l1.224,2.014.606,1.01.533,1.049,2.129,4.2c.638,1.434,1.208,2.9,1.813,4.35.328.714.505,1.491.764,2.234.229.753.5,1.493.692,2.259l.509,2.318c.077.388.114.79.172,1.184a10.207,10.207,0,0,1,.121,1.216l.007.216-.151.14a27.125,27.125,0,0,1-2.2,1.8c-.759.553-1.529,1.086-2.324,1.581-.4.242-.79.5-1.2.727s-.811.467-1.224.685c-.828.437-1.664.854-2.524,1.219-.423.2-.858.365-1.293.535s-.863.355-1.308.5l-1.326.445c-.439.156-.9.257-1.342.389-.451.116-.891.267-1.349.353l-1.364.294c-.909.19-1.836.286-2.75.433.9-.209,1.818-.365,2.709-.616l1.337-.365c.449-.108.88-.281,1.32-.418s.881-.275,1.307-.451l1.287-.5c.432-.161.844-.372,1.265-.554s.841-.374,1.247-.591c.825-.407,1.632-.845,2.432-1.3.4-.226.787-.473,1.181-.709s.769-.5,1.155-.747c.763-.508,1.5-1.054,2.223-1.614a26.891,26.891,0,0,0,2.046-1.786l-.143.357a9.573,9.573,0,0,0-.147-1.1c-.068-.374-.113-.749-.2-1.12l-.561-2.226c-.214-.736-.475-1.461-.71-2.192-.26-.724-.437-1.473-.767-2.174-.61-1.415-1.182-2.847-1.823-4.247l-2.138-4.109-.534-1.027-.606-.985-1.221-1.963c-.832-1.3-1.588-2.635-2.461-3.919l-2.707-3.8-1.353-1.9-.677-.95c-.206-.274-.482-.582-.72-.872l-1.482-1.766-.74-.883-.818-.807a32.719,32.719,0,0,0-3.393-3.1c-.6-.472-1.178-.982-1.794-1.435l-1.923-1.255c-.326-.2-.632-.439-.974-.609l-1.024-.521a20.847,20.847,0,0,0-2.07-.995l-2.148-.824c-.734-.218-1.479-.405-2.219-.609a28.99,28.99,0,0,0-4.554-.7,27.109,27.109,0,0,0-4.627.076,23.349,23.349,0,0,0-4.547.957" transform="translate(-9.801 -12.68)" fill="#185451"/>
              <path id="Trazado_208735" data-name="Trazado 208735" d="M228.429,191.925c1.38-9.461-4.637-5.008-4.637-5.008,1.839-10.072-5.126-2.323-5.126-2.323,14.043-52.248-7.721-1.409-7.721-1.409-18.844-7.5-38.335,102.247-38.335,102.247h33.909c5.041-17.9,12.2-66.752,12.2-66.752,5.119-1.707,7.762-4.3,9.769-8.044.866-3.093,1.555-5.569,2.01-7.232,4.16-15.2-2.069-11.478-2.069-11.478" transform="translate(-12.251 -11.427)" fill="#965450"/>
              <path id="Trazado_208736" data-name="Trazado 208736" d="M206.519,285.389l1.957-8.257,1.653-8.32c.553-2.771,1.005-5.566,1.512-8.347s.982-5.569,1.431-8.361l1.382-8.37,1.333-8.378c.862-5.59,1.715-11.182,2.519-16.778a.415.415,0,0,1,.262-.329l.02-.007,1.491-.57c.5-.184.96-.451,1.441-.672a13.171,13.171,0,0,0,1.369-.792,11.675,11.675,0,0,0,1.276-.925,12.408,12.408,0,0,0,1.162-1.059c.382-.36.687-.794,1.035-1.186.175-.2.307-.428.462-.641l.449-.65c.273-.454.531-.918.8-1.375l-.039.1,1.466-5.316.368-1.329c.126-.444.234-.867.346-1.323.213-.891.475-1.787.627-2.672l.263-1.329.183-1.341a10.857,10.857,0,0,0,.112-1.337l.033-.667-.039-.651a6.224,6.224,0,0,0-.19-1.253c-.062-.19-.152-.357-.222-.538a3.5,3.5,0,0,0-.308-.422,1.353,1.353,0,0,0-.9-.3,2.813,2.813,0,0,0-1.076.328.518.518,0,0,1-.764-.51l.131-1.225a10.677,10.677,0,0,0,.05-1.215,7.286,7.286,0,0,0-.08-1.182,2.407,2.407,0,0,0-.125-.548,1.55,1.55,0,0,0-.187-.5c-.087-.138-.143-.319-.269-.4l-.158-.161a1.21,1.21,0,0,0-.192-.1,1.073,1.073,0,0,0-.43-.122,2.679,2.679,0,0,0-.5.015,4.356,4.356,0,0,0-1.061.343,6.159,6.159,0,0,0-1,.574.525.525,0,0,1-.734-.117.53.53,0,0,1-.092-.4,17.2,17.2,0,0,0,.291-2.635,5.724,5.724,0,0,0-.02-.635,3.321,3.321,0,0,0-.095-.585,1.333,1.333,0,0,0-.191-.456.454.454,0,0,0-.255-.206,1.452,1.452,0,0,0-.936.19,6.439,6.439,0,0,0-1.066.672,15.39,15.39,0,0,0-1.939,1.786l0,0a.54.54,0,0,1-.918-.505c1.065-4,2.1-8.009,3.019-12.038.457-2.014.888-4.035,1.228-6.059.166-1.011.322-2.027.395-3.026a7.95,7.95,0,0,0,0-1.435,2.207,2.207,0,0,0-.089-.381c.029.063.184.049.156.058.008-.016-.083.045-.142.081a10.349,10.349,0,0,0-1.767,2.284c-.542.861-1.047,1.757-1.541,2.659-.985,1.808-1.911,3.655-2.814,5.513-1.8,3.72-3.514,7.492-5.162,11.283l0,0a.522.522,0,0,1-.674.276,4.51,4.51,0,0,0-3.122-.1,8.407,8.407,0,0,0-2.828,1.717,24.125,24.125,0,0,0-4.326,5.394,83.314,83.314,0,0,0-6.156,12.657,269.1,269.1,0,0,0-8.87,26.872c-2.56,9.093-4.808,18.274-6.96,27.476-2.128,9.208-4.108,18.453-5.878,27.74,1.626-9.313,3.462-18.59,5.451-27.835s4.2-18.445,6.672-27.577q1.856-6.851,3.977-13.628c1.432-4.512,2.952-9,4.709-13.407a84.261,84.261,0,0,1,6.2-12.832,25.1,25.1,0,0,1,4.5-5.635,9.4,9.4,0,0,1,3.189-1.932,5.565,5.565,0,0,1,3.826.111l-.676.281c1.644-3.815,3.348-7.6,5.15-11.342.9-1.872,1.828-3.733,2.821-5.568.5-.917,1.009-1.828,1.567-2.723a10.838,10.838,0,0,1,2.043-2.595,1.583,1.583,0,0,1,.543-.27.886.886,0,0,1,.441-.014.915.915,0,0,1,.434.224,1.333,1.333,0,0,1,.334.571,2.535,2.535,0,0,1,.106.478,9.045,9.045,0,0,1,.014,1.668c-.074,1.068-.233,2.1-.407,3.135-.353,2.062-.793,4.094-1.258,6.12-.938,4.049-1.986,8.064-3.064,12.07l-.922-.5a16.5,16.5,0,0,1,2.1-1.919,7.434,7.434,0,0,1,1.255-.781,3.685,3.685,0,0,1,.763-.267,1.923,1.923,0,0,1,.946.027,1.525,1.525,0,0,1,.806.611,2.345,2.345,0,0,1,.346.8,4.395,4.395,0,0,1,.124.765,7.015,7.015,0,0,1,.021.736,18.231,18.231,0,0,1-.316,2.811l-.826-.515a7.083,7.083,0,0,1,1.188-.681,5.075,5.075,0,0,1,.645-.252,4.894,4.894,0,0,1,.695-.171,3.731,3.731,0,0,1,.757-.02,2.128,2.128,0,0,1,.775.219,2.509,2.509,0,0,1,.36.2l.294.282a2.118,2.118,0,0,1,.437.635,2.375,2.375,0,0,1,.257.677,3.339,3.339,0,0,1,.153.68,8.277,8.277,0,0,1,.089,1.336,11.717,11.717,0,0,1-.058,1.308l-.142,1.288-.764-.51a3.767,3.767,0,0,1,1.543-.467,2.37,2.37,0,0,1,1.643.565,3.915,3.915,0,0,1,.508.68c.1.243.224.49.3.736a7.212,7.212,0,0,1,.226,1.467l.039.725-.036.711a11.977,11.977,0,0,1-.122,1.409l-.2,1.392-.276,1.375c-.165.928-.424,1.8-.64,2.7-.109.437-.229.9-.356,1.344l-.372,1.329-1.488,5.314,0,.017a.384.384,0,0,1-.034.08c-.282.477-.556.958-.846,1.43l-.479.684c-.166.223-.308.465-.494.673-.373.416-.7.87-1.112,1.252a13.275,13.275,0,0,1-1.248,1.119,12.513,12.513,0,0,1-1.363.97,13.9,13.9,0,0,1-1.45.822c-.5.228-.991.5-1.511.689l-1.551.577.281-.335c-.854,5.6-1.755,11.181-2.665,16.766l-1.407,8.37c-.467,2.79-.975,5.574-1.475,8.358s-1.009,5.568-1.559,8.344-1.046,5.56-1.643,8.328l-1.782,8.3Z" transform="translate(-12.251 -11.385)" fill="#54201c"/>
              <path id="Trazado_208737" data-name="Trazado 208737" d="M221.639,186.4s-18.03,34.176,3.171,5.435c0,0-18.641,33.718,4.149,3.88,0,0-16.347,26.851,2.255,6.656" transform="translate(-15.224 -13.23)" fill="#965450"/>
              <path id="Trazado_208738" data-name="Trazado 208738" d="M221.612,186.4c-1.234,2.552-2.457,5.108-3.616,7.69q-.868,1.938-1.669,3.9a30.1,30.1,0,0,0-1.385,3.959,3.571,3.571,0,0,0-.118.939c.007.048.018.128.026.117,0,.01,0,.007-.015-.016a.129.129,0,0,1-.039-.021.972.972,0,0,0,.247-.112,8.708,8.708,0,0,0,1.5-1.342c.953-1.017,1.842-2.115,2.719-3.218q2.609-3.332,5.116-6.76a.507.507,0,0,1,.856.54l0,.007c-1.37,2.527-2.7,5.086-3.963,7.669-.629,1.292-1.241,2.592-1.8,3.9-.28.657-.551,1.316-.8,1.976a7.508,7.508,0,0,0-.5,1.9.63.63,0,0,0,0,.112c0-.016,0,0-.02-.035-.019-.049-.071-.059-.106-.093-.214-.064-.093,0,.02-.086a4.292,4.292,0,0,0,.766-.552c.52-.446,1.019-.955,1.509-1.469.976-1.037,1.914-2.126,2.835-3.227,1.84-2.208,3.621-4.475,5.383-6.756l0,0a.479.479,0,0,1,.787.545c-1.2,1.935-2.364,3.9-3.475,5.892-.554,1-1.1,2-1.6,3.015a28.06,28.06,0,0,0-1.372,3.1,3.856,3.856,0,0,0-.3,1.516c.02.1.04.11.071.127s.149.01.256-.013a3.325,3.325,0,0,0,.711-.337,20.349,20.349,0,0,0,2.656-2.1c1.69-1.532,3.3-3.161,4.9-4.791-1.5,1.728-3.035,3.429-4.674,5.037a20.753,20.753,0,0,1-2.627,2.264,3.8,3.8,0,0,1-.82.426.956.956,0,0,1-.585.022.68.68,0,0,1-.434-.509,4.014,4.014,0,0,1,.27-1.834,28.711,28.711,0,0,1,1.321-3.209c.49-1.042,1.008-2.067,1.539-3.084q1.6-3.05,3.345-6.018l.791.541c-1.747,2.3-3.513,4.59-5.348,6.833-.92,1.119-1.857,2.227-2.85,3.3a21.835,21.835,0,0,1-1.579,1.563,5.2,5.2,0,0,1-.987.71,1.609,1.609,0,0,1-.369.143.917.917,0,0,1-.64-.057.794.794,0,0,1-.306-.266,1.108,1.108,0,0,1-.13-.281,1.49,1.49,0,0,1-.051-.423,8.081,8.081,0,0,1,.552-2.282c.247-.7.53-1.371.823-2.039.586-1.334,1.215-2.641,1.861-3.938,1.294-2.594,2.649-5.145,4.051-7.679l.851.545c-1.7,2.271-3.4,4.547-5.228,6.731-.915,1.092-1.839,2.176-2.85,3.2a9.149,9.149,0,0,1-1.7,1.434,1.145,1.145,0,0,1-.748.182.615.615,0,0,1-.452-.347.98.98,0,0,1-.1-.394,4.1,4.1,0,0,1,.164-1.159,30.238,30.238,0,0,1,1.521-4.021c.58-1.3,1.2-2.575,1.835-3.846,1.271-2.537,2.589-5.047,3.982-7.518" transform="translate(-15.197 -13.23)" fill="#54201c"/>
              <path id="Trazado_208739" data-name="Trazado 208739" d="M208.277,217.332s9.253-6.984-.721-18.865c0,0,20.62,23.883,4.828-7.444" transform="translate(-14.732 -13.558)" fill="#965450"/>
              <path id="Trazado_208740" data-name="Trazado 208740" d="M208.235,217.332a11.772,11.772,0,0,0,1.7-2.009c.225-.375.473-.737.659-1.132a9.035,9.035,0,0,0,.518-1.194,7.118,7.118,0,0,0,.366-1.241,6.613,6.613,0,0,0,.225-1.267,6.8,6.8,0,0,0,.068-1.281,11.738,11.738,0,0,0-.082-1.28l-.232-1.263c-.095-.416-.26-.818-.386-1.226l-.2-.609c-.082-.2-.185-.389-.276-.583l-.551-1.166c-.19-.385-.447-.739-.666-1.109s-.45-.737-.69-1.1l-1.6-2.055-.008-.011a.547.547,0,0,1,.842-.7c1.707,1.93,3.5,3.813,5.36,5.582a22.964,22.964,0,0,0,2.937,2.4,5.068,5.068,0,0,0,.772.426,1.24,1.24,0,0,0,.609.134c.043-.011.127-.064.171-.335a3.592,3.592,0,0,0-.009-.839,19.686,19.686,0,0,0-.961-3.668c-.42-1.219-.894-2.425-1.389-3.623l-1.512-3.591-1.564-3.576q.973,1.695,1.88,3.424c.6,1.154,1.217,2.306,1.763,3.491s1.09,2.374,1.577,3.593a18.506,18.506,0,0,1,1.171,3.823,4.559,4.559,0,0,1,.032,1.106,1.8,1.8,0,0,1-.213.651,1.19,1.19,0,0,1-.662.526,2.064,2.064,0,0,1-1.288-.147,6.064,6.064,0,0,1-.949-.489,22.389,22.389,0,0,1-3.123-2.494,72.061,72.061,0,0,1-5.431-5.683l.832-.709,1.619,2.167c.243.381.465.778.7,1.166s.478.769.67,1.181l.545,1.251c.086.21.183.415.26.629l.185.66c.114.442.266.873.347,1.322l.183,1.357a12.219,12.219,0,0,1,.022,1.368,7.343,7.343,0,0,1-.136,1.358,6.776,6.776,0,0,1-.3,1.328,7.638,7.638,0,0,1-.484,1.268,9.561,9.561,0,0,1-.632,1.193c-.223.39-.506.742-.765,1.106a10.243,10.243,0,0,1-1.906,1.862" transform="translate(-14.69 -13.558)" fill="#54201c"/>
              <path id="Trazado_208741" data-name="Trazado 208741" d="M128.891,180.2s6.636,34.921-19.047,37.66c-32.466,3.463-41.122-38.526-41.122-38.526S50.108,165.052,36.689,181.5s3.737,87.94,17.155,104.823H160.3s17.943-115.212-31.4-106.121" transform="translate(-2.258 -12.321)" fill="#5d8584"/>
              <path id="Trazado_208742" data-name="Trazado 208742" d="M158.463,276.444c-9.441.6-18.711-1.15-27.852-3.37-17.755-4.311-35.042-11.138-48.633-23.673-13.963-12.878-24.727-28.724-32.625-45.954-3.558-7.761-7.4-15.638-10.649-23.715a26.183,26.183,0,0,0-2.015,2.206c-13.419,16.449,3.685,84.591,17.156,104.823h106.45a88.744,88.744,0,0,0,1.472-10.788c-1.26.164-2.031.39-3.3.471" transform="translate(-2.258 -12.757)" fill="#4e7b7c"/>
              <path id="Trazado_208743" data-name="Trazado 208743" d="M169.639,287.757s.146-1.485.4-4.082c.272-2.6.6-6.306.98-10.759.213-2.224.355-4.641.539-7.193.154-2.553.285-5.248.425-8.033.112-2.787.229-5.666.238-8.593.076-2.927-.032-5.9-.064-8.87-.13-2.967-.165-5.942-.426-8.855-.164-2.921-.514-5.776-.83-8.542-.137-1.386-.422-2.726-.594-4.055-.209-1.322-.352-2.629-.632-3.874-.507-2.5-.927-4.88-1.543-7.022-.278-1.079-.544-2.114-.8-3.1-.279-.976-.59-1.889-.857-2.755-.544-1.728-1-3.245-1.525-4.439-.945-2.432-1.486-3.821-1.486-3.821l1.73,3.722c.584,1.173,1.12,2.667,1.757,4.375.313.856.674,1.759,1,2.727l.91,3.089c.688,2.141,1.185,4.522,1.775,7.028.322,1.249.507,2.558.759,3.885.229,1.331.5,2.688.662,4.081.347,2.785.729,5.662.925,8.6.292,2.934.364,5.926.518,8.915,0,2.991.08,5.984-.026,8.925-.039,2.944-.187,5.835-.328,8.633s-.386,5.5-.617,8.051c-.264,2.554-.481,4.969-.764,7.192-.251,2.224-.516,4.26-.788,6.058s-.477,3.37-.687,4.659l-.661,4.048" transform="translate(-11.603 -13.753)" fill="#185451"/>
              <path id="Trazado_208744" data-name="Trazado 208744" d="M32.194,196.127s.013,1.493.034,4.105c0,.653.007,1.376.011,2.163.028.785.058,1.635.09,2.543.055,1.815.134,3.859.285,6.089.071,1.115.124,2.277.217,3.476q.167,1.8.347,3.711.091.955.183,1.935l.254,1.975q.244,2,.5,4.076c.431,2.755.812,5.612,1.4,8.481.5,2.885,1.2,5.776,1.84,8.678.731,2.88,1.4,5.779,2.248,8.58.763,2.827,1.706,5.551,2.551,8.208l1.38,3.868q.333.95.657,1.88.355.917.7,1.812l1.346,3.475,1.356,3.209c.859,2.062,1.7,3.929,2.459,5.581q.562,1.242,1.051,2.318c.346.706.662,1.355.949,1.941l1.79,3.694-2.024-3.573-1.049-1.893q-.543-1.049-1.171-2.266l-1.331-2.579c-.463-.912-.891-1.9-1.369-2.912l-1.463-3.18-1.461-3.449-.763-1.8-.719-1.869c-.49-1.259-.965-2.555-1.448-3.872-.88-2.665-1.856-5.4-2.654-8.238-.884-2.815-1.591-5.726-2.352-8.624-.617-2.932-1.293-5.851-1.764-8.763-.559-2.9-.913-5.778-1.319-8.554q-.244-2.092-.437-4.112-.1-1.008-.193-1.994-.061-.988-.123-1.951c-.081-1.283-.158-2.532-.234-3.738-.056-1.209-.073-2.377-.11-3.5s-.081-2.194-.072-3.217.031-1.993.045-2.9.027-1.763.039-2.551c.036-.786.069-1.509.1-2.161.144-2.609.227-4.1.227-4.1" transform="translate(-2.256 -13.921)" fill="#185451"/>
              <path id="Trazado_208745" data-name="Trazado 208745" d="M13.971,223.631,0,265.246v23.99H28.825s28.352-61.331,33.1-71.3-47.953,5.7-47.953,5.7" transform="translate(0 -15.233)" fill="#965450"/>
              <path id="Trazado_208746" data-name="Trazado 208746" d="M44.1,253.173q.829.3,1.669.583c7.372-15.567,14.793-31.231,16.979-35.822,4.748-9.97-47.953,5.7-47.953,5.7l-3.14,9.353c8.54,9.492,20.717,16,32.446,20.188" transform="translate(-0.827 -15.233)" fill="#76413b"/>
              <path id="Trazado_208747" data-name="Trazado 208747" d="M27.778,290.057l6.829-14.927c2.265-4.981,4.581-9.938,6.885-14.9l6.916-14.886L55.4,230.492l3.495-7.426,1.747-3.712c.522-1.224,1.459-2.582.841-3.187a2.782,2.782,0,0,0-1.473-.726,10.96,10.96,0,0,0-1.926-.251,32.544,32.544,0,0,0-4.02.089c-2.7.21-5.394.614-8.077,1.078-5.369.94-10.7,2.147-16.005,3.449s-10.586,2.725-15.841,4.208l.3-.286-6.89,20-7,19.966,6.465-20.146,6.577-20.109.072-.218.225-.068c5.247-1.589,10.53-3.029,15.844-4.365s10.656-2.571,16.062-3.545c2.7-.48,5.423-.9,8.181-1.132a31.094,31.094,0,0,1,4.178-.1,12.123,12.123,0,0,1,2.135.292,3.807,3.807,0,0,1,2.1,1.134,2,2,0,0,1,.453,1.312,3.111,3.111,0,0,1-.278,1.2c-.307.692-.593,1.255-.889,1.89l-1.766,3.7-3.531,7.408L49.306,245.77l-7.138,14.781c-2.38,4.926-4.747,9.859-7.167,14.766Z" transform="translate(-0.039 -15.188)" fill="#54201c"/>
              <path id="Trazado_208748" data-name="Trazado 208748" d="M66.986,179.1S39.5,152.6,20.666,191.524c-7.122,14.719-13.294,28.962-13.294,28.962s20.416,21.84,45.1,22.315a162.543,162.543,0,0,0,10.58-24.965,115.537,115.537,0,0,0,3.958-15.425c1.43-8.013,1.774-16.153-.029-23.308" transform="translate(-0.523 -12.087)" fill="#5d8584"/>
              <path id="Trazado_208749" data-name="Trazado 208749" d="M63.372,216.645l-1.1,3.366c-.364,1.124-.731,2.246-1.154,3.35l-1.224,3.328c-.427,1.1-.879,2.194-1.316,3.292s-.9,2.186-1.373,3.269-.934,2.173-1.438,3.242c-.978,2.153-2.007,4.281-3.1,6.386l-.076.146-.163-.008c-1.078-.052-2.161-.044-3.234-.165-1.079-.075-2.149-.222-3.218-.378s-2.13-.365-3.182-.608l-1.577-.374-1.561-.436a64.348,64.348,0,0,1-11.973-4.889,83.948,83.948,0,0,1-10.941-6.9q-2.6-1.923-5.069-4.026c-1.643-1.407-3.233-2.85-4.761-4.418l-.259-.267.153-.348,2.266-5.153,2.3-5.138c1.567-3.409,3.077-6.843,4.692-10.231l2.4-5.091c.8-1.689,1.589-3.412,2.44-5.081a54.45,54.45,0,0,1,6.136-9.571,30.934,30.934,0,0,1,8.614-7.507A22.164,22.164,0,0,1,41,170.263a21.448,21.448,0,0,1,5.744-.678,27.483,27.483,0,0,1,11.113,2.707,37.685,37.685,0,0,1,4.985,2.795,35.907,35.907,0,0,1,4.529,3.516l.142.131.04.212a59.625,59.625,0,0,0,1.681,6.562q1.013,3.246,2.34,6.381a55.055,55.055,0,0,0,6.69,11.768,41.686,41.686,0,0,0,4.5,5.035,33.2,33.2,0,0,0,5.347,4.1,29.621,29.621,0,0,0,6.1,2.832,30.461,30.461,0,0,0,6.6,1.392,35.07,35.07,0,0,0,6.762-.012,24.543,24.543,0,0,0,6.543-1.567,18.915,18.915,0,0,0,5.691-3.533,20.283,20.283,0,0,0,4.156-5.291,33.246,33.246,0,0,0,3.646-13.036,53.519,53.519,0,0,0,.166-6.84,52.8,52.8,0,0,0-.674-6.817,53.053,53.053,0,0,1,.805,6.812,53.606,53.606,0,0,1-.034,6.867,33.651,33.651,0,0,1-3.445,13.266,20.881,20.881,0,0,1-4.174,5.527,19.392,19.392,0,0,1-5.857,3.733,25.3,25.3,0,0,1-6.735,1.692,35.8,35.8,0,0,1-6.933.086,31.423,31.423,0,0,1-6.812-1.362,30.584,30.584,0,0,1-6.342-2.861,34.314,34.314,0,0,1-5.566-4.174,40.022,40.022,0,0,1-4.666-5.147,56.238,56.238,0,0,1-6.878-12q-1.363-3.181-2.4-6.485a61.047,61.047,0,0,1-1.742-6.715l.182.343a34.857,34.857,0,0,0-4.36-3.357,36.294,36.294,0,0,0-4.826-2.683,26.184,26.184,0,0,0-10.59-2.549,20.058,20.058,0,0,0-5.388.655A21.245,21.245,0,0,0,36.3,173.6a29.616,29.616,0,0,0-8.266,7.163,53.2,53.2,0,0,0-6.014,9.312c-.858,1.669-1.634,3.354-2.446,5.05L17.156,200.2c-1.624,3.376-3.144,6.8-4.721,10.2l-2.31,5.124-2.283,5.135-.106-.615c1.452,1.521,3.027,2.984,4.629,4.384s3.266,2.748,4.968,4.034A83.012,83.012,0,0,0,28.082,235.4a63.517,63.517,0,0,0,11.774,4.954l1.535.447,1.551.386c1.035.25,2.083.453,3.131.643,1.052.173,2.1.338,3.167.432,1.058.14,2.126.151,3.189.224l-.238.137c1.124-2.063,2.192-4.171,3.208-6.3.523-1.057,1.007-2.133,1.5-3.207s.981-2.146,1.432-3.238.929-2.169,1.376-3.262l1.285-3.3c.443-1.094.831-2.21,1.216-3.326Z" transform="translate(-0.472 -12.036)" fill="#185451"/>
            </g>
          </g>
        </g>
      </g>
    </g>
  </g>
</svg>
