<svg id="Grupo_983615" data-name="Grupo 983615" xmlns="http://www.w3.org/2000/svg" xmlns:xlink="http://www.w3.org/1999/xlink" width="400" height="299.945" viewBox="0 0 400 299.945">
  <defs>
    <clipPath id="clip-path">
      <rect id="Rectángulo_338891" data-name="Rectángulo 338891" width="365.508" height="299.945" fill="none"/>
    </clipPath>
    <clipPath id="clip-path-3">
      <rect id="Rectángulo_338855" data-name="Rectángulo 338855" width="81.341" height="87.862" fill="none"/>
    </clipPath>
    <clipPath id="clip-path-4">
      <rect id="Rectángulo_338856" data-name="Rectángulo 338856" width="63.901" height="75.323" fill="none"/>
    </clipPath>
    <clipPath id="clip-path-5">
      <rect id="Rectángulo_338858" data-name="Rectángulo 338858" width="111.384" height="84.459" fill="none"/>
    </clipPath>
    <clipPath id="clip-path-6">
      <rect id="Rectángulo_338859" data-name="Rectángulo 338859" width="82.678" height="79.248" fill="none"/>
    </clipPath>
    <clipPath id="clip-path-7">
      <rect id="Rectángulo_338860" data-name="Rectángulo 338860" width="29.072" height="33.306" fill="none"/>
    </clipPath>
    <clipPath id="clip-path-8">
      <rect id="Rectángulo_338861" data-name="Rectángulo 338861" width="27.729" height="35.74" fill="none"/>
    </clipPath>
    <clipPath id="clip-path-9">
      <rect id="Rectángulo_338862" data-name="Rectángulo 338862" width="31.447" height="9.007" fill="none"/>
    </clipPath>
    <clipPath id="clip-path-10">
      <rect id="Rectángulo_338863" data-name="Rectángulo 338863" width="17.119" height="21.714" fill="none"/>
    </clipPath>
    <clipPath id="clip-path-12">
      <rect id="Rectángulo_338865" data-name="Rectángulo 338865" width="26.027" height="31.688" fill="none"/>
    </clipPath>
    <clipPath id="clip-path-13">
      <rect id="Rectángulo_338868" data-name="Rectángulo 338868" width="65.022" height="5.393" fill="none"/>
    </clipPath>
    <clipPath id="clip-path-14">
      <rect id="Rectángulo_338870" data-name="Rectángulo 338870" width="32.792" height="26.654" fill="none"/>
    </clipPath>
    <clipPath id="clip-path-15">
      <rect id="Rectángulo_338871" data-name="Rectángulo 338871" width="25.25" height="17.731" fill="none"/>
    </clipPath>
    <clipPath id="clip-path-16">
      <rect id="Rectángulo_338872" data-name="Rectángulo 338872" width="42.229" height="35.007" fill="none"/>
    </clipPath>
    <clipPath id="clip-path-17">
      <rect id="Rectángulo_338873" data-name="Rectángulo 338873" width="37.251" height="52.691" fill="none"/>
    </clipPath>
    <clipPath id="clip-path-18">
      <rect id="Rectángulo_338874" data-name="Rectángulo 338874" width="4.409" height="13.743" fill="none"/>
    </clipPath>
    <clipPath id="clip-path-19">
      <rect id="Rectángulo_338875" data-name="Rectángulo 338875" width="16.478" height="16.478" fill="none"/>
    </clipPath>
    <clipPath id="clip-path-20">
      <rect id="Rectángulo_338876" data-name="Rectángulo 338876" width="11.139" height="16.478" fill="none"/>
    </clipPath>
    <clipPath id="clip-path-21">
      <rect id="Rectángulo_338877" data-name="Rectángulo 338877" width="16.18" height="8.062" fill="none"/>
    </clipPath>
    <clipPath id="clip-path-22">
      <rect id="Rectángulo_338878" data-name="Rectángulo 338878" width="83.357" height="30.167" fill="none"/>
    </clipPath>
    <clipPath id="clip-path-23">
      <rect id="Rectángulo_338879" data-name="Rectángulo 338879" width="27.203" height="29.208" fill="none"/>
    </clipPath>
    <clipPath id="clip-path-24">
      <rect id="Rectángulo_338880" data-name="Rectángulo 338880" width="28.576" height="13.976" fill="none"/>
    </clipPath>
    <clipPath id="clip-path-25">
      <rect id="Rectángulo_338881" data-name="Rectángulo 338881" width="25.936" height="53.423" fill="none"/>
    </clipPath>
    <clipPath id="clip-path-26">
      <rect id="Rectángulo_338882" data-name="Rectángulo 338882" width="2.146" height="40.348" fill="none"/>
    </clipPath>
    <clipPath id="clip-path-27">
      <rect id="Rectángulo_338883" data-name="Rectángulo 338883" width="31.927" height="33.653" fill="none"/>
    </clipPath>
    <clipPath id="clip-path-28">
      <rect id="Rectángulo_338884" data-name="Rectángulo 338884" width="7.539" height="12.504" fill="none"/>
    </clipPath>
    <clipPath id="clip-path-29">
      <rect id="Rectángulo_338885" data-name="Rectángulo 338885" width="44.775" height="77.388" fill="none"/>
    </clipPath>
    <clipPath id="clip-path-30">
      <rect id="Rectángulo_338886" data-name="Rectángulo 338886" width="75.426" height="103.443" fill="none"/>
    </clipPath>
    <clipPath id="clip-path-31">
      <rect id="Rectángulo_338887" data-name="Rectángulo 338887" width="92.6" height="68.031" fill="none"/>
    </clipPath>
    <clipPath id="clip-path-32">
      <rect id="Rectángulo_338888" data-name="Rectángulo 338888" width="16.865" height="20.976" fill="none"/>
    </clipPath>
    <clipPath id="clip-path-33">
      <rect id="Rectángulo_338889" data-name="Rectángulo 338889" width="14.805" height="19.116" fill="none"/>
    </clipPath>
  </defs>
  <rect id="Rectángulo_338750" data-name="Rectángulo 338750" width="400" height="243" rx="9" transform="translate(0 44)" fill="#dddeff"/>
  <g id="Grupo_983614" data-name="Grupo 983614" transform="translate(11.492 0)">
    <g id="Grupo_983613" data-name="Grupo 983613" clip-path="url(#clip-path)">
      <g id="Grupo_983612" data-name="Grupo 983612">
        <g id="Grupo_983611" data-name="Grupo 983611" clip-path="url(#clip-path)">
          <g id="Grupo_983520" data-name="Grupo 983520" transform="translate(275.331 46.181)" opacity="0.6" style="mix-blend-mode: multiply;isolation: isolate">
            <g id="Grupo_983519" data-name="Grupo 983519">
              <g id="Grupo_983518" data-name="Grupo 983518" clip-path="url(#clip-path-3)">
                <path id="Trazado_209005" data-name="Trazado 209005" d="M25.534,188.644H94.372a6.251,6.251,0,0,0,6.251-6.251v-75.36a6.251,6.251,0,0,0-6.251-6.251H25.534a6.251,6.251,0,0,0-6.251,6.251v75.36a6.251,6.251,0,0,0,6.251,6.251" transform="translate(-19.283 -100.782)" fill="#eddeff"/>
              </g>
            </g>
          </g>
          <path id="Trazado_209006" data-name="Trazado 209006" d="M34.609,180.445h68.838a6.251,6.251,0,0,0,6.251-6.251V98.834a6.251,6.251,0,0,0-6.251-6.251H34.609a6.251,6.251,0,0,0-6.252,6.251v75.36a6.251,6.251,0,0,0,6.252,6.251" transform="translate(242.816 -50.159)" fill="#a6abff"/>
          <path id="Trazado_209007" data-name="Trazado 209007" d="M48.892,182.033H67.814a5.509,5.509,0,0,0,5.509-5.509V117.087a5.509,5.509,0,0,0-5.509-5.509H48.892a5.509,5.509,0,0,0-5.509,5.509v59.436a5.509,5.509,0,0,0,5.509,5.509" transform="translate(272.306 -60.45)" fill="#3f3fd8"/>
          <path id="Trazado_209008" data-name="Trazado 209008" d="M124.458,122.511h29.428a.643.643,0,0,0,0-1.287H124.458a.643.643,0,0,0,0,1.287" transform="translate(154.244 -65.676)" fill="#3f3fd8"/>
          <path id="Trazado_209009" data-name="Trazado 209009" d="M124.458,141.035h29.428a.643.643,0,0,0,0-1.287H124.458a.643.643,0,0,0,0,1.287" transform="translate(154.244 -75.712)" fill="#3f3fd8"/>
          <path id="Trazado_209010" data-name="Trazado 209010" d="M124.458,159.561h29.428a.643.643,0,0,0,0-1.287H124.458a.643.643,0,0,0,0,1.287" transform="translate(154.244 -85.749)" fill="#3f3fd8"/>
          <g id="Grupo_983523" data-name="Grupo 983523" transform="translate(103.232 88.231)" opacity="0.6" style="mix-blend-mode: multiply;isolation: isolate">
            <g id="Grupo_983522" data-name="Grupo 983522">
              <g id="Grupo_983521" data-name="Grupo 983521" clip-path="url(#clip-path-4)">
                <path id="Trazado_209011" data-name="Trazado 209011" d="M438.144,267.872H491.6a5.224,5.224,0,0,0,5.223-5.223V197.772a5.223,5.223,0,0,0-5.223-5.223H438.144a5.223,5.223,0,0,0-5.223,5.223v64.877a5.223,5.223,0,0,0,5.223,5.223" transform="translate(-432.921 -192.549)" fill="#eddeff"/>
              </g>
            </g>
          </g>
          <path id="Trazado_209012" data-name="Trazado 209012" d="M448.577,258.466h53.454a5.224,5.224,0,0,0,5.223-5.223V188.366a5.223,5.223,0,0,0-5.223-5.223H448.577a5.223,5.223,0,0,0-5.223,5.223v64.877a5.224,5.224,0,0,0,5.223,5.223" transform="translate(-344.903 -99.222)" fill="#a6bbff"/>
          <path id="Trazado_209013" data-name="Trazado 209013" d="M464.148,242.488h12.295a3.8,3.8,0,0,0,3.8-3.8v-28.8a3.8,3.8,0,0,0-3.8-3.8H464.148a3.8,3.8,0,0,0-3.8,3.8v28.8a3.8,3.8,0,0,0,3.8,3.8" transform="translate(-325.68 -111.651)" fill="#6b8dfc"/>
          <path id="Trazado_209014" data-name="Trazado 209014" d="M526.188,242.488h12.295a3.8,3.8,0,0,0,3.8-3.8v-28.8a3.8,3.8,0,0,0-3.8-3.8H526.188a3.8,3.8,0,0,0-3.8,3.8v28.8a3.8,3.8,0,0,0,3.8,3.8" transform="translate(-416.148 -111.651)" fill="#6b8dfc"/>
          <path id="Trazado_209015" data-name="Trazado 209015" d="M469.1,299h39.042a1.166,1.166,0,0,0,0-2.331H469.1a1.166,1.166,0,0,0,0,2.331" transform="translate(-358.22 -160.728)" fill="#6b8dfc"/>
          <path id="Trazado_209016" data-name="Trazado 209016" d="M470.976,311.476H508.3a1.166,1.166,0,0,0,0-2.331H470.976a1.166,1.166,0,0,0,0,2.331" transform="translate(-359.236 -167.487)" fill="#6b8dfc"/>
          <path id="Trazado_209017" data-name="Trazado 209017" d="M477.1,323.347h31.708a1.166,1.166,0,1,0,0-2.331H477.1a1.166,1.166,0,0,0,0,2.331" transform="translate(-362.555 -173.918)" fill="#6b8dfc"/>
          <rect id="Rectángulo_338857" data-name="Rectángulo 338857" width="317.73" height="23.383" transform="translate(47.778 276.562)" fill="#09066a"/>
          <path id="Trazado_209018" data-name="Trazado 209018" d="M0,587.15H317.73a13.872,13.872,0,0,0-13.871-13.871H13.871A13.871,13.871,0,0,0,0,587.15" transform="translate(47.778 -310.588)" fill="#3f3fd8"/>
          <g id="Grupo_983526" data-name="Grupo 983526" transform="translate(213.36 87.821)" opacity="0.6" style="mix-blend-mode: multiply;isolation: isolate">
            <g id="Grupo_983525" data-name="Grupo 983525">
              <g id="Grupo_983524" data-name="Grupo 983524" clip-path="url(#clip-path-5)">
                <path id="Trazado_209019" data-name="Trazado 209019" d="M99.279,276.113h90.75A10.317,10.317,0,0,0,200.346,265.8V201.971a10.317,10.317,0,0,0-10.317-10.317H99.279a10.317,10.317,0,0,0-10.317,10.317V265.8a10.317,10.317,0,0,0,10.317,10.317" transform="translate(-88.962 -191.654)" fill="#eddeff"/>
              </g>
            </g>
          </g>
          <path id="Trazado_209020" data-name="Trazado 209020" d="M109.647,264.233H200.4a10.317,10.317,0,0,0,10.317-10.317V190.091A10.317,10.317,0,0,0,200.4,179.774h-90.75A10.317,10.317,0,0,0,99.33,190.091v63.825a10.317,10.317,0,0,0,10.317,10.317" transform="translate(109.279 -97.397)" fill="#6b8dfc"/>
          <path id="Trazado_209021" data-name="Trazado 209021" d="M109.647,179.774H200.4a10.317,10.317,0,0,1,10.317,10.317v1.841H99.33v-1.841a10.317,10.317,0,0,1,10.317-10.317" transform="translate(109.279 -97.397)" fill="#6b8dfc"/>
          <path id="Trazado_209022" data-name="Trazado 209022" d="M120.939,189.574a2.933,2.933,0,1,0,2.933-2.933,2.933,2.933,0,0,0-2.933,2.933" transform="translate(183.286 -101.117)" fill="#a6bbff"/>
          <path id="Trazado_209023" data-name="Trazado 209023" d="M146.818,189.574a2.933,2.933,0,1,0,2.933-2.933,2.932,2.932,0,0,0-2.933,2.933" transform="translate(145.549 -101.117)" fill="#a6bbff"/>
          <path id="Trazado_209024" data-name="Trazado 209024" d="M172.7,189.574a2.933,2.933,0,1,0,2.933-2.933,2.933,2.933,0,0,0-2.933,2.933" transform="translate(107.811 -101.117)" fill="#a6bbff"/>
          <path id="Trazado_209025" data-name="Trazado 209025" d="M186.894,231.431a15.568,15.568,0,1,0,15.568-15.568,15.568,15.568,0,0,0-15.568,15.568" transform="translate(61.839 -116.949)" fill="#a6bbff"/>
          <path id="Trazado_209026" data-name="Trazado 209026" d="M214.514,330.13h-69.7c2.633-16.272,17.232-28.724,34.849-28.724h0c17.618,0,32.216,12.452,34.849,28.724" transform="translate(84.636 -163.294)" fill="#a6bbff"/>
          <g id="Grupo_983529" data-name="Grupo 983529" transform="translate(61.725 49.475)" opacity="0.6" style="mix-blend-mode: multiply;isolation: isolate">
            <g id="Grupo_983528" data-name="Grupo 983528">
              <g id="Grupo_983527" data-name="Grupo 983527" clip-path="url(#clip-path-6)">
                <path id="Trazado_209027" data-name="Trazado 209027" d="M491.689,187.22h64.353a9.162,9.162,0,0,0,9.162-9.163V117.135a9.163,9.163,0,0,0-9.162-9.163H491.689a9.163,9.163,0,0,0-9.163,9.163v60.922a9.163,9.163,0,0,0,9.163,9.163" transform="translate(-482.526 -107.972)" fill="#eddeff"/>
              </g>
            </g>
          </g>
          <path id="Trazado_209028" data-name="Trazado 209028" d="M501.755,178.019h64.353a9.162,9.162,0,0,0,9.162-9.163V107.934a9.163,9.163,0,0,0-9.162-9.163H501.755a9.163,9.163,0,0,0-9.163,9.163v60.922a9.163,9.163,0,0,0,9.163,9.163" transform="translate(-435.48 -53.512)" fill="#3f3fd8"/>
          <path id="Trazado_209029" data-name="Trazado 209029" d="M541.845,109.637A34.645,34.645,0,1,1,507.2,144.282a34.645,34.645,0,0,1,34.645-34.645m0,59.156a24.511,24.511,0,1,0-24.511-24.511,24.511,24.511,0,0,0,24.511,24.511" transform="translate(-443.394 -59.399)" fill="#f5fdff"/>
          <path id="Trazado_209030" data-name="Trazado 209030" d="M634.237,170.76c.018-.066.036-.132.055-.2C634.273,170.629,634.255,170.695,634.237,170.76Z" transform="translate(-559.407 -92.407)" fill="none" stroke="#000" stroke-miterlimit="10" stroke-width="1.239"/>
          <path id="Trazado_209031" data-name="Trazado 209031" d="M633.449,168.288q.041-.124.083-.249C633.5,168.122,633.477,168.2,633.449,168.288Z" transform="translate(-558.285 -91.039)" fill="none" stroke="#000" stroke-miterlimit="10" stroke-width="1.239"/>
          <path id="Trazado_209032" data-name="Trazado 209032" d="M560.285,162.542h.008a34.5,34.5,0,0,0-1.351,6.312l9.9,3.435c-.006.218-.016.435-.016.654a24.513,24.513,0,0,0,34.311,22.468l1.25,10.366a34.659,34.659,0,0,1-44.1-43.237" transform="translate(-494.887 -88.061)" fill="#6b8dfc"/>
          <path id="Trazado_209033" data-name="Trazado 209033" d="M632.546,165.871c.037-.1.073-.192.111-.289C632.619,165.678,632.583,165.774,632.546,165.871Z" transform="translate(-556.998 -89.708)" fill="none" stroke="#000" stroke-miterlimit="10" stroke-width="1.239"/>
          <path id="Trazado_209034" data-name="Trazado 209034" d="M635.854,178.472l0-.023Z" transform="translate(-561.713 -96.679)" fill="none" stroke="#000" stroke-miterlimit="10" stroke-width="1.239"/>
          <path id="Trazado_209035" data-name="Trazado 209035" d="M634.905,173.284l.031-.136Z" transform="translate(-560.357 -93.807)" fill="none" stroke="#000" stroke-miterlimit="10" stroke-width="1.239"/>
          <path id="Trazado_209036" data-name="Trazado 209036" d="M635.446,175.856c0-.025.009-.05.013-.075C635.455,175.806,635.451,175.831,635.446,175.856Z" transform="translate(-561.128 -95.234)" fill="none" stroke="#000" stroke-miterlimit="10" stroke-width="1.239"/>
          <path id="Trazado_209037" data-name="Trazado 209037" d="M619.256,109.734v10.157A24.5,24.5,0,0,0,596.5,143.68l-9.9-3.435a34.646,34.646,0,0,1,32.661-30.511" transform="translate(-522.54 -59.451)" fill="#a6bbff"/>
          <path id="Trazado_209038" data-name="Trazado 209038" d="M516.359,109.689c.576-.028,1.153-.052,1.736-.052a34.638,34.638,0,0,1,30.448,18.1l-7.607,7.651a24.515,24.515,0,0,0-22.842-15.621c-.584,0-1.162.025-1.736.065Z" transform="translate(-419.643 -59.399)" fill="#a6abff"/>
          <path id="Trazado_209039" data-name="Trazado 209039" d="M61.841,408.76a7.213,7.213,0,1,0,8.639-5.422,7.213,7.213,0,0,0-8.639,5.422" transform="translate(261.169 -218.419)" fill="#7789f2"/>
          <path id="Trazado_209040" data-name="Trazado 209040" d="M155.39,306.048a5.993,5.993,0,1,0,7.179-4.5,5.993,5.993,0,0,0-7.179,4.5" transform="translate(127.149 -163.286)" fill="#3f3fd8"/>
          <path id="Trazado_209041" data-name="Trazado 209041" d="M121.315,361.408a.643.643,0,0,0,.485-1.065L92.857,327.1a.644.644,0,1,0-.971.845l28.942,33.242a.642.642,0,0,0,.486.221" transform="translate(201.518 -177.095)" fill="#09066a"/>
          <path id="Trazado_209042" data-name="Trazado 209042" d="M47.2,214.284a.641.641,0,0,0,.417-.154l2.938-2.5a.643.643,0,0,0-.834-.979l-2.938,2.5a.643.643,0,0,0,.417,1.133" transform="translate(293.389 -114.04)" fill="#f5fdff"/>
          <path id="Trazado_209043" data-name="Trazado 209043" d="M66.646,253.8a.64.64,0,0,0,.417-.154l5.972-5.089a.643.643,0,0,0-.834-.98l-5.972,5.09a.644.644,0,0,0,.417,1.133m11.943-10.178a.64.64,0,0,0,.417-.154l5.971-5.089a.643.643,0,1,0-.834-.98l-5.971,5.089a.644.644,0,0,0,.418,1.133m11.942-10.178a.641.641,0,0,0,.417-.154l5.971-5.089a.643.643,0,0,0-.834-.98l-5.971,5.089a.643.643,0,0,0,.417,1.133" transform="translate(238.119 -123.017)" fill="#f5fdff"/>
          <path id="Trazado_209044" data-name="Trazado 209044" d="M144.833,297.489a.641.641,0,0,0,.417-.154l2.938-2.5a.643.643,0,1,0-.834-.98l-2.938,2.5a.643.643,0,0,0,.417,1.133" transform="translate(151.023 -159.118)" fill="#f5fdff"/>
          <path id="Trazado_209045" data-name="Trazado 209045" d="M17.424,187.33a6.455,6.455,0,1,0,7.732-4.852,6.455,6.455,0,0,0-7.732,4.852" transform="translate(327.427 -98.773)" fill="#09066a"/>
          <path id="Trazado_209046" data-name="Trazado 209046" d="M34.9,16.348A16.348,16.348,0,1,0,51.244,0,16.348,16.348,0,0,0,34.9,16.348" transform="translate(281.927)" fill="#a6abff"/>
          <path id="Trazado_209047" data-name="Trazado 209047" d="M41.564,19.96A13.292,13.292,0,1,0,54.856,6.668,13.292,13.292,0,0,0,41.564,19.96" transform="translate(278.314 -3.613)" fill="#7789f2"/>
          <path id="Trazado_209048" data-name="Trazado 209048" d="M64.807,32.23a12.65,12.65,0,0,0,4.881-1.123l-.939-3.163a8.416,8.416,0,0,1-1.982.734A12.906,12.906,0,0,1,64.807,29V25.79l.344-.091a7.31,7.31,0,0,0,3.415-1.868,4.125,4.125,0,0,0,1.191-2.945,3.951,3.951,0,0,0-1.317-3.071,6.058,6.058,0,0,0-3.632-1.4V14.24H62.858v2.177a12.559,12.559,0,0,0-4.24,1.123l1.192,3.071a6.843,6.843,0,0,1,3.048-.963v3.071l-.275.069a6.874,6.874,0,0,0-3.335,1.776,4.069,4.069,0,0,0-1.18,2.922,4.275,4.275,0,0,0,1.249,3.209,5.935,5.935,0,0,0,3.541,1.489V33.9h1.948Zm0-12.581Q66,19.9,66,20.863a1.051,1.051,0,0,1-.252.722,2.528,2.528,0,0,1-.939.562Zm-3.025,8.113A1.288,1.288,0,0,1,62,26.982a1.939,1.939,0,0,1,.859-.55v2.429q-1.076-.274-1.077-1.1" transform="translate(269.143 -7.715)" fill="#f5fdff"/>
          <path id="Trazado_209049" data-name="Trazado 209049" d="M553.4,31.794a2.871,2.871,0,1,0,2.871-2.871,2.871,2.871,0,0,0-2.871,2.871" transform="translate(-447.213 -15.67)" fill="#a6bbff"/>
          <path id="Trazado_209050" data-name="Trazado 209050" d="M555.5,34.547a3.52,3.52,0,1,0-3.52-3.52,3.524,3.524,0,0,0,3.52,3.52m0-5.742a2.223,2.223,0,1,1-2.222,2.223A2.226,2.226,0,0,1,555.5,28.8" transform="translate(-446.446 -14.903)" fill="#a6bbff"/>
          <path id="Trazado_209051" data-name="Trazado 209051" d="M526.981,66.806a3.52,3.52,0,1,0-3.519-3.52,3.524,3.524,0,0,0,3.519,3.52m0-5.742a2.223,2.223,0,1,1-2.222,2.223,2.225,2.225,0,0,1,2.222-2.223" transform="translate(-404.856 -32.38)" fill="#a6bbff"/>
          <path id="Trazado_209052" data-name="Trazado 209052" d="M520.045,33.584a.648.648,0,0,0,.648-.648v-16.3a.648.648,0,1,0-1.3,0v16.3a.648.648,0,0,0,.648.648" transform="translate(-393.186 -8.66)" fill="#a6bbff"/>
          <path id="Trazado_209053" data-name="Trazado 209053" d="M502.254,35.071h16.3a.648.648,0,1,0,0-1.3h-16.3a.648.648,0,0,0,0,1.3" transform="translate(-383.547 -18.298)" fill="#a6bbff"/>
          <path id="Trazado_209054" data-name="Trazado 209054" d="M698.493,138.719a22.743,22.743,0,0,1,22.2-22.708l.015,0a.524.524,0,0,1,.06,0h.02a.641.641,0,0,1,.1,0c.108,0,.214-.008.323-.008a22.721,22.721,0,1,1,0,45.441h0c-.114,0-.225-.007-.338-.009-.017,0-.032.009-.049.009h0a.622.622,0,0,1-.112-.01l-.015,0a22.742,22.742,0,0,1-22.2-22.707m3.462-.822a23.312,23.312,0,0,1,2.255-9.252q-1.111.311-2.251.668A21.281,21.281,0,0,0,699.8,137.9Zm1.287,0h6.876c0-.156,0-.311.008-.467a28.637,28.637,0,0,1,2.673-10.673c-2.193.344-4.5.814-6.911,1.432a22,22,0,0,0-2.645,9.708m17.328-20.112a35.3,35.3,0,0,0-5.482,7.373c1.909-.227,3.739-.366,5.482-.427Zm1.287,6.913c1.724-.026,3.359.021,4.9.123a35.557,35.557,0,0,0-4.9-6.632Zm0,1.264V137.9h8.777c0-.132,0-.263-.006-.395a27.661,27.661,0,0,0-3.164-11.382c-1.706-.133-3.585-.194-5.607-.159m0,13.223v13.268c1.61-.062,3.307-.188,5.09-.4a27.377,27.377,0,0,0,3.7-12.871Zm0,14.545v5.4a42.622,42.622,0,0,0,4.279-5.7c-1.476.149-2.907.251-4.279.3m-1.287.022c-.3,0-.609.016-.9.016-1.256,0-2.46-.04-3.616-.11a43.429,43.429,0,0,0,4.52,5.9Zm0-1.265v-13.3H711.4a27.508,27.508,0,0,0,3.867,13.164c1.626.118,3.4.173,5.306.139m0-14.589v-11.9c-1.941.075-4.015.248-6.208.541A27.5,27.5,0,0,0,711.41,137.5c-.006.132,0,.263-.006.395Zm-7.094-12.529a35.815,35.815,0,0,1,5.311-7.591,21.364,21.364,0,0,0-11.977,8.866c2.314-.552,4.537-.971,6.665-1.275m14.863-.419a53.8,53.8,0,0,1,6.4.984,21.344,21.344,0,0,0-11.493-8.156,35.885,35.885,0,0,1,5.088,7.172m3.355,1.671c-.834-.134-1.731-.256-2.685-.358a28.8,28.8,0,0,1,2.9,11.168c.007.156,0,.311.008.467H738.8a21.982,21.982,0,0,0-3.069-10.453c-1.218-.3-2.559-.588-4.035-.824m8.39,11.277h2.543a21.276,21.276,0,0,0-2.412-9.077c-.788-.293-1.708-.6-2.748-.906a23.289,23.289,0,0,1,2.617,9.984m.008,1.287a23.286,23.286,0,0,1-2.932,10.9q1.312-.348,2.664-.756a21.285,21.285,0,0,0,2.812-10.148Zm-1.287,0h-6.875a28.3,28.3,0,0,1-3.413,12.665c2.18-.307,4.475-.735,6.883-1.313a21.983,21.983,0,0,0,3.406-11.352m-11.062,14.058a42.667,42.667,0,0,1-4.689,6.477,21.326,21.326,0,0,0,11.237-7.6c-2.28.5-4.458.862-6.549,1.124m-13.272.3a54.273,54.273,0,0,1-6.33-.927,21.3,21.3,0,0,0,10.843,7.1,43.013,43.013,0,0,1-4.513-6.176m-3.735-1.713c.917.147,1.915.277,2.977.384a28.429,28.429,0,0,1-3.6-13.03h-6.875a21.97,21.97,0,0,0,3.765,11.9c1.138.275,2.382.533,3.737.75m-8.788-12.646h-2.156a21.294,21.294,0,0,0,3.135,10.7c.67.235,1.422.474,2.244.71a23.277,23.277,0,0,1-3.223-11.412m.886-11.477c.736-.217,1.466-.422,2.185-.612a22.854,22.854,0,0,1,7.93-8.15,21.563,21.563,0,0,0-10.115,8.763m25.5-9.2a22.807,22.807,0,0,1,8.247,7.863c.972.252,1.856.513,2.654.772a21.542,21.542,0,0,0-10.9-8.635m10.444,32.47q-1.31.37-2.585.687a22.777,22.777,0,0,1-7.859,7.267,21.531,21.531,0,0,0,10.444-7.954m-25.833,7.517a22.794,22.794,0,0,1-6.761-6.325c-.752-.189-1.45-.385-2.1-.582a21.554,21.554,0,0,0,8.864,6.907" transform="translate(-698.493 -62.845)" fill="#a6bbff"/>
          <g id="Grupo_983532" data-name="Grupo 983532" transform="translate(15.313 113.397)" opacity="0.9" style="mix-blend-mode: multiply;isolation: isolate">
            <g id="Grupo_983531" data-name="Grupo 983531">
              <g id="Grupo_983530" data-name="Grupo 983530" clip-path="url(#clip-path-7)">
                <path id="Trazado_209055" data-name="Trazado 209055" d="M719.236,265.071a.648.648,0,0,0,.648-.648v-16.3a.648.648,0,1,0-1.3,0v16.3a.648.648,0,0,0,.648.648" transform="translate(-698.965 -247.47)" fill="#eddeff"/>
                <path id="Trazado_209056" data-name="Trazado 209056" d="M701.445,266.558h16.3a.648.648,0,0,0,0-1.3h-16.3a.648.648,0,0,0,0,1.3" transform="translate(-689.326 -257.109)" fill="#eddeff"/>
                <path id="Trazado_209057" data-name="Trazado 209057" d="M749.44,292.928l-1.37,10.363a1.424,1.424,0,0,1-2.279.943l-8.29-6.368a1.424,1.424,0,0,1,.323-2.445l9.66-4a1.424,1.424,0,0,1,1.956,1.5" transform="translate(-736.945 -271.224)" fill="#eddeff"/>
              </g>
            </g>
          </g>
          <g id="Grupo_983535" data-name="Grupo 983535" transform="translate(227.267 18.227)" style="mix-blend-mode: multiply;isolation: isolate">
            <g id="Grupo_983534" data-name="Grupo 983534">
              <g id="Grupo_983533" data-name="Grupo 983533" clip-path="url(#clip-path-8)">
                <path id="Trazado_209058" data-name="Trazado 209058" d="M244.693,95.707a3.52,3.52,0,1,0-3.52-3.52,3.524,3.524,0,0,0,3.52,3.52m0-5.742a2.223,2.223,0,1,1-2.223,2.223,2.225,2.225,0,0,1,2.223-2.223" transform="translate(-220.483 -66.265)" fill="#eddeff"/>
                <path id="Trazado_209059" data-name="Trazado 209059" d="M289.845,102.411a3.52,3.52,0,1,1-3.52,3.52,3.524,3.524,0,0,1,3.52-3.52" transform="translate(-286.325 -73.711)" fill="#eddeff"/>
                <path id="Trazado_209060" data-name="Trazado 209060" d="M265.055,46.231l10.781-6.225a1.7,1.7,0,0,1,2.544,1.469V53.924a1.7,1.7,0,0,1-2.544,1.469l-10.781-6.225a1.7,1.7,0,0,1,0-2.937" transform="translate(-261.205 -39.777)" fill="#eddeff"/>
              </g>
            </g>
          </g>
          <path id="Trazado_209061" data-name="Trazado 209061" d="M6.195,359.516a2.871,2.871,0,1,0,2.871-2.871,2.871,2.871,0,0,0-2.871,2.871" transform="translate(350.732 -193.221)" fill="#eddeff"/>
          <path id="Trazado_209062" data-name="Trazado 209062" d="M35.722,380.932a3.52,3.52,0,1,1-3.52,3.52,3.524,3.524,0,0,1,3.52-3.52" transform="translate(311.511 -206.379)" fill="#eddeff"/>
          <path id="Trazado_209063" data-name="Trazado 209063" d="M44.087,326.816,37.863,337.6a1.7,1.7,0,0,1-2.937,0L28.7,326.816a1.7,1.7,0,0,1,1.469-2.544H42.619a1.7,1.7,0,0,1,1.469,2.544" transform="translate(308.145 -175.682)" fill="#eddeff"/>
          <path id="Trazado_209064" data-name="Trazado 209064" d="M117.114,41.973A21.193,21.193,0,1,0,138.307,20.78a21.193,21.193,0,0,0-21.193,21.193" transform="translate(152.343 -11.258)" fill="#a6bbff"/>
          <path id="Trazado_209065" data-name="Trazado 209065" d="M125.758,46.657A17.232,17.232,0,1,0,142.99,29.425a17.232,17.232,0,0,0-17.232,17.232" transform="translate(147.661 -15.942)" fill="#6b8dfc"/>
          <path id="Trazado_209066" data-name="Trazado 209066" d="M151.378,39.915c0-1.414,0-2.8.006-4.23l-2.641-.008c0,.756-.009,1.494-.011,2.231,0,.61-.016,1.22,0,1.83.008.25-.093.288-.309.328a27.957,27.957,0,0,0-2.9.6,4.331,4.331,0,0,0-2.871,2.384,4.479,4.479,0,0,0,1.757,5.837c.018.011.027.038.055.079-.082.027-.157.053-.232.075a4.348,4.348,0,0,0-3.528,4.828c.011.329.044.658.087.984a5.048,5.048,0,0,0,3.906,4.485c1.272.36,2.6.522,3.977.787,0,1.33,0,2.775,0,4.264l2.641.01c.005-1.437.01-2.858.015-4.324l2.111-.021c0,1.45,0,2.873-.007,4.347l2.641.01c.005-1.471.011-2.917.016-4.4L161.43,60c-.176-1.07-.345-2.1-.517-3.15-.633,0-1.242.017-1.849-.009C158.3,56.813,158,56.47,158,55.706q0-3.037.012-6.076,0-2.654.007-5.307a1.291,1.291,0,0,1,1.3-1.419c.7-.044,1.41-.027,2.146-.038,0-.927,0-1.849.005-2.8l-5.331-.012c0-1.465,0-2.9,0-4.358l-2.642-.007c0,1.426-.008,2.823-.013,4.257l-2.11-.028M153.4,56.852c-.707,0-1.4.014-2.092-.009a9.49,9.49,0,0,1-3.827-.724,2.324,2.324,0,0,1-1.5-2.123,2.27,2.27,0,0,1,1.35-2.248,6.9,6.9,0,0,1,1.624-.543,19.559,19.559,0,0,1,4.451-.185c0,1.939-.007,3.863-.011,5.831m.028-13.87c0,1.856-.008,3.6-.011,5.366-.413.005-.79.019-1.166.012a9.018,9.018,0,0,1-3.52-.542,2.2,2.2,0,0,1-1.492-2.059,2.159,2.159,0,0,1,1.374-2.172A4.2,4.2,0,0,1,149.9,43.2c1.148-.11,2.3-.148,3.526-.218" transform="translate(139.562 -19.328)" fill="#f5fdff"/>
          <g id="Grupo_983538" data-name="Grupo 983538" transform="translate(102.919 264.158)" opacity="0.59" style="mix-blend-mode: multiply;isolation: isolate">
            <g id="Grupo_983537" data-name="Grupo 983537">
              <g id="Grupo_983536" data-name="Grupo 983536" clip-path="url(#clip-path-9)">
                <path id="Trazado_209067" data-name="Trazado 209067" d="M504.429,580.983c0,2.487,7.04,4.5,15.724,4.5s15.724-2.016,15.724-4.5-7.04-4.5-15.724-4.5-15.724,2.016-15.724,4.5" transform="translate(-504.429 -576.48)" fill="#3737b7"/>
              </g>
            </g>
          </g>
          <path id="Trazado_209068" data-name="Trazado 209068" d="M507.2,531.821c0,2.791,6.475,5.054,14.462,5.054s14.462-2.263,14.462-5.054-6.475-5.054-14.462-5.054S507.2,529.03,507.2,531.821" transform="translate(-403.031 -285.389)" fill="#09066a"/>
          <path id="Trazado_209069" data-name="Trazado 209069" d="M521.977,543.985c7.047,0,12.914-1.762,14.2-4.093l-4.522,16.442a7.225,7.225,0,0,1-6.988,5.271h-5.375a7.226,7.226,0,0,1-6.989-5.271l-4.521-16.442c1.284,2.331,7.151,4.093,14.2,4.093" transform="translate(-403.343 -292.5)" fill="#a6abff"/>
          <path id="Trazado_209070" data-name="Trazado 209070" d="M525.512,539.795a30.814,30.814,0,0,1-10.878-1.726,6.544,6.544,0,0,1,3.086-3.9c5.23-3.247,15.176-2.951,18.849,3.831a30.415,30.415,0,0,1-11.057,1.8" transform="translate(-406.879 -288.31)" fill="#3f3fd8"/>
          <path id="Trazado_209071" data-name="Trazado 209071" d="M504.594,501.86a2.723,2.723,0,0,1,1.358-1.693c1.278-.678,3-.268,4.613,1.1a18.183,18.183,0,0,1,4.953,7.81,57.8,57.8,0,0,1,.094-15.619c.138-.971.768-4.128,3.091-4.128h.031c1.755.022,2.706,1.932,3.012,3.713,1.035,6.038-.856,11.124-3.06,16.4.3-.449.6-.887.892-1.32a44.2,44.2,0,0,0,3.206-5.239,12.27,12.27,0,0,1,2.456-3.69,4.352,4.352,0,0,1,4.321-1.108c1.917.709,2.682,3.027,2.315,4.857a9.337,9.337,0,0,1-2.959,4.651,27.2,27.2,0,0,1-12.075,6.742,1.881,1.881,0,0,1-.464.053c-2.654,0-8.972-4.15-11.022-7.908a6.59,6.59,0,0,1-.762-4.62" transform="translate(-397.599 -265.106)" fill="#6b8dfc"/>
          <g id="Grupo_983541" data-name="Grupo 983541" transform="translate(115.712 247.392)" opacity="0.41" style="mix-blend-mode: multiply;isolation: isolate">
            <g id="Grupo_983540" data-name="Grupo 983540">
              <g id="Grupo_983539" data-name="Grupo 983539" clip-path="url(#clip-path-10)">
                <path id="Trazado_209072" data-name="Trazado 209072" d="M510.9,561.606h-2.892c-.078,0-.155-.007-.233-.01,7.31-4.46,8.2-12.465,7.822-17.91,4.737-.6,8.326-2.032,9.3-3.794l-4.522,16.442a7.225,7.225,0,0,1-6.988,5.271Z" transform="translate(-507.779 -539.892)" fill="#a6abff"/>
              </g>
            </g>
          </g>
          <path id="Trazado_209073" data-name="Trazado 209073" d="M573.058,494.581c0,4.073,9.449,7.375,21.1,7.375s21.1-3.3,21.1-7.375-9.449-7.375-21.1-7.375-21.1,3.3-21.1,7.375" transform="translate(-512.348 -263.956)" fill="#6b8dfc"/>
          <path id="Trazado_209074" data-name="Trazado 209074" d="M562.426,387.324c1.814-1.637,4.986-.472,6.129,1.687s.787,4.795.133,7.149a32.4,32.4,0,0,1-9.449,15.279c3.533.351,6.06,4.229,5.555,7.743s-3.481,6.347-6.876,7.386a16.6,16.6,0,0,1-10.441-.706c2.955,2.966.977,8.426-2.617,10.574s-8.028,2.068-12.207,2.334-8.77,1.188-11.279,4.54a71.971,71.971,0,0,1-.574-20.756c.319-2.7.888-5.58,2.83-7.487s5.689-2.144,7.095.187c-.124-4.742-.138-9.864,2.631-13.715s9.465-5.066,12.023-1.071c1.381-7.869,9.657-13.844,17.049-13.143" transform="translate(-442.207 -209.425)" fill="#7789f2"/>
          <path id="Trazado_209075" data-name="Trazado 209075" d="M521.538,443.082a141.245,141.245,0,0,1,47.068-52.693,4.193,4.193,0,0,1,.472.7c.071.134.119.275.179.412a139.927,139.927,0,0,0-47.38,53.758c-.125-.723-.236-1.449-.339-2.177" transform="translate(-442.731 -211.503)" fill="#3f3fd8"/>
          <path id="Trazado_209076" data-name="Trazado 209076" d="M529.751,396.846q.618-.574,1.286-1.088a37.092,37.092,0,0,1-2.312,13.425,25.39,25.39,0,0,1,17.1-2.009c-.2.395-.411.786-.629,1.172A23.75,23.75,0,0,0,527.78,411.2a.643.643,0,0,1-.932-.8,35.627,35.627,0,0,0,2.9-13.556" transform="translate(-421.71 -214.412)" fill="#3f3fd8"/>
          <path id="Trazado_209077" data-name="Trazado 209077" d="M530.771,439.547a.644.644,0,0,1-.572-.938,44.861,44.861,0,0,0,4.355-24.7,9.339,9.339,0,0,1,1.218-.662,46.779,46.779,0,0,1-3.526,24.07,42.811,42.811,0,0,1,31.481-3.719c0,.016,0,.031,0,.047a7.565,7.565,0,0,1-.277,1.2,41.549,41.549,0,0,0-32.342,4.613.64.64,0,0,1-.334.094" transform="translate(-441.138 -223.887)" fill="#3f3fd8"/>
          <path id="Trazado_209078" data-name="Trazado 209078" d="M565.861,448.185a4.78,4.78,0,0,1,.616-.5,37.976,37.976,0,0,1,2.237,18.619,34.521,34.521,0,0,1,22.123-1.675,8.428,8.428,0,0,1-.466,1.208,33.134,33.134,0,0,0-22.195,2.123.643.643,0,0,1-.911-.687,36.567,36.567,0,0,0-1.8-18.633c.13-.153.253-.311.4-.454" transform="translate(-484.439 -242.544)" fill="#3f3fd8"/>
          <path id="Trazado_209079" data-name="Trazado 209079" d="M624.953,412.884c-3.1-4.4-1.428-10.594,1.454-15.139s6.884-8.475,8.682-13.548.214-12.021-4.955-13.524c-1.521-.443-3.394-.492-4.255-1.822-.674-1.041-.388-2.4-.1-3.611,1.426-6.057,2.166-12.637-.343-18.331s-9.245-9.9-15.064-7.7c-6.344,2.4-8.28,10.852-6.352,17.355,1.173,3.954,3.288,8.551.782,11.827-1.536,2.007-4.324,2.647-6.062,4.481-1.846,1.947-2.179,4.967-1.483,7.559a21.287,21.287,0,0,0,3.877,7,172.561,172.561,0,0,0,23.823,25.458" transform="translate(-543.816 -183.451)" fill="#3f3fd8"/>
          <path id="Trazado_209080" data-name="Trazado 209080" d="M620.78,338.969a.489.489,0,0,1,.013-.052,9.221,9.221,0,0,1,1.2-.2.624.624,0,0,1,.073.308,181.562,181.562,0,0,0,10.582,69.6,9.151,9.151,0,0,0,1.584,4.314c-.687-.609-1.367-1.233-2.048-1.853a182.8,182.8,0,0,1-11.4-72.12" transform="translate(-553.094 -183.51)" fill="#7789f2"/>
          <path id="Trazado_209081" data-name="Trazado 209081" d="M630.41,375.5a.619.619,0,0,1-.077,0,.644.644,0,0,1-.565-.335,85.565,85.565,0,0,0-8.955-13.152,18.042,18.042,0,0,1-.257-2.305,88.714,88.714,0,0,1,9.577,13.476c1.9-6.5,5.322-14.645,11.366-21.05q.376.562.694,1.154c-4.96,5.408-8.885,12.952-11.239,21.735a.644.644,0,0,1-.545.472" transform="translate(-561.04 -190.78)" fill="#7789f2"/>
          <path id="Trazado_209082" data-name="Trazado 209082" d="M616.376,392.688c.072-.082.153-.154.219-.241a5.438,5.438,0,0,0,.519-.842,69.577,69.577,0,0,1,10.148,14.673,36.89,36.89,0,0,1,11.419-23.262q-.11,1.036-.274,2.069a35.373,35.373,0,0,0-10,23.7.643.643,0,0,1-.51.618.607.607,0,0,1-.134.014.644.644,0,0,1-.582-.371,68.08,68.08,0,0,0-10.81-16.354" transform="translate(-555.612 -207.509)" fill="#7789f2"/>
          <path id="Trazado_209083" data-name="Trazado 209083" d="M603.776,412.472a6.019,6.019,0,0,1,.736-.979c.015-.015.032-.027.046-.042A78.747,78.747,0,0,1,623.9,433.714,35,35,0,0,1,637.316,409.9a6.854,6.854,0,0,1,1.119.762,33.483,33.483,0,0,0-13.387,25.273.645.645,0,0,1-.495.607.635.635,0,0,1-.148.017.644.644,0,0,1-.566-.336,77.366,77.366,0,0,0-20.062-23.751" transform="translate(-549.591 -222.074)" fill="#7789f2"/>
          <path id="Trazado_209084" data-name="Trazado 209084" d="M670.965,458.837a41.039,41.039,0,0,0-45.288-38.965c.676,10.376,7.236,19.724,15.668,25.809s18.586,9.3,29.62,13.156" transform="translate(-592.157 -227.359)" fill="#09066a"/>
          <path id="Trazado_209085" data-name="Trazado 209085" d="M693.1,436.212c-1.536-2.909-3.763-8.021-3.781-13.229.439.121.879.239,1.314.375.142,4.874,2.27,10.16,4.569,13.962a.644.644,0,0,1-.855.9,24.211,24.211,0,0,0-15.332-2.1c-.244-.388-.473-.784-.7-1.179a25.553,25.553,0,0,1,14.787,1.269" transform="translate(-640.613 -229.162)" fill="#3f3fd8"/>
          <path id="Trazado_209086" data-name="Trazado 209086" d="M625.948,421.677a196.867,196.867,0,0,1,45.092,38.212q-1.247-.435-2.476-.861A195.675,195.675,0,0,0,626.14,423.3c-.082-.538-.143-1.081-.192-1.626" transform="translate(-592.357 -228.454)" fill="#3f3fd8"/>
          <path id="Trazado_209087" data-name="Trazado 209087" d="M663.689,454.469a30.307,30.307,0,0,1-6.044-20.818q.636.4,1.259.823c-.394,7.558,2.261,15.637,7.181,20.793a.644.644,0,0,1-.668,1.055,31.074,31.074,0,0,0-15.564-1.167q-.77-.481-1.523-.987a31.52,31.52,0,0,1,15.359.3" transform="translate(-597.835 -234.941)" fill="#3f3fd8"/>
          <path id="Trazado_209088" data-name="Trazado 209088" d="M599.776,506.218A44.971,44.971,0,0,1,583.9,503.7c.462-2.312,2.4-4.393,4.5-5.7,7.632-4.739,22.147-4.307,27.507,5.591-3.87,1.6-9.66,2.624-16.136,2.624" transform="translate(-517.961 -268.218)" fill="#09066a"/>
          <path id="Trazado_209089" data-name="Trazado 209089" d="M570.578,426.78a.644.644,0,0,0,.606-.427l23.335-65.209a.643.643,0,1,0-1.212-.433l-23.335,65.209a.643.643,0,0,0,.606.86" transform="translate(-490.207 -195.192)" fill="#a6bbff"/>
          <path id="Trazado_209090" data-name="Trazado 209090" d="M560.1,379.982A38.944,38.944,0,0,0,573.5,360.725a10.738,10.738,0,0,0,.613-4.719,4.014,4.014,0,0,0-6.983-2.537,11.108,11.108,0,0,0-2.515,3.8,52.078,52.078,0,0,0-4.507,22.709" transform="translate(-465.319 -190.806)" fill="#a6bbff"/>
          <path id="Trazado_209091" data-name="Trazado 209091" d="M553.845,425.678A27.992,27.992,0,0,1,564.945,414a8.914,8.914,0,0,1,5.175-1.477c1.814.186,3.607,1.621,3.615,3.445.009,1.985-1.9,3.379-3.647,4.322a45.041,45.041,0,0,1-16.244,5.389" transform="translate(-462.013 -223.479)" fill="#a6bbff"/>
          <path id="Trazado_209092" data-name="Trazado 209092" d="M604.892,410.468a58.644,58.644,0,0,0-.334-24.02c-.441-1.964-1.58-4.355-3.585-4.18s-2.715,2.721-2.752,4.727c-.142,7.745,2.363,15.514,6.67,23.473" transform="translate(-514.583 -207.099)" fill="#a6bbff"/>
          <path id="Trazado_209093" data-name="Trazado 209093" d="M560.065,464.732a29.834,29.834,0,0,1,18.474-14.917,7.491,7.491,0,0,1,3.239-.321,3.056,3.056,0,0,1,2.445,1.936c.58,1.9-1.343,3.577-3.07,4.562-6.585,3.756-13.922,6.188-21.089,8.74" transform="translate(-475.456 -243.486)" fill="#a6bbff"/>
          <path id="Trazado_209094" data-name="Trazado 209094" d="M621.955,452.76a45.959,45.959,0,0,0-2.363-20.786c-.6-1.673-1.79-3.62-3.552-3.39-1.875.245-2.444,2.675-2.389,4.564a28.51,28.51,0,0,0,8.3,19.612" transform="translate(-537.948 -232.186)" fill="#a6bbff"/>
          <g id="Grupo_983544" data-name="Grupo 983544" transform="translate(66.735 260.733)" opacity="0.59" style="mix-blend-mode: multiply;isolation: isolate">
            <g id="Grupo_983543" data-name="Grupo 983543">
              <g id="Grupo_983542" data-name="Grupo 983542" clip-path="url(#clip-path-9)">
                <path id="Trazado_209095" data-name="Trazado 209095" d="M583.4,573.509c0,2.487,7.04,4.5,15.724,4.5s15.724-2.016,15.724-4.5-7.04-4.5-15.724-4.5-15.724,2.016-15.724,4.5" transform="translate(-583.396 -569.006)" fill="#3737b7"/>
              </g>
            </g>
          </g>
          <path id="Trazado_209096" data-name="Trazado 209096" d="M594.617,512.333c10.284,0,18.845-2.571,20.72-5.973l-6.6,23.994a10.544,10.544,0,0,1-10.2,7.693H590.7a10.544,10.544,0,0,1-10.2-7.693l-6.6-23.994c1.874,3.4,10.435,5.973,20.719,5.973" transform="translate(-512.802 -274.333)" fill="#a6bbff"/>
          <g id="Grupo_983547" data-name="Grupo 983547" transform="translate(76.507 232.026)" opacity="0.35" style="mix-blend-mode: multiply;isolation: isolate">
            <g id="Grupo_983546" data-name="Grupo 983546">
              <g id="Grupo_983545" data-name="Grupo 983545" clip-path="url(#clip-path-12)">
                <path id="Trazado_209097" data-name="Trazado 209097" d="M583.128,538.047h-7.844a10.674,10.674,0,0,1-1.386-.1c8.2-7.888,12.138-18.185,14.03-26.275,6.128-.974,10.69-2.941,12-5.314l-6.6,23.995a10.544,10.544,0,0,1-10.2,7.693" transform="translate(-573.898 -506.359)" fill="#6b8dfc"/>
              </g>
            </g>
          </g>
          <rect id="Rectángulo_338866" data-name="Rectángulo 338866" width="65.022" height="10.452" transform="translate(165.354 223.253)" fill="#fcc5be"/>
          <g id="Grupo_983550" data-name="Grupo 983550" transform="translate(165.354 223.252)" style="mix-blend-mode: multiply;isolation: isolate">
            <g id="Grupo_983549" data-name="Grupo 983549">
              <g id="Grupo_983548" data-name="Grupo 983548" clip-path="url(#clip-path-13)">
                <rect id="Rectángulo_338867" data-name="Rectángulo 338867" width="65.022" height="5.393" transform="translate(0 0)" fill="#fcc5be"/>
              </g>
            </g>
          </g>
          <path id="Trazado_209098" data-name="Trazado 209098" d="M332.02,503.33l18.52,32.052H254.761a54.261,54.261,0,0,1,12.362-32.052Z" transform="translate(-101.769 -272.692)" fill="#09066a"/>
          <rect id="Rectángulo_338869" data-name="Rectángulo 338869" width="63.532" height="28.576" transform="matrix(-0.586, -0.81, 0.81, -0.586, 271.329, 256.317)" fill="#fcc5be"/>
          <g id="Grupo_983553" data-name="Grupo 983553" transform="translate(234.305 188.354)" style="mix-blend-mode: multiply;isolation: isolate">
            <g id="Grupo_983552" data-name="Grupo 983552">
              <g id="Grupo_983551" data-name="Grupo 983551" clip-path="url(#clip-path-14)">
                <path id="Trazado_209099" data-name="Trazado 209099" d="M247.558,424.378l-25.627,13.327-7.166-9.914,23.16-16.74Z" transform="translate(-214.765 -411.051)" fill="#fcc5be"/>
              </g>
            </g>
          </g>
          <path id="Trazado_209100" data-name="Trazado 209100" d="M373.629,216.12a27.069,27.069,0,0,0-11.2,21.328c0,8.333,4.729,16.645,12.174,20.389s17.293,2.4,23.07-3.609c-1.327-8.494-2.724-17.194-6.931-24.692s-11.883-13.661-17.11-13.415" transform="translate(-198.235 -117.084)" fill="#09066a"/>
          <path id="Trazado_209101" data-name="Trazado 209101" d="M298.3,220.406c3.643,7.09,5.287,15.4,3.45,23.161s-7.47,14.774-15.055,17.225-16.849-.384-20.94-7.225c5.537-5.857,8.7-13.516,13.231-20.181s11.427-12.748,19.313-12.981" transform="translate(-58.781 -119.41)" fill="#09066a"/>
          <path id="Trazado_209102" data-name="Trazado 209102" d="M325.279,279.8l-7.31,22.836H304.551L345.928,347.2l11.609-44.559h-9.789L343.99,279.8Z" transform="translate(-131.582 -151.591)" fill="#fcc5be"/>
          <g id="Grupo_983556" data-name="Grupo 983556" transform="translate(188.046 128.213)" style="mix-blend-mode: multiply;isolation: isolate">
            <g id="Grupo_983555" data-name="Grupo 983555">
              <g id="Grupo_983554" data-name="Grupo 983554" clip-path="url(#clip-path-15)">
                <path id="Trazado_209103" data-name="Trazado 209103" d="M332.178,297.458,337.83,279.8h18.711l.888,5.392c-4.027,6.3-11.588,13.142-25.25,12.263" transform="translate(-332.178 -279.803)" fill="#fcc5be"/>
              </g>
            </g>
          </g>
          <g id="Grupo_983559" data-name="Grupo 983559" transform="translate(172.969 128.213)" opacity="0.4" style="mix-blend-mode: multiply;isolation: isolate">
            <g id="Grupo_983558" data-name="Grupo 983558">
              <g id="Grupo_983557" data-name="Grupo 983557" clip-path="url(#clip-path-16)">
                <path id="Trazado_209104" data-name="Trazado 209104" d="M339.329,314.811l-11.3-12.171h13.418l7.311-22.836h18.711l2.79,16.953Z" transform="translate(-328.026 -279.804)" fill="#fcc5be"/>
              </g>
            </g>
          </g>
          <path id="Trazado_209105" data-name="Trazado 209105" d="M203.512,329.639h11.12a18.09,18.09,0,0,1,13.563,6.12l27.7,34.157-40.519,21.706Z" transform="translate(16.358 -178.59)" fill="#3f3fd8"/>
          <g id="Grupo_983562" data-name="Grupo 983562" transform="translate(222.799 160.341)" opacity="0.49" style="mix-blend-mode: multiply;isolation: isolate">
            <g id="Grupo_983561" data-name="Grupo 983561">
              <g id="Grupo_983560" data-name="Grupo 983560" clip-path="url(#clip-path-17)">
                <path id="Trazado_209106" data-name="Trazado 209106" d="M267.4,387.441l-28.315,15.168-8.936-46.682,4.418-6.009Z" transform="translate(-230.145 -349.918)" fill="#3f3fd8"/>
              </g>
            </g>
          </g>
          <path id="Trazado_209107" data-name="Trazado 209107" d="M393.942,174.34s-14.441,15.005-1.2,28.56,11.982-32.326,11.982-32.326Z" transform="translate(-216.648 -92.413)" fill="#09066a"/>
          <path id="Trazado_209108" data-name="Trazado 209108" d="M314.777,215.52h5.968a23.972,23.972,0,0,0,23.972-23.972L346,151.154H292.092L290.8,191.548a23.972,23.972,0,0,0,23.972,23.972" transform="translate(-113.75 -81.891)" fill="#fcc5be"/>
          <g id="Grupo_983565" data-name="Grupo 983565" transform="translate(196.063 103.446)" style="mix-blend-mode: multiply;isolation: isolate">
            <g id="Grupo_983564" data-name="Grupo 983564">
              <g id="Grupo_983563" data-name="Grupo 983563" clip-path="url(#clip-path-18)">
                <path id="Trazado_209109" data-name="Trazado 209109" d="M363.573,239.5a.643.643,0,0,0,.423-1.128,7.426,7.426,0,0,1,.329-11.463.644.644,0,0,0-.789-1.017,8.713,8.713,0,0,0-.385,13.45.641.641,0,0,0,.423.158" transform="translate(-360.163 -225.754)" fill="#d6938e"/>
              </g>
            </g>
          </g>
          <g id="Grupo_983568" data-name="Grupo 983568" transform="translate(211.496 102.079)" opacity="0.7" style="mix-blend-mode: multiply;isolation: isolate">
            <g id="Grupo_983567" data-name="Grupo 983567">
              <g id="Grupo_983566" data-name="Grupo 983566" clip-path="url(#clip-path-19)">
                <path id="Trazado_209110" data-name="Trazado 209110" d="M300.146,231.009a8.239,8.239,0,1,0,8.239-8.239,8.239,8.239,0,0,0-8.239,8.239" transform="translate(-300.146 -222.77)" fill="#fcc5be"/>
              </g>
            </g>
          </g>
          <g id="Grupo_983571" data-name="Grupo 983571" transform="translate(177.055 102.079)" opacity="0.7" style="mix-blend-mode: multiply;isolation: isolate">
            <g id="Grupo_983570" data-name="Grupo 983570">
              <g id="Grupo_983569" data-name="Grupo 983569" clip-path="url(#clip-path-20)">
                <path id="Trazado_209111" data-name="Trazado 209111" d="M398.1,231.009a8.181,8.181,0,0,1-9.465,8.138,23.888,23.888,0,0,1-1.674-8.8l.227-7.127a8.223,8.223,0,0,1,10.912,7.787" transform="translate(-386.958 -222.77)" fill="#fcc5be"/>
              </g>
            </g>
          </g>
          <path id="Trazado_209112" data-name="Trazado 209112" d="M341.137,128.53c-3.032-1.608-6.14-3.277-8.369-5.887s-3.406-6.417-2-9.548a8.938,8.938,0,0,0-2.556,11.227c2.036,3.675,7,5.4,12.926,4.208" transform="translate(-125.564 -61.272)" fill="#09066a"/>
          <path id="Trazado_209113" data-name="Trazado 209113" d="M260.826,142.8c-2.258,8.068,1.01,17.094,7.136,22.809s16.626,10.375,25,10.423c3.885-8.417,5.264-20.2-1.531-26.5s-23.17-8.687-30.609-6.728" transform="translate(-49.885 -77.003)" fill="#09066a"/>
          <path id="Trazado_209114" data-name="Trazado 209114" d="M230.647,212.342c4.042,2.253,8.652,3.232,12.958,4.927s8.578,4.405,10.337,8.685A10.881,10.881,0,0,1,242,240.808c3.8-1.821,5.951-6.254,5.7-10.46a16.147,16.147,0,0,0-5.769-10.874c-3.168-2.777-7.1-4.547-11.292-7.133" transform="translate(5.092 -115.042)" fill="#09066a"/>
          <path id="Trazado_209115" data-name="Trazado 209115" d="M259.355,218.487c4.093,5.349,7.729,11.231,9.236,17.8s.628,13.935-3.57,19.2-12.063,7.744-18.064,4.684c5.228,1.282,10.472-3.2,11.984-8.366s.294-10.694-1-15.918-2.671-10.678,1.415-17.4" transform="translate(-16.933 -118.371)" fill="#09066a"/>
          <path id="Trazado_209116" data-name="Trazado 209116" d="M436.024,208.052c-2.554,4.429-6.182,8.121-9.354,12.13s-5.985,8.586-6.434,13.678,2.085,10.734,6.888,12.486c-2.363-3.781-1.99-8.717-.464-12.906s4.072-7.922,5.989-11.947a34.293,34.293,0,0,0,3.377-13.441" transform="translate(-263.054 -112.717)" fill="#09066a"/>
          <path id="Trazado_209117" data-name="Trazado 209117" d="M378.989,140.866c-5.857-1.482-14.527-1.387-20.542-.819s-12.155,3.607-14.79,9.044c-2.107,4.349-1.692,9.444-1.23,14.255.181,1.886.625,4.137,2.392,4.819a4.943,4.943,0,0,0,3.506-.4c11.342-4.449,23.517-14.994,30.663-26.894" transform="translate(-170.218 -75.666)" fill="#09066a"/>
          <g id="Grupo_983574" data-name="Grupo 983574" transform="translate(195.017 116.214)" style="mix-blend-mode: multiply;isolation: isolate">
            <g id="Grupo_983573" data-name="Grupo 983573">
              <g id="Grupo_983572" data-name="Grupo 983572" clip-path="url(#clip-path-21)">
                <path id="Trazado_209118" data-name="Trazado 209118" d="M340.273,261.679a14.75,14.75,0,0,0,12.576-7.094.644.644,0,0,0-1.111-.65,13.558,13.558,0,0,1-14.195,6.154.643.643,0,1,0-.285,1.255,13.614,13.614,0,0,0,3.016.335" transform="translate(-336.756 -253.618)" fill="#d6938e"/>
              </g>
            </g>
          </g>
          <path id="Trazado_209119" data-name="Trazado 209119" d="M265.74,194.842l8.484,3.346a4.771,4.771,0,0,1,2.589,6.528l-.023.049a4.923,4.923,0,0,1-6.256,2.375l-8.461-3.394a4.774,4.774,0,0,1-2.675-6.269,4.918,4.918,0,0,1,6.342-2.634" transform="translate(-30.479 -105.373)" fill="#3f3fd8"/>
          <path id="Trazado_209120" data-name="Trazado 209120" d="M342.02,186.762c-1.315,5.8-3.009,11.747-6.838,16.3s-10.332,7.362-15.889,5.236c-3.081-1.179-5.729-3.754-9.027-3.832-4.372-.1-7.851,4.244-12.224,4.324a8.5,8.5,0,0,1-6.657-3.608,19.1,19.1,0,0,1-3.021-7.194c-1.052-4.39-1.384-9.482,1.486-12.965,2.334-2.833,6.188-3.85,9.816-4.413a75.656,75.656,0,0,1,42.354,6.149" transform="translate(-108.298 -97.413)" fill="#3f3fd8"/>
          <path id="Trazado_209121" data-name="Trazado 209121" d="M352.757,358.78c2.244,7.017,1.725,14.684-.19,21.8a150.631,150.631,0,0,1-8.689,23.619H277.733l-7.212-27.982,19-46.576,34.362,35.037,8.672-35.037s17.783,21.571,20.2,29.141" transform="translate(-112.683 -178.59)" fill="#a6abff"/>
          <path id="Trazado_209122" data-name="Trazado 209122" d="M352.757,358.78c2.244,7.017,1.725,14.684-.19,21.8a150.631,150.631,0,0,1-8.689,23.619H277.733l-7.212-27.982,19-46.576,34.362,35.037,8.672-35.037s17.783,21.571,20.2,29.141" transform="translate(-112.683 -178.59)" fill="#a6abff"/>
          <g id="Grupo_983577" data-name="Grupo 983577" transform="translate(157.837 195.439)" opacity="0.64" style="mix-blend-mode: multiply;isolation: isolate">
            <g id="Grupo_983576" data-name="Grupo 983576">
              <g id="Grupo_983575" data-name="Grupo 983575" clip-path="url(#clip-path-22)">
                <path id="Trazado_209123" data-name="Trazado 209123" d="M353.342,433.062a150.67,150.67,0,0,1-8.689,23.619H278.508L271.3,428.7l.114-.28c14.9,5.225,38.436,7.139,53.247,8.592,11.86,1.164,23.542-5.767,30-10.5a49.907,49.907,0,0,1-1.311,6.548" transform="translate(-271.295 -426.514)" fill="#cacffc"/>
              </g>
            </g>
          </g>
          <path id="Trazado_209124" data-name="Trazado 209124" d="M350.089,183.116c-1.315,5.8-3.009,11.747-6.838,16.3s-10.332,7.362-15.889,5.236c-3.081-1.179-5.729-3.754-9.027-3.832-4.372-.1-7.851,4.244-12.224,4.324a8.5,8.5,0,0,1-6.657-3.608,19.1,19.1,0,0,1-3.021-7.194c-1.052-4.39-1.384-9.482,1.487-12.965,2.334-2.833,6.188-3.849,9.816-4.413a75.656,75.656,0,0,1,42.354,6.149" transform="translate(-120.065 -95.437)" fill="#a6abff"/>
          <g id="Grupo_983580" data-name="Grupo 983580" transform="translate(186.871 80.725)" opacity="0.6" style="mix-blend-mode: screen;isolation: isolate">
            <g id="Grupo_983579" data-name="Grupo 983579">
              <g id="Grupo_983578" data-name="Grupo 983578" clip-path="url(#clip-path-23)">
                <path id="Trazado_209125" data-name="Trazado 209125" d="M330.481,177.105q.4-.07.8-.132a71.657,71.657,0,0,1,20.7-.1l5.707,28.2a11.759,11.759,0,0,1-6.777-.4c-3.081-1.179-5.729-3.754-9.027-3.832a8.513,8.513,0,0,0-3.611.822Z" transform="translate(-330.481 -176.17)" fill="#a6abff"/>
              </g>
            </g>
          </g>
          <path id="Trazado_209126" data-name="Trazado 209126" d="M349.582,142.737a18.308,18.308,0,0,1-15.466,27.827,21.753,21.753,0,0,0,8.728-16.733c.054-2.216-.236-4.443.029-6.643a7.454,7.454,0,0,1,3.1-5.621c1.9-1.147,4.828-.631,3.605,1.17" transform="translate(-139.785 -76.367)" fill="#09066a"/>
          <path id="Trazado_209127" data-name="Trazado 209127" d="M373.552,146.538c-1.431,6.264-3.093,12.673-7.09,17.925s-10.888,9.148-17.8,8.154c4.618-1.4,7.847-5.215,10.116-9.148s3.9-8.21,6.8-11.78,7.549-6.418,7.979-5.151" transform="translate(-167.808 -79.225)" fill="#09066a"/>
          <path id="Trazado_209128" data-name="Trazado 209128" d="M387.918,417.438v22.407l28.723,30.567-16.007,13.531L368.525,455.4a27.367,27.367,0,0,1-9.183-20.452V417.438Z" transform="translate(-215.792 -226.158)" fill="#fcc5be"/>
          <g id="Grupo_983583" data-name="Grupo 983583" transform="translate(143.549 194.806)" style="mix-blend-mode: multiply;isolation: isolate">
            <g id="Grupo_983582" data-name="Grupo 983582">
              <g id="Grupo_983581" data-name="Grupo 983581" clip-path="url(#clip-path-24)">
                <path id="Trazado_209129" data-name="Trazado 209129" d="M450.6,439.107l-28.576-1.744V425.131H450.6Z" transform="translate(-422.026 -425.131)" fill="#fcc5be"/>
              </g>
            </g>
          </g>
          <path id="Trazado_209130" data-name="Trazado 209130" d="M441.319,329.639h-9.5A17.156,17.156,0,0,0,416.2,339.7l-15.32,40.575,45.412,2.791Z" transform="translate(-264.483 -178.59)" fill="#3f3fd8"/>
          <g id="Grupo_983586" data-name="Grupo 983586" transform="translate(155.877 151.049)" opacity="0.49" style="mix-blend-mode: multiply;isolation: isolate">
            <g id="Grupo_983585" data-name="Grupo 983585">
              <g id="Grupo_983584" data-name="Grupo 983584" clip-path="url(#clip-path-25)">
                <path id="Trazado_209131" data-name="Trazado 209131" d="M418.99,329.639h2.851l4.978,53.423-25.936-1.594Z" transform="translate(-400.883 -329.639)" fill="#3f3fd8"/>
              </g>
            </g>
          </g>
          <g id="Grupo_983589" data-name="Grupo 983589" transform="translate(210.233 185.15)" opacity="0.64" style="mix-blend-mode: multiply;isolation: isolate">
            <g id="Grupo_983588" data-name="Grupo 983588">
              <g id="Grupo_983587" data-name="Grupo 983587" clip-path="url(#clip-path-26)">
                <path id="Trazado_209132" data-name="Trazado 209132" d="M335.366,444.408h-.005a.965.965,0,0,1-.965-.96L334.179,405a.96.96,0,0,1,.291-.694l.675.688.231-.935a.983.983,0,0,1,.734.93l.216,38.447a.966.966,0,0,1-.96.971" transform="translate(-334.179 -404.06)" fill="#7789f2"/>
              </g>
            </g>
          </g>
          <path id="Trazado_209133" data-name="Trazado 209133" d="M266.14,211.2c5.446-5.032,11.326-1.608,12.992,2.345s.213,8.646-3.065,11.7-7.793,2.981-12.537,3c-.3-7.511-1.314-10.08,2.61-17.039" transform="translate(-34.917 -113.058)" fill="#fcc5be"/>
          <g id="Grupo_983592" data-name="Grupo 983592" transform="translate(169.352 211.819)" style="mix-blend-mode: multiply;isolation: isolate">
            <g id="Grupo_983591" data-name="Grupo 983591">
              <g id="Grupo_983590" data-name="Grupo 983590" clip-path="url(#clip-path-27)">
                <path id="Trazado_209134" data-name="Trazado 209134" d="M389.686,495.912a.644.644,0,0,0,.467-1.086l-30.64-32.367a.644.644,0,0,0-.935.885l30.64,32.367a.643.643,0,0,0,.467.2" transform="translate(-358.403 -462.259)" fill="#fcc5be"/>
              </g>
            </g>
          </g>
          <g id="Grupo_983595" data-name="Grupo 983595" transform="translate(233.914 99.204)" opacity="0.7" style="mix-blend-mode: multiply;isolation: isolate">
            <g id="Grupo_983594" data-name="Grupo 983594">
              <g id="Grupo_983593" data-name="Grupo 983593" clip-path="url(#clip-path-28)">
                <path id="Trazado_209135" data-name="Trazado 209135" d="M271.427,229a.629.629,0,0,0,.251-.074,11.928,11.928,0,0,0,6.166-7.484,11.424,11.424,0,0,0,.349-4.4.648.648,0,0,0-.737-.533c-.351.057-.335,8.035-6.385,11.286a.643.643,0,0,0,.356,1.208" transform="translate(-270.731 -216.497)" fill="#fcc5be"/>
              </g>
            </g>
          </g>
          <g id="Grupo_983598" data-name="Grupo 983598" transform="translate(215.045 65.131)" opacity="0.51" style="mix-blend-mode: overlay;isolation: isolate">
            <g id="Grupo_983597" data-name="Grupo 983597">
              <g id="Grupo_983596" data-name="Grupo 983596" clip-path="url(#clip-path-29)">
                <path id="Trazado_209136" data-name="Trazado 209136" d="M260.677,170.606a4.748,4.748,0,0,1,1.259,5.744l-.023.049a4.787,4.787,0,0,1-1.217,1.559c1.212.4,2.419.81,3.6,1.276,4.306,1.695,8.578,4.4,10.337,8.685a11.11,11.11,0,0,1-1.584,10.952,10.961,10.961,0,0,1-5.147,3.5,20.583,20.583,0,0,1-4.214,11.75,16.35,16.35,0,0,1-8.17,5.405,46.324,46.324,0,0,0-.237-4.692,12.83,12.83,0,0,0,2.327-4.4,20.411,20.411,0,0,0,.565-7.793,25.632,25.632,0,0,1-3.65,7.422,41.2,41.2,0,0,0-8.336-17.243c-12.826-15.927-15.826-35.111-15.522-50.622,8.252-.5,20.762,2.019,26.484,7.33,5.425,5.036,5.637,13.558,3.526,21.074m-.179,9.921a42.518,42.518,0,0,1,6.763,14.392c.165.718.3,1.447.4,2.181a11.75,11.75,0,0,0,.738-4.786,16.145,16.145,0,0,0-5.769-10.874,24.942,24.942,0,0,0-2.208-1.7q.054.395.073.791" transform="translate(-230.647 -142.138)" fill="#c2a9ff"/>
              </g>
            </g>
          </g>
          <g id="Grupo_983601" data-name="Grupo 983601" transform="translate(219.064 152.874)" opacity="0.51" style="mix-blend-mode: overlay;isolation: isolate">
            <g id="Grupo_983600" data-name="Grupo 983600">
              <g id="Grupo_983599" data-name="Grupo 983599" clip-path="url(#clip-path-30)">
                <path id="Trazado_209137" data-name="Trazado 209137" d="M174.819,333.622a18.088,18.088,0,0,1,5.659,4.294l27.7,34.158-9.112,4.882,31.348,43.369-23.16,16.74L177.4,395.756l-3.747-5.184-.289.155c-1.544,4.579-3.38,9.364-5.187,13.366l-13.185-30.452s15.628-18.269,19.831-40.019" transform="translate(-154.988 -333.622)" fill="#c2a9ff"/>
              </g>
            </g>
          </g>
          <path id="Trazado_209138" data-name="Trazado 209138" d="M170.532,590.835h61.78V580.08h-61.78a5.378,5.378,0,1,0,0,10.755" transform="translate(57.519 -314.273)" fill="#09066a"/>
          <path id="Trazado_209139" data-name="Trazado 209139" d="M35.285,523.116h66.691a7.633,7.633,0,0,0,7.445-5.949L121.355,464.4a7.633,7.633,0,0,0-7.445-9.317H47.22a7.633,7.633,0,0,0-7.445,5.95L27.84,513.8a7.633,7.633,0,0,0,7.445,9.317" transform="translate(231.293 -246.554)" fill="#7789f2"/>
          <path id="Trazado_209140" data-name="Trazado 209140" d="M190.045,513.8l11.934-52.764a7.634,7.634,0,0,1,7.445-5.95h7.658a7.633,7.633,0,0,0-7.445,5.95L197.7,513.8a7.633,7.633,0,0,0,7.445,9.317h-7.658a7.633,7.633,0,0,1-7.445-9.317" transform="translate(61.43 -246.553)" fill="#09066a"/>
          <g id="Grupo_983604" data-name="Grupo 983604" transform="translate(260.24 208.531)" opacity="0.85" style="mix-blend-mode: multiply;isolation: isolate">
            <g id="Grupo_983603" data-name="Grupo 983603">
              <g id="Grupo_983602" data-name="Grupo 983602" clip-path="url(#clip-path-31)">
                <path id="Trazado_209141" data-name="Trazado 209141" d="M27.649,519.723c93.719,0,70.611-59.715,66.872-64.638h18.091a7.633,7.633,0,0,1,7.445,9.317l-11.934,52.764a7.633,7.633,0,0,1-7.445,5.95H33.987a7.6,7.6,0,0,1-6.338-3.393" transform="translate(-27.649 -455.085)" fill="#cacffc"/>
              </g>
            </g>
          </g>
          <path id="Trazado_209142" data-name="Trazado 209142" d="M93.1,501.967a.964.964,0,0,1,.845-.7q.452-.04.9-.039a11.967,11.967,0,0,1,8.355,3.654,11.242,11.242,0,1,1-6.731,7.451,9.38,9.38,0,0,1-.881-.779,10.021,10.021,0,0,1-2.49-9.584" transform="translate(204.564 -271.551)" fill="#f5fdff"/>
          <path id="Trazado_209143" data-name="Trazado 209143" d="M119.067,501.047q-.407,0-.816.036a9.084,9.084,0,0,0,2.247,8.647,11.047,11.047,0,0,0,8.056,2.883q.742,0,1.513-.063c.345-5.941-5.1-11.5-11-11.5m0-1.93h0a13,13,0,0,1,9.333,4.223,12.681,12.681,0,0,1,3.592,9.322,1.93,1.93,0,0,1-1.769,1.812c-.564.046-1.126.07-1.671.07-3.932,0-7.192-1.2-9.428-3.456a11,11,0,0,1-2.734-10.521,1.93,1.93,0,0,1,1.69-1.405c.326-.028.657-.044.985-.044" transform="translate(180.338 -270.409)" fill="#7789f2"/>
          <path id="Trazado_209144" data-name="Trazado 209144" d="M303.112,533.044l25.72,13.532,6.936,14.13a4.347,4.347,0,0,1-6.42,5.46l-1.129-.8a3.689,3.689,0,0,1-2.362,5.176l-.191.051a3.689,3.689,0,0,1-2.978-.478l-2.251-1.475a2.071,2.071,0,0,1-1.574,2.812,6.349,6.349,0,0,1-6.637-3.216l-5.307-9.716-6.66-3.423,3.245,9.937a3.806,3.806,0,1,1-6.25,4.346l-5.775-8.33-4.372-14.472Z" transform="translate(-102.264 -288.79)" fill="#fcc5be"/>
          <g id="Grupo_983607" data-name="Grupo 983607" transform="translate(209.734 256.242)" style="mix-blend-mode: multiply;isolation: isolate">
            <g id="Grupo_983606" data-name="Grupo 983606">
              <g id="Grupo_983605" data-name="Grupo 983605" clip-path="url(#clip-path-32)">
                <path id="Trazado_209145" data-name="Trazado 209145" d="M319.368,580.182a.643.643,0,0,0,.556-.965l-8.592-14.877a.631.631,0,0,0-.192-.208l-6.986-4.813a.643.643,0,1,0-.73,1.059l6.866,4.73,8.519,14.751a.642.642,0,0,0,.558.322" transform="translate(-303.147 -559.206)" fill="#fcc5be"/>
              </g>
            </g>
          </g>
          <g id="Grupo_983610" data-name="Grupo 983610" transform="translate(204.011 261.376)" style="mix-blend-mode: multiply;isolation: isolate">
            <g id="Grupo_983609" data-name="Grupo 983609">
              <g id="Grupo_983608" data-name="Grupo 983608" clip-path="url(#clip-path-33)">
                <path id="Trazado_209146" data-name="Trazado 209146" d="M334.293,589.526a.644.644,0,0,0,.571-.939L329.076,577.4a.673.673,0,0,0-.152-.192l-7.73-6.641a.644.644,0,0,0-.839.977l7.636,6.56,5.73,11.077a.645.645,0,0,0,.572.347" transform="translate(-320.131 -570.41)" fill="#fcc5be"/>
              </g>
            </g>
          </g>
        </g>
      </g>
    </g>
  </g>
</svg>
