<svg id="Grupo_983361" data-name="Grupo 983361" xmlns="http://www.w3.org/2000/svg" xmlns:xlink="http://www.w3.org/1999/xlink" width="292.985" height="306.103" viewBox="0 0 292.985 306.103">
  <defs>
    <clipPath id="clip-path">
      <rect id="Rectángulo_338749" data-name="Rectángulo 338749" width="292.985" height="306.103" fill="none"/>
    </clipPath>
  </defs>
  <g id="Grupo_983360" data-name="Grupo 983360" clip-path="url(#clip-path)">
    <path id="Trazado_208750" data-name="Trazado 208750" d="M257.774,159.339A128.887,128.887,0,1,1,128.887,30.452,128.886,128.886,0,0,1,257.774,159.339" transform="translate(0 17.877)" fill="#ffca66"/>
    <path id="Trazado_208751" data-name="Trazado 208751" d="M63.536,111.655l-.678,24.738s11.182,8.472,34.565.678L95.05,107.589s-26.771-4.744-31.514,4.066" transform="translate(36.902 62.413)" fill="#a54544"/>
    <path id="Trazado_208752" data-name="Trazado 208752" d="M68.537,141.083s-20.476,3.982-35.726-18.6-.852-31.13,9.6-26.5c0,0-11.487-16.851-2.227-38.912s42.5-27.22,47.818-36.1S86.955,1.791,96.1.074,136.273,27.133,121.9,58.9c0,0,19.864-1.8,19.967,29.813s-34.828,53.152-73.333,52.375" transform="translate(15.366 0.001)" fill="#2b2726"/>
    <path id="Trazado_208753" data-name="Trazado 208753" d="M90,78.6s1.347-10.919,7.059-12.925,14.691,19.351,2.7,28.992S90,78.6,90,78.6" transform="translate(52.739 38.477)" fill="#a54544"/>
    <path id="Trazado_208754" data-name="Trazado 208754" d="M53.245,87.808s-6.44-8.921-12.412-7.927-3.553,24.036,11.6,26.707.809-18.78.809-18.78" transform="translate(22.202 46.85)" fill="#a54544"/>
    <path id="Trazado_208755" data-name="Trazado 208755" d="M73.082,49.466C58.629,52.884,40.492,60.5,42.968,76.212c2.058,13.063,10.955,85.7,55.734,76.458s13.593-90.252,10.76-96.517c-5.64-12.474-21.8-10.135-36.38-6.688" transform="translate(25.09 27.429)" fill="#a54544"/>
    <path id="Trazado_208756" data-name="Trazado 208756" d="M74.395,86.435c1.473-.624,2.952-1.232,4.418-1.87.625-.273,1.241-.584,1.874-.836,1.308-.522,1.835.4,1.681,1.587-.379,2.881-2.568,4.041-4.563,5.691-.568.47.056,1.176.622,1.111,3.263-.371,6.318-5.169,5.509-8.307A2.362,2.362,0,0,0,81,81.96a14.09,14.09,0,0,0-2.917,1.317c-1.427.7-2.841,1.435-4.26,2.152-.676.341-.1,1.29.57,1.006" transform="translate(43.162 48.073)" fill="#821e16"/>
    <path id="Trazado_208757" data-name="Trazado 208757" d="M64.114,97.746a39.219,39.219,0,0,0,12.374,2.82c3.588.138,7.983-.2,10.94-2.436.592-.448-.04-1.346-.67-1.2-1.673.4-3.247,1.092-4.945,1.425a24.792,24.792,0,0,1-6.032.354,56.718,56.718,0,0,1-11.37-1.99.533.533,0,0,0-.3,1.024" transform="translate(37.426 56.77)" fill="#821e16"/>
    <path id="Trazado_208758" data-name="Trazado 208758" d="M72.061,102.775a10.956,10.956,0,0,0,7.915-.748c.538-.322.384-1.314-.319-1.271-1.138.068-2.233.4-3.361.56-1.349.192-2.706.189-4.06.325-.611.06-.854.936-.175,1.133" transform="translate(42.064 59.15)" fill="#821e16"/>
    <path id="Trazado_208759" data-name="Trazado 208759" d="M64.621,100.712a13.255,13.255,0,0,1,.244-2.744c.214-.851.611-1.635.8-2.489a.507.507,0,0,0-.833-.5c-1.622,1.273-1.841,4.169-1.03,5.937.187.409.8.2.816-.2" transform="translate(37.189 55.685)" fill="#821e16"/>
    <path id="Trazado_208760" data-name="Trazado 208760" d="M46.886,95.72a35.653,35.653,0,0,1-2.408-3.5c-.66-1.3-1.938-4.212-.578-5.367a.459.459,0,0,0-.192-.765c-2.154-.378-1.862,2.428-1.558,3.75.557,2.431,1.989,5.16,4.272,6.337.273.141.663-.154.463-.452" transform="translate(24.622 50.517)" fill="#821e16"/>
    <path id="Trazado_208761" data-name="Trazado 208761" d="M96.531,84.954a12.079,12.079,0,0,0,1.036-7.364c-.246-2.152-.589-4.8-2.552-6.072-.736-.478-1.649.632-.967,1.225,3.054,2.655,2.758,8.345,1.827,11.925-.1.384.452.655.655.286" transform="translate(55.072 41.917)" fill="#821e16"/>
    <path id="Trazado_208762" data-name="Trazado 208762" d="M67.815,77.624a5.161,5.161,0,0,0-4.431-1.5c.659-.444,1.436-.8,2.185-1.273.176-.111.092-.278-.078-.309-1.792-.325-3.807,1.2-4.628,2.325-.087.121-.168.251-.246.382-1.344.9-1.274,2.976-1.178,3.95A4.561,4.561,0,0,0,63.4,85.22c2.114.438,4.649-.19,5.571-1.957a4.8,4.8,0,0,0-1.159-5.639m-3.933.167c.94-.136,1.865.349,1.538,1.087a1.887,1.887,0,0,1-3,.682,1.141,1.141,0,0,1-.16-.17,1.829,1.829,0,0,1,.181-.594,1.766,1.766,0,0,1,.579-.67c.289-.111.576-.224.865-.336" transform="translate(34.868 43.734)" fill="#2b2726"/>
    <path id="Trazado_208763" data-name="Trazado 208763" d="M65.566,82.61c-.792-.11-1.592-.07-2.385-.159a10.64,10.64,0,0,0-2.317-.262.376.376,0,0,0-.273.628c1.079,1.192,3.649,1.47,5.118,1.071a.653.653,0,0,0-.143-1.279" transform="translate(35.509 48.24)" fill="#821e16"/>
    <path id="Trazado_208764" data-name="Trazado 208764" d="M77.2,80.96c1.647,1.12,4.179.476,5.836-.908a4.559,4.559,0,0,0,1.59-5.417c-.373-.9-1.293-2.766-2.9-2.925a4.271,4.271,0,0,0-.4-.221c-1.254-.6-3.75-1-5.177.138-.133.106-.13.3.078.308.882.06,1.736.01,2.528.089a5.162,5.162,0,0,0-3.2,3.417A4.808,4.808,0,0,0,77.2,80.96m2.823-7.34a1.761,1.761,0,0,1,.827.316,1.826,1.826,0,0,1,.44.438,1.163,1.163,0,0,1-.06.225,1.888,1.888,0,0,1-2.969.817c-.638-.5-.051-1.362.843-1.685l.92-.111" transform="translate(44.206 41.625)" fill="#2b2726"/>
    <path id="Trazado_208765" data-name="Trazado 208765" d="M79.295,79.527c.646-.47,1.37-.813,2.027-1.268a10.825,10.825,0,0,1,1.919-1.325.377.377,0,0,1,.538.427c-.389,1.558-2.522,3.019-4.006,3.361a.653.653,0,0,1-.478-1.2" transform="translate(46.375 45.146)" fill="#821e16"/>
    <path id="Trazado_208766" data-name="Trazado 208766" d="M89.861,69.3a57.351,57.351,0,0,0-7.708-2.293c-2.644-.6-5.763-.037-8.294-1.1-3.031-1.271-3.488-5.661.092-6.662,3.526-.987,7.067.889,10.072,2.5a18.849,18.849,0,0,1,6.845,6.272A.891.891,0,0,1,89.861,69.3" transform="translate(41.93 34.622)" fill="#2b2726"/>
    <path id="Trazado_208767" data-name="Trazado 208767" d="M53.022,79.257a57.6,57.6,0,0,1,5.71-5.664c2.044-1.779,5.061-2.754,6.789-4.885,2.073-2.552.4-6.637-3.226-5.828-3.576.8-5.81,4.123-7.7,6.959A18.838,18.838,0,0,0,51.529,78.6a.891.891,0,0,0,1.493.655" transform="translate(30.248 36.853)" fill="#2b2726"/>
    <path id="Trazado_208768" data-name="Trazado 208768" d="M59.089,93.824a68.237,68.237,0,0,1,7.4.619l-1.608-3.95c.6-.833.4-.5-.273-.721a14.971,14.971,0,0,0-1.692-.214,8.826,8.826,0,0,1-2.566-.806l1.143,1.143c-.049-.079-.1-.16-.149-.241q.162,1.236.324,2.468c.03-.094.059-.187.089-.281q-.414.707-.827,1.417c-.343.292,1.62.181,1.816.186q.7.019,1.387.073c.6.046,1.166.43.663-.156l-.86-1.476c.036.119.073.236.11.354V90.46c-.027.116-.052.233-.079.349l.862-1.478c.579-.567-.579.027-.936.09a7.825,7.825,0,0,1-1.635.1,7.253,7.253,0,0,1-3.134-.863q.352,2.728.7,5.456-1.176.479-.083.322c.509-.014,1.017-.032,1.527-.054.763-.025,1.527-.046,2.29-.056,1.9-.024,3.588-.057,5.007-1.514a2.827,2.827,0,0,0,0-3.9c-1.79-2.033-4.831-1.638-7.3-1.6-2.4.036-4.5.24-6.358,1.892-1.555,1.382-1.282,4.555.7,5.456,3.847,1.747,9.191,2.558,13.016.189a4.091,4.091,0,0,0,.894-6.212c-1.571-1.736-4.244-1.755-6.431-1.817-2.211-.062-4.766.076-6.478,1.673a3.59,3.59,0,0,0,.2,5.518c1.728,1.3,4.641,1.493,6.728,1.508,2.165.016,4.9-.113,5.986-2.306.855-1.731-.156-4.131-2.322-4.045q-4.066.162-8.11.646c-2.506.3-2.654,3.928,0,4.017" transform="translate(31.646 50.959)" fill="#f96353"/>
    <path id="Trazado_208769" data-name="Trazado 208769" d="M85.2,87.5c1.144-.316,3.069-1.325,4.231-.844q-.564-.329-1.128-.659c.056.07.11.14.165.208q-.383-.928-.768-1.855c0,.081-.008.162-.011.244l.786-1.9a4.518,4.518,0,0,1-1.479.916,4.941,4.941,0,0,1-.855.208c.076-.013.627.2,0-.035l1.428.833.2.257q.164,1.257.33,2.516c.021-.127.041-.252.062-.378q-.424.724-.844,1.449a8.968,8.968,0,0,1,4.52-1.871q-1.455-.836-2.909-1.668c.043.071.084.144.127.216q-.169-1.3-.34-2.595c-.03.1-.06.192-.089.289q.431-.745.865-1.487a7.1,7.1,0,0,1-4.107,2.133h1.851l-.338-.092q.769.448,1.538.9c-1.028-.828-2.082-1.482-3.488-1.019a3.517,3.517,0,0,0-2.376,4.185c.013.075.024.151.037.227a3.387,3.387,0,0,0,2.436,2.435c3.853.844,13.728-4.718,9.175-9.27-2.014-2.016-5.517-.532-7.712.421-2.233.97-4.906,2.462-4.818,5.261.092,3,3.19,4.137,5.717,3.452a8.783,8.783,0,0,0,5.193-3.693A3.111,3.111,0,0,0,89.5,81.62a9.231,9.231,0,0,0-5.94,3.063A1.7,1.7,0,0,0,85.2,87.5" transform="translate(47.949 46.866)" fill="#f96353"/>
    <path id="Trazado_208770" data-name="Trazado 208770" d="M62.627,76.472c-1.217.306-2.531,2.174-.8,2.938s3.317-.747,3.015-1.612a1.786,1.786,0,0,0-2.214-1.325" transform="translate(35.807 44.854)" fill="#fff"/>
    <path id="Trazado_208771" data-name="Trazado 208771" d="M78.447,72.271c-1.217.306-2.531,2.174-.8,2.938s3.317-.749,3.015-1.612a1.786,1.786,0,0,0-2.214-1.325" transform="translate(45.094 42.388)" fill="#fff"/>
    <path id="Trazado_208772" data-name="Trazado 208772" d="M91.668,24.767c-.652,3-.806,6.1-1.5,9.113a40.939,40.939,0,0,1-3,8.732c-2.416,4.928-5.947,9.34-10.843,11.952-.578.308-.071,1.14.506.868A24.958,24.958,0,0,0,88.545,43.8a37.529,37.529,0,0,0,3.811-18.937c-.035-.367-.6-.508-.687-.094" transform="translate(44.658 14.392)" fill="#514b4a"/>
    <path id="Trazado_208773" data-name="Trazado 208773" d="M71.886,47.855c4.639-1.611,9.851-4.9,12.02-9.5.179-.381-.286-.813-.613-.475a66.462,66.462,0,0,1-5.017,5.28,29.205,29.205,0,0,1-6.634,4.122c-.322.146-.094.692.243.575" transform="translate(41.968 22.166)" fill="#514b4a"/>
    <path id="Trazado_208774" data-name="Trazado 208774" d="M34.005,71.417c2.184,2.836,6.363,6.353,10.238,5.9.292-.035.516-.475.171-.633-1.679-.773-3.506-1.013-5.175-1.889A15.942,15.942,0,0,1,34.538,71c-.248-.287-.77.1-.533.413" transform="translate(19.928 41.625)" fill="#514b4a"/>
    <path id="Trazado_208775" data-name="Trazado 208775" d="M35.479,69.917c1.968,2.246,4.887,4.528,7.986,4.726a.465.465,0,0,0,.233-.86c-1.3-.6-2.682-.949-3.957-1.611a18.8,18.8,0,0,1-3.863-2.657.284.284,0,0,0-.4.4" transform="translate(20.782 40.763)" fill="#514b4a"/>
    <path id="Trazado_208776" data-name="Trazado 208776" d="M91.517,61.912A13.976,13.976,0,0,0,96.041,52.7a.429.429,0,0,0-.838-.114,36.64,36.64,0,0,1-1.652,4.937,31.24,31.24,0,0,1-2.592,3.961c-.243.351.268.678.557.43" transform="translate(53.362 30.695)" fill="#514b4a"/>
    <path id="Trazado_208777" data-name="Trazado 208777" d="M93.784,62.569c1.681-2.243,3.5-5.5,3.225-8.416a.459.459,0,0,0-.9-.122c-.451,1.306-.594,2.7-1.051,4.014A17.341,17.341,0,0,1,92.988,62.1c-.34.5.449.932.8.467" transform="translate(54.541 31.529)" fill="#514b4a"/>
    <path id="Trazado_208778" data-name="Trazado 208778" d="M167.694,90.236l9.783-18.462-27.3-12.949-5.912,8.445-.844,13.793,16.89,14.355Z" transform="translate(84.195 34.534)" fill="#a54544"/>
    <path id="Trazado_208779" data-name="Trazado 208779" d="M249.473,130.676a128.451,128.451,0,0,0-10.667-51.4l-6.213,1.359,9.276,62.529-62.527-1.374c-95.854-5.84-139.83,22.674-139.83,22.674a387.423,387.423,0,0,0-25.372,38.9,129.663,129.663,0,0,0,22.374,25.009l9.526-11.34,12.6,25.011,110.818,7.927c.214-.089.43-.175.644-.263l6.494-58.442c10.957-2.274,42.814-12.509,66.45-20.3a128.786,128.786,0,0,0,6.429-40.283" transform="translate(8.301 46.54)" fill="#a54544"/>
    <path id="Trazado_208780" data-name="Trazado 208780" d="M13.736,203.184s8.494-14.972,26.015-38.334c0,0,43.976-28.516,139.828-22.674l62.529,1.373-9.276-62.527,10.994-2.4s25.423,32.638,27.14,83.484c0,0-75.927,25.768-94.135,29.546L170.3,250.4l-111.429-7.97L46.279,217.414l-10.556,8.445Z" transform="translate(8.064 46.153)" fill="#a54544"/>
    <path id="Trazado_208781" data-name="Trazado 208781" d="M132.587,118.5s5.956,59.993-22.551,68.077S62.809,153.819,59.4,127.864l-11.487,2.127s4.255,59.142-10.637,80.416l2.481,8.354a129.067,129.067,0,0,0,120.8,7.286l3.087-34.362s-19.876-47.894-19.876-75.125Z" transform="translate(21.886 68.429)" fill="#5e77bc"/>
    <rect id="Rectángulo_338746" data-name="Rectángulo 338746" width="40.167" height="68.089" transform="matrix(0.58, -0.815, 0.815, 0.58, 198.609, 82.913)" fill="#7c89ae"/>
    <rect id="Rectángulo_338747" data-name="Rectángulo 338747" width="30.86" height="53.393" transform="translate(204.757 81.88) rotate(-54.543)" fill="#bde8ef"/>
    <rect id="Rectángulo_338748" data-name="Rectángulo 338748" width="23.758" height="23.757" transform="translate(209.739 81.218) rotate(-54.541)" fill="#5e77bc"/>
    <path id="Trazado_208782" data-name="Trazado 208782" d="M163.565,96.051l-26.179-7.6L141.609,63.4s10.7-2.815,14.355-9.008c0,0,6.756,7.037-5.629,14.637l-.563,5.348s9.852.281,14.637,6.756-.844,14.918-.844,14.918" transform="translate(80.654 31.931)" fill="#a54544"/>
    <path id="Trazado_208783" data-name="Trazado 208783" d="M179.769,54.434c1.4-2.384-1.936-4.19-4.437-3.054-2.43,1.1-12.276,12.565-8.98,16.312s12.016-10.875,13.417-13.258" transform="translate(97.267 29.959)" fill="#a54544"/>
    <path id="Trazado_208784" data-name="Trazado 208784" d="M175.357,50.235a9.156,9.156,0,0,0-2.068,1.649c1.047-1.624,1.843-2.961,2.189-3.55,1.4-2.385-1.936-4.19-4.436-3.054-1.252.568-4.466,3.882-6.843,7.473a91.325,91.325,0,0,0,3.684-8.472c.986-2.6-2.542-3.926-4.791-2.416-2.187,1.468-9.938,14.447-6.144,17.727,1.557,1.347,3.514-.555,5.347-3.446-.987,2.214-1.3,4.233-.233,5.444,1.209,1.374,3.149.275,5.19-1.784-1.458,2.7-2.146,5.294-.874,6.739,3.3,3.747,12.016-10.873,13.419-13.258s-1.936-4.188-4.437-3.054" transform="translate(91.533 24.204)" fill="#a54544"/>
    <path id="Trazado_208785" data-name="Trazado 208785" d="M93.078,76.266s-1.587-5.42,3.392-5.1,7.942,10.37,3.18,14.368-2.343-4.852-2.343-4.852-3.244,2.919-4.23-4.415" transform="translate(54.501 41.77)" fill="#fff"/>
    <path id="Trazado_208786" data-name="Trazado 208786" d="M49.419,89.586s-1.309-5.494-5.474-2.747-1.755,12.942,4.361,14.055-.37-5.375-.37-5.375,4.263.927,1.482-5.932" transform="translate(24.577 50.528)" fill="#fff"/>
    <path id="Trazado_208787" data-name="Trazado 208787" d="M88.316,138.777c-3.826.736-3.522,2.595-2.409,8.342s1.671,7.245,5,6.488c4.079-.927,3.338-3.523,2.781-6.674s-.555-9.083-5.375-8.156" transform="translate(50.001 81.414)" fill="#fff"/>
    <path id="Trazado_208788" data-name="Trazado 208788" d="M72.788,113.7c4.426,1.12,11.035,1.447,14.825-1.609.411-.33-.057-.835-.454-.779-2.354.325-4.542,1.368-6.943,1.647a27.261,27.261,0,0,1-7.189-.119c-.554-.084-.809.716-.238.86" transform="translate(42.542 65.343)" fill="#821e16"/>
    <path id="Trazado_208789" data-name="Trazado 208789" d="M63.928,131.28c4.725-.394,9.459-.7,14.192-1,1.8-.116,3.885-.343,5.55.484,1.4.7,2.184,2.255,3.841,2.457a3.55,3.55,0,0,0,2.642-.827c1.03-.865.789-1.676,1.149-2.76.706-2.112,5.123-2.108,6.953-2.471a44.185,44.185,0,0,0,7.1-1.652c.441-.168.419-.894-.119-.878a36.781,36.781,0,0,0-6.077.967c-2.235.446-4.528.782-6.735,1.343a2.969,2.969,0,0,0-2.285,1.455c-.4.868.076,1.758-.679,2.59-1.246,1.373-2.428.244-3.384-.624-2.279-2.071-4.8-2.033-7.729-1.639-4.806.646-9.6,1.351-14.415,1.936-.386.048-.4.652,0,.619" transform="translate(37.356 73.167)" fill="#821e16"/>
    <path id="Trazado_208790" data-name="Trazado 208790" d="M36.264,169.529c1.451-2.039,2.906-4.071,4.4-6.078,1.454-1.954,3.3-3.884,4.368-6.069a.535.535,0,0,0-.836-.646c-1.758,1.56-3.033,3.823-4.342,5.761q-2.209,3.266-4.247,6.648c-.257.427.378.776.657.384" transform="translate(20.868 91.927)" fill="#821e16"/>
    <path id="Trazado_208791" data-name="Trazado 208791" d="M117.858,155.3A94.075,94.075,0,0,1,119,145.383c.506-2.8,1.608-5.628,1.8-8.457a.45.45,0,0,0-.832-.225c-1.541,2.614-1.963,6.166-2.408,9.124a49.159,49.159,0,0,0-.538,9.473.416.416,0,0,0,.832,0" transform="translate(68.677 80.129)" fill="#821e16"/>
    <path id="Trazado_208792" data-name="Trazado 208792" d="M157.1,80.915a20.322,20.322,0,0,1,.694,2.56c.165.867.132,1.771.352,2.622a.415.415,0,0,0,.794,0c.362-1.766-.4-3.893-1.2-5.452a.351.351,0,0,0-.64.27" transform="translate(92.219 47.244)" fill="#821e16"/>
    <path id="Trazado_208793" data-name="Trazado 208793" d="M160.63,43.831a16.031,16.031,0,0,0,1.89,1c.5.2.724-.543.344-.816a15.7,15.7,0,0,0-1.763-.987c-.53-.281-1,.511-.471.806" transform="translate(94.165 25.224)" fill="#821e16"/>
    <path id="Trazado_208794" data-name="Trazado 208794" d="M165.521,46l.822.567a1.855,1.855,0,0,0,.941.438.54.54,0,0,0,.463-.809,1.847,1.847,0,0,0-.844-.587L166,45.19a.472.472,0,0,0-.476.814" transform="translate(97.04 26.498)" fill="#821e16"/>
    <path id="Trazado_208795" data-name="Trazado 208795" d="M168.585,48.907a11.081,11.081,0,0,0,1.925,1.2.636.636,0,0,0,.64-1.1,11.1,11.1,0,0,0-1.987-1.1.574.574,0,0,0-.578.99" transform="translate(98.813 28.093)" fill="#821e16"/>
    <path id="Trazado_208796" data-name="Trazado 208796" d="M172.36,53.758a16.172,16.172,0,0,0,2.112,1.216.649.649,0,0,0,.775-.379.672.672,0,0,0-.268-.819,15.376,15.376,0,0,0-1.984-1.1.628.628,0,0,0-.635,1.084" transform="translate(101.008 30.875)" fill="#821e16"/>
    <path id="Trazado_208797" data-name="Trazado 208797" d="M45.048,95.447c.963,5.948,3.544,11.284,6.688,16.377A111.066,111.066,0,0,0,62.5,127.041c4.585,5.194,10.462,9.364,15.8,13.742,5.228,4.288,10.338,8.835,15.821,12.793,2.957,2.135,6.369,3.5,9.341,5.586a19.624,19.624,0,0,1,6.923,9.191.467.467,0,0,0,.9-.249c-1.317-5.38-5.312-9.384-9.96-12.128-6.077-3.585-11.357-7.938-16.8-12.411-5.513-4.531-11.163-8.929-16.558-13.6-5.106-4.422-8.881-9.957-12.647-15.514-4.026-5.939-7.605-12.243-9.4-19.242-.148-.575-.962-.322-.871.24" transform="translate(26.442 55.702)" fill="#fff"/>
    <path id="Trazado_208798" data-name="Trazado 208798" d="M88.016,176.7c.17-2.065-.13-4.152.013-6.231a37.207,37.207,0,0,1,1.147-6.743,124.378,124.378,0,0,1,4.152-12.181,166.793,166.793,0,0,0,6.955-24.688c1.685-8.221,2.985-16.525,4.084-24.842.936-7.089,2.243-14.755-1.658-21.221-.454-.754-1.644-.063-1.182.692,4.33,7.075,2.149,15.917.922,23.566-1.363,8.492-2.636,16.99-4.531,25.385a184.862,184.862,0,0,1-7.4,24.079,71.166,71.166,0,0,0-3.6,11.862c-.616,3.328-1.176,7.369.233,10.557.206.465.836.175.87-.235" transform="translate(50.643 47.239)" fill="#fff"/>
    <path id="Trazado_208799" data-name="Trazado 208799" d="M45.487,186.331c3.785-3.953,7.418-8.037,10.949-12.219l-.933.121c3.917,2.814,7.953,5.479,11.944,8.186a.83.83,0,0,0,1.113-.292,110.015,110.015,0,0,1,8.826-11.03H76.276a31.648,31.648,0,0,0,15.206,10.1.752.752,0,0,0,.749-.2c2.868-3.592,5.818-7.118,8.776-10.635,1.038-1.233,1.906-1.328,3.249-.444q1.352.89,2.714,1.763,2.895,1.854,5.836,3.639c1.839,1.116,3.676,2.273,5.572,3.29,1.057.567,2.173.981,3.284.309,1.611-.971,2.847-3.138,4.042-4.553q2.366-2.8,4.731-5.6c.608-.719-.428-1.765-1.04-1.04q-3.059,3.626-6.117,7.25c-1.373,1.625-1.99,3.227-4.512,2.165a32.387,32.387,0,0,1-3.834-2.257q-3.818-2.288-7.558-4.7c-1.4-.9-3.665-3.266-5.5-2.676-.952.306-1.584,1.4-2.185,2.12q-1.614,1.916-3.219,3.844-1.336,1.607-2.665,3.219c-.522.632-1.028,1.339-1.595,1.933-.692.724-.616.827-1.649.654-2.35-.394-5.007-2.2-6.948-3.533a30.508,30.508,0,0,1-6.231-5.761.789.789,0,0,0-1.109,0,115.619,115.619,0,0,0-9.119,11.319l1.111-.29c-3.98-2.722-7.937-5.5-11.989-8.113a.771.771,0,0,0-.933.121c-3.358,4.334-6.893,8.53-10.548,12.619-.416.465.252,1.144.689.689" transform="translate(26.223 98.285)" fill="#ffdda5"/>
    <path id="Trazado_208800" data-name="Trazado 208800" d="M98.227,170.037a23.318,23.318,0,0,1,6.045,5.106c1.066,1.192,2.971,3.826,4.775,3.742.763-.035,1.013-.367,1.436-.932,1.033-1.381,1.817-2.987,2.831-4.4a53.726,53.726,0,0,1,6.831-7.7c.571-.538-.292-1.4-.86-.86a56.294,56.294,0,0,0-5.634,6.178c-.843,1.081-1.652,2.189-2.419,3.323q-.626.928-1.216,1.884c-.608.987-.736,1.249-1.916.451-3.336-2.258-5.16-7.239-9.683-7.505a.384.384,0,0,0-.192.709" transform="translate(57.559 96.763)" fill="#ffdda5"/>
    <path id="Trazado_208801" data-name="Trazado 208801" d="M47.432,190.9c2.99-2.827,6.015-5.615,9-8.453l-.741.1c2.366,1.5,4.766,2.96,7.151,4.434,1.57.97,3.784,3.034,5.674,3.142,1.679.1,2.627-1.866,3.526-3.012l5.142-6.54-.828.106c2.788,1.749,5.556,3.528,8.351,5.267,1.406.874,3.741,3.2,5.542,2.344a10.852,10.852,0,0,0,2.462-2.328q1.826-1.821,3.652-3.646l7.3-7.294c-.279.036-.559.073-.838.108q9.158,6.4,18.3,12.827a.678.678,0,0,0,.824-.106q3.885-4.937,7.773-9.873h-.962a96.883,96.883,0,0,0,8.489,9.546.676.676,0,0,0,.946,0q7.723-8.18,15.9-15.906c.608-.576-.311-1.493-.919-.919q-8.168,7.732-15.928,15.877h.946a101.339,101.339,0,0,1-8.473-9.56.681.681,0,0,0-.962,0q-3.885,4.937-7.773,9.873c.275-.035.549-.07.824-.106q-9.146-6.418-18.283-12.847a.7.7,0,0,0-.838.108q-5.963,5.9-11.924,11.8c-1.238,1.224-1.835,1-3.219.135l-3.49-2.176c-2.327-1.452-4.679-2.86-7.01-4.3a.686.686,0,0,0-.828.108q-2.05,2.623-4.1,5.247c-.684.874-1.36,1.754-2.049,2.623-.835,1.054-1.168,1.393-2.623.794a42.633,42.633,0,0,1-5.386-3.287c-1.916-1.166-3.823-2.349-5.753-3.49a.622.622,0,0,0-.741.1c-2.857,2.96-5.664,5.966-8.511,8.935a.27.27,0,0,0,.381.381" transform="translate(27.576 100.1)" fill="#ffdda5"/>
    <path id="Trazado_208802" data-name="Trazado 208802" d="M218.42,62.953c7.746,7.089,14.215,15.483,17.842,25.42a53.351,53.351,0,0,1,1.884,30.345A51.233,51.233,0,0,1,222.528,145.4c-8.311,7.351-19.391,10.66-27.21,18.673a43.8,43.8,0,0,0-12.127,25.842c-1.259,12.024,3.912,23.931,1.751,35.907-1.757,9.724-8.037,17.416-16.036,22.868-8.583,5.85-19.689,6.129-29.237,2.742-11.724-4.158-21.649-13.031-29.984-22.024a96.9,96.9,0,0,1-19.68-31.384c-.329-.867-1.731-.5-1.408.389,7.473,20.63,23.5,39.354,42.587,50.188,8.98,5.1,19.188,7.87,29.377,5.066a36.9,36.9,0,0,0,21.679-16.307,32.656,32.656,0,0,0,4.607-13.422c.671-6.283-.411-12.558-1.286-18.765-.892-6.336-1.466-12.684-.175-19.01a41.838,41.838,0,0,1,18.88-27.209c5.117-3.277,10.67-5.844,15.6-9.411A51.456,51.456,0,0,0,237.736,125.5c8.343-22.722.133-48.374-18.254-63.606-.732-.606-1.785.4-1.062,1.062" transform="translate(51.984 36.224)" fill="#fff"/>
    <path id="Trazado_208803" data-name="Trazado 208803" d="M158.577,49.418a3.58,3.58,0,0,0-1.1,1.627,2.222,2.222,0,0,0-.151,2.7c1.419,1.644,2.961-1.084,3.358-2.173a2.526,2.526,0,0,0-.1-2.374c-.613-.724-1.428-.267-2.011.219" transform="translate(92.129 28.662)" fill="#fbe4d0"/>
    <path id="Trazado_208804" data-name="Trazado 208804" d="M162.373,50.412a3.594,3.594,0,0,0-1.809,1.9,2.537,2.537,0,0,0,.333,2.727.825.825,0,0,0,1,.129,1.537,1.537,0,0,0,.76-.3A3.491,3.491,0,0,0,163.9,52.72a1.55,1.55,0,0,0-.021-2.2,1.186,1.186,0,0,0-1.506-.108" transform="translate(94.114 29.467)" fill="#fbe4d0"/>
    <path id="Trazado_208805" data-name="Trazado 208805" d="M164.334,53.94a3.2,3.2,0,0,0-1.236,2.344,1.522,1.522,0,0,0,.865,1.5,1.193,1.193,0,0,0,.232.138c.987.421,2.035-.527,2.554-1.286a2.6,2.6,0,0,0,.355-2.631c-.644-1.047-1.962-.7-2.769-.07" transform="translate(95.748 31.314)" fill="#fbe4d0"/>
    <path id="Trazado_208806" data-name="Trazado 208806" d="M169.8,56.541c-.936.217-1.649,1.259-2.138,2.009a2.491,2.491,0,0,0-.43,1.282,1.593,1.593,0,0,0,.057.755.6.6,0,0,0,.414.662,1.492,1.492,0,0,0,2.025-.029,6.3,6.3,0,0,0,1.69-2.669c.341-1.1-.349-2.308-1.619-2.011" transform="translate(98.162 33.166)" fill="#fbe4d0"/>
    <path id="Trazado_208807" data-name="Trazado 208807" d="M145.683,58.81l4.634-3.707a13.51,13.51,0,0,1,.8,3.046c0,.927-4.5,2.912-5.429.662" transform="translate(85.525 32.349)" fill="#fbe4d0"/>
    <path id="Trazado_208808" data-name="Trazado 208808" d="M39.434,198.166c3.385-2.371,4.8-6.274,6.161-10.014a125.608,125.608,0,0,0,4.585-15.91A128.661,128.661,0,0,0,52.6,156.928a82.8,82.8,0,0,0,.4-16.55.442.442,0,0,0-.882,0c-.229,4.987-.092,9.957-.521,14.941a126.432,126.432,0,0,1-2.3,15.426,128.284,128.284,0,0,1-3.868,14.017c-1.455,4.342-2.806,9.727-6.57,12.671-.414.324.132,1.036.565.733" transform="translate(22.732 82.161)" fill="#3f66bc"/>
    <path id="Trazado_208809" data-name="Trazado 208809" d="M48.36,143.261a66.139,66.139,0,0,0-1.233-15.6c-.178-.922-1.555-.524-1.4.386.865,5.047,1.39,10.108,1.779,15.212a.426.426,0,0,0,.852,0" transform="translate(26.838 74.638)" fill="#3f66bc"/>
    <path id="Trazado_208810" data-name="Trazado 208810" d="M49.875,126.58a105.351,105.351,0,0,0,8.754,30.143,103.861,103.861,0,0,0,7.619,13.892c2.557,3.887,5.79,8.3,10.157,10.252.5.224,1.163-.43.646-.836a42.661,42.661,0,0,1-10.029-10.7,106.777,106.777,0,0,1-7.286-13.257,120.132,120.132,0,0,1-9.1-29.6c-.075-.429-.824-.335-.767.1" transform="translate(29.278 74.087)" fill="#3f66bc"/>
    <path id="Trazado_208811" data-name="Trazado 208811" d="M70.32,163.72c4.841,3.4,10.714,4.015,16.459,4.425,2.788.2,5.34.159,7.843-1.211A25.887,25.887,0,0,0,101.8,161.3c.373-.444-.132-1.284-.676-.876-2.216,1.66-4.215,3.558-6.594,5.007-2.585,1.576-5.177,1.587-8.1,1.381-5.4-.381-10.97-.908-15.66-3.855-.489-.306-.9.44-.446.762" transform="translate(41.166 94.116)" fill="#3f66bc"/>
    <path id="Trazado_208812" data-name="Trazado 208812" d="M95.322,175.63c4.728-18.343,8.184-37.467,7.105-56.5a.594.594,0,0,0-1.187,0,243.589,243.589,0,0,1-6.505,56.338.3.3,0,0,0,.587.162" transform="translate(55.61 69.601)" fill="#3f66bc"/>
    <path id="Trazado_208813" data-name="Trazado 208813" d="M123.214,187.5a199.127,199.127,0,0,1-20.064-68.661c-.073-.711-1.186-.728-1.125,0a178.474,178.474,0,0,0,20.418,69.112c.271.509,1.028.06.771-.451" transform="translate(59.894 69.452)" fill="#3f66bc"/>
    <path id="Trazado_208814" data-name="Trazado 208814" d="M143.821,49.425a.355.355,0,0,0,.368-.271c.351-1.379.6-2.788.886-4.182a.464.464,0,0,0-.417-.5,2.4,2.4,0,0,0-1.736.849c-1.06.9-2.087,1.854-3.125,2.784a.528.528,0,0,0,.156.889c2.22,1.117,4.439,2.223,6.677,3.3a1,1,0,0,0-.194,0,1.8,1.8,0,0,0-1.1.652,5.2,5.2,0,0,0-2.868,3.407c-.3,1.449.306,3.28,2.016,3.231a5.108,5.108,0,0,0,4.088-2.715,4.1,4.1,0,0,0,.343-3.5c.43.2.859.4,1.292.6.336.152.628-.4.3-.581-2.255-1.265-4.537-2.466-6.832-3.649a.236.236,0,0,0,.149-.311" transform="translate(81.961 26.106)" fill="#bde8ef"/>
    <path id="Trazado_208815" data-name="Trazado 208815" d="M17.864,26.343A17.107,17.107,0,0,0,7.035,24.354C4.429,24.727-.246,25.94.4,29.539c.513,2.871,4.961,3.211,7.237,3.125,3.938-.148,7.1-2.636,9.937-5.126.738-.648-.33-1.682-1.07-1.068-2.012,1.668-4.091,3.5-6.648,4.272-1.219.367-8.981.828-7.877-2.2C2.9,25.992,7.5,25.663,9.719,25.646a19.967,19.967,0,0,1,7.762,1.606c.525.216.865-.64.382-.909" transform="translate(0.197 14.192)" fill="#3c3fa7"/>
    <path id="Trazado_208816" data-name="Trazado 208816" d="M6.29,13.812q2.619,6.175,4.869,12.5c1.359,3.8,2.33,7.81,3.9,11.52.381.9,1.658.219,1.492-.63-.832-4.244-2.685-8.462-4.245-12.485-1.511-3.9-3.176-7.743-4.933-11.541-.344-.743-1.4-.1-1.087.635" transform="translate(3.659 7.543)" fill="#3c3fa7"/>
    <path id="Trazado_208817" data-name="Trazado 208817" d="M9.117,20.324a6.139,6.139,0,0,1,4.32-4.887c2.235-.544,4.542.817,6.7-.037a.492.492,0,0,0,0-.94c-2.55-.736-6.218-1.3-8.648.1a6.053,6.053,0,0,0-3.117,5.663c.021.408.657.543.748.1" transform="translate(4.908 8.043)" fill="#3c3fa7"/>
    <path id="Trazado_208818" data-name="Trazado 208818" d="M22.71,13.581a7.025,7.025,0,0,0-5.074,1.682c-2.219,1.689-4.771,4.722-7.881,3.195-.881-.433-1.658.884-.773,1.322,5.645,2.792,8.884-4.695,13.807-5.612.355-.065.233-.559-.079-.587" transform="translate(5.043 7.956)" fill="#3c3fa7"/>
  </g>
</svg>
