<svg xmlns="http://www.w3.org/2000/svg" xmlns:xlink="http://www.w3.org/1999/xlink" width="92" height="92" viewBox="0 0 92 92">
  <defs>
    <clipPath id="clip-path">
      <rect id="Rectángulo_339003" data-name="Rectángulo 339003" width="74.502" height="68.633" fill="none"/>
    </clipPath>
  </defs>
  <g id="Grupo_983741" data-name="Grupo 983741" transform="translate(-441 -3988)">
    <circle id="Elipse_4872" data-name="Elipse 4872" cx="46" cy="46" r="46" transform="translate(441 3988)" fill="#6b8dfc"/>
    <g id="Grupo_983740" data-name="Grupo 983740" transform="translate(449.749 4000.683)">
      <g id="Grupo_983739" data-name="Grupo 983739" transform="translate(0 0)" clip-path="url(#clip-path)">
        <path id="Trazado_211035" data-name="Trazado 211035" d="M55.838,47.018a1.268,1.268,0,0,1-.862-1.357c.009-7.784-.067-15.568.029-23.35a22.319,22.319,0,0,1,44.052-5.04,26.041,26.041,0,0,0,.577,2.943v4.511a5.056,5.056,0,0,0-.405,1.861A21.968,21.968,0,0,1,91.4,39.64a24.706,24.706,0,0,0-4.672,4.655,15.186,15.186,0,0,0-2.659,9.119,15.315,15.315,0,0,1-2.18,8.309,14.537,14.537,0,0,1-15.2,6.639A14.751,14.751,0,0,1,55.228,56.518a31.768,31.768,0,0,1-.241-5.367,1.14,1.14,0,0,1,.849-1.138c.985-.2,1.458.163,1.491,1.187.043,1.351.029,2.7.144,4.052A12.4,12.4,0,0,0,66.3,65.768a12.082,12.082,0,0,0,15.27-10.355c.1-.969.112-1.932.123-2.9a17.006,17.006,0,0,1,4.817-11.674c1.587-1.716,3.55-3.006,5.153-4.7a19.583,19.583,0,0,0,5.467-11.923,19.225,19.225,0,0,0-2.756-12.11A19.528,19.528,0,0,0,80.3,2.664a18.325,18.325,0,0,0-5.488-.05,20.068,20.068,0,0,0-17.268,17.8,32.313,32.313,0,0,0-.2,3.4q.027,10.575.009,21.149c0,.315.012.631-.013.945-.078.964-.549,1.309-1.5,1.108" transform="translate(-25.133 0)"/>
        <path id="Trazado_211036" data-name="Trazado 211036" d="M67,67.944a11.871,11.871,0,0,1-7.327-5.653,12.465,12.465,0,0,1-1.741-6.581c0-.775.007-1.551,0-2.326-.012-1.012-.326-1.32-1.353-1.357.118-.139.3-.224.292-.459q-.02-1.037,0-2.075c0-.235-.173-.321-.29-.461,1.063-.04,1.352-.354,1.352-1.5,0-7.535-.029-15.071.01-22.606A20.133,20.133,0,0,1,66.617,7.9a17.89,17.89,0,0,1,8.957-3.444,1.158,1.158,0,0,1,.849.083A20.983,20.983,0,0,1,85.6,11.652c.164.219.555.542-.021.785-1.074-.371-2.025-1.014-3.125-1.343a13.472,13.472,0,0,0-14.074,3.33A14,14,0,0,0,64.053,24.86c-.015,1.865.01,3.73-.008,5.594a4.541,4.541,0,0,0,.863,3.006,1.471,1.471,0,0,1,.3.733,2.262,2.262,0,0,1,.036.435q.016,9.663,0,19.326a2.619,2.619,0,0,1-.062.647c-.071.289-.312.415-.539.555a1.155,1.155,0,0,0-.567,1.171,6.37,6.37,0,0,0,5.733,5.99,5.782,5.782,0,0,0,1.871-.192,1.62,1.62,0,0,1,.854-.091c.269.249.1.5-.027.72A13.014,13.014,0,0,1,67.544,67.8a.665.665,0,0,1-.542.14" transform="translate(-25.875 -2.013)" fill="#f8e9e1"/>
        <path id="Trazado_211037" data-name="Trazado 211037" d="M31.517,51.879a24.786,24.786,0,0,1-7.045,17.414,1.379,1.379,0,0,1-1.108.6,1.109,1.109,0,0,1-.663-1.937,25.723,25.723,0,0,0,2.552-3.07,22.78,22.78,0,0,0-2.191-28.612c-.862-.895-.972-1.495-.373-2.04.541-.493,1.172-.338,1.968.512a24.7,24.7,0,0,1,6.86,17.139" transform="translate(-10.204 -15.526)"/>
        <path id="Trazado_211038" data-name="Trazado 211038" d="M17.846,57.042a16.276,16.276,0,0,1-4.672,11.42,1.1,1.1,0,0,1-1.552.244,1.051,1.051,0,0,1-.336-1.36,2.783,2.783,0,0,1,.545-.673,14.2,14.2,0,0,0,.3-19c-.175-.2-.367-.386-.545-.584a1.138,1.138,0,0,1-.091-1.676,1.08,1.08,0,0,1,1.662.123,16.227,16.227,0,0,1,4.459,8.785,20.523,20.523,0,0,1,.225,2.724" transform="translate(-5.107 -20.614)"/>
        <path id="Trazado_211039" data-name="Trazado 211039" d="M4.183,62.1A7.9,7.9,0,0,1,2.06,67.462,1.152,1.152,0,0,1,.4,67.716c-.535-.45-.529-1.084.015-1.721a5.581,5.581,0,0,0-.007-7.761c-.522-.613-.541-1.212-.052-1.669a1.107,1.107,0,0,1,1.66.169A7.753,7.753,0,0,1,4.183,62.1" transform="translate(0 -25.731)"/>
        <path id="Trazado_211040" data-name="Trazado 211040" d="M75.787,67.783a13.515,13.515,0,0,0,5.12-4.865,2.814,2.814,0,0,0,.46-.972c.071-.269.309-.358.516-.477a6.281,6.281,0,0,0,3.35-5.951,22.987,22.987,0,0,1,2.744-11.824,28.547,28.547,0,0,1,7.472-8.528,13.661,13.661,0,0,0,5.258-9.462c.06-.555.088-1.109.125-1.664a1.835,1.835,0,0,0-1.181-2.09,12.243,12.243,0,0,1-.794-2.834,1.72,1.72,0,0,0-.1-2.243,14.414,14.414,0,0,0-3.912-4.143c-.193-.132-.436-.243-.409-.546.2-.212,0-.357-.1-.491a21.647,21.647,0,0,0-9.483-7.3,2.823,2.823,0,0,0-.493-.1,15.121,15.121,0,0,1,5.775.076c8.605,1.756,14.261,6.851,16.254,15.418,1.824,7.841-.613,14.546-6.687,19.838a29.1,29.1,0,0,0-5.535,5.724,17.28,17.28,0,0,0-2.8,10.192A12.331,12.331,0,0,1,75.973,67.886a.849.849,0,0,1-.186-.1" transform="translate(-34.659 -1.852)" fill="#f4dacb"/>
        <path id="Trazado_211041" data-name="Trazado 211041" d="M91.8,17.223a15.189,15.189,0,0,1,4.793,5.135,1.208,1.208,0,0,1-.256,1.731,1.128,1.128,0,0,1-1.755-.416,17.823,17.823,0,0,0-1-1.514,11.64,11.64,0,0,0-8.366-4.645,12.166,12.166,0,0,0-4.294.414A11.8,11.8,0,0,0,72.568,27.8a16.516,16.516,0,0,0-.194,2.385c-.014.733.052.789.732.637a8.44,8.44,0,0,1,7.257,1.646,8.744,8.744,0,0,1-5.324,15.624,1.569,1.569,0,0,1-.96-.453,1.245,1.245,0,0,1,.531-2.044,17.8,17.8,0,0,1,1.919-.32,6.02,6.02,0,0,0,4.481-4.746,6.138,6.138,0,0,0-7.364-7.177c-1.14.247-1.271.406-1.273,1.54,0,.29-.011.581.011.87a1.6,1.6,0,0,0,1.33,1.656A1.27,1.27,0,0,1,74.4,39.6a1.175,1.175,0,0,1-.628.335,2.734,2.734,0,0,1-2.586-1.1,4.4,4.4,0,0,1-1.174-3.32c.079-2.59-.11-5.185.115-7.774A14.416,14.416,0,0,1,82.575,15.152a13.9,13.9,0,0,1,9.079,2.055c.036.023.094.011.143.016" transform="translate(-32.018 -6.892)"/>
        <path id="Trazado_211042" data-name="Trazado 211042" d="M97.081,36.981c.974.18,1.241.454,1.277,1.44a13.85,13.85,0,0,1-5.129,11.713,34.554,34.554,0,0,0-5.981,6A22.42,22.42,0,0,0,82.78,70.179c.068,3.165-1.143,5.465-4.035,6.827a6.316,6.316,0,0,1-5.686-.6,6.513,6.513,0,0,1-3-5.351c-.045-.774.252-1.1,1.118-1.345.35-.18.583.058.833.233a2.187,2.187,0,0,1,.52,1.473,4.1,4.1,0,0,0,3.986,3.616A3.869,3.869,0,0,0,80.3,71.108a29.105,29.105,0,0,1,1.6-10.067,26.564,26.564,0,0,1,4.853-8.131,45,45,0,0,1,5.11-4.735,11.393,11.393,0,0,0,4.018-7.584,10.647,10.647,0,0,0,.076-2.316,1.15,1.15,0,0,1,1.128-1.294" transform="translate(-32.038 -16.912)"/>
        <path id="Trazado_211043" data-name="Trazado 211043" d="M72.865,75.093l-.742-.3q0-9.919,0-19.837c0-.339.018-.678.028-1.016a4.1,4.1,0,0,0,2.229.952,1.069,1.069,0,0,0,1.217-.9,1.105,1.105,0,0,0-.911-1.279c-1.214-.335-1.478-.679-1.485-1.943,0-.339,0-.678,0-1.017,0-1.125,0-1.125,1.063-1.42a6.316,6.316,0,0,1,7.871,7.411,5.326,5.326,0,0,1-1.12,1.312,27.835,27.835,0,0,0-2.688,2.921,1.992,1.992,0,0,1-.672.536,4.262,4.262,0,0,1-1.417.238c-.679.038-1.254.207-1.357,1-.087.672.272,1.048,1.169,1.271.117.315-.064.569-.194.819A23.675,23.675,0,0,0,73.19,74.391c-.005.263.076.605-.325.7" transform="translate(-32.984 -21.995)" fill="#efc8bb"/>
        <path id="Trazado_211044" data-name="Trazado 211044" d="M73.491,61.834c.15-.126.132-.3.132-.468a23.907,23.907,0,0,1,3.055-11.6,8.646,8.646,0,0,0,7.661-5.018,9,9,0,0,0,.8-4.3,3.012,3.012,0,0,1,.547-.761A12.356,12.356,0,0,0,88.9,29.43a12.535,12.535,0,0,0-5.936-9.283c-.2-.132-.422-.247-.473-.518a11.885,11.885,0,0,1,13.762,5.656c.453.8.777.907,1.675.648.182.972.619,1.88.727,2.871a1.352,1.352,0,0,0-.941,1.579A11.544,11.544,0,0,1,93.459,40.2a37.429,37.429,0,0,0-6.444,6.468A25.079,25.079,0,0,0,82.12,62.38,4.3,4.3,0,0,1,80.452,66.2,4.131,4.131,0,0,1,73.9,63.343a2.491,2.491,0,0,0-.409-1.509" transform="translate(-33.609 -8.736)" fill="#e7a99a"/>
        <path id="Trazado_211045" data-name="Trazado 211045" d="M82.75,20.073a13.353,13.353,0,0,1,5.466,5.82,12.987,12.987,0,0,1-2.538,14.77,3.521,3.521,0,0,1-.283.223,8.612,8.612,0,0,0-4.78-6.925,8.265,8.265,0,0,0-6-.591c-.259.068-.5.246-.529-.244-.287-5.362,2.039-9.719,6.387-12.154a6.979,6.979,0,0,1,2.278-.9" transform="translate(-33.87 -9.18)" fill="#efc8bb"/>
        <path id="Trazado_211046" data-name="Trazado 211046" d="M82.32,66.962A40.82,40.82,0,0,1,86.8,62.193a6.13,6.13,0,0,1-4.479,4.769" transform="translate(-37.647 -28.443)" fill="#e6a99a"/>
      </g>
    </g>
  </g>
</svg>
