<svg xmlns="http://www.w3.org/2000/svg" xmlns:xlink="http://www.w3.org/1999/xlink" width="190" height="157" viewBox="0 0 190 157">
  <defs>
    <clipPath id="clip-path">
      <rect id="Rect치ngulo_338898" data-name="Rect치ngulo 338898" width="130.319" height="130.339" fill="none"/>
    </clipPath>
  </defs>
  <g id="Grupo_983630" data-name="Grupo 983630" transform="translate(-285 -3862)">
    <rect id="Rect치ngulo_338811" data-name="Rect치ngulo 338811" width="190" height="157" rx="12" transform="translate(285 3862)" fill="#fed947"/>
    <g id="Grupo_983629" data-name="Grupo 983629" transform="translate(315 3875)">
      <g id="Grupo_983628" data-name="Grupo 983628" clip-path="url(#clip-path)">
        <path id="Trazado_209189" data-name="Trazado 209189" d="M87.371,129.615c-.253-.243-.214-.559-.226-.866-.076-2.048-.08-2.119-2.175-2.035-13.494.543-26.994.1-40.49.255-.556-.48-.4-1.138-.4-1.736-.019-3.138-.055-6.277,0-9.414a8.351,8.351,0,0,0-8.658-8.685c-3.042.159-6.1.022-9.149.034a10.149,10.149,0,0,1-2.882-.382,4.959,4.959,0,0,1-3.723-4.895c-.021-5.923,0-11.847-.009-17.769-.005-3.882-1.989-5.856-5.884-5.872-1.238-.006-2.476.009-3.713-.006a4.563,4.563,0,0,1-4.223-2.269c-.921-1.613-.475-3.13.483-4.6,2.747-4.223,5.463-8.468,8.2-12.694a10.989,10.989,0,0,0,1.7-5.5c.375-6.635,1-13.249,3.675-19.431,6.9-15.958,18.928-25.722,36.09-28.463,13.4-2.14,25.477,1.588,36,10.2a42.876,42.876,0,0,1,7.48,7.85c1.088,1.487,2.014,3.118,4.116,3.326.808,1.946,1.923,3.74,2.738,5.691a47.627,47.627,0,0,1,3.394,12.53,36.761,36.761,0,0,1,.485,7.475c-.271,3.346-.464,6.726-1.822,9.879-.528-.546-.381-1.242-.383-1.887-.016-5.124.005-10.248-.015-15.372a5.609,5.609,0,0,0-8.06-5.5c-2.039.881-2.844,2.641-2.842,4.826q.011,13.251,0,26.5a15.086,15.086,0,0,1-.044,1.589,1.393,1.393,0,0,1-1.111,1.317,14.2,14.2,0,0,1-1.418.336c-5.972.908-9.527,7.573-8.387,13.05a32.713,32.713,0,0,0,1.669,5.713c1.383,3.395,2.815,6.773,3.873,10.29a12.783,12.783,0,0,1,.756,3.347,72.257,72.257,0,0,0-1.038,7.785,8.691,8.691,0,0,0,.084,1.434c-.2.466-.666.543-1.07.692a3.7,3.7,0,0,0-2.586,3.74c-.022,2.6.007,5.193-.016,7.789-.006.6.122,1.251-.423,1.726" transform="translate(-1.516 -1.332)" fill="#d6e7fe"/>
        <path id="Trazado_209190" data-name="Trazado 209190" d="M123.956,119.967a61.449,61.449,0,0,0-3.862-11.492c-1.327-3.317-2.649-6.612-2.757-10.278-.12-4.084,2.964-9.941,8.541-11.063a8.062,8.062,0,0,1,1.418-.305c1.046-.014,1.157-.583,1.154-1.465q-.041-13.446-.014-26.892a8.8,8.8,0,0,1,.2-2.5,5.576,5.576,0,0,1,6.48-3.951,5.68,5.68,0,0,1,4.983,5.758c.043,5.475.012,10.951.019,16.427,0,.483.044.966.067,1.449-.122.508-.093.856.6.788,2.5-.244,4.642.392,6.085,2.613.282.435.56.213.9.112,2.769-.816,5.157-.34,6.88,2.156.294.425.518.395.969.276,4.7-1.238,7.85,1.192,7.854,6.029,0,3.179-.174,6.37.039,9.535a72,72,0,0,1-1.581,19.041,27.894,27.894,0,0,1-1.766,5.665,10.919,10.919,0,0,1-3.1,4.382,3.439,3.439,0,0,0-1.036,1.655c-.278.8-.207,1.217.718,1.554a3.761,3.761,0,0,1,2.574,3.661c.077,3.4.078,6.8.083,10.2a1.576,1.576,0,0,1-1.2,1.7,1.971,1.971,0,0,1-2.122-.73,5.22,5.22,0,0,1-.543-1.048,2.352,2.352,0,0,1-.393-1.76c-.021-2.031-.025-4.063,0-6.095.011-.932-.26-1.3-1.3-1.28-9.01.135-18.022.047-27.033.06a5.537,5.537,0,0,1-.794-.037c-2.062-.3-2.154-.325-2.145,2.045.007,1.811.014,3.622-.006,5.432a2.19,2.19,0,0,1-.385,1.631,2.289,2.289,0,0,1-2.334,1.577,2,2,0,0,1-1.981-1.776q.008-4.284.015-8.567c0-3.453.788-4.5,4.07-5.452,1.46-1.867.82-4.019.765-6.07-.026-.992-.135-1.984-.071-2.981" transform="translate(-33.32 -14.755)"/>
        <path id="Trazado_209191" data-name="Trazado 209191" d="M102.071,25.328a2.621,2.621,0,0,1-3.115-1.323C91.206,12.969,80.7,6.175,67.334,4.207,46.87,1.2,26.523,13.1,18.794,32.338A52.816,52.816,0,0,0,15.311,48.57c-.2,2.844-.042,5.795-1.595,8.37-1.206,2-2.536,3.925-3.808,5.886-1.634,2.519-3.258,5.044-4.9,7.558-.814,1.249-1.3,2.544-.472,3.962a4.237,4.237,0,0,0,3.95,2.209c1.415-.017,2.83-.006,4.245,0,3.548.007,5.753,2.225,5.757,5.808.007,5.923,0,11.847.005,17.769,0,3.246,1.889,5.175,5.174,5.218,3.315.044,6.631,0,9.946.017,5.729.037,9.3,3.657,9.308,9.4.006,3.623.029,7.247.044,10.87-.411,1.467-1.251,2.107-2.531,1.929-1.217-.17-1.819-.956-1.825-2.487-.016-3.448,0-6.9-.009-10.346-.011-3.554-2.034-5.561-5.606-5.568-3.228-.007-6.456,0-9.683,0-5.54-.014-9.118-3.516-9.172-9.1-.057-5.879-.014-11.76-.017-17.64,0-2.056-.032-2.083-2.056-2.088-1.327,0-2.655.025-3.98-.009a8.536,8.536,0,0,1-8-6.877,6.972,6.972,0,0,1,1.431-5.227c2.792-4.186,5.677-8.31,8.528-12.457a5.051,5.051,0,0,0,.82-2.477c.492-5.226.541-10.52,2.053-15.6C18.959,17.406,32.119,4.359,53.064.81,73.549-2.66,89.98,5.137,102.229,21.817c1.077,1.466.985,2.211-.158,3.511" transform="translate(0 0)"/>
        <path id="Trazado_209192" data-name="Trazado 209192" d="M125.93,175.548c0-2.914.024-5.828-.009-8.743-.009-.773.161-1.217,1.021-1.024a27.1,27.1,0,0,0,5.937.226c7.375.029,14.751.011,22.126.011.354,0,.707.011,1.06,0,1.94-.08,1.943-.082,1.94,1.855q-.006,3.841-.021,7.681l-32.055,0" transform="translate(-35.759 -47.066)" fill="#f2877e"/>
        <path id="Trazado_209193" data-name="Trazado 209193" d="M47.752,63.584c.032-10.765,8.2-19.855,17.784-20.4,11.532-.659,21,6.819,22.309,17.562a19.685,19.685,0,0,1-3.572,13.919,26.029,26.029,0,0,0-4.427,14.983c-.035,2.931-.466,3.443-3.328,3.455-1.05.005-1.023.534-.988,1.237.124,2.5-.2,4.86-2,6.789a7.337,7.337,0,0,1-8.068,2.2,7.52,7.52,0,0,1-5.178-6.864c-.006-.088-.009-.177-.011-.265-.022-.926.264-2.032-.145-2.729-.479-.816-1.695-.207-2.577-.367a2.138,2.138,0,0,1-1.865-2.464,34.253,34.253,0,0,0-.886-8.676,30.83,30.83,0,0,0-3.9-8.215,20.684,20.684,0,0,1-3.147-10.165" transform="translate(-13.561 -12.251)"/>
        <path id="Trazado_209194" data-name="Trazado 209194" d="M111.935,67.862c1.751-.006,2.747.755,2.773,2.118s-1.005,2.222-2.689,2.226c-1.7.005-2.71-.792-2.747-2.171-.038-1.435.859-2.167,2.663-2.173" transform="translate(-31.031 -19.271)"/>
        <path id="Trazado_209195" data-name="Trazado 209195" d="M72.878,32.935a2.393,2.393,0,0,1,2.139-2.659c1.308-.039,2.171.983,2.167,2.566a2.346,2.346,0,0,1-2.2,2.591c-1.262-.011-2.1-1-2.106-2.5" transform="translate(-20.696 -8.598)"/>
        <path id="Trazado_209196" data-name="Trazado 209196" d="M96.121,37.553a2.925,2.925,0,0,1-2.526,2.63,1.989,1.989,0,0,1-2.2-1.952,2.978,2.978,0,0,1,2.559-2.745,2.159,2.159,0,0,1,2.165,2.066" transform="translate(-25.955 -10.077)"/>
        <path id="Trazado_209197" data-name="Trazado 209197" d="M37.516,72.314a2.464,2.464,0,0,1-1.885-.594,2.047,2.047,0,0,1-.588-2.169A1.692,1.692,0,0,1,36.7,68.283a7.484,7.484,0,0,1,.922-.043c1.513.033,2.472.876,2.465,2.155-.008,1.224-.9,1.908-2.568,1.919" transform="translate(-9.926 -19.379)"/>
        <path id="Trazado_209198" data-name="Trazado 209198" d="M42.2,49.99a2.888,2.888,0,0,1,2.628,2.485,1.969,1.969,0,0,1-1.968,1.882,2.852,2.852,0,0,1-2.6-2.5A1.838,1.838,0,0,1,42.2,49.99" transform="translate(-11.432 -14.196)"/>
        <path id="Trazado_209199" data-name="Trazado 209199" d="M42.145,91.141a1.734,1.734,0,0,1-1.887-1.89,2.715,2.715,0,0,1,2.678-2.4,1.758,1.758,0,0,1,1.89,1.9,2.719,2.719,0,0,1-2.681,2.4" transform="translate(-11.432 -24.663)"/>
        <path id="Trazado_209200" data-name="Trazado 209200" d="M109.321,89.325a1.731,1.731,0,0,1-1.958,1.816,2.715,2.715,0,0,1-2.613-2.47,1.771,1.771,0,0,1,1.967-1.824,2.691,2.691,0,0,1,2.6,2.479" transform="translate(-29.747 -24.662)"/>
        <path id="Trazado_209201" data-name="Trazado 209201" d="M107.508,49.991a1.817,1.817,0,0,1,1.808,2,2.892,2.892,0,0,1-2.893,2.343,1.763,1.763,0,0,1-1.668-1.983,2.94,2.94,0,0,1,2.753-2.363" transform="translate(-29.747 -14.195)"/>
        <path id="Trazado_209202" data-name="Trazado 209202" d="M58.213,38.192a2.216,2.216,0,0,1-1.882,2.055A2.711,2.711,0,0,1,54,37.635a1.933,1.933,0,0,1,1.939-1.915,2.49,2.49,0,0,1,2.276,2.472" transform="translate(-15.334 -10.144)"/>
        <path id="Trazado_209203" data-name="Trazado 209203" d="M137.571,113.471a3.011,3.011,0,0,1,2.954.343,5.237,5.237,0,0,0,4.926.665c.506-.16.818-.268,1.209.288,1.662,2.366,4.011,2.868,6.683,2.225a1.349,1.349,0,0,1,1.643.5,5.293,5.293,0,0,0,4.989,1.853c.844-.09,1.031.144.959.988a56.723,56.723,0,0,1-2.451,13.508,9.2,9.2,0,0,1-2.917,4.47,5.977,5.977,0,0,0-2.142,4.67c-.026.829-.226,1.129-1.122,1.124-7.159-.037-14.32-.019-21.481-.025-.485,0-1.123.211-1-.725.936-6.917-1.144-13.261-3.7-19.523a45.664,45.664,0,0,1-3.084-8.988,8.446,8.446,0,0,1,1.61-6.867c1.707-2.292,4.23-2.384,6.653-2.644a25.7,25.7,0,0,1,8.037-.109c.735.152,1.527-.307,2.341-.251.668.047.734.258.472.806A5.966,5.966,0,0,1,137.2,109a31.3,31.3,0,0,1-4.767.053,2.243,2.243,0,0,0-2.388,1.284,2.166,2.166,0,0,0,.747,2.492c1.168,1.205,2.436,2.313,3.6,3.525A18.937,18.937,0,0,1,139.2,123.7a6.335,6.335,0,0,1-.551,5.352c-.768,1.3-.579,2.573.4,3.139s2.157.135,3-1.137c2.058-3.123,1.981-6.394.644-9.739a24.127,24.127,0,0,0-4.261-6.662c-.3-.353-.741-.619-.857-1.187" transform="translate(-34.894 -29.802)" fill="#fefefe"/>
        <path id="Trazado_209204" data-name="Trazado 209204" d="M138.122,73.161q0-6.691,0-13.382c0-1.533.5-2.147,1.692-2.149,1.3,0,1.808.589,1.807,2.18-.008,8.921-.042,17.842-.015,26.763,0,.95-.31,1.14-1.176,1.169-2.311.077-2.31.12-2.31-2.127V73.161" transform="translate(-39.223 -16.366)" fill="#fefefe"/>
        <path id="Trazado_209205" data-name="Trazado 209205" d="M164.044,102.913c0,1.852.009,3.7,0,5.555-.009,1.313-.546,1.867-1.8,1.9-1.129.034-1.758-.563-1.765-1.8q-.032-5.687,0-11.374a2.011,2.011,0,0,1,1.956-2.069c1.045-.025,1.6.69,1.609,2.1.009,1.9,0,3.791,0,5.687" transform="translate(-45.567 -27.014)" fill="#fcfcfd"/>
        <path id="Trazado_209206" data-name="Trazado 209206" d="M174.95,105.861c0,1.938-.058,3.877.02,5.812.054,1.33-.678,1.7-1.771,1.739-1.139.039-1.7-.567-1.708-1.842-.017-2.158,0-4.317,0-6.475,0-1.63-.018-3.261.007-4.89a1.964,1.964,0,0,1,1.975-2.018c1.029-.006,1.53.627,1.537,1.991.011,1.895,0,3.788,0,5.683h-.059" transform="translate(-48.697 -27.883)" fill="#fefefe"/>
        <path id="Trazado_209207" data-name="Trazado 209207" d="M152.93,95.2c0,2.435,0,2.371-2.379,2.389-1.1.008-1.494-.3-1.37-1.407.1-.874,0-1.766.025-2.649a1.707,1.707,0,0,1,1.834-1.8,1.678,1.678,0,0,1,1.885,1.74c.028.574.005,1.149.006,1.723" transform="translate(-42.358 -26.052)" fill="#fefefe"/>
        <path id="Trazado_209208" data-name="Trazado 209208" d="M71.6,81.175c0-2.607.034-5.215-.019-7.82-.018-.9.2-1.321,1.164-1.2a6.922,6.922,0,0,0,1.456-.014,2.1,2.1,0,0,0,2.036-2.043,2.05,2.05,0,0,0-1.862-2.208q-5.1-.115-10.2,0a1.8,1.8,0,0,0-1.763,1.965,2,2,0,0,0,1.645,2.233,6.362,6.362,0,0,0,1.319.078c1.92.016,1.92.012,1.92,1.995,0,4.993-.023,9.986.02,14.978.009.93-.135,1.36-1.2,1.275a33.918,33.918,0,0,0-3.975-.011c-.713.027-.894-.238-.9-.914-.011-6.019-2.048-11.335-5.316-16.35-4.786-7.344-3.051-16.763,3.856-21.519,5.332-3.671,11.079-3.748,16.707-.928,5.583,2.8,8.389,7.633,8.675,13.874a16.226,16.226,0,0,1-3.2,10.162,28.167,28.167,0,0,0-4.8,14.5c-.059.9-.256,1.256-1.2,1.179a16.2,16.2,0,0,0-3.045,0c-1.17.125-1.37-.357-1.339-1.41.076-2.6.025-5.213.025-7.82" transform="translate(-15.115 -13.83)" fill="#fec308"/>
        <path id="Trazado_209209" data-name="Trazado 209209" d="M74.645,113.1a2.293,2.293,0,0,1,.527-.017c.876.169,2.18-.577,2.582.442a4.62,4.62,0,0,1-1.916,5.661,3.09,3.09,0,0,1-3.783-.951c-1.154-1.478-.607-3.215-.66-4.852-.014-.42.46-.3.741-.308.836-.015,1.673-.005,2.51-.005v.03" transform="translate(-20.251 -32.084)" fill="#fefefe"/>
      </g>
    </g>
  </g>
</svg>
