<svg xmlns="http://www.w3.org/2000/svg" xmlns:xlink="http://www.w3.org/1999/xlink" width="92" height="92" viewBox="0 0 92 92">
  <defs>
    <clipPath id="clip-path">
      <rect id="Rectángulo_339006" data-name="Rectángulo 339006" width="62.25" height="77.135" fill="none"/>
    </clipPath>
  </defs>
  <g id="Grupo_983750" data-name="Grupo 983750" transform="translate(628 7707)">
    <circle id="Elipse_4875" data-name="Elipse 4875" cx="46" cy="46" r="46" transform="translate(-628 -7707)" fill="#6b8dfc"/>
    <g id="Grupo_983749" data-name="Grupo 983749" transform="translate(-613 -7700)">
      <g id="Grupo_983748" data-name="Grupo 983748" clip-path="url(#clip-path)">
        <path id="Trazado_211104" data-name="Trazado 211104" d="M56.4,32.388c-.883-.218-1.137-.507-1.144-1.4-.013-1.532-.03-3.064.011-4.6a.9.9,0,0,0-.605-.969c-.906-.425-1.789-.9-2.677-1.358a3.124,3.124,0,0,1-1.62-4.268,3.165,3.165,0,0,1,4.374-1.324c.09.041.184.076.4.163,0-.608-.006-1.167,0-1.726a3.848,3.848,0,0,1,4.117-4.083,6.513,6.513,0,0,1,1.869.153,3.912,3.912,0,0,1,2.884,3.936c.013,3.566,0,7.132,0,10.7q0,9.718,0,19.437c0,2.5-.9,3.565-3.329,4.016-3.475.646-6.947,1.31-10.422,1.956-.482.09-.745.189-.664.83.615,4.878,1.174,9.764,1.753,14.647.351,2.965.694,5.931,1.066,8.893a1.549,1.549,0,0,1-.68,1.384h-.9a1.369,1.369,0,0,1-.76-.786c-.05-.193-.118-.381-.161-.577-.857-7.2-1.689-14.4-2.567-21.594-.091-.747-.187-1.494-.251-2.244a2.582,2.582,0,0,1,2.034-2.845c.658-.162,1.326-.276,1.995-.389,1.044-.176,1.082-.236.934-1.342-.149-.968-.333-1.93-.467-2.9-.08-.576-.345-.781-.907-.7-3.056.437-6.123.793-9.183,1.2a1.45,1.45,0,0,0-1.089.816,7.482,7.482,0,0,1-5.474,3.842,7.228,7.228,0,0,1-7.322-3.146A1.8,1.8,0,0,0,26,47.138a2.616,2.616,0,0,1-1.711-.7c-1.654-1.387-3.238-2.853-4.856-4.28-.608-.535-.641-.547-1.188.066-.6.674-1.288,1.268-1.841,1.988-.472.616-.494.683.107,1.213.828.73,1.664,1.451,2.486,2.189a5.584,5.584,0,0,1,1.859,3.752c.386,3.869.838,7.732,1.254,11.6.374,3.466.77,6.93,1.143,10.4.153,1.421.357,2.838.422,4.267a1.213,1.213,0,0,1-.873,1.149h-.754a1.553,1.553,0,0,1-.858-1.392q-.615-5.8-1.253-11.6-.777-7.149-1.553-14.3a3.356,3.356,0,0,0-1.238-2.236C13.3,45.869,9.486,42.443,5.622,39.08a5.942,5.942,0,0,1-1.859-7.024c2.179-6.4,4.281-12.821,6.4-19.238.242-.734.588-1.276,1.46-1.23A1.119,1.119,0,0,1,12.673,13a5.129,5.129,0,0,1-.238.793c-2.1,6.315-4.191,12.632-6.318,18.938a3.764,3.764,0,0,0,1.142,4.534c2.066,1.716,4.016,3.564,6.054,5.312.393.337.66.343.994-.066.637-.776,1.4-1.432,2.039-2.216.3-.369.351-.594-.04-.924C14.851,38.138,13.446,36.847,12,35.6a3.516,3.516,0,0,1-1.232-4.479c1.588-4.791,3.213-9.57,4.776-14.369A2.877,2.877,0,0,1,18.214,14.5c.947-.087,1.879-.326,2.826-.441a1.827,1.827,0,0,0,.368-.079c.339-.115.593-.313.533-.71a.64.64,0,0,0-.756-.571c-.475.037-.941.152-1.413.218a1.778,1.778,0,0,1-2.1-2.481c.264-.838.578-1.661.814-2.508a1.447,1.447,0,0,0-1-2.023,5.427,5.427,0,0,0-.787-.257,1.437,1.437,0,0,0-1.855.976c-.2.514-.321,1.06-.562,1.558a1.124,1.124,0,0,1-1.571.659c-.8-.571-.9-.867-.608-1.772.154-.477.3-.956.475-1.425A3.845,3.845,0,0,1,17.32,3.253c.409.117.815.247,1.212.4A3.827,3.827,0,0,1,20.9,8.465c-.179.594-.376,1.183-.584,1.834a5.917,5.917,0,0,1,1.694-.016,3.1,3.1,0,0,1,2.486,3.146,3.053,3.053,0,0,1-2.6,2.959c-1.135.206-2.273.4-3.414.568a.59.59,0,0,0-.555.483q-2.451,7.413-4.936,14.816a1,1,0,0,0,.321,1.2Q19.483,38.916,25.648,44.4a1.737,1.737,0,0,0,1.342.286c1.9.012,1.874,0,1.915-1.863a1.272,1.272,0,0,0-.783-1.4,7.024,7.024,0,0,1-3.178-3.306.718.718,0,0,0-.8-.481c-.651.033-1.306.02-1.958,0a2.572,2.572,0,0,1-2.613-2.325,8.266,8.266,0,0,1,.047-3.517c.689-1.976.415-3.96.447-5.938A12.666,12.666,0,0,1,32.111,13.536c2.562-.087,5.143-.152,7.552.94a12.477,12.477,0,0,1,7.813,11.443c.051.952.008,1.908.013,2.863a9.624,9.624,0,0,0,.344,2.561,10.037,10.037,0,0,1,.043,4.4,2.474,2.474,0,0,1-2.434,1.886q-1.054.034-2.109,0a.632.632,0,0,0-.689.414,7.639,7.639,0,0,1-3.6,3.6.624.624,0,0,0-.4.7,9.494,9.494,0,0,1,0,1.356c-.061.613.156.8.766.71,2.062-.292,4.129-.543,6.194-.814,2.935-.384,5.868-.789,8.808-1.144.631-.076.9-.235.871-.943-.064-1.555-.025-3.114-.017-4.672.005-.946.225-1.217,1.149-1.487.781-.051,1.216.338,1.261,1.192.049.927.014,1.856.016,2.785,0,.953.012,1.907,0,2.86a2.418,2.418,0,0,1-2.075,2.56c-1.466.347-1.464.347-1.228,1.816.1.644.246,1.281.31,1.931.269,1.1.272,1.115,1.342.911,1.4-.269,2.815-.508,4.214-.8,1.061-.222,1.2-.377,1.205-1.455q.013-6.4,0-12.8,0-8.468,0-16.936c0-1.753-.752-2.38-2.508-2.107-1.031.34-1.252.625-1.267,1.673-.012.829.029,1.658-.015,2.486-.1,1.83-1.407,2.566-3.039,1.72a5.765,5.765,0,0,0-1.078-.53c-.373-.1-.719-.079-.886.328a.629.629,0,0,0,.356.816c.669.4,1.385.709,2.077,1.065a13.178,13.178,0,0,1,1.518.831A2.238,2.238,0,0,1,57.665,25.6c.015,1.858.031,3.717-.007,5.574-.02.96-.448,1.339-1.257,1.218" transform="translate(-1.766 -1.644)"/>
        <path id="Trazado_211105" data-name="Trazado 211105" d="M15.248,11.414a1.273,1.273,0,0,0,1.54-1.08A10.553,10.553,0,0,1,17.18,9.2a2.749,2.749,0,0,1,.284-.608c.568-.81,1.509-.868,2.936-.2a1.53,1.53,0,0,1,.885,1.922c-.277.961-.621,1.9-.921,2.858a1.547,1.547,0,0,0,1.78,2.15c.5-.06.986-.184,1.483-.25.559-.074,1.026.083,1.125.708.093.581-.246.888-.8.979-1.113.184-2.223.39-3.341.533a2.486,2.486,0,0,0-2.262,1.873q-2.411,7.388-4.918,14.744a3.332,3.332,0,0,0,1.077,3.968c1.714,1.47,3.387,2.988,5.109,4.513-1,1.087-2,2.145-2.966,3.225-.241.269-.386.189-.6,0-2.286-2.038-4.594-4.05-6.861-6.108a3.41,3.41,0,0,1-.807-3.935q3.271-9.755,6.51-19.52c.345-1.036.2-1.411-.725-1.883a15.849,15.849,0,0,0,1.08-2.75" transform="translate(-4.309 -4.22)" fill="#fecdbe"/>
        <path id="Trazado_211106" data-name="Trazado 211106" d="M110.137,62.134c-.177-1.086-.336-2.175-.541-3.255-.07-.368.014-.5.382-.519,2.641-.113,3.315-1.175,3.2-3.722-.065-1.374-.035-2.755,0-4.131A1.287,1.287,0,0,0,112.054,49q0-1.484,0-2.968a1.184,1.184,0,0,0,1.115-1.341q-.015-2.632,0-5.266a2.156,2.156,0,0,0-1.256-2.057c-1.065-.553-2.138-1.093-3.2-1.643-.68-.351-.935-.826-.649-1.3.369-.6.885-.542,1.433-.235.392.22.793.425,1.2.618a1.541,1.541,0,0,0,2.351-1.433c.031-1-.012-2.006.02-3.008a1.466,1.466,0,0,1,1.378-1.574c.661-.2.986.147,1.177.719a3.714,3.714,0,0,1,.147,1.191q0,14.244,0,28.486c0,1.7-.51,2.3-2.16,2.644-.86.18-1.722.355-2.588.508-.309.055-.658.174-.872-.21" transform="translate(-57.414 -15.286)" fill="#fecdbe"/>
        <path id="Trazado_211107" data-name="Trazado 211107" d="M96.717,2.426c0,2.354.01,4.63,0,6.906A3.69,3.69,0,0,1,90.2,11.818,3.673,3.673,0,0,1,93.58,5.81c.269.044.535.107.877.177,0-1.373-.006-2.718,0-4.063.008-1.5.893-2.179,2.361-1.836a5.228,5.228,0,0,1,3.6,2.824,1.162,1.162,0,0,1-.352,1.7A1.14,1.14,0,0,1,98.451,4a3.157,3.157,0,0,0-1.733-1.57" transform="translate(-47.516 0)"/>
        <path id="Trazado_211108" data-name="Trazado 211108" d="M7.36,114.2c0,1.154.058,2.312-.014,3.462a3.534,3.534,0,0,1-2.579,3.177,3.64,3.64,0,0,1-3.878-1.144A3.568,3.568,0,0,1,.4,115.678a3.615,3.615,0,0,1,4.233-1.918c.454.1.5,0,.5-.393-.015-1.154-.013-2.309,0-3.464.013-1.633.9-2.328,2.494-1.916a5.226,5.226,0,0,1,3.5,2.846,1.142,1.142,0,0,1-.427,1.67,1.109,1.109,0,0,1-1.553-.61A3.59,3.59,0,0,0,7.9,110.521c-.374-.236-.52-.182-.512.288.018,1.129.006,2.259.006,3.389H7.36" transform="translate(0 -57.378)"/>
        <path id="Trazado_211109" data-name="Trazado 211109" d="M64.216,121.611c-.229-.375-.6-.291-.946-.291l-24.712-.007c-.352,0-.7-.015-1.054-.024-.927-8.476-1.911-16.947-2.745-25.432a6.955,6.955,0,0,0-2.792-5.312c-.742-.552-1.388-1.232-2.1-1.831-.268-.227-.3-.362-.037-.637.872-.9,1.728-1.821,2.553-2.765.306-.351.485-.351.827-.04,1.6,1.45,3.238,2.854,4.831,4.309a3.154,3.154,0,0,0,2.515.953c.449-.044.643.165.858.524a7.324,7.324,0,0,0,12.919-.371,1.022,1.022,0,0,1,.872-.65q4.888-.619,9.769-1.291c.562-.078.734.086.788.638.1,1.045.294,2.082.448,3.122-.008.55-.47.522-.808.594-1.5.317-3,.608-4.5.911-1.295.261-1.555.625-1.384,1.993.3,2.388.6,4.776.892,7.166.673,5.55,1.375,11.1,2.056,16.646.121.986.122.988,1.153,1.147a1.039,1.039,0,0,1,.481.2.576.576,0,0,1,.113.454" transform="translate(-15.772 -45.235)" fill="#d7ebfd"/>
        <path id="Trazado_211110" data-name="Trazado 211110" d="M52.53,55.721c0-1.53.015-3.061-.008-4.591-.007-.507.061-.662.608-.431a33.366,33.366,0,0,0,8.787,2.473,18.4,18.4,0,0,0,4.874.112c.468-.065.593.047.586.527-.029,2.082.01,4.165-.024,6.246a5.541,5.541,0,0,1-5.322,5.391A23.75,23.75,0,0,1,57,65.334a5.445,5.445,0,0,1-4.442-5.174c-.059-1.477-.011-2.959-.011-4.439H52.53" transform="translate(-27.936 -26.912)" fill="#fecdbe"/>
        <path id="Trazado_211111" data-name="Trazado 211111" d="M43.932,41.283A10.233,10.233,0,0,1,47.066,33.1a9.72,9.72,0,0,1,6.3-2.884,15.33,15.33,0,0,1,6.835.651,10.4,10.4,0,0,1,6.61,9.416c.024.979-.018,1.96.019,2.939.019.5-.141.692-.637.628a3.212,3.212,0,0,0-.677,0c-.358.031-.488-.11-.477-.472.021-.728.016-1.457,0-2.185-.017-.88-.476-1.374-1.32-1.235-5.733.944-10.972-.7-16.091-3.006a1.356,1.356,0,0,0-1.488-.021,1.261,1.261,0,0,0-.447,1.138c0,1.683-.044,3.367.02,5.048.031.806-.406.735-.929.736-.5,0-.959.067-.865-.7a17.155,17.155,0,0,0,.013-1.87" transform="translate(-23.355 -16.022)" fill="#7ca0b0"/>
        <path id="Trazado_211112" data-name="Trazado 211112" d="M112.634,62.1a9.5,9.5,0,0,0,2.623-.372c.369-.037.729-.163,1.1-.231a1.72,1.72,0,0,0,1.662-1.944q.01-14.657,0-29.314c0-.993-.307-1.374-1.082-1.477a3.72,3.72,0,0,1,1.635,0,1.574,1.574,0,0,1,1.31,1.449,6.668,6.668,0,0,1,.017.677q0,14.845,0,29.69c0,1.478-.1,1.611-1.536,1.89-1.55.3-3.117.527-4.653.888-.758.178-1.018-.008-1-.743a2.948,2.948,0,0,0-.076-.517" transform="translate(-59.911 -15.249)" fill="#feaf9d"/>
        <path id="Trazado_211113" data-name="Trazado 211113" d="M97.741,129.637c-1.57.034-1.614.04-1.844-1.506-.288-1.943-.492-3.9-.74-5.847-.28-2.2-.577-4.39-.852-6.586-.229-1.827-.431-3.658-.654-5.486s-.448-3.654-.7-5.478a5.464,5.464,0,0,1-.035-1.347,1.139,1.139,0,0,1,1.04-1.023c1.784-.345,3.565-.709,5.35-1.047a.651.651,0,0,0,.543-.331c.168.243.074.545.169.8.185.488,0,.66-.48.731-.841.123-1.675.3-2.511.455a2.269,2.269,0,0,0-2.047,2.785q1.269,10.785,2.551,21.568c.091.77.141,1.544.21,2.316" transform="translate(-49.409 -53.715)" fill="#b2d9fd"/>
        <path id="Trazado_211114" data-name="Trazado 211114" d="M66.995,90.639a3.7,3.7,0,0,0,1,.644,5.028,5.028,0,0,1-8.1.559c-.128-.168-.339-.318,0-.517a2.724,2.724,0,0,0,1.256-2.7c-.03-1.424,0-1.427,1.44-1.423.9,0,1.805.016,2.708.024a1.274,1.274,0,0,1,.2,1.075,1.95,1.95,0,0,0,1.494,2.342" transform="translate(-31.76 -46.381)" fill="#fecdbe"/>
        <path id="Trazado_211115" data-name="Trazado 211115" d="M45.082,66.118a2.3,2.3,0,0,1,0,.3c-.063.465.251,1.195-.087,1.341a4.518,4.518,0,0,1-1.847.075c-.315-.011-.376-.291-.378-.556,0-.828,0-1.655,0-2.482,0-.4.17-.571.586-.6,1.731-.132,1.73-.143,1.731,1.924" transform="translate(-22.747 -34.119)" fill="#fcae9c"/>
        <path id="Trazado_211116" data-name="Trazado 211116" d="M89.061,66.022V65.8c0-1.626,0-1.611,1.621-1.564.474.014.686.164.672.656-.022.8-.017,1.6,0,2.4.008.457-.2.6-.637.613-1.654.062-1.654.075-1.653-1.583v-.3" transform="translate(-47.372 -34.159)" fill="#feaf9d"/>
        <path id="Trazado_211117" data-name="Trazado 211117" d="M73.346,90.605a1.5,1.5,0,0,1-1.69-1.624c-.011-.6,0-1.2-.006-1.794a3.882,3.882,0,0,0,.524-.033c.5-.1.583.15.561.582a4,4,0,0,0,.61,2.868" transform="translate(-38.111 -46.347)" fill="#feb09e"/>
        <path id="Trazado_211118" data-name="Trazado 211118" d="M94.189,18.539a1.421,1.421,0,0,1,1.429-1.43,1.471,1.471,0,0,1,1.415,1.465,1.422,1.422,0,0,1-1.411,1.37,1.383,1.383,0,0,1-1.433-1.405" transform="translate(-50.1 -9.1)" fill="#8278bf"/>
        <path id="Trazado_211119" data-name="Trazado 211119" d="M6.3,125.011a1.406,1.406,0,0,1,1.415,1.436,1.41,1.41,0,0,1-2.819.01,1.405,1.405,0,0,1,1.4-1.445" transform="translate(-2.603 -66.494)" fill="#fc75a7"/>
      </g>
    </g>
  </g>
</svg>
