<svg xmlns="http://www.w3.org/2000/svg" xmlns:xlink="http://www.w3.org/1999/xlink" width="505" height="361" viewBox="0 0 505 361">
  <defs>
    <clipPath id="clip-path">
      <rect id="Rectángulo_338913" data-name="Rectángulo 338913" width="505" height="361" rx="13" transform="translate(390 4719)" fill="#fc5f65"/>
    </clipPath>
    <clipPath id="clip-path-2">
      <rect id="Rectángulo_338912" data-name="Rectángulo 338912" width="516.842" height="338.881" fill="none"/>
    </clipPath>
    <clipPath id="clip-path-3">
      <rect id="Rectángulo_338901" data-name="Rectángulo 338901" width="333.736" height="887.316" fill="none"/>
    </clipPath>
    <clipPath id="clip-path-5">
      <rect id="Rectángulo_338899" data-name="Rectángulo 338899" width="9.175" height="7.632" fill="none"/>
    </clipPath>
  </defs>
  <g id="Grupo_983639" data-name="Grupo 983639" transform="translate(-390 -4719)">
    <rect id="Rectángulo_338816" data-name="Rectángulo 338816" width="415" height="330" rx="13" transform="translate(438 4750)" fill="#8284d2"/>
    <g id="Enmascarar_grupo_564" data-name="Enmascarar grupo 564" clip-path="url(#clip-path)">
      <rect id="Rectángulo_338915" data-name="Rectángulo 338915" width="323" height="361" rx="13" transform="translate(390 4719)" fill="#acade1"/>
      <rect id="Rectángulo_338914" data-name="Rectángulo 338914" width="516.842" height="70.046" transform="translate(379.294 5009.954)" fill="#e0d4c6"/>
      <g id="Grupo_983638" data-name="Grupo 983638" transform="translate(379.294 4741.119)">
        <g id="Grupo_983638-2" data-name="Grupo 983638" clip-path="url(#clip-path-2)">
          <path id="Trazado_209289" data-name="Trazado 209289" d="M489.318,419.582c0,3.43-102.384,6.21-228.679,6.21s-228.679-2.78-228.679-6.21,102.383-6.21,228.679-6.21,228.679,2.78,228.679,6.21" transform="translate(1.092 -116.631)" fill="#baa797"/>
          <rect id="Rectángulo_338903" data-name="Rectángulo 338903" width="516.843" height="7.785" transform="translate(0 261.05)" fill="#baa797"/>
          <path id="Trazado_209290" data-name="Trazado 209290" d="M417.549,22.28h46.077c.252,0,.458-.143.458-.318V15.2c0-.176-.206-.319-.458-.319H417.549c-.253,0-.458.143-.458.319v6.764c0,.175.2.318.458.318" transform="translate(14.255 -4.198)" fill="#e0d4c6"/>
          <path id="Trazado_209291" data-name="Trazado 209291" d="M386.385,35.636h46.076c.253,0,.459-.143.459-.319V28.554c0-.176-.206-.319-.459-.319H386.385c-.253,0-.459.143-.459.319v6.764c0,.176.206.319.459.319" transform="translate(13.19 -7.966)" fill="#e0d4c6"/>
          <path id="Trazado_209292" data-name="Trazado 209292" d="M293.307,107.9h46.076c.254,0,.459-.142.459-.319v-6.764c0-.176-.2-.319-.459-.319H293.307c-.253,0-.458.143-.458.319v6.764c0,.177.2.319.458.319" transform="translate(10.009 -28.356)" fill="#e0d4c6"/>
          <path id="Trazado_209293" data-name="Trazado 209293" d="M262.143,121.257H308.22c.253,0,.458-.143.458-.318v-6.764c0-.176-.2-.319-.458-.319H262.143c-.253,0-.458.143-.458.319v6.764c0,.175.2.318.458.318" transform="translate(8.944 -32.124)" fill="#e0d4c6"/>
          <path id="Trazado_209294" data-name="Trazado 209294" d="M286.459,253.79h46.076c.252,0,.458-.143.458-.318v-6.764c0-.176-.206-.319-.458-.319H286.459c-.254,0-.459.143-.459.319v6.764c0,.175.2.318.459.318" transform="translate(9.775 -69.517)" fill="#e0d4c6"/>
          <path id="Trazado_209295" data-name="Trazado 209295" d="M255.294,267.146h46.077c.252,0,.458-.143.458-.319v-6.764c0-.175-.206-.318-.458-.318H255.294c-.253,0-.459.143-.459.318v6.764c0,.176.206.319.459.319" transform="translate(8.71 -73.286)" fill="#e0d4c6"/>
          <path id="Trazado_209296" data-name="Trazado 209296" d="M75.674,7.4H29.6c-.253,0-.459-.142-.459-.319V.319c0-.176.206-.319.459-.319H75.674c.253,0,.458.143.458.319V7.082c0,.177-.2.319-.458.319" transform="translate(0.996)" fill="#e0d4c6"/>
          <path id="Trazado_209297" data-name="Trazado 209297" d="M106.838,20.757H60.761c-.253,0-.458-.142-.458-.318V13.675c0-.176.2-.319.458-.319h46.077c.253,0,.458.143.458.319v6.764c0,.176-.2.318-.458.318" transform="translate(2.061 -3.768)" fill="#e0d4c6"/>
          <path id="Trazado_209298" data-name="Trazado 209298" d="M67.06,260.468H20.984c-.253,0-.459-.143-.459-.318v-6.764c0-.176.206-.319.459-.319H67.06c.253,0,.459.143.459.319v6.764c0,.176-.206.319-.459.319" transform="translate(0.701 -71.401)" fill="#e0d4c6"/>
          <path id="Trazado_209299" data-name="Trazado 209299" d="M182.149,119.734H136.073c-.253,0-.459-.143-.459-.319v-6.764c0-.175.206-.318.459-.318h46.076c.253,0,.459.143.459.318v6.764c0,.176-.206.319-.459.319" transform="translate(4.635 -31.694)" fill="#e0d4c6"/>
          <path id="Trazado_209300" data-name="Trazado 209300" d="M444.33,201.962H398.254c-.253,0-.459-.143-.459-.319V194.88c0-.176.206-.319.459-.319H444.33c.253,0,.459.143.459.319v6.764c0,.176-.206.319-.459.319" transform="translate(13.596 -54.894)" fill="#e0d4c6"/>
          <path id="Trazado_209301" data-name="Trazado 209301" d="M488.165,243.058H442.088c-.252,0-.458-.142-.458-.318v-6.764c0-.176.206-.319.459-.319h46.076c.253,0,.459.143.459.319v6.764c0,.176-.206.318-.459.318" transform="translate(15.094 -66.489)" fill="#e0d4c6"/>
          <path id="Trazado_209302" data-name="Trazado 209302" d="M269.553,35.636H223.476c-.252,0-.458-.143-.458-.319V28.554c0-.176.206-.319.459-.319h46.076c.253,0,.459.143.459.319v6.764c0,.176-.206.319-.459.319" transform="translate(7.622 -7.966)" fill="#e0d4c6"/>
          <path id="Trazado_209303" data-name="Trazado 209303" d="M191.967,54.441c0,9.127-10.659,16.526-23.808,16.526s-23.809-7.4-23.809-16.526,10.659-16.526,23.809-16.526,23.808,7.4,23.808,16.526" transform="translate(4.934 -10.698)" fill="#ddd7bf"/>
          <path id="Trazado_209304" data-name="Trazado 209304" d="M191.967,52.093c0,9.127-10.659,16.526-23.808,16.526s-23.809-7.4-23.809-16.526,10.659-16.526,23.809-16.526,23.808,7.4,23.808,16.526" transform="translate(4.934 -10.035)" fill="#36251f"/>
          <path id="Trazado_209305" data-name="Trazado 209305" d="M168.1,67.828C156,67.828,146.165,61,146.165,52.6S156,37.382,168.1,37.382s21.932,6.829,21.932,15.223S180.19,67.828,168.1,67.828" transform="translate(4.996 -10.547)" fill="#f4ece1"/>
          <path id="Trazado_209306" data-name="Trazado 209306" d="M190.029,52.6c0,.291-.012.581-.035.869-.65-7.993-10.223-14.356-21.9-14.356s-21.246,6.363-21.9,14.356c-.023-.288-.035-.578-.035-.869,0-8.395,9.838-15.224,21.932-15.224S190.029,44.21,190.029,52.6" transform="translate(4.996 -10.547)" fill="#e0d4c6"/>
          <rect id="Rectángulo_338904" data-name="Rectángulo 338904" width="0.821" height="3.175" transform="translate(172.329 28.218)" fill="#36251f"/>
          <rect id="Rectángulo_338905" data-name="Rectángulo 338905" width="0.821" height="3.175" transform="translate(172.329 52.641)" fill="#36251f"/>
          <rect id="Rectángulo_338906" data-name="Rectángulo 338906" width="4.574" height="0.57" transform="translate(152.861 41.732)" fill="#36251f"/>
          <rect id="Rectángulo_338907" data-name="Rectángulo 338907" width="4.574" height="0.57" transform="translate(188.046 41.732)" fill="#36251f"/>
          <path id="Trazado_209309" data-name="Trazado 209309" d="M0,0,3.874.7l.126.7L.126.7Z" transform="translate(183.273 34.303) rotate(-45.002)" fill="#36251f"/>
          <path id="Trazado_209310" data-name="Trazado 209310" d="M0,0,3.874.7l.126.7L.126.7Z" transform="translate(158.393 51.573) rotate(-45.002)" fill="#36251f"/>
          <path id="Trazado_209311" data-name="Trazado 209311" d="M0,0,.7.126,1.395,4,.7,3.874Z" transform="translate(158.393 32.461) rotate(-45)" fill="#36251f"/>
          <path id="Trazado_209312" data-name="Trazado 209312" d="M0,0,.7.126,1.395,4,.7,3.874Z" transform="translate(183.273 49.731) rotate(-45)" fill="#36251f"/>
          <path id="Trazado_209307" data-name="Trazado 209307" d="M174.062,60.657l-7.427-2.03.258-.454,7.427,2.03c.181.05.27.191.2.317a.415.415,0,0,1-.456.138" transform="translate(5.695 -16.413)" fill="#d65900"/>
          <path id="Trazado_209308" data-name="Trazado 209308" d="M167.513,56.137H155.355c-.194,0-.352-.109-.352-.244s.157-.244.352-.244H167.09V48.757h.7v7.186c0,.108-.125.195-.28.195" transform="translate(5.298 -13.757)" fill="#36251f"/>
        </g>
      </g>
      <g id="Grupo_983637" data-name="Grupo 983637" transform="translate(484.132 4724.247)">
        <g id="Grupo_983636" data-name="Grupo 983636" clip-path="url(#clip-path-3)">
          <g id="Grupo_983635" data-name="Grupo 983635">
            <g id="Grupo_983634" data-name="Grupo 983634" clip-path="url(#clip-path-3)">
              <path id="Trazado_209210" data-name="Trazado 209210" d="M14.46,88.16S5.212,95.2,3.1,102.762s1.574,14.759,7.124,15.7c0,0-2.786,32.8,1.278,40.939s14.8-.927,14.8-.927S18.484,100.827,14.46,88.16" transform="translate(3.632 128.047)" fill="#5b413c"/>
              <path id="Trazado_209211" data-name="Trazado 209211" d="M17.831,122.98s-9.248,7.041-11.357,14.6,1.572,14.756,7.124,15.7c0,0-2.786,32.8,1.278,40.939s14.8-.93,14.8-.93-7.818-57.645-11.843-70.312" transform="translate(8.528 178.621)" fill="#5b413c"/>
              <path id="Trazado_209212" data-name="Trazado 209212" d="M10.724,94.7s-9.268,6.717.522,70.054S6.653,276.793,34.427,302.5s96.548-31.256,96.548-31.256L93.524,69.187c-28.892-12.377-73.487.54-82.8,25.513" transform="translate(9.812 93.579)" fill="#36251f"/>
              <path id="Trazado_209213" data-name="Trazado 209213" d="M60.607,272.709c-6.487.407-13.427-.407-19.247-3.961-7.2-4.395-11.86-15.524-14.239-34.02-2.023-15.72-2.1-33.971-2.166-50.076-.037-8.971-.074-17.444-.473-23.835C22.712,132.608,9.027,82.4,8.89,81.892a.966.966,0,1,1,1.864-.51c.14.505,13.876,50.91,15.659,79.314.4,6.445.439,14.948.478,23.948.128,30.888.3,73.193,15.477,82.454,10.631,6.489,25.508,3.188,33.427.643,13.832-4.444,26.808-12.971,29.537-19.414a.968.968,0,0,1,1.783.753c-2.975,7.016-16.184,15.831-30.729,20.5a66.466,66.466,0,0,1-15.779,3.127" transform="translate(12.861 117.168)" fill="#5b413c"/>
              <path id="Trazado_209214" data-name="Trazado 209214" d="M23.067,330.753l-1.476,20.968H56.536l1.479-20.968Z" transform="translate(31.36 480.399)" fill="#b5591d"/>
              <path id="Trazado_209215" data-name="Trazado 209215" d="M40.088,162.31S14.55,351.7,41.368,378.907c10.722,10.879,47.926,24.951,52.725,2.634,8.586-39.928,24.407-117.9,26.5-159.294Z" transform="translate(42.278 235.746)" fill="#6b294d"/>
              <path id="Trazado_209216" data-name="Trazado 209216" d="M110.3,287.828s.284,13.719-13.6,73.86C84.8,413.209,66.982,496.848,66.982,496.848s-29.579,2.877-47.246-4.419L42.436,219.2Z" transform="translate(28.665 318.381)" fill="#6b294d"/>
              <path id="Trazado_209217" data-name="Trazado 209217" d="M37.895,511.869a2.4,2.4,0,0,1-.473-.047,2.446,2.446,0,0,1-1.93-2.869c1.491-7.625,6-27.075,11.713-51.7,10.83-46.709,25.662-110.681,27.511-127.588.01-.086.025-.169.042-.255,5.888-27.082,20.628-128.216,20.777-129.234a2.446,2.446,0,0,1,4.841.7c-.15,1.02-14.869,102.017-20.811,129.445C77.624,347.71,62.8,411.645,51.969,458.357c-5.474,23.607-10.2,43.994-11.676,51.536a2.45,2.45,0,0,1-2.4,1.977" transform="translate(51.482 287.698)" fill="#96507a"/>
              <path id="Trazado_209218" data-name="Trazado 209218" d="M61.153,331.37c-18.352,0-38.29-4.812-39.212-5.037a1.688,1.688,0,0,1,.8-3.279c.243.059,24.537,5.91,43.624,4.8a1.687,1.687,0,0,1,.2,3.367c-1.776.1-3.585.152-5.413.152" transform="translate(29.999 469.149)" fill="#96507a"/>
              <path id="Trazado_209219" data-name="Trazado 209219" d="M84.122,392.16c0,.294-.007.579-.015.861-.027,1.3-.083,2.479-.14,3.487-.132,2.214-.292,3.578-.292,3.578H10.141a40.32,40.32,0,0,1-.086-7.065c.483-7.514,2.98-19.384,13.133-27.225,13.9-10.749,8.537-8.508,11.384-13.405.324-.547,2.825-8.87,3.09-9.444,2.394-5.089,4.591-7.492,17.768-7.492,17.474,0,19.011,8.478,20.878,12.944a83.4,83.4,0,0,1,2.906,10.379c.441,1.861.88,3.845,1.315,5.866,1.077,5.067,2.085,10.357,2.769,14.58a76.446,76.446,0,0,1,.824,12.937" transform="translate(14.452 487.229)" fill="#236676"/>
              <path id="Trazado_209220" data-name="Trazado 209220" d="M45.718,378.388c0,.294-.007.579-.015.861-.027,1.3-.083,2.479-.14,3.487a20.529,20.529,0,0,1-7.639-9.905c-4.549-12.392,2.448-27.264,2.739-27.894l.147.069c.441,1.861.88,3.845,1.315,5.866-1.655,5.059-3.563,13.564-.915,20.765a17.083,17.083,0,0,0,4.508,6.752" transform="translate(52.856 501.001)" fill="#104151"/>
              <path id="Trazado_209221" data-name="Trazado 209221" d="M84.109,358.928c-.1,4.186-.434,7.065-.434,7.065H10.141a40.32,40.32,0,0,1-.086-7.065Z" transform="translate(14.452 521.323)" fill="#104151"/>
              <path id="Trazado_209222" data-name="Trazado 209222" d="M41.465,348.027a2.061,2.061,0,0,1-.527-.069,36.39,36.39,0,0,0-17.047-.351,2.1,2.1,0,0,1-1.118-4.042,40.331,40.331,0,0,1,19.217.333,2.1,2.1,0,0,1-.525,4.128" transform="translate(30.842 497.581)" fill="#f4ece1"/>
              <path id="Trazado_209223" data-name="Trazado 209223" d="M41.821,345a2.061,2.061,0,0,1-.527-.069,36.357,36.357,0,0,0-17.047-.351,2.1,2.1,0,0,1-1.118-4.042,40.3,40.3,0,0,1,19.217.334A2.1,2.1,0,0,1,41.821,345" transform="translate(31.359 493.182)" fill="#f4ece1"/>
              <path id="Trazado_209224" data-name="Trazado 209224" d="M40.183,350.736a2.06,2.06,0,0,1-.527-.069,36.76,36.76,0,0,0-17.052-.351,2.1,2.1,0,0,1-1.113-4.042,40.3,40.3,0,0,1,19.217.334,2.1,2.1,0,0,1-.525,4.127" transform="translate(28.981 501.515)" fill="#f4ece1"/>
              <path id="Trazado_209225" data-name="Trazado 209225" d="M38.676,353.816a2.061,2.061,0,0,1-.527-.069A36.7,36.7,0,0,0,21.1,353.4a2.1,2.1,0,0,1-1.113-4.044,40.294,40.294,0,0,1,19.217.333,2.1,2.1,0,0,1-.525,4.128" transform="translate(26.792 505.988)" fill="#f4ece1"/>
              <path id="Trazado_209226" data-name="Trazado 209226" d="M36.893,158.77s-8.441,51.082-2.71,71.53,144.255,38.1,153.653,19.391c17.523-34.888,11.357-68.435,10.34-77.627C134.91,186.642,82.631,178.981,36.893,158.77" transform="translate(46.752 230.604)" fill="#6b294d"/>
              <path id="Trazado_209227" data-name="Trazado 209227" d="M90.39,331.022l3.4,25.51h31.654l-3.4-25.51Z" transform="translate(131.287 480.79)" fill="#b5591d"/>
              <path id="Trazado_209228" data-name="Trazado 209228" d="M204.835,395.327H89.587a16.111,16.111,0,0,1-1.516-6.4c-.721-9.746,2.389-25.3,3.912-35.114.184-1.148.343-2.217.466-3.186a34.021,34.021,0,0,0,.341-4c0-8,7.088-6.634,7.088-6.634,11.661,11.436,24.868-5.714,32.578-.088,0,0,3.321,2.379,12.471,10.612s24.711,13.665,37.956,19.208c17.1,7.149,21.952,14.29,22.9,19.208a9,9,0,0,1-.947,6.4" transform="translate(127.763 491.989)" fill="#236676"/>
              <path id="Trazado_209229" data-name="Trazado 209229" d="M204.771,365.6H89.524a16.111,16.111,0,0,1-1.516-6.4h117.71a9,9,0,0,1-.947,6.4" transform="translate(127.827 521.716)" fill="#104151"/>
              <path id="Trazado_209230" data-name="Trazado 209230" d="M98.966,388.283H95.543a25.283,25.283,0,0,0,6.195-18.452c-.554-11.389-7.387-19.065-12.135-23.063.184-1.148.343-2.217.466-3.186,5.118,3.912,13.741,12.473,14.413,26.111a27.972,27.972,0,0,1-5.516,18.589" transform="translate(130.143 499.033)" fill="#104151"/>
              <path id="Trazado_209231" data-name="Trazado 209231" d="M111.327,349.289a1.9,1.9,0,0,1-.456-3.742l7.2-1.788a1.9,1.9,0,0,1,.915,3.686l-7.2,1.788a1.974,1.974,0,0,1-.459.056" transform="translate(158.939 499.207)" fill="#f4ece1"/>
              <path id="Trazado_209232" data-name="Trazado 209232" d="M108.474,347.011a1.9,1.9,0,0,1-.456-3.742l7.2-1.788a1.9,1.9,0,1,1,.915,3.686l-7.2,1.788a1.968,1.968,0,0,1-.459.056" transform="translate(154.796 495.898)" fill="#f4ece1"/>
              <path id="Trazado_209233" data-name="Trazado 209233" d="M114.454,351.323a1.9,1.9,0,0,1-.456-3.742l7.2-1.788a1.9,1.9,0,1,1,.915,3.686l-7.2,1.788a1.834,1.834,0,0,1-.459.056" transform="translate(163.481 502.161)" fill="#f4ece1"/>
              <path id="Trazado_209234" data-name="Trazado 209234" d="M117.389,352.963a1.9,1.9,0,0,1-.456-3.742l7.2-1.788a1.9,1.9,0,0,1,.915,3.686l-7.2,1.788a1.958,1.958,0,0,1-.459.056" transform="translate(167.744 504.544)" fill="#f4ece1"/>
              <path id="Trazado_209235" data-name="Trazado 209235" d="M120.59,354.48a1.9,1.9,0,0,1-.456-3.742l7.2-1.788a1.9,1.9,0,0,1,.915,3.686l-7.2,1.788a1.851,1.851,0,0,1-.459.056" transform="translate(172.393 506.747)" fill="#f4ece1"/>
              <path id="Trazado_209236" data-name="Trazado 209236" d="M124.061,355.774a1.9,1.9,0,0,1-.456-3.742l7.2-1.788a1.9,1.9,0,0,1,.915,3.686l-7.2,1.788a1.971,1.971,0,0,1-.459.056" transform="translate(177.435 508.626)" fill="#f4ece1"/>
              <path id="Trazado_209237" data-name="Trazado 209237" d="M68.047,213.287S83.326,368.639,88.839,406.262c6.835,46.623,30.619,146.87,30.619,146.87s22.231.228,38.44-3.556l-12.147-365.8Z" transform="translate(98.834 266.929)" fill="#6b294d"/>
              <path id="Trazado_209238" data-name="Trazado 209238" d="M118.42,517.3a2.447,2.447,0,0,1-2.4-1.972c-.1-.515-10.32-52.078-17.4-85.524-7.107-33.562-14.3-90.824-14.371-91.4L71.1,201.746a2.446,2.446,0,0,1,4.871-.466L89.114,337.869c.064.505,7.23,57.564,14.293,90.924,7.09,33.478,17.314,85.07,17.415,85.588a2.456,2.456,0,0,1-2.4,2.921" transform="translate(103.253 289.137)" fill="#96507a"/>
              <path id="Trazado_209239" data-name="Trazado 209239" d="M89.123,332.392a1.689,1.689,0,0,1-.093-3.372l39.067-2.227a1.688,1.688,0,0,1,.181,3.37L89.213,332.39c-.032,0-.061,0-.091,0" transform="translate(127.048 474.646)" fill="#96507a"/>
              <path id="Trazado_209240" data-name="Trazado 209240" d="M65.413,165.658c-.022.493-.042.991-.064,1.5-.564,13.312-1.265,32.161-1.631,51.4-.025,1.059-.042,2.126-.064,3.188-.1,6.136-.172,12.284-.189,18.273a1.541,1.541,0,0,0,1.525,1.545H65a1.542,1.542,0,0,0,1.545-1.538c.017-5.785.083-11.713.184-17.633q.026-1.563.056-3.127c.361-19.352,1.064-38.366,1.636-51.8.025-.613.052-1.214.076-1.807Z" transform="translate(92.181 240.609)" fill="#96507a"/>
              <path id="Trazado_209241" data-name="Trazado 209241" d="M81.74,165.658c-.039.824-.078,1.663-.115,2.531-.822,17.415-2.082,42.069-2.916,47.889a3.442,3.442,0,0,1-1.736,2.784c-1.594.883-4.049.834-6.5.4a31.217,31.217,0,0,1-3.073-.709,36.494,36.494,0,0,1-4.3-1.513,1.542,1.542,0,0,0-1.238,2.825,39.738,39.738,0,0,0,5.476,1.876,30.686,30.686,0,0,0,3.078.647,21.14,21.14,0,0,0,2.933.253,10.309,10.309,0,0,0,5.13-1.089,6.532,6.532,0,0,0,3.291-5.042c.858-6,2.126-30.695,2.943-48.154.047-.922.086-1.815.128-2.7Z" transform="translate(88.503 240.609)" fill="#96507a"/>
              <path id="Trazado_209242" data-name="Trazado 209242" d="M31.557,188.58c.363,3.048.672,6.81.954,11.156q.147,2.24.292,4.665c.795,13.525,1.484,31.315,2.764,49.767.115,1.653.24,3.323.373,4.983,2.977,39.725-8.988,83.972,7.679,88.339,110.968,29.083,156.368-2.048,166.33-22.707,5.258-10.906-8.954-69.473-14.006-120.177-.167-1.714-.231-5.516-.4-7.168-1.351-13.8-2.575-26.116-3.585-32.654-7.166-46.42-5.807-59.842-10.411-73.9s-53.294-28.022-53.294-28.022L77.8,65S57.33,75.63,36.987,96.8s-9.246,59.482-5.43,91.775" transform="translate(36.449 91.308)" fill="#ff9918"/>
              <path id="Trazado_209243" data-name="Trazado 209243" d="M53.886,134.553c24.071,0,44.11-9.516,56.983-17.792a119.538,119.538,0,0,0,23.722-19.654,1.493,1.493,0,1,0-2.251-1.962A118.933,118.933,0,0,1,109.174,114.3c-13.322,8.549-34.521,18.472-59.862,17.145a1.494,1.494,0,0,0-.157,2.985q2.391.125,4.731.123" transform="translate(69.34 137.448)" fill="#dd6a18"/>
              <path id="Trazado_209244" data-name="Trazado 209244" d="M46.476,83.812a1.688,1.688,0,0,1,2.031-1.641c25.591,5.31,44.912-3.961,56.742-12.841a1.687,1.687,0,0,1,2.362.348l.022.027a1.693,1.693,0,0,1-.316,2.386c-1.545,1.162-3.213,2.332-5,3.48A71.926,71.926,0,0,1,63.378,87.106a76.477,76.477,0,0,1-15.492-1.616,1.737,1.737,0,0,1-1.41-1.677" transform="translate(67.504 100.212)" fill="#dd6a18"/>
              <path id="Trazado_209245" data-name="Trazado 209245" d="M59.742,204.093c23.149,0,46.56-10.46,68.644-30.857A198.231,198.231,0,0,0,162.121,131.8a1.687,1.687,0,0,0-2.928-1.677,194.563,194.563,0,0,1-33.16,40.689c-18.894,17.434-48.794,36.4-83.962,27.749a1.688,1.688,0,0,0-.8,3.279,77.2,77.2,0,0,0,18.474,2.251" transform="translate(58.071 187.766)" fill="#dd6a18"/>
              <path id="Trazado_209246" data-name="Trazado 209246" d="M55.026,173.491a1.6,1.6,0,0,0,.37-.042c27.938-6.271,49.927-42,50.849-43.514a1.687,1.687,0,1,0-2.884-1.751c-.218.358-22.173,36.019-48.7,41.974a1.687,1.687,0,0,0,.368,3.333" transform="translate(77.472 185.002)" fill="#dd6a18"/>
              <path id="Trazado_209247" data-name="Trazado 209247" d="M115.24,28.468a43.424,43.424,0,0,1-7.558,17.417A23.356,23.356,0,0,1,97.5,45.022c-13.41-3.657-23.573-.728-31.757,4.888C47.94,62.121,39.469,87.033,27.21,84.578c-10.673-2.139-4.949-12.532-4.768-12.853-.169.115-8.471,5.952-14.531-.88C2.462,64.7,11.244,54.317,11.926,53.527c-.616.638-7.666,7.73-11.576.765-2.114-3.769,4-41.515,55.967-52.487C82.814-3.784,98,4.535,106.527,14.04a46.742,46.742,0,0,1,8.714,14.428" transform="translate(0 0)" fill="#36251f"/>
              <path id="Trazado_209248" data-name="Trazado 209248" d="M76.306,20.153A43.424,43.424,0,0,1,68.748,37.57a23.356,23.356,0,0,1-10.185-.863c-13.41-3.657-23.573-.728-31.757,4.888C35.922,14.909,56.257,7.672,67.593,5.725a46.741,46.741,0,0,1,8.714,14.428" transform="translate(38.934 8.315)" fill="#ff9918"/>
              <path id="Trazado_209249" data-name="Trazado 209249" d="M89.164,124.007s-29.861,4.314-47.452-21.29c-16.75-24.38-15.737-40.345-12.888-57.583,2.148-12.986,15.789-34.2,43.845-37.863C101,3.577,125.448,10.4,135.827,31.179c19.418,38.886,3.541,99.856-46.663,92.827" transform="translate(39.469 9.173)" fill="#36251f"/>
              <path id="Trazado_209250" data-name="Trazado 209250" d="M70.624,38.012S77.287,27.679,82.952,36.4s4.7,28.009-7.691,26.491Z" transform="translate(102.577 47.79)" fill="#8f2d00"/>
              <path id="Trazado_209251" data-name="Trazado 209251" d="M95.167,59.819l4.351,25.209s-17.353,22.148-52.08.128c1.93-9.3,1.253-23.156-3.122-32.6a50.063,50.063,0,0,1,8.306,2.9,27.16,27.16,0,0,0,3.4.976c10.648,2.921,26.5,6.038,39.146,3.379" transform="translate(64.366 76.34)" fill="#b5591d"/>
              <path id="Trazado_209252" data-name="Trazado 209252" d="M90.248,58.1,92.31,70.05c-11.3-1.015-31.825-4.427-44.607-16.306,1.059.316,2.195.645,3.4.976,10.648,2.921,26.5,6.038,39.146,3.379" transform="translate(69.286 78.06)" fill="#36251f"/>
              <path id="Trazado_209253" data-name="Trazado 209253" d="M122.745,64.256q.511,3.988.915,7.531c2.028,17.778,2.075,27.659-1.614,32.63-18.651,25.113-69.985,4.731-71.636,4.071a.1.1,0,0,0-.044-.02q-1.052-2.91-1.969-5.78a157.613,157.613,0,0,1-7.634-46.442,35.622,35.622,0,0,1,18.327-38.1C73.433,10.7,87.792,15.556,96.226,17c12.733,2.178,22.5,17,25.51,39.533q.541,4.054,1.008,7.725" transform="translate(58.334 20.49)" fill="#b5591d"/>
              <path id="Trazado_209254" data-name="Trazado 209254" d="M68.148,37.54l.029,0a1.173,1.173,0,0,0,1.1-1.243c0-.123-.13-3.169,2.273-3.809,2.651-.706,4.969,1.9,4.991,1.923a1.177,1.177,0,1,0,1.771-1.55c-.132-.152-3.321-3.73-7.367-2.646-3.411.91-4.12,4.466-4.015,6.222a1.176,1.176,0,0,0,1.214,1.106" transform="translate(97.203 43.585)" fill="#36251f"/>
              <path id="Trazado_209255" data-name="Trazado 209255" d="M67.374,37.235l-.029.017a1.318,1.318,0,0,1-1.751-.633c-.061-.125-1.567-3.188-4.272-2.533-2.982.719-3.87,4.522-3.88,4.562a1.317,1.317,0,0,1-2.57-.579c.049-.221,1.273-5.442,5.832-6.541,3.843-.929,6.438,2.188,7.274,3.971a1.315,1.315,0,0,1-.6,1.736" transform="translate(79.65 45.547)" fill="#36251f"/>
              <path id="Trazado_209256" data-name="Trazado 209256" d="M73.8,45.109a20.62,20.62,0,0,1-11.664-2.08,1.128,1.128,0,1,1,.969-2.038c9.533,4.532,15.9.025,16.162-.169A1.128,1.128,0,0,1,80.6,42.637,15.475,15.475,0,0,1,73.8,45.109" transform="translate(89.313 58.976)" fill="#36251f"/>
              <path id="Trazado_209257" data-name="Trazado 209257" d="M73.478,46.766a7.032,7.032,0,0,0,.755-.4,1.118,1.118,0,0,0-1.2-1.888,7.183,7.183,0,0,1-7.124.1,1.115,1.115,0,0,0-1.6.53,1.187,1.187,0,0,0,.564,1.459,9.265,9.265,0,0,0,8.6.2" transform="translate(93.295 64.338)" fill="#8f2d00"/>
              <path id="Trazado_209258" data-name="Trazado 209258" d="M65.945,24.88s4.532-.14,3.495,4.167S58.838,30,53.4,38.4c0,0-4.015-9.484,12.547-13.518" transform="translate(76.937 36.136)" fill="#36251f"/>
              <path id="Trazado_209259" data-name="Trazado 209259" d="M70.758,39.619c.272,2.087-3.806,4.341-9.111,5.032s-9.824-.439-10.1-2.528,3.809-4.341,9.111-5.032,9.824.441,10.1,2.528" transform="translate(74.856 53.577)" fill="#8f2d00"/>
              <g id="Grupo_983633" data-name="Grupo 983633" transform="translate(172.819 84.747)" opacity="0.8">
                <g id="Grupo_983632" data-name="Grupo 983632">
                  <g id="Grupo_983631" data-name="Grupo 983631" clip-path="url(#clip-path-5)">
                    <path id="Trazado_209260" data-name="Trazado 209260" d="M78.728,34.556q.511,3.988.915,7.531c-4.9.456-8.907-.667-9.162-2.631s3.372-4.1,8.248-4.9" transform="translate(-70.469 -34.556)" fill="#8f2d00"/>
                  </g>
                </g>
              </g>
              <path id="Trazado_209261" data-name="Trazado 209261" d="M69.94,45.738a10.436,10.436,0,0,0,2.349-.562,1.19,1.19,0,0,0,.62-1.638L66.916,31.6a1.19,1.19,0,0,0-2.126,1.069L70.129,43.3a9.375,9.375,0,0,1-4.969-.41,1.19,1.19,0,1,0-.846,2.224,11.616,11.616,0,0,0,5.626.625" transform="translate(92.299 44.949)" fill="#36251f"/>
              <path id="Trazado_209262" data-name="Trazado 209262" d="M53.347,47.352c-.1.338-2.725,9.574-7.813,12.848l-.007.007-.032-.027Q44.438,57.275,43.52,54.4a22.133,22.133,0,0,0,9.827-7.051" transform="translate(63.21 68.776)" fill="#36251f"/>
              <path id="Trazado_209263" data-name="Trazado 209263" d="M57.016,43.3s-13.474-13.9-20.294-.706C31.1,53.467,47.577,77.748,60.113,67.055Z" transform="translate(51.691 53.602)" fill="#b5591d"/>
              <path id="Trazado_209264" data-name="Trazado 209264" d="M54.018,57.835a.779.779,0,0,0,.128-.025,1.186,1.186,0,0,0,.876-1.437A22.264,22.264,0,0,0,39.774,40.239a1.19,1.19,0,0,0-.589,2.305A19.869,19.869,0,0,1,52.708,56.935a1.191,1.191,0,0,0,1.31.9" transform="translate(55.616 58.391)" fill="#36251f"/>
              <path id="Trazado_209265" data-name="Trazado 209265" d="M40.631,48.565a1.186,1.186,0,0,0,.709-.361c.917-.964,3.762-3.416,5.864-3.159a1.19,1.19,0,1,0,.287-2.362c-3.666-.444-7.458,3.438-7.877,3.885a1.189,1.189,0,0,0,1.018,2" transform="translate(57.062 61.945)" fill="#36251f"/>
              <path id="Trazado_209266" data-name="Trazado 209266" d="M39.755,49.27S57.315,61.537,63.46,57.137,57.239,41.15,57.239,41.15s24.9,9.565,33.3,4.343S81.5,31.509,81.5,31.509s19.806,13.476,29.79,11.222-1.785-13.675-1.785-13.675,11.573,16.664,17.469,14.332-5.633-26.913-26.984-33.007S27.407,12.569,39.755,49.27" transform="translate(54.99 12.433)" fill="#36251f"/>
              <path id="Trazado_209267" data-name="Trazado 209267" d="M53.3,28.809S62.728,60.875,54.5,62.1,36.3,51.661,38.878,25.16Z" transform="translate(55.867 36.543)" fill="#36251f"/>
              <path id="Trazado_209268" data-name="Trazado 209268" d="M68.235,23.807s-4.417,1.025-2.31,4.922,10.494-1.793,17.9,4.925c0,0,1.452-10.195-15.59-9.847" transform="translate(94.926 34.566)" fill="#36251f"/>
              <path id="Trazado_209269" data-name="Trazado 209269" d="M67.393,58.347c-.319,0-.638-.01-.959-.029a15.491,15.491,0,1,1,.959.029m-.02-28.522a13.027,13.027,0,1,0,.807.025c-.27-.017-.54-.025-.807-.025m14.244,13.9h0Z" transform="translate(75.362 39.729)" fill="#f4ece1"/>
              <path id="Trazado_209270" data-name="Trazado 209270" d="M81.616,56.422c-.321,0-.645-.01-.969-.029a15.479,15.479,0,1,1,.969.029M81.587,27.9a13.029,13.029,0,1,0,.8.025c-.27-.017-.537-.025-.8-.025" transform="translate(96.005 36.932)" fill="#f4ece1"/>
              <path id="Trazado_209271" data-name="Trazado 209271" d="M64.6,35.941a1.208,1.208,0,0,1-.638-.179,1.233,1.233,0,0,1-.419-1.69,7.411,7.411,0,0,1,4.135-3.164,5.454,5.454,0,0,1,4.282.846,1.235,1.235,0,0,1-1.327,2.085,3.039,3.039,0,0,0-2.379-.527,4.912,4.912,0,0,0-2.6,2.038,1.238,1.238,0,0,1-1.057.591" transform="translate(92.043 44.695)" fill="#f4ece1"/>
              <path id="Trazado_209272" data-name="Trazado 209272" d="M41.259,44.234a1.235,1.235,0,0,1-.954-2.018C50.593,29.662,69.043,32.4,69.823,32.521a1.235,1.235,0,0,1-.383,2.44c-.179-.027-17.842-2.629-27.225,8.821a1.237,1.237,0,0,1-.956.451" transform="translate(58.133 46.749)" fill="#f4ece1"/>
              <path id="Trazado_209273" data-name="Trazado 209273" d="M40.944,77.743S68.667,94.358,75.9,130.7,58.6,217.513,30.034,232.169c0,0-4.738,12.049,1.616,26.506,0,0,61.824-19.73,66.459-98.566S58.347,69.265,58.347,69.265c-5.606-1.538-14.271,3.831-17.4,8.478" transform="translate(41.156 100.214)" fill="#36251f"/>
              <path id="Trazado_209274" data-name="Trazado 209274" d="M49.69,92.255a52.568,52.568,0,0,1,16.929-4.718,5.379,5.379,0,0,1,5.751,4.814c.773,7.389,2.055,21.7,1.508,31.014a5.382,5.382,0,0,1-4.971,5.047l-14.9,1.121a5.386,5.386,0,0,1-5.788-5.543c.218-6.575.2-17.312-1.572-25.753a5.367,5.367,0,0,1,3.041-5.982" transform="translate(67.588 127.118)" fill="#5b413c"/>
              <path id="Trazado_209275" data-name="Trazado 209275" d="M120.948,213.034a357.384,357.384,0,0,1-33.015,21c-10.9,6.045-20.662,10.443-29.027,13.067a65.4,65.4,0,0,1-16.875,3.2q-1,.04-1.994.039a40.337,40.337,0,0,1-11.22-1.518,34.552,34.552,0,0,1-8.682-3.86A33.458,33.458,0,0,1,5.382,224.622a44.412,44.412,0,0,1-1.261-14.129,63.926,63.926,0,0,1,.861-7.142c1.66-9.488,6.045-21.707,13.4-37.343,5.327-11.318,12.265-24.547,20.625-39.32,14.05-24.833,27.212-45.4,27.767-46.26,1.167-1.825,3.527-4.638,6.165-5.692a199,199,0,0,1,28.282,42.643c-5.05,8.194-12.38,20.331-19.848,33.537-11.193,19.791-17.986,33.63-22.1,43.116,2.953-1.528,6.291-3.36,10.048-5.569,12.52-7.355,22.791-14.8,22.894-14.877a24.4,24.4,0,0,1,28.735,39.448" transform="translate(5.843 108.55)" fill="#ff9918"/>
              <path id="Trazado_209276" data-name="Trazado 209276" d="M28.818,168.416a34.61,34.61,0,0,1-8.684-3.858A33.482,33.482,0,0,1,5.38,144.221,44.483,44.483,0,0,1,4.12,130.092c9.66,4.748,29.8,17.383,24.7,38.324" transform="translate(5.842 188.951)" fill="#dd6a18"/>
              <path id="Trazado_209277" data-name="Trazado 209277" d="M13,147.244a1.317,1.317,0,0,1-.922-2.261c11.372-11.11,33.711-21.7,34.653-22.146a1.319,1.319,0,0,1,1.128,2.384c-.231.11-22.886,10.855-33.937,21.648a1.317,1.317,0,0,1-.922.375" transform="translate(16.974 178.23)" fill="#dd6a18"/>
              <path id="Trazado_209278" data-name="Trazado 209278" d="M34.571,126.684a1.34,1.34,0,0,1-.412-.066c-5.319-1.739-14.749-.481-14.845-.468a1.318,1.318,0,1,1-.353-2.612c.41-.056,10.126-1.351,16.019.574a1.319,1.319,0,0,1-.41,2.573" transform="translate(25.879 178.736)" fill="#dd6a18"/>
              <path id="Trazado_209279" data-name="Trazado 209279" d="M34.626,141.334a1.318,1.318,0,0,1-1.148-1.964l27.7-49.331a1.319,1.319,0,1,1,2.3,1.29l-27.7,49.333a1.317,1.317,0,0,1-1.15.672" transform="translate(48.377 129.798)" fill="#dd6a18"/>
              <path id="Trazado_209280" data-name="Trazado 209280" d="M50.767,97.92H42.585a1.319,1.319,0,1,1,0-2.639h8.181a1.319,1.319,0,1,1,0,2.639" transform="translate(59.937 138.39)" fill="#dd6a18"/>
              <path id="Trazado_209281" data-name="Trazado 209281" d="M38.811,132.817s14.774-20.576,20.841-22.42,8.775,0,8.775,0l-.385,5.611s21.682-6.933,24.848-4.824.265,7.127.265,7.127.79-1.055,1.847,2.372-2.639,6.862-2.639,6.862,1.319.79,1.847,3.956-2.9,7.122-2.9,7.122,1.582,2.112,0,6.859S72.049,160.518,59.387,161.31s-25.062-13.719-20.576-28.492" transform="translate(55.01 159.153)" fill="#b5591d"/>
              <path id="Trazado_209282" data-name="Trazado 209282" d="M199.663,200.082a35.607,35.607,0,0,0-2.465-11.262q-.346-.909-.746-1.837c-7.885-18.4-23.467-42.069-46.314-70.356C133.631,96.187,119.4,80.889,118.806,80.246A24.4,24.4,0,0,0,83.1,113.511c6.6,7.08,18.42,20.456,30.609,35.683A24.4,24.4,0,0,0,104.94,192.3c.515.387,12.763,9.658,26.138,18.379a192.221,192.221,0,0,0,21.282,12.36,59.928,59.928,0,0,0,12.149,4.481,34.3,34.3,0,0,0,7.786.929,28.075,28.075,0,0,0,12.937-3.058,26.124,26.124,0,0,0,4.218-2.681,26.876,26.876,0,0,0,10.212-22.629" transform="translate(111.184 105.269)" fill="#ff9918"/>
              <path id="Trazado_209283" data-name="Trazado 209283" d="M125.447,153.807a26.124,26.124,0,0,1-4.218,2.681c-3.041-15.2,5.9-29.167,11.963-36.571a35.405,35.405,0,0,1,2.465,11.264,26.87,26.87,0,0,1-10.21,22.626" transform="translate(175.188 174.173)" fill="#dd6a18"/>
              <path id="Trazado_209284" data-name="Trazado 209284" d="M138.3,130.84a1.324,1.324,0,0,1-.824-.289c-8.978-7.183-30.842-16.073-31.063-16.162a1.32,1.32,0,0,1,.991-2.448c.912.37,22.445,9.128,31.72,16.549a1.319,1.319,0,0,1-.824,2.349" transform="translate(153.367 162.45)" fill="#dd6a18"/>
              <path id="Trazado_209285" data-name="Trazado 209285" d="M121.731,127.579a1.32,1.32,0,0,1-1.148-.667l-7.934-13.957a1.319,1.319,0,0,1,2.293-1.3l7.934,13.957a1.318,1.318,0,0,1-1.145,1.969" transform="translate(163.366 161.201)" fill="#dd6a18"/>
              <path id="Trazado_209286" data-name="Trazado 209286" d="M77.646,66.577s9,61.924,15.419,89.678c6.487,28.058,26.491,66.562,28.358,65.8,0,0,1.92-45.949-7.813-70.721S101.2,85.14,95.267,75.42s-17.621-8.843-17.621-8.843" transform="translate(112.776 96.67)" fill="#36251f"/>
              <path id="Trazado_209287" data-name="Trazado 209287" d="M124.95,129.294s-3.882-11.661-8.027-16.333c-4.211-4.745-10.192-2.972-10.192-2.972l1.155,5.182s-19.1-.069-21.483,2.9,1.9,6.872,1.9,6.872-1.074-.765-1.045,2.823,4.591,5.744,4.591,5.744-1.02,1.153-.566,4.331,4.922,5.915,4.922,5.915-2.489,3.853,2.183,5.655c2.124.819,8.554,2.882,17.525-1.349,4.108-1.937,11.762-6.71,9.035-18.766" transform="translate(124.449 159.28)" fill="#b5591d"/>
              <path id="Trazado_209288" data-name="Trazado 209288" d="M101.689,87.336a52.52,52.52,0,0,0-17.574-.052,5.379,5.379,0,0,0-4.265,6.17c1.216,7.328,3.784,21.461,6.783,30.3a5.382,5.382,0,0,0,6.136,3.546l14.661-2.879a5.382,5.382,0,0,0,4.105-6.879c-1.955-6.281-4.8-16.637-5.327-25.248a5.367,5.367,0,0,0-4.52-4.956" transform="translate(115.87 125.72)" fill="#5b413c"/>
            </g>
          </g>
        </g>
      </g>
    </g>
  </g>
</svg>
