<svg xmlns="http://www.w3.org/2000/svg" xmlns:xlink="http://www.w3.org/1999/xlink" width="92" height="92" viewBox="0 0 92 92">
  <defs>
    <clipPath id="clip-path">
      <rect id="Rectángulo_339007" data-name="Rectángulo 339007" width="61.063" height="61.094" fill="none"/>
    </clipPath>
  </defs>
  <g id="Grupo_983753" data-name="Grupo 983753" transform="translate(320 7707)">
    <circle id="Elipse_4876" data-name="Elipse 4876" cx="46" cy="46" r="46" transform="translate(-320 -7707)" fill="#6b8dfc"/>
    <g id="Grupo_983752" data-name="Grupo 983752" transform="translate(-305 -7692)">
      <g id="Grupo_983751" data-name="Grupo 983751" clip-path="url(#clip-path)">
        <path id="Trazado_211120" data-name="Trazado 211120" d="M21.158,1.954l1.98,0a.235.235,0,0,1,.085.092c.268.715.644.9,1.422.735a.389.389,0,0,0,.345-.317c.04-.182.029-.387.211-.511H27.2c.231.794.824.828,1.527.824,4.429-.025,8.859-.012,13.288-.012.254,0,.509-.006.763.006.736.036.889.187.927.911.012.233.006.466.006.7q0,23.016,0,46.031c0,1.617,0,1.618-1.62,1.618H16.337c-1.518,0-1.541-.023-1.541-1.508q0-23.111,0-46.222c0-1.5.034-1.534,1.522-1.535,1.039,0,2.077-.007,3.116,0,.712.006,1.463.121,1.725-.816" transform="translate(-6.862 -0.906)" fill="#20b1a9"/>
        <path id="Trazado_211121" data-name="Trazado 211121" d="M14.3,1.071c-.072,1.022-.072,1.022-1.128,1.022-1.484,0-2.968.013-4.451-.009-.411-.006-.587.057-.586.536q.02,23.909,0,47.819c0,.444.159.51.547.509q13.7-.014,27.406,0c.446,0,.562-.115.561-.561q-.018-23.878,0-47.755c0-.458-.138-.554-.571-.552-4.875.015-9.75.01-14.625.01-1.067,0-1.067,0-1.118-1.02.051-1.016.051-1.016,1.1-1.016q7.919,0,15.838-.006c.653,0,1.194.115,1.376.831.077.3.293.185.453.187.869.012,1.738,0,2.608.009a3.031,3.031,0,0,1,3.064,3.067c.017,2.692,0,5.385.01,8.078,0,.8-.678,1.473-.653,2.106s.651,1.274.649,2.051q-.007,4.039,0,8.078a2.889,2.889,0,0,1-.542,1.728c-.171.236-.217.384-.018.645a2.936,2.936,0,0,1,.563,1.847q-.009,3.944,0,7.887a2.959,2.959,0,0,1-.56,1.849.444.444,0,0,0,.012.645,2.952,2.952,0,0,1,.547,1.79c0,2.672.009,5.343-.006,8.015a3.034,3.034,0,0,1-3.1,3.094q-1.272.016-2.544,0c-.274,0-.44.025-.541.35-.18.578-.674.678-1.226.677q-9.828-.01-19.654,0a7.849,7.849,0,0,1-.953-.008c-.412-.05-.482.117-.479.494.018,2.1,0,4.2.012,6.3A1.191,1.191,0,0,1,15.711,61a1.17,1.17,0,0,1-1.29-.242c-.611-.419-1.243-.808-1.845-1.239a.535.535,0,0,0-.726.006c-.639.451-1.3.871-1.95,1.309a1.085,1.085,0,0,1-1.245.144,1.129,1.129,0,0,1-.517-1.085c.008-2.1-.01-4.2.014-6.3.005-.47-.079-.648-.6-.632-1.441.042-2.883.019-4.325.013A3.048,3.048,0,0,1,0,49.743Q0,26.527,0,3.311A3.051,3.051,0,0,1,3.266.058q4.961-.006,9.922,0c1.041,0,1.041,0,1.108,1.014" transform="translate(0 -0.024)"/>
        <path id="Trazado_211122" data-name="Trazado 211122" d="M98.217,38.709c1.016.051,1.016.051,1.016,1.1,0,1.887-.007,3.773,0,5.66a2.46,2.46,0,0,1-.265,1.158q-1.388,2.744-2.755,5.5c-.229.463-.494.853-1.071.843-.542-.009-.8-.37-1.025-.815q-1.375-2.785-2.781-5.555a2.355,2.355,0,0,1-.254-1.1q.008-16.979,0-33.958c0-.615.154-1.094.79-1.282.173-.051.241-.11.237-.292-.01-.508-.019-1.018,0-1.526.011-.253-.159-.247-.31-.3a1.04,1.04,0,0,1-.715-1.081c0-1.653-.011-3.307.007-4.96A2,2,0,0,1,93.158.061q2-.023,4.006,0A2.012,2.012,0,0,1,99.228,2.1c.019,1.653,0,3.307.007,4.96a1,1,0,0,1-.719,1.071c-.256.079-.3.2-.307.44-.059,1.658-.065,1.658,1.594,1.658,1.895,0,3.059.8,3.427,2.365a3.354,3.354,0,0,1,.071.755q.009,2.893,0,5.787c0,.812-.361,1.26-1.005,1.268s-1.026-.445-1.028-1.244c0-1.844,0-3.688,0-5.532A1.334,1.334,0,0,0,99.4,12.267a.2.2,0,0,0-.165.217c0,.149,0,.3,0,.446q0,11.542-.006,23.083c0,.238.113.507-.106.718-.394.064-.791.023-1.192.121-.586.143-.87-.115-.924-.719-.024-.274-.013-.55-.013-.825q0-10.759,0-21.518c0-.212-.01-.424,0-.635.019-.476-.189-.689-.677-.684-.719.006-1.439.025-2.157-.013-.8.083-.822.1-.822.868q-.006,15.242,0,30.484c0,.735.025.745.789.836.72-.03,1.44-.025,2.159-.008.515.012.72-.189.716-.707-.011-1.483-.02-2.966,0-4.448.014-.908.367-1.122,1.215-.775" transform="translate(-42.243 -0.023)"/>
        <path id="Trazado_211123" data-name="Trazado 211123" d="M100.672,49.269c-1.019.052-1.019.052-1.019,1.11,0,1.5-.015,3,.01,4.5.006.416-.113.543-.528.526-.843-.037-1.689-.023-2.534-.03-.31-.366-.2-.809-.2-1.222q-.01-15.041,0-30.081c0-.212,0-.424.009-.636a.806.806,0,0,1,.2-.586c.867-.007,1.735,0,2.6-.029.368-.013.467.111.458.467-.023.889-.008,1.778-.008,2.666,0,6.878.01,13.756-.016,20.634,0,.617.2.758.745.7a3.668,3.668,0,0,1,1.2,0c-.907.092-.907.092-.907,1.036,0,.314,0,.627,0,.941" transform="translate(-44.697 -10.584)" fill="#24bbb0"/>
        <path id="Trazado_211124" data-name="Trazado 211124" d="M32.416,1.049c-.052,1.02-.052,1.02-1.086,1.02-.91,0-.91,0-.976-1.019.071-1.017.071-1.017,1.1-1.017a.963.963,0,0,0,.189,0c.65-.134.863.153.753.767a1,1,0,0,0,.017.25" transform="translate(-14.077 0)" fill="#000101"/>
        <path id="Trazado_211125" data-name="Trazado 211125" d="M46.427,81.8c-2.012,0-4.026-.014-6.037.011-.458.006-.558-.136-.554-.571.012-1.476-.005-1.476,1.48-1.476,3.707,0,7.415.007,11.122-.009.456,0,.667.054.654.6-.035,1.444,0,1.444-1.453,1.444H46.427" transform="translate(-18.474 -36.988)"/>
        <path id="Trazado_211126" data-name="Trazado 211126" d="M46.428,89.391c-2.012,0-4.026-.014-6.037.011-.457.006-.558-.135-.554-.57.012-1.476-.005-1.477,1.479-1.477,3.707,0,7.415.007,11.122-.009.455,0,.668.053.654.6-.035,1.444,0,1.445-1.452,1.445H46.428" transform="translate(-18.474 -40.508)"/>
        <path id="Trazado_211127" data-name="Trazado 211127" d="M7.866,28.285q0,11.857.015,23.714c0,.6-.18.748-.741.713-.739-.046-1.483,0-2.224-.015A1.018,1.018,0,0,1,3.8,51.6c-.006-.148,0-.3,0-.445V5.379c0-1.262.264-1.527,1.52-1.528.7,0,1.4.019,2.1-.008.371-.014.5.121.455.473a3.839,3.839,0,0,0,0,.445V28.285" transform="translate(-1.759 -1.782)" fill="#1f9a91"/>
        <path id="Trazado_211128" data-name="Trazado 211128" d="M72.11,10.805c0-1.526.014-3.052-.01-4.577-.006-.393.1-.507.491-.491.825.033,1.653,0,2.479.014a1.009,1.009,0,0,1,1.106,1.108q.015,3.973,0,7.947a1,1,0,0,1-1.039,1.11c-.89.023-1.781-.014-2.67.016-.421.014-.359-.234-.358-.486q0-2.321,0-4.641" transform="translate(-33.438 -2.66)" fill="#f6e86d"/>
        <path id="Trazado_211129" data-name="Trazado 211129" d="M72.11,33.619c0-1.525.013-3.049-.009-4.573-.006-.405.093-.553.521-.535.8.034,1.609,0,2.414.013a1.019,1.019,0,0,1,1.141,1.137q.014,3.938,0,7.876c0,.782-.389,1.148-1.187,1.158-.762.01-1.527-.036-2.285.016-.539.037-.613-.182-.6-.646.026-1.482.01-2.964.01-4.446" transform="translate(-33.437 -13.222)" fill="#f05a24"/>
        <path id="Trazado_211130" data-name="Trazado 211130" d="M72.11,56.384c0-1.526.016-3.053-.01-4.578-.007-.417.108-.538.523-.521.8.034,1.61,0,2.416.013a1.023,1.023,0,0,1,1.138,1.142q.013,3.943,0,7.885a1.024,1.024,0,0,1-1.137,1.144c-.827.013-1.654-.014-2.48.011-.357.011-.463-.091-.459-.454.02-1.547.009-3.094.009-4.642" transform="translate(-33.437 -23.783)" fill="#ef9ef6"/>
        <path id="Trazado_211131" data-name="Trazado 211131" d="M72.11,79.093c0-1.5.016-3.008-.01-4.511-.007-.421.119-.539.53-.523.8.032,1.61,0,2.414.012a1.021,1.021,0,0,1,1.133,1.146q.014,3.939,0,7.878a1.022,1.022,0,0,1-1.134,1.146c-.826.013-1.653-.014-2.478.011-.359.011-.468-.094-.463-.458.019-1.567.008-3.134.008-4.7" transform="translate(-33.437 -34.346)" fill="#29aae1"/>
        <path id="Trazado_211132" data-name="Trazado 211132" d="M22.935,104c-1.288-1.466-2.574-1.451-3.859.005l-.1-.138v-1.409c0-1.06.016-2.12-.008-3.179-.009-.4.079-.56.517-.546,1.038.032,2.077.012,3.116.009.246,0,.454-.013.451.346-.013,1.583-.006,3.168-.006,4.751l-.106.161" transform="translate(-8.794 -45.788)" fill="#c52a44"/>
        <path id="Trazado_211133" data-name="Trazado 211133" d="M95.912,22.861V55.385a1.247,1.247,0,0,1-.126.017c-.893.026-.893.026-.893-.839V23.809c0-1,0-1,1.019-.948" transform="translate(-44.008 -10.594)" fill="#20b1a9"/>
        <path id="Trazado_211134" data-name="Trazado 211134" d="M96.577,3.875c.885-.007,1.771,0,2.657-.026.3-.007.4.09.4.395q-.022,1.645,0,3.29c0,.305-.1.4-.4.4-.885-.021-1.771-.019-2.657-.026a8.261,8.261,0,0,1,0-4.029" transform="translate(-44.674 -1.785)" fill="#21a497"/>
        <path id="Trazado_211135" data-name="Trazado 211135" d="M95.9,3.858V7.887a.619.619,0,0,1-.062.009c-.957.039-.957.039-.957-.887,0-.82.038-1.644-.013-2.461-.035-.575.137-.815.717-.712a2.918,2.918,0,0,0,.314.023" transform="translate(-43.993 -1.768)" fill="#1f9a91"/>
        <path id="Trazado_211136" data-name="Trazado 211136" d="M97.835,15.245c.992,0,.992,0,.992,1.139,0,.9,0,.9-1.234.9-.8,0-.81,0-.8-1.266.008-.911-.135-.753,1.041-.77" transform="translate(-44.889 -7.07)" fill="#1b776e"/>
        <path id="Trazado_211137" data-name="Trazado 211137" d="M97.523,90.2c-.475-.951-.88-1.764-1.284-2.578a1.506,1.506,0,0,1-.063-.2H98.91L97.523,90.2" transform="translate(-44.603 -40.542)" fill="#cbcbcb"/>
      </g>
    </g>
  </g>
</svg>
