<svg xmlns="http://www.w3.org/2000/svg" xmlns:xlink="http://www.w3.org/1999/xlink" width="505" height="204" viewBox="0 0 505 204">
  <defs>
    <clipPath id="clip-path">
      <rect id="Rectángulo_339029" data-name="Rectángulo 339029" width="129.325" height="97.961" fill="none"/>
    </clipPath>
    <clipPath id="clip-path-2">
      <rect id="Rectángulo_339026" data-name="Rectángulo 339026" width="88.267" height="6.893" fill="none"/>
    </clipPath>
    <clipPath id="clip-path-3">
      <rect id="Rectángulo_339027" data-name="Rectángulo 339027" width="88.264" height="6.879" fill="none"/>
    </clipPath>
    <clipPath id="clip-path-4">
      <rect id="Rectángulo_339028" data-name="Rectángulo 339028" width="88.541" height="9.718" fill="none"/>
    </clipPath>
    <clipPath id="clip-path-5">
      <rect id="Rectángulo_339054" data-name="Rectángulo 339054" width="63.939" height="21.172" fill="none"/>
    </clipPath>
    <clipPath id="clip-path-6">
      <rect id="Rectángulo_339048" data-name="Rectángulo 339048" width="20.275" height="16.598" fill="none"/>
    </clipPath>
    <clipPath id="clip-path-7">
      <rect id="Rectángulo_339049" data-name="Rectángulo 339049" width="14.759" height="13.737" fill="none"/>
    </clipPath>
    <clipPath id="clip-path-8">
      <rect id="Rectángulo_339050" data-name="Rectángulo 339050" width="15.076" height="14.496" fill="none"/>
    </clipPath>
    <clipPath id="clip-path-9">
      <rect id="Rectángulo_339051" data-name="Rectángulo 339051" width="20.274" height="16.598" fill="none"/>
    </clipPath>
    <clipPath id="clip-path-10">
      <rect id="Rectángulo_339052" data-name="Rectángulo 339052" width="14.259" height="12.541" fill="none"/>
    </clipPath>
    <clipPath id="clip-path-11">
      <rect id="Rectángulo_339053" data-name="Rectángulo 339053" width="14.11" height="13.917" fill="none"/>
    </clipPath>
  </defs>
  <g id="Grupo_983864" data-name="Grupo 983864" transform="translate(-895 -10479)">
    <path id="Trazado_211292" data-name="Trazado 211292" d="M11,0H494a11,11,0,0,1,11,11V193a11,11,0,0,1-11,11H11A11,11,0,0,1,0,193V11A11,11,0,0,1,11,0Z" transform="translate(895 10479)" fill="#f0f4ff"/>
    <path id="Trazado_209909" data-name="Trazado 209909" d="M-18.976-.925a1.476,1.476,0,0,0-.4-1.386,6.311,6.311,0,0,0-2.015-1.022A9.029,9.029,0,0,1-24.85-5.124,2.958,2.958,0,0,1-25.713-7.9a3.593,3.593,0,0,1,1.68-2.58,6.247,6.247,0,0,1,3.49-.938A5.282,5.282,0,0,1-16.98-10.3a3.061,3.061,0,0,1,.952,3.051l-.019.056h-2.641a1.692,1.692,0,0,0-.471-1.53,2.335,2.335,0,0,0-1.7-.588,2.534,2.534,0,0,0-1.423.4,1.423,1.423,0,0,0-.7,1,1.332,1.332,0,0,0,.42,1.325,8.453,8.453,0,0,0,2.3,1.045,7.963,7.963,0,0,1,3.233,1.768,3.161,3.161,0,0,1,.77,2.832,3.573,3.573,0,0,1-1.689,2.613,6.551,6.551,0,0,1-3.546.9,6.649,6.649,0,0,1-3.751-1.012A2.853,2.853,0,0,1-26.394-1.6l.019-.056h2.641a1.483,1.483,0,0,0,.611,1.647,3.675,3.675,0,0,0,1.945.481,2.736,2.736,0,0,0,1.465-.4A1.43,1.43,0,0,0-18.976-.925ZM-8.843.922a4.02,4.02,0,0,1-1.362,1.222,3.636,3.636,0,0,1-1.745.42,2.627,2.627,0,0,1-2.3-1.092,4.655,4.655,0,0,1-.429-3.35l.877-5.85h2.715l-.877,5.869A3.092,3.092,0,0,0-11.89-.02a1.128,1.128,0,0,0,1.05.467A2.807,2.807,0,0,0-9.7.222a2.444,2.444,0,0,0,.872-.644l1.092-7.306h2.725L-6.52,2.368H-8.778ZM5.358-2.4A6.8,6.8,0,0,1,3.809,1.253,4.019,4.019,0,0,1,.693,2.564a2.636,2.636,0,0,1-1.47-.392,2.707,2.707,0,0,1-.956-1.129l-.429,1.325h-2.3l2.183-14.556H.431L-.4-6.664A3.933,3.933,0,0,1,.8-7.592a3.227,3.227,0,0,1,1.446-.322,2.834,2.834,0,0,1,2.673,1.47A5.971,5.971,0,0,1,5.386-2.6ZM2.671-2.6a5.033,5.033,0,0,0-.079-2.356A1.284,1.284,0,0,0,1.234-5.8a2.163,2.163,0,0,0-1.1.28,2.463,2.463,0,0,0-.821.784L-1.323-.505A1.415,1.415,0,0,0-.735.2,2.02,2.02,0,0,0,.32.446,1.814,1.814,0,0,0,1.878-.309,4.837,4.837,0,0,0,2.643-2.4Zm8.1-5.132L9.2,2.742A4.389,4.389,0,0,1,7.849,5.518a4.084,4.084,0,0,1-2.771.928,5.636,5.636,0,0,1-.667-.037,4.9,4.9,0,0,1-.639-.121L4.21,4.207a3.135,3.135,0,0,0,.42.084,3.539,3.539,0,0,0,.457.028,1.162,1.162,0,0,0,.9-.387,2.282,2.282,0,0,0,.485-1.19L8.036-7.727Zm.308-2.435H8.344l.308-2.025h2.734ZM15.734,2.564a3.923,3.923,0,0,1-3.275-1.4,4.386,4.386,0,0,1-.774-3.55l.056-.373a6.381,6.381,0,0,1,1.778-3.756,4.909,4.909,0,0,1,3.606-1.395,3.376,3.376,0,0,1,2.9,1.26,4.316,4.316,0,0,1,.62,3.34l-.205,1.409H14.409l-.019.047a2.368,2.368,0,0,0,.355,1.7,1.847,1.847,0,0,0,1.586.63A5.985,5.985,0,0,0,17.908.283a7.2,7.2,0,0,0,1.418-.565l.485,1.68a6.19,6.19,0,0,1-1.773.83A7.734,7.734,0,0,1,15.734,2.564Zm1.082-8.379a1.743,1.743,0,0,0-1.32.569,3.381,3.381,0,0,0-.779,1.484l.019.056h3.3l.028-.205a2.179,2.179,0,0,0-.145-1.409A1.165,1.165,0,0,0,16.816-5.815ZM25.876.474a1.752,1.752,0,0,0,1.18-.429,1.814,1.814,0,0,0,.611-1.129H30.14l.019.056a3.761,3.761,0,0,1-1.516,2.589,4.915,4.915,0,0,1-3.074,1,3.693,3.693,0,0,1-3.205-1.451A4.759,4.759,0,0,1,21.65-2.53l.037-.28a6.356,6.356,0,0,1,1.764-3.7,5,5,0,0,1,3.667-1.4A3.626,3.626,0,0,1,29.9-6.841a3.1,3.1,0,0,1,.7,2.8L30.588-4H28.1a1.837,1.837,0,0,0-.21-1.311,1.19,1.19,0,0,0-1.078-.509,1.858,1.858,0,0,0-1.61.858,5.072,5.072,0,0,0-.788,2.146l-.037.28a4.335,4.335,0,0,0,.1,2.2A1.336,1.336,0,0,0,25.876.474ZM36.383-10.2,36.01-7.727h1.708l-.28,1.913H35.72L34.955-.673a1.08,1.08,0,0,0,.112.854.769.769,0,0,0,.616.238,2.832,2.832,0,0,0,.378-.023,2.948,2.948,0,0,0,.378-.079l-.075,1.969a6.075,6.075,0,0,1-.826.21,4.916,4.916,0,0,1-.854.07,2.518,2.518,0,0,1-2.029-.784A3,3,0,0,1,32.24-.664l.765-5.151H31.54l.28-1.913h1.474l.373-2.473Z" transform="translate(1127.68 10524.179)" fill="#3c3fa7"/>
    <path id="Trazado_209915" data-name="Trazado 209915" d="M-38.9,2.368h-2.725l.84-5.645h-5.533l-.84,5.645h-2.725l2.034-13.586h2.725L-46-5.376h5.533l.877-5.841h2.725Zm6.737.2A3.665,3.665,0,0,1-35.3,1.155a4.7,4.7,0,0,1-.714-3.639l.065-.411a6.045,6.045,0,0,1,1.778-3.639,4.646,4.646,0,0,1,3.289-1.381,3.134,3.134,0,0,1,2.809,1.278A4.593,4.593,0,0,1-27.523-3.3l-.14.97h-6.532A4.007,4.007,0,0,0-33.877.2a2.032,2.032,0,0,0,1.931.928A4.988,4.988,0,0,0-30.28.857,4.372,4.372,0,0,0-28.95.129l.541,1.194a5.312,5.312,0,0,1-1.558.882A6.138,6.138,0,0,1-32.16,2.564ZM-31.1-6.468a2.326,2.326,0,0,0-1.675.746,4.253,4.253,0,0,0-1.078,1.885l.019.056h4.544l.019-.149a2.7,2.7,0,0,0-.261-1.833A1.684,1.684,0,0,0-31.1-6.468Zm6.774,8.836H-26.16l2.183-14.556h1.838ZM-12.192-2.3a6.454,6.454,0,0,1-1.572,3.564,4.066,4.066,0,0,1-3.084,1.3,3.467,3.467,0,0,1-1.568-.331,2.673,2.673,0,0,1-1.073-.975l-.746,4.992h-1.838l2.09-13.977h1.409l.093,1.306a4.176,4.176,0,0,1,1.4-1.11,4.028,4.028,0,0,1,1.773-.383,2.832,2.832,0,0,1,2.65,1.507,6.068,6.068,0,0,1,.495,3.914Zm-1.81-.2a4.928,4.928,0,0,0-.243-2.855,1.861,1.861,0,0,0-1.838-1.073,2.662,2.662,0,0,0-1.386.369,3.58,3.58,0,0,0-1.078,1L-19.274-.2a2.173,2.173,0,0,0,.765.975,2.26,2.26,0,0,0,1.316.35A2.672,2.672,0,0,0-15.1.162,4.7,4.7,0,0,0-14.03-2.3Zm5.356,4.861h-1.838l1.512-10.1h1.838Zm1.9-12.68H-8.581l.28-1.875h1.838Zm3.994,4.031A4.363,4.363,0,0,1-1.308-7.489a3.87,3.87,0,0,1,1.8-.425,2.847,2.847,0,0,1,2.356.966A3.716,3.716,0,0,1,3.325-4L2.373,2.368H.535l.952-6.336a2.52,2.52,0,0,0-.233-1.917,1.893,1.893,0,0,0-1.54-.537,3.008,3.008,0,0,0-1.474.359,3.26,3.26,0,0,0-1.1.994l-1.12,7.437H-5.819l1.512-10.1h1.642ZM5.443-2.493A7.656,7.656,0,0,1,7.066-6.468,3.972,3.972,0,0,1,10.2-7.914a3.092,3.092,0,0,1,1.614.4A2.823,2.823,0,0,1,12.88-6.356l.429-1.372h1.465L13.253,2.424a4.547,4.547,0,0,1-1.572,3.018,5.354,5.354,0,0,1-3.42,1,6.412,6.412,0,0,1-1.53-.205A5.532,5.532,0,0,1,5.312,5.7l.495-1.428a4.683,4.683,0,0,0,1.218.453A6.229,6.229,0,0,0,8.475,4.9a3.029,3.029,0,0,0,2.02-.62,2.891,2.891,0,0,0,.919-1.852l.168-1.148a4,4,0,0,1-1.33.961,4.02,4.02,0,0,1-1.638.327,2.945,2.945,0,0,1-2.65-1.353A4.932,4.932,0,0,1,5.415-2.3Zm1.81.2A3.921,3.921,0,0,0,7.5.176a1.872,1.872,0,0,0,1.805.9A2.655,2.655,0,0,0,10.733.684,3.693,3.693,0,0,0,11.834-.4l.7-4.619a2.4,2.4,0,0,0-.779-1.022,2.141,2.141,0,0,0-1.311-.378,2.5,2.5,0,0,0-2.085,1.11A6.147,6.147,0,0,0,7.281-2.493Zm18.493.98.056.756.056.009.271-.737,4.441-9.928h2.874L26.792,2.368h-2.8L21.417-11.217h2.874ZM36.962,2.564a3.665,3.665,0,0,1-3.14-1.409,4.7,4.7,0,0,1-.714-3.639l.065-.411a6.045,6.045,0,0,1,1.778-3.639A4.646,4.646,0,0,1,38.24-7.914a3.134,3.134,0,0,1,2.809,1.278A4.593,4.593,0,0,1,41.6-3.3l-.14.97H34.928A4.007,4.007,0,0,0,35.245.2a2.032,2.032,0,0,0,1.931.928A4.988,4.988,0,0,0,38.842.857a4.372,4.372,0,0,0,1.33-.728l.541,1.194a5.312,5.312,0,0,1-1.558.882A6.138,6.138,0,0,1,36.962,2.564Zm1.064-9.032a2.326,2.326,0,0,0-1.675.746,4.253,4.253,0,0,0-1.078,1.885l.019.056h4.544l.019-.149a2.7,2.7,0,0,0-.261-1.833A1.684,1.684,0,0,0,38.026-6.468ZM48.859-6.1l-.933-.056a2.27,2.27,0,0,0-1.269.359,2.973,2.973,0,0,0-.933,1.012L44.651,2.368H42.812l1.512-10.1h1.642L45.929-6.3a4.243,4.243,0,0,1,1.232-1.19,2.848,2.848,0,0,1,1.521-.425,2.3,2.3,0,0,1,.387.033,2.135,2.135,0,0,1,.3.07ZM58.824-2.3a6.435,6.435,0,0,1-1.577,3.564,4.081,4.081,0,0,1-3.088,1.3A3.162,3.162,0,0,1,52.5,2.154,2.762,2.762,0,0,1,51.434.95l-.523,1.418H49.5l2.183-14.556h1.838l-.849,5.654a4.08,4.08,0,0,1,1.344-1.026,3.928,3.928,0,0,1,1.689-.355,2.834,2.834,0,0,1,2.645,1.507,6.046,6.046,0,0,1,.5,3.914Zm-1.81-.2a5.2,5.2,0,0,0-.205-2.865,1.781,1.781,0,0,0-1.791-1.064A2.669,2.669,0,0,0,53.538-6a3.7,3.7,0,0,0-1.115,1.143L51.77-.505A2.4,2.4,0,0,0,52.526.656a2.147,2.147,0,0,0,1.39.415A2.567,2.567,0,0,0,55.964.134,4.751,4.751,0,0,0,56.986-2.3ZM66.662-.347a1.084,1.084,0,0,0-.317-1,3.906,3.906,0,0,0-1.661-.662,6.383,6.383,0,0,1-2.6-1.073,1.866,1.866,0,0,1-.7-1.847,3.11,3.11,0,0,1,1.339-2.137,4.7,4.7,0,0,1,2.851-.849,3.59,3.59,0,0,1,2.613.942,2.32,2.32,0,0,1,.756,2.165l-.019.056H67.166a1.388,1.388,0,0,0-.4-1.194,1.81,1.81,0,0,0-1.381-.523,2.358,2.358,0,0,0-1.5.443,1.594,1.594,0,0,0-.648,1.04.981.981,0,0,0,.28.933,4.116,4.116,0,0,0,1.642.588,6.231,6.231,0,0,1,2.659,1.11,1.949,1.949,0,0,1,.7,1.875,3.13,3.13,0,0,1-1.39,2.216,5.094,5.094,0,0,1-2.967.826,3.921,3.921,0,0,1-2.86-.989A2.428,2.428,0,0,1,60.522-.7l.019-.056H62.3A1.487,1.487,0,0,0,62.836.675a2.514,2.514,0,0,0,1.53.453,2.752,2.752,0,0,0,1.568-.42A1.553,1.553,0,0,0,66.662-.347Z" transform="translate(1167.32 10638.834)" fill="#3c3fa7"/>
    <path id="Trazado_209916" data-name="Trazado 209916" d="M-33.167-5.311h-7.782l.233-1.53h7.782Zm-.579,3.882h-7.782l.233-1.53h7.782Zm10.758-.914-.037,1.782.056.009.588-1.791,3.732-8.874h1.8l1.1,8.874.037,1.81.056.009.532-1.819,3.266-8.874h2L-15.177,2.368H-16.82l-1.3-9.424-.028-1.213-.056-.009-.373,1.222-4.171,9.424h-1.642l-1.241-13.586h1.987ZM-8.235,2.368h-1.838l1.512-10.1h1.838Zm1.9-12.68H-8.17l.28-1.875h1.838Zm2.911,12.68H-5.259l2.183-14.556h1.838Zm4.815,0H-.444L1.739-12.187H3.577ZM9.176,3.535H7.608l7.884-14.752h1.558Zm20.7-4.283A1.9,1.9,0,0,0,29.4-2.437a6.109,6.109,0,0,0-2.389-1.222A7.361,7.361,0,0,1,23.9-5.292a3.106,3.106,0,0,1-.7-2.79,3.439,3.439,0,0,1,1.526-2.459,5.566,5.566,0,0,1,3.186-.872,4.9,4.9,0,0,1,3.415,1.11,3.116,3.116,0,0,1,.886,3.042L32.2-7.2H30.44A2.243,2.243,0,0,0,29.871-9.2a2.892,2.892,0,0,0-2.174-.77,2.982,2.982,0,0,0-1.8.537,1.948,1.948,0,0,0-.854,1.33,1.907,1.907,0,0,0,.4,1.7,6.758,6.758,0,0,0,2.44,1.208,8,8,0,0,1,3.149,1.675,3.033,3.033,0,0,1,.686,2.748,3.412,3.412,0,0,1-1.572,2.491,6.052,6.052,0,0,1-3.308.84,6.354,6.354,0,0,1-3.662-1.008,2.877,2.877,0,0,1-1.115-3.135l.028-.056h1.754A1.959,1.959,0,0,0,24.6.493a4.428,4.428,0,0,0,2.454.634A3.383,3.383,0,0,0,28.938.6,1.949,1.949,0,0,0,29.881-.748ZM36.4-6.43a4.573,4.573,0,0,1,1.446-1.1,4,4,0,0,1,1.745-.387,2.806,2.806,0,0,1,2.337.98,3.819,3.819,0,0,1,.49,2.976l-.952,6.326H39.631l.952-6.345a2.451,2.451,0,0,0-.252-1.866,1.81,1.81,0,0,0-1.521-.579,3.2,3.2,0,0,0-1.46.336,3.315,3.315,0,0,0-1.134.933L35.087,2.368H33.249l2.183-14.556h1.838Zm13.912,8.8q-.019-.523-.019-.844a5.955,5.955,0,0,1,.037-.658,5.451,5.451,0,0,1-1.526,1.208,3.813,3.813,0,0,1-1.843.49,2.878,2.878,0,0,1-2.253-.816,2.573,2.573,0,0,1-.518-2.216,3.087,3.087,0,0,1,1.493-2.286A6.2,6.2,0,0,1,49-3.547h2l.149-1a1.635,1.635,0,0,0-.322-1.423,1.9,1.9,0,0,0-1.46-.5,2.549,2.549,0,0,0-1.493.448,1.558,1.558,0,0,0-.728,1.073l-1.754.019-.009-.056a2.893,2.893,0,0,1,1.334-2.039,4.9,4.9,0,0,1,2.967-.891,3.647,3.647,0,0,1,2.594.882,2.7,2.7,0,0,1,.709,2.505L52.256.334a7.985,7.985,0,0,0-.107,1.059,5.387,5.387,0,0,0,.061.975ZM47.469,1.025A3.621,3.621,0,0,0,49.317.5,3.121,3.121,0,0,0,50.558-.673l.252-1.633H48.747a3.034,3.034,0,0,0-1.847.569,1.972,1.972,0,0,0-.877,1.306A1.208,1.208,0,0,0,46.27.647,1.6,1.6,0,0,0,47.469,1.025ZM56.6,2.368H54.766l2.183-14.556h1.838Zm4.815,0H59.58l2.183-14.556H63.6Z" transform="translate(1293.154 10638.834)" fill="#12263f"/>
    <path id="Trazado_209911" data-name="Trazado 209911" d="M1.194,2.763H-2.212L.331-14.219H3.736Z" transform="translate(1128.81 10585.889)" fill="#fc5f65"/>
    <path id="Trazado_209912" data-name="Trazado 209912" d="M-3.522-1.751h.07L-.746-9.659H2.567l-5.1,12.62H-5.376L-6.624-4.306l-.07-.012-3.441,7.278h-2.834l-1.318-12.62h3.312l.362,7.873.07.012L-7-9.659h2.274ZM5.949,2.961H2.543L4.433-9.659H7.838ZM8.293-12.68H4.888l.385-2.554H8.678ZM12.329,2.961H8.923l2.729-18.195h3.406Zm6.38,0H15.3l2.729-18.195h3.406Z" transform="translate(1184.986 10585.691)" fill="#fc5f65"/>
    <path id="Trazado_209913" data-name="Trazado 209913" d="M-10.568-4.114A9.281,9.281,0,0,1-8.562-8.989a4.983,4.983,0,0,1,3.919-1.773,3.048,3.048,0,0,1,1.761.5,3.626,3.626,0,0,1,1.19,1.411l.525-1.68H1.76L-.117,2.033A5.591,5.591,0,0,1-2.3,5.888,7.8,7.8,0,0,1-7,7.188,7.98,7.98,0,0,1-8.97,6.92a8.594,8.594,0,0,1-1.889-.711L-9.9,3.666a6.732,6.732,0,0,0,1.528.566A7.624,7.624,0,0,0-6.6,4.424a3.422,3.422,0,0,0,2.117-.589,2.667,2.667,0,0,0,.962-1.814L-3.36.878A4.708,4.708,0,0,1-4.841,1.969a4.247,4.247,0,0,1-1.785.367A3.643,3.643,0,0,1-9.938.61,6.414,6.414,0,0,1-10.6-3.869Zm3.371.245a4.8,4.8,0,0,0,.146,2.636,1.657,1.657,0,0,0,1.685.921,2.948,2.948,0,0,0,1.347-.3A2.976,2.976,0,0,0-3-1.466l.816-5.423a1.9,1.9,0,0,0-.741-.91,2.3,2.3,0,0,0-1.254-.315A2.3,2.3,0,0,0-6.136-6.989,6.779,6.779,0,0,0-7.162-4.114ZM2.927-4.335A7.837,7.837,0,0,1,5.184-9.012a6.429,6.429,0,0,1,4.636-1.75,4.753,4.753,0,0,1,4.059,1.819,5.949,5.949,0,0,1,.956,4.607L14.8-4.09A7.93,7.93,0,0,1,12.526.6,6.448,6.448,0,0,1,7.884,2.336,4.759,4.759,0,0,1,3.825.523,5.885,5.885,0,0,1,2.892-4.09Zm3.359.245a5.051,5.051,0,0,0,.175,2.8A1.782,1.782,0,0,0,8.269-.276a2.482,2.482,0,0,0,2.064-1.061A5.963,5.963,0,0,0,11.394-4.09l.035-.245a5.209,5.209,0,0,0-.2-2.77,1.756,1.756,0,0,0-1.79-1.032A2.48,2.48,0,0,0,7.359-7.059,5.849,5.849,0,0,0,6.321-4.335Z" transform="translate(1239.397 10586.561)" fill="#fc5f65"/>
    <path id="Trazado_209914" data-name="Trazado 209914" d="M-34.845-12.75l-.467,3.091h2.134l-.35,2.391h-2.146L-36.63-.842A1.349,1.349,0,0,0-36.49.225a.961.961,0,0,0,.77.3,3.54,3.54,0,0,0,.472-.029,3.685,3.685,0,0,0,.472-.1l-.093,2.461a7.594,7.594,0,0,1-1.032.262,6.145,6.145,0,0,1-1.067.087,3.148,3.148,0,0,1-2.537-.98A3.746,3.746,0,0,1-40.024-.83l.956-6.438H-40.9l.35-2.391h1.843l.467-3.091Zm2.321,9.284a7.837,7.837,0,0,1,2.257-4.677,6.429,6.429,0,0,1,4.636-1.75,4.753,4.753,0,0,1,4.059,1.819,5.949,5.949,0,0,1,.956,4.607l-.035.245a7.93,7.93,0,0,1-2.274,4.689,6.448,6.448,0,0,1-4.642,1.738,4.759,4.759,0,0,1-4.059-1.814,5.885,5.885,0,0,1-.933-4.613Zm3.359.245a5.051,5.051,0,0,0,.175,2.8A1.782,1.782,0,0,0-27.182.593,2.482,2.482,0,0,0-25.118-.469a5.963,5.963,0,0,0,1.061-2.753l.035-.245a5.209,5.209,0,0,0-.2-2.77,1.756,1.756,0,0,0-1.79-1.032,2.48,2.48,0,0,0-2.076,1.079A5.849,5.849,0,0,0-29.13-3.466Zm23,2.683a.993.993,0,0,0-.4-.968,5.14,5.14,0,0,0-1.919-.7,6.941,6.941,0,0,1-3.172-1.341,2.57,2.57,0,0,1-.816-2.438,4.079,4.079,0,0,1,1.755-2.793A6.317,6.317,0,0,1-6.888-9.893,5.322,5.322,0,0,1-3.266-8.738,2.892,2.892,0,0,1-2.234-5.9l-.023.07H-5.547a1.481,1.481,0,0,0-.315-1.248,1.739,1.739,0,0,0-1.353-.467A2.189,2.189,0,0,0-8.55-7.14a1.474,1.474,0,0,0-.636,1,.975.975,0,0,0,.356.956,5.165,5.165,0,0,0,1.93.653,7.049,7.049,0,0,1,3.26,1.37,2.663,2.663,0,0,1,.8,2.49A3.949,3.949,0,0,1-4.689,2.156,7.133,7.133,0,0,1-8.7,3.205a5.16,5.16,0,0,1-3.756-1.295A3.1,3.1,0,0,1-13.489-.982l.035-.07h3.114A1.555,1.555,0,0,0-9.88.418,2.46,2.46,0,0,0-8.3.873,2.58,2.58,0,0,0-6.83.488,1.45,1.45,0,0,0-6.165-.538ZM4.4.593A2.19,2.19,0,0,0,5.878.056a2.267,2.267,0,0,0,.764-1.411H9.732l.023.07a4.7,4.7,0,0,1-1.9,3.237A6.144,6.144,0,0,1,4.017,3.205,4.616,4.616,0,0,1,.011,1.392,5.949,5.949,0,0,1-.881-3.163l.047-.35a7.946,7.946,0,0,1,2.2-4.63,6.248,6.248,0,0,1,4.584-1.75A4.533,4.533,0,0,1,9.435-8.551a3.875,3.875,0,0,1,.881,3.5l-.023.058H7.178a2.3,2.3,0,0,0-.262-1.639,1.487,1.487,0,0,0-1.347-.636A2.322,2.322,0,0,0,3.557-6.2a6.34,6.34,0,0,0-.986,2.683l-.047.35A5.418,5.418,0,0,0,2.653-.416,1.67,1.67,0,0,0,4.4.593ZM16.077-8.131a5.389,5.389,0,0,1,1.662-1.3,4.384,4.384,0,0,1,1.977-.461A3.312,3.312,0,0,1,22.58-8.569a5.464,5.464,0,0,1,.554,4.041l-1.12,7.488H18.608L19.74-4.551a3.289,3.289,0,0,0-.157-2.111,1.47,1.47,0,0,0-1.335-.583,3.411,3.411,0,0,0-1.382.268,3.186,3.186,0,0,0-1.067.758L14.421,2.961H11.015l2.729-18.195H17.15Zm8.946,4.665A7.837,7.837,0,0,1,27.28-8.143a6.429,6.429,0,0,1,4.636-1.75,4.753,4.753,0,0,1,4.059,1.819,5.949,5.949,0,0,1,.956,4.607l-.035.245a7.93,7.93,0,0,1-2.274,4.689A6.448,6.448,0,0,1,29.98,3.205a4.759,4.759,0,0,1-4.059-1.814,5.885,5.885,0,0,1-.933-4.613Zm3.359.245a5.051,5.051,0,0,0,.175,2.8A1.782,1.782,0,0,0,30.365.593,2.482,2.482,0,0,0,32.429-.469a5.963,5.963,0,0,0,1.061-2.753l.035-.245a5.209,5.209,0,0,0-.2-2.77,1.756,1.756,0,0,0-1.79-1.032,2.48,2.48,0,0,0-2.076,1.079,5.849,5.849,0,0,0-1.038,2.723Zm10.124-.245a7.837,7.837,0,0,1,2.257-4.677A6.429,6.429,0,0,1,45.4-9.893a4.753,4.753,0,0,1,4.059,1.819,5.949,5.949,0,0,1,.956,4.607l-.035.245A7.93,7.93,0,0,1,48.1,1.468a6.448,6.448,0,0,1-4.642,1.738A4.759,4.759,0,0,1,39.4,1.392a5.885,5.885,0,0,1-.933-4.613Zm3.359.245a5.051,5.051,0,0,0,.175,2.8A1.782,1.782,0,0,0,43.848.593,2.482,2.482,0,0,0,45.912-.469a5.963,5.963,0,0,0,1.061-2.753l.035-.245a5.209,5.209,0,0,0-.2-2.77,1.756,1.756,0,0,0-1.79-1.032,2.48,2.48,0,0,0-2.076,1.079A5.849,5.849,0,0,0,41.9-3.466ZM55.126,2.961H51.721L54.45-15.234h3.406Z" transform="translate(1317.163 10585.691)" fill="#fc5f65"/>
    <path id="Trazado_209907" data-name="Trazado 209907" d="M-10.971-1.317l.056.756.056.009.271-.737,4.441-9.928h2.874L-9.926,2.368h-2.8L-15.3-11.217h2.874ZM-.26,2.564a3.923,3.923,0,0,1-3.275-1.4,4.386,4.386,0,0,1-.774-3.55l.056-.373A6.381,6.381,0,0,1-2.476-6.519,4.909,4.909,0,0,1,1.131-7.914a3.376,3.376,0,0,1,2.9,1.26,4.316,4.316,0,0,1,.62,3.34L4.443-1.905H-1.585l-.019.047a2.368,2.368,0,0,0,.355,1.7A1.847,1.847,0,0,0,.338.474,5.985,5.985,0,0,0,1.914.283,7.2,7.2,0,0,0,3.333-.282L3.818,1.4a6.19,6.19,0,0,1-1.773.83A7.734,7.734,0,0,1-.26,2.564ZM.823-5.815A1.743,1.743,0,0,0-.5-5.245a3.381,3.381,0,0,0-.779,1.484l.019.056h3.3l.028-.205A2.179,2.179,0,0,0,1.928-5.32,1.165,1.165,0,0,0,.823-5.815Zm11.038.429-1-.028a1.941,1.941,0,0,0-1.026.266,2.136,2.136,0,0,0-.728.751L8.1,2.368H5.385L6.9-7.727H9.426L9.332-6.281a3.734,3.734,0,0,1,1.092-1.208A2.39,2.39,0,0,1,11.8-7.914a2.136,2.136,0,0,1,.378.033,3.231,3.231,0,0,1,.341.079ZM21.938-2.4a6.8,6.8,0,0,1-1.549,3.653,4.019,4.019,0,0,1-3.116,1.311,2.636,2.636,0,0,1-1.47-.392,2.707,2.707,0,0,1-.956-1.129l-.429,1.325h-2.3L14.3-12.187h2.715l-.83,5.524a3.933,3.933,0,0,1,1.194-.928,3.227,3.227,0,0,1,1.446-.322,2.834,2.834,0,0,1,2.673,1.47A5.971,5.971,0,0,1,21.966-2.6Zm-2.687-.2a5.033,5.033,0,0,0-.079-2.356A1.284,1.284,0,0,0,17.814-5.8a2.163,2.163,0,0,0-1.1.28,2.463,2.463,0,0,0-.821.784L15.257-.505A1.415,1.415,0,0,0,15.845.2,2.02,2.02,0,0,0,16.9.446a1.814,1.814,0,0,0,1.558-.756,4.837,4.837,0,0,0,.765-2.09Z" transform="translate(1255.254 10520.596)" fill="#3c3fa7"/>
    <path id="Trazado_209905" data-name="Trazado 209905" d="M-11.049-3.2a6.742,6.742,0,0,1-2.2,4.185A6.358,6.358,0,0,1-17.6,2.564,4.663,4.663,0,0,1-21.387.917a4.98,4.98,0,0,1-1-4.12l.364-2.445a6.7,6.7,0,0,1,2.169-4.175,6.289,6.289,0,0,1,4.334-1.591A4.7,4.7,0,0,1-11.7-9.757a4.983,4.983,0,0,1,1.017,4.11ZM-13.4-5.665A3.742,3.742,0,0,0-13.8-8.3a2.258,2.258,0,0,0-2.048-.989,2.994,2.994,0,0,0-2.281,1.026,4.751,4.751,0,0,0-1.18,2.594L-19.67-3.2a3.864,3.864,0,0,0,.364,2.659,2.2,2.2,0,0,0,2.025.989,3.047,3.047,0,0,0,2.3-1.026A4.832,4.832,0,0,0-13.764-3.2ZM-.113-2.4A6.8,6.8,0,0,1-1.662,1.253,4.019,4.019,0,0,1-4.778,2.564a2.636,2.636,0,0,1-1.47-.392A2.707,2.707,0,0,1-7.2,1.043l-.429,1.325h-2.3l2.183-14.556H-5.04l-.83,5.524a3.933,3.933,0,0,1,1.194-.928,3.227,3.227,0,0,1,1.446-.322A2.834,2.834,0,0,1-.556-6.444,5.971,5.971,0,0,1-.085-2.6ZM-2.8-2.6A5.033,5.033,0,0,0-2.88-4.952,1.284,1.284,0,0,0-4.237-5.8a2.163,2.163,0,0,0-1.1.28,2.463,2.463,0,0,0-.821.784L-6.794-.505A1.415,1.415,0,0,0-6.206.2,2.02,2.02,0,0,0-5.152.446,1.814,1.814,0,0,0-3.593-.309,4.837,4.837,0,0,0-2.828-2.4ZM5.3-7.727,3.731,2.742A4.389,4.389,0,0,1,2.378,5.518a4.084,4.084,0,0,1-2.771.928,5.636,5.636,0,0,1-.667-.037A4.9,4.9,0,0,1-1.7,6.287l.439-2.081a3.135,3.135,0,0,0,.42.084,3.539,3.539,0,0,0,.457.028,1.162,1.162,0,0,0,.9-.387A2.282,2.282,0,0,0,1,2.742L2.565-7.727Zm.308-2.435H2.873l.308-2.025H5.915ZM10.263,2.564a3.923,3.923,0,0,1-3.275-1.4,4.386,4.386,0,0,1-.774-3.55l.056-.373A6.381,6.381,0,0,1,8.047-6.519a4.909,4.909,0,0,1,3.606-1.395,3.376,3.376,0,0,1,2.9,1.26,4.316,4.316,0,0,1,.62,3.34l-.205,1.409H8.938l-.019.047a2.368,2.368,0,0,0,.355,1.7,1.847,1.847,0,0,0,1.586.63A5.985,5.985,0,0,0,12.437.283a7.2,7.2,0,0,0,1.418-.565L14.34,1.4a6.19,6.19,0,0,1-1.773.83A7.734,7.734,0,0,1,10.263,2.564Zm1.082-8.379a1.743,1.743,0,0,0-1.32.569,3.381,3.381,0,0,0-.779,1.484l.019.056h3.3l.028-.205a2.179,2.179,0,0,0-.145-1.409A1.165,1.165,0,0,0,11.345-5.815ZM20.405.474a1.752,1.752,0,0,0,1.18-.429A1.814,1.814,0,0,0,22.2-1.084h2.473l.019.056a3.761,3.761,0,0,1-1.516,2.589,4.915,4.915,0,0,1-3.074,1,3.693,3.693,0,0,1-3.205-1.451,4.759,4.759,0,0,1-.714-3.644l.037-.28a6.356,6.356,0,0,1,1.764-3.7,5,5,0,0,1,3.667-1.4,3.626,3.626,0,0,1,2.785,1.073,3.1,3.1,0,0,1,.7,2.8L25.117-4H22.626a1.837,1.837,0,0,0-.21-1.311,1.19,1.19,0,0,0-1.078-.509,1.858,1.858,0,0,0-1.61.858A5.072,5.072,0,0,0,18.94-2.81l-.037.28a4.335,4.335,0,0,0,.1,2.2A1.336,1.336,0,0,0,20.405.474ZM30.912-10.2l-.373,2.473h1.708l-.28,1.913H30.249L29.484-.673A1.08,1.08,0,0,0,29.6.18a.769.769,0,0,0,.616.238A2.832,2.832,0,0,0,30.59.395a2.948,2.948,0,0,0,.378-.079l-.075,1.969a6.075,6.075,0,0,1-.826.21,4.916,4.916,0,0,1-.854.07,2.518,2.518,0,0,1-2.029-.784,3,3,0,0,1-.415-2.445l.765-5.151H26.069l.28-1.913h1.474L28.2-10.2Z" transform="translate(1349.409 10520.596)" fill="#3c3fa7"/>
    <path id="Trazado_209910" data-name="Trazado 209910" d="M3.27-1.051a1.476,1.476,0,0,0-.4-1.386A6.311,6.311,0,0,0,.853-3.459,9.029,9.029,0,0,1-2.6-5.25a2.958,2.958,0,0,1-.863-2.771,3.593,3.593,0,0,1,1.68-2.58,6.247,6.247,0,0,1,3.49-.938,5.282,5.282,0,0,1,3.564,1.11,3.061,3.061,0,0,1,.952,3.051L6.2-7.322H3.559a1.692,1.692,0,0,0-.471-1.53,2.335,2.335,0,0,0-1.7-.588,2.534,2.534,0,0,0-1.423.4,1.423,1.423,0,0,0-.7,1,1.332,1.332,0,0,0,.42,1.325,8.453,8.453,0,0,0,2.3,1.045A7.963,7.963,0,0,1,5.224-3.9a3.161,3.161,0,0,1,.77,2.832A3.573,3.573,0,0,1,4.305,1.543a6.551,6.551,0,0,1-3.546.9A6.649,6.649,0,0,1-2.991,1.426,2.853,2.853,0,0,1-4.148-1.723l.019-.056h2.641A1.483,1.483,0,0,0-.878-.132,3.675,3.675,0,0,0,1.068.348a2.736,2.736,0,0,0,1.465-.4A1.43,1.43,0,0,0,3.27-1.051Z" transform="translate(1105.728 10524.305)" fill="#fc5f65"/>
    <path id="Trazado_209908" data-name="Trazado 209908" d="M.372-1.475l.056.756L.484-.71l.271-.737L5.2-11.375H8.07L1.417,2.211h-2.8L-3.957-11.375h2.874Z" transform="translate(1244.321 10520.753)" fill="#fc5f65"/>
    <path id="Trazado_209906" data-name="Trazado 209906" d="M6.682-3.328A6.742,6.742,0,0,1,4.484.857,6.358,6.358,0,0,1,.132,2.438,4.663,4.663,0,0,1-3.657.791a4.98,4.98,0,0,1-1-4.12l.364-2.445A6.705,6.705,0,0,1-2.122-9.948a6.289,6.289,0,0,1,4.334-1.591A4.7,4.7,0,0,1,6.029-9.883a4.983,4.983,0,0,1,1.017,4.11ZM4.331-5.791a3.742,3.742,0,0,0-.4-2.631,2.258,2.258,0,0,0-2.048-.989A2.994,2.994,0,0,0-.4-8.385a4.751,4.751,0,0,0-1.18,2.594L-1.94-3.328A3.864,3.864,0,0,0-1.576-.669,2.2,2.2,0,0,0,.449.32a3.047,3.047,0,0,0,2.3-1.026A4.832,4.832,0,0,0,3.967-3.328Z" transform="translate(1331.356 10520.722)" fill="#fc5f65"/>
    <g id="Trazado_211293" data-name="Trazado 211293" transform="translate(1112.993 10560)" fill="none">
      <path d="M5,0H27a5,5,0,0,1,5,5V36a5,5,0,0,1-5,5H5a5,5,0,0,1-5-5V5A5,5,0,0,1,5,0Z" stroke="none"/>
      <path d="M 5 1 C 2.794389724731445 1 1 2.794391632080078 1 5 L 1 36 C 1 38.20560836791992 2.794389724731445 40 5 40 L 27 40 C 29.20561027526855 40 31 38.20560836791992 31 36 L 31 5 C 31 2.794391632080078 29.20561027526855 1 27 1 L 5 1 M 5 0 L 27 0 C 29.76141929626465 0 32 2.238571166992188 32 5 L 32 36 C 32 38.76142120361328 29.76141929626465 41 27 41 L 5 41 C 2.238580703735352 41 0 38.76142120361328 0 36 L 0 5 C 0 2.238571166992188 2.238580703735352 0 5 0 Z" stroke="none" fill="#fc5f65"/>
    </g>
    <g id="Trazado_211294" data-name="Trazado 211294" transform="translate(1159.993 10560)" fill="none">
      <path d="M5,0H50a5,5,0,0,1,5,5V36a5,5,0,0,1-5,5H5a5,5,0,0,1-5-5V5A5,5,0,0,1,5,0Z" stroke="none"/>
      <path d="M 5 1 C 2.794391632080078 1 1 2.794391632080078 1 5 L 1 36 C 1 38.20560836791992 2.794391632080078 40 5 40 L 50 40 C 52.20560836791992 40 54 38.20560836791992 54 36 L 54 5 C 54 2.794391632080078 52.20560836791992 1 50 1 L 5 1 M 5 0 L 50 0 C 52.76142120361328 0 55 2.238571166992188 55 5 L 55 36 C 55 38.76142120361328 52.76142120361328 41 50 41 L 5 41 C 2.238571166992188 41 0 38.76142120361328 0 36 L 0 5 C 0 2.238571166992188 2.238571166992188 0 5 0 Z" stroke="none" fill="#fc5f65"/>
    </g>
    <g id="Trazado_211295" data-name="Trazado 211295" transform="translate(1109.993 10614)" fill="none">
      <path d="M5,0H275a5,5,0,0,1,5,5V35a5,5,0,0,1-5,5H5a5,5,0,0,1-5-5V5A5,5,0,0,1,5,0Z" stroke="none"/>
      <path d="M 5 1 C 2.794403076171875 1 1 2.794391632080078 1 5 L 1 35 C 1 37.20560836791992 2.794403076171875 39 5 39 L 275 39 C 277.2055969238281 39 279 37.20560836791992 279 35 L 279 5 C 279 2.794391632080078 277.2055969238281 1 275 1 L 5 1 M 5 0 L 275 0 C 277.7613830566406 0 280 2.238571166992188 280 5 L 280 35 C 280 37.76142883300781 277.7613830566406 40 275 40 L 5 40 C 2.23858642578125 40 0 37.76142883300781 0 35 L 0 5 C 0 2.238571166992188 2.23858642578125 0 5 0 Z" stroke="none" fill="#fc5f65"/>
    </g>
    <g id="Trazado_211296" data-name="Trazado 211296" transform="translate(1221.993 10560)" fill="none">
      <path d="M5,0H34a5,5,0,0,1,5,5V36a5,5,0,0,1-5,5H5a5,5,0,0,1-5-5V5A5,5,0,0,1,5,0Z" stroke="none"/>
      <path d="M 5 1 C 2.794391632080078 1 1 2.794391632080078 1 5 L 1 36 C 1 38.20560836791992 2.794391632080078 40 5 40 L 34 40 C 36.20560836791992 40 38 38.20560836791992 38 36 L 38 5 C 38 2.794391632080078 36.20560836791992 1 34 1 L 5 1 M 5 0 L 34 0 C 36.76142120361328 0 39 2.238571166992188 39 5 L 39 36 C 39 38.76142120361328 36.76142120361328 41 34 41 L 5 41 C 2.238571166992188 41 0 38.76142120361328 0 36 L 0 5 C 0 2.238571166992188 2.238571166992188 0 5 0 Z" stroke="none" fill="#fc5f65"/>
    </g>
    <g id="Trazado_211297" data-name="Trazado 211297" transform="translate(1264.993 10560)" fill="none">
      <path d="M5,0H111a5,5,0,0,1,5,5V36a5,5,0,0,1-5,5H5a5,5,0,0,1-5-5V5A5,5,0,0,1,5,0Z" stroke="none"/>
      <path d="M 5 1 C 2.794403076171875 1 1 2.794399261474609 1 5 L 1 36 C 1 38.20560073852539 2.794403076171875 40 5 40 L 111 40 C 113.2055969238281 40 115 38.20560073852539 115 36 L 115 5 C 115 2.794399261474609 113.2055969238281 1 111 1 L 5 1 M 5 0 L 111 0 C 113.7614135742188 0 116 2.238567352294922 116 5 L 116 36 C 116 38.76142883300781 113.7614135742188 41 111 41 L 5 41 C 2.238571166992188 41 0 38.76142883300781 0 36 L 0 5 C 0 2.238567352294922 2.238571166992188 0 5 0 Z" stroke="none" fill="#fc5f65"/>
    </g>
    <g id="Trazado_211298" data-name="Trazado 211298" transform="translate(1316.993 10503)" fill="none">
      <path d="M5,0H70a5,5,0,0,1,5,5V26a5,5,0,0,1-5,5H5a5,5,0,0,1-5-5V5A5,5,0,0,1,5,0Z" stroke="none"/>
      <path d="M 5 1 C 2.794387817382812 1 1 2.794389724731445 1 5 L 1 26 C 1 28.20561027526855 2.794387817382812 30 5 30 L 70 30 C 72.20561218261719 30 74 28.20561027526855 74 26 L 74 5 C 74 2.794389724731445 72.20561218261719 1 70 1 L 5 1 M 5 0 L 70 0 C 72.76142120361328 0 75 2.238580703735352 75 5 L 75 26 C 75 28.76141929626465 72.76142120361328 31 70 31 L 5 31 C 2.238578796386719 31 0 28.76141929626465 0 26 L 0 5 C 0 2.238580703735352 2.238578796386719 0 5 0 Z" stroke="none" fill="#fc5f65"/>
    </g>
    <g id="Trazado_211299" data-name="Trazado 211299" transform="translate(1227.993 10503)" fill="none">
      <path d="M5,0H53a5,5,0,0,1,5,5V26a5,5,0,0,1-5,5H5a5,5,0,0,1-5-5V5A5,5,0,0,1,5,0Z" stroke="none"/>
      <path d="M 5 1 C 2.794391632080078 1 1 2.794389724731445 1 5 L 1 26 C 1 28.20561027526855 2.794391632080078 30 5 30 L 53 30 C 55.20560836791992 30 57 28.20561027526855 57 26 L 57 5 C 57 2.794389724731445 55.20560836791992 1 53 1 L 5 1 M 5 0 L 53 0 C 55.76142120361328 0 58 2.238580703735352 58 5 L 58 26 C 58 28.76141929626465 55.76142120361328 31 53 31 L 5 31 C 2.238571166992188 31 0 28.76141929626465 0 26 L 0 5 C 0 2.238580703735352 2.238571166992188 0 5 0 Z" stroke="none" fill="#fc5f65"/>
    </g>
    <g id="Trazado_211300" data-name="Trazado 211300" transform="translate(1096.993 10503)" fill="none">
      <path d="M5,0H70a5,5,0,0,1,5,5V26a5,5,0,0,1-5,5H5a5,5,0,0,1-5-5V5A5,5,0,0,1,5,0Z" stroke="none"/>
      <path d="M 5 1 C 2.794387817382812 1 1 2.794389724731445 1 5 L 1 26 C 1 28.20561027526855 2.794387817382812 30 5 30 L 70 30 C 72.20561218261719 30 74 28.20561027526855 74 26 L 74 5 C 74 2.794389724731445 72.20561218261719 1 70 1 L 5 1 M 5 0 L 70 0 C 72.76142120361328 0 75 2.238580703735352 75 5 L 75 26 C 75 28.76141929626465 72.76142120361328 31 70 31 L 5 31 C 2.238578796386719 31 0 28.76141929626465 0 26 L 0 5 C 0 2.238580703735352 2.238578796386719 0 5 0 Z" stroke="none" fill="#fc5f65"/>
    </g>
    <path id="Trazado_211301" data-name="Trazado 211301" d="M0,0V28.067" transform="translate(1128.643 10531.921)" fill="none" stroke="#fc5f65" stroke-width="1"/>
    <path id="Trazado_211302" data-name="Trazado 211302" d="M31,0,0,13" transform="translate(1151.993 10601)" fill="none" stroke="#fc5f65" stroke-width="1"/>
    <path id="Trazado_211303" data-name="Trazado 211303" d="M17,0,0,27" transform="translate(1239.993 10533)" fill="none" stroke="#fc5f65" stroke-width="1"/>
    <path id="Trazado_211304" data-name="Trazado 211304" d="M21,0,0,26" transform="translate(1321.993 10534)" fill="none" stroke="#fc5f65" stroke-width="1"/>
    <g id="Grupo_983832" data-name="Grupo 983832" transform="translate(934.122 10531.042)">
      <g id="Grupo_983831" data-name="Grupo 983831" clip-path="url(#clip-path)">
        <path id="Trazado_211234" data-name="Trazado 211234" d="M129.325,72.7l-14.533,19.07a16.136,16.136,0,0,1-12.834,6.356H0l30.41-34,91.867-.71L116.6,71.662Z" transform="translate(0 -0.167)" fill="#dbd2c4"/>
        <path id="Trazado_211235" data-name="Trazado 211235" d="M127.5,63.792c-1.33,4.9-17.15,21.318-20.536,24.789a12.714,12.714,0,0,1-9.617,4.867c-.062.006-.124.009-.186.009H19.337a1.806,1.806,0,1,1,0-3.611H96.958a9.108,9.108,0,1,0,0-18.216H19.337a1.807,1.807,0,1,1,0-3.613h.113l-.3-.614,32.575-17.38h65.407S130.8,51.641,127.5,63.792" transform="translate(-0.046 -0.132)" fill="#e6972d"/>
        <g id="Grupo_983824" data-name="Grupo 983824" transform="translate(17.482 69.73)" opacity="0.2">
          <g id="Grupo_983823" data-name="Grupo 983823">
            <g id="Grupo_983822" data-name="Grupo 983822" clip-path="url(#clip-path-2)">
              <path id="Trazado_211236" data-name="Trazado 211236" d="M105.8,76.807c-.035-.074-.071-.147-.109-.218a9.1,9.1,0,0,0-7.814-4.9c-.3-.03-.6-.046-.912-.046H19.337a1.81,1.81,0,0,1-1.809-1.727H96.961a9.127,9.127,0,0,1,8.835,6.893" transform="translate(-17.528 -69.914)"/>
            </g>
          </g>
        </g>
        <path id="Trazado_211237" data-name="Trazado 211237" d="M97.612,89.9H19.342V71.687h78.27a9.107,9.107,0,0,1,0,18.215" transform="translate(-0.051 -0.189)" fill="#f0eae0"/>
        <path id="Trazado_211238" data-name="Trazado 211238" d="M19.342,77.2H96.633a.607.607,0,1,0,0-1.215H19.342Z" transform="translate(-0.051 -0.2)" fill="#b2a495"/>
        <path id="Trazado_211239" data-name="Trazado 211239" d="M19.342,81.425H96.633a.607.607,0,1,0,0-1.215H19.342Z" transform="translate(-0.051 -0.212)" fill="#b2a495"/>
        <path id="Trazado_211240" data-name="Trazado 211240" d="M19.342,85.645H96.633a.607.607,0,1,0,0-1.215H19.342Z" transform="translate(-0.051 -0.223)" fill="#b2a495"/>
        <path id="Trazado_211241" data-name="Trazado 211241" d="M127.69,38.134c-1.4,5.14-18.721,22.941-20.937,25.2a12.709,12.709,0,0,1-9.405,4.6c-.062.006-.124.009-.187.009H19.338a1.806,1.806,0,1,1,0-3.612H96.959a9.107,9.107,0,0,0,0-18.215H19.338a1.807,1.807,0,1,1,0-3.613h.377l-.377-.764,32.575-17.38h65.406s13.669,1.619,10.371,13.77" transform="translate(-0.046 -0.064)" fill="#7a703b"/>
        <g id="Grupo_983827" data-name="Grupo 983827" transform="translate(17.482 44.296)" opacity="0.2">
          <g id="Grupo_983826" data-name="Grupo 983826">
            <g id="Grupo_983825" data-name="Grupo 983825" clip-path="url(#clip-path-3)">
              <path id="Trazado_211242" data-name="Trazado 211242" d="M105.792,51.293c-.033-.073-.07-.142-.106-.212a9.1,9.1,0,0,0-7.912-4.9c-.269-.024-.539-.036-.814-.036H19.337a1.809,1.809,0,0,1-1.809-1.727H96.961a9.129,9.129,0,0,1,8.832,6.879" transform="translate(-17.528 -44.413)"/>
            </g>
          </g>
        </g>
        <path id="Trazado_211243" data-name="Trazado 211243" d="M97.612,64.393H19.342V46.178h78.27a9.107,9.107,0,0,1,0,18.215" transform="translate(-0.051 -0.122)" fill="#f0eae0"/>
        <path id="Trazado_211244" data-name="Trazado 211244" d="M19.342,51.7H96.633a.607.607,0,1,0,0-1.215H19.342Z" transform="translate(-0.051 -0.133)" fill="#b2a495"/>
        <path id="Trazado_211245" data-name="Trazado 211245" d="M19.342,55.916H96.633a.607.607,0,1,0,0-1.215H19.342Z" transform="translate(-0.051 -0.144)" fill="#b2a495"/>
        <path id="Trazado_211246" data-name="Trazado 211246" d="M19.342,60.137H96.633a.607.607,0,1,0,0-1.215H19.342Z" transform="translate(-0.051 -0.155)" fill="#b2a495"/>
        <path id="Trazado_211247" data-name="Trazado 211247" d="M97.612,38.885H19.342V20.67h78.27a9.107,9.107,0,0,1,0,18.215" transform="translate(-0.051 -0.054)" fill="#f0eae0"/>
        <path id="Trazado_211248" data-name="Trazado 211248" d="M126.591,13.769c-.945,3.47-9.115,12.674-15.02,19-.052.053-.1.112-.164.172-.082.09-.164.172-.238.253-1.831,1.958-3.41,3.6-4.453,4.677a.469.469,0,0,1-.059.059c-.618.641-1.035,1.065-1.177,1.214l-.052.053-.008.007a12.605,12.605,0,0,1-8.072,3.224,1.47,1.47,0,0,1-.187.015H19.337a1.81,1.81,0,0,1,0-3.619H96.961a9.1,9.1,0,0,0,9.108-9.107,8.838,8.838,0,0,0-.373-2.569.028.028,0,0,0-.007-.022,9.124,9.124,0,0,0-8.728-6.516H19.337a1.811,1.811,0,0,1-1.809-1.727V18.81a1.826,1.826,0,0,1,.707-1.43l.008-.007a2.027,2.027,0,0,1,.536-.283l.023-.007L50.814,0h65.4s13.673,1.616,10.374,13.769" transform="translate(-0.046 0)" fill="#ba4310"/>
        <path id="Trazado_211249" data-name="Trazado 211249" d="M39.631,13.948H84.076l3.656-3.657H45.49Z" transform="translate(-0.105 -0.027)" fill="#961102"/>
        <g id="Grupo_983830" data-name="Grupo 983830" transform="translate(17.482 18.885)" opacity="0.2">
          <g id="Grupo_983829" data-name="Grupo 983829">
            <g id="Grupo_983828" data-name="Grupo 983828" clip-path="url(#clip-path-4)">
              <path id="Trazado_211250" data-name="Trazado 211250" d="M106.069,28.042c0,.179-.007.357-.015.537a.518.518,0,0,0-.007.074,6.546,6.546,0,0,0-.35-1.452.025.025,0,0,0-.008-.022,9.122,9.122,0,0,0-8.727-6.516H19.337a1.811,1.811,0,0,1-1.809-1.727H96.962a9.121,9.121,0,0,1,9.107,9.107" transform="translate(-17.528 -18.935)"/>
            </g>
          </g>
        </g>
        <path id="Trazado_211251" data-name="Trazado 211251" d="M19.342,26.187H96.633a.607.607,0,1,0,0-1.215H19.342Z" transform="translate(-0.051 -0.066)" fill="#b2a495"/>
        <path id="Trazado_211252" data-name="Trazado 211252" d="M19.342,30.408H96.633a.607.607,0,1,0,0-1.215H19.342Z" transform="translate(-0.051 -0.077)" fill="#b2a495"/>
        <path id="Trazado_211253" data-name="Trazado 211253" d="M19.342,34.628H96.633a.607.607,0,1,0,0-1.215H19.342Z" transform="translate(-0.051 -0.088)" fill="#b2a495"/>
      </g>
    </g>
    <path id="Trazado_211305" data-name="Trazado 211305" d="M0,0H129.325V97.961H0Z" transform="translate(934.122 10531.042)" fill="none"/>
    <path id="Trazado_211254" data-name="Trazado 211254" d="M72.961,42.138c0,1.723-16.333,3.121-36.481,3.121S0,43.861,0,42.138s16.332-3.121,36.48-3.121,36.481,1.4,36.481,3.121" transform="translate(926.546 10591.847)" fill="#dbd2c4"/>
    <path id="Trazado_211255" data-name="Trazado 211255" d="M68.114,29.313,9.132,29.35a29.492,29.492,0,0,1,58.982-.038m-10.679-8.7A20.817,20.817,0,0,0,19.8,20.64Z" transform="translate(924.284 10601.515)" fill="#db9034"/>
    <path id="Trazado_211256" data-name="Trazado 211256" d="M68.115,29.313,9.133,29.35a29.492,29.492,0,0,1,58.982-.037m-8.979-7.569a21.936,21.936,0,0,0-41.035.026Z" transform="translate(924.284 10601.515)" fill="#fed947"/>
    <path id="Trazado_211306" data-name="Trazado 211306" d="M0,0H58.985V2.579H0Z" transform="translate(933.415 10630.846)" fill="#fed947"/>
    <path id="Trazado_211307" data-name="Trazado 211307" d="M0,0H.645V2.579H0Z" transform="translate(935.667 10627.479) rotate(-0.067)" fill="#242f58"/>
    <path id="Trazado_211308" data-name="Trazado 211308" d="M0,0H.645V2.579H0Z" transform="translate(939.457 10627.476)" fill="#242f58"/>
    <path id="Trazado_211309" data-name="Trazado 211309" d="M0,0H.645V2.579H0Z" transform="translate(943.244 10627.474)" fill="#242f58"/>
    <path id="Trazado_211310" data-name="Trazado 211310" d="M0,0H.645V2.579H0Z" transform="translate(947.03 10627.472) rotate(-0.067)" fill="#242f58"/>
    <path id="Trazado_211311" data-name="Trazado 211311" d="M0,0H.645V2.579H0Z" transform="translate(950.817 10627.47) rotate(-0.067)" fill="#242f58"/>
    <path id="Trazado_211312" data-name="Trazado 211312" d="M0,0H.645V2.579H0Z" transform="translate(954.604 10627.467) rotate(-0.067)" fill="#242f58"/>
    <path id="Trazado_211313" data-name="Trazado 211313" d="M0,0H.645V2.578H0Z" transform="translate(958.393 10627.464)" fill="#242f58"/>
    <path id="Trazado_211314" data-name="Trazado 211314" d="M0,0H.645V2.579H0Z" transform="translate(962.179 10627.462) rotate(-0.067)" fill="#242f58"/>
    <path id="Trazado_211315" data-name="Trazado 211315" d="M0,0H.645V2.579H0Z" transform="translate(965.966 10627.46) rotate(-0.067)" fill="#242f58"/>
    <path id="Trazado_211316" data-name="Trazado 211316" d="M0,0H.645V2.578H0Z" transform="translate(969.755 10627.457)" fill="#242f58"/>
    <path id="Trazado_211317" data-name="Trazado 211317" d="M0,0H.645V2.579H0Z" transform="translate(973.541 10627.455) rotate(-0.067)" fill="#242f58"/>
    <path id="Trazado_211318" data-name="Trazado 211318" d="M0,0H.645V2.579H0Z" transform="translate(977.328 10627.453) rotate(-0.067)" fill="#242f58"/>
    <path id="Trazado_211319" data-name="Trazado 211319" d="M0,0H.645V2.579H0Z" transform="translate(981.115 10627.45) rotate(-0.067)" fill="#242f58"/>
    <path id="Trazado_211320" data-name="Trazado 211320" d="M0,0H.645V2.579H0Z" transform="translate(984.903 10627.448) rotate(-0.067)" fill="#242f58"/>
    <path id="Trazado_211321" data-name="Trazado 211321" d="M0,0H.645V2.579H0Z" transform="translate(988.69 10627.445) rotate(-0.067)" fill="#242f58"/>
    <path id="Trazado_211322" data-name="Trazado 211322" d="M0,0H72.961V35.592H0Z" transform="translate(926.546 10601.515)" fill="none"/>
    <g id="Grupo_983856" data-name="Grupo 983856" transform="translate(999.507 10619.418)">
      <g id="Grupo_983855" data-name="Grupo 983855" clip-path="url(#clip-path-5)">
        <path id="Trazado_211257" data-name="Trazado 211257" d="M63.939,33.889c0,1.374-14.313,2.487-31.97,2.487S0,35.263,0,33.889,14.313,31.4,31.97,31.4s31.97,1.114,31.97,2.487" transform="translate(0 -15.204)" fill="#dbd2c4"/>
        <path id="Trazado_211258" data-name="Trazado 211258" d="M61.448,7.844c-.018-.606-.075-1.208-.15-1.809,0,.038-.044-.319-.051-.367-.019-.128-.039-.256-.058-.385-.053-.343-.108-.686-.162-1.029-.017-.107-.033-.214-.05-.321L29.526,8.826,8.327,18.44s.736,2.391,4.989,2.245l17.442-9.821,30.695-2.8c0-.074,0-.147,0-.221" transform="translate(-4.032 -1.904)" fill="#352a24"/>
        <path id="Trazado_211259" data-name="Trazado 211259" d="M45.584,8.908,14.687,4.1c-.083.41-.159.821-.221,1.235-.005.045-.026.2-.03.243-.016.149-.029.3-.04.447-.02.277-.031.555-.029.833,0,.257.012.515.035.772.006.067.013.133.021.2.026.13.047.262.073.391l29.857,2.723,17.441,9.821c4.253.145,4.989-2.246,4.989-2.246Z" transform="translate(-6.956 -1.985)" fill="#352a24"/>
        <path id="Trazado_211260" data-name="Trazado 211260" d="M33,2.793A10.166,10.166,0,0,0,27.246.438h0A26.116,26.116,0,0,0,22.212,0H9.033A1.925,1.925,0,0,0,7.108,1.924v1.15a2.418,2.418,0,0,0,.709,1.71L9.41,6.378s-.307,3.788,3.073,9.233h0a5.206,5.206,0,0,0,3.369,2.6,24.5,24.5,0,0,0,4.772.505,14.342,14.342,0,0,0,4.671-.7,8.459,8.459,0,0,0,3.83-2.566A18.55,18.55,0,0,0,31.3,12.049S35.635,5.057,33,2.793M28.31,14.768c-1.767,2.128-4.635,2.887-7.688,2.887a23.576,23.576,0,0,1-4.564-.485c-4.5-.9-5.165-10.931-3.664-13.274s5.045-2.522,5.045-2.522a35.407,35.407,0,0,1,4.773-.318,19.693,19.693,0,0,1,7.605,1.263c4.332,1.919,1.135,9.265-1.507,12.448" transform="translate(-3.442 0)" fill="#352a24"/>
        <path id="Trazado_211261" data-name="Trazado 211261" d="M12.692,4.309c0,.169-.322.307-.72.307s-.72-.138-.72-.307S11.575,4,11.973,4s.72.137.72.306" transform="translate(-5.449 -1.938)" fill="#f0eae0"/>
        <g id="Grupo_983839" data-name="Grupo 983839" transform="translate(8.23 1.057)" opacity="0.5">
          <g id="Grupo_983838" data-name="Grupo 983838">
            <g id="Grupo_983837" data-name="Grupo 983837" clip-path="url(#clip-path-6)">
              <path id="Trazado_211262" data-name="Trazado 211262" d="M32.594,15.76c-1.767,2.129-4.635,2.888-7.687,2.888-.559,0-1.123-.025-1.688-.073-.739-.062-1.479-.16-2.208-.288q-.337-.057-.668-.125a3.732,3.732,0,0,1-2.113-1.328,6.505,6.505,0,0,1-.715-1.048,13.848,13.848,0,0,1-1.464-5.176c-.248-2.432,0-4.746.629-5.722,1.5-2.342,5.044-2.522,5.044-2.522s1.151-.175,2.836-.265c.589-.031,1.244-.053,1.938-.053a26.444,26.444,0,0,1,4.312.326,13.86,13.86,0,0,1,3.293.937,3.718,3.718,0,0,1,.637.36,3.137,3.137,0,0,1,.478.407,3.466,3.466,0,0,1,.87,1.627c.74,3.027-1.529,7.689-3.494,10.054" transform="translate(-15.956 -2.049)" fill="#f0eae0"/>
            </g>
          </g>
        </g>
        <g id="Grupo_983842" data-name="Grupo 983842" transform="translate(8.325 1.057)" opacity="0.5">
          <g id="Grupo_983841" data-name="Grupo 983841">
            <g id="Grupo_983840" data-name="Grupo 983840" clip-path="url(#clip-path-7)">
              <path id="Trazado_211263" data-name="Trazado 211263" d="M30.9,2.375,17.6,15.786a13.857,13.857,0,0,1-1.464-5.176L24.647,2.1c.589-.031,1.245-.053,1.938-.053a26.438,26.438,0,0,1,4.312.326" transform="translate(-16.138 -2.049)" fill="#f0eae0"/>
            </g>
          </g>
        </g>
        <g id="Grupo_983845" data-name="Grupo 983845" transform="translate(13.285 3.086)" opacity="0.5">
          <g id="Grupo_983844" data-name="Grupo 983844">
            <g id="Grupo_983843" data-name="Grupo 983843" clip-path="url(#clip-path-8)">
              <path id="Trazado_211264" data-name="Trazado 211264" d="M40.833,7.61,27.964,20.479c-.739-.061-1.479-.16-2.208-.288L39.962,5.983a3.471,3.471,0,0,1,.87,1.627" transform="translate(-25.756 -5.983)" fill="#f0eae0"/>
            </g>
          </g>
        </g>
        <path id="Trazado_211265" data-name="Trazado 211265" d="M68.546,12.049h0a18.538,18.538,0,0,0,2.178,3.393,8.459,8.459,0,0,0,3.83,2.566,14.344,14.344,0,0,0,4.671.7A24.5,24.5,0,0,0,84,18.206a5.206,5.206,0,0,0,3.369-2.6v0c3.38-5.445,3.073-9.233,3.073-9.233l1.593-1.593a2.419,2.419,0,0,0,.709-1.711V1.925A1.925,1.925,0,0,0,90.815,0H77.635A26.151,26.151,0,0,0,72.6.439h0a10.164,10.164,0,0,0-5.757,2.355c-2.632,2.264,1.7,9.256,1.7,9.256M70.03,2.32a19.7,19.7,0,0,1,7.605-1.263,35.407,35.407,0,0,1,4.773.318s3.544.181,5.045,2.523S88.294,16.27,83.79,17.17a23.527,23.527,0,0,1-4.564.485c-3.053,0-5.921-.759-7.688-2.887C68.895,11.584,65.7,4.239,70.03,2.32" transform="translate(-31.955 0)" fill="#352a24"/>
        <path id="Trazado_211266" data-name="Trazado 211266" d="M110.908,4.309c0,.169.322.307.72.307s.72-.138.72-.307S112.025,4,111.628,4s-.72.137-.72.306" transform="translate(-53.701 -1.938)" fill="#f0eae0"/>
        <g id="Grupo_983848" data-name="Grupo 983848" transform="translate(35.947 1.057)" opacity="0.5">
          <g id="Grupo_983847" data-name="Grupo 983847">
            <g id="Grupo_983846" data-name="Grupo 983846" clip-path="url(#clip-path-9)">
              <path id="Trazado_211267" data-name="Trazado 211267" d="M87.692,16.834a3.736,3.736,0,0,1-2.113,1.328,23.513,23.513,0,0,1-4.564.485,14.071,14.071,0,0,1-3.666-.444,9.171,9.171,0,0,1-1.807-.689,7.135,7.135,0,0,1-1.924-1.427c-.1-.106-.2-.215-.291-.328a14.38,14.38,0,0,1-.869-1.17,18.79,18.79,0,0,1-2.193-4.448c-.848-2.585-.918-5.187.917-6.471a3.752,3.752,0,0,1,.637-.359,17.845,17.845,0,0,1,6.3-1.234c.446-.02.885-.028,1.308-.028a35.381,35.381,0,0,1,4.772.318s.122.007.328.031a7.255,7.255,0,0,1,4.244,1.888.447.447,0,0,1,.038.039,4.172,4.172,0,0,1,.436.564A3.565,3.565,0,0,1,89.651,5.9c.717,2.695.261,8.319-1.96,10.934" transform="translate(-69.692 -2.049)" fill="#f0eae0"/>
            </g>
          </g>
        </g>
        <g id="Grupo_983851" data-name="Grupo 983851" transform="translate(36.521 1.057)" opacity="0.5">
          <g id="Grupo_983850" data-name="Grupo 983850">
            <g id="Grupo_983849" data-name="Grupo 983849" clip-path="url(#clip-path-10)">
              <path id="Trazado_211268" data-name="Trazado 211268" d="M85.062,2.4,73,14.59A18.77,18.77,0,0,1,70.8,10.142l7.852-8.065c.446-.02.885-.028,1.308-.028a35.394,35.394,0,0,1,4.773.318s.121.007.328.031" transform="translate(-70.803 -2.049)" fill="#f0eae0"/>
            </g>
          </g>
        </g>
        <g id="Grupo_983854" data-name="Grupo 983854" transform="translate(41.797 3.294)" opacity="0.5">
          <g id="Grupo_983853" data-name="Grupo 983853">
            <g id="Grupo_983852" data-name="Grupo 983852" clip-path="url(#clip-path-11)">
              <path id="Trazado_211269" data-name="Trazado 211269" d="M95.143,8,82.84,20.3a9.113,9.113,0,0,1-1.807-.689L94.26,6.387a.445.445,0,0,1,.038.038,4.2,4.2,0,0,1,.436.564A3.587,3.587,0,0,1,95.143,8" transform="translate(-81.033 -6.387)" fill="#f0eae0"/>
            </g>
          </g>
        </g>
        <path id="Trazado_211270" data-name="Trazado 211270" d="M51.553,2.048a11.184,11.184,0,0,0,5.275,1.621,11.409,11.409,0,0,0,5.666-1.492s-3.049,2.061-2.8,3.771.462,4.4.462,4.4-1.562-2.11-3.021-2.11S54.26,10.25,54.26,10.25s-.334-6.316-2.707-8.2" transform="translate(-24.962 -0.991)" fill="#352a24"/>
      </g>
    </g>
    <path id="Trazado_211323" data-name="Trazado 211323" d="M0,0H63.939V21.172H0Z" transform="translate(999.507 10619.418)" fill="none"/>
  </g>
</svg>
