<svg xmlns="http://www.w3.org/2000/svg" xmlns:xlink="http://www.w3.org/1999/xlink" width="150" height="93" viewBox="0 0 150 93">
  <defs>
    <clipPath id="clip-path">
      <rect id="Rect치ngulo_338999" data-name="Rect치ngulo 338999" width="90.902" height="71.4" fill="none"/>
    </clipPath>
  </defs>
  <g id="Grupo_983733" data-name="Grupo 983733" transform="translate(-328 -1185)">
    <rect id="Rect치ngulo_338759" data-name="Rect치ngulo 338759" width="150" height="93" rx="14" transform="translate(328 1185)" fill="#6b8dfc"/>
    <g id="Grupo_983732" data-name="Grupo 983732" transform="translate(358 1196)" clip-path="url(#clip-path)">
      <path id="Trazado_211020" data-name="Trazado 211020" d="M9.361,74.238a1.507,1.507,0,0,1-2-.777C6.16,71.5,4.9,69.582,3.693,67.623A1.912,1.912,0,0,0,2.4,66.685,3.377,3.377,0,0,1,0,65.266V64.2a2.291,2.291,0,0,1,1.836-1.312A6.771,6.771,0,0,0,6.95,58.942c1.314-2.648,2.64-5.3,4.855-7.336,3.375-3.105,7.273-4.895,11.972-4.441a20.428,20.428,0,0,1,6.064,1.852,4.85,4.85,0,0,0,4.089-.022,20.459,20.459,0,0,1,6.412-1.9,13.579,13.579,0,0,1,6.308,1.058,1.3,1.3,0,0,1,.805,1.795,1.318,1.318,0,0,1-1.862.879c-.678-.209-1.35-.436-2.042-.6a8.485,8.485,0,0,0-4.119-.056,21,21,0,0,0-4.519,1.557,7.323,7.323,0,0,1-5.777.139c-.939-.359-1.871-.737-2.811-1.094-4.168-1.584-7.886-.587-11.351,1.935a16.231,16.231,0,0,0-4.838,6.362,12.73,12.73,0,0,1-4.389,5.421,15.2,15.2,0,0,0,3.557.677,26.842,26.842,0,0,0,10.107-.685,24.646,24.646,0,0,0,6.914-3.145,10.843,10.843,0,0,1,4.166-1.659,9.289,9.289,0,0,1,6.745,1.565,24.042,24.042,0,0,0,10.188,3.876,28.45,28.45,0,0,0,8.032-.084c.851-.063,1.662-.331,2.725-.477-2.75-1.525-3.84-4.111-5.144-6.532a22.082,22.082,0,0,0-2.726-4.009,1.372,1.372,0,0,1-.009-2.079c1.008-.6,1.461-.543,2.241.3a24.45,24.45,0,0,1,4.025,6.323,7.171,7.171,0,0,0,5.671,4.412A1.619,1.619,0,0,1,63.7,64.512a1.485,1.485,0,0,1-1.157,1.763c-1.918.282-2.755,1.65-3.648,3.1-2.108,3.413-4.238,6.811-6.18,10.324-3.447,6.234-10.436,8.431-17,5.291a8.638,8.638,0,0,0-7.725-.006c-4.75,2.114-9.4,2.092-13.665-1.308a14.318,14.318,0,0,1-3.514-4.294,1.536,1.536,0,0,1,.35-2.19,1.436,1.436,0,0,1,2.171.741,11.061,11.061,0,0,0,2.682,3.383c3.083,2.572,6.508,2.635,10.106,1.33.889-.323,1.73-.766,2.631-1.063a9.922,9.922,0,0,1,7.506.51,17.818,17.818,0,0,0,4.137,1.285,8.727,8.727,0,0,0,6.636-1.523,10.623,10.623,0,0,0,3.241-3.7c1.725-3.166,3.63-6.222,5.527-9.285a1.486,1.486,0,0,0,.323-.736c-1.252.162-2.478.141-3.691.338a21.263,21.263,0,0,1-5.123-.221,3.324,3.324,0,0,0-2.115.411A27.606,27.606,0,0,1,32.483,72.1a28.442,28.442,0,0,1-11.327-2.149,28.655,28.655,0,0,1-2.676-1.385,2.465,2.465,0,0,0-1.526-.36,30.205,30.205,0,0,1-8.827-.029.928.928,0,0,0-.513.035,24.013,24.013,0,0,0,1.547,2.614,15.388,15.388,0,0,1,.849,1.454,1.317,1.317,0,0,1-.65,1.957" transform="translate(0 -15.025)"/>
      <path id="Trazado_211021" data-name="Trazado 211021" d="M43.729,93.289A9.562,9.562,0,0,1,40,92.265a10.481,10.481,0,0,0-9.708-.019,11.011,11.011,0,0,1-6.37,1.111A9.718,9.718,0,0,1,16.5,87.922a1.642,1.642,0,0,0-2.07-1.008l-1.8-2.95a1.434,1.434,0,0,0,.27-2.172c-.858-1.406-1.733-2.8-2.655-4.289a28.576,28.576,0,0,0,8.48.3,6.981,6.981,0,0,1,4.5.99A25.835,25.835,0,0,0,38,81.44a26.75,26.75,0,0,0,10.845-3.564,1.751,1.751,0,0,1,1.195-.214,35.844,35.844,0,0,0,5.742.331c.2-.074.436-.165.558.047.153.263-.046.508-.183.73-1.07,1.734-2.128,3.475-3.192,5.214a60.849,60.849,0,0,1-3.121,5.248,11.6,11.6,0,0,1-5.1,3.842,1.8,1.8,0,0,1-1.018.216" transform="translate(-3.272 -24.751)" fill="#d21129"/>
      <path id="Trazado_211022" data-name="Trazado 211022" d="M111.817,10.807a1.526,1.526,0,0,1,1.248,1.753c-.024,3.728-.006,7.455-.011,11.183a3.439,3.439,0,0,1-3.79,3.712c-4.5.013-8.993,0-13.49,0-3.195,0-6.391.016-9.585-.013a1.176,1.176,0,0,0-1.263.818A12.911,12.911,0,0,1,79.114,34.5a2.337,2.337,0,0,1-2.733-.025,2.252,2.252,0,0,1-.818-2.6,13.253,13.253,0,0,0,.228-3.618c-.01-.564-.237-.811-.8-.8-.71.014-1.421.029-2.13-.007a3.416,3.416,0,0,1-3.45-3.612Q69.4,13.72,69.413,3.6A3.407,3.407,0,0,1,73.042,0Q91.236,0,109.429,0A3.4,3.4,0,0,1,113.055,3.6c.006.71-.022,1.421.007,2.13a1.514,1.514,0,0,1-.893,1.583c-1.115.574-2.047-.4-2.033-1.514.007-.618-.007-1.237-.007-1.855,0-.7-.32-1.036-1.022-1.013-.412.013-.824-.021-1.237,0q-16.629.01-33.256,0c-.3,0-.591,0-.887,0-1.209.018-1.4.184-1.4,1.393q-.02,9.4,0,18.8c0,1.147.268,1.4,1.41,1.448.442.018.886,0,1.33.008A3.464,3.464,0,0,1,78.7,28.107c.035.826.014,1.655.005,2.482a.533.533,0,0,0,.2.555,9.472,9.472,0,0,0,2.868-3.124A14.314,14.314,0,0,0,82.5,26.6a3.43,3.43,0,0,1,2.556-1.985c7.422-.025,14.844-.006,22.267-.01.591,0,1.182-.039,1.772-.052a.907.907,0,0,0,1-.99c.029-.739.015-1.478.016-2.218,0-2.838,0-5.677,0-8.516a2.262,2.262,0,0,1,.461-1.666c.334-.355.713-.645,1.244-.357" transform="translate(-22.164 0)"/>
      <path id="Trazado_211023" data-name="Trazado 211023" d="M119.14,12.054c-1.131.234-1.422.583-1.423,1.75q0,5.458,0,10.916c0,1.156-.164,1.321-1.334,1.322q-11.4.007-22.806.01c-.414,0-.828.013-1.241.02.19-.534.67-.41,1.05-.42,1.3-.035,2.6-.014,3.9-.014q8.243,0,16.487,0c1.319,0,1.349-.029,1.35-1.327q0-9.661,0-19.324a2.161,2.161,0,0,1,.11-1.045c2.851-.114,2.47-.093,2.484,2.333,0,.206,0,.413,0,.619.007,1.311.465,1.74,1.775,1.666a.9.9,0,0,0-.368.835c.029.887.014,1.774.016,2.662" transform="translate(-29.487 -1.247)" fill="#e7dbd8"/>
      <path id="Trazado_211024" data-name="Trazado 211024" d="M57.843,51.212a9.514,9.514,0,0,1,6.035.549,1.47,1.47,0,0,0,2.05-.579,12.16,12.16,0,0,1,2.848,1.993,1.563,1.563,0,0,0,.261,2.077,18.7,18.7,0,0,1,3.3,5.1,11.406,11.406,0,0,0,4.767,5.48,14.529,14.529,0,0,1-3.068.645c-2.516-1.373-3.94-3.624-5.127-6.137a15.551,15.551,0,0,0-7.6-7.86,12.915,12.915,0,0,0-2.75-.979c-.252-.052-.542-.034-.715-.29" transform="translate(-18.472 -16.265)" fill="#d5132b"/>
      <path id="Trazado_211025" data-name="Trazado 211025" d="M41.83,51.24a13.362,13.362,0,0,1,6.722,3.068,17.1,17.1,0,0,1,4.754,6.374c1.071,2.251,2.341,4.289,4.652,5.464.194.1.129.225.067.361-6.719.984-13.006-.06-18.7-3.95a7.794,7.794,0,0,0-1.656-.835A9.191,9.191,0,0,0,28.9,62.81a23.614,23.614,0,0,1-9.757,3.745A30.736,30.736,0,0,1,7.7,65.972c-.031-.207.111-.264.235-.341a10.8,10.8,0,0,0,4.085-4.671,18.341,18.341,0,0,1,4.82-6.819c3.672-2.925,7.691-4.056,12.243-2.262.851.335,1.713.645,2.557,1a6.783,6.783,0,0,0,5.423-.021A20.316,20.316,0,0,1,41.83,51.24" transform="translate(-2.459 -16.293)" fill="#fa2b3a"/>
      <path id="Trazado_211026" data-name="Trazado 211026" d="M31.988,74.023a34.173,34.173,0,0,0,6.736-3.405,6.218,6.218,0,0,1,6.881.1,30.664,30.664,0,0,0,6.549,3.3c-2.566,2.938-14.8,2.981-20.167.01" transform="translate(-10.215 -22.236)" fill="#b11226"/>
      <path id="Trazado_211027" data-name="Trazado 211027" d="M59.438,93.312a14.078,14.078,0,0,0,5.306-3.407,18.412,18.412,0,0,0,2.328-3.524c1.455-2.629,3.043-5.175,4.632-7.721.2-.321.479-.631-.21-.645l4.031-.44c.123.327-.134.5-.262.7q-3.044,4.842-5.871,9.814c-1.987,3.49-4.924,5.52-9.1,5.374a1.381,1.381,0,0,1-.856-.156" transform="translate(-18.982 -24.774)" fill="#b90c29"/>
      <path id="Trazado_211028" data-name="Trazado 211028" d="M109.158,3.942a1.655,1.655,0,0,1,.176,1.028c0,6.651-.016,13.3.022,19.952,0,.86-.288,1.009-1.06,1.006-6.976-.026-13.951-.017-20.927-.009-.37,0-.773-.128-1.109.154A3.572,3.572,0,0,0,83.8,28.3a10.2,10.2,0,0,1-3.435,4.31c-.19.139-.391.263-.593.383-.044.026-.114.009-.218.014a19.062,19.062,0,0,0,.132-3.782,3.2,3.2,0,0,0-3.243-3.176c-.679-.018-1.36-.014-2.04,0-.725.013-1.09-.288-1.088-1.053q.013-10.021,0-20.041c0-.684.263-1.045.993-1.043q17.424.023,34.848.033" transform="translate(-23.413 -1.248)" fill="#f2e9e5"/>
      <path id="Trazado_211029" data-name="Trazado 211029" d="M94.858,18.224c4.2,0,8.394.006,12.591-.005.814,0,1.391.281,1.544,1.124a1.3,1.3,0,0,1-1.147,1.516,5.552,5.552,0,0,1-.885.027h-24.3c-.207,0-.415.01-.621,0a1.375,1.375,0,0,1-1.44-1.365,1.329,1.329,0,0,1,1.484-1.291q6.384-.013,12.768,0" transform="translate(-25.741 -5.818)"/>
      <path id="Trazado_211030" data-name="Trazado 211030" d="M88.759,13.943c-2.16,0-4.319,0-6.479,0-1.058,0-1.656-.474-1.674-1.287-.018-.849.608-1.369,1.7-1.371q6.524-.01,13.047,0c1.142,0,1.787.673,1.583,1.618-.174.807-.76,1.048-1.523,1.044-2.219-.01-4.438,0-6.657,0" transform="translate(-25.741 -3.601)" fill="#010101"/>
      <path id="Trazado_211031" data-name="Trazado 211031" d="M115.121,13.938c-.768,0-1.536.018-2.3-.005a1.321,1.321,0,1,1-.051-2.64q2.346-.061,4.694,0a1.325,1.325,0,1,1-.037,2.644c-.767.022-1.536,0-2.3,0" transform="translate(-35.58 -3.597)" fill="#010101"/>
      <path id="Trazado_211032" data-name="Trazado 211032" d="M84.125,27.741c-.739,0-1.479.017-2.218,0a1.31,1.31,0,0,1-.119-2.614c1.594-.061,3.194-.063,4.787,0a1.312,1.312,0,0,1-.144,2.614c-.768.025-1.538.005-2.306.005" transform="translate(-25.741 -8.008)" fill="#010101"/>
    </g>
  </g>
</svg>
