<svg xmlns="http://www.w3.org/2000/svg" xmlns:xlink="http://www.w3.org/1999/xlink" width="304.341" height="179" viewBox="0 0 304.341 179">
  <defs>
    <clipPath id="clip-path">
      <rect id="Rect치ngulo_339001" data-name="Rect치ngulo 339001" width="142.341" height="152.542" fill="#3c3fa7"/>
    </clipPath>
    <clipPath id="clip-path-2">
      <rect id="Rect치ngulo_339001-2" data-name="Rect치ngulo 339001" width="142.341" height="152.542" fill="#6b8dfc"/>
    </clipPath>
  </defs>
  <g id="Grupo_983868" data-name="Grupo 983868" transform="translate(-695.659 -2120)">
    <g id="Grupo_983867" data-name="Grupo 983867">
      <path id="Trazado_211338" data-name="Trazado 211338" d="M18,0H211a18,18,0,0,1,18,18V161a18,18,0,0,1-18,18H18A18,18,0,0,1,0,161V18A18,18,0,0,1,18,0Z" transform="translate(724.659 2120)" fill="#e1e8ff"/>
      <g id="Grupo_983734" data-name="Grupo 983734" transform="translate(695.659 2133)" clip-path="url(#clip-path)">
        <path id="Trazado_211033" data-name="Trazado 211033" d="M0,7.523V138.7a7.526,7.526,0,0,0,7.523,7.523H122.179l17.226,6.181a2.191,2.191,0,0,0,2.784-2.854l-6.516-16.827V7.523A7.525,7.525,0,0,0,128.144,0H7.523A7.526,7.526,0,0,0,0,7.523" transform="translate(0 0)" fill="#3c3fa7"/>
      </g>
      <g id="Grupo_983734-2" data-name="Grupo 983734" transform="translate(857.659 2133)" clip-path="url(#clip-path-2)">
        <path id="Trazado_211033-2" data-name="Trazado 211033" d="M142.34,7.523V138.7a7.526,7.526,0,0,1-7.523,7.523H20.162L2.936,152.408a2.191,2.191,0,0,1-2.784-2.854l6.516-16.827V7.523A7.525,7.525,0,0,1,14.2,0H134.817a7.526,7.526,0,0,1,7.523,7.523" transform="translate(0.001 0)" fill="#6b8dfc"/>
      </g>
      <path id="Trazado_211339" data-name="Trazado 211339" d="M32.57,9.154H28.352L26.3,21H23.439L25.49,9.154H21.32l.42-2.373H32.99Zm6.074,3.926a5.686,5.686,0,0,0-.928-.1,2.67,2.67,0,0,0-2.334,1.1L34.162,21H31.408l1.836-10.566,2.588-.01-.254,1.289a2.906,2.906,0,0,1,2.461-1.494,4.017,4.017,0,0,1,.957.137Zm4.424,3.9,3.018-6.543h3.066L42.971,22.592a5.289,5.289,0,0,1-1.558,2.051,3.4,3.4,0,0,1-2.065.654,6.294,6.294,0,0,1-1.328-.205l.205-2.148.381.02a2.064,2.064,0,0,0,1.973-.986l.605-1.123-1.729-10.42h2.852ZM59.4,10.238a4.238,4.238,0,0,1,2.407.718,4.042,4.042,0,0,1,1.484,1.924,5.952,5.952,0,0,1,.337,2.72,6.429,6.429,0,0,1-1.753,4.077A4.95,4.95,0,0,1,58.1,21.2a4.225,4.225,0,0,1-2.383-.708,4.027,4.027,0,0,1-1.484-1.909,5.821,5.821,0,0,1-.342-2.7,6.619,6.619,0,0,1,1.777-4.16A4.847,4.847,0,0,1,59.4,10.238Zm-2.783,6.644a2.438,2.438,0,0,0,.439,1.477,1.46,1.46,0,0,0,1.182.561,2.141,2.141,0,0,0,1.992-1.165,5.808,5.808,0,0,0,.674-3.164,2.652,2.652,0,0,0-.454-1.5,1.436,1.436,0,0,0-1.187-.58,2.143,2.143,0,0,0-1.968,1.155A5.748,5.748,0,0,0,56.613,16.882Zm12.158-6.458-.234,1.25a3.8,3.8,0,0,1,3.076-1.436,2.535,2.535,0,0,1,2.207,1.094,4.407,4.407,0,0,1,.518,2.949L73.225,21H70.471L71.6,14.252a3.16,3.16,0,0,0,.02-.693,1.118,1.118,0,0,0-1.25-1.025,2.37,2.37,0,0,0-1.943,1.006L67.111,21H64.357l1.836-10.566Zm8.535,7.666a1.526,1.526,0,0,1,1.118.405,1.388,1.388,0,0,1,.464,1.069,1.439,1.439,0,0,1-.43,1.1,1.654,1.654,0,0,1-2.207.063,1.437,1.437,0,0,1-.469-1.064,1.451,1.451,0,0,1,.42-1.1A1.547,1.547,0,0,1,77.307,18.09Zm-55.1,25.164A5.318,5.318,0,0,1,21.2,45.866a5.468,5.468,0,0,1-2.187,1.748,6.661,6.661,0,0,1-2.91.581,4.92,4.92,0,0,1-2.451-.649,4.3,4.3,0,0,1-1.646-1.8,6.64,6.64,0,0,1-.679-2.71,13.292,13.292,0,0,1,.249-2.988,9.473,9.473,0,0,1,1.133-3.174,7.082,7.082,0,0,1,1.938-2.2,5.849,5.849,0,0,1,3.613-1.094,4.8,4.8,0,0,1,3.5,1.362,5.48,5.48,0,0,1,1.421,3.677l-2.852-.01a2.989,2.989,0,0,0-.537-1.973,2.191,2.191,0,0,0-1.67-.664,2.9,2.9,0,0,0-2.407,1.045,6.284,6.284,0,0,0-1.265,3.193,17.694,17.694,0,0,0-.273,3.057,3.043,3.043,0,0,0,.576,1.9,1.929,1.929,0,0,0,1.475.64,2.945,2.945,0,0,0,2.095-.62,3.281,3.281,0,0,0,1.04-1.919ZM29.348,48a2.851,2.851,0,0,1-.107-.957,3.579,3.579,0,0,1-2.7,1.152,3.243,3.243,0,0,1-2.3-.9,2.733,2.733,0,0,1-.854-2.183,3.159,3.159,0,0,1,1.45-2.651,6.583,6.583,0,0,1,3.706-.923l1.289.02.137-.635A2.2,2.2,0,0,0,30,40.3a1.058,1.058,0,0,0-.347-.718,1.194,1.194,0,0,0-.786-.269,1.682,1.682,0,0,0-1.094.317,1.538,1.538,0,0,0-.576.972l-2.764.01a3.072,3.072,0,0,1,1.392-2.456,5.389,5.389,0,0,1,3.267-.923,3.9,3.9,0,0,1,2.813,1.069,3.128,3.128,0,0,1,.85,2.651l-.811,5.059-.049.625a3.015,3.015,0,0,0,.166,1.172l-.01.186Zm-2.119-1.943a2.522,2.522,0,0,0,2.08-1.035L29.65,43.2l-.957-.01a2.674,2.674,0,0,0-2.2.928,1.615,1.615,0,0,0-.3.791.937.937,0,0,0,.22.835A1.113,1.113,0,0,0,27.229,46.057Zm13.74-5.977a5.685,5.685,0,0,0-.928-.1,2.67,2.67,0,0,0-2.334,1.1L36.486,48H33.732l1.836-10.566,2.588-.01L37.9,38.713a2.906,2.906,0,0,1,2.461-1.494,4.017,4.017,0,0,1,.957.137Zm7.178,0a5.685,5.685,0,0,0-.928-.1,2.67,2.67,0,0,0-2.334,1.1L43.664,48H40.91l1.836-10.566,2.588-.01-.254,1.289a2.906,2.906,0,0,1,2.461-1.494,4.017,4.017,0,0,1,.957.137Zm4.424,3.9,3.018-6.543h3.066L52.473,49.592a5.289,5.289,0,0,1-1.558,2.051,3.4,3.4,0,0,1-2.065.654,6.294,6.294,0,0,1-1.328-.205l.205-2.148.381.02a2.064,2.064,0,0,0,1.973-.986l.605-1.123-1.729-10.42h2.852ZM68.9,37.238a4.238,4.238,0,0,1,2.407.718A4.042,4.042,0,0,1,72.79,39.88a5.952,5.952,0,0,1,.337,2.72,6.429,6.429,0,0,1-1.753,4.077A4.95,4.95,0,0,1,67.6,48.2a4.225,4.225,0,0,1-2.383-.708,4.027,4.027,0,0,1-1.484-1.909,5.821,5.821,0,0,1-.342-2.7,6.619,6.619,0,0,1,1.777-4.16A4.847,4.847,0,0,1,68.9,37.238Zm-2.783,6.644a2.438,2.438,0,0,0,.439,1.477,1.46,1.46,0,0,0,1.182.561,2.141,2.141,0,0,0,1.992-1.165,5.808,5.808,0,0,0,.674-3.164,2.652,2.652,0,0,0-.454-1.5,1.436,1.436,0,0,0-1.187-.58,2.143,2.143,0,0,0-1.968,1.155A5.748,5.748,0,0,0,66.115,43.882Zm12.158-6.458-.234,1.25a3.8,3.8,0,0,1,3.076-1.436,2.535,2.535,0,0,1,2.207,1.094,4.407,4.407,0,0,1,.518,2.949L82.727,48H79.973l1.133-6.748a3.16,3.16,0,0,0,.02-.693,1.118,1.118,0,0,0-1.25-1.025,2.37,2.37,0,0,0-1.943,1.006L76.613,48H73.859L75.7,37.434Zm8.535,7.666a1.526,1.526,0,0,1,1.118.405,1.388,1.388,0,0,1,.464,1.069,1.439,1.439,0,0,1-.43,1.1,1.654,1.654,0,0,1-2.207.063,1.437,1.437,0,0,1-.469-1.064,1.451,1.451,0,0,1,.42-1.1A1.547,1.547,0,0,1,86.809,45.09ZM30.764,63.154H26.545L24.494,75H21.633l2.051-11.846h-4.17l.42-2.373h11.25Zm3.486,1.084a4.238,4.238,0,0,1,2.407.718,4.042,4.042,0,0,1,1.484,1.924,5.952,5.952,0,0,1,.337,2.72,6.429,6.429,0,0,1-1.753,4.077A4.95,4.95,0,0,1,32.951,75.2a4.225,4.225,0,0,1-2.383-.708,4.027,4.027,0,0,1-1.484-1.909,5.821,5.821,0,0,1-.342-2.7,6.619,6.619,0,0,1,1.777-4.16A4.847,4.847,0,0,1,34.25,64.238Zm-2.783,6.644a2.438,2.438,0,0,0,.439,1.477,1.46,1.46,0,0,0,1.182.561,2.141,2.141,0,0,0,1.992-1.165,5.808,5.808,0,0,0,.674-3.164,2.652,2.652,0,0,0-.454-1.5,1.436,1.436,0,0,0-1.187-.58,2.143,2.143,0,0,0-1.968,1.155A5.748,5.748,0,0,0,31.467,70.882Zm17.949-1.136a8.727,8.727,0,0,1-.869,2.949,4.782,4.782,0,0,1-1.65,1.914,3.823,3.823,0,0,1-2.187.6,3.05,3.05,0,0,1-2.422-1.143l-.967,5H38.566L41.1,64.434l2.539-.01-.186,1.064a3.374,3.374,0,0,1,2.7-1.25,3,3,0,0,1,2.412,1.128,4.9,4.9,0,0,1,.918,2.954A11.416,11.416,0,0,1,49.416,69.746Zm-2.734-.2.059-.939a2.612,2.612,0,0,0-.347-1.506,1.244,1.244,0,0,0-1.069-.577,2.273,2.273,0,0,0-1.982,1.017L42.551,71.9A1.541,1.541,0,0,0,44.1,72.93a1.987,1.987,0,0,0,1.66-.773A5.292,5.292,0,0,0,46.682,69.546ZM61.76,73.906A3.648,3.648,0,0,1,58.85,75.2a2.715,2.715,0,0,1-2.3-1.094,4,4,0,0,1-.605-2.832l1.143-6.836h2.754l-1.162,6.873a2.718,2.718,0,0,0-.01.606,1,1,0,0,0,1.084,1.007,2.517,2.517,0,0,0,2.119-.987l1.318-7.5h2.773L64.123,75H61.555Zm14.561-4.16a8.727,8.727,0,0,1-.869,2.949,4.782,4.782,0,0,1-1.65,1.914,3.823,3.823,0,0,1-2.187.6,3.05,3.05,0,0,1-2.422-1.143l-.967,5H65.471L68,64.434l2.539-.01-.186,1.064a3.374,3.374,0,0,1,2.7-1.25,3,3,0,0,1,2.412,1.128,4.9,4.9,0,0,1,.918,2.954A11.415,11.415,0,0,1,76.32,69.746Zm-2.734-.2.059-.939A2.612,2.612,0,0,0,73.3,67.1a1.244,1.244,0,0,0-1.069-.577,2.273,2.273,0,0,0-1.982,1.017L69.455,71.9a1.541,1.541,0,0,0,1.553,1.027,1.987,1.987,0,0,0,1.66-.773A5.292,5.292,0,0,0,73.586,69.546Zm5.527,2.544a1.526,1.526,0,0,1,1.118.405,1.388,1.388,0,0,1,.464,1.069,1.439,1.439,0,0,1-.43,1.1,1.654,1.654,0,0,1-2.207.063,1.437,1.437,0,0,1-.469-1.064,1.451,1.451,0,0,1,.42-1.1A1.547,1.547,0,0,1,79.113,72.09ZM31.071,100.2a4.8,4.8,0,0,1-2.231,1.489,9.4,9.4,0,0,1-3.315.493,5.143,5.143,0,0,1-2.559-.64,4.465,4.465,0,0,1-1.738-1.812,6.409,6.409,0,0,1-.723-2.7,12.3,12.3,0,0,1,.3-3.306A9.3,9.3,0,0,1,22.16,90.4a6.345,6.345,0,0,1,2.31-2.139,6.085,6.085,0,0,1,2.988-.679,4.943,4.943,0,0,1,3.486,1.255,5.206,5.206,0,0,1,1.436,3.481l-2.754-.01a2.913,2.913,0,0,0-.635-1.758,2.163,2.163,0,0,0-1.572-.605,3.084,3.084,0,0,0-2.847,1.587,9.875,9.875,0,0,0-1.187,4.771,4.194,4.194,0,0,0,.513,2.588,2.124,2.124,0,0,0,1.86.938,3.964,3.964,0,0,0,2.48-.693l.479-2.451h-2.6l.381-2.158h5.43Zm6.758,1.992a4.6,4.6,0,0,1-2.456-.679,4.115,4.115,0,0,1-1.6-1.836,5.117,5.117,0,0,1-.41-2.573l.029-.391a6.831,6.831,0,0,1,.9-2.832A5.427,5.427,0,0,1,36.228,91.9a4.784,4.784,0,0,1,2.617-.659,3.655,3.655,0,0,1,3.091,1.5,5.146,5.146,0,0,1,.8,3.7l-.156,1.2H36.1a2.267,2.267,0,0,0,.5,1.641,1.9,1.9,0,0,0,1.465.635A3.379,3.379,0,0,0,40.7,98.748l1.26,1.563a3.919,3.919,0,0,1-1.719,1.4A5.621,5.621,0,0,1,37.829,102.2Zm.879-8.682a1.957,1.957,0,0,0-1.353.479,4.2,4.2,0,0,0-1.06,1.729h3.789l.059-.254a2.588,2.588,0,0,0,.01-.742,1.418,1.418,0,0,0-.479-.884A1.5,1.5,0,0,0,38.708,93.514Zm10.273-4.678-.459,2.6H50.28l-.361,2.07H48.161l-.9,5.293a1.346,1.346,0,0,0,.078.762q.137.264.664.283.156.01.84-.049l-.2,2.158a4.632,4.632,0,0,1-1.582.225,2.482,2.482,0,0,1-2.021-.85A3.07,3.07,0,0,1,44.5,99.08l.908-5.576H43.913l.361-2.07h1.494l.449-2.6Zm16.152,7.91a7.577,7.577,0,0,1-1.523,4,3.791,3.791,0,0,1-3.184,1.455,2.946,2.946,0,0,1-2.539-1.348l-.4,1.143h-2.51l2.6-15h2.764l-1.064,5.4a3.292,3.292,0,0,1,2.578-1.162,2.981,2.981,0,0,1,2.407,1.1,4.862,4.862,0,0,1,.933,2.983A11.415,11.415,0,0,1,65.134,96.746ZM62.4,96.54a8.192,8.192,0,0,0,.059-1.293q-.107-1.7-1.406-1.734a2.292,2.292,0,0,0-2.021,1.107l-.762,4.212a1.572,1.572,0,0,0,1.582,1.1q2.031.059,2.49-2.958Zm8.076,1.436,3.018-6.543H76.56l-6.182,12.158a5.289,5.289,0,0,1-1.558,2.051,3.4,3.4,0,0,1-2.065.654,6.294,6.294,0,0,1-1.328-.205l.205-2.148.381.02a2.064,2.064,0,0,0,1.973-.986l.605-1.123-1.729-10.42h2.852Zm7.275,1.113a1.526,1.526,0,0,1,1.118.405,1.388,1.388,0,0,1,.464,1.069,1.439,1.439,0,0,1-.43,1.1,1.654,1.654,0,0,1-2.207.063,1.437,1.437,0,0,1-.469-1.064,1.451,1.451,0,0,1,.42-1.1A1.547,1.547,0,0,1,77.751,99.09Z" transform="translate(711.659 2157)" fill="#fed947"/>
      <path id="Trazado_211340" data-name="Trazado 211340" d="M10.538,21,13.009,6.781l4.434.01A5.881,5.881,0,0,1,21.153,7.8a3.11,3.11,0,0,1,1.123,2.8,3.581,3.581,0,0,1-2.49,3.154,2.389,2.389,0,0,1,1.318,1.1,3.288,3.288,0,0,1,.4,1.9,4.114,4.114,0,0,1-1.577,3.13A6.255,6.255,0,0,1,16,21Zm3.945-6.191-.674,3.838,2.256.01a2.909,2.909,0,0,0,1.768-.522,2.073,2.073,0,0,0,.85-1.411,1.752,1.752,0,0,0-.239-1.372,1.586,1.586,0,0,0-1.265-.532Zm.352-2.07,1.943.02a3.094,3.094,0,0,0,1.772-.508,1.969,1.969,0,0,0,.825-1.357q.244-1.719-1.807-1.729l-2.109-.01ZM25.753,21H22.979L25.587,6h2.764Zm8.877-1.094A3.648,3.648,0,0,1,31.72,21.2a2.715,2.715,0,0,1-2.3-1.094,4,4,0,0,1-.605-2.832l1.143-6.836h2.754l-1.162,6.873a2.718,2.718,0,0,0-.01.606,1,1,0,0,0,1.084,1.007,2.517,2.517,0,0,0,2.119-.987l1.318-7.5h2.773L36.993,21H34.425ZM46.28,13.08a5.686,5.686,0,0,0-.928-.1,2.67,2.67,0,0,0-2.334,1.1L41.8,21H39.044L40.88,10.434l2.588-.01-.254,1.289a2.906,2.906,0,0,1,2.461-1.494,4.017,4.017,0,0,1,.957.137ZM52.3,7.836l-.459,2.6h1.758l-.361,2.07H51.476l-.9,5.293a1.346,1.346,0,0,0,.078.762q.137.264.664.283.156.01.84-.049l-.2,2.158a4.632,4.632,0,0,1-1.582.225,2.482,2.482,0,0,1-2.021-.85,3.07,3.07,0,0,1-.547-2.246l.908-5.576H47.228l.361-2.07h1.494l.449-2.6Zm12.041,2.4a4.238,4.238,0,0,1,2.407.718,4.042,4.042,0,0,1,1.484,1.924,5.952,5.952,0,0,1,.337,2.72,6.429,6.429,0,0,1-1.753,4.077A4.95,4.95,0,0,1,63.038,21.2a4.225,4.225,0,0,1-2.383-.708,4.027,4.027,0,0,1-1.484-1.909,5.821,5.821,0,0,1-.342-2.7,6.619,6.619,0,0,1,1.777-4.16A4.847,4.847,0,0,1,64.337,10.238Zm-2.783,6.644a2.438,2.438,0,0,0,.439,1.477,1.46,1.46,0,0,0,1.182.561,2.141,2.141,0,0,0,1.992-1.165,5.808,5.808,0,0,0,.674-3.164,2.652,2.652,0,0,0-.454-1.5,1.436,1.436,0,0,0-1.187-.58,2.143,2.143,0,0,0-1.968,1.155A5.748,5.748,0,0,0,61.554,16.882ZM75.9,19.906a3.648,3.648,0,0,1-2.91,1.289,2.715,2.715,0,0,1-2.3-1.094,4,4,0,0,1-.605-2.832l1.143-6.836h2.754l-1.162,6.873a2.718,2.718,0,0,0-.01.606,1,1,0,0,0,1.084,1.007,2.517,2.517,0,0,0,2.119-.987l1.318-7.5H80.1L78.263,21H75.694Zm10-12.07-.459,2.6H87.2l-.361,2.07H85.079l-.9,5.293a1.346,1.346,0,0,0,.078.762q.137.264.664.283.156.01.84-.049l-.2,2.158a4.632,4.632,0,0,1-1.582.225,2.482,2.482,0,0,1-2.021-.85,3.07,3.07,0,0,1-.547-2.246l.908-5.576H80.831l.361-2.07h1.494l.449-2.6ZM88.888,18.09a1.526,1.526,0,0,1,1.118.405,1.388,1.388,0,0,1,.464,1.069,1.439,1.439,0,0,1-.43,1.1,1.654,1.654,0,0,1-2.207.063,1.437,1.437,0,0,1-.469-1.064,1.451,1.451,0,0,1,.42-1.1A1.547,1.547,0,0,1,88.888,18.09Zm-60.342,21.1H23.1L22.081,45H19.22L21.69,30.781h9l-.42,2.373H24.142L23.5,36.826h5.469Zm6.24,6.006a4.6,4.6,0,0,1-2.456-.679,4.115,4.115,0,0,1-1.6-1.836,5.117,5.117,0,0,1-.41-2.573l.029-.391a6.831,6.831,0,0,1,.9-2.832A5.427,5.427,0,0,1,33.185,34.9a4.784,4.784,0,0,1,2.617-.659,3.655,3.655,0,0,1,3.091,1.5,5.146,5.146,0,0,1,.8,3.7l-.156,1.2H33.058a2.267,2.267,0,0,0,.5,1.641,1.9,1.9,0,0,0,1.465.635,3.379,3.379,0,0,0,2.637-1.172l1.26,1.563a3.919,3.919,0,0,1-1.719,1.4A5.621,5.621,0,0,1,34.786,45.2Zm.879-8.682a1.957,1.957,0,0,0-1.353.479,4.2,4.2,0,0,0-1.06,1.729h3.789l.059-.254a2.588,2.588,0,0,0,.01-.742,1.418,1.418,0,0,0-.479-.884A1.5,1.5,0,0,0,35.665,36.514ZM45.6,34.229a3.007,3.007,0,0,1,2.383,1.182L49.015,30h2.764l-2.6,15H46.72l.156-1.133a3.42,3.42,0,0,1-2.754,1.338,3.042,3.042,0,0,1-1.729-.518,3.259,3.259,0,0,1-1.147-1.46A5.88,5.88,0,0,1,40.8,41.1a8,8,0,0,1,.029-1.191l.059-.439a8.458,8.458,0,0,1,.9-2.852,4.708,4.708,0,0,1,1.641-1.826A3.868,3.868,0,0,1,45.6,34.229Zm-2,5.684a7.909,7.909,0,0,0-.049,1.25q.1,1.719,1.387,1.748a2.357,2.357,0,0,0,2.021-1.094l.752-4.2a1.56,1.56,0,0,0-1.523-1.094,2.007,2.007,0,0,0-1.675.776A5.22,5.22,0,0,0,43.595,39.912Zm19.258,3.994a3.648,3.648,0,0,1-2.91,1.289,2.715,2.715,0,0,1-2.3-1.094,4,4,0,0,1-.605-2.832l1.143-6.836h2.754l-1.162,6.873a2.718,2.718,0,0,0-.01.606,1,1,0,0,0,1.084,1.007,2.517,2.517,0,0,0,2.119-.987l1.318-7.5h2.773L65.216,45H62.647Zm14.561-4.16a8.727,8.727,0,0,1-.869,2.949,4.782,4.782,0,0,1-1.65,1.914,3.823,3.823,0,0,1-2.187.6,3.05,3.05,0,0,1-2.422-1.143l-.967,5H66.563l2.529-14.629,2.539-.01-.186,1.064a3.374,3.374,0,0,1,2.7-1.25,3,3,0,0,1,2.412,1.128,4.9,4.9,0,0,1,.918,2.954A11.415,11.415,0,0,1,77.413,39.746Zm-2.734-.2.059-.939a2.612,2.612,0,0,0-.347-1.506,1.244,1.244,0,0,0-1.069-.577,2.273,2.273,0,0,0-1.982,1.017L70.548,41.9A1.541,1.541,0,0,0,72.1,42.93a1.987,1.987,0,0,0,1.66-.773A5.292,5.292,0,0,0,74.679,39.546Zm5.527,2.544a1.526,1.526,0,0,1,1.118.405,1.388,1.388,0,0,1,.464,1.069,1.439,1.439,0,0,1-.43,1.1,1.654,1.654,0,0,1-2.207.063,1.437,1.437,0,0,1-.469-1.064,1.451,1.451,0,0,1,.42-1.1A1.547,1.547,0,0,1,80.206,42.09ZM19.654,63.795H17.33L16.422,69H13.561l2.471-14.219,4.707.01A5.361,5.361,0,0,1,24.376,55.9,3.521,3.521,0,0,1,25.5,59a4.467,4.467,0,0,1-3.125,4.072l2,5.771V69H21.334ZM17.74,61.422l2.129.02a2.982,2.982,0,0,0,1.87-.61,2.416,2.416,0,0,0,.884-1.606,1.841,1.841,0,0,0-.3-1.484,1.8,1.8,0,0,0-1.4-.576l-2.441-.01ZM31.979,69a2.851,2.851,0,0,1-.107-.957,3.579,3.579,0,0,1-2.7,1.152,3.243,3.243,0,0,1-2.3-.9,2.733,2.733,0,0,1-.854-2.183,3.159,3.159,0,0,1,1.45-2.651,6.583,6.583,0,0,1,3.706-.923l1.289.02.137-.635a2.2,2.2,0,0,0,.029-.615,1.058,1.058,0,0,0-.347-.718,1.194,1.194,0,0,0-.786-.269,1.682,1.682,0,0,0-1.094.317,1.538,1.538,0,0,0-.576.972l-2.764.01a3.072,3.072,0,0,1,1.392-2.456,5.389,5.389,0,0,1,3.267-.923,3.9,3.9,0,0,1,2.813,1.069,3.128,3.128,0,0,1,.85,2.651l-.811,5.059-.049.625a3.015,3.015,0,0,0,.166,1.172l-.01.186Zm-2.119-1.943a2.522,2.522,0,0,0,2.08-1.035l.342-1.826-.957-.01a2.674,2.674,0,0,0-2.2.928,1.615,1.615,0,0,0-.3.791.937.937,0,0,0,.22.835A1.113,1.113,0,0,0,29.859,67.057Zm11.133-.127a1.809,1.809,0,0,0,1.27-.415,2.04,2.04,0,0,0,.664-1.157l2.588-.01a3.8,3.8,0,0,1-.7,2,4.242,4.242,0,0,1-1.68,1.387,4.808,4.808,0,0,1-2.212.469,3.9,3.9,0,0,1-3.047-1.328,4.956,4.956,0,0,1-1.084-3.457l.029-.537.01-.107a6.605,6.605,0,0,1,1.738-4.087,4.7,4.7,0,0,1,3.643-1.45,3.809,3.809,0,0,1,2.837,1.167,4.122,4.122,0,0,1,1.03,2.974H43.512a2.163,2.163,0,0,0-.371-1.338,1.41,1.41,0,0,0-1.113-.527q-1.973-.059-2.393,2.881a9.728,9.728,0,0,0-.107,1.8Q39.625,66.9,40.992,66.93Zm10.156-2.139L49.869,65.9,49.332,69H46.578l2.6-15h2.764l-1.426,8.145.537-.576,3.135-3.135h3.535L53.1,62.975,56.041,69H53.023Zm17.363,3.115A3.648,3.648,0,0,1,65.6,69.2,2.715,2.715,0,0,1,63.3,68.1a4,4,0,0,1-.605-2.832l1.143-6.836h2.754l-1.162,6.873a2.718,2.718,0,0,0-.01.606A1,1,0,0,0,66.5,66.92a2.517,2.517,0,0,0,2.119-.987l1.318-7.5h2.773L70.875,69H68.307Zm14.561-4.16A8.727,8.727,0,0,1,82.2,66.7a4.782,4.782,0,0,1-1.65,1.914,3.823,3.823,0,0,1-2.187.6,3.05,3.05,0,0,1-2.422-1.143l-.967,5H72.223l2.529-14.629,2.539-.01-.186,1.064a3.374,3.374,0,0,1,2.7-1.25,3,3,0,0,1,2.412,1.128,4.9,4.9,0,0,1,.918,2.954A11.415,11.415,0,0,1,83.072,63.746Zm-2.734-.2.059-.939A2.612,2.612,0,0,0,80.05,61.1a1.244,1.244,0,0,0-1.069-.577A2.273,2.273,0,0,0,77,61.541L76.207,65.9A1.541,1.541,0,0,0,77.76,66.93a1.987,1.987,0,0,0,1.66-.773A5.292,5.292,0,0,0,80.338,63.546Zm5.527,2.544a1.526,1.526,0,0,1,1.118.405,1.388,1.388,0,0,1,.464,1.069,1.439,1.439,0,0,1-.43,1.1,1.654,1.654,0,0,1-2.207.063,1.437,1.437,0,0,1-.469-1.064,1.451,1.451,0,0,1,.42-1.1A1.547,1.547,0,0,1,85.865,66.09ZM17.95,91.2a4.8,4.8,0,0,1-2.231,1.489,9.4,9.4,0,0,1-3.315.493,5.143,5.143,0,0,1-2.559-.64,4.465,4.465,0,0,1-1.738-1.812,6.409,6.409,0,0,1-.723-2.7,12.3,12.3,0,0,1,.3-3.306A9.3,9.3,0,0,1,9.039,81.4a6.345,6.345,0,0,1,2.31-2.139,6.085,6.085,0,0,1,2.988-.679,4.943,4.943,0,0,1,3.486,1.255,5.206,5.206,0,0,1,1.436,3.481l-2.754-.01a2.913,2.913,0,0,0-.635-1.758,2.163,2.163,0,0,0-1.572-.605,3.084,3.084,0,0,0-2.847,1.587,9.875,9.875,0,0,0-1.187,4.771,4.194,4.194,0,0,0,.513,2.588,2.124,2.124,0,0,0,1.86.938,3.964,3.964,0,0,0,2.48-.693l.479-2.451H13l.381-2.158h5.43ZM24.708,93.2a4.6,4.6,0,0,1-2.456-.679,4.115,4.115,0,0,1-1.6-1.836,5.117,5.117,0,0,1-.41-2.573l.029-.391a6.831,6.831,0,0,1,.9-2.832A5.427,5.427,0,0,1,23.106,82.9a4.784,4.784,0,0,1,2.617-.659,3.655,3.655,0,0,1,3.091,1.5,5.146,5.146,0,0,1,.8,3.7l-.156,1.2H22.979a2.267,2.267,0,0,0,.5,1.641,1.9,1.9,0,0,0,1.465.635,3.379,3.379,0,0,0,2.637-1.172l1.26,1.563a3.919,3.919,0,0,1-1.719,1.4A5.621,5.621,0,0,1,24.708,93.2Zm.879-8.682a1.957,1.957,0,0,0-1.353.479,4.2,4.2,0,0,0-1.06,1.729h3.789l.059-.254a2.588,2.588,0,0,0,.01-.742,1.418,1.418,0,0,0-.479-.884A1.5,1.5,0,0,0,25.587,84.514ZM35.86,79.836l-.459,2.6h1.758L36.8,84.5H35.04l-.9,5.293a1.346,1.346,0,0,0,.078.762q.137.264.664.283.156.01.84-.049l-.2,2.158a4.632,4.632,0,0,1-1.582.225,2.482,2.482,0,0,1-2.021-.85,3.07,3.07,0,0,1-.547-2.246l.908-5.576H30.792l.361-2.07h1.494l.449-2.6ZM42.032,93,44.5,78.781l4.082.01a5.591,5.591,0,0,1,2.583.649,4.882,4.882,0,0,1,1.86,1.782,6.1,6.1,0,0,1,.859,2.617,8.639,8.639,0,0,1-.02,1.738L53.8,86.1a8.122,8.122,0,0,1-2.456,5.015A6.948,6.948,0,0,1,46.427,93Zm4.922-11.846L45.3,90.646l1.191.01a3.909,3.909,0,0,0,3.169-1.445,7.47,7.47,0,0,0,1.372-4.365l.02-.312a3.938,3.938,0,0,0-.615-2.471,2.349,2.349,0,0,0-1.924-.9Zm13.652,1.084a4.238,4.238,0,0,1,2.407.718A4.042,4.042,0,0,1,64.5,84.88a5.952,5.952,0,0,1,.337,2.72,6.429,6.429,0,0,1-1.753,4.077A4.95,4.95,0,0,1,59.308,93.2a4.225,4.225,0,0,1-2.383-.708,4.027,4.027,0,0,1-1.484-1.909,5.821,5.821,0,0,1-.342-2.7,6.619,6.619,0,0,1,1.777-4.16A4.847,4.847,0,0,1,60.606,82.238Zm-2.783,6.644a2.438,2.438,0,0,0,.439,1.477,1.46,1.46,0,0,0,1.182.561,2.141,2.141,0,0,0,1.992-1.165,5.808,5.808,0,0,0,.674-3.164,2.652,2.652,0,0,0-.454-1.5,1.436,1.436,0,0,0-1.187-.58A2.143,2.143,0,0,0,58.5,85.669,5.748,5.748,0,0,0,57.823,88.882Zm17.344.27,2.51-6.719h2.744L75.978,93h-2.3l-.781-6.611L69.806,93H67.5L66.72,82.434H69.3l.166,6.65,3.018-6.65h1.992Zm9.17-6.729-.234,1.25a3.8,3.8,0,0,1,3.076-1.436,2.535,2.535,0,0,1,2.207,1.094,4.407,4.407,0,0,1,.518,2.949L88.79,93H86.036l1.133-6.748a3.16,3.16,0,0,0,.02-.693,1.118,1.118,0,0,0-1.25-1.025A2.37,2.37,0,0,0,84,85.539L82.677,93H79.923l1.836-10.566Zm8.535,7.666a1.526,1.526,0,0,1,1.118.405,1.388,1.388,0,0,1,.464,1.069,1.439,1.439,0,0,1-.43,1.1,1.654,1.654,0,0,1-2.207.063,1.437,1.437,0,0,1-.469-1.064,1.451,1.451,0,0,1,.42-1.1A1.547,1.547,0,0,1,92.872,90.09Z" transform="translate(885.659 2161)" fill="#3c3fa7"/>
    </g>
  </g>
</svg>
