<svg xmlns="http://www.w3.org/2000/svg" xmlns:xlink="http://www.w3.org/1999/xlink" width="966" height="269.653" viewBox="0 0 966 269.653">
  <defs>
    <clipPath id="clip-path">
      <path id="Rectángulo_338997" data-name="Rectángulo 338997" d="M15,0H951a15,15,0,0,1,15,15V190a0,0,0,0,1,0,0H0a0,0,0,0,1,0,0V15A15,15,0,0,1,15,0Z" transform="translate(317 2774)" fill="#6b8dfc"/>
    </clipPath>
    <clipPath id="clip-path-2">
      <rect id="Rectángulo_338996" data-name="Rectángulo 338996" width="813.55" height="667.753" fill="#3c3fa7"/>
    </clipPath>
    <clipPath id="clip-path-3">
      <rect id="Rectángulo_338995" data-name="Rectángulo 338995" width="813.55" height="667.754" fill="#3c3fa7"/>
    </clipPath>
    <clipPath id="clip-path-8">
      <rect id="Rectángulo_338993" data-name="Rectángulo 338993" width="555.281" height="269.653" fill="none"/>
    </clipPath>
    <clipPath id="clip-path-10">
      <rect id="Rectángulo_338990" data-name="Rectángulo 338990" width="11.264" height="4.946" fill="none"/>
    </clipPath>
    <clipPath id="clip-path-12">
      <rect id="Rectángulo_338998" data-name="Rectángulo 338998" width="64.333" height="54.466" fill="none"/>
    </clipPath>
  </defs>
  <g id="Grupo_983868" data-name="Grupo 983868" transform="translate(-369 -2630.442)">
    <g id="Grupo_983721" data-name="Grupo 983721" transform="translate(52 -64)">
      <path id="Rectángulo_338769" data-name="Rectángulo 338769" d="M15,0H951a15,15,0,0,1,15,15V190a0,0,0,0,1,0,0H0a0,0,0,0,1,0,0V15A15,15,0,0,1,15,0Z" transform="translate(317 2774)" fill="#6b8dfc"/>
      <g id="Enmascarar_grupo_579" data-name="Enmascarar grupo 579" clip-path="url(#clip-path)">
        <g id="Grupo_983723" data-name="Grupo 983723" transform="translate(800 2630.124)">
          <g id="Grupo_983728" data-name="Grupo 983728" clip-path="url(#clip-path-2)">
            <g id="Grupo_983727" data-name="Grupo 983727" transform="translate(0 -0.001)">
              <g id="Grupo_983726" data-name="Grupo 983726" clip-path="url(#clip-path-3)">
                <g id="Grupo_983725" data-name="Grupo 983725" opacity="0.4" style="mix-blend-mode: multiply;isolation: isolate">
                  <g id="Grupo_983724" data-name="Grupo 983724">
                    <g id="Grupo_983723-2" data-name="Grupo 983723" clip-path="url(#clip-path-3)">
                      <path id="Trazado_211015" data-name="Trazado 211015" d="M49.939,562.038C4.107,520.014-12.511,449.069,9.892,391.062s82.393-99.367,144.575-99.674c43.023-.214,85.242,17.334,128.052,13.065,44.093-4.4,84.853-33.7,103.068-74.1,12.634-28.02,14.691-59.556,23.543-88.99,15.407-51.233,52.437-95.58,100.1-119.878S614.533-6.73,665.045,10.9c76.57,26.718,131.349,101.119,144.808,181.092s-10.87,163.447-56.062,230.784S643.9,542.507,574.03,583.67C494.036,630.8,404.324,664.78,311.522,667.6S128.173,633.772,49.939,562.038" transform="translate(0 0.001)" fill="#3c3fa7"/>
                    </g>
                  </g>
                </g>
              </g>
            </g>
          </g>
        </g>
        <g id="Grupo_983724-2" data-name="Grupo 983724" transform="translate(0 2457.898)">
          <g id="Grupo_983728-2" data-name="Grupo 983728" clip-path="url(#clip-path-2)">
            <g id="Grupo_983727-2" data-name="Grupo 983727" transform="translate(0 0)">
              <g id="Grupo_983726-2" data-name="Grupo 983726" clip-path="url(#clip-path-3)">
                <g id="Grupo_983725-2" data-name="Grupo 983725" opacity="0.4" style="mix-blend-mode: multiply;isolation: isolate">
                  <g id="Grupo_983724-3" data-name="Grupo 983724">
                    <g id="Grupo_983723-3" data-name="Grupo 983723" clip-path="url(#clip-path-3)">
                      <path id="Trazado_211015-2" data-name="Trazado 211015" d="M763.611,105.715c45.832,42.024,62.45,112.97,40.047,170.976s-82.393,99.367-144.575,99.674c-43.023.214-85.242-17.334-128.052-13.065-44.093,4.4-84.853,33.7-103.068,74.1-12.634,28.02-14.691,59.556-23.543,88.99-15.407,51.233-52.437,95.58-100.1,119.879s-105.3,28.219-155.816,10.593C71.936,630.14,17.157,555.738,3.7,475.766S14.567,312.319,59.76,244.981s109.888-119.735,179.76-160.9C319.515,36.954,409.226,2.973,502.028.151s183.35,33.829,261.583,105.563" transform="translate(0 0)" fill="#3c3fa7"/>
                    </g>
                  </g>
                </g>
              </g>
            </g>
          </g>
        </g>
      </g>
      <g id="Grupo_983720" data-name="Grupo 983720" transform="translate(522 2694.442)">
        <g id="Grupo_983719" data-name="Grupo 983719" clip-path="url(#clip-path-8)">
          <g id="Grupo_983718" data-name="Grupo 983718">
            <g id="Grupo_983717" data-name="Grupo 983717" clip-path="url(#clip-path-8)">
              <path id="Trazado_210835" data-name="Trazado 210835" d="M440.688,232.175s5.758,12.93,3.47,13.922-6.727-9.625-6.727-9.625Z" transform="translate(-41.737 -22.153)" fill="#d55b5d"/>
              <path id="Trazado_210836" data-name="Trazado 210836" d="M443.445,227.646s5.758,12.93,3.47,13.922-6.727-9.625-6.727-9.625Z" transform="translate(-42 -21.721)" fill="#d55b5d"/>
              <path id="Trazado_210837" data-name="Trazado 210837" d="M464.054,108.851l-8.219,39.221s-11.078,40.675-14.651,55.476l12.667,3.063s20.379-47.483,22.546-55.389,4.817-30.042,4.817-30.042Z" transform="translate(-42.095 -10.386)" fill="#e38680"/>
              <path id="Trazado_210838" data-name="Trazado 210838" d="M452.592,213.5a25.958,25.958,0,0,1,2,9.388c.006,4.941-2.23,16.99-2.713,17.343a.8.8,0,0,1-.392.1,2.718,2.718,0,0,1-2.83-2.539l-1.1-13.115s-7.034,6.866-8.707,9.987,2.516,12.808,1.113,14.13-1.58,1.307-3-.233-4.233-12.161-4.228-17.231,8.026-19.568,8.026-19.568Z" transform="translate(-41.29 -20.206)" fill="#e38680"/>
              <path id="Trazado_210839" data-name="Trazado 210839" d="M569.441,113.866,468.611,109s1.663-6.348,3.9-12.7,6.357-8.854,11.581-9.93c1.474-.3,4.177-.948,7.3-1.716,1.2-.3,2.473-.613,3.757-.935l1.8-.452c6.592-1.66,13.023-3.327,13.023-3.327l10.527-.333h.061l.059.006,9.425,1.212s5.606,1.982,11.733,4.118c1.176.41,2.372.826,3.551,1.234,4.583,1.587,8.913,3.066,10.875,3.672,5.1,1.572,8.953,4.461,10.572,11s2.665,13.015,2.665,13.015" transform="translate(-44.712 -7.596)" fill="#e69848"/>
              <path id="Trazado_210840" data-name="Trazado 210840" d="M548.128,86.181a41.264,41.264,0,0,1-3.884,9.315c-3.785,6.521-10.319,12.786-21.39,12.252-11.724-.565-18.1-7.693-21.527-14.408a39.822,39.822,0,0,1-3.38-9.617c.6-.148,1.2-.3,1.8-.452,6.592-1.659,13.022-3.327,13.022-3.327l10.527-.332h.062l.059.006,9.424,1.213s5.606,1.982,11.733,4.118c1.177.41,2.373.826,3.551,1.234" transform="translate(-47.511 -7.596)" fill="#e38680"/>
              <path id="Trazado_210841" data-name="Trazado 210841" d="M511.183,81.682a1.047,1.047,0,0,1-.721-.341,1.027,1.027,0,0,1-.122-.164,1.015,1.015,0,0,1-.087-.185,1.054,1.054,0,0,1-.052-.2,1.1,1.1,0,0,1-.009-.2,1.011,1.011,0,0,1,.1-.4.994.994,0,0,1,.1-.174,1.1,1.1,0,0,1,.136-.152,1.043,1.043,0,0,1,1.474.071,1,1,0,0,1,.123.164,1.131,1.131,0,0,1,.086.184,1,1,0,0,1,.05.2.98.98,0,0,1-.019.406,1.126,1.126,0,0,1-.069.192,1.232,1.232,0,0,1-.1.175,1.1,1.1,0,0,1-.138.152,1.035,1.035,0,0,1-.165.122,1.271,1.271,0,0,1-.185.087,1.166,1.166,0,0,1-.2.05,1.037,1.037,0,0,1-.2.011" transform="translate(-48.679 -7.595)" fill="#f2edfd"/>
              <path id="Trazado_210842" data-name="Trazado 210842" d="M524.006,93.207h0a1.042,1.042,0,0,1,.109-2.081h0a1.042,1.042,0,0,1-.1,2.082h0m1.684-.99a1.043,1.043,0,0,1,.944-1.133h0a1.043,1.043,0,0,1,.185,2.078.967.967,0,0,1-.145,0,1.04,1.04,0,0,1-.986-.946m-4.482.653a1.042,1.042,0,1,1,.15.018,1.062,1.062,0,0,1-.15-.018m7.142-.935a1.042,1.042,0,1,1,1.284.726h0a1.071,1.071,0,0,1-.327.036,1.044,1.044,0,0,1-.954-.763m-9.886.144a1.046,1.046,0,1,1,.33.07,1.068,1.068,0,0,1-.33-.07m12.449-.915a1.043,1.043,0,1,1,.871.55,1.044,1.044,0,0,1-.871-.55M515.9,90.741a1.039,1.039,0,1,1,.528.177,1.042,1.042,0,0,1-.528-.177m17.341-.9a1.044,1.044,0,1,1,.725.343,1.044,1.044,0,0,1-.725-.343m-19.551-.993h0a1.04,1.04,0,1,1,.716.336,1.043,1.043,0,0,1-.716-.336m21.491-.856a1.043,1.043,0,1,1,.537.18,1.042,1.042,0,0,1-.537-.18m-23.2-1.5h0a1.041,1.041,0,1,1,.858.529,1.043,1.043,0,0,1-.858-.529m24.655-.752a1.038,1.038,0,1,1,.346.078,1.023,1.023,0,0,1-.346-.078m-25.806-1.9h0a1.043,1.043,0,1,1,1.31.678,1.023,1.023,0,0,1-.365.048,1.041,1.041,0,0,1-.944-.725" transform="translate(-48.736 -7.871)" fill="#f2edfd"/>
              <path id="Trazado_210843" data-name="Trazado 210843" d="M540.46,83.094a1.028,1.028,0,0,1-.2-.031,1.123,1.123,0,0,1-.192-.068,1.181,1.181,0,0,1-.176-.1,1,1,0,0,1-.152-.138.969.969,0,0,1-.121-.164,1.079,1.079,0,0,1-.088-.185,1.043,1.043,0,0,1-.05-.2,1.032,1.032,0,0,1-.01-.2.992.992,0,0,1,.03-.2,1.1,1.1,0,0,1,.068-.192,1,1,0,0,1,.106-.174.867.867,0,0,1,.136-.152,1.079,1.079,0,0,1,.165-.122,1.019,1.019,0,0,1,.185-.087,1.128,1.128,0,0,1,.2-.052,1.082,1.082,0,0,1,.407.02,1.106,1.106,0,0,1,.192.07,1.072,1.072,0,0,1,.327.242,1.109,1.109,0,0,1,.121.164,1.068,1.068,0,0,1,.087.184,1.087,1.087,0,0,1,.051.2,1.215,1.215,0,0,1,.01.205,1.193,1.193,0,0,1-.029.2,1.139,1.139,0,0,1-.071.192,1.082,1.082,0,0,1-.1.175,1.208,1.208,0,0,1-.136.152,1.047,1.047,0,0,1-.166.122,1.067,1.067,0,0,1-.184.087,1.132,1.132,0,0,1-.2.05.989.989,0,0,1-.206.011" transform="translate(-51.473 -7.73)" fill="#f2edfd"/>
              <path id="Trazado_210844" data-name="Trazado 210844" d="M544.6,96.945c-3.785,6.521-10.319,12.785-21.39,12.252-11.723-.565-18.1-7.694-21.527-14.408,9.475,2.808,25.671,5.987,42.917,2.157" transform="translate(-47.867 -9.044)" fill="#f2edfd"/>
              <path id="Trazado_210845" data-name="Trazado 210845" d="M526.1,79.608v.009l-.058-.006Z" transform="translate(-50.192 -7.596)" fill="#5848bc"/>
              <path id="Trazado_210846" data-name="Trazado 210846" d="M526.035,79.61h-.061V79.6Z" transform="translate(-50.185 -7.595)" fill="#5848bc"/>
              <path id="Trazado_210847" data-name="Trazado 210847" d="M549.91,36.434A25.582,25.582,0,1,1,525.59,9.648,25.583,25.583,0,0,1,549.91,36.434" transform="translate(-47.59 -0.918)" fill="#dd504f"/>
              <path id="Trazado_210848" data-name="Trazado 210848" d="M534.1,82.656s-2.846,4.758-10.142,4.406a11.7,11.7,0,0,1-9.77-5.61l.6-3.493.1-.587.944-5.5L533.252,73.2l.19,2.119.062.694Z" transform="translate(-49.061 -6.858)" fill="#e38680"/>
              <path id="Trazado_210849" data-name="Trazado 210849" d="M533.5,75.319c-4.112,3.159-10.566,4.125-18.652,2.64l.1-.587.944-5.5L533.315,73.2Z" transform="translate(-49.124 -6.858)" fill="#3b2539"/>
              <path id="Trazado_210850" data-name="Trazado 210850" d="M508.319,54.415c-4.164,5.257-12.387,1.172-11.467-6.028.836-6.531,8.109-5.139,8.109-5.139Z" transform="translate(-47.4 -4.115)" fill="#d55b5d"/>
              <path id="Trazado_210851" data-name="Trazado 210851" d="M503.565,55.117a1.324,1.324,0,1,1-1.258-1.386,1.324,1.324,0,0,1,1.258,1.386" transform="translate(-47.795 -5.127)" fill="#f2edfd"/>
              <path id="Trazado_210852" data-name="Trazado 210852" d="M505.1,54.773a.522.522,0,0,1-.487-.421c-.612-3.146-3.693-6.191-3.723-6.222a.521.521,0,1,1,.729-.744c.137.133,3.344,3.305,4.018,6.766a.522.522,0,0,1-.413.611.531.531,0,0,1-.125.009" transform="translate(-47.777 -4.507)" fill="#b33a41"/>
              <path id="Trazado_210853" data-name="Trazado 210853" d="M503.856,52.086a.5.5,0,0,1-.164-.034,5.907,5.907,0,0,0-2.793-.32.521.521,0,0,1-.178-1.028,6.889,6.889,0,0,1,3.35.376.521.521,0,0,1-.214,1.006" transform="translate(-47.735 -4.832)" fill="#b33a41"/>
              <path id="Trazado_210854" data-name="Trazado 210854" d="M541.47,56.007c3.638,5.634,12.217,2.359,11.993-4.9-.2-6.582-7.576-5.9-7.576-5.9Z" transform="translate(-51.664 -4.312)" fill="#d55b5d"/>
              <path id="Trazado_210855" data-name="Trazado 210855" d="M549.813,57.347a1.324,1.324,0,1,1-1.258-1.386,1.324,1.324,0,0,1,1.258,1.386" transform="translate(-52.207 -5.339)" fill="#f2edfd"/>
              <path id="Trazado_210856" data-name="Trazado 210856" d="M545.38,56.739a.547.547,0,0,1-.124-.021.522.522,0,0,1-.351-.649c1-3.38,4.5-6.229,4.65-6.348a.521.521,0,0,1,.654.811c-.033.027-3.395,2.769-4.3,5.834a.521.521,0,0,1-.525.373" transform="translate(-51.989 -4.733)" fill="#b33a41"/>
              <path id="Trazado_210857" data-name="Trazado 210857" d="M547.022,54.172a.521.521,0,0,1-.116-1.022,6.866,6.866,0,0,1,3.37-.052.521.521,0,0,1-.276,1,5.9,5.9,0,0,0-2.811.05.527.527,0,0,1-.166.019" transform="translate(-52.146 -5.049)" fill="#b33a41"/>
              <path id="Trazado_210858" data-name="Trazado 210858" d="M504.458,32.588a47.163,47.163,0,0,0,1.906,23.517c3.97,10.69,9.767,14.241,16.1,14.646,7.2.46,22.49-2.979,21.751-37.284-.5-23.18-36.723-24.11-39.755-.879" transform="translate(-48.066 -1.49)" fill="#e38680"/>
              <path id="Trazado_210859" data-name="Trazado 210859" d="M539.2,26.4s2.927,9.285,4.61,11.709l2.261-5.957s-.585-17.535-20.819-18.511c-20.919-1.009-21.043,16.492-21.043,16.492l1.4,8.31s5.645-7.594,6.293-12.781c0,0,6.624,8.089,13.144,7.476a16.267,16.267,0,0,1-2.793-4.657s11.027,6.516,18.7,4.728A13.793,13.793,0,0,1,539.2,26.4" transform="translate(-48.108 -1.298)" fill="#dd504f"/>
              <path id="Trazado_210860" data-name="Trazado 210860" d="M511.651,40.933a11.56,11.56,0,0,1,7.727-3.976,1.374,1.374,0,0,1,1.439,1.361v.013a1.379,1.379,0,0,1-1.43,1.393,19.277,19.277,0,0,0-7.736,1.209" transform="translate(-48.819 -3.526)" fill="#dd504f"/>
              <path id="Trazado_210861" data-name="Trazado 210861" d="M540.216,42.278a11.561,11.561,0,0,0-7.309-4.7,1.375,1.375,0,0,0-1.564,1.217v.013a1.377,1.377,0,0,0,1.288,1.523,19.324,19.324,0,0,1,7.585,1.948" transform="translate(-50.697 -3.584)" fill="#dd504f"/>
              <path id="Trazado_210862" data-name="Trazado 210862" d="M525.439,69.674a7.241,7.241,0,0,1-2.708-.686.434.434,0,0,1,.4-.773c.025.014,2.647,1.317,4.861.008a.434.434,0,1,1,.442.747,5.3,5.3,0,0,1-2.992.7" transform="translate(-49.853 -6.504)" fill="#d55b5d"/>
              <path id="Trazado_210863" data-name="Trazado 210863" d="M527.662,56.691l-.035,0-3.16-.409a.434.434,0,1,1,.111-.861l2.642.341-.439-8.1a.434.434,0,0,1,.868-.047l.468,8.626a.435.435,0,0,1-.455.457" transform="translate(-50.005 -4.503)" fill="#d55b5d"/>
              <path id="Trazado_210864" data-name="Trazado 210864" d="M518.63,61.072a35.369,35.369,0,0,0,13.2.451,6.4,6.4,0,0,1-7.047,5.379c-5.368-.237-6.153-5.83-6.153-5.83" transform="translate(-49.484 -5.827)" fill="#f2edfd"/>
              <path id="Trazado_210865" data-name="Trazado 210865" d="M518.626,46.968c-.072,1.5-.815,2.691-1.658,2.65s-1.469-1.294-1.4-2.8.815-2.691,1.658-2.65,1.468,1.294,1.4,2.8" transform="translate(-49.192 -4.214)" fill="#3b2539"/>
              <path id="Trazado_210866" data-name="Trazado 210866" d="M536.585,47.834c-.072,1.5-.815,2.691-1.659,2.65s-1.468-1.294-1.4-2.8.816-2.691,1.659-2.65,1.468,1.294,1.4,2.8" transform="translate(-50.906 -4.297)" fill="#3b2539"/>
              <path id="Trazado_210867" data-name="Trazado 210867" d="M512.382,53.089a.469.469,0,1,1-.446-.491.469.469,0,0,1,.446.491" transform="translate(-48.799 -5.019)" fill="#d55b5d"/>
              <path id="Trazado_210868" data-name="Trazado 210868" d="M514.849,54.461a.469.469,0,1,1-.446-.491.469.469,0,0,1,.446.491" transform="translate(-49.034 -5.149)" fill="#d55b5d"/>
              <path id="Trazado_210869" data-name="Trazado 210869" d="M512.235,56.139a.469.469,0,1,1-.446-.491.469.469,0,0,1,.446.491" transform="translate(-48.785 -5.31)" fill="#d55b5d"/>
              <path id="Trazado_210870" data-name="Trazado 210870" d="M516.184,56.849a.469.469,0,1,1-.446-.491.469.469,0,0,1,.446.491" transform="translate(-49.162 -5.377)" fill="#d55b5d"/>
              <path id="Trazado_210871" data-name="Trazado 210871" d="M518.858,56.459a.469.469,0,1,1-.446-.491.469.469,0,0,1,.446.491" transform="translate(-49.417 -5.34)" fill="#d55b5d"/>
              <path id="Trazado_210872" data-name="Trazado 210872" d="M517.776,53.868a.469.469,0,1,1-.446-.491.469.469,0,0,1,.446.491" transform="translate(-49.314 -5.093)" fill="#d55b5d"/>
              <path id="Trazado_210873" data-name="Trazado 210873" d="M540.416,54.441a.469.469,0,1,0,.491-.446.469.469,0,0,0-.491.446" transform="translate(-51.563 -5.152)" fill="#d55b5d"/>
              <path id="Trazado_210874" data-name="Trazado 210874" d="M537.827,55.569a.469.469,0,1,0,.491-.446.469.469,0,0,0-.491.446" transform="translate(-51.316 -5.259)" fill="#d55b5d"/>
              <path id="Trazado_210875" data-name="Trazado 210875" d="M540.269,57.492a.469.469,0,1,0,.491-.446.469.469,0,0,0-.491.446" transform="translate(-51.549 -5.443)" fill="#d55b5d"/>
              <path id="Trazado_210876" data-name="Trazado 210876" d="M536.269,57.818a.469.469,0,1,0,.491-.446.469.469,0,0,0-.491.446" transform="translate(-51.167 -5.474)" fill="#d55b5d"/>
              <path id="Trazado_210877" data-name="Trazado 210877" d="M533.645,57.172a.469.469,0,1,0,.491-.446.469.469,0,0,0-.491.446" transform="translate(-50.917 -5.412)" fill="#d55b5d"/>
              <path id="Trazado_210878" data-name="Trazado 210878" d="M534.972,54.7a.469.469,0,1,0,.491-.446.469.469,0,0,0-.491.446" transform="translate(-51.044 -5.176)" fill="#d55b5d"/>
              <path id="Trazado_210879" data-name="Trazado 210879" d="M479.41,102.769l2.1,70.148-7.343,27.623h89.862l-6.993-25.176,4.2-65.375s-51.857,8.818-81.821-7.22" transform="translate(-45.242 -9.806)" fill="#e69848"/>
              <path id="Trazado_210880" data-name="Trazado 210880" d="M577.279,288.018H532.407l-12.643-49.741-3.7,1.973-5.894,45.685s-.059.813-.135,2.083H466.719c-.744-20.993-1.515-41.841-.525-50.766,2.091-18.884,11.584-44.763,11.584-44.763,48.319,11.194,80.828,0,80.828,0s15.8,25.354,16.674,63.155c.22,9.382,1,20.865,2,32.373" transform="translate(-44.437 -18.366)" fill="#684868"/>
              <path id="Trazado_210881" data-name="Trazado 210881" d="M568.352,92.034s8.073,2.46,16.641,15.572l-16.641,19.582Z" transform="translate(-54.229 -8.781)" fill="#e69848"/>
              <path id="Trazado_210882" data-name="Trazado 210882" d="M584.512,109.823,601.437,134.5,585.9,147.43l-17.7-21.4Z" transform="translate(-54.214 -10.479)" fill="#d55b5d"/>
              <path id="Trazado_210883" data-name="Trazado 210883" d="M603.441,116.413l-16.3-37.122-13.632,1.323,12.89,63.9s6.935,6.594,13.545,4.84a14.18,14.18,0,0,0,10.037-11.133c.4-3.209-6.545-21.812-6.545-21.812" transform="translate(-54.721 -7.565)" fill="#e38680"/>
              <path id="Trazado_210884" data-name="Trazado 210884" d="M563.248,60a39.708,39.708,0,0,1,7.543,2.259l2.375-7.367-.006,0c.116-.407.387-1.244.754-2.315v0c1.226-3.589,3.527-9.836,4.715-11.657,1.541-2.365,2.943-.514,2.4,1.031-.421,1.192-2.251,9.091-3.065,12.639l.146.072c1.082-3.27,3.746-10.666,5.056-12.673,1.542-2.365,2.944-.514,2.4,1.031-.471,1.334-2.708,11.075-3.309,13.7l.11.055c1.195-3.525,3.6-10.1,4.82-11.969,1.542-2.365,2.944-.514,2.4,1.031-.36,1.019-1.752,6.951-2.657,10.866a54.779,54.779,0,0,1,3.936-7.553c1.583-2.048,2.727-.253,2.116,1.118-.419.94-2.242,6.63-3.348,10.122l-5.01,12.046,2.167,5.282-14.368-.534-1.712-5.815-2.273-2.456c-2.022-1.629-3.94-4.736-5.285-5.54-2.244-1.342-3.453-3.791.1-3.374" transform="translate(-53.528 -3.796)" fill="#e38680"/>
              <path id="Trazado_210885" data-name="Trazado 210885" d="M587.864,61.88a.362.362,0,0,1-.168-.038l-10.951-5.491a.357.357,0,0,1,.32-.639L588.016,61.2a.357.357,0,0,1-.152.677" transform="translate(-55.011 -5.312)" fill="#d55b5d"/>
              <path id="Trazado_210886" data-name="Trazado 210886" d="M577.445,69.672a.358.358,0,0,1-.351-.257,7.567,7.567,0,0,0-3.756-4.237.357.357,0,0,1,.3-.649,8.154,8.154,0,0,1,4.144,4.686.358.358,0,0,1-.335.458" transform="translate(-54.685 -6.154)" fill="#d55b5d"/>
              <path id="Trazado_210887" data-name="Trazado 210887" d="M477.108,89.842s-5.273,2.345-9.249,10.562a158.453,158.453,0,0,0-7.124,18.182l21.155,7.168s.577-32.66-4.782-35.912" transform="translate(-43.96 -8.572)" fill="#e69848"/>
              <path id="Trazado_210888" data-name="Trazado 210888" d="M507.529,16.108A19.591,19.591,0,0,1,522.906,3.922,37.292,37.292,0,0,1,545.165,7.55L542.5,9.792s8.105,1.751,11.734,8.526a17.3,17.3,0,0,1-3.388.968s6.6,5.928,5.053,13.791l-5.675-1.209S539.5,19.649,532.353,16.986s-24.824-.877-24.824-.877" transform="translate(-48.425 -0.331)" fill="#dd504f"/>
              <path id="Trazado_210889" data-name="Trazado 210889" d="M509.856,16.607s-10.968-2.359-15.051,5.807h3.9a9.249,9.249,0,0,0-3.9,4.718s1.351,1.451,7.526-1.452a14.242,14.242,0,0,0,7.525-9.073" transform="translate(-47.211 -1.554)" fill="#dd504f"/>
              <path id="Trazado_210890" data-name="Trazado 210890" d="M318.168,123.638l-14.282,1.791-18.537-15.383,22.929-14.2h9.889Z" transform="translate(-27.226 -9.145)" fill="#e48888"/>
              <path id="Trazado_210891" data-name="Trazado 210891" d="M313.794,52.3l-10.242,68.976s-15.906,1.458-20.9-11.485S298,53.934,298,53.934Z" transform="translate(-26.893 -4.99)" fill="#ecb6a0"/>
              <path id="Trazado_210892" data-name="Trazado 210892" d="M330.016,32.212a47.928,47.928,0,0,0-9.394,1.493l-1.661-9.2h.007c-.073-.507-.263-1.552-.53-2.894v0c-.892-4.494-2.643-12.343-3.772-14.714-1.467-3.078-3.442-1.087-3.038.849.312,1.5,1.235,11.246,1.64,15.625l-.185.063c-.771-4.09-2.773-13.372-4.019-15.986-1.466-3.079-3.441-1.087-3.037.849.349,1.673,1.464,13.695,1.761,16.939l-.142.048c-.864-4.413-2.687-12.664-3.849-15.1-1.467-3.079-3.442-1.088-3.038.849.267,1.279.982,8.6,1.436,13.436a66.053,66.053,0,0,0-3.5-9.675c-1.566-2.706-3.225-.741-2.713,1,.351,1.192,1.619,8.3,2.384,12.657L300.447,43l-1.377,8.025,15.007,3.9,1.056-7.111,6.352-7c2.682-1.626,6.37-3.8,8.107-4.544,2.9-1.246,4.743-3.986.424-4.056" transform="translate(-28.232 -0.506)" fill="#ecb6a0"/>
              <path id="Trazado_210893" data-name="Trazado 210893" d="M302.895,30.831a.428.428,0,0,0,.207-.018L317.1,26a.432.432,0,0,0-.281-.816L302.821,30a.431.431,0,0,0,.073.834" transform="translate(-28.866 -2.4)" fill="#e48888"/>
              <path id="Trazado_210894" data-name="Trazado 210894" d="M315.021,41.833a.432.432,0,0,0,.461-.251,9.14,9.14,0,0,1,5.177-4.47.432.432,0,0,0-.251-.826,9.854,9.854,0,0,0-5.714,4.945.43.43,0,0,0,.327.6" transform="translate(-30.023 -3.46)" fill="#e48888"/>
              <path id="Trazado_210895" data-name="Trazado 210895" d="M337.654,214.81s-7.258,60.994-8.71,75.136h42.825l8.71-41.748,1.861,1.088,5.76,40.659h38.832V212.683Z" transform="translate(-31.386 -20.293)" fill="#4f1e4a"/>
              <path id="Trazado_210896" data-name="Trazado 210896" d="M425.224,96.211c-2.6-1.041-8.983-4.159-15.355-7.349-.936-.467-1.872-.938-2.793-1.4l-2.558-1.29-.649-.327c-1.708-.865-3.316-1.684-4.734-2.409C395.721,81.695,393.4,80.5,393.4,80.5l-.025.005a47.14,47.14,0,0,1-15.62,1.076q-1.418-.138-2.831-.368t-2.846-.544l-.754-.169-.072.038c-.418.222-2.615,1.389-5.686,3-1.394.734-2.97,1.556-4.638,2.426l-.64.333c-2.035,1.059-4.192,2.175-6.32,3.264-5.733,2.936-11.259,5.687-13.671,6.651-5.968,2.388-6.962,14.719-6.962,14.719l1.352,93.565h92.181l5.316-93.565s-.994-12.331-6.96-14.719" transform="translate(-31.805 -7.681)" fill="#dd504f"/>
              <path id="Trazado_210897" data-name="Trazado 210897" d="M407.361,86.733c-.339.989-.728,2-1.177,3.008a25.018,25.018,0,0,1-6.9,9.44,19.7,19.7,0,0,1-12.766,4.31c-10.337,0-16.718-6.057-20.25-11.137a37.326,37.326,0,0,1-3.136-5.494l.64-.333a36.594,36.594,0,0,0,3.1,5.434c5,7.172,11.6,10.809,19.647,10.809,8.684,0,15.081-4.483,19.009-13.321.455-1.021.847-2.044,1.185-3.044.217.108.432.217.651.327" transform="translate(-34.648 -8.244)" fill="#a73034"/>
              <path id="Trazado_210898" data-name="Trazado 210898" d="M402.533,83.433c-1.245,5.357-5.96,13.505-16.375,13.505-11.432,0-15.728-9.251-17.194-13.4,3.071-1.612,5.269-2.779,5.687-3l.071-.038.755.169q1.418.319,2.846.545,1.412.229,2.831.367A47.137,47.137,0,0,0,396.775,80.5l.025-.005s2.322,1.2,5.733,2.934" transform="translate(-35.204 -7.681)" fill="#fcf6f0"/>
              <path id="Trazado_210899" data-name="Trazado 210899" d="M397.793,81.7s-1.938,6.093-10.847,6.093c-10.39,0-12.835-5.54-12.835-5.54a45.039,45.039,0,0,0,1.941-6.589h0a35.522,35.522,0,0,0,.831-8.226l18.254-.724c.168,1.546.443,3.366.754,5.2.825,4.861,1.9,9.789,1.9,9.789" transform="translate(-35.695 -6.366)" fill="#ecb6a0"/>
              <path id="Trazado_210900" data-name="Trazado 210900" d="M396.1,71.913c-2.828,1.967-9.011,4.895-19.838,3.753a35.507,35.507,0,0,0,.83-8.226l18.254-.723c.169,1.545.443,3.365.754,5.2" transform="translate(-35.9 -6.366)" fill="#3b2539"/>
              <path id="Trazado_210901" data-name="Trazado 210901" d="M368.291,40.717s-5.649-7.689-10.043-3.138,4.08,20.4,11.769,16.947Z" transform="translate(-34.067 -3.448)" fill="#ecb6a0"/>
              <path id="Trazado_210902" data-name="Trazado 210902" d="M365.91,50.223a.391.391,0,0,1-.386-.337,14.466,14.466,0,0,0-5.031-8.653.391.391,0,1,1,.472-.622,15.044,15.044,0,0,1,5.333,9.168.391.391,0,0,1-.333.441.365.365,0,0,1-.054,0" transform="translate(-34.381 -3.867)" fill="#e48888"/>
              <path id="Trazado_210903" data-name="Trazado 210903" d="M364.81,46.808a.392.392,0,0,1-.324-.172c-.567-.839-2.262-.924-2.866-.886a.39.39,0,0,1-.049-.779c.108-.006,2.631-.147,3.561,1.228a.39.39,0,0,1-.323.609" transform="translate(-34.464 -4.29)" fill="#e48888"/>
              <path id="Trazado_210904" data-name="Trazado 210904" d="M407.338,40.717s5.649-7.689,10.043-3.138-4.08,20.4-11.769,16.947Z" transform="translate(-38.701 -3.448)" fill="#ecb6a0"/>
              <path id="Trazado_210905" data-name="Trazado 210905" d="M410.458,50.223a.365.365,0,0,1-.054,0,.391.391,0,0,1-.333-.441,15.035,15.035,0,0,1,5.333-9.168.391.391,0,0,1,.472.622,14.5,14.5,0,0,0-5.031,8.653.39.39,0,0,1-.386.337" transform="translate(-39.126 -3.867)" fill="#e48888"/>
              <path id="Trazado_210906" data-name="Trazado 210906" d="M411.765,46.808a.39.39,0,0,1-.323-.609c.931-1.376,3.454-1.235,3.561-1.228a.39.39,0,0,1-.048.779c-.607-.036-2.3.052-2.868.886a.39.39,0,0,1-.323.172" transform="translate(-39.251 -4.29)" fill="#e48888"/>
              <path id="Trazado_210907" data-name="Trazado 210907" d="M389.9,14.842c-16.1-.007-26.1,8.336-24.3,27.486,1.073,11.43,6.953,25.572,20.514,25.891,14.134.332,19.806-15.058,21.825-26.734,1.847-10.688-3.589-22.533-13.894-25.912a22.493,22.493,0,0,0-4.143-.731" transform="translate(-34.863 -1.416)" fill="#ecb6a0"/>
              <path id="Trazado_210908" data-name="Trazado 210908" d="M365.213,37.416s-1.872-18.153-1.928-22.176C363.151,5.457,373.022-.031,387.51,0c11.683.024,13.123,5.14,14.064,9.281,0,0,8.638.222,9.956,6.244s-4.165,24.21-4.165,24.21a59.77,59.77,0,0,1-3.156-10.209c-1.317-6.024-3.031-9.709-6.8-9.785a24.026,24.026,0,0,0-13.552,3.124c-5.082,3.011-10.164,3.388-13.74.753,0,0-.955,9.091-4.908,13.8" transform="translate(-34.662 0)" fill="#3b2539"/>
              <g id="Grupo_983713" data-name="Grupo 983713" transform="translate(333.306 42.518)" opacity="0.5">
                <g id="Grupo_983712" data-name="Grupo 983712">
                  <g id="Grupo_983711" data-name="Grupo 983711" clip-path="url(#clip-path-10)">
                    <path id="Trazado_210909" data-name="Trazado 210909" d="M379.726,49.476c0,1.366-2.522,2.473-5.632,2.473s-5.632-1.107-5.632-2.473S370.983,47,374.094,47s5.632,1.107,5.632,2.473" transform="translate(-368.462 -47.003)" fill="#e48888"/>
                  </g>
                </g>
              </g>
              <g id="Grupo_983716" data-name="Grupo 983716" transform="translate(359.804 42.518)" opacity="0.5">
                <g id="Grupo_983715" data-name="Grupo 983715">
                  <g id="Grupo_983714" data-name="Grupo 983714" clip-path="url(#clip-path-10)">
                    <path id="Trazado_210910" data-name="Trazado 210910" d="M409.019,49.476c0,1.366-2.522,2.473-5.632,2.473s-5.632-1.107-5.632-2.473S400.276,47,403.387,47s5.632,1.107,5.632,2.473" transform="translate(-397.755 -47.003)" fill="#e48888"/>
                  </g>
                </g>
              </g>
              <path id="Trazado_210911" data-name="Trazado 210911" d="M389.278,53.965a5.634,5.634,0,0,1-2.219-.527.557.557,0,0,1-.33-.583l1.13-8.678a.557.557,0,0,1,1.1.144l-1.075,8.25a2.8,2.8,0,0,0,2.67-.106.557.557,0,1,1,.622.924,3.322,3.322,0,0,1-1.9.577" transform="translate(-36.899 -4.169)" fill="#e48888"/>
              <path id="Trazado_210912" data-name="Trazado 210912" d="M387.779,62.088a12.871,12.871,0,0,1-5.652-1.34.557.557,0,1,1,.543-.972c.27.149,6.435,3.471,11.771-1.465a.557.557,0,1,1,.756.818,10.654,10.654,0,0,1-7.419,2.96" transform="translate(-36.433 -5.55)" fill="#e48888"/>
              <path id="Trazado_210913" data-name="Trazado 210913" d="M389.116,65.843a8.606,8.606,0,0,1-2.34-.329.557.557,0,0,1,.331-1.064,6.23,6.23,0,0,0,4.232-.229.557.557,0,1,1,.548.97,5.633,5.633,0,0,1-2.771.652" transform="translate(-36.866 -6.121)" fill="#e48888"/>
              <path id="Trazado_210914" data-name="Trazado 210914" d="M376.18,38.167a15.063,15.063,0,0,1,4.651-1.688,1.453,1.453,0,0,0,1.177-1.923l-.062-.175a1.446,1.446,0,0,0-1.514-.953,10.2,10.2,0,0,0-5.964,2.442,1.449,1.449,0,0,0,1.712,2.3" transform="translate(-35.689 -3.189)" fill="#3b2539"/>
              <path id="Trazado_210915" data-name="Trazado 210915" d="M401.258,38.167a15.08,15.08,0,0,0-4.651-1.688,1.454,1.454,0,0,1-1.178-1.923l.063-.175a1.446,1.446,0,0,1,1.513-.953,10.205,10.205,0,0,1,5.965,2.442,1.449,1.449,0,0,1-1.712,2.3" transform="translate(-37.721 -3.189)" fill="#3b2539"/>
              <path id="Trazado_210916" data-name="Trazado 210916" d="M381.077,43.084c.026,1.509-.53,2.742-1.243,2.754s-1.311-1.2-1.337-2.71.53-2.741,1.242-2.754,1.312,1.2,1.338,2.709" transform="translate(-36.114 -3.852)" fill="#3b2539"/>
              <path id="Trazado_210917" data-name="Trazado 210917" d="M396.256,43.084c-.026,1.509.53,2.742,1.243,2.754s1.311-1.2,1.337-2.71-.53-2.741-1.242-2.754-1.312,1.2-1.338,2.709" transform="translate(-37.808 -3.852)" fill="#3b2539"/>
              <path id="Trazado_210918" data-name="Trazado 210918" d="M354.527,89.164s-10.177-2.1-19.484,1.1l-19.484,3.578,1.451,33.872s22.864,1.089,32.3-4.476c2.751-1.622,5.217-34.073,5.217-34.073" transform="translate(-30.109 -8.443)" fill="#dd504f"/>
              <path id="Trazado_210919" data-name="Trazado 210919" d="M426.123,93.791s11.039,1.887,19.749,8.783,21.412,28.67,21.412,28.67L436.2,149.027Z" transform="translate(-40.658 -8.949)" fill="#dd504f"/>
              <path id="Trazado_210920" data-name="Trazado 210920" d="M465.472,137.073s20.686,26.906,21.819,36.249-40.753,52.79-40.753,52.79l-8.283-12.243,21.981-40.54-18.851-22.474Z" transform="translate(-41.815 -13.079)" fill="#ecb6a0"/>
              <path id="Trazado_210921" data-name="Trazado 210921" d="M411.912,227.878a56.345,56.345,0,0,1,5.934-2.969c.016-.034.027-.073.045-.107l.319-.052.026-.012,0,.007,17.2-2.776s11.636,8.379,8.283,12.243c-3.037,3.5-15.129,7.94-17.381,8.745h0l-.361.128-.007-.01-4.329,1.384s-2.107,4.752-3.948,4.562,0-6.408,1.99-7.643a38.677,38.677,0,0,1,3.742-1.944l-.146-.22-4.09,1.307s-2.4,5.409-4.493,5.192,0-7.293,2.264-8.7a40.6,40.6,0,0,1,3.762-1.978c-.04-.071-.081-.141-.12-.213l-3.966,1.268s-2.4,5.409-4.493,5.192,0-7.294,2.264-8.7a42.99,42.99,0,0,1,4.084-2.13q-.081-.209-.157-.413l-4.2,1.342s-2.4,5.409-4.493,5.193,0-7.294,2.264-8.7" transform="translate(-39.004 -21.179)" fill="#ecb6a0"/>
              <path id="Trazado_210922" data-name="Trazado 210922" d="M316.128,172.882l-4.422-16L301.6,162.5Z" transform="translate(-28.777 -14.968)" fill="#d55b5d"/>
              <path id="Trazado_210923" data-name="Trazado 210923" d="M270.524,66.4c2.861,6.793.782,10.071-2.285,12.923l-.091.085c-6.368,5.9-7.4,0-14.636,4.725s-12.565,3.515-22.463,3.544-8.858-5.888-16.036-3.544-10.272-.3-13.581-4.725c-3.1-4.141.1-12.808.516-13.913.007-.022.014-.037.022-.059.015-.037.023-.052.023-.052,1.436-3.316,2-7.517,3.663-14.636.236-1.01.494-2.086.781-3.228.318-1.253.663-2.58,1.054-3.995.229-.825.472-1.621.723-2.4a28.028,28.028,0,0,1,52.884,0c.251.774.486,1.57.715,2.4.39,1.415.744,2.742,1.054,3.995.295,1.142.553,2.218.788,3.228,2.211,9.454,4.965,11.123,6.873,15.652" transform="translate(-19.091 -2.135)" fill="#4f1e4a"/>
              <path id="Trazado_210924" data-name="Trazado 210924" d="M286.932,119.186c-2.1-7.018-6.443-9.955-12.064-11.4-2.72-.7-9.58-2.7-15.933-4.574-6.77-2-12.965-3.859-12.965-3.859l-10.305-.824-.064,0-.066,0-11.421.913s-6.9,2.149-13.977,4.3c-2.028.617-4.072,1.233-5.969,1.8-3.349,1-6.252,1.838-7.838,2.247-5.621,1.442-9.962,4.379-12.064,11.4s.894,50.344.894,50.344l4.354,46.53h89.135l4.464-46.53h2.461s3.461-43.326,1.36-50.344" transform="translate(-17.51 -9.401)" fill="#684868"/>
              <path id="Trazado_210925" data-name="Trazado 210925" d="M241.158,98.521v.01l-.064,0Z" transform="translate(-23.004 -9.4)" fill="#5848bc"/>
              <path id="Trazado_210926" data-name="Trazado 210926" d="M241.087,98.527l-.066,0v-.009Z" transform="translate(-22.997 -9.4)" fill="#5848bc"/>
              <path id="Trazado_210927" data-name="Trazado 210927" d="M250.065,101.4s-2.843,5.32-10.79,5.32a12.73,12.73,0,0,1-10.911-5.585l.47-3.826.079-.643.738-6.025,19,.53.317,2.291.1.751Z" transform="translate(-21.789 -8.649)" fill="#e38680"/>
              <path id="Trazado_210928" data-name="Trazado 210928" d="M256.618,110.481c-4.727,6.086-14.981,2.811-18.312-1.641-3.332,4.451-13.586,7.727-18.315,1.641-4.553-5.859,7.782-10.965,7.782-10.965,1.26,5.675,8.181,7.5,10.533,7.934,2.353-.441,9.226-2.259,10.485-7.934,0,0,12.38,5.106,7.827,10.965" transform="translate(-20.894 -9.495)" fill="#f2edfd"/>
              <path id="Trazado_210929" data-name="Trazado 210929" d="M249.014,93.465c-4.3,3.648-11.266,5.036-20.13,3.847l.08-.643.737-6.025,19,.529Z" transform="translate(-21.839 -8.649)" fill="#3b2539"/>
              <path id="Trazado_210930" data-name="Trazado 210930" d="M220.55,72.04c-4.249,5.931-13.4,1.923-12.775-5.949.565-7.142,8.541-6.009,8.541-6.009Z" transform="translate(-19.822 -5.726)" fill="#d55b5d"/>
              <path id="Trazado_210931" data-name="Trazado 210931" d="M216.466,76.437a2.64,2.64,0,1,1-2.64-2.64,2.639,2.639,0,0,1,2.64,2.64" transform="translate(-20.15 -7.041)" fill="#eaa940"/>
              <path id="Trazado_210932" data-name="Trazado 210932" d="M217.038,72.632a.567.567,0,0,1-.55-.432c-.829-3.379-4.337-6.534-4.373-6.565a.567.567,0,1,1,.754-.847c.155.137,3.806,3.417,4.72,7.143a.567.567,0,0,1-.415.686.585.585,0,0,1-.136.016" transform="translate(-20.221 -6.168)" fill="#b33a41"/>
              <path id="Trazado_210933" data-name="Trazado 210933" d="M215.546,69.772a.569.569,0,0,1-.18-.03,6.42,6.42,0,0,0-3.052-.2.567.567,0,0,1-.247-1.106,7.451,7.451,0,0,1,3.659.232.567.567,0,0,1-.18,1.1" transform="translate(-20.192 -6.517)" fill="#b33a41"/>
              <path id="Trazado_210934" data-name="Trazado 210934" d="M256.682,72.04c4.249,5.931,13.4,1.923,12.775-5.949-.565-7.142-8.541-6.009-8.541-6.009Z" transform="translate(-24.491 -5.726)" fill="#d55b5d"/>
              <path id="Trazado_210935" data-name="Trazado 210935" d="M267.1,76.437a2.64,2.64,0,1,1-2.64-2.64,2.639,2.639,0,0,1,2.64,2.64" transform="translate(-24.981 -7.041)" fill="#eaa940"/>
              <path id="Trazado_210936" data-name="Trazado 210936" d="M260.946,72.632a.586.586,0,0,1-.136-.016.567.567,0,0,1-.415-.686c.914-3.726,4.565-7.005,4.72-7.143a.567.567,0,1,1,.754.847c-.035.032-3.544,3.187-4.373,6.565a.567.567,0,0,1-.55.432" transform="translate(-24.844 -6.168)" fill="#b33a41"/>
              <path id="Trazado_210937" data-name="Trazado 210937" d="M262.563,69.772a.567.567,0,0,1-.18-1.1,7.451,7.451,0,0,1,3.659-.232.567.567,0,1,1-.247,1.106,6.421,6.421,0,0,0-3.052.2.569.569,0,0,1-.18.03" transform="translate(-24.998 -6.517)" fill="#b33a41"/>
              <path id="Trazado_210938" data-name="Trazado 210938" d="M215.308,48.442s-2.076,12.87,3.3,25.455c4.876,11.408,11.36,14.964,18.261,15.071,7.849.124,24.282-4.415,21.681-41.654-1.757-25.162-41.168-24.274-43.245,1.128" transform="translate(-20.506 -2.758)" fill="#e38680"/>
              <path id="Trazado_210939" data-name="Trazado 210939" d="M214.106,53.927s.412,7.971,3.719,7.671,1.7-18.255,1.7-18.255a9.564,9.564,0,0,0,8.325,3.874c5.378-.472.5-7.466.5-7.466s4.963,6.9,9.5,6.615,0-8.789,0-8.789,5.93,9.639,10.2,9.356.653-8.316.653-8.316,3.4,8.885,6.637,9.544c0,0-.815,13.088,2.651,12.538s2.185-15.183.759-19.625S249.69,25.481,234.986,26.9s-20.617,9.545-20.88,27.028" transform="translate(-20.429 -2.555)" fill="#4f1e4a"/>
              <path id="Trazado_210940" data-name="Trazado 210940" d="M223.452,57.209a12.576,12.576,0,0,1,8.188-4.725,1.5,1.5,0,0,1,1.635,1.4V53.9a1.5,1.5,0,0,1-1.482,1.589,20.978,20.978,0,0,0-8.343,1.719" transform="translate(-21.32 -5.007)" fill="#4f1e4a"/>
              <path id="Trazado_210941" data-name="Trazado 210941" d="M254.548,57.209a12.573,12.573,0,0,0-8.188-4.725,1.493,1.493,0,0,0-1.635,1.4V53.9A1.5,1.5,0,0,0,246.2,55.49a20.978,20.978,0,0,1,8.343,1.719" transform="translate(-23.35 -5.007)" fill="#4f1e4a"/>
              <path id="Trazado_210942" data-name="Trazado 210942" d="M239.922,87.728a7.856,7.856,0,0,1-2.979-.6.472.472,0,0,1,.39-.86c.041.018,2.951,1.288,5.284-.247a.472.472,0,0,1,.519.789,5.758,5.758,0,0,1-3.214.922" transform="translate(-22.581 -8.2)" fill="#d55b5d"/>
              <path id="Trazado_210943" data-name="Trazado 210943" d="M241.7,73.519l-.038,0-3.456-.278a.473.473,0,0,1,.076-.943l2.889.233-.9-8.784a.472.472,0,1,1,.94-.1l.96,9.348a.473.473,0,0,1-.47.521" transform="translate(-22.687 -6.033)" fill="#d55b5d"/>
              <path id="Trazado_210944" data-name="Trazado 210944" d="M232.069,78.749a38.491,38.491,0,0,0,14.368-.2,6.963,6.963,0,0,1-7.375,6.215c-5.845.024-6.992-6.013-6.992-6.013" transform="translate(-22.143 -7.494)" fill="#f2edfd"/>
              <path id="Trazado_210945" data-name="Trazado 210945" d="M231.341,63.435c0,1.638-.744,2.967-1.664,2.967s-1.664-1.329-1.664-2.967.745-2.967,1.664-2.967,1.664,1.329,1.664,2.967" transform="translate(-21.756 -5.769)" fill="#3b2539"/>
              <path id="Trazado_210946" data-name="Trazado 210946" d="M250.9,63.435c0,1.638-.744,2.967-1.664,2.967s-1.664-1.329-1.664-2.967.745-2.967,1.664-2.967S250.9,61.8,250.9,63.435" transform="translate(-23.622 -5.769)" fill="#3b2539"/>
              <path id="Trazado_210947" data-name="Trazado 210947" d="M224.863,70.421a.51.51,0,1,1-.51-.51.51.51,0,0,1,.51.51" transform="translate(-21.358 -6.67)" fill="#d55b5d"/>
              <path id="Trazado_210948" data-name="Trazado 210948" d="M227.617,71.782a.51.51,0,1,1-.51-.51.51.51,0,0,1,.51.51" transform="translate(-21.62 -6.8)" fill="#d55b5d"/>
              <path id="Trazado_210949" data-name="Trazado 210949" d="M224.863,73.743a.51.51,0,1,1-.51-.51.51.51,0,0,1,.51.51" transform="translate(-21.358 -6.987)" fill="#d55b5d"/>
              <path id="Trazado_210950" data-name="Trazado 210950" d="M229.192,74.307a.51.51,0,1,1-.51-.51.51.51,0,0,1,.51.51" transform="translate(-21.771 -7.041)" fill="#d55b5d"/>
              <path id="Trazado_210951" data-name="Trazado 210951" d="M232.078,73.743a.511.511,0,1,1-.511-.51.512.512,0,0,1,.511.51" transform="translate(-22.046 -6.987)" fill="#d55b5d"/>
              <path id="Trazado_210952" data-name="Trazado 210952" d="M230.766,70.985a.511.511,0,1,1-.511-.51.51.51,0,0,1,.511.51" transform="translate(-21.921 -6.724)" fill="#d55b5d"/>
              <path id="Trazado_210953" data-name="Trazado 210953" d="M255.4,70.421a.51.51,0,1,0,.51-.51.511.511,0,0,0-.51.51" transform="translate(-24.368 -6.67)" fill="#d55b5d"/>
              <path id="Trazado_210954" data-name="Trazado 210954" d="M252.644,71.782a.51.51,0,1,0,.51-.51.511.511,0,0,0-.51.51" transform="translate(-24.106 -6.8)" fill="#d55b5d"/>
              <path id="Trazado_210955" data-name="Trazado 210955" d="M255.4,73.743a.51.51,0,1,0,.51-.51.511.511,0,0,0-.51.51" transform="translate(-24.368 -6.987)" fill="#d55b5d"/>
              <path id="Trazado_210956" data-name="Trazado 210956" d="M251.068,74.307a.51.51,0,1,0,.51-.51.51.51,0,0,0-.51.51" transform="translate(-23.955 -7.041)" fill="#d55b5d"/>
              <path id="Trazado_210957" data-name="Trazado 210957" d="M248.183,73.743a.51.51,0,1,0,.51-.51.51.51,0,0,0-.51.51" transform="translate(-23.68 -6.987)" fill="#d55b5d"/>
              <path id="Trazado_210958" data-name="Trazado 210958" d="M249.495,70.985a.51.51,0,1,0,.51-.51.51.51,0,0,0-.51.51" transform="translate(-23.805 -6.724)" fill="#d55b5d"/>
              <path id="Trazado_210959" data-name="Trazado 210959" d="M228.238,72.734a8.333,8.333,0,1,1,8.333-8.333,8.343,8.343,0,0,1-8.333,8.333m0-15.91a7.577,7.577,0,1,0,7.577,7.577,7.586,7.586,0,0,0-7.577-7.577" transform="translate(-20.982 -5.35)" fill="#f2edfd"/>
              <path id="Trazado_210960" data-name="Trazado 210960" d="M250.415,72.734a8.333,8.333,0,1,1,8.333-8.333,8.343,8.343,0,0,1-8.333,8.333m0-15.91a7.577,7.577,0,1,0,7.577,7.577,7.585,7.585,0,0,0-7.577-7.577" transform="translate(-23.098 -5.35)" fill="#f2edfd"/>
              <path id="Trazado_210961" data-name="Trazado 210961" d="M259.526,62.407a.378.378,0,0,1-.28-.632,7.326,7.326,0,0,1,6.256-2.161.378.378,0,1,1-.123.746,6.646,6.646,0,0,0-5.574,1.923.374.374,0,0,1-.28.124" transform="translate(-24.726 -5.679)" fill="#f2edfd"/>
              <path id="Trazado_210962" data-name="Trazado 210962" d="M220.123,62.227a.375.375,0,0,1-.271-.115c-.043-.043-3.018-3.023-6.695-1.792a.378.378,0,0,1-.24-.717c4.143-1.387,7.343,1.844,7.477,1.983a.378.378,0,0,1-.271.641" transform="translate(-20.291 -5.654)" fill="#f2edfd"/>
              <path id="Trazado_210963" data-name="Trazado 210963" d="M237.871,64.192h-.024a.378.378,0,0,1-.353-.4,2.528,2.528,0,0,1,4.906,0,.378.378,0,0,1-.754.049c-.011-.12-.146-1.208-1.7-1.208-1.6,0-1.7,1.159-1.7,1.208a.379.379,0,0,1-.377.354" transform="translate(-22.66 -5.904)" fill="#f2edfd"/>
              <path id="Trazado_210964" data-name="Trazado 210964" d="M189.7,110.694s-4.008-.676-11.9,8.786-15.16,35.993-15.16,35.993l22.266,8.686a96.926,96.926,0,0,0,9-26.738,44.2,44.2,0,0,0-4.2-26.727" transform="translate(-15.518 -10.561)" fill="#684868"/>
              <path id="Trazado_210965" data-name="Trazado 210965" d="M285.763,109.3s4.008-.676,11.9,8.786,15.16,35.993,15.16,35.993l-22.266,8.686a96.925,96.925,0,0,1-9-26.738,44.2,44.2,0,0,1,4.2-26.727" transform="translate(-26.81 -10.427)" fill="#684868"/>
              <path id="Trazado_210966" data-name="Trazado 210966" d="M252.734,114.4a47.965,47.965,0,0,1,9.28,2.089l2.243-9.078-.007,0c.1-.5.362-1.531.713-2.853v0c1.175-4.427,3.423-12.149,4.7-14.444,1.66-2.979,3.5-.867,2.977,1.041-.407,1.472-1.948,11.145-2.631,15.488l.181.075c1.029-4.032,3.619-13.167,5.029-15.7,1.66-2.979,3.5-.867,2.977,1.041-.456,1.648-2.333,13.573-2.836,16.793l.137.057c1.143-4.349,3.488-12.468,4.8-14.83,1.66-2.979,3.5-.867,2.977,1.041-.347,1.259-1.527,8.524-2.288,13.317A66.017,66.017,0,0,1,285.1,99c1.735-2.6,3.266-.534,2.643,1.171-.425,1.168-2.144,8.177-3.184,12.479l-2.6,12.469,3.778,7.137-15.185,6.949-3.957-8.292-5.894-7.39c-2.573-1.793-6.114-4.2-7.8-5.051-2.818-1.427-4.48-4.279-.165-4.074" transform="translate(-23.863 -8.456)" fill="#e38680"/>
              <path id="Trazado_210967" data-name="Trazado 210967" d="M282.374,114.766a.428.428,0,0,1-.205-.032l-13.658-5.7a.432.432,0,0,1,.332-.8l13.658,5.7a.432.432,0,0,1-.127.828" transform="translate(-25.594 -10.324)" fill="#d55b5d"/>
              <path id="Trazado_210968" data-name="Trazado 210968" d="M270.472,125.03a.431.431,0,0,1-.444-.28,9.143,9.143,0,0,0-4.882-4.79.432.432,0,0,1,.3-.809,9.858,9.858,0,0,1,5.388,5.3.433.433,0,0,1-.365.58" transform="translate(-25.272 -11.366)" fill="#d55b5d"/>
              <path id="Trazado_210969" data-name="Trazado 210969" d="M272.708,143.7s13.964,30.952,19.838,36.638,10.928,5.475,15.561,4,7.37-8.423,5.265-13.477-26.01-35.117-26.01-35.117-13.626,4.165-14.653,7.955" transform="translate(-26.02 -12.952)" fill="#e38680"/>
              <path id="Trazado_210970" data-name="Trazado 210970" d="M164.354,177.387l4.422-16,10.107,5.624Z" transform="translate(-15.682 -15.398)" fill="#d55b5d"/>
              <path id="Trazado_210971" data-name="Trazado 210971" d="M225.3,118.9a47.959,47.959,0,0,0-9.281,2.089l-2.243-9.078.007,0c-.1-.5-.362-1.531-.713-2.853v0c-1.174-4.427-3.422-12.149-4.7-14.444-1.659-2.979-3.5-.866-2.977,1.041.407,1.472,1.948,11.145,2.631,15.488l-.181.075c-1.029-4.032-3.619-13.167-5.028-15.7-1.661-2.979-3.5-.867-2.977,1.041.454,1.648,2.332,13.573,2.835,16.793l-.138.057c-1.143-4.349-3.487-12.468-4.8-14.83-1.659-2.979-3.5-.866-2.975,1.041.346,1.26,1.526,8.525,2.287,13.317a66.138,66.138,0,0,0-4.108-9.433c-1.736-2.6-3.266-.534-2.644,1.171.425,1.168,2.145,8.177,3.184,12.479l2.6,12.469-3.778,7.137,15.185,6.949,3.956-8.292,5.9-7.39c2.572-1.793,6.113-4.2,7.8-5.051,2.82-1.427,4.48-4.279.166-4.074" transform="translate(-18.142 -8.886)" fill="#e38680"/>
              <path id="Trazado_210972" data-name="Trazado 210972" d="M198.11,119.27a.418.418,0,0,0,.205-.032l13.659-5.7a.432.432,0,0,0-.333-.8l-13.658,5.7a.431.431,0,0,0,.127.828" transform="translate(-18.865 -10.754)" fill="#d55b5d"/>
              <path id="Trazado_210973" data-name="Trazado 210973" d="M210.911,129.535a.43.43,0,0,0,.444-.28,9.143,9.143,0,0,1,4.882-4.79.432.432,0,0,0-.3-.809,9.856,9.856,0,0,0-5.389,5.3.433.433,0,0,0,.365.58" transform="translate(-20.086 -11.796)" fill="#d55b5d"/>
              <path id="Trazado_210974" data-name="Trazado 210974" d="M204.942,148.209s-13.965,30.952-19.838,36.638-10.929,5.475-15.562,4-7.369-8.423-5.264-13.477,26.01-35.117,26.01-35.117,13.627,4.165,14.654,7.955" transform="translate(-15.606 -13.382)" fill="#e38680"/>
              <path id="Trazado_210975" data-name="Trazado 210975" d="M187.506,210.375h92.235s9.143,52,8.918,77.263H178.537s1.37-54.139,8.969-77.263" transform="translate(-17.035 -20.073)" fill="#4f1e4a"/>
              <path id="Trazado_210976" data-name="Trazado 210976" d="M27.944,231.8l-2.8,57.3H69.917l3.79-20.635,4.212,3.579L80.445,289.1h44.512l-3.242-57.3Z" transform="translate(-2.399 -22.117)" fill="#352c38"/>
              <path id="Trazado_210977" data-name="Trazado 210977" d="M8.056,148.272l-5.252,26H23.016l2.8-16.53Z" transform="translate(-0.268 -14.147)" fill="#ffac9d"/>
              <path id="Trazado_210978" data-name="Trazado 210978" d="M144.355,152.487l11.223,5.631,18.537-15.384-16.756-13.187Z" transform="translate(-13.773 -12.361)" fill="#ffac9d"/>
              <path id="Trazado_210979" data-name="Trazado 210979" d="M69.682,80.144s-9.941,6.267-4.538,15.777,42.791,6.916,23.556-15.777c-15.888-18.745-19.018,0-19.018,0" transform="translate(-6.062 -6.852)" fill="#76413b"/>
              <path id="Trazado_210980" data-name="Trazado 210980" d="M107.362,54.2s-4.322,5.187-3.458,10.374c1.245,7.464-10.157,17.289-21.828,14.047s.865-25.07.865-25.07Z" transform="translate(-7.357 -5.109)" fill="#76413b"/>
              <path id="Trazado_210981" data-name="Trazado 210981" d="M50.262,54.2s4.322,5.187,3.457,10.374c-1.245,7.464,10.158,17.289,21.829,14.047s-.866-25.07-.866-25.07Z" transform="translate(-4.796 -5.109)" fill="#76413b"/>
              <path id="Trazado_210982" data-name="Trazado 210982" d="M82.487,70.522a32.914,32.914,0,0,0,15.561-3.358,16.621,16.621,0,0,0,5.822-5.129,17.208,17.208,0,0,1,3.5-7.839l-24.421-.648s-5.314,9.26-5.8,16.614a52.064,52.064,0,0,0,5.34.36" transform="translate(-7.361 -5.109)" fill="#965450"/>
              <path id="Trazado_210983" data-name="Trazado 210983" d="M53.816,63.664a58.6,58.6,0,0,0,26.105,6.858c.193,0,.384-.006.577-.006-.329-7.407-5.816-16.968-5.816-16.968L50.262,54.2s3.829,4.6,3.554,9.468" transform="translate(-4.796 -5.109)" fill="#965450"/>
              <path id="Trazado_210984" data-name="Trazado 210984" d="M88.277,91.131c-5.5-3-4-17.5-4-17.5l-8.236.53v-.528l-.881.264-.882-.264v.528l-8.235-.53s1.5,14.5-4,17.5-39.293,4.5-35.793,38h97.819c3.5-33.5-30.294-35-35.793-38" transform="translate(-2.48 -7.026)" fill="#ffac9d"/>
              <path id="Trazado_210985" data-name="Trazado 210985" d="M68.99,87.391q9.869-1.471,19.723-3.035a43.927,43.927,0,0,1-.333-10.724l-8.236.53v-.528l-.882.264-.881-.264v.528l-8.235-.53s.867,8.424-1.155,13.759" transform="translate(-6.583 -7.026)" fill="#cc887f"/>
              <path id="Trazado_210986" data-name="Trazado 210986" d="M99.38,95.829c-4.814,4.362-11.918,7.384-20.028,8.165l-4.369,15.727-2.311-15.6c-8.787-.508-16.528-3.637-21.662-8.29-11.419,3.659-28.1,11.592-25.612,35.415h99.595c2.489-23.823-14.192-31.756-25.612-35.415" transform="translate(-2.399 -9.143)" fill="#4f1e4a"/>
              <path id="Trazado_210987" data-name="Trazado 210987" d="M75.355,108.119l-.593-4c-8.788-.508-16.528-3.637-21.662-8.29a58.085,58.085,0,0,0-6.058,2.3c4.05,5.5,15.074,9.556,28.313,9.993" transform="translate(-4.488 -9.143)" fill="#684868"/>
              <path id="Trazado_210988" data-name="Trazado 210988" d="M111.706,98.43a56.653,56.653,0,0,0-6.729-2.6c-4.814,4.362-11.918,7.384-20.028,8.165l-1.143,4.119c12.913-.46,23.695-4.358,27.9-9.683" transform="translate(-7.996 -9.143)" fill="#684868"/>
              <path id="Trazado_210989" data-name="Trazado 210989" d="M79.146,126.247a1.816,1.816,0,1,0,1.815-1.816,1.816,1.816,0,0,0-1.815,1.816" transform="translate(-7.552 -11.872)" fill="#684868"/>
              <path id="Trazado_210990" data-name="Trazado 210990" d="M61.536,49.753c-1.62-5.027-5.457-3.863-5.816-3.741-.376.043-4.343.632-3.657,5.87.689,5.267,3.746,8.123,6.612,7.285,2.95-.469,4.492-4.356,2.862-9.413" transform="translate(-4.96 -4.371)" fill="#cc887f"/>
              <path id="Trazado_210991" data-name="Trazado 210991" d="M98.24,49.753c1.62-5.027,5.457-3.863,5.816-3.741.376.043,4.343.632,3.657,5.87-.689,5.267-3.746,8.123-6.612,7.285-2.95-.469-4.492-4.356-2.862-9.413" transform="translate(-9.31 -4.371)" fill="#cc887f"/>
              <path id="Trazado_210992" data-name="Trazado 210992" d="M58.17,39.566c2.008-22.038,18.762-20.8,20.341-20.637,1.58-.166,18.334-1.4,20.342,20.637C100.874,61.735,91,76.214,78.512,75.418c-12.487.8-22.361-13.683-20.341-35.851" transform="translate(-5.525 -1.8)" fill="#ffac9d"/>
              <path id="Trazado_210993" data-name="Trazado 210993" d="M60.192,51.871a51.727,51.727,0,0,1-.82-6.655c-.864-14.912-1.945.432-1.945.432a58.662,58.662,0,0,0,.337,7.474c.811-.412,1.619-.831,2.428-1.251" transform="translate(-5.478 -3.692)" fill="#76413b"/>
              <path id="Trazado_210994" data-name="Trazado 210994" d="M103.734,52.612a59.665,59.665,0,0,0-.02-7.927l-2.161-.216s-.193,3.138-.7,7.1q1.442.513,2.878,1.043" transform="translate(-9.623 -4.243)" fill="#76413b"/>
              <path id="Trazado_210995" data-name="Trazado 210995" d="M83.619,44.607A36.863,36.863,0,0,1,85,50.707c.141,1.027.289,2.053.373,3.086.107,1.031.167,2.066.207,3.1l.015.4-.273.161c-.668.394-1.35.769-2.04,1.132s-1.394.706-2.131,1c.54-.582,1.122-1.1,1.7-1.627s1.182-1.014,1.791-1.5l-.258.562c-.187-1.022-.355-2.045-.476-3.075-.144-1.026-.224-2.059-.311-3.092a36.765,36.765,0,0,1,.017-6.255" transform="translate(-7.743 -4.256)" fill="#cc887f"/>
              <path id="Trazado_210996" data-name="Trazado 210996" d="M97.044,42.359c-1.043-.431-1.953-.823-2.827-1.14a9.859,9.859,0,0,0-2.474-.594,5.922,5.922,0,0,0-2.4.246,12.43,12.43,0,0,0-1.329.448c-.469.177-.91.431-1.479.6a6.264,6.264,0,0,1,.713-1.526,5.283,5.283,0,0,1,1.215-1.232,4.964,4.964,0,0,1,3.5-.972,5.9,5.9,0,0,1,3.248,1.389,5.621,5.621,0,0,1,1.836,2.778" transform="translate(-8.257 -3.642)" fill="#352c38"/>
              <path id="Trazado_210997" data-name="Trazado 210997" d="M73.973,42.359c-1.043-.431-1.953-.823-2.827-1.14a9.859,9.859,0,0,0-2.474-.594,5.916,5.916,0,0,0-2.4.246,12.374,12.374,0,0,0-1.33.448c-.469.177-.91.431-1.479.6a6.264,6.264,0,0,1,.713-1.526,5.283,5.283,0,0,1,1.215-1.232,4.964,4.964,0,0,1,3.5-.972,5.892,5.892,0,0,1,3.248,1.389,5.621,5.621,0,0,1,1.836,2.778" transform="translate(-6.055 -3.642)" fill="#352c38"/>
              <path id="Trazado_210998" data-name="Trazado 210998" d="M73.63,51.157A7.067,7.067,0,0,0,72.3,48.724a2.835,2.835,0,0,0-2.175-.964,2.5,2.5,0,0,0-2.151.859,5.639,5.639,0,0,0-1,2.537,3.936,3.936,0,0,1,.3-3.012,2.918,2.918,0,0,1,1.237-1.152,3.931,3.931,0,0,1,1.635-.311,3.347,3.347,0,0,1,2.817,1.534,4.469,4.469,0,0,1,.66,2.942" transform="translate(-6.375 -4.454)" fill="#352c38"/>
              <path id="Trazado_210999" data-name="Trazado 210999" d="M94.362,50.823a7.067,7.067,0,0,0-1.328-2.432,2.837,2.837,0,0,0-2.175-.964,2.5,2.5,0,0,0-2.151.859,5.635,5.635,0,0,0-1,2.537,3.936,3.936,0,0,1,.3-3.012,2.912,2.912,0,0,1,1.237-1.152,3.931,3.931,0,0,1,1.635-.311A3.347,3.347,0,0,1,93.7,47.881a4.469,4.469,0,0,1,.66,2.942" transform="translate(-8.353 -4.422)" fill="#352c38"/>
              <path id="Trazado_211000" data-name="Trazado 211000" d="M88.455,65.546c-3.989,3.877-10.746,3.663-15.863.207" transform="translate(-6.926 -6.254)" fill="#fff"/>
              <path id="Trazado_211001" data-name="Trazado 211001" d="M77.68,21.268s-12.1-2.161-14.047,5.4.864,17.722-8,16.208c0,0-6.425,1.3-2.318,11.454,0,0-12.161-11.67-5.029-20.1,5.818-6.876,3.458-21.828,17.722-24.2s11.67,8.428,11.67,11.238" transform="translate(-4.393 -0.925)" fill="#76413b"/>
              <path id="Trazado_211002" data-name="Trazado 211002" d="M77.68,21.268s-12.1-2.161-14.047,5.4.864,17.722-8,16.208c0,0-6.425,1.3-2.318,11.454,0,0-12.161-11.67-5.029-20.1,5.818-6.876,3.458-21.828,17.722-24.2s11.67,8.428,11.67,11.238" transform="translate(-4.393 -0.925)" fill="#965450"/>
              <path id="Trazado_211003" data-name="Trazado 211003" d="M79.779,21.268s12.1-2.161,14.047,5.4-.864,17.722,8,16.208c0,0,6.425,1.3,2.318,11.454,0,0,12.161-11.67,5.029-20.1-5.818-6.876-3.458-21.828-17.722-24.2s-11.67,8.428-11.67,11.238" transform="translate(-7.594 -0.925)" fill="#965450"/>
              <path id="Trazado_211004" data-name="Trazado 211004" d="M79.559,20.131a27.18,27.18,0,0,1,4.972.383A18.2,18.2,0,0,1,89.354,22,9.525,9.525,0,0,1,93.4,25.416a7.681,7.681,0,0,1,1.007,2.546,16.965,16.965,0,0,1,.272,2.5c.179,3.268-.3,6.434-.141,9.48a6.134,6.134,0,0,0,1.351,4,5.455,5.455,0,0,0,4.1,1.184l.043,0,.01,0a6.388,6.388,0,0,1,1.418.406,5.014,5.014,0,0,1,1.261.737,3.1,3.1,0,0,1,.888,1.144,2.947,2.947,0,0,1,.227,1.4,2.743,2.743,0,0,0-1.3-2.291,5.469,5.469,0,0,0-2.55-.779h.052a9.5,9.5,0,0,1-2.467-.005A4.766,4.766,0,0,1,95.2,44.7a5.019,5.019,0,0,1-1.47-2.174,11.242,11.242,0,0,1-.565-2.451c-.376-3.263-.14-6.432-.435-9.475a15.234,15.234,0,0,0-.339-2.192,5.529,5.529,0,0,0-.809-1.8,7.692,7.692,0,0,0-3.216-2.492,17.206,17.206,0,0,0-4.239-1.2,24.9,24.9,0,0,0-4.471-.329Z" transform="translate(-7.591 -1.92)" fill="#965450"/>
              <path id="Trazado_211005" data-name="Trazado 211005" d="M25.4,134.737l-.25,104.14,98.984.622.861-104.762s-95.39-5.188-99.6,0" transform="translate(-2.399 -12.636)" fill="#4f1e4a"/>
              <path id="Trazado_211006" data-name="Trazado 211006" d="M119.964,101.422a38.562,38.562,0,0,1,13.325,4.534c11.989,6.419,23.993,20.908,23.993,20.908L142.611,152.3l-8.321-2.083Z" transform="translate(-11.446 -9.677)" fill="#684868"/>
              <path id="Trazado_211007" data-name="Trazado 211007" d="M145.439,84.879l10.242,68.977s15.906,1.458,20.9-11.485-15.354-55.855-15.354-55.855Z" transform="translate(-13.877 -8.099)" fill="#ffac9d"/>
              <path id="Trazado_211008" data-name="Trazado 211008" d="M128.716,64.794a47.927,47.927,0,0,1,9.394,1.493l1.661-9.2-.006,0c.072-.506.263-1.551.529-2.893v0c.892-4.494,2.643-12.343,3.772-14.714,1.467-3.078,3.442-1.087,3.038.849-.312,1.5-1.235,11.246-1.64,15.625l.185.062c.771-4.089,2.773-13.371,4.019-15.985,1.466-3.079,3.441-1.087,3.037.849-.349,1.673-1.464,13.695-1.76,16.939l.141.048c.864-4.413,2.687-12.664,3.849-15.1,1.467-3.079,3.442-1.088,3.038.849-.267,1.279-.981,8.6-1.436,13.436a66.009,66.009,0,0,1,3.5-9.675c1.566-2.706,3.225-.741,2.713,1-.351,1.192-1.619,8.3-2.384,12.657l-2.081,14.555,1.377,8.025-15.007,3.9L143.6,80.395l-6.352-7c-2.682-1.626-6.369-3.8-8.107-4.544-2.9-1.246-4.743-3.986-.424-4.056" transform="translate(-12.037 -3.614)" fill="#ffac9d"/>
              <path id="Trazado_211009" data-name="Trazado 211009" d="M158.141,63.413a.428.428,0,0,1-.207-.018L143.94,58.578a.432.432,0,0,1,.281-.816l13.993,4.817a.431.431,0,0,1-.073.834" transform="translate(-13.706 -5.509)" fill="#cc887f"/>
              <path id="Trazado_211010" data-name="Trazado 211010" d="M146.917,74.415a.432.432,0,0,1-.461-.251,9.14,9.14,0,0,0-5.177-4.47.432.432,0,0,1,.251-.826,9.854,9.854,0,0,1,5.714,4.945.432.432,0,0,1-.219.57.437.437,0,0,1-.109.032" transform="translate(-13.451 -6.569)" fill="#cc887f"/>
              <path id="Trazado_211011" data-name="Trazado 211011" d="M35.408,102.622s-9.1,0-17.354,9.866C11.925,119.816.132,143.666.132,143.666l25.425,9.724Z" transform="translate(-0.013 -9.792)" fill="#684868"/>
              <path id="Trazado_211012" data-name="Trazado 211012" d="M3.351,172.557a103.64,103.64,0,0,0-3.233,31c.862,17.056,22.63,49.575,22.63,49.575l11.922-12L23.516,208.278l-.767-34.11Z" transform="translate(0 -16.464)" fill="#ffac9d"/>
              <path id="Trazado_211013" data-name="Trazado 211013" d="M33.585,244.634S44.955,255.583,47.9,260l2.948,4.422-21.056,7.58L23.931,258.32Z" transform="translate(-2.283 -23.341)" fill="#ffac9d"/>
              <path id="Trazado_211014" data-name="Trazado 211014" d="M41,252.548a75.548,75.548,0,0,1,7.58,1.684c3.158.948,10,2.317,9.9,3.79s-2.211,1.79-6,1.053l-3.79-.737-2.632.211Z" transform="translate(-3.912 -24.097)" fill="#ffac9d"/>
            </g>
          </g>
        </g>
      </g>
      <g id="Grupo_983729" data-name="Grupo 983729" transform="translate(1064.985 2694.442)">
        <g id="Grupo_983729-2" data-name="Grupo 983729" clip-path="url(#clip-path-12)">
          <path id="Trazado_211016" data-name="Trazado 211016" d="M32.166,0C14.4,0,0,10.633,0,23.751c0,7.094,4.214,13.46,10.892,17.812A48.279,48.279,0,0,1,4.7,53.97c-.125.179,0,.512.243.5,5.726-.374,11.043-4.353,15.507-7.641.309-.228.611-.465.917-.7a42.49,42.49,0,0,0,10.8,1.373c17.765,0,32.166-10.633,32.166-23.751S49.931,0,32.166,0" transform="translate(0.001)" fill="#3c3fa7"/>
          <path id="Trazado_211017" data-name="Trazado 211017" d="M161.957,170.723a2.306,2.306,0,1,1-2.306-2.306,2.306,2.306,0,0,1,2.306,2.306" transform="translate(-137.551 -147.23)" fill="#fff"/>
          <path id="Trazado_211018" data-name="Trazado 211018" d="M241.979,170.723a2.306,2.306,0,1,1-2.306-2.306,2.306,2.306,0,0,1,2.306,2.306" transform="translate(-207.506 -147.23)" fill="#fff"/>
          <path id="Trazado_211019" data-name="Trazado 211019" d="M322,170.723a2.306,2.306,0,1,1-2.306-2.306A2.306,2.306,0,0,1,322,170.723" transform="translate(-277.462 -147.23)" fill="#fff"/>
        </g>
      </g>
      <g id="Grupo_983730" data-name="Grupo 983730" transform="translate(475.985 2694.442)">
        <g id="Grupo_983731" data-name="Grupo 983731">
          <path id="Trazado_211016-2" data-name="Trazado 211016" d="M43.528,0c24.04,0,43.529,14.39,43.529,32.14,0,9.6-5.7,18.215-14.74,24.1A65.333,65.333,0,0,0,80.7,73.035c.17.243.006.693-.329.671-7.749-.507-14.944-5.89-20.984-10.34-.418-.308-.827-.629-1.241-.943A57.5,57.5,0,0,1,43.528,64.28C19.488,64.28,0,49.891,0,32.14S19.488,0,43.528,0" transform="translate(0.001)" fill="#f0f4ff"/>
          <path id="Trazado_211017-2" data-name="Trazado 211017" d="M157.345,171.537a3.12,3.12,0,1,0,3.12-3.12,3.12,3.12,0,0,0-3.12,3.12" transform="translate(-103.314 -139.746)" fill="#3c3fa7"/>
          <path id="Trazado_211018-2" data-name="Trazado 211018" d="M237.367,171.537a3.12,3.12,0,1,0,3.12-3.12,3.12,3.12,0,0,0-3.12,3.12" transform="translate(-196.959 -139.746)" fill="#3c3fa7"/>
          <path id="Trazado_211019-2" data-name="Trazado 211019" d="M317.389,171.537a3.12,3.12,0,1,0,3.12-3.12,3.121,3.121,0,0,0-3.12,3.12" transform="translate(-290.603 -139.746)" fill="#3c3fa7"/>
        </g>
      </g>
    </g>
  </g>
</svg>
